<?xml version="1.0" encoding="UTF-8" standalone="no"?>
<!DOCTYPE svg PUBLIC "-//W3C//DTD SVG 1.1//EN"
 "http://www.w3.org/Graphics/SVG/1.1/DTD/svg11.dtd">
<!-- Generated by graphviz version 2.36.0 (20140111.2315)
 -->
<!-- Title: application.SegregationCell.updateCell Pages: 1 -->
<svg width="652pt" height="82pt"
 viewBox="0.00 0.00 652.00 82.00" xmlns="http://www.w3.org/2000/svg" xmlns:xlink="http://www.w3.org/1999/xlink">
<g id="graph0" class="graph" transform="scale(1 1) rotate(0) translate(4 78)">
<title>application.SegregationCell.updateCell</title>
<polygon fill="white" stroke="none" points="-4,4 -4,-78 648,-78 648,4 -4,4"/>
<!-- Node1 -->
<g id="node1" class="node"><title>Node1</title>
<polygon fill="#bfbfbf" stroke="black" points="0.5,-27.5 0.5,-46.5 201.5,-46.5 201.5,-27.5 0.5,-27.5"/>
<text text-anchor="middle" x="101" y="-34.5" font-family="Helvetica,sans-Serif" font-size="10.00">application.SegregationCell.updateCell</text>
</g>
<!-- Node2 -->
<g id="node2" class="node"><title>Node2</title>
<g id="a_node2"><a xlink:href="../../d4/d72/classapplication_1_1_segregation_cell.html#a4dbfc05cde5b921854d6853ced73f42d" target="_top" xlink:title="application.SegregationCell.cell\lMover">
<polygon fill="white" stroke="black" points="268,-44 268,-74 434,-74 434,-44 268,-44"/>
<text text-anchor="start" x="276" y="-62" font-family="Helvetica,sans-Serif" font-size="10.00">application.SegregationCell.cell</text>
<text text-anchor="middle" x="351" y="-51" font-family="Helvetica,sans-Serif" font-size="10.00">Mover</text>
</a>
</g>
</g>
<!-- Node1&#45;&gt;Node2 -->
<g id="edge1" class="edge"><title>Node1&#45;&gt;Node2</title>
<path fill="none" stroke="midnightblue" d="M201.799,-45.8531C220.31,-47.4953 239.57,-49.2038 257.84,-50.8245"/>
<polygon fill="midnightblue" stroke="midnightblue" points="257.608,-54.3175 267.878,-51.715 258.226,-47.3449 257.608,-54.3175"/>
</g>
<!-- Node3 -->
<g id="node3" class="node"><title>Node3</title>
<g id="a_node3"><a xlink:href="../../d4/d72/classapplication_1_1_segregation_cell.html#a5a4c9f56ef09633109dab75481e93227" target="_top" xlink:title="application.SegregationCell.percentageCalc">
<polygon fill="white" stroke="black" points="238.5,-5.5 238.5,-24.5 463.5,-24.5 463.5,-5.5 238.5,-5.5"/>
<text text-anchor="middle" x="351" y="-12.5" font-family="Helvetica,sans-Serif" font-size="10.00">application.SegregationCell.percentageCalc</text>
</a>
</g>
</g>
<!-- Node1&#45;&gt;Node3 -->
<g id="edge2" class="edge"><title>Node1&#45;&gt;Node3</title>
<path fill="none" stroke="midnightblue" d="M201.799,-28.1469C211.894,-27.2514 222.211,-26.3361 232.469,-25.4261"/>
<polygon fill="midnightblue" stroke="midnightblue" points="233.045,-28.8888 242.697,-24.5188 232.427,-21.9162 233.045,-28.8888"/>
</g>
<!-- Node4 -->
<g id="node4" class="node"><title>Node4</title>
<g id="a_node4"><a xlink:href="../../d7/dff/classapplication_1_1_cell.html#adee02d15440cb198751d122a9d7a5f10" target="_top" xlink:title="application.Cell.findWanted\lNeighbors">
<polygon fill="white" stroke="black" points="500,-0 500,-30 644,-30 644,-0 500,-0"/>
<text text-anchor="start" x="508" y="-18" font-family="Helvetica,sans-Serif" font-size="10.00">application.Cell.findWanted</text>
<text text-anchor="middle" x="572" y="-7" font-family="Helvetica,sans-Serif" font-size="10.00">Neighbors</text>
</a>
</g>
</g>
<!-- Node3&#45;&gt;Node4 -->
<g id="edge3" class="edge"><title>Node3&#45;&gt;Node4</title>
<path fill="none" stroke="midnightblue" d="M463.745,-15C472.442,-15 481.12,-15 489.559,-15"/>
<polygon fill="midnightblue" stroke="midnightblue" points="489.72,-18.5001 499.72,-15 489.72,-11.5001 489.72,-18.5001"/>
</g>
</g>
</svg>
