<?xml version="1.0" encoding="UTF-8" standalone="no"?>
<!DOCTYPE svg PUBLIC "-//W3C//DTD SVG 1.1//EN"
 "http://www.w3.org/Graphics/SVG/1.1/DTD/svg11.dtd">
<!-- Generated by graphviz version 2.36.0 (20140111.2315)
 -->
<!-- Title: application.WaTorCell3 Pages: 1 -->
<svg width="408pt" height="218pt"
 viewBox="0.00 0.00 408.00 218.00" xmlns="http://www.w3.org/2000/svg" xmlns:xlink="http://www.w3.org/1999/xlink">
<g id="graph0" class="graph" transform="scale(1 1) rotate(0) translate(4 214)">
<title>application.WaTorCell3</title>
<polygon fill="white" stroke="none" points="-4,4 -4,-214 404,-214 404,4 -4,4"/>
<!-- Node1 -->
<g id="node1" class="node"><title>Node1</title>
<polygon fill="#bfbfbf" stroke="black" points="210,-0.5 210,-19.5 332,-19.5 332,-0.5 210,-0.5"/>
<text text-anchor="middle" x="271" y="-7.5" font-family="Helvetica,sans-Serif" font-size="10.00">application.WaTorCell3</text>
</g>
<!-- Node2 -->
<g id="node2" class="node"><title>Node2</title>
<g id="a_node2"><a xlink:href="../../d7/dff/classapplication_1_1_cell.html" target="_top" xlink:title="application.Cell">
<polygon fill="white" stroke="black" points="81.5,-100.5 81.5,-119.5 170.5,-119.5 170.5,-100.5 81.5,-100.5"/>
<text text-anchor="middle" x="126" y="-107.5" font-family="Helvetica,sans-Serif" font-size="10.00">application.Cell</text>
</a>
</g>
</g>
<!-- Node2&#45;&gt;Node1 -->
<g id="edge1" class="edge"><title>Node2&#45;&gt;Node1</title>
<path fill="none" stroke="midnightblue" d="M147.25,-94.6376C177.856,-73.9523 233.399,-36.4131 258.312,-19.5755"/>
<polygon fill="midnightblue" stroke="midnightblue" points="144.939,-91.9751 138.614,-100.475 148.859,-97.7747 144.939,-91.9751"/>
</g>
<!-- Node2&#45;&gt;Node2 -->
<g id="edge4" class="edge"><title>Node2&#45;&gt;Node2</title>
<path fill="none" stroke="#9a32cd" stroke-dasharray="5,2" d="M180.516,-115.533C185.126,-114.349 188,-112.505 188,-110 188,-105.992 180.644,-103.675 170.586,-103.049"/>
<polygon fill="#9a32cd" stroke="#9a32cd" points="179.991,-112.073 170.586,-116.951 180.98,-119.002 179.991,-112.073"/>
<text text-anchor="middle" x="204.5" y="-107.5" font-family="Helvetica,sans-Serif" font-size="10.00"> Matrix</text>
</g>
<!-- Node3 -->
<g id="node3" class="node"><title>Node3</title>
<polygon fill="white" stroke="#bfbfbf" points="-0.5,-179 -0.5,-209 142.5,-209 142.5,-179 -0.5,-179"/>
<text text-anchor="start" x="7.5" y="-197" font-family="Helvetica,sans-Serif" font-size="10.00">Map&lt; Integer, application.</text>
<text text-anchor="middle" x="71" y="-186" font-family="Helvetica,sans-Serif" font-size="10.00">Cell &gt;</text>
</g>
<!-- Node3&#45;&gt;Node2 -->
<g id="edge2" class="edge"><title>Node3&#45;&gt;Node2</title>
<path fill="none" stroke="#9a32cd" stroke-dasharray="5,2" d="M86.4209,-170.009C97.6721,-153.234 112.29,-131.44 120.237,-119.592"/>
<polygon fill="#9a32cd" stroke="#9a32cd" points="83.2439,-168.462 80.5803,-178.717 89.0574,-172.361 83.2439,-168.462"/>
<text text-anchor="middle" x="132.5" y="-146.5" font-family="Helvetica,sans-Serif" font-size="10.00"> neighbors</text>
</g>
<!-- Node4 -->
<g id="node4" class="node"><title>Node4</title>
<polygon fill="white" stroke="#bfbfbf" points="161,-184.5 161,-203.5 201,-203.5 201,-184.5 161,-184.5"/>
<text text-anchor="middle" x="181" y="-191.5" font-family="Helvetica,sans-Serif" font-size="10.00">Paint</text>
</g>
<!-- Node4&#45;&gt;Node2 -->
<g id="edge3" class="edge"><title>Node4&#45;&gt;Node2</title>
<path fill="none" stroke="#9a32cd" stroke-dasharray="5,2" d="M176.155,-174.458C172.615,-163.197 167.02,-148.935 159,-138 153.747,-130.837 146.167,-124.457 139.597,-119.699"/>
<polygon fill="#9a32cd" stroke="#9a32cd" points="172.808,-175.482 178.932,-184.128 179.536,-173.55 172.808,-175.482"/>
<text text-anchor="middle" x="204.5" y="-152" font-family="Helvetica,sans-Serif" font-size="10.00"> currentState</text>
<text text-anchor="middle" x="204.5" y="-141" font-family="Helvetica,sans-Serif" font-size="10.00">updatedState</text>
</g>
<!-- Node5 -->
<g id="node5" class="node"><title>Node5</title>
<polygon fill="white" stroke="#bfbfbf" points="239.5,-100.5 239.5,-119.5 400.5,-119.5 400.5,-100.5 239.5,-100.5"/>
<text text-anchor="middle" x="320" y="-107.5" font-family="Helvetica,sans-Serif" font-size="10.00">List&lt; application.WaTorCell3 &gt;</text>
</g>
<!-- Node5&#45;&gt;Node1 -->
<g id="edge5" class="edge"><title>Node5&#45;&gt;Node1</title>
<path fill="none" stroke="#9a32cd" stroke-dasharray="5,2" d="M311.048,-91.0952C300.444,-69.8875 283.218,-35.4365 275.269,-19.5374"/>
<polygon fill="#9a32cd" stroke="#9a32cd" points="308.049,-92.9241 315.652,-100.303 314.31,-89.7936 308.049,-92.9241"/>
<text text-anchor="middle" x="343.5" y="-74" font-family="Helvetica,sans-Serif" font-size="10.00"> moveSharkList</text>
<text text-anchor="middle" x="343.5" y="-63" font-family="Helvetica,sans-Serif" font-size="10.00">eatFishList</text>
<text text-anchor="middle" x="343.5" y="-52" font-family="Helvetica,sans-Serif" font-size="10.00">moveFishList</text>
<text text-anchor="middle" x="343.5" y="-41" font-family="Helvetica,sans-Serif" font-size="10.00">breedList</text>
</g>
</g>
</svg>
