<?xml version="1.0" encoding="UTF-8" standalone="no"?>
<!DOCTYPE svg PUBLIC "-//W3C//DTD SVG 1.1//EN"
 "http://www.w3.org/Graphics/SVG/1.1/DTD/svg11.dtd">
<!-- Generated by graphviz version 2.36.0 (20140111.2315)
 -->
<!-- Title: application.WaTorCell2.populateOtherCell Pages: 1 -->
<svg width="982pt" height="77pt"
 viewBox="0.00 0.00 982.00 77.00" xmlns="http://www.w3.org/2000/svg" xmlns:xlink="http://www.w3.org/1999/xlink">
<g id="graph0" class="graph" transform="scale(1 1) rotate(0) translate(4 73)">
<title>application.WaTorCell2.populateOtherCell</title>
<polygon fill="white" stroke="none" points="-4,4 -4,-73 978,-73 978,4 -4,4"/>
<!-- Node1 -->
<g id="node1" class="node"><title>Node1</title>
<polygon fill="#bfbfbf" stroke="black" points="0.5,-17 0.5,-47 167.5,-47 167.5,-17 0.5,-17"/>
<text text-anchor="start" x="8.5" y="-35" font-family="Helvetica,sans-Serif" font-size="10.00">application.WaTorCell2.populate</text>
<text text-anchor="middle" x="84" y="-24" font-family="Helvetica,sans-Serif" font-size="10.00">OtherCell</text>
</g>
<!-- Node2 -->
<g id="node2" class="node"><title>Node2</title>
<g id="a_node2"><a xlink:href="../../d4/dd2/classapplication_1_1_wa_tor_cell2.html#a9c34fc1d0caa39c1095ff90596b3e67b" target="_top" xlink:title="application.WaTorCell2.move\lShark">
<polygon fill="white" stroke="black" points="204,-39 204,-69 356,-69 356,-39 204,-39"/>
<text text-anchor="start" x="212" y="-57" font-family="Helvetica,sans-Serif" font-size="10.00">application.WaTorCell2.move</text>
<text text-anchor="middle" x="280" y="-46" font-family="Helvetica,sans-Serif" font-size="10.00">Shark</text>
</a>
</g>
</g>
<!-- Node1&#45;&gt;Node2 -->
<g id="edge1" class="edge"><title>Node1&#45;&gt;Node2</title>
<path fill="none" stroke="midnightblue" d="M177.505,-42.4903C186.352,-43.4935 195.248,-44.5023 203.899,-45.4833"/>
<polygon fill="midnightblue" stroke="midnightblue" points="177.885,-39.0111 167.555,-41.3619 177.097,-45.9665 177.885,-39.0111"/>
</g>
<!-- Node6 -->
<g id="node6" class="node"><title>Node6</title>
<g id="a_node6"><a xlink:href="../../d4/dd2/classapplication_1_1_wa_tor_cell2.html#a5b87209823e77f0e2ea88551a956a892" target="_top" xlink:title="application.WaTorCell2.updateFish">
<polygon fill="white" stroke="black" points="392,-0.5 392,-19.5 568,-19.5 568,-0.5 392,-0.5"/>
<text text-anchor="middle" x="480" y="-7.5" font-family="Helvetica,sans-Serif" font-size="10.00">application.WaTorCell2.updateFish</text>
</a>
</g>
</g>
<!-- Node1&#45;&gt;Node6 -->
<g id="edge5" class="edge"><title>Node1&#45;&gt;Node6</title>
<path fill="none" stroke="midnightblue" d="M177.793,-26.8187C242.501,-23.2055 328.271,-18.4163 391.732,-14.8728"/>
<polygon fill="midnightblue" stroke="midnightblue" points="177.385,-23.3359 167.595,-27.3881 177.775,-30.325 177.385,-23.3359"/>
</g>
<!-- Node3 -->
<g id="node3" class="node"><title>Node3</title>
<g id="a_node3"><a xlink:href="../../d4/dd2/classapplication_1_1_wa_tor_cell2.html#a4c116bc052edb10528b26b7905518cf6" target="_top" xlink:title="application.WaTorCell2.update\lShark">
<polygon fill="white" stroke="black" points="401,-39 401,-69 559,-69 559,-39 401,-39"/>
<text text-anchor="start" x="409" y="-57" font-family="Helvetica,sans-Serif" font-size="10.00">application.WaTorCell2.update</text>
<text text-anchor="middle" x="480" y="-46" font-family="Helvetica,sans-Serif" font-size="10.00">Shark</text>
</a>
</g>
</g>
<!-- Node2&#45;&gt;Node3 -->
<g id="edge2" class="edge"><title>Node2&#45;&gt;Node3</title>
<path fill="none" stroke="midnightblue" d="M366.2,-54C377.743,-54 389.541,-54 400.951,-54"/>
<polygon fill="midnightblue" stroke="midnightblue" points="366.138,-50.5001 356.138,-54 366.138,-57.5001 366.138,-50.5001"/>
</g>
<!-- Node4 -->
<g id="node4" class="node"><title>Node4</title>
<g id="a_node4"><a xlink:href="../../d4/dd2/classapplication_1_1_wa_tor_cell2.html#a5f759ecf2a2a0d5b46a8cd3180663d5f" target="_top" xlink:title="application.WaTorCell2.update\lState">
<polygon fill="white" stroke="black" points="604,-17 604,-47 762,-47 762,-17 604,-17"/>
<text text-anchor="start" x="612" y="-35" font-family="Helvetica,sans-Serif" font-size="10.00">application.WaTorCell2.update</text>
<text text-anchor="middle" x="683" y="-24" font-family="Helvetica,sans-Serif" font-size="10.00">State</text>
</a>
</g>
</g>
<!-- Node3&#45;&gt;Node4 -->
<g id="edge3" class="edge"><title>Node3&#45;&gt;Node4</title>
<path fill="none" stroke="midnightblue" d="M569.339,-44.3311C580.857,-43.0703 592.592,-41.7859 603.926,-40.5454"/>
<polygon fill="midnightblue" stroke="midnightblue" points="568.847,-40.8639 559.287,-45.4312 569.609,-47.8223 568.847,-40.8639"/>
</g>
<!-- Node5 -->
<g id="node5" class="node"><title>Node5</title>
<g id="a_node5"><a xlink:href="../../d4/dd2/classapplication_1_1_wa_tor_cell2.html#ad372db7cd5887c0f806d3125c33c094a" target="_top" xlink:title="application.WaTorCell2.updateCell">
<polygon fill="white" stroke="black" points="798,-22.5 798,-41.5 974,-41.5 974,-22.5 798,-22.5"/>
<text text-anchor="middle" x="886" y="-29.5" font-family="Helvetica,sans-Serif" font-size="10.00">application.WaTorCell2.updateCell</text>
</a>
</g>
</g>
<!-- Node4&#45;&gt;Node5 -->
<g id="edge4" class="edge"><title>Node4&#45;&gt;Node5</title>
<path fill="none" stroke="midnightblue" d="M772.509,-32C780.949,-32 789.504,-32 797.93,-32"/>
<polygon fill="midnightblue" stroke="midnightblue" points="772.287,-28.5001 762.287,-32 772.287,-35.5001 772.287,-28.5001"/>
</g>
<!-- Node6&#45;&gt;Node4 -->
<g id="edge6" class="edge"><title>Node6&#45;&gt;Node4</title>
<path fill="none" stroke="midnightblue" d="M578.065,-20.624C586.671,-21.5659 595.31,-22.5116 603.731,-23.4332"/>
<polygon fill="midnightblue" stroke="midnightblue" points="578.314,-17.1305 567.992,-19.5216 577.552,-24.0889 578.314,-17.1305"/>
</g>
</g>
</svg>
