<?xml version="1.0" encoding="UTF-8" standalone="no"?>
<!DOCTYPE svg PUBLIC "-//W3C//DTD SVG 1.1//EN"
 "http://www.w3.org/Graphics/SVG/1.1/DTD/svg11.dtd">
<!-- Generated by graphviz version 2.36.0 (20140111.2315)
 -->
<!-- Title: application.WaTorCell2.updateState Pages: 1 -->
<!--zoomable 230 -->
<svg id="main" version="1.1" xmlns="http://www.w3.org/2000/svg" xmlns:xlink="http://www.w3.org/1999/xlink" xml:space="preserve" onload="init(evt)">
<style type="text/css"><![CDATA[
.edge:hover path { stroke: red; }
.edge:hover polygon { stroke: red; fill: red; }
]]></style>
<script type="text/javascript"><![CDATA[
var edges = document.getElementsByTagName('g');
if (edges && edges.length) {
  for (var i=0;i<edges.length;i++) {
    if (edges[i].id.substr(0,4)=='edge') {
      edges[i].setAttribute('class','edge');
    }
  }
}
]]></script>
        <defs>
                <circle id="rim" cx="0" cy="0" r="7"/>
                <circle id="rim2" cx="0" cy="0" r="3.5"/>
                <g id="zoomPlus">
                        <use xlink:href="#rim" fill="#404040">
                                <set attributeName="fill" to="#808080" begin="zoomplus.mouseover" end="zoomplus.mouseout"/>
                        </use>
                        <path d="M-4,0h8M0,-4v8" fill="none" stroke="white" stroke-width="1.5" pointer-events="none"/>
                </g>
                <g id="zoomMin">
                        <use xlink:href="#rim" fill="#404040">
                                <set attributeName="fill" to="#808080" begin="zoomminus.mouseover" end="zoomminus.mouseout"/>
                        </use>
                        <path d="M-4,0h8" fill="none" stroke="white" stroke-width="1.5" pointer-events="none"/>
                </g>
                <g id="dirArrow">
                        <path fill="none" stroke="white" stroke-width="1.5" d="M0,-3.0v7 M-2.5,-0.5L0,-3.0L2.5,-0.5"/>
                </g>
               <g id="resetDef">
                       <use xlink:href="#rim2" fill="#404040">
                               <set attributeName="fill" to="#808080" begin="reset.mouseover" end="reset.mouseout"/>
                       </use>
               </g>
        </defs>

<script type="text/javascript">
var viewWidth = 1352;
var viewHeight = 230;
var sectionId = 'dynsection-21';
</script>
<script xlink:href="../../svgpan.js"/>
<svg id="graph" class="graph">
<g id="viewport">
<title>application.WaTorCell2.updateState</title>
<polygon fill="white" stroke="none" points="-4,4 -4,-226.099 1348,-226.099 1348,4 -4,4"/>
<!-- Node1 -->
<g id="node1" class="node"><title>Node1</title>
<polygon fill="#bfbfbf" stroke="black" points="0,-83.0991 0,-113.099 158,-113.099 158,-83.0991 0,-83.0991"/>
<text text-anchor="start" x="8" y="-101.099" font-family="Helvetica,sans-Serif" font-size="10.00">application.WaTorCell2.update</text>
<text text-anchor="middle" x="79" y="-90.0991" font-family="Helvetica,sans-Serif" font-size="10.00">State</text>
</g>
<!-- Node2 -->
<g id="node2" class="node"><title>Node2</title>
<g id="a_node2"><a xlink:href="../../d4/dd2/classapplication_1_1_wa_tor_cell2.html#a5b87209823e77f0e2ea88551a956a892" target="_top" xlink:title="application.WaTorCell2.updateFish">
<polygon fill="white" stroke="black" points="388,-131.599 388,-150.599 564,-150.599 564,-131.599 388,-131.599"/>
<text text-anchor="middle" x="476" y="-138.599" font-family="Helvetica,sans-Serif" font-size="10.00">application.WaTorCell2.updateFish</text>
</a>
</g>
</g>
<!-- Node1&#45;&gt;Node2 -->
<g id="edge1" class="edge"><title>Node1&#45;&gt;Node2</title>
<path fill="none" stroke="midnightblue" d="M158.039,-106.595C221.02,-113.451 309.961,-123.133 377.605,-130.497"/>
<polygon fill="midnightblue" stroke="midnightblue" points="377.528,-134.009 387.848,-131.612 378.285,-127.05 377.528,-134.009"/>
</g>
<!-- Node9 -->
<g id="node9" class="node"><title>Node9</title>
<g id="a_node9"><a xlink:href="../../d4/dd2/classapplication_1_1_wa_tor_cell2.html#a4c116bc052edb10528b26b7905518cf6" target="_top" xlink:title="application.WaTorCell2.update\lShark">
<polygon fill="white" stroke="black" points="194,-55.0991 194,-85.0991 352,-85.0991 352,-55.0991 194,-55.0991"/>
<text text-anchor="start" x="202" y="-73.0991" font-family="Helvetica,sans-Serif" font-size="10.00">application.WaTorCell2.update</text>
<text text-anchor="middle" x="273" y="-62.0991" font-family="Helvetica,sans-Serif" font-size="10.00">Shark</text>
</a>
</g>
</g>
<!-- Node1&#45;&gt;Node9 -->
<g id="edge9" class="edge"><title>Node1&#45;&gt;Node9</title>
<path fill="none" stroke="midnightblue" d="M158.094,-86.7105C166.601,-85.4699 175.302,-84.2009 183.918,-82.9445"/>
<polygon fill="midnightblue" stroke="midnightblue" points="184.585,-86.3842 193.975,-81.4777 183.575,-79.4575 184.585,-86.3842"/>
</g>
<!-- Node3 -->
<g id="node3" class="node"><title>Node3</title>
<g id="a_node3"><a xlink:href="../../d4/dd2/classapplication_1_1_wa_tor_cell2.html#ae8814379484c6933a5f2dea4091732ba" target="_top" xlink:title="application.WaTorCell2.check\lTimeTillFishBreeding">
<polygon fill="white" stroke="black" points="608,-192.099 608,-222.099 760,-222.099 760,-192.099 608,-192.099"/>
<text text-anchor="start" x="616" y="-210.099" font-family="Helvetica,sans-Serif" font-size="10.00">application.WaTorCell2.check</text>
<text text-anchor="middle" x="684" y="-199.099" font-family="Helvetica,sans-Serif" font-size="10.00">TimeTillFishBreeding</text>
</a>
</g>
</g>
<!-- Node2&#45;&gt;Node3 -->
<g id="edge2" class="edge"><title>Node2&#45;&gt;Node3</title>
<path fill="none" stroke="midnightblue" d="M506.954,-150.696C538.124,-160.683 587.682,-176.56 626.287,-188.929"/>
<polygon fill="midnightblue" stroke="midnightblue" points="625.256,-192.274 635.847,-191.992 627.392,-185.608 625.256,-192.274"/>
</g>
<!-- Node5 -->
<g id="node5" class="node"><title>Node5</title>
<g id="a_node5"><a xlink:href="../../d4/dd2/classapplication_1_1_wa_tor_cell2.html#ab44c3d22c1070c3496a7c7b3b7f1d48e" target="_top" xlink:title="application.WaTorCell2.find\lNeighbors">
<polygon fill="white" stroke="black" points="1003,-74.0991 1003,-104.099 1145,-104.099 1145,-74.0991 1003,-74.0991"/>
<text text-anchor="start" x="1011" y="-92.0991" font-family="Helvetica,sans-Serif" font-size="10.00">application.WaTorCell2.find</text>
<text text-anchor="middle" x="1074" y="-81.0991" font-family="Helvetica,sans-Serif" font-size="10.00">Neighbors</text>
</a>
</g>
</g>
<!-- Node2&#45;&gt;Node5 -->
<g id="edge7" class="edge"><title>Node2&#45;&gt;Node5</title>
<path fill="none" stroke="midnightblue" d="M564.017,-142.69C576.103,-142.86 588.361,-143.005 600,-143.099 674.664,-143.706 693.62,-149.633 768,-143.099 846.906,-136.168 935.986,-119.335 997.409,-106.29"/>
<polygon fill="midnightblue" stroke="midnightblue" points="998.358,-109.666 1007.4,-104.149 996.892,-102.821 998.358,-109.666"/>
</g>
<!-- Node8 -->
<g id="node8" class="node"><title>Node8</title>
<g id="a_node8"><a xlink:href="../../d4/dd2/classapplication_1_1_wa_tor_cell2.html#ad1101a19661397640f4b6a0052f0f3ea" target="_top" xlink:title="application.WaTorCell2.populate\lOtherCell">
<polygon fill="white" stroke="black" points="600.5,-104.099 600.5,-134.099 767.5,-134.099 767.5,-104.099 600.5,-104.099"/>
<text text-anchor="start" x="608.5" y="-122.099" font-family="Helvetica,sans-Serif" font-size="10.00">application.WaTorCell2.populate</text>
<text text-anchor="middle" x="684" y="-111.099" font-family="Helvetica,sans-Serif" font-size="10.00">OtherCell</text>
</a>
</g>
</g>
<!-- Node2&#45;&gt;Node8 -->
<g id="edge8" class="edge"><title>Node2&#45;&gt;Node8</title>
<path fill="none" stroke="midnightblue" d="M564.064,-131.801C572.667,-130.882 581.422,-129.947 590.081,-129.023"/>
<polygon fill="midnightblue" stroke="midnightblue" points="590.615,-132.486 600.186,-127.943 589.871,-125.525 590.615,-132.486"/>
</g>
<!-- Node4 -->
<g id="node4" class="node"><title>Node4</title>
<g id="a_node4"><a xlink:href="../../d4/dd2/classapplication_1_1_wa_tor_cell2.html#aef2f48f664866e631e9e8a72e8a672e7" target="_top" xlink:title="application.WaTorCell2.breed">
<polygon fill="white" stroke="black" points="804,-191.599 804,-210.599 956,-210.599 956,-191.599 804,-191.599"/>
<text text-anchor="middle" x="880" y="-198.599" font-family="Helvetica,sans-Serif" font-size="10.00">application.WaTorCell2.breed</text>
</a>
</g>
</g>
<!-- Node3&#45;&gt;Node4 -->
<g id="edge3" class="edge"><title>Node3&#45;&gt;Node4</title>
<path fill="none" stroke="midnightblue" d="M760.005,-204.779C771.026,-204.439 782.447,-204.085 793.656,-203.739"/>
<polygon fill="midnightblue" stroke="midnightblue" points="793.987,-207.23 803.874,-203.423 793.771,-200.234 793.987,-207.23"/>
</g>
<!-- Node4&#45;&gt;Node5 -->
<g id="edge4" class="edge"><title>Node4&#45;&gt;Node5</title>
<path fill="none" stroke="midnightblue" d="M919.377,-191.522C931.441,-187.806 944.585,-183.002 956,-177.099 990.986,-159.006 1026.49,-130.571 1049.06,-110.945"/>
<polygon fill="midnightblue" stroke="midnightblue" points="1051.58,-113.388 1056.77,-104.148 1046.95,-108.138 1051.58,-113.388"/>
</g>
<!-- Node7 -->
<g id="node7" class="node"><title>Node7</title>
<g id="a_node7"><a xlink:href="../../d4/dd2/classapplication_1_1_wa_tor_cell2.html#aac1548ffada995a7eb78440ce30e4e95" target="_top" xlink:title="application.WaTorCell2.initialize\lNewCell">
<polygon fill="white" stroke="black" points="992.5,-186.099 992.5,-216.099 1155.5,-216.099 1155.5,-186.099 992.5,-186.099"/>
<text text-anchor="start" x="1000.5" y="-204.099" font-family="Helvetica,sans-Serif" font-size="10.00">application.WaTorCell2.initialize</text>
<text text-anchor="middle" x="1074" y="-193.099" font-family="Helvetica,sans-Serif" font-size="10.00">NewCell</text>
</a>
</g>
</g>
<!-- Node4&#45;&gt;Node7 -->
<g id="edge6" class="edge"><title>Node4&#45;&gt;Node7</title>
<path fill="none" stroke="midnightblue" d="M956.057,-201.099C964.599,-201.099 973.374,-201.099 982.093,-201.099"/>
<polygon fill="midnightblue" stroke="midnightblue" points="982.285,-204.599 992.285,-201.099 982.285,-197.599 982.285,-204.599"/>
</g>
<!-- Node6 -->
<g id="node6" class="node"><title>Node6</title>
<g id="a_node6"><a xlink:href="../../d4/dd2/classapplication_1_1_wa_tor_cell2.html#a75398d99fc4f04f7137702b84f8f9f1f" target="_top" xlink:title="application.WaTorCell2.check\lBounds">
<polygon fill="white" stroke="black" points="1192,-74.0991 1192,-104.099 1344,-104.099 1344,-74.0991 1192,-74.0991"/>
<text text-anchor="start" x="1200" y="-92.0991" font-family="Helvetica,sans-Serif" font-size="10.00">application.WaTorCell2.check</text>
<text text-anchor="middle" x="1268" y="-81.0991" font-family="Helvetica,sans-Serif" font-size="10.00">Bounds</text>
</a>
</g>
</g>
<!-- Node5&#45;&gt;Node6 -->
<g id="edge5" class="edge"><title>Node5&#45;&gt;Node6</title>
<path fill="none" stroke="midnightblue" d="M1145.13,-89.0991C1157.02,-89.0991 1169.47,-89.0991 1181.69,-89.0991"/>
<polygon fill="midnightblue" stroke="midnightblue" points="1181.89,-92.5992 1191.89,-89.0991 1181.89,-85.5992 1181.89,-92.5992"/>
</g>
<!-- Node9&#45;&gt;Node5 -->
<g id="edge10" class="edge"><title>Node9&#45;&gt;Node5</title>
<path fill="none" stroke="midnightblue" d="M328.995,-55.0307C446.312,-25.3557 728.947,32.9427 956,-25.0991 988.477,-33.4012 1021.64,-52.7831 1044.33,-68.057"/>
<polygon fill="midnightblue" stroke="midnightblue" points="1042.56,-71.0914 1052.78,-73.8868 1046.54,-65.3286 1042.56,-71.0914"/>
</g>
<!-- Node10 -->
<g id="node10" class="node"><title>Node10</title>
<g id="a_node10"><a xlink:href="../../d4/dd2/classapplication_1_1_wa_tor_cell2.html#a9c34fc1d0caa39c1095ff90596b3e67b" target="_top" xlink:title="application.WaTorCell2.move\lShark">
<polygon fill="white" stroke="black" points="400,-55.0991 400,-85.0991 552,-85.0991 552,-55.0991 400,-55.0991"/>
<text text-anchor="start" x="408" y="-73.0991" font-family="Helvetica,sans-Serif" font-size="10.00">application.WaTorCell2.move</text>
<text text-anchor="middle" x="476" y="-62.0991" font-family="Helvetica,sans-Serif" font-size="10.00">Shark</text>
</a>
</g>
</g>
<!-- Node9&#45;&gt;Node10 -->
<g id="edge11" class="edge"><title>Node9&#45;&gt;Node10</title>
<path fill="none" stroke="midnightblue" d="M352.287,-70.0991C364.516,-70.0991 377.206,-70.0991 389.584,-70.0991"/>
<polygon fill="midnightblue" stroke="midnightblue" points="389.892,-73.5992 399.892,-70.0991 389.891,-66.5992 389.892,-73.5992"/>
</g>
<!-- Node10&#45;&gt;Node5 -->
<g id="edge15" class="edge"><title>Node10&#45;&gt;Node5</title>
<path fill="none" stroke="midnightblue" d="M538.572,-55.067C558.09,-50.9815 579.836,-47.1275 600,-45.0991 757.428,-29.2623 800.33,-16.7955 956,-45.0991 982.411,-49.9011 1010.61,-60.3351 1032.71,-69.8375"/>
<polygon fill="midnightblue" stroke="midnightblue" points="1031.53,-73.1429 1042.1,-73.9736 1034.36,-66.7375 1031.53,-73.1429"/>
</g>
<!-- Node10&#45;&gt;Node8 -->
<g id="edge16" class="edge"><title>Node10&#45;&gt;Node8</title>
<path fill="none" stroke="midnightblue" d="M540.207,-85.1337C562.254,-90.378 587.176,-96.306 609.956,-101.725"/>
<polygon fill="midnightblue" stroke="midnightblue" points="609.374,-105.184 619.913,-104.093 610.994,-98.3738 609.374,-105.184"/>
</g>
<!-- Node11 -->
<g id="node11" class="node"><title>Node11</title>
<g id="a_node11"><a xlink:href="../../d4/dd2/classapplication_1_1_wa_tor_cell2.html#a9154658e7aeed7ceef48a58994ea0f35" target="_top" xlink:title="application.WaTorCell2.check\lTimeTillSharkEvents">
<polygon fill="white" stroke="black" points="608,-55.0991 608,-85.0991 760,-85.0991 760,-55.0991 608,-55.0991"/>
<text text-anchor="start" x="616" y="-73.0991" font-family="Helvetica,sans-Serif" font-size="10.00">application.WaTorCell2.check</text>
<text text-anchor="middle" x="684" y="-62.0991" font-family="Helvetica,sans-Serif" font-size="10.00">TimeTillSharkEvents</text>
</a>
</g>
</g>
<!-- Node10&#45;&gt;Node11 -->
<g id="edge12" class="edge"><title>Node10&#45;&gt;Node11</title>
<path fill="none" stroke="midnightblue" d="M552.245,-70.0991C567,-70.0991 582.576,-70.0991 597.634,-70.0991"/>
<polygon fill="midnightblue" stroke="midnightblue" points="597.959,-73.5992 607.959,-70.0991 597.959,-66.5992 597.959,-73.5992"/>
</g>
<!-- Node11&#45;&gt;Node4 -->
<g id="edge13" class="edge"><title>Node11&#45;&gt;Node4</title>
<path fill="none" stroke="midnightblue" d="M749.299,-85.2489C755.803,-87.7876 762.157,-90.7202 768,-94.0991 808.888,-117.742 846.147,-159.629 865.353,-183.376"/>
<polygon fill="midnightblue" stroke="midnightblue" points="862.846,-185.848 871.8,-191.513 868.333,-181.501 862.846,-185.848"/>
</g>
<!-- Node12 -->
<g id="node12" class="node"><title>Node12</title>
<g id="a_node12"><a xlink:href="../../d4/dd2/classapplication_1_1_wa_tor_cell2.html#aaf0c4794bbc60d9f0531824e077bc83e" target="_top" xlink:title="application.WaTorCell2.kill\lShark">
<polygon fill="white" stroke="black" points="811.5,-55.0991 811.5,-85.0991 948.5,-85.0991 948.5,-55.0991 811.5,-55.0991"/>
<text text-anchor="start" x="819.5" y="-73.0991" font-family="Helvetica,sans-Serif" font-size="10.00">application.WaTorCell2.kill</text>
<text text-anchor="middle" x="880" y="-62.0991" font-family="Helvetica,sans-Serif" font-size="10.00">Shark</text>
</a>
</g>
</g>
<!-- Node11&#45;&gt;Node12 -->
<g id="edge14" class="edge"><title>Node11&#45;&gt;Node12</title>
<path fill="none" stroke="midnightblue" d="M760.005,-70.0991C773.515,-70.0991 787.626,-70.0991 801.212,-70.0991"/>
<polygon fill="midnightblue" stroke="midnightblue" points="801.481,-73.5992 811.481,-70.0991 801.481,-66.5992 801.481,-73.5992"/>
</g>
</g>
</svg>
        <g id="navigator" transform="translate(0 0)" fill="#404254">
                <rect fill="#f2f5e9" fill-opacity="0.5" stroke="#606060" stroke-width=".5" x="0" y="0" width="60" height="60"/>
                <use id="zoomplus" xlink:href="#zoomPlus" x="17" y="9" onmousedown="handleZoom(evt,'in')"/>
                <use id="zoomminus" xlink:href="#zoomMin" x="42" y="9" onmousedown="handleZoom(evt,'out')"/>
                <use id="reset" xlink:href="#resetDef" x="30" y="36" onmousedown="handleReset()"/>
                <g id="arrowUp" xlink:href="#dirArrow" transform="translate(30 24)" onmousedown="handlePan(0,-1)">
                  <use xlink:href="#rim" fill="#404040">
                        <set attributeName="fill" to="#808080" begin="arrowUp.mouseover" end="arrowUp.mouseout"/>
                  </use>
                  <path fill="none" stroke="white" stroke-width="1.5" d="M0,-3.0v7 M-2.5,-0.5L0,-3.0L2.5,-0.5"/>
                </g>
                <g id="arrowRight" xlink:href="#dirArrow" transform="rotate(90) translate(36 -43)" onmousedown="handlePan(1,0)">
                  <use xlink:href="#rim" fill="#404040">
                        <set attributeName="fill" to="#808080" begin="arrowRight.mouseover" end="arrowRight.mouseout"/>
                  </use>
                  <path fill="none" stroke="white" stroke-width="1.5" d="M0,-3.0v7 M-2.5,-0.5L0,-3.0L2.5,-0.5"/>
                </g>
                <g id="arrowDown" xlink:href="#dirArrow" transform="rotate(180) translate(-30 -48)" onmousedown="handlePan(0,1)">
                  <use xlink:href="#rim" fill="#404040">
                        <set attributeName="fill" to="#808080" begin="arrowDown.mouseover" end="arrowDown.mouseout"/>
                  </use>
                  <path fill="none" stroke="white" stroke-width="1.5" d="M0,-3.0v7 M-2.5,-0.5L0,-3.0L2.5,-0.5"/>
                </g>
                <g id="arrowLeft" xlink:href="#dirArrow" transform="rotate(270) translate(-36 17)" onmousedown="handlePan(-1,0)">
                  <use xlink:href="#rim" fill="#404040">
                        <set attributeName="fill" to="#808080" begin="arrowLeft.mouseover" end="arrowLeft.mouseout"/>
                  </use>
                  <path fill="none" stroke="white" stroke-width="1.5" d="M0,-3.0v7 M-2.5,-0.5L0,-3.0L2.5,-0.5"/>
                </g>
        </g>
        <svg viewBox="0 0 15 15" width="100%" height="30px" preserveAspectRatio="xMaxYMin meet">
         <g id="arrow_out" transform="scale(0.3 0.3)">
          <a xlink:href="classapplication_1_1_wa_tor_cell2_a5f759ecf2a2a0d5b46a8cd3180663d5f_cgraph_org.svg" target="_base">
           <rect id="button" ry="5" rx="5" y="6" x="6" height="38" width="38"
                fill="#f2f5e9" fill-opacity="0.5" stroke="#606060" stroke-width="1.0"/>
           <path id="arrow"
             d="M 11.500037,31.436501 C 11.940474,20.09759 22.043105,11.32322 32.158766,21.979434 L 37.068811,17.246167 C 37.068811,17.246167 37.088388,32 37.088388,32 L 22.160133,31.978069 C 22.160133,31.978069 26.997745,27.140456 26.997745,27.140456 C 18.528582,18.264221 13.291696,25.230495 11.500037,31.436501 z"
             style="fill:#404040;"/>
          </a>
         </g>
        </svg>
</svg>
