<?xml version="1.0" encoding="UTF-8" standalone="no"?>
<!DOCTYPE svg PUBLIC "-//W3C//DTD SVG 1.1//EN"
 "http://www.w3.org/Graphics/SVG/1.1/DTD/svg11.dtd">
<!-- Generated by graphviz version 2.36.0 (20140111.2315)
 -->
<!-- Title: application.WaTorCell2.findNeighbors Pages: 1 -->
<svg width="338pt" height="38pt"
 viewBox="0.00 0.00 338.00 38.00" xmlns="http://www.w3.org/2000/svg" xmlns:xlink="http://www.w3.org/1999/xlink">
<g id="graph0" class="graph" transform="scale(1 1) rotate(0) translate(4 34)">
<title>application.WaTorCell2.findNeighbors</title>
<polygon fill="white" stroke="none" points="-4,4 -4,-34 334,-34 334,4 -4,4"/>
<!-- Node1 -->
<g id="node1" class="node"><title>Node1</title>
<polygon fill="#bfbfbf" stroke="black" points="0,-0 0,-30 142,-30 142,-0 0,-0"/>
<text text-anchor="start" x="8" y="-18" font-family="Helvetica,sans-Serif" font-size="10.00">application.WaTorCell2.find</text>
<text text-anchor="middle" x="71" y="-7" font-family="Helvetica,sans-Serif" font-size="10.00">Neighbors</text>
</g>
<!-- Node2 -->
<g id="node2" class="node"><title>Node2</title>
<g id="a_node2"><a xlink:href="../../d4/dd2/classapplication_1_1_wa_tor_cell2.html#a75398d99fc4f04f7137702b84f8f9f1f" target="_top" xlink:title="application.WaTorCell2.check\lBounds">
<polygon fill="white" stroke="black" points="178,-0 178,-30 330,-30 330,-0 178,-0"/>
<text text-anchor="start" x="186" y="-18" font-family="Helvetica,sans-Serif" font-size="10.00">application.WaTorCell2.check</text>
<text text-anchor="middle" x="254" y="-7" font-family="Helvetica,sans-Serif" font-size="10.00">Bounds</text>
</a>
</g>
</g>
<!-- Node1&#45;&gt;Node2 -->
<g id="edge1" class="edge"><title>Node1&#45;&gt;Node2</title>
<path fill="none" stroke="midnightblue" d="M142.238,-15C150.504,-15 159.007,-15 167.453,-15"/>
<polygon fill="midnightblue" stroke="midnightblue" points="167.706,-18.5001 177.706,-15 167.706,-11.5001 167.706,-18.5001"/>
</g>
</g>
</svg>
