<?xml version="1.0" encoding="UTF-8" standalone="no"?>
<!DOCTYPE svg PUBLIC "-//W3C//DTD SVG 1.1//EN"
 "http://www.w3.org/Graphics/SVG/1.1/DTD/svg11.dtd">
<!-- Generated by graphviz version 2.36.0 (20140111.2315)
 -->
<!-- Title: application.WaTorCell2.updateShark Pages: 1 -->
<svg width="1134pt" height="147pt"
 viewBox="0.00 0.00 1134.00 147.00" xmlns="http://www.w3.org/2000/svg" xmlns:xlink="http://www.w3.org/1999/xlink">
<g id="graph0" class="graph" transform="scale(1 1) rotate(0) translate(4 143)">
<title>application.WaTorCell2.updateShark</title>
<polygon fill="white" stroke="none" points="-4,4 -4,-143 1130,-143 1130,4 -4,4"/>
<!-- Node1 -->
<g id="node1" class="node"><title>Node1</title>
<polygon fill="#bfbfbf" stroke="black" points="0,-109 0,-139 158,-139 158,-109 0,-109"/>
<text text-anchor="start" x="8" y="-127" font-family="Helvetica,sans-Serif" font-size="10.00">application.WaTorCell2.update</text>
<text text-anchor="middle" x="79" y="-116" font-family="Helvetica,sans-Serif" font-size="10.00">Shark</text>
</g>
<!-- Node2 -->
<g id="node2" class="node"><title>Node2</title>
<g id="a_node2"><a xlink:href="../../d4/dd2/classapplication_1_1_wa_tor_cell2.html#ab44c3d22c1070c3496a7c7b3b7f1d48e" target="_top" xlink:title="application.WaTorCell2.find\lNeighbors">
<polygon fill="white" stroke="black" points="785,-99 785,-129 927,-129 927,-99 785,-99"/>
<text text-anchor="start" x="793" y="-117" font-family="Helvetica,sans-Serif" font-size="10.00">application.WaTorCell2.find</text>
<text text-anchor="middle" x="856" y="-106" font-family="Helvetica,sans-Serif" font-size="10.00">Neighbors</text>
</a>
</g>
</g>
<!-- Node1&#45;&gt;Node2 -->
<g id="edge1" class="edge"><title>Node1&#45;&gt;Node2</title>
<path fill="none" stroke="midnightblue" d="M158.251,-123.547C281.539,-122.747 528.542,-120.799 738,-117 749.824,-116.786 762.32,-116.513 774.57,-116.221"/>
<polygon fill="midnightblue" stroke="midnightblue" points="774.871,-119.715 784.783,-115.972 774.7,-112.717 774.871,-119.715"/>
</g>
<!-- Node4 -->
<g id="node4" class="node"><title>Node4</title>
<g id="a_node4"><a xlink:href="../../d4/dd2/classapplication_1_1_wa_tor_cell2.html#a9c34fc1d0caa39c1095ff90596b3e67b" target="_top" xlink:title="application.WaTorCell2.move\lShark">
<polygon fill="white" stroke="black" points="194,-68 194,-98 346,-98 346,-68 194,-68"/>
<text text-anchor="start" x="202" y="-86" font-family="Helvetica,sans-Serif" font-size="10.00">application.WaTorCell2.move</text>
<text text-anchor="middle" x="270" y="-75" font-family="Helvetica,sans-Serif" font-size="10.00">Shark</text>
</a>
</g>
</g>
<!-- Node1&#45;&gt;Node4 -->
<g id="edge3" class="edge"><title>Node1&#45;&gt;Node4</title>
<path fill="none" stroke="midnightblue" d="M149.303,-108.966C162.4,-106.125 176.193,-103.133 189.573,-100.23"/>
<polygon fill="midnightblue" stroke="midnightblue" points="190.674,-103.573 199.705,-98.0323 189.19,-96.7319 190.674,-103.573"/>
</g>
<!-- Node3 -->
<g id="node3" class="node"><title>Node3</title>
<g id="a_node3"><a xlink:href="../../d4/dd2/classapplication_1_1_wa_tor_cell2.html#a75398d99fc4f04f7137702b84f8f9f1f" target="_top" xlink:title="application.WaTorCell2.check\lBounds">
<polygon fill="white" stroke="black" points="974,-99 974,-129 1126,-129 1126,-99 974,-99"/>
<text text-anchor="start" x="982" y="-117" font-family="Helvetica,sans-Serif" font-size="10.00">application.WaTorCell2.check</text>
<text text-anchor="middle" x="1050" y="-106" font-family="Helvetica,sans-Serif" font-size="10.00">Bounds</text>
</a>
</g>
</g>
<!-- Node2&#45;&gt;Node3 -->
<g id="edge2" class="edge"><title>Node2&#45;&gt;Node3</title>
<path fill="none" stroke="midnightblue" d="M927.131,-114C939.015,-114 951.471,-114 963.693,-114"/>
<polygon fill="midnightblue" stroke="midnightblue" points="963.886,-117.5 973.886,-114 963.886,-110.5 963.886,-117.5"/>
</g>
<!-- Node4&#45;&gt;Node2 -->
<g id="edge9" class="edge"><title>Node4&#45;&gt;Node2</title>
<path fill="none" stroke="midnightblue" d="M346.152,-86.9892C456.498,-92.8466 661.493,-103.728 774.7,-109.738"/>
<polygon fill="midnightblue" stroke="midnightblue" points="774.523,-113.233 784.694,-110.268 774.894,-106.243 774.523,-113.233"/>
</g>
<!-- Node5 -->
<g id="node5" class="node"><title>Node5</title>
<g id="a_node5"><a xlink:href="../../d4/dd2/classapplication_1_1_wa_tor_cell2.html#a9154658e7aeed7ceef48a58994ea0f35" target="_top" xlink:title="application.WaTorCell2.check\lTimeTillSharkEvents">
<polygon fill="white" stroke="black" points="390,-49 390,-79 542,-79 542,-49 390,-49"/>
<text text-anchor="start" x="398" y="-67" font-family="Helvetica,sans-Serif" font-size="10.00">application.WaTorCell2.check</text>
<text text-anchor="middle" x="466" y="-56" font-family="Helvetica,sans-Serif" font-size="10.00">TimeTillSharkEvents</text>
</a>
</g>
</g>
<!-- Node4&#45;&gt;Node5 -->
<g id="edge4" class="edge"><title>Node4&#45;&gt;Node5</title>
<path fill="none" stroke="midnightblue" d="M346.005,-75.6541C357.026,-74.5748 368.447,-73.4563 379.656,-72.3584"/>
<polygon fill="midnightblue" stroke="midnightblue" points="380.263,-75.8158 389.874,-71.3577 379.581,-68.8492 380.263,-75.8158"/>
</g>
<!-- Node9 -->
<g id="node9" class="node"><title>Node9</title>
<g id="a_node9"><a xlink:href="../../d4/dd2/classapplication_1_1_wa_tor_cell2.html#ad1101a19661397640f4b6a0052f0f3ea" target="_top" xlink:title="application.WaTorCell2.populate\lOtherCell">
<polygon fill="white" stroke="black" points="382.5,-0 382.5,-30 549.5,-30 549.5,-0 382.5,-0"/>
<text text-anchor="start" x="390.5" y="-18" font-family="Helvetica,sans-Serif" font-size="10.00">application.WaTorCell2.populate</text>
<text text-anchor="middle" x="466" y="-7" font-family="Helvetica,sans-Serif" font-size="10.00">OtherCell</text>
</a>
</g>
</g>
<!-- Node4&#45;&gt;Node9 -->
<g id="edge10" class="edge"><title>Node4&#45;&gt;Node9</title>
<path fill="none" stroke="midnightblue" d="M306.668,-67.8515C328.275,-58.9284 356.501,-47.7181 382,-39 387.961,-36.9619 394.201,-34.9465 400.466,-33.0013"/>
<polygon fill="midnightblue" stroke="midnightblue" points="401.75,-36.2692 410.298,-30.0091 399.712,-29.5724 401.75,-36.2692"/>
</g>
<!-- Node6 -->
<g id="node6" class="node"><title>Node6</title>
<g id="a_node6"><a xlink:href="../../d4/dd2/classapplication_1_1_wa_tor_cell2.html#aef2f48f664866e631e9e8a72e8a672e7" target="_top" xlink:title="application.WaTorCell2.breed">
<polygon fill="white" stroke="black" points="586,-57.5 586,-76.5 738,-76.5 738,-57.5 586,-57.5"/>
<text text-anchor="middle" x="662" y="-64.5" font-family="Helvetica,sans-Serif" font-size="10.00">application.WaTorCell2.breed</text>
</a>
</g>
</g>
<!-- Node5&#45;&gt;Node6 -->
<g id="edge5" class="edge"><title>Node5&#45;&gt;Node6</title>
<path fill="none" stroke="midnightblue" d="M542.005,-65.1599C553.026,-65.3303 564.447,-65.5069 575.656,-65.6803"/>
<polygon fill="midnightblue" stroke="midnightblue" points="575.821,-69.1831 585.874,-65.8383 575.93,-62.184 575.821,-69.1831"/>
</g>
<!-- Node8 -->
<g id="node8" class="node"><title>Node8</title>
<g id="a_node8"><a xlink:href="../../d4/dd2/classapplication_1_1_wa_tor_cell2.html#aaf0c4794bbc60d9f0531824e077bc83e" target="_top" xlink:title="application.WaTorCell2.kill\lShark">
<polygon fill="white" stroke="black" points="593.5,-8 593.5,-38 730.5,-38 730.5,-8 593.5,-8"/>
<text text-anchor="start" x="601.5" y="-26" font-family="Helvetica,sans-Serif" font-size="10.00">application.WaTorCell2.kill</text>
<text text-anchor="middle" x="662" y="-15" font-family="Helvetica,sans-Serif" font-size="10.00">Shark</text>
</a>
</g>
</g>
<!-- Node5&#45;&gt;Node8 -->
<g id="edge8" class="edge"><title>Node5&#45;&gt;Node8</title>
<path fill="none" stroke="midnightblue" d="M538.137,-48.9659C552.81,-45.8649 568.335,-42.5838 583.23,-39.436"/>
<polygon fill="midnightblue" stroke="midnightblue" points="584.363,-42.774 593.423,-37.2818 582.915,-35.9252 584.363,-42.774"/>
</g>
<!-- Node6&#45;&gt;Node2 -->
<g id="edge6" class="edge"><title>Node6&#45;&gt;Node2</title>
<path fill="none" stroke="midnightblue" d="M701.854,-76.5112C725.276,-82.2446 755.833,-89.7248 783.486,-96.494"/>
<polygon fill="midnightblue" stroke="midnightblue" points="782.978,-99.973 793.524,-98.9512 784.643,-93.1737 782.978,-99.973"/>
</g>
<!-- Node7 -->
<g id="node7" class="node"><title>Node7</title>
<g id="a_node7"><a xlink:href="../../d4/dd2/classapplication_1_1_wa_tor_cell2.html#aac1548ffada995a7eb78440ce30e4e95" target="_top" xlink:title="application.WaTorCell2.initialize\lNewCell">
<polygon fill="white" stroke="black" points="774.5,-50 774.5,-80 937.5,-80 937.5,-50 774.5,-50"/>
<text text-anchor="start" x="782.5" y="-68" font-family="Helvetica,sans-Serif" font-size="10.00">application.WaTorCell2.initialize</text>
<text text-anchor="middle" x="856" y="-57" font-family="Helvetica,sans-Serif" font-size="10.00">NewCell</text>
</a>
</g>
</g>
<!-- Node6&#45;&gt;Node7 -->
<g id="edge7" class="edge"><title>Node6&#45;&gt;Node7</title>
<path fill="none" stroke="midnightblue" d="M738.057,-66.2182C746.599,-66.1292 755.374,-66.0378 764.093,-65.9469"/>
<polygon fill="midnightblue" stroke="midnightblue" points="764.322,-69.4449 774.285,-65.8408 764.249,-62.4452 764.322,-69.4449"/>
</g>
</g>
</svg>
