<?xml version="1.0" encoding="UTF-8" standalone="no"?>
<!DOCTYPE svg PUBLIC "-//W3C//DTD SVG 1.1//EN"
 "http://www.w3.org/Graphics/SVG/1.1/DTD/svg11.dtd">
<!-- Generated by graphviz version 2.36.0 (20140111.2315)
 -->
<!-- Title: application.WaTorCell2.updateFish Pages: 1 -->
<svg width="964pt" height="131pt"
 viewBox="0.00 0.00 964.00 131.00" xmlns="http://www.w3.org/2000/svg" xmlns:xlink="http://www.w3.org/1999/xlink">
<g id="graph0" class="graph" transform="scale(1 1) rotate(0) translate(4 127)">
<title>application.WaTorCell2.updateFish</title>
<polygon fill="white" stroke="none" points="-4,4 -4,-127 960,-127 960,4 -4,4"/>
<!-- Node1 -->
<g id="node1" class="node"><title>Node1</title>
<polygon fill="#bfbfbf" stroke="black" points="0,-49.5 0,-68.5 176,-68.5 176,-49.5 0,-49.5"/>
<text text-anchor="middle" x="88" y="-56.5" font-family="Helvetica,sans-Serif" font-size="10.00">application.WaTorCell2.updateFish</text>
</g>
<!-- Node2 -->
<g id="node2" class="node"><title>Node2</title>
<g id="a_node2"><a xlink:href="../../d4/dd2/classapplication_1_1_wa_tor_cell2.html#ae8814379484c6933a5f2dea4091732ba" target="_top" xlink:title="application.WaTorCell2.check\lTimeTillFishBreeding">
<polygon fill="white" stroke="black" points="220,-88 220,-118 372,-118 372,-88 220,-88"/>
<text text-anchor="start" x="228" y="-106" font-family="Helvetica,sans-Serif" font-size="10.00">application.WaTorCell2.check</text>
<text text-anchor="middle" x="296" y="-95" font-family="Helvetica,sans-Serif" font-size="10.00">TimeTillFishBreeding</text>
</a>
</g>
</g>
<!-- Node1&#45;&gt;Node2 -->
<g id="edge1" class="edge"><title>Node1&#45;&gt;Node2</title>
<path fill="none" stroke="midnightblue" d="M133.699,-68.5473C157.306,-73.5897 187.006,-79.9334 214.467,-85.7987"/>
<polygon fill="midnightblue" stroke="midnightblue" points="213.956,-89.2685 224.467,-87.9346 215.418,-82.423 213.956,-89.2685"/>
</g>
<!-- Node4 -->
<g id="node4" class="node"><title>Node4</title>
<g id="a_node4"><a xlink:href="../../d4/dd2/classapplication_1_1_wa_tor_cell2.html#ab44c3d22c1070c3496a7c7b3b7f1d48e" target="_top" xlink:title="application.WaTorCell2.find\lNeighbors">
<polygon fill="white" stroke="black" points="615,-44 615,-74 757,-74 757,-44 615,-44"/>
<text text-anchor="start" x="623" y="-62" font-family="Helvetica,sans-Serif" font-size="10.00">application.WaTorCell2.find</text>
<text text-anchor="middle" x="686" y="-51" font-family="Helvetica,sans-Serif" font-size="10.00">Neighbors</text>
</a>
</g>
</g>
<!-- Node1&#45;&gt;Node4 -->
<g id="edge6" class="edge"><title>Node1&#45;&gt;Node4</title>
<path fill="none" stroke="midnightblue" d="M176.302,-59C291.528,-59 492.802,-59 604.513,-59"/>
<polygon fill="midnightblue" stroke="midnightblue" points="604.708,-62.5001 614.708,-59 604.708,-55.5001 604.708,-62.5001"/>
</g>
<!-- Node7 -->
<g id="node7" class="node"><title>Node7</title>
<g id="a_node7"><a xlink:href="../../d4/dd2/classapplication_1_1_wa_tor_cell2.html#ad1101a19661397640f4b6a0052f0f3ea" target="_top" xlink:title="application.WaTorCell2.populate\lOtherCell">
<polygon fill="white" stroke="black" points="212.5,-0 212.5,-30 379.5,-30 379.5,-0 212.5,-0"/>
<text text-anchor="start" x="220.5" y="-18" font-family="Helvetica,sans-Serif" font-size="10.00">application.WaTorCell2.populate</text>
<text text-anchor="middle" x="296" y="-7" font-family="Helvetica,sans-Serif" font-size="10.00">OtherCell</text>
</a>
</g>
</g>
<!-- Node1&#45;&gt;Node7 -->
<g id="edge7" class="edge"><title>Node1&#45;&gt;Node7</title>
<path fill="none" stroke="midnightblue" d="M133.699,-49.4527C157.306,-44.4103 187.006,-38.0666 214.467,-32.2013"/>
<polygon fill="midnightblue" stroke="midnightblue" points="215.418,-35.577 224.467,-30.0654 213.956,-28.7315 215.418,-35.577"/>
</g>
<!-- Node3 -->
<g id="node3" class="node"><title>Node3</title>
<g id="a_node3"><a xlink:href="../../d4/dd2/classapplication_1_1_wa_tor_cell2.html#aef2f48f664866e631e9e8a72e8a672e7" target="_top" xlink:title="application.WaTorCell2.breed">
<polygon fill="white" stroke="black" points="416,-93.5 416,-112.5 568,-112.5 568,-93.5 416,-93.5"/>
<text text-anchor="middle" x="492" y="-100.5" font-family="Helvetica,sans-Serif" font-size="10.00">application.WaTorCell2.breed</text>
</a>
</g>
</g>
<!-- Node2&#45;&gt;Node3 -->
<g id="edge2" class="edge"><title>Node2&#45;&gt;Node3</title>
<path fill="none" stroke="midnightblue" d="M372.005,-103C383.026,-103 394.447,-103 405.656,-103"/>
<polygon fill="midnightblue" stroke="midnightblue" points="405.874,-106.5 415.874,-103 405.874,-99.5001 405.874,-106.5"/>
</g>
<!-- Node3&#45;&gt;Node4 -->
<g id="edge3" class="edge"><title>Node3&#45;&gt;Node4</title>
<path fill="none" stroke="midnightblue" d="M534.661,-93.4527C556.471,-88.4545 583.86,-82.1778 609.266,-76.3558"/>
<polygon fill="midnightblue" stroke="midnightblue" points="610.295,-79.7108 619.26,-74.0654 608.731,-72.8876 610.295,-79.7108"/>
</g>
<!-- Node6 -->
<g id="node6" class="node"><title>Node6</title>
<g id="a_node6"><a xlink:href="../../d4/dd2/classapplication_1_1_wa_tor_cell2.html#aac1548ffada995a7eb78440ce30e4e95" target="_top" xlink:title="application.WaTorCell2.initialize\lNewCell">
<polygon fill="white" stroke="black" points="604.5,-93 604.5,-123 767.5,-123 767.5,-93 604.5,-93"/>
<text text-anchor="start" x="612.5" y="-111" font-family="Helvetica,sans-Serif" font-size="10.00">application.WaTorCell2.initialize</text>
<text text-anchor="middle" x="686" y="-100" font-family="Helvetica,sans-Serif" font-size="10.00">NewCell</text>
</a>
</g>
</g>
<!-- Node3&#45;&gt;Node6 -->
<g id="edge5" class="edge"><title>Node3&#45;&gt;Node6</title>
<path fill="none" stroke="midnightblue" d="M568.057,-104.955C576.599,-105.177 585.374,-105.406 594.093,-105.633"/>
<polygon fill="midnightblue" stroke="midnightblue" points="594.197,-109.136 604.285,-105.898 594.379,-102.139 594.197,-109.136"/>
</g>
<!-- Node5 -->
<g id="node5" class="node"><title>Node5</title>
<g id="a_node5"><a xlink:href="../../d4/dd2/classapplication_1_1_wa_tor_cell2.html#a75398d99fc4f04f7137702b84f8f9f1f" target="_top" xlink:title="application.WaTorCell2.check\lBounds">
<polygon fill="white" stroke="black" points="804,-44 804,-74 956,-74 956,-44 804,-44"/>
<text text-anchor="start" x="812" y="-62" font-family="Helvetica,sans-Serif" font-size="10.00">application.WaTorCell2.check</text>
<text text-anchor="middle" x="880" y="-51" font-family="Helvetica,sans-Serif" font-size="10.00">Bounds</text>
</a>
</g>
</g>
<!-- Node4&#45;&gt;Node5 -->
<g id="edge4" class="edge"><title>Node4&#45;&gt;Node5</title>
<path fill="none" stroke="midnightblue" d="M757.131,-59C769.015,-59 781.471,-59 793.693,-59"/>
<polygon fill="midnightblue" stroke="midnightblue" points="793.886,-62.5001 803.886,-59 793.886,-55.5001 793.886,-62.5001"/>
</g>
</g>
</svg>
