<?xml version="1.0" encoding="UTF-8" standalone="no"?>
<!DOCTYPE svg PUBLIC "-//W3C//DTD SVG 1.1//EN"
 "http://www.w3.org/Graphics/SVG/1.1/DTD/svg11.dtd">
<!-- Generated by graphviz version 2.36.0 (20140111.2315)
 -->
<!-- Title: application.WaTorCell2.checkTimeTillSharkEvents Pages: 1 -->
<svg width="736pt" height="107pt"
 viewBox="0.00 0.00 736.00 107.00" xmlns="http://www.w3.org/2000/svg" xmlns:xlink="http://www.w3.org/1999/xlink">
<g id="graph0" class="graph" transform="scale(1 1) rotate(0) translate(4 103)">
<title>application.WaTorCell2.checkTimeTillSharkEvents</title>
<polygon fill="white" stroke="none" points="-4,4 -4,-103 732,-103 732,4 -4,4"/>
<!-- Node1 -->
<g id="node1" class="node"><title>Node1</title>
<polygon fill="#bfbfbf" stroke="black" points="0,-22 0,-52 152,-52 152,-22 0,-22"/>
<text text-anchor="start" x="8" y="-40" font-family="Helvetica,sans-Serif" font-size="10.00">application.WaTorCell2.check</text>
<text text-anchor="middle" x="76" y="-29" font-family="Helvetica,sans-Serif" font-size="10.00">TimeTillSharkEvents</text>
</g>
<!-- Node2 -->
<g id="node2" class="node"><title>Node2</title>
<g id="a_node2"><a xlink:href="../../d4/dd2/classapplication_1_1_wa_tor_cell2.html#aef2f48f664866e631e9e8a72e8a672e7" target="_top" xlink:title="application.WaTorCell2.breed">
<polygon fill="white" stroke="black" points="188,-49.5 188,-68.5 340,-68.5 340,-49.5 188,-49.5"/>
<text text-anchor="middle" x="264" y="-56.5" font-family="Helvetica,sans-Serif" font-size="10.00">application.WaTorCell2.breed</text>
</a>
</g>
</g>
<!-- Node1&#45;&gt;Node2 -->
<g id="edge1" class="edge"><title>Node1&#45;&gt;Node2</title>
<path fill="none" stroke="midnightblue" d="M152.117,-45.8848C160.596,-46.8877 169.281,-47.9149 177.875,-48.9314"/>
<polygon fill="midnightblue" stroke="midnightblue" points="177.563,-52.4188 187.905,-50.1178 178.385,-45.4673 177.563,-52.4188"/>
</g>
<!-- Node6 -->
<g id="node6" class="node"><title>Node6</title>
<g id="a_node6"><a xlink:href="../../d4/dd2/classapplication_1_1_wa_tor_cell2.html#aaf0c4794bbc60d9f0531824e077bc83e" target="_top" xlink:title="application.WaTorCell2.kill\lShark">
<polygon fill="white" stroke="black" points="195.5,-0 195.5,-30 332.5,-30 332.5,-0 195.5,-0"/>
<text text-anchor="start" x="203.5" y="-18" font-family="Helvetica,sans-Serif" font-size="10.00">application.WaTorCell2.kill</text>
<text text-anchor="middle" x="264" y="-7" font-family="Helvetica,sans-Serif" font-size="10.00">Shark</text>
</a>
</g>
</g>
<!-- Node1&#45;&gt;Node6 -->
<g id="edge5" class="edge"><title>Node1&#45;&gt;Node6</title>
<path fill="none" stroke="midnightblue" d="M152.117,-28.1152C163.079,-26.8187 174.385,-25.4814 185.394,-24.1792"/>
<polygon fill="midnightblue" stroke="midnightblue" points="185.884,-27.6457 195.404,-22.9953 185.062,-20.6942 185.884,-27.6457"/>
</g>
<!-- Node3 -->
<g id="node3" class="node"><title>Node3</title>
<g id="a_node3"><a xlink:href="../../d4/dd2/classapplication_1_1_wa_tor_cell2.html#ab44c3d22c1070c3496a7c7b3b7f1d48e" target="_top" xlink:title="application.WaTorCell2.find\lNeighbors">
<polygon fill="white" stroke="black" points="387,-69 387,-99 529,-99 529,-69 387,-69"/>
<text text-anchor="start" x="395" y="-87" font-family="Helvetica,sans-Serif" font-size="10.00">application.WaTorCell2.find</text>
<text text-anchor="middle" x="458" y="-76" font-family="Helvetica,sans-Serif" font-size="10.00">Neighbors</text>
</a>
</g>
</g>
<!-- Node2&#45;&gt;Node3 -->
<g id="edge2" class="edge"><title>Node2&#45;&gt;Node3</title>
<path fill="none" stroke="midnightblue" d="M338.135,-68.5227C350.761,-70.1669 363.949,-71.8839 376.751,-73.551"/>
<polygon fill="midnightblue" stroke="midnightblue" points="376.55,-77.0542 386.919,-74.8748 377.454,-70.1128 376.55,-77.0542"/>
</g>
<!-- Node5 -->
<g id="node5" class="node"><title>Node5</title>
<g id="a_node5"><a xlink:href="../../d4/dd2/classapplication_1_1_wa_tor_cell2.html#aac1548ffada995a7eb78440ce30e4e95" target="_top" xlink:title="application.WaTorCell2.initialize\lNewCell">
<polygon fill="white" stroke="black" points="376.5,-20 376.5,-50 539.5,-50 539.5,-20 376.5,-20"/>
<text text-anchor="start" x="384.5" y="-38" font-family="Helvetica,sans-Serif" font-size="10.00">application.WaTorCell2.initialize</text>
<text text-anchor="middle" x="458" y="-27" font-family="Helvetica,sans-Serif" font-size="10.00">NewCell</text>
</a>
</g>
</g>
<!-- Node2&#45;&gt;Node5 -->
<g id="edge4" class="edge"><title>Node2&#45;&gt;Node5</title>
<path fill="none" stroke="midnightblue" d="M340.057,-49.6179C348.599,-48.5501 357.374,-47.4532 366.093,-46.3634"/>
<polygon fill="midnightblue" stroke="midnightblue" points="366.796,-49.8028 376.285,-45.0894 365.928,-42.8568 366.796,-49.8028"/>
</g>
<!-- Node4 -->
<g id="node4" class="node"><title>Node4</title>
<g id="a_node4"><a xlink:href="../../d4/dd2/classapplication_1_1_wa_tor_cell2.html#a75398d99fc4f04f7137702b84f8f9f1f" target="_top" xlink:title="application.WaTorCell2.check\lBounds">
<polygon fill="white" stroke="black" points="576,-69 576,-99 728,-99 728,-69 576,-69"/>
<text text-anchor="start" x="584" y="-87" font-family="Helvetica,sans-Serif" font-size="10.00">application.WaTorCell2.check</text>
<text text-anchor="middle" x="652" y="-76" font-family="Helvetica,sans-Serif" font-size="10.00">Bounds</text>
</a>
</g>
</g>
<!-- Node3&#45;&gt;Node4 -->
<g id="edge3" class="edge"><title>Node3&#45;&gt;Node4</title>
<path fill="none" stroke="midnightblue" d="M529.131,-84C541.015,-84 553.471,-84 565.693,-84"/>
<polygon fill="midnightblue" stroke="midnightblue" points="565.886,-87.5001 575.886,-84 565.886,-80.5001 565.886,-87.5001"/>
</g>
</g>
</svg>
