<?xml version="1.0" encoding="UTF-8" standalone="no"?>
<!DOCTYPE svg PUBLIC "-//W3C//DTD SVG 1.1//EN"
 "http://www.w3.org/Graphics/SVG/1.1/DTD/svg11.dtd">
<!-- Generated by graphviz version 2.36.0 (20140111.2315)
 -->
<!-- Title: application.WaTorCell2.killShark Pages: 1 -->
<!--zoomable 38 -->
<svg id="main" version="1.1" xmlns="http://www.w3.org/2000/svg" xmlns:xlink="http://www.w3.org/1999/xlink" xml:space="preserve" onload="init(evt)">
<style type="text/css"><![CDATA[
.edge:hover path { stroke: red; }
.edge:hover polygon { stroke: red; fill: red; }
]]></style>
<script type="text/javascript"><![CDATA[
var edges = document.getElementsByTagName('g');
if (edges && edges.length) {
  for (var i=0;i<edges.length;i++) {
    if (edges[i].id.substr(0,4)=='edge') {
      edges[i].setAttribute('class','edge');
    }
  }
}
]]></script>
        <defs>
                <circle id="rim" cx="0" cy="0" r="7"/>
                <circle id="rim2" cx="0" cy="0" r="3.5"/>
                <g id="zoomPlus">
                        <use xlink:href="#rim" fill="#404040">
                                <set attributeName="fill" to="#808080" begin="zoomplus.mouseover" end="zoomplus.mouseout"/>
                        </use>
                        <path d="M-4,0h8M0,-4v8" fill="none" stroke="white" stroke-width="1.5" pointer-events="none"/>
                </g>
                <g id="zoomMin">
                        <use xlink:href="#rim" fill="#404040">
                                <set attributeName="fill" to="#808080" begin="zoomminus.mouseover" end="zoomminus.mouseout"/>
                        </use>
                        <path d="M-4,0h8" fill="none" stroke="white" stroke-width="1.5" pointer-events="none"/>
                </g>
                <g id="dirArrow">
                        <path fill="none" stroke="white" stroke-width="1.5" d="M0,-3.0v7 M-2.5,-0.5L0,-3.0L2.5,-0.5"/>
                </g>
               <g id="resetDef">
                       <use xlink:href="#rim2" fill="#404040">
                               <set attributeName="fill" to="#808080" begin="reset.mouseover" end="reset.mouseout"/>
                       </use>
               </g>
        </defs>

<script type="text/javascript">
var viewWidth = 1122;
var viewHeight = 38;
var sectionId = 'dynsection-12';
</script>
<script xlink:href="../../svgpan.js"/>
<svg id="graph" class="graph">
<g id="viewport">
<title>application.WaTorCell2.killShark</title>
<polygon fill="white" stroke="none" points="-4,4 -4,-34 1118,-34 1118,4 -4,4"/>
<!-- Node1 -->
<g id="node1" class="node"><title>Node1</title>
<polygon fill="#bfbfbf" stroke="black" points="0.5,-0 0.5,-30 137.5,-30 137.5,-0 0.5,-0"/>
<text text-anchor="start" x="8.5" y="-18" font-family="Helvetica,sans-Serif" font-size="10.00">application.WaTorCell2.kill</text>
<text text-anchor="middle" x="69" y="-7" font-family="Helvetica,sans-Serif" font-size="10.00">Shark</text>
</g>
<!-- Node2 -->
<g id="node2" class="node"><title>Node2</title>
<g id="a_node2"><a xlink:href="../../d4/dd2/classapplication_1_1_wa_tor_cell2.html#a9154658e7aeed7ceef48a58994ea0f35" target="_top" xlink:title="application.WaTorCell2.check\lTimeTillSharkEvents">
<polygon fill="white" stroke="black" points="174,-0 174,-30 326,-30 326,-0 174,-0"/>
<text text-anchor="start" x="182" y="-18" font-family="Helvetica,sans-Serif" font-size="10.00">application.WaTorCell2.check</text>
<text text-anchor="middle" x="250" y="-7" font-family="Helvetica,sans-Serif" font-size="10.00">TimeTillSharkEvents</text>
</a>
</g>
</g>
<!-- Node1&#45;&gt;Node2 -->
<g id="edge1" class="edge"><title>Node1&#45;&gt;Node2</title>
<path fill="none" stroke="midnightblue" d="M147.721,-15C156.355,-15 165.139,-15 173.742,-15"/>
<polygon fill="midnightblue" stroke="midnightblue" points="147.672,-11.5001 137.672,-15 147.672,-18.5001 147.672,-11.5001"/>
</g>
<!-- Node3 -->
<g id="node3" class="node"><title>Node3</title>
<g id="a_node3"><a xlink:href="../../d4/dd2/classapplication_1_1_wa_tor_cell2.html#a9c34fc1d0caa39c1095ff90596b3e67b" target="_top" xlink:title="application.WaTorCell2.move\lShark">
<polygon fill="white" stroke="black" points="362,-0 362,-30 514,-30 514,-0 362,-0"/>
<text text-anchor="start" x="370" y="-18" font-family="Helvetica,sans-Serif" font-size="10.00">application.WaTorCell2.move</text>
<text text-anchor="middle" x="438" y="-7" font-family="Helvetica,sans-Serif" font-size="10.00">Shark</text>
</a>
</g>
</g>
<!-- Node2&#45;&gt;Node3 -->
<g id="edge2" class="edge"><title>Node2&#45;&gt;Node3</title>
<path fill="none" stroke="midnightblue" d="M336.147,-15C344.742,-15 353.426,-15 361.905,-15"/>
<polygon fill="midnightblue" stroke="midnightblue" points="336.117,-11.5001 326.117,-15 336.117,-18.5001 336.117,-11.5001"/>
</g>
<!-- Node4 -->
<g id="node4" class="node"><title>Node4</title>
<g id="a_node4"><a xlink:href="../../d4/dd2/classapplication_1_1_wa_tor_cell2.html#a4c116bc052edb10528b26b7905518cf6" target="_top" xlink:title="application.WaTorCell2.update\lShark">
<polygon fill="white" stroke="black" points="550,-0 550,-30 708,-30 708,-0 550,-0"/>
<text text-anchor="start" x="558" y="-18" font-family="Helvetica,sans-Serif" font-size="10.00">application.WaTorCell2.update</text>
<text text-anchor="middle" x="629" y="-7" font-family="Helvetica,sans-Serif" font-size="10.00">Shark</text>
</a>
</g>
</g>
<!-- Node3&#45;&gt;Node4 -->
<g id="edge3" class="edge"><title>Node3&#45;&gt;Node4</title>
<path fill="none" stroke="midnightblue" d="M524.503,-15C532.97,-15 541.535,-15 549.922,-15"/>
<polygon fill="midnightblue" stroke="midnightblue" points="524.241,-11.5001 514.241,-15 524.241,-18.5001 524.241,-11.5001"/>
</g>
<!-- Node5 -->
<g id="node5" class="node"><title>Node5</title>
<g id="a_node5"><a xlink:href="../../d4/dd2/classapplication_1_1_wa_tor_cell2.html#a5f759ecf2a2a0d5b46a8cd3180663d5f" target="_top" xlink:title="application.WaTorCell2.update\lState">
<polygon fill="white" stroke="black" points="744,-0 744,-30 902,-30 902,-0 744,-0"/>
<text text-anchor="start" x="752" y="-18" font-family="Helvetica,sans-Serif" font-size="10.00">application.WaTorCell2.update</text>
<text text-anchor="middle" x="823" y="-7" font-family="Helvetica,sans-Serif" font-size="10.00">State</text>
</a>
</g>
</g>
<!-- Node4&#45;&gt;Node5 -->
<g id="edge4" class="edge"><title>Node4&#45;&gt;Node5</title>
<path fill="none" stroke="midnightblue" d="M718.153,-15C726.769,-15 735.47,-15 743.975,-15"/>
<polygon fill="midnightblue" stroke="midnightblue" points="718.094,-11.5001 708.094,-15 718.094,-18.5001 718.094,-11.5001"/>
</g>
<!-- Node6 -->
<g id="node6" class="node"><title>Node6</title>
<g id="a_node6"><a xlink:href="../../d4/dd2/classapplication_1_1_wa_tor_cell2.html#ad372db7cd5887c0f806d3125c33c094a" target="_top" xlink:title="application.WaTorCell2.updateCell">
<polygon fill="white" stroke="black" points="938,-5.5 938,-24.5 1114,-24.5 1114,-5.5 938,-5.5"/>
<text text-anchor="middle" x="1026" y="-12.5" font-family="Helvetica,sans-Serif" font-size="10.00">application.WaTorCell2.updateCell</text>
</a>
</g>
</g>
<!-- Node5&#45;&gt;Node6 -->
<g id="edge5" class="edge"><title>Node5&#45;&gt;Node6</title>
<path fill="none" stroke="midnightblue" d="M912.509,-15C920.949,-15 929.504,-15 937.93,-15"/>
<polygon fill="midnightblue" stroke="midnightblue" points="912.287,-11.5001 902.287,-15 912.287,-18.5001 912.287,-11.5001"/>
</g>
</g>
</svg>
        <g id="navigator" transform="translate(0 0)" fill="#404254">
                <rect fill="#f2f5e9" fill-opacity="0.5" stroke="#606060" stroke-width=".5" x="0" y="0" width="60" height="60"/>
                <use id="zoomplus" xlink:href="#zoomPlus" x="17" y="9" onmousedown="handleZoom(evt,'in')"/>
                <use id="zoomminus" xlink:href="#zoomMin" x="42" y="9" onmousedown="handleZoom(evt,'out')"/>
                <use id="reset" xlink:href="#resetDef" x="30" y="36" onmousedown="handleReset()"/>
                <g id="arrowUp" xlink:href="#dirArrow" transform="translate(30 24)" onmousedown="handlePan(0,-1)">
                  <use xlink:href="#rim" fill="#404040">
                        <set attributeName="fill" to="#808080" begin="arrowUp.mouseover" end="arrowUp.mouseout"/>
                  </use>
                  <path fill="none" stroke="white" stroke-width="1.5" d="M0,-3.0v7 M-2.5,-0.5L0,-3.0L2.5,-0.5"/>
                </g>
                <g id="arrowRight" xlink:href="#dirArrow" transform="rotate(90) translate(36 -43)" onmousedown="handlePan(1,0)">
                  <use xlink:href="#rim" fill="#404040">
                        <set attributeName="fill" to="#808080" begin="arrowRight.mouseover" end="arrowRight.mouseout"/>
                  </use>
                  <path fill="none" stroke="white" stroke-width="1.5" d="M0,-3.0v7 M-2.5,-0.5L0,-3.0L2.5,-0.5"/>
                </g>
                <g id="arrowDown" xlink:href="#dirArrow" transform="rotate(180) translate(-30 -48)" onmousedown="handlePan(0,1)">
                  <use xlink:href="#rim" fill="#404040">
                        <set attributeName="fill" to="#808080" begin="arrowDown.mouseover" end="arrowDown.mouseout"/>
                  </use>
                  <path fill="none" stroke="white" stroke-width="1.5" d="M0,-3.0v7 M-2.5,-0.5L0,-3.0L2.5,-0.5"/>
                </g>
                <g id="arrowLeft" xlink:href="#dirArrow" transform="rotate(270) translate(-36 17)" onmousedown="handlePan(-1,0)">
                  <use xlink:href="#rim" fill="#404040">
                        <set attributeName="fill" to="#808080" begin="arrowLeft.mouseover" end="arrowLeft.mouseout"/>
                  </use>
                  <path fill="none" stroke="white" stroke-width="1.5" d="M0,-3.0v7 M-2.5,-0.5L0,-3.0L2.5,-0.5"/>
                </g>
        </g>
        <svg viewBox="0 0 15 15" width="100%" height="30px" preserveAspectRatio="xMaxYMin meet">
         <g id="arrow_out" transform="scale(0.3 0.3)">
          <a xlink:href="classapplication_1_1_wa_tor_cell2_aaf0c4794bbc60d9f0531824e077bc83e_icgraph_org.svg" target="_base">
           <rect id="button" ry="5" rx="5" y="6" x="6" height="38" width="38"
                fill="#f2f5e9" fill-opacity="0.5" stroke="#606060" stroke-width="1.0"/>
           <path id="arrow"
             d="M 11.500037,31.436501 C 11.940474,20.09759 22.043105,11.32322 32.158766,21.979434 L 37.068811,17.246167 C 37.068811,17.246167 37.088388,32 37.088388,32 L 22.160133,31.978069 C 22.160133,31.978069 26.997745,27.140456 26.997745,27.140456 C 18.528582,18.264221 13.291696,25.230495 11.500037,31.436501 z"
             style="fill:#404040;"/>
          </a>
         </g>
        </svg>
</svg>
