<?xml version="1.0" encoding="UTF-8" standalone="no"?>
<!DOCTYPE svg PUBLIC "-//W3C//DTD SVG 1.1//EN"
 "http://www.w3.org/Graphics/SVG/1.1/DTD/svg11.dtd">
<!-- Generated by graphviz version 2.36.0 (20140111.2315)
 -->
<!-- Title: application.WaTorCell2.breed Pages: 1 -->
<svg width="1154pt" height="87pt"
 viewBox="0.00 0.00 1154.00 87.00" xmlns="http://www.w3.org/2000/svg" xmlns:xlink="http://www.w3.org/1999/xlink">
<g id="graph0" class="graph" transform="scale(1 1) rotate(0) translate(4 83)">
<title>application.WaTorCell2.breed</title>
<polygon fill="white" stroke="none" points="-4,4 -4,-83 1150,-83 1150,4 -4,4"/>
<!-- Node1 -->
<g id="node1" class="node"><title>Node1</title>
<polygon fill="#bfbfbf" stroke="black" points="0,-29.5 0,-48.5 152,-48.5 152,-29.5 0,-29.5"/>
<text text-anchor="middle" x="76" y="-36.5" font-family="Helvetica,sans-Serif" font-size="10.00">application.WaTorCell2.breed</text>
</g>
<!-- Node2 -->
<g id="node2" class="node"><title>Node2</title>
<g id="a_node2"><a xlink:href="../../d4/dd2/classapplication_1_1_wa_tor_cell2.html#ae8814379484c6933a5f2dea4091732ba" target="_top" xlink:title="application.WaTorCell2.check\lTimeTillFishBreeding">
<polygon fill="white" stroke="black" points="188,-49 188,-79 340,-79 340,-49 188,-49"/>
<text text-anchor="start" x="196" y="-67" font-family="Helvetica,sans-Serif" font-size="10.00">application.WaTorCell2.check</text>
<text text-anchor="middle" x="264" y="-56" font-family="Helvetica,sans-Serif" font-size="10.00">TimeTillFishBreeding</text>
</a>
</g>
</g>
<!-- Node1&#45;&gt;Node2 -->
<g id="edge1" class="edge"><title>Node1&#45;&gt;Node2</title>
<path fill="none" stroke="midnightblue" d="M158.037,-49.8921C167.896,-51.2172 177.936,-52.5667 187.706,-53.8798"/>
<polygon fill="midnightblue" stroke="midnightblue" points="158.226,-46.3861 147.849,-48.5227 157.294,-53.3237 158.226,-46.3861"/>
</g>
<!-- Node6 -->
<g id="node6" class="node"><title>Node6</title>
<g id="a_node6"><a xlink:href="../../d4/dd2/classapplication_1_1_wa_tor_cell2.html#a9154658e7aeed7ceef48a58994ea0f35" target="_top" xlink:title="application.WaTorCell2.check\lTimeTillSharkEvents">
<polygon fill="white" stroke="black" points="188,-0 188,-30 340,-30 340,-0 188,-0"/>
<text text-anchor="start" x="196" y="-18" font-family="Helvetica,sans-Serif" font-size="10.00">application.WaTorCell2.check</text>
<text text-anchor="middle" x="264" y="-7" font-family="Helvetica,sans-Serif" font-size="10.00">TimeTillSharkEvents</text>
</a>
</g>
</g>
<!-- Node1&#45;&gt;Node6 -->
<g id="edge5" class="edge"><title>Node1&#45;&gt;Node6</title>
<path fill="none" stroke="midnightblue" d="M160.848,-28.1809C169.826,-27.0225 178.918,-25.8493 187.787,-24.705"/>
<polygon fill="midnightblue" stroke="midnightblue" points="160.249,-24.7291 150.779,-29.4801 161.145,-31.6715 160.249,-24.7291"/>
</g>
<!-- Node3 -->
<g id="node3" class="node"><title>Node3</title>
<g id="a_node3"><a xlink:href="../../d4/dd2/classapplication_1_1_wa_tor_cell2.html#a5b87209823e77f0e2ea88551a956a892" target="_top" xlink:title="application.WaTorCell2.updateFish">
<polygon fill="white" stroke="black" points="564,-52.5 564,-71.5 740,-71.5 740,-52.5 564,-52.5"/>
<text text-anchor="middle" x="652" y="-59.5" font-family="Helvetica,sans-Serif" font-size="10.00">application.WaTorCell2.updateFish</text>
</a>
</g>
</g>
<!-- Node2&#45;&gt;Node3 -->
<g id="edge2" class="edge"><title>Node2&#45;&gt;Node3</title>
<path fill="none" stroke="midnightblue" d="M350.702,-63.5559C414.044,-63.2278 499.988,-62.7824 563.705,-62.4523"/>
<polygon fill="midnightblue" stroke="midnightblue" points="350.323,-60.0578 340.341,-63.6096 350.359,-67.0577 350.323,-60.0578"/>
</g>
<!-- Node4 -->
<g id="node4" class="node"><title>Node4</title>
<g id="a_node4"><a xlink:href="../../d4/dd2/classapplication_1_1_wa_tor_cell2.html#a5f759ecf2a2a0d5b46a8cd3180663d5f" target="_top" xlink:title="application.WaTorCell2.update\lState">
<polygon fill="white" stroke="black" points="776,-24 776,-54 934,-54 934,-24 776,-24"/>
<text text-anchor="start" x="784" y="-42" font-family="Helvetica,sans-Serif" font-size="10.00">application.WaTorCell2.update</text>
<text text-anchor="middle" x="855" y="-31" font-family="Helvetica,sans-Serif" font-size="10.00">State</text>
</a>
</g>
</g>
<!-- Node3&#45;&gt;Node4 -->
<g id="edge3" class="edge"><title>Node3&#45;&gt;Node4</title>
<path fill="none" stroke="midnightblue" d="M746.377,-51.3151C756.185,-50.1928 766.083,-49.0601 775.696,-47.9601"/>
<polygon fill="midnightblue" stroke="midnightblue" points="745.743,-47.8647 736.205,-52.479 746.538,-54.8194 745.743,-47.8647"/>
</g>
<!-- Node5 -->
<g id="node5" class="node"><title>Node5</title>
<g id="a_node5"><a xlink:href="../../d4/dd2/classapplication_1_1_wa_tor_cell2.html#ad372db7cd5887c0f806d3125c33c094a" target="_top" xlink:title="application.WaTorCell2.updateCell">
<polygon fill="white" stroke="black" points="970,-29.5 970,-48.5 1146,-48.5 1146,-29.5 970,-29.5"/>
<text text-anchor="middle" x="1058" y="-36.5" font-family="Helvetica,sans-Serif" font-size="10.00">application.WaTorCell2.updateCell</text>
</a>
</g>
</g>
<!-- Node4&#45;&gt;Node5 -->
<g id="edge4" class="edge"><title>Node4&#45;&gt;Node5</title>
<path fill="none" stroke="midnightblue" d="M944.509,-39C952.949,-39 961.504,-39 969.93,-39"/>
<polygon fill="midnightblue" stroke="midnightblue" points="944.287,-35.5001 934.287,-39 944.287,-42.5001 944.287,-35.5001"/>
</g>
<!-- Node7 -->
<g id="node7" class="node"><title>Node7</title>
<g id="a_node7"><a xlink:href="../../d4/dd2/classapplication_1_1_wa_tor_cell2.html#a9c34fc1d0caa39c1095ff90596b3e67b" target="_top" xlink:title="application.WaTorCell2.move\lShark">
<polygon fill="white" stroke="black" points="376,-2 376,-32 528,-32 528,-2 376,-2"/>
<text text-anchor="start" x="384" y="-20" font-family="Helvetica,sans-Serif" font-size="10.00">application.WaTorCell2.move</text>
<text text-anchor="middle" x="452" y="-9" font-family="Helvetica,sans-Serif" font-size="10.00">Shark</text>
</a>
</g>
</g>
<!-- Node6&#45;&gt;Node7 -->
<g id="edge6" class="edge"><title>Node6&#45;&gt;Node7</title>
<path fill="none" stroke="midnightblue" d="M350.147,-15.9156C358.742,-16.008 367.426,-16.1014 375.905,-16.1925"/>
<polygon fill="midnightblue" stroke="midnightblue" points="350.154,-12.4155 340.117,-15.8077 350.079,-19.4151 350.154,-12.4155"/>
</g>
<!-- Node8 -->
<g id="node8" class="node"><title>Node8</title>
<g id="a_node8"><a xlink:href="../../d4/dd2/classapplication_1_1_wa_tor_cell2.html#a4c116bc052edb10528b26b7905518cf6" target="_top" xlink:title="application.WaTorCell2.update\lShark">
<polygon fill="white" stroke="black" points="573,-2 573,-32 731,-32 731,-2 573,-2"/>
<text text-anchor="start" x="581" y="-20" font-family="Helvetica,sans-Serif" font-size="10.00">application.WaTorCell2.update</text>
<text text-anchor="middle" x="652" y="-9" font-family="Helvetica,sans-Serif" font-size="10.00">Shark</text>
</a>
</g>
</g>
<!-- Node7&#45;&gt;Node8 -->
<g id="edge7" class="edge"><title>Node7&#45;&gt;Node8</title>
<path fill="none" stroke="midnightblue" d="M538.2,-17C549.743,-17 561.541,-17 572.951,-17"/>
<polygon fill="midnightblue" stroke="midnightblue" points="538.138,-13.5001 528.138,-17 538.138,-20.5001 538.138,-13.5001"/>
</g>
<!-- Node8&#45;&gt;Node4 -->
<g id="edge8" class="edge"><title>Node8&#45;&gt;Node4</title>
<path fill="none" stroke="midnightblue" d="M741.339,-26.6689C752.857,-27.9297 764.592,-29.2141 775.926,-30.4546"/>
<polygon fill="midnightblue" stroke="midnightblue" points="741.609,-23.1777 731.287,-25.5688 740.847,-30.1361 741.609,-23.1777"/>
</g>
</g>
</svg>
