<?xml version="1.0" encoding="UTF-8" standalone="no"?>
<!DOCTYPE svg PUBLIC "-//W3C//DTD SVG 1.1//EN"
 "http://www.w3.org/Graphics/SVG/1.1/DTD/svg11.dtd">
<!-- Generated by graphviz version 2.36.0 (20140111.2315)
 -->
<!-- Title: application.WaTorCell2.moveShark Pages: 1 -->
<!--zoomable 170 -->
<svg id="main" version="1.1" xmlns="http://www.w3.org/2000/svg" xmlns:xlink="http://www.w3.org/1999/xlink" xml:space="preserve" onload="init(evt)">
<style type="text/css"><![CDATA[
.edge:hover path { stroke: red; }
.edge:hover polygon { stroke: red; fill: red; }
]]></style>
<script type="text/javascript"><![CDATA[
var edges = document.getElementsByTagName('g');
if (edges && edges.length) {
  for (var i=0;i<edges.length;i++) {
    if (edges[i].id.substr(0,4)=='edge') {
      edges[i].setAttribute('class','edge');
    }
  }
}
]]></script>
        <defs>
                <circle id="rim" cx="0" cy="0" r="7"/>
                <circle id="rim2" cx="0" cy="0" r="3.5"/>
                <g id="zoomPlus">
                        <use xlink:href="#rim" fill="#404040">
                                <set attributeName="fill" to="#808080" begin="zoomplus.mouseover" end="zoomplus.mouseout"/>
                        </use>
                        <path d="M-4,0h8M0,-4v8" fill="none" stroke="white" stroke-width="1.5" pointer-events="none"/>
                </g>
                <g id="zoomMin">
                        <use xlink:href="#rim" fill="#404040">
                                <set attributeName="fill" to="#808080" begin="zoomminus.mouseover" end="zoomminus.mouseout"/>
                        </use>
                        <path d="M-4,0h8" fill="none" stroke="white" stroke-width="1.5" pointer-events="none"/>
                </g>
                <g id="dirArrow">
                        <path fill="none" stroke="white" stroke-width="1.5" d="M0,-3.0v7 M-2.5,-0.5L0,-3.0L2.5,-0.5"/>
                </g>
               <g id="resetDef">
                       <use xlink:href="#rim2" fill="#404040">
                               <set attributeName="fill" to="#808080" begin="reset.mouseover" end="reset.mouseout"/>
                       </use>
               </g>
        </defs>

<script type="text/javascript">
var viewWidth = 940;
var viewHeight = 170;
var sectionId = 'dynsection-13';
</script>
<script xlink:href="../../svgpan.js"/>
<svg id="graph" class="graph">
<g id="viewport">
<title>application.WaTorCell2.moveShark</title>
<polygon fill="white" stroke="none" points="-4,4 -4,-166 936,-166 936,4 -4,4"/>
<!-- Node1 -->
<g id="node1" class="node"><title>Node1</title>
<polygon fill="#bfbfbf" stroke="black" points="0,-44 0,-74 152,-74 152,-44 0,-44"/>
<text text-anchor="start" x="8" y="-62" font-family="Helvetica,sans-Serif" font-size="10.00">application.WaTorCell2.move</text>
<text text-anchor="middle" x="76" y="-51" font-family="Helvetica,sans-Serif" font-size="10.00">Shark</text>
</g>
<!-- Node2 -->
<g id="node2" class="node"><title>Node2</title>
<g id="a_node2"><a xlink:href="../../d4/dd2/classapplication_1_1_wa_tor_cell2.html#a9154658e7aeed7ceef48a58994ea0f35" target="_top" xlink:title="application.WaTorCell2.check\lTimeTillSharkEvents">
<polygon fill="white" stroke="black" points="196,-88 196,-118 348,-118 348,-88 196,-88"/>
<text text-anchor="start" x="204" y="-106" font-family="Helvetica,sans-Serif" font-size="10.00">application.WaTorCell2.check</text>
<text text-anchor="middle" x="272" y="-95" font-family="Helvetica,sans-Serif" font-size="10.00">TimeTillSharkEvents</text>
</a>
</g>
</g>
<!-- Node1&#45;&gt;Node2 -->
<g id="edge1" class="edge"><title>Node1&#45;&gt;Node2</title>
<path fill="none" stroke="midnightblue" d="M143.221,-74.0192C159.829,-77.786 177.78,-81.8574 194.83,-85.7244"/>
<polygon fill="midnightblue" stroke="midnightblue" points="194.222,-89.1752 204.748,-87.9738 195.77,-82.3485 194.222,-89.1752"/>
</g>
<!-- Node4 -->
<g id="node4" class="node"><title>Node4</title>
<g id="a_node4"><a xlink:href="../../d4/dd2/classapplication_1_1_wa_tor_cell2.html#ab44c3d22c1070c3496a7c7b3b7f1d48e" target="_top" xlink:title="application.WaTorCell2.find\lNeighbors">
<polygon fill="white" stroke="black" points="591,-64 591,-94 733,-94 733,-64 591,-64"/>
<text text-anchor="start" x="599" y="-82" font-family="Helvetica,sans-Serif" font-size="10.00">application.WaTorCell2.find</text>
<text text-anchor="middle" x="662" y="-71" font-family="Helvetica,sans-Serif" font-size="10.00">Neighbors</text>
</a>
</g>
</g>
<!-- Node1&#45;&gt;Node4 -->
<g id="edge7" class="edge"><title>Node1&#45;&gt;Node4</title>
<path fill="none" stroke="midnightblue" d="M152.152,-61.5737C262.498,-65.3527 467.493,-72.373 580.7,-76.25"/>
<polygon fill="midnightblue" stroke="midnightblue" points="580.58,-79.7479 590.694,-76.5923 580.82,-72.752 580.58,-79.7479"/>
</g>
<!-- Node8 -->
<g id="node8" class="node"><title>Node8</title>
<g id="a_node8"><a xlink:href="../../d4/dd2/classapplication_1_1_wa_tor_cell2.html#ad1101a19661397640f4b6a0052f0f3ea" target="_top" xlink:title="application.WaTorCell2.populate\lOtherCell">
<polygon fill="white" stroke="black" points="188.5,-0 188.5,-30 355.5,-30 355.5,-0 188.5,-0"/>
<text text-anchor="start" x="196.5" y="-18" font-family="Helvetica,sans-Serif" font-size="10.00">application.WaTorCell2.populate</text>
<text text-anchor="middle" x="272" y="-7" font-family="Helvetica,sans-Serif" font-size="10.00">OtherCell</text>
</a>
</g>
</g>
<!-- Node1&#45;&gt;Node8 -->
<g id="edge8" class="edge"><title>Node1&#45;&gt;Node8</title>
<path fill="none" stroke="midnightblue" d="M143.221,-43.9808C159.829,-40.214 177.78,-36.1426 194.83,-32.2756"/>
<polygon fill="midnightblue" stroke="midnightblue" points="195.77,-35.6515 204.748,-30.0262 194.222,-28.8248 195.77,-35.6515"/>
</g>
<!-- Node3 -->
<g id="node3" class="node"><title>Node3</title>
<g id="a_node3"><a xlink:href="../../d4/dd2/classapplication_1_1_wa_tor_cell2.html#aef2f48f664866e631e9e8a72e8a672e7" target="_top" xlink:title="application.WaTorCell2.breed">
<polygon fill="white" stroke="black" points="392,-137.5 392,-156.5 544,-156.5 544,-137.5 392,-137.5"/>
<text text-anchor="middle" x="468" y="-144.5" font-family="Helvetica,sans-Serif" font-size="10.00">application.WaTorCell2.breed</text>
</a>
</g>
</g>
<!-- Node2&#45;&gt;Node3 -->
<g id="edge2" class="edge"><title>Node2&#45;&gt;Node3</title>
<path fill="none" stroke="midnightblue" d="M339.221,-118.019C363.986,-123.636 391.737,-129.93 415.033,-135.214"/>
<polygon fill="midnightblue" stroke="midnightblue" points="414.532,-138.689 425.059,-137.488 416.081,-131.862 414.532,-138.689"/>
</g>
<!-- Node7 -->
<g id="node7" class="node"><title>Node7</title>
<g id="a_node7"><a xlink:href="../../d4/dd2/classapplication_1_1_wa_tor_cell2.html#aaf0c4794bbc60d9f0531824e077bc83e" target="_top" xlink:title="application.WaTorCell2.kill\lShark">
<polygon fill="white" stroke="black" points="399.5,-88 399.5,-118 536.5,-118 536.5,-88 399.5,-88"/>
<text text-anchor="start" x="407.5" y="-106" font-family="Helvetica,sans-Serif" font-size="10.00">application.WaTorCell2.kill</text>
<text text-anchor="middle" x="468" y="-95" font-family="Helvetica,sans-Serif" font-size="10.00">Shark</text>
</a>
</g>
</g>
<!-- Node2&#45;&gt;Node7 -->
<g id="edge6" class="edge"><title>Node2&#45;&gt;Node7</title>
<path fill="none" stroke="midnightblue" d="M348.005,-103C361.515,-103 375.626,-103 389.212,-103"/>
<polygon fill="midnightblue" stroke="midnightblue" points="389.481,-106.5 399.481,-103 389.481,-99.5001 389.481,-106.5"/>
</g>
<!-- Node3&#45;&gt;Node4 -->
<g id="edge3" class="edge"><title>Node3&#45;&gt;Node4</title>
<path fill="none" stroke="midnightblue" d="M508.598,-137.46C520.106,-134.413 532.634,-130.829 544,-127 569.012,-118.574 596.332,-107.477 618.278,-98.0756"/>
<polygon fill="midnightblue" stroke="midnightblue" points="619.852,-101.208 627.643,-94.0275 617.075,-94.7827 619.852,-101.208"/>
</g>
<!-- Node6 -->
<g id="node6" class="node"><title>Node6</title>
<g id="a_node6"><a xlink:href="../../d4/dd2/classapplication_1_1_wa_tor_cell2.html#aac1548ffada995a7eb78440ce30e4e95" target="_top" xlink:title="application.WaTorCell2.initialize\lNewCell">
<polygon fill="white" stroke="black" points="580.5,-132 580.5,-162 743.5,-162 743.5,-132 580.5,-132"/>
<text text-anchor="start" x="588.5" y="-150" font-family="Helvetica,sans-Serif" font-size="10.00">application.WaTorCell2.initialize</text>
<text text-anchor="middle" x="662" y="-139" font-family="Helvetica,sans-Serif" font-size="10.00">NewCell</text>
</a>
</g>
</g>
<!-- Node3&#45;&gt;Node6 -->
<g id="edge5" class="edge"><title>Node3&#45;&gt;Node6</title>
<path fill="none" stroke="midnightblue" d="M544.057,-147C552.599,-147 561.374,-147 570.093,-147"/>
<polygon fill="midnightblue" stroke="midnightblue" points="570.285,-150.5 580.285,-147 570.285,-143.5 570.285,-150.5"/>
</g>
<!-- Node5 -->
<g id="node5" class="node"><title>Node5</title>
<g id="a_node5"><a xlink:href="../../d4/dd2/classapplication_1_1_wa_tor_cell2.html#a75398d99fc4f04f7137702b84f8f9f1f" target="_top" xlink:title="application.WaTorCell2.check\lBounds">
<polygon fill="white" stroke="black" points="780,-64 780,-94 932,-94 932,-64 780,-64"/>
<text text-anchor="start" x="788" y="-82" font-family="Helvetica,sans-Serif" font-size="10.00">application.WaTorCell2.check</text>
<text text-anchor="middle" x="856" y="-71" font-family="Helvetica,sans-Serif" font-size="10.00">Bounds</text>
</a>
</g>
</g>
<!-- Node4&#45;&gt;Node5 -->
<g id="edge4" class="edge"><title>Node4&#45;&gt;Node5</title>
<path fill="none" stroke="midnightblue" d="M733.131,-79C745.015,-79 757.471,-79 769.693,-79"/>
<polygon fill="midnightblue" stroke="midnightblue" points="769.886,-82.5001 779.886,-79 769.886,-75.5001 769.886,-82.5001"/>
</g>
</g>
</svg>
        <g id="navigator" transform="translate(0 0)" fill="#404254">
                <rect fill="#f2f5e9" fill-opacity="0.5" stroke="#606060" stroke-width=".5" x="0" y="0" width="60" height="60"/>
                <use id="zoomplus" xlink:href="#zoomPlus" x="17" y="9" onmousedown="handleZoom(evt,'in')"/>
                <use id="zoomminus" xlink:href="#zoomMin" x="42" y="9" onmousedown="handleZoom(evt,'out')"/>
                <use id="reset" xlink:href="#resetDef" x="30" y="36" onmousedown="handleReset()"/>
                <g id="arrowUp" xlink:href="#dirArrow" transform="translate(30 24)" onmousedown="handlePan(0,-1)">
                  <use xlink:href="#rim" fill="#404040">
                        <set attributeName="fill" to="#808080" begin="arrowUp.mouseover" end="arrowUp.mouseout"/>
                  </use>
                  <path fill="none" stroke="white" stroke-width="1.5" d="M0,-3.0v7 M-2.5,-0.5L0,-3.0L2.5,-0.5"/>
                </g>
                <g id="arrowRight" xlink:href="#dirArrow" transform="rotate(90) translate(36 -43)" onmousedown="handlePan(1,0)">
                  <use xlink:href="#rim" fill="#404040">
                        <set attributeName="fill" to="#808080" begin="arrowRight.mouseover" end="arrowRight.mouseout"/>
                  </use>
                  <path fill="none" stroke="white" stroke-width="1.5" d="M0,-3.0v7 M-2.5,-0.5L0,-3.0L2.5,-0.5"/>
                </g>
                <g id="arrowDown" xlink:href="#dirArrow" transform="rotate(180) translate(-30 -48)" onmousedown="handlePan(0,1)">
                  <use xlink:href="#rim" fill="#404040">
                        <set attributeName="fill" to="#808080" begin="arrowDown.mouseover" end="arrowDown.mouseout"/>
                  </use>
                  <path fill="none" stroke="white" stroke-width="1.5" d="M0,-3.0v7 M-2.5,-0.5L0,-3.0L2.5,-0.5"/>
                </g>
                <g id="arrowLeft" xlink:href="#dirArrow" transform="rotate(270) translate(-36 17)" onmousedown="handlePan(-1,0)">
                  <use xlink:href="#rim" fill="#404040">
                        <set attributeName="fill" to="#808080" begin="arrowLeft.mouseover" end="arrowLeft.mouseout"/>
                  </use>
                  <path fill="none" stroke="white" stroke-width="1.5" d="M0,-3.0v7 M-2.5,-0.5L0,-3.0L2.5,-0.5"/>
                </g>
        </g>
        <svg viewBox="0 0 15 15" width="100%" height="30px" preserveAspectRatio="xMaxYMin meet">
         <g id="arrow_out" transform="scale(0.3 0.3)">
          <a xlink:href="classapplication_1_1_wa_tor_cell2_a9c34fc1d0caa39c1095ff90596b3e67b_cgraph_org.svg" target="_base">
           <rect id="button" ry="5" rx="5" y="6" x="6" height="38" width="38"
                fill="#f2f5e9" fill-opacity="0.5" stroke="#606060" stroke-width="1.0"/>
           <path id="arrow"
             d="M 11.500037,31.436501 C 11.940474,20.09759 22.043105,11.32322 32.158766,21.979434 L 37.068811,17.246167 C 37.068811,17.246167 37.088388,32 37.088388,32 L 22.160133,31.978069 C 22.160133,31.978069 26.997745,27.140456 26.997745,27.140456 C 18.528582,18.264221 13.291696,25.230495 11.500037,31.436501 z"
             style="fill:#404040;"/>
          </a>
         </g>
        </svg>
</svg>
