<?xml version="1.0" encoding="UTF-8" standalone="no"?>
<!DOCTYPE svg PUBLIC "-//W3C//DTD SVG 1.1//EN"
 "http://www.w3.org/Graphics/SVG/1.1/DTD/svg11.dtd">
<!-- Generated by graphviz version 2.36.0 (20140111.2315)
 -->
<!-- Title: application.WaTorCell2.checkTimeTillSharkEvents Pages: 1 -->
<svg width="948pt" height="38pt"
 viewBox="0.00 0.00 948.00 38.00" xmlns="http://www.w3.org/2000/svg" xmlns:xlink="http://www.w3.org/1999/xlink">
<g id="graph0" class="graph" transform="scale(1 1) rotate(0) translate(4 34)">
<title>application.WaTorCell2.checkTimeTillSharkEvents</title>
<polygon fill="white" stroke="none" points="-4,4 -4,-34 944,-34 944,4 -4,4"/>
<!-- Node1 -->
<g id="node1" class="node"><title>Node1</title>
<polygon fill="#bfbfbf" stroke="black" points="0,-0 0,-30 152,-30 152,-0 0,-0"/>
<text text-anchor="start" x="8" y="-18" font-family="Helvetica,sans-Serif" font-size="10.00">application.WaTorCell2.check</text>
<text text-anchor="middle" x="76" y="-7" font-family="Helvetica,sans-Serif" font-size="10.00">TimeTillSharkEvents</text>
</g>
<!-- Node2 -->
<g id="node2" class="node"><title>Node2</title>
<g id="a_node2"><a xlink:href="../../d4/dd2/classapplication_1_1_wa_tor_cell2.html#a9c34fc1d0caa39c1095ff90596b3e67b" target="_top" xlink:title="application.WaTorCell2.move\lShark">
<polygon fill="white" stroke="black" points="188,-0 188,-30 340,-30 340,-0 188,-0"/>
<text text-anchor="start" x="196" y="-18" font-family="Helvetica,sans-Serif" font-size="10.00">application.WaTorCell2.move</text>
<text text-anchor="middle" x="264" y="-7" font-family="Helvetica,sans-Serif" font-size="10.00">Shark</text>
</a>
</g>
</g>
<!-- Node1&#45;&gt;Node2 -->
<g id="edge1" class="edge"><title>Node1&#45;&gt;Node2</title>
<path fill="none" stroke="midnightblue" d="M162.147,-15C170.742,-15 179.426,-15 187.905,-15"/>
<polygon fill="midnightblue" stroke="midnightblue" points="162.117,-11.5001 152.117,-15 162.117,-18.5001 162.117,-11.5001"/>
</g>
<!-- Node3 -->
<g id="node3" class="node"><title>Node3</title>
<g id="a_node3"><a xlink:href="../../d4/dd2/classapplication_1_1_wa_tor_cell2.html#a4c116bc052edb10528b26b7905518cf6" target="_top" xlink:title="application.WaTorCell2.update\lShark">
<polygon fill="white" stroke="black" points="376,-0 376,-30 534,-30 534,-0 376,-0"/>
<text text-anchor="start" x="384" y="-18" font-family="Helvetica,sans-Serif" font-size="10.00">application.WaTorCell2.update</text>
<text text-anchor="middle" x="455" y="-7" font-family="Helvetica,sans-Serif" font-size="10.00">Shark</text>
</a>
</g>
</g>
<!-- Node2&#45;&gt;Node3 -->
<g id="edge2" class="edge"><title>Node2&#45;&gt;Node3</title>
<path fill="none" stroke="midnightblue" d="M350.503,-15C358.97,-15 367.535,-15 375.922,-15"/>
<polygon fill="midnightblue" stroke="midnightblue" points="350.241,-11.5001 340.241,-15 350.241,-18.5001 350.241,-11.5001"/>
</g>
<!-- Node4 -->
<g id="node4" class="node"><title>Node4</title>
<g id="a_node4"><a xlink:href="../../d4/dd2/classapplication_1_1_wa_tor_cell2.html#a5f759ecf2a2a0d5b46a8cd3180663d5f" target="_top" xlink:title="application.WaTorCell2.update\lState">
<polygon fill="white" stroke="black" points="570,-0 570,-30 728,-30 728,-0 570,-0"/>
<text text-anchor="start" x="578" y="-18" font-family="Helvetica,sans-Serif" font-size="10.00">application.WaTorCell2.update</text>
<text text-anchor="middle" x="649" y="-7" font-family="Helvetica,sans-Serif" font-size="10.00">State</text>
</a>
</g>
</g>
<!-- Node3&#45;&gt;Node4 -->
<g id="edge3" class="edge"><title>Node3&#45;&gt;Node4</title>
<path fill="none" stroke="midnightblue" d="M544.153,-15C552.769,-15 561.47,-15 569.975,-15"/>
<polygon fill="midnightblue" stroke="midnightblue" points="544.094,-11.5001 534.094,-15 544.094,-18.5001 544.094,-11.5001"/>
</g>
<!-- Node5 -->
<g id="node5" class="node"><title>Node5</title>
<g id="a_node5"><a xlink:href="../../d4/dd2/classapplication_1_1_wa_tor_cell2.html#ad372db7cd5887c0f806d3125c33c094a" target="_top" xlink:title="application.WaTorCell2.updateCell">
<polygon fill="white" stroke="black" points="764,-5.5 764,-24.5 940,-24.5 940,-5.5 764,-5.5"/>
<text text-anchor="middle" x="852" y="-12.5" font-family="Helvetica,sans-Serif" font-size="10.00">application.WaTorCell2.updateCell</text>
</a>
</g>
</g>
<!-- Node4&#45;&gt;Node5 -->
<g id="edge4" class="edge"><title>Node4&#45;&gt;Node5</title>
<path fill="none" stroke="midnightblue" d="M738.509,-15C746.949,-15 755.504,-15 763.93,-15"/>
<polygon fill="midnightblue" stroke="midnightblue" points="738.287,-11.5001 728.287,-15 738.287,-18.5001 738.287,-11.5001"/>
</g>
</g>
</svg>
