<?xml version="1.0" encoding="UTF-8" standalone="no"?>
<!DOCTYPE svg PUBLIC "-//W3C//DTD SVG 1.1//EN"
 "http://www.w3.org/Graphics/SVG/1.1/DTD/svg11.dtd">
<!-- Generated by graphviz version 2.36.0 (20140111.2315)
 -->
<!-- Title: application.Cell.setYPos Pages: 1 -->
<svg width="2708pt" height="160pt"
 viewBox="0.00 0.00 2708.00 160.00" xmlns="http://www.w3.org/2000/svg" xmlns:xlink="http://www.w3.org/1999/xlink">
<g id="graph0" class="graph" transform="scale(1 1) rotate(0) translate(4 156)">
<title>application.Cell.setYPos</title>
<polygon fill="white" stroke="none" points="-4,4 -4,-156 2704,-156 2704,4 -4,4"/>
<!-- Node1 -->
<g id="node1" class="node"><title>Node1</title>
<polygon fill="#bfbfbf" stroke="black" points="0.5,-29.5 0.5,-48.5 129.5,-48.5 129.5,-29.5 0.5,-29.5"/>
<text text-anchor="middle" x="65" y="-36.5" font-family="Helvetica,sans-Serif" font-size="10.00">application.Cell.setYPos</text>
</g>
<!-- Node2 -->
<g id="node2" class="node"><title>Node2</title>
<g id="a_node2"><a xlink:href="../../d3/d32/classapplication_1_1_grid.html#af498f57e4a25440244ee6ce0b4c1899c" target="_top" xlink:title="application.Grid.initialize\lAndPopulateMatrix">
<polygon fill="white" stroke="black" points="166,-47 166,-77 298,-77 298,-47 166,-47"/>
<text text-anchor="start" x="174" y="-65" font-family="Helvetica,sans-Serif" font-size="10.00">application.Grid.initialize</text>
<text text-anchor="middle" x="232" y="-54" font-family="Helvetica,sans-Serif" font-size="10.00">AndPopulateMatrix</text>
</a>
</g>
</g>
<!-- Node1&#45;&gt;Node2 -->
<g id="edge1" class="edge"><title>Node1&#45;&gt;Node2</title>
<path fill="none" stroke="midnightblue" d="M139.845,-49.2936C148.477,-50.4968 157.237,-51.7179 165.741,-52.9033"/>
<polygon fill="midnightblue" stroke="midnightblue" points="140.181,-45.8066 129.793,-47.8924 139.214,-52.7396 140.181,-45.8066"/>
</g>
<!-- Node17 -->
<g id="node17" class="node"><title>Node17</title>
<g id="a_node17"><a xlink:href="../../d1/dd5/classapplication_1_1_cell_x_m_l_reader.html#a68405ca65ccde55966332c573f2dc34b" target="_top" xlink:title="application.CellXMLReader.load\lAttributesIntoCell">
<polygon fill="white" stroke="black" points="346,-0 346,-30 510,-30 510,-0 346,-0"/>
<text text-anchor="start" x="354" y="-18" font-family="Helvetica,sans-Serif" font-size="10.00">application.CellXMLReader.load</text>
<text text-anchor="middle" x="428" y="-7" font-family="Helvetica,sans-Serif" font-size="10.00">AttributesIntoCell</text>
</a>
</g>
</g>
<!-- Node1&#45;&gt;Node17 -->
<g id="edge18" class="edge"><title>Node1&#45;&gt;Node17</title>
<path fill="none" stroke="midnightblue" d="M139.852,-34.0902C199.762,-30.1073 284.112,-24.4995 345.891,-20.3923"/>
<polygon fill="midnightblue" stroke="midnightblue" points="139.454,-30.6088 129.709,-34.7645 139.919,-37.5934 139.454,-30.6088"/>
</g>
<!-- Node3 -->
<g id="node3" class="node"><title>Node3</title>
<g id="a_node3"><a xlink:href="../../d9/d5e/classapplication_1_1_application_loop.html#ae6fc4b7d381bb5b4d4ba3eb4bb69c078" target="_top" xlink:title="application.ApplicationLoop.initialize\lGridPane">
<polygon fill="white" stroke="black" points="334,-49 334,-79 522,-79 522,-49 334,-49"/>
<text text-anchor="start" x="342" y="-67" font-family="Helvetica,sans-Serif" font-size="10.00">application.ApplicationLoop.initialize</text>
<text text-anchor="middle" x="428" y="-56" font-family="Helvetica,sans-Serif" font-size="10.00">GridPane</text>
</a>
</g>
</g>
<!-- Node2&#45;&gt;Node3 -->
<g id="edge2" class="edge"><title>Node2&#45;&gt;Node3</title>
<path fill="none" stroke="midnightblue" d="M308.215,-62.7754C316.584,-62.8617 325.18,-62.9503 333.738,-63.0385"/>
<polygon fill="midnightblue" stroke="midnightblue" points="308.174,-59.2749 298.139,-62.6715 308.102,-66.2745 308.174,-59.2749"/>
</g>
<!-- Node4 -->
<g id="node4" class="node"><title>Node4</title>
<g id="a_node4"><a xlink:href="../../d9/d5e/classapplication_1_1_application_loop.html#a903043ba2535055f46dbee6aca8b3eef" target="_top" xlink:title="application.ApplicationLoop.init">
<polygon fill="white" stroke="black" points="569,-54.5 569,-73.5 733,-73.5 733,-54.5 569,-54.5"/>
<text text-anchor="middle" x="651" y="-61.5" font-family="Helvetica,sans-Serif" font-size="10.00">application.ApplicationLoop.init</text>
</a>
</g>
</g>
<!-- Node3&#45;&gt;Node4 -->
<g id="edge3" class="edge"><title>Node3&#45;&gt;Node4</title>
<path fill="none" stroke="midnightblue" d="M532.357,-64C544.636,-64 557.033,-64 568.938,-64"/>
<polygon fill="midnightblue" stroke="midnightblue" points="532.083,-60.5001 522.083,-64 532.083,-67.5001 532.083,-60.5001"/>
</g>
<!-- Node5 -->
<g id="node5" class="node"><title>Node5</title>
<g id="a_node5"><a xlink:href="../../d9/d96/classapplication_1_1_main.html#adc868cfca1990edad66af3dcb8cf4349" target="_top" xlink:title="application.Main.playGame">
<polygon fill="white" stroke="black" points="780,-54.5 780,-73.5 926,-73.5 926,-54.5 780,-54.5"/>
<text text-anchor="middle" x="853" y="-61.5" font-family="Helvetica,sans-Serif" font-size="10.00">application.Main.playGame</text>
</a>
</g>
</g>
<!-- Node4&#45;&gt;Node5 -->
<g id="edge4" class="edge"><title>Node4&#45;&gt;Node5</title>
<path fill="none" stroke="midnightblue" d="M743.295,-64C755.548,-64 767.978,-64 779.839,-64"/>
<polygon fill="midnightblue" stroke="midnightblue" points="743.059,-60.5001 733.059,-64 743.059,-67.5001 743.059,-60.5001"/>
</g>
<!-- Node6 -->
<g id="node6" class="node"><title>Node6</title>
<g id="a_node6"><a xlink:href="../../d9/d96/classapplication_1_1_main.html#ada0f47786d75e28e627d2621d75eaf5a" target="_top" xlink:title="application.Main.activate\lStartButton">
<polygon fill="white" stroke="black" points="962.5,-91 962.5,-121 1097.5,-121 1097.5,-91 962.5,-91"/>
<text text-anchor="start" x="970.5" y="-109" font-family="Helvetica,sans-Serif" font-size="10.00">application.Main.activate</text>
<text text-anchor="middle" x="1030" y="-98" font-family="Helvetica,sans-Serif" font-size="10.00">StartButton</text>
</a>
</g>
</g>
<!-- Node5&#45;&gt;Node6 -->
<g id="edge5" class="edge"><title>Node5&#45;&gt;Node6</title>
<path fill="none" stroke="midnightblue" d="M903.615,-75.9075C923.151,-80.5962 945.81,-86.0344 966.448,-90.9876"/>
<polygon fill="midnightblue" stroke="midnightblue" points="904.251,-72.4609 893.71,-73.5305 902.617,-79.2676 904.251,-72.4609"/>
</g>
<!-- Node7 -->
<g id="node7" class="node"><title>Node7</title>
<g id="a_node7"><a xlink:href="../../d9/d96/classapplication_1_1_main.html#a64e6451d894979853890a235efe37db8" target="_top" xlink:title="application.Main.createStart\lGameButton">
<polygon fill="white" stroke="black" points="1134,-91 1134,-121 1286,-121 1286,-91 1134,-91"/>
<text text-anchor="start" x="1142" y="-109" font-family="Helvetica,sans-Serif" font-size="10.00">application.Main.createStart</text>
<text text-anchor="middle" x="1210" y="-98" font-family="Helvetica,sans-Serif" font-size="10.00">GameButton</text>
</a>
</g>
</g>
<!-- Node6&#45;&gt;Node7 -->
<g id="edge6" class="edge"><title>Node6&#45;&gt;Node7</title>
<path fill="none" stroke="midnightblue" d="M1107.65,-106C1116.34,-106 1125.2,-106 1133.87,-106"/>
<polygon fill="midnightblue" stroke="midnightblue" points="1107.53,-102.5 1097.53,-106 1107.53,-109.5 1107.53,-102.5"/>
</g>
<!-- Node8 -->
<g id="node8" class="node"><title>Node8</title>
<g id="a_node8"><a xlink:href="../../d9/d96/classapplication_1_1_main.html#a5fee6c1b05965eca9205a99e3245a5fb" target="_top" xlink:title="application.Main.populate\lStartPageModules">
<polygon fill="white" stroke="black" points="1322.5,-91 1322.5,-121 1461.5,-121 1461.5,-91 1322.5,-91"/>
<text text-anchor="start" x="1330.5" y="-109" font-family="Helvetica,sans-Serif" font-size="10.00">application.Main.populate</text>
<text text-anchor="middle" x="1392" y="-98" font-family="Helvetica,sans-Serif" font-size="10.00">StartPageModules</text>
</a>
</g>
</g>
<!-- Node7&#45;&gt;Node8 -->
<g id="edge7" class="edge"><title>Node7&#45;&gt;Node8</title>
<path fill="none" stroke="midnightblue" d="M1296.27,-106C1305.04,-106 1313.86,-106 1322.41,-106"/>
<polygon fill="midnightblue" stroke="midnightblue" points="1296.03,-102.5 1286.03,-106 1296.03,-109.5 1296.03,-102.5"/>
</g>
<!-- Node9 -->
<g id="node9" class="node"><title>Node9</title>
<g id="a_node9"><a xlink:href="../../d9/d96/classapplication_1_1_main.html#a4e5ad4e3de8bbd8654120180a94e870d" target="_top" xlink:title="application.Main.start">
<polygon fill="white" stroke="black" points="1498.5,-96.5 1498.5,-115.5 1617.5,-115.5 1617.5,-96.5 1498.5,-96.5"/>
<text text-anchor="middle" x="1558" y="-103.5" font-family="Helvetica,sans-Serif" font-size="10.00">application.Main.start</text>
</a>
</g>
</g>
<!-- Node8&#45;&gt;Node9 -->
<g id="edge8" class="edge"><title>Node8&#45;&gt;Node9</title>
<path fill="none" stroke="midnightblue" d="M1471.68,-106C1480.64,-106 1489.66,-106 1498.3,-106"/>
<polygon fill="midnightblue" stroke="midnightblue" points="1471.6,-102.5 1461.6,-106 1471.6,-109.5 1471.6,-102.5"/>
</g>
<!-- Node10 -->
<g id="node10" class="node"><title>Node10</title>
<g id="a_node10"><a xlink:href="../../d9/d96/classapplication_1_1_main.html#ad652e3294ffb6519b18d784d5831c76a" target="_top" xlink:title="application.Main.activate\lReturntoStart">
<polygon fill="white" stroke="black" points="1654.5,-91 1654.5,-121 1789.5,-121 1789.5,-91 1654.5,-91"/>
<text text-anchor="start" x="1662.5" y="-109" font-family="Helvetica,sans-Serif" font-size="10.00">application.Main.activate</text>
<text text-anchor="middle" x="1722" y="-98" font-family="Helvetica,sans-Serif" font-size="10.00">ReturntoStart</text>
</a>
</g>
</g>
<!-- Node9&#45;&gt;Node10 -->
<g id="edge9" class="edge"><title>Node9&#45;&gt;Node10</title>
<path fill="none" stroke="midnightblue" d="M1628.08,-106C1636.81,-106 1645.73,-106 1654.42,-106"/>
<polygon fill="midnightblue" stroke="midnightblue" points="1627.94,-102.5 1617.94,-106 1627.94,-109.5 1627.94,-102.5"/>
</g>
<!-- Node11 -->
<g id="node11" class="node"><title>Node11</title>
<g id="a_node11"><a xlink:href="../../d9/d96/classapplication_1_1_main.html#a4c5877fafc53c4fae488f1f30faf294b" target="_top" xlink:title="application.Main.createReturn\lToStartButton">
<polygon fill="white" stroke="black" points="1826,-91 1826,-121 1984,-121 1984,-91 1826,-91"/>
<text text-anchor="start" x="1834" y="-109" font-family="Helvetica,sans-Serif" font-size="10.00">application.Main.createReturn</text>
<text text-anchor="middle" x="1905" y="-98" font-family="Helvetica,sans-Serif" font-size="10.00">ToStartButton</text>
</a>
</g>
</g>
<!-- Node10&#45;&gt;Node11 -->
<g id="edge10" class="edge"><title>Node10&#45;&gt;Node11</title>
<path fill="none" stroke="midnightblue" d="M1799.7,-106C1808.36,-106 1817.19,-106 1825.87,-106"/>
<polygon fill="midnightblue" stroke="midnightblue" points="1799.63,-102.5 1789.63,-106 1799.63,-109.5 1799.63,-102.5"/>
</g>
<!-- Node12 -->
<g id="node12" class="node"><title>Node12</title>
<g id="a_node12"><a xlink:href="../../d9/d96/classapplication_1_1_main.html#a2ddf30fb8360296e1ad3459fe6f920fb" target="_top" xlink:title="application.Main.populate\lGridPageModules">
<polygon fill="white" stroke="black" points="2020.5,-44 2020.5,-74 2159.5,-74 2159.5,-44 2020.5,-44"/>
<text text-anchor="start" x="2028.5" y="-62" font-family="Helvetica,sans-Serif" font-size="10.00">application.Main.populate</text>
<text text-anchor="middle" x="2090" y="-51" font-family="Helvetica,sans-Serif" font-size="10.00">GridPageModules</text>
</a>
</g>
</g>
<!-- Node11&#45;&gt;Node12 -->
<g id="edge11" class="edge"><title>Node11&#45;&gt;Node12</title>
<path fill="none" stroke="midnightblue" d="M1974.23,-88.4758C1992.74,-83.7227 2012.61,-78.6204 2030.52,-74.019"/>
<polygon fill="midnightblue" stroke="midnightblue" points="1973.22,-85.1221 1964.41,-90.9997 1974.96,-91.902 1973.22,-85.1221"/>
</g>
<!-- Node13 -->
<g id="node13" class="node"><title>Node13</title>
<g id="a_node13"><a xlink:href="../../d9/d96/classapplication_1_1_main.html#abcabe1a32eb7b5054cf34ca0def07531" target="_top" xlink:title="application.Main.populate\lErrorPageModules">
<polygon fill="white" stroke="black" points="2020.5,-93 2020.5,-123 2159.5,-123 2159.5,-93 2020.5,-93"/>
<text text-anchor="start" x="2028.5" y="-111" font-family="Helvetica,sans-Serif" font-size="10.00">application.Main.populate</text>
<text text-anchor="middle" x="2090" y="-100" font-family="Helvetica,sans-Serif" font-size="10.00">ErrorPageModules</text>
</a>
</g>
</g>
<!-- Node11&#45;&gt;Node13 -->
<g id="edge13" class="edge"><title>Node11&#45;&gt;Node13</title>
<path fill="none" stroke="midnightblue" d="M1994.36,-106.966C2003.1,-107.061 2011.87,-107.157 2020.37,-107.25"/>
<polygon fill="midnightblue" stroke="midnightblue" points="1994.18,-103.464 1984.14,-106.854 1994.1,-110.463 1994.18,-103.464"/>
</g>
<!-- Node12&#45;&gt;Node5 -->
<g id="edge12" class="edge"><title>Node12&#45;&gt;Node5</title>
<path fill="none" stroke="midnightblue" d="M2010.01,-59.6807C1935.88,-60.2604 1821.92,-61 1723,-61 1209,-61 1209,-61 1209,-61 1111,-61 997.792,-62.1573 926.069,-63.0343"/>
<polygon fill="midnightblue" stroke="midnightblue" points="2010.22,-63.1792 2020.2,-59.6001 2010.17,-56.1794 2010.22,-63.1792"/>
</g>
<!-- Node14 -->
<g id="node14" class="node"><title>Node14</title>
<g id="a_node14"><a xlink:href="../../d9/d96/classapplication_1_1_main.html#a81e70f73d65beae34c459628791cc5d4" target="_top" xlink:title="application.Main.activate\lErrorPage">
<polygon fill="white" stroke="black" points="2196.5,-93 2196.5,-123 2331.5,-123 2331.5,-93 2196.5,-93"/>
<text text-anchor="start" x="2204.5" y="-111" font-family="Helvetica,sans-Serif" font-size="10.00">application.Main.activate</text>
<text text-anchor="middle" x="2264" y="-100" font-family="Helvetica,sans-Serif" font-size="10.00">ErrorPage</text>
</a>
</g>
</g>
<!-- Node13&#45;&gt;Node14 -->
<g id="edge14" class="edge"><title>Node13&#45;&gt;Node14</title>
<path fill="none" stroke="midnightblue" d="M2170.15,-108C2178.88,-108 2187.7,-108 2196.25,-108"/>
<polygon fill="midnightblue" stroke="midnightblue" points="2169.97,-104.5 2159.97,-108 2169.97,-111.5 2169.97,-104.5"/>
</g>
<!-- Node15 -->
<g id="node15" class="node"><title>Node15</title>
<g id="a_node15"><a xlink:href="../../d9/d96/classapplication_1_1_main.html#aef0593911aa3cbc594ac75bbb8d6a2b0" target="_top" xlink:title="application.Main.activate\lImportXMLButton">
<polygon fill="white" stroke="black" points="2368.5,-93 2368.5,-123 2503.5,-123 2503.5,-93 2368.5,-93"/>
<text text-anchor="start" x="2376.5" y="-111" font-family="Helvetica,sans-Serif" font-size="10.00">application.Main.activate</text>
<text text-anchor="middle" x="2436" y="-100" font-family="Helvetica,sans-Serif" font-size="10.00">ImportXMLButton</text>
</a>
</g>
</g>
<!-- Node14&#45;&gt;Node15 -->
<g id="edge15" class="edge"><title>Node14&#45;&gt;Node15</title>
<path fill="none" stroke="midnightblue" d="M2341.72,-108C2350.65,-108 2359.71,-108 2368.49,-108"/>
<polygon fill="midnightblue" stroke="midnightblue" points="2341.7,-104.5 2331.7,-108 2341.7,-111.5 2341.7,-104.5"/>
</g>
<!-- Node16 -->
<g id="node16" class="node"><title>Node16</title>
<g id="a_node16"><a xlink:href="../../d9/d96/classapplication_1_1_main.html#a18021492af2e457d39edcbd16dc0d3c8" target="_top" xlink:title="application.Main.createImport\lXMLButton">
<polygon fill="white" stroke="black" points="2540.5,-115 2540.5,-145 2699.5,-145 2699.5,-115 2540.5,-115"/>
<text text-anchor="start" x="2548.5" y="-133" font-family="Helvetica,sans-Serif" font-size="10.00">application.Main.createImport</text>
<text text-anchor="middle" x="2620" y="-122" font-family="Helvetica,sans-Serif" font-size="10.00">XMLButton</text>
</a>
</g>
</g>
<!-- Node15&#45;&gt;Node16 -->
<g id="edge16" class="edge"><title>Node15&#45;&gt;Node16</title>
<path fill="none" stroke="midnightblue" d="M2513.87,-117.292C2522.59,-118.346 2531.49,-119.422 2540.24,-120.479"/>
<polygon fill="midnightblue" stroke="midnightblue" points="2514.08,-113.793 2503.74,-116.067 2513.24,-120.742 2514.08,-113.793"/>
</g>
<!-- Node16&#45;&gt;Node8 -->
<g id="edge17" class="edge"><title>Node16&#45;&gt;Node8</title>
<path fill="none" stroke="midnightblue" d="M2530.03,-138.596C2458.5,-144.768 2355.38,-152 2265,-152 1721,-152 1721,-152 1721,-152 1630.15,-152 1526.5,-134.478 1460.46,-121.062"/>
<polygon fill="midnightblue" stroke="midnightblue" points="2530.69,-142.052 2540.35,-137.695 2530.08,-135.078 2530.69,-142.052"/>
</g>
<!-- Node18 -->
<g id="node18" class="node"><title>Node18</title>
<g id="a_node18"><a xlink:href="../../d1/dd5/classapplication_1_1_cell_x_m_l_reader.html#a6df22c595f6ab48c2565869a8c111e32" target="_top" xlink:title="application.CellXMLReader.populate\lCellListFromDocument">
<polygon fill="white" stroke="black" points="558.5,-0 558.5,-30 743.5,-30 743.5,-0 558.5,-0"/>
<text text-anchor="start" x="566.5" y="-18" font-family="Helvetica,sans-Serif" font-size="10.00">application.CellXMLReader.populate</text>
<text text-anchor="middle" x="651" y="-7" font-family="Helvetica,sans-Serif" font-size="10.00">CellListFromDocument</text>
</a>
</g>
</g>
<!-- Node17&#45;&gt;Node18 -->
<g id="edge19" class="edge"><title>Node17&#45;&gt;Node18</title>
<path fill="none" stroke="midnightblue" d="M520.038,-15C532.618,-15 545.544,-15 558.139,-15"/>
<polygon fill="midnightblue" stroke="midnightblue" points="520.037,-11.5001 510.037,-15 520.037,-18.5001 520.037,-11.5001"/>
</g>
<!-- Node18&#45;&gt;Node15 -->
<g id="edge20" class="edge"><title>Node18&#45;&gt;Node15</title>
<path fill="none" stroke="midnightblue" d="M753.833,-15C829.695,-15 935.824,-15 1029,-15 1029,-15 1029,-15 2091,-15 2208.86,-15 2341.8,-66.4983 2402.11,-92.851"/>
<polygon fill="midnightblue" stroke="midnightblue" points="753.801,-11.5001 743.801,-15 753.801,-18.5001 753.801,-11.5001"/>
</g>
</g>
</svg>
