<?xml version="1.0" encoding="UTF-8" standalone="no"?>
<!DOCTYPE svg PUBLIC "-//W3C//DTD SVG 1.1//EN"
 "http://www.w3.org/Graphics/SVG/1.1/DTD/svg11.dtd">
<!-- Generated by graphviz version 2.36.0 (20140111.2315)
 -->
<!-- Title: application.Cell.findWantedNeighbors Pages: 1 -->
<!--zoomable 385 -->
<svg id="main" version="1.1" xmlns="http://www.w3.org/2000/svg" xmlns:xlink="http://www.w3.org/1999/xlink" xml:space="preserve" onload="init(evt)">
<style type="text/css"><![CDATA[
.edge:hover path { stroke: red; }
.edge:hover polygon { stroke: red; fill: red; }
]]></style>
<script type="text/javascript"><![CDATA[
var edges = document.getElementsByTagName('g');
if (edges && edges.length) {
  for (var i=0;i<edges.length;i++) {
    if (edges[i].id.substr(0,4)=='edge') {
      edges[i].setAttribute('class','edge');
    }
  }
}
]]></script>
        <defs>
                <circle id="rim" cx="0" cy="0" r="7"/>
                <circle id="rim2" cx="0" cy="0" r="3.5"/>
                <g id="zoomPlus">
                        <use xlink:href="#rim" fill="#404040">
                                <set attributeName="fill" to="#808080" begin="zoomplus.mouseover" end="zoomplus.mouseout"/>
                        </use>
                        <path d="M-4,0h8M0,-4v8" fill="none" stroke="white" stroke-width="1.5" pointer-events="none"/>
                </g>
                <g id="zoomMin">
                        <use xlink:href="#rim" fill="#404040">
                                <set attributeName="fill" to="#808080" begin="zoomminus.mouseover" end="zoomminus.mouseout"/>
                        </use>
                        <path d="M-4,0h8" fill="none" stroke="white" stroke-width="1.5" pointer-events="none"/>
                </g>
                <g id="dirArrow">
                        <path fill="none" stroke="white" stroke-width="1.5" d="M0,-3.0v7 M-2.5,-0.5L0,-3.0L2.5,-0.5"/>
                </g>
               <g id="resetDef">
                       <use xlink:href="#rim2" fill="#404040">
                               <set attributeName="fill" to="#808080" begin="reset.mouseover" end="reset.mouseout"/>
                       </use>
               </g>
        </defs>

<script type="text/javascript">
var viewWidth = 1428;
var viewHeight = 385;
var sectionId = 'dynsection-2';
</script>
<script xlink:href="../../svgpan.js"/>
<svg id="graph" class="graph">
<g id="viewport">
<title>application.Cell.findWantedNeighbors</title>
<polygon fill="white" stroke="none" points="-4,4 -4,-381.399 1424,-381.399 1424,4 -4,4"/>
<!-- Node1 -->
<g id="node1" class="node"><title>Node1</title>
<polygon fill="#bfbfbf" stroke="black" points="0,-137 0,-167 144,-167 144,-137 0,-137"/>
<text text-anchor="start" x="8" y="-155" font-family="Helvetica,sans-Serif" font-size="10.00">application.Cell.findWanted</text>
<text text-anchor="middle" x="72" y="-144" font-family="Helvetica,sans-Serif" font-size="10.00">Neighbors</text>
</g>
<!-- Node2 -->
<g id="node2" class="node"><title>Node2</title>
<g id="a_node2"><a xlink:href="../../d8/db1/classapplication_1_1_wa_tor_cell.html#a9c94858de4179a7d43d023568a0a7a42" target="_top" xlink:title="application.WaTorCell.breed">
<polygon fill="white" stroke="black" points="220,-208.5 220,-227.5 366,-227.5 366,-208.5 220,-208.5"/>
<text text-anchor="middle" x="293" y="-215.5" font-family="Helvetica,sans-Serif" font-size="10.00">application.WaTorCell.breed</text>
</a>
</g>
</g>
<!-- Node1&#45;&gt;Node2 -->
<g id="edge1" class="edge"><title>Node1&#45;&gt;Node2</title>
<path fill="none" stroke="midnightblue" d="M125.646,-170.445C142.893,-176.291 162.197,-182.627 180,-188 204.474,-195.387 232.23,-202.828 253.988,-208.451"/>
<polygon fill="midnightblue" stroke="midnightblue" points="126.35,-166.987 115.756,-167.07 124.09,-173.612 126.35,-166.987"/>
</g>
<!-- Node5 -->
<g id="node5" class="node"><title>Node5</title>
<g id="a_node5"><a xlink:href="../../d8/db1/classapplication_1_1_wa_tor_cell.html#a7b55e124dba81e37f00da7a6c09783de" target="_top" xlink:title="application.WaTorCell.shark\lUpdate">
<polygon fill="white" stroke="black" points="880.5,-280 880.5,-310 1025.5,-310 1025.5,-280 880.5,-280"/>
<text text-anchor="start" x="888.5" y="-298" font-family="Helvetica,sans-Serif" font-size="10.00">application.WaTorCell.shark</text>
<text text-anchor="middle" x="953" y="-287" font-family="Helvetica,sans-Serif" font-size="10.00">Update</text>
</a>
</g>
</g>
<!-- Node1&#45;&gt;Node5 -->
<g id="edge21" class="edge"><title>Node1&#45;&gt;Node5</title>
<path fill="none" stroke="midnightblue" d="M85.5111,-176.124C102.53,-206.282 135.971,-256.976 180,-282 437.21,-428.185 551.584,-373.941 844,-329 867.898,-325.327 893.763,-317.335 914.188,-310.022"/>
<polygon fill="midnightblue" stroke="midnightblue" points="88.4468,-174.198 80.5699,-167.113 82.3089,-177.564 88.4468,-174.198"/>
</g>
<!-- Node8 -->
<g id="node8" class="node"><title>Node8</title>
<g id="a_node8"><a xlink:href="../../d8/db1/classapplication_1_1_wa_tor_cell.html#ac24a6ce0cc2bfac6ffec59cc1deaf13f" target="_top" xlink:title="application.WaTorCell.move\lShark">
<polygon fill="white" stroke="black" points="689,-290 689,-320 835,-320 835,-290 689,-290"/>
<text text-anchor="start" x="697" y="-308" font-family="Helvetica,sans-Serif" font-size="10.00">application.WaTorCell.move</text>
<text text-anchor="middle" x="762" y="-297" font-family="Helvetica,sans-Serif" font-size="10.00">Shark</text>
</a>
</g>
</g>
<!-- Node1&#45;&gt;Node8 -->
<g id="edge18" class="edge"><title>Node1&#45;&gt;Node8</title>
<path fill="none" stroke="midnightblue" d="M94.5465,-174.25C114.784,-193.807 146.84,-221.499 180,-237 349.051,-316.026 574.752,-316.64 688.684,-310.692"/>
<polygon fill="midnightblue" stroke="midnightblue" points="96.9694,-171.724 87.3911,-167.195 92.0548,-176.709 96.9694,-171.724"/>
</g>
<!-- Node10 -->
<g id="node10" class="node"><title>Node10</title>
<g id="a_node10"><a xlink:href="../../d8/db1/classapplication_1_1_wa_tor_cell.html#afd6d9d7c8196264c6db8b07ac589b8d7" target="_top" xlink:title="application.WaTorCell.moveFish">
<polygon fill="white" stroke="black" points="680,-208.5 680,-227.5 844,-227.5 844,-208.5 680,-208.5"/>
<text text-anchor="middle" x="762" y="-215.5" font-family="Helvetica,sans-Serif" font-size="10.00">application.WaTorCell.moveFish</text>
</a>
</g>
</g>
<!-- Node1&#45;&gt;Node10 -->
<g id="edge17" class="edge"><title>Node1&#45;&gt;Node10</title>
<path fill="none" stroke="midnightblue" d="M154.228,-154.286C265.297,-158.218 470.573,-168.367 644,-193 670.631,-196.783 700.259,-203.136 723.036,-208.491"/>
<polygon fill="midnightblue" stroke="midnightblue" points="154.22,-150.784 144.105,-153.936 153.978,-157.78 154.22,-150.784"/>
</g>
<!-- Node12 -->
<g id="node12" class="node"><title>Node12</title>
<g id="a_node12"><a xlink:href="../../db/d83/classapplication_1_1_fire_cell.html#ab287da674c1d521772a61c1a761c9320" target="_top" xlink:title="application.FireCell.find\lFireNeighbors">
<polygon fill="white" stroke="black" points="230.5,-115 230.5,-145 355.5,-145 355.5,-115 230.5,-115"/>
<text text-anchor="start" x="238.5" y="-133" font-family="Helvetica,sans-Serif" font-size="10.00">application.FireCell.find</text>
<text text-anchor="middle" x="293" y="-122" font-family="Helvetica,sans-Serif" font-size="10.00">FireNeighbors</text>
</a>
</g>
</g>
<!-- Node1&#45;&gt;Node12 -->
<g id="edge13" class="edge"><title>Node1&#45;&gt;Node12</title>
<path fill="none" stroke="midnightblue" d="M154.373,-143.826C179.549,-141.296 206.853,-138.554 230.453,-136.183"/>
<polygon fill="midnightblue" stroke="midnightblue" points="153.703,-140.375 144.103,-144.857 154.403,-147.34 153.703,-140.375"/>
</g>
<!-- Node14 -->
<g id="node14" class="node"><title>Node14</title>
<g id="a_node14"><a xlink:href="../../d3/d02/classapplication_1_1_flood_cell.html#ac7e1cdf4cf3311005e48bca943526dd9" target="_top" xlink:title="application.FloodCell.floodSelf">
<polygon fill="white" stroke="black" points="214,-76.5 214,-95.5 372,-95.5 372,-76.5 214,-76.5"/>
<text text-anchor="middle" x="293" y="-83.5" font-family="Helvetica,sans-Serif" font-size="10.00">application.FloodCell.floodSelf</text>
</a>
</g>
</g>
<!-- Node1&#45;&gt;Node14 -->
<g id="edge15" class="edge"><title>Node1&#45;&gt;Node14</title>
<path fill="none" stroke="midnightblue" d="M111.333,-132.417C131.35,-122.903 156.509,-112.035 180,-105 192.753,-101.181 206.567,-98.055 219.997,-95.522"/>
<polygon fill="midnightblue" stroke="midnightblue" points="109.717,-129.311 102.237,-136.814 112.764,-135.613 109.717,-129.311"/>
</g>
<!-- Node16 -->
<g id="node16" class="node"><title>Node16</title>
<g id="a_node16"><a xlink:href="../../d4/d72/classapplication_1_1_segregation_cell.html#a5a4c9f56ef09633109dab75481e93227" target="_top" xlink:title="application.SegregationCell.percentageCalc">
<polygon fill="white" stroke="black" points="180.5,-38.5 180.5,-57.5 405.5,-57.5 405.5,-38.5 180.5,-38.5"/>
<text text-anchor="middle" x="293" y="-45.5" font-family="Helvetica,sans-Serif" font-size="10.00">application.SegregationCell.percentageCalc</text>
</a>
</g>
</g>
<!-- Node1&#45;&gt;Node16 -->
<g id="edge19" class="edge"><title>Node1&#45;&gt;Node16</title>
<path fill="none" stroke="midnightblue" d="M94.0734,-129.812C114.204,-110.047 146.38,-82.0007 180,-67 188.735,-63.1025 198.181,-59.9998 207.753,-57.5306"/>
<polygon fill="midnightblue" stroke="midnightblue" points="91.5517,-127.384 86.9702,-136.937 96.5091,-132.326 91.5517,-127.384"/>
</g>
<!-- Node18 -->
<g id="node18" class="node"><title>Node18</title>
<g id="a_node18"><a xlink:href="../../d9/d3f/classapplication_1_1_game_of_life_cell.html#aaacde3c3067a0de839c1f5f1afe25b90" target="_top" xlink:title="application.GameOfLifeCell.updateCell">
<polygon fill="white" stroke="black" points="193.5,-0.5 193.5,-19.5 392.5,-19.5 392.5,-0.5 193.5,-0.5"/>
<text text-anchor="middle" x="293" y="-7.5" font-family="Helvetica,sans-Serif" font-size="10.00">application.GameOfLifeCell.updateCell</text>
</a>
</g>
</g>
<!-- Node1&#45;&gt;Node18 -->
<g id="edge22" class="edge"><title>Node1&#45;&gt;Node18</title>
<path fill="none" stroke="midnightblue" d="M86.6883,-128.01C104.348,-99.4481 137.868,-52.6472 180,-29 186.879,-25.1389 194.343,-22.0205 202.041,-19.507"/>
<polygon fill="midnightblue" stroke="midnightblue" points="83.4737,-126.564 81.3179,-136.937 89.472,-130.173 83.4737,-126.564"/>
</g>
<!-- Node3 -->
<g id="node3" class="node"><title>Node3</title>
<g id="a_node3"><a xlink:href="../../d8/db1/classapplication_1_1_wa_tor_cell.html#a307b646f55543b979ac5b5d99b204d44" target="_top" xlink:title="application.WaTorCell.shark\lCheck">
<polygon fill="white" stroke="black" points="470.5,-252 470.5,-282 615.5,-282 615.5,-252 470.5,-252"/>
<text text-anchor="start" x="478.5" y="-270" font-family="Helvetica,sans-Serif" font-size="10.00">application.WaTorCell.shark</text>
<text text-anchor="middle" x="543" y="-259" font-family="Helvetica,sans-Serif" font-size="10.00">Check</text>
</a>
</g>
</g>
<!-- Node2&#45;&gt;Node3 -->
<g id="edge2" class="edge"><title>Node2&#45;&gt;Node3</title>
<path fill="none" stroke="midnightblue" d="M352.231,-229.505C387.446,-236.463 432.62,-245.389 470.059,-252.786"/>
<polygon fill="midnightblue" stroke="midnightblue" points="352.6,-226.011 342.111,-227.506 351.243,-232.878 352.6,-226.011"/>
</g>
<!-- Node9 -->
<g id="node9" class="node"><title>Node9</title>
<g id="a_node9"><a xlink:href="../../d8/db1/classapplication_1_1_wa_tor_cell.html#a1a6ef599bf7ba202e69ba2cea6562346" target="_top" xlink:title="application.WaTorCell.fish\lCheck">
<polygon fill="white" stroke="black" points="475.5,-203 475.5,-233 610.5,-233 610.5,-203 475.5,-203"/>
<text text-anchor="start" x="483.5" y="-221" font-family="Helvetica,sans-Serif" font-size="10.00">application.WaTorCell.fish</text>
<text text-anchor="middle" x="543" y="-210" font-family="Helvetica,sans-Serif" font-size="10.00">Check</text>
</a>
</g>
</g>
<!-- Node2&#45;&gt;Node9 -->
<g id="edge9" class="edge"><title>Node2&#45;&gt;Node9</title>
<path fill="none" stroke="midnightblue" d="M376.337,-218C408.47,-218 444.827,-218 475.277,-218"/>
<polygon fill="midnightblue" stroke="midnightblue" points="376.065,-214.5 366.065,-218 376.065,-221.5 376.065,-214.5"/>
</g>
<!-- Node4 -->
<g id="node4" class="node"><title>Node4</title>
<g id="a_node4"><a xlink:href="../../d8/db1/classapplication_1_1_wa_tor_cell.html#acd6f36e1b67026af41aab1234ee5e58a" target="_top" xlink:title="application.WaTorCell.eatFish">
<polygon fill="white" stroke="black" points="686,-251.5 686,-270.5 838,-270.5 838,-251.5 686,-251.5"/>
<text text-anchor="middle" x="762" y="-258.5" font-family="Helvetica,sans-Serif" font-size="10.00">application.WaTorCell.eatFish</text>
</a>
</g>
</g>
<!-- Node3&#45;&gt;Node4 -->
<g id="edge3" class="edge"><title>Node3&#45;&gt;Node4</title>
<path fill="none" stroke="midnightblue" d="M625.804,-264.738C645.457,-264.195 666.355,-263.617 685.696,-263.082"/>
<polygon fill="midnightblue" stroke="midnightblue" points="625.555,-261.244 615.655,-265.019 625.748,-268.241 625.555,-261.244"/>
</g>
<!-- Node3&#45;&gt;Node8 -->
<g id="edge7" class="edge"><title>Node3&#45;&gt;Node8</title>
<path fill="none" stroke="midnightblue" d="M625.691,-281.305C646.391,-284.93 668.479,-288.798 688.679,-292.335"/>
<polygon fill="midnightblue" stroke="midnightblue" points="626.109,-277.825 615.655,-279.548 624.902,-284.72 626.109,-277.825"/>
</g>
<!-- Node4&#45;&gt;Node5 -->
<g id="edge4" class="edge"><title>Node4&#45;&gt;Node5</title>
<path fill="none" stroke="midnightblue" d="M825.964,-272.327C843.413,-275.466 862.482,-278.896 880.386,-282.117"/>
<polygon fill="midnightblue" stroke="midnightblue" points="826.36,-268.842 815.898,-270.516 825.121,-275.731 826.36,-268.842"/>
</g>
<!-- Node6 -->
<g id="node6" class="node"><title>Node6</title>
<g id="a_node6"><a xlink:href="../../d8/db1/classapplication_1_1_wa_tor_cell.html#ad9630281a27495d016b877f1531709a8" target="_top" xlink:title="application.WaTorCell.update\lThisCell">
<polygon fill="white" stroke="black" points="1062,-251 1062,-281 1214,-281 1214,-251 1062,-251"/>
<text text-anchor="start" x="1070" y="-269" font-family="Helvetica,sans-Serif" font-size="10.00">application.WaTorCell.update</text>
<text text-anchor="middle" x="1138" y="-258" font-family="Helvetica,sans-Serif" font-size="10.00">ThisCell</text>
</a>
</g>
</g>
<!-- Node5&#45;&gt;Node6 -->
<g id="edge5" class="edge"><title>Node5&#45;&gt;Node6</title>
<path fill="none" stroke="midnightblue" d="M1035.7,-282.053C1044.42,-280.672 1053.25,-279.271 1061.89,-277.903"/>
<polygon fill="midnightblue" stroke="midnightblue" points="1034.87,-278.641 1025.54,-283.663 1035.96,-285.555 1034.87,-278.641"/>
</g>
<!-- Node7 -->
<g id="node7" class="node"><title>Node7</title>
<g id="a_node7"><a xlink:href="../../d8/db1/classapplication_1_1_wa_tor_cell.html#af362ec2495254143a63af649dd9754db" target="_top" xlink:title="application.WaTorCell.updateCell">
<polygon fill="white" stroke="black" points="1250,-256.5 1250,-275.5 1420,-275.5 1420,-256.5 1250,-256.5"/>
<text text-anchor="middle" x="1335" y="-263.5" font-family="Helvetica,sans-Serif" font-size="10.00">application.WaTorCell.updateCell</text>
</a>
</g>
</g>
<!-- Node6&#45;&gt;Node7 -->
<g id="edge6" class="edge"><title>Node6&#45;&gt;Node7</title>
<path fill="none" stroke="midnightblue" d="M1224.35,-266C1232.81,-266 1241.39,-266 1249.84,-266"/>
<polygon fill="midnightblue" stroke="midnightblue" points="1224.11,-262.5 1214.11,-266 1224.11,-269.5 1224.11,-262.5"/>
</g>
<!-- Node8&#45;&gt;Node5 -->
<g id="edge8" class="edge"><title>Node8&#45;&gt;Node5</title>
<path fill="none" stroke="midnightblue" d="M845.42,-300.639C857.074,-300.023 868.976,-299.393 880.403,-298.788"/>
<polygon fill="midnightblue" stroke="midnightblue" points="845.063,-297.153 835.262,-301.177 845.433,-304.143 845.063,-297.153"/>
</g>
<!-- Node9&#45;&gt;Node10 -->
<g id="edge10" class="edge"><title>Node9&#45;&gt;Node10</title>
<path fill="none" stroke="midnightblue" d="M620.717,-218C639.801,-218 660.324,-218 679.624,-218"/>
<polygon fill="midnightblue" stroke="midnightblue" points="620.582,-214.5 610.582,-218 620.582,-221.5 620.582,-214.5"/>
</g>
<!-- Node11 -->
<g id="node11" class="node"><title>Node11</title>
<g id="a_node11"><a xlink:href="../../d8/db1/classapplication_1_1_wa_tor_cell.html#ae1d4ff7071ac748d11f706f5c519b41d" target="_top" xlink:title="application.WaTorCell.fish\lUpdate">
<polygon fill="white" stroke="black" points="885.5,-222 885.5,-252 1020.5,-252 1020.5,-222 885.5,-222"/>
<text text-anchor="start" x="893.5" y="-240" font-family="Helvetica,sans-Serif" font-size="10.00">application.WaTorCell.fish</text>
<text text-anchor="middle" x="953" y="-229" font-family="Helvetica,sans-Serif" font-size="10.00">Update</text>
</a>
</g>
</g>
<!-- Node10&#45;&gt;Node11 -->
<g id="edge11" class="edge"><title>Node10&#45;&gt;Node11</title>
<path fill="none" stroke="midnightblue" d="M854.259,-227.174C864.732,-228.227 875.259,-229.285 885.324,-230.297"/>
<polygon fill="midnightblue" stroke="midnightblue" points="854.55,-223.686 844.25,-226.168 853.85,-230.651 854.55,-223.686"/>
</g>
<!-- Node11&#45;&gt;Node6 -->
<g id="edge12" class="edge"><title>Node11&#45;&gt;Node6</title>
<path fill="none" stroke="midnightblue" d="M1030.75,-249.163C1041.02,-250.79 1051.54,-252.458 1061.79,-254.081"/>
<polygon fill="midnightblue" stroke="midnightblue" points="1031.01,-245.66 1020.58,-247.552 1029.91,-252.574 1031.01,-245.66"/>
</g>
<!-- Node13 -->
<g id="node13" class="node"><title>Node13</title>
<g id="a_node13"><a xlink:href="../../db/d83/classapplication_1_1_fire_cell.html#a759f695bdea85af76e525599bc4bc5b7" target="_top" xlink:title="application.FireCell.updateCell">
<polygon fill="white" stroke="black" points="463.5,-120.5 463.5,-139.5 622.5,-139.5 622.5,-120.5 463.5,-120.5"/>
<text text-anchor="middle" x="543" y="-127.5" font-family="Helvetica,sans-Serif" font-size="10.00">application.FireCell.updateCell</text>
</a>
</g>
</g>
<!-- Node12&#45;&gt;Node13 -->
<g id="edge14" class="edge"><title>Node12&#45;&gt;Node13</title>
<path fill="none" stroke="midnightblue" d="M365.77,-130C396.32,-130 432.045,-130 463.314,-130"/>
<polygon fill="midnightblue" stroke="midnightblue" points="365.622,-126.5 355.622,-130 365.622,-133.5 365.622,-126.5"/>
</g>
<!-- Node15 -->
<g id="node15" class="node"><title>Node15</title>
<g id="a_node15"><a xlink:href="../../d3/d02/classapplication_1_1_flood_cell.html#a1c4ed73108d5b82eaf481c0014ca2d24" target="_top" xlink:title="application.FloodCell.updateCell">
<polygon fill="white" stroke="black" points="459,-76.5 459,-95.5 627,-95.5 627,-76.5 459,-76.5"/>
<text text-anchor="middle" x="543" y="-83.5" font-family="Helvetica,sans-Serif" font-size="10.00">application.FloodCell.updateCell</text>
</a>
</g>
</g>
<!-- Node14&#45;&gt;Node15 -->
<g id="edge16" class="edge"><title>Node14&#45;&gt;Node15</title>
<path fill="none" stroke="midnightblue" d="M382.277,-86C407.149,-86 434.117,-86 458.688,-86"/>
<polygon fill="midnightblue" stroke="midnightblue" points="382.128,-82.5001 372.128,-86 382.128,-89.5001 382.128,-82.5001"/>
</g>
<!-- Node17 -->
<g id="node17" class="node"><title>Node17</title>
<g id="a_node17"><a xlink:href="../../d4/d72/classapplication_1_1_segregation_cell.html#a359ebe5138c48d00052d2534fba2b3be" target="_top" xlink:title="application.SegregationCell.updateCell">
<polygon fill="white" stroke="black" points="442.5,-38.5 442.5,-57.5 643.5,-57.5 643.5,-38.5 442.5,-38.5"/>
<text text-anchor="middle" x="543" y="-45.5" font-family="Helvetica,sans-Serif" font-size="10.00">application.SegregationCell.updateCell</text>
</a>
</g>
</g>
<!-- Node16&#45;&gt;Node17 -->
<g id="edge20" class="edge"><title>Node16&#45;&gt;Node17</title>
<path fill="none" stroke="midnightblue" d="M415.712,-48C424.624,-48 433.552,-48 442.311,-48"/>
<polygon fill="midnightblue" stroke="midnightblue" points="415.667,-44.5001 405.667,-48 415.667,-51.5001 415.667,-44.5001"/>
</g>
</g>
</svg>
        <g id="navigator" transform="translate(0 0)" fill="#404254">
                <rect fill="#f2f5e9" fill-opacity="0.5" stroke="#606060" stroke-width=".5" x="0" y="0" width="60" height="60"/>
                <use id="zoomplus" xlink:href="#zoomPlus" x="17" y="9" onmousedown="handleZoom(evt,'in')"/>
                <use id="zoomminus" xlink:href="#zoomMin" x="42" y="9" onmousedown="handleZoom(evt,'out')"/>
                <use id="reset" xlink:href="#resetDef" x="30" y="36" onmousedown="handleReset()"/>
                <g id="arrowUp" xlink:href="#dirArrow" transform="translate(30 24)" onmousedown="handlePan(0,-1)">
                  <use xlink:href="#rim" fill="#404040">
                        <set attributeName="fill" to="#808080" begin="arrowUp.mouseover" end="arrowUp.mouseout"/>
                  </use>
                  <path fill="none" stroke="white" stroke-width="1.5" d="M0,-3.0v7 M-2.5,-0.5L0,-3.0L2.5,-0.5"/>
                </g>
                <g id="arrowRight" xlink:href="#dirArrow" transform="rotate(90) translate(36 -43)" onmousedown="handlePan(1,0)">
                  <use xlink:href="#rim" fill="#404040">
                        <set attributeName="fill" to="#808080" begin="arrowRight.mouseover" end="arrowRight.mouseout"/>
                  </use>
                  <path fill="none" stroke="white" stroke-width="1.5" d="M0,-3.0v7 M-2.5,-0.5L0,-3.0L2.5,-0.5"/>
                </g>
                <g id="arrowDown" xlink:href="#dirArrow" transform="rotate(180) translate(-30 -48)" onmousedown="handlePan(0,1)">
                  <use xlink:href="#rim" fill="#404040">
                        <set attributeName="fill" to="#808080" begin="arrowDown.mouseover" end="arrowDown.mouseout"/>
                  </use>
                  <path fill="none" stroke="white" stroke-width="1.5" d="M0,-3.0v7 M-2.5,-0.5L0,-3.0L2.5,-0.5"/>
                </g>
                <g id="arrowLeft" xlink:href="#dirArrow" transform="rotate(270) translate(-36 17)" onmousedown="handlePan(-1,0)">
                  <use xlink:href="#rim" fill="#404040">
                        <set attributeName="fill" to="#808080" begin="arrowLeft.mouseover" end="arrowLeft.mouseout"/>
                  </use>
                  <path fill="none" stroke="white" stroke-width="1.5" d="M0,-3.0v7 M-2.5,-0.5L0,-3.0L2.5,-0.5"/>
                </g>
        </g>
        <svg viewBox="0 0 15 15" width="100%" height="30px" preserveAspectRatio="xMaxYMin meet">
         <g id="arrow_out" transform="scale(0.3 0.3)">
          <a xlink:href="classapplication_1_1_cell_adee02d15440cb198751d122a9d7a5f10_icgraph_org.svg" target="_base">
           <rect id="button" ry="5" rx="5" y="6" x="6" height="38" width="38"
                fill="#f2f5e9" fill-opacity="0.5" stroke="#606060" stroke-width="1.0"/>
           <path id="arrow"
             d="M 11.500037,31.436501 C 11.940474,20.09759 22.043105,11.32322 32.158766,21.979434 L 37.068811,17.246167 C 37.068811,17.246167 37.088388,32 37.088388,32 L 22.160133,31.978069 C 22.160133,31.978069 26.997745,27.140456 26.997745,27.140456 C 18.528582,18.264221 13.291696,25.230495 11.500037,31.436501 z"
             style="fill:#404040;"/>
          </a>
         </g>
        </svg>
</svg>
