<?xml version="1.0" encoding="UTF-8" standalone="no"?>
<!DOCTYPE svg PUBLIC "-//W3C//DTD SVG 1.1//EN"
 "http://www.w3.org/Graphics/SVG/1.1/DTD/svg11.dtd">
<!-- Generated by graphviz version 2.36.0 (20140111.2315)
 -->
<!-- Title: application.FloodCell.floodSelf Pages: 1 -->
<svg width="346pt" height="87pt"
 viewBox="0.00 0.00 346.00 87.00" xmlns="http://www.w3.org/2000/svg" xmlns:xlink="http://www.w3.org/1999/xlink">
<g id="graph0" class="graph" transform="scale(1 1) rotate(0) translate(4 83)">
<title>application.FloodCell.floodSelf</title>
<polygon fill="white" stroke="none" points="-4,4 -4,-83 342,-83 342,4 -4,4"/>
<!-- Node1 -->
<g id="node1" class="node"><title>Node1</title>
<polygon fill="#bfbfbf" stroke="black" points="0,-29.5 0,-48.5 158,-48.5 158,-29.5 0,-29.5"/>
<text text-anchor="middle" x="79" y="-36.5" font-family="Helvetica,sans-Serif" font-size="10.00">application.FloodCell.floodSelf</text>
</g>
<!-- Node2 -->
<g id="node2" class="node"><title>Node2</title>
<g id="a_node2"><a xlink:href="../../d7/dff/classapplication_1_1_cell.html#adee02d15440cb198751d122a9d7a5f10" target="_top" xlink:title="application.Cell.findWanted\lNeighbors">
<polygon fill="white" stroke="black" points="194,-49 194,-79 338,-79 338,-49 194,-49"/>
<text text-anchor="start" x="202" y="-67" font-family="Helvetica,sans-Serif" font-size="10.00">application.Cell.findWanted</text>
<text text-anchor="middle" x="266" y="-56" font-family="Helvetica,sans-Serif" font-size="10.00">Neighbors</text>
</a>
</g>
</g>
<!-- Node1&#45;&gt;Node2 -->
<g id="edge1" class="edge"><title>Node1&#45;&gt;Node2</title>
<path fill="none" stroke="midnightblue" d="M150.468,-48.5227C161.335,-49.9912 172.633,-51.5179 183.713,-53.0152"/>
<polygon fill="midnightblue" stroke="midnightblue" points="183.429,-56.5087 193.808,-54.3795 184.367,-49.5717 183.429,-56.5087"/>
</g>
<!-- Node3 -->
<g id="node3" class="node"><title>Node3</title>
<g id="a_node3"><a xlink:href="../../d3/d02/classapplication_1_1_flood_cell.html#a9b56e367e841f764834a05dd62fb24e0" target="_top" xlink:title="application.FloodCell.set\lUpdatedState">
<polygon fill="white" stroke="black" points="200,-0 200,-30 332,-30 332,-0 200,-0"/>
<text text-anchor="start" x="208" y="-18" font-family="Helvetica,sans-Serif" font-size="10.00">application.FloodCell.set</text>
<text text-anchor="middle" x="266" y="-7" font-family="Helvetica,sans-Serif" font-size="10.00">UpdatedState</text>
</a>
</g>
</g>
<!-- Node1&#45;&gt;Node3 -->
<g id="edge2" class="edge"><title>Node1&#45;&gt;Node3</title>
<path fill="none" stroke="midnightblue" d="M153.383,-29.4801C165.362,-27.926 177.789,-26.3138 189.811,-24.7542"/>
<polygon fill="midnightblue" stroke="midnightblue" points="190.33,-28.2164 199.796,-23.4589 189.429,-21.2746 190.33,-28.2164"/>
</g>
</g>
</svg>
