<?xml version="1.0" encoding="UTF-8" standalone="no"?>
<!DOCTYPE svg PUBLIC "-//W3C//DTD SVG 1.1//EN"
 "http://www.w3.org/Graphics/SVG/1.1/DTD/svg11.dtd">
<!-- Generated by graphviz version 2.36.0 (20140111.2315)
 -->
<!-- Title: application.FloodCell.setUpdatedState Pages: 1 -->
<svg width="538pt" height="38pt"
 viewBox="0.00 0.00 538.00 38.00" xmlns="http://www.w3.org/2000/svg" xmlns:xlink="http://www.w3.org/1999/xlink">
<g id="graph0" class="graph" transform="scale(1 1) rotate(0) translate(4 34)">
<title>application.FloodCell.setUpdatedState</title>
<polygon fill="white" stroke="none" points="-4,4 -4,-34 534,-34 534,4 -4,4"/>
<!-- Node1 -->
<g id="node1" class="node"><title>Node1</title>
<polygon fill="#bfbfbf" stroke="black" points="0,-0 0,-30 132,-30 132,-0 0,-0"/>
<text text-anchor="start" x="8" y="-18" font-family="Helvetica,sans-Serif" font-size="10.00">application.FloodCell.set</text>
<text text-anchor="middle" x="66" y="-7" font-family="Helvetica,sans-Serif" font-size="10.00">UpdatedState</text>
</g>
<!-- Node2 -->
<g id="node2" class="node"><title>Node2</title>
<g id="a_node2"><a xlink:href="../../d3/d02/classapplication_1_1_flood_cell.html#ac7e1cdf4cf3311005e48bca943526dd9" target="_top" xlink:title="application.FloodCell.floodSelf">
<polygon fill="white" stroke="black" points="168,-5.5 168,-24.5 326,-24.5 326,-5.5 168,-5.5"/>
<text text-anchor="middle" x="247" y="-12.5" font-family="Helvetica,sans-Serif" font-size="10.00">application.FloodCell.floodSelf</text>
</a>
</g>
</g>
<!-- Node1&#45;&gt;Node2 -->
<g id="edge1" class="edge"><title>Node1&#45;&gt;Node2</title>
<path fill="none" stroke="midnightblue" d="M142.312,-15C150.748,-15 159.355,-15 167.826,-15"/>
<polygon fill="midnightblue" stroke="midnightblue" points="142.13,-11.5001 132.129,-15 142.129,-18.5001 142.13,-11.5001"/>
</g>
<!-- Node3 -->
<g id="node3" class="node"><title>Node3</title>
<g id="a_node3"><a xlink:href="../../d3/d02/classapplication_1_1_flood_cell.html#a1c4ed73108d5b82eaf481c0014ca2d24" target="_top" xlink:title="application.FloodCell.updateCell">
<polygon fill="white" stroke="black" points="362,-5.5 362,-24.5 530,-24.5 530,-5.5 362,-5.5"/>
<text text-anchor="middle" x="446" y="-12.5" font-family="Helvetica,sans-Serif" font-size="10.00">application.FloodCell.updateCell</text>
</a>
</g>
</g>
<!-- Node2&#45;&gt;Node3 -->
<g id="edge2" class="edge"><title>Node2&#45;&gt;Node3</title>
<path fill="none" stroke="midnightblue" d="M336.38,-15C344.828,-15 353.376,-15 361.773,-15"/>
<polygon fill="midnightblue" stroke="midnightblue" points="336.143,-11.5001 326.143,-15 336.143,-18.5001 336.143,-11.5001"/>
</g>
</g>
</svg>
