<?xml version="1.0" encoding="UTF-8" standalone="no"?>
<!DOCTYPE svg PUBLIC "-//W3C//DTD SVG 1.1//EN"
 "http://www.w3.org/Graphics/SVG/1.1/DTD/svg11.dtd">
<!-- Generated by graphviz version 2.36.0 (20140111.2315)
 -->
<!-- Title: application.FloodCell.updateCell Pages: 1 -->
<svg width="550pt" height="87pt"
 viewBox="0.00 0.00 550.00 87.00" xmlns="http://www.w3.org/2000/svg" xmlns:xlink="http://www.w3.org/1999/xlink">
<g id="graph0" class="graph" transform="scale(1 1) rotate(0) translate(4 83)">
<title>application.FloodCell.updateCell</title>
<polygon fill="white" stroke="none" points="-4,4 -4,-83 546,-83 546,4 -4,4"/>
<!-- Node1 -->
<g id="node1" class="node"><title>Node1</title>
<polygon fill="#bfbfbf" stroke="black" points="0,-29.5 0,-48.5 168,-48.5 168,-29.5 0,-29.5"/>
<text text-anchor="middle" x="84" y="-36.5" font-family="Helvetica,sans-Serif" font-size="10.00">application.FloodCell.updateCell</text>
</g>
<!-- Node2 -->
<g id="node2" class="node"><title>Node2</title>
<g id="a_node2"><a xlink:href="../../d3/d02/classapplication_1_1_flood_cell.html#ac7e1cdf4cf3311005e48bca943526dd9" target="_top" xlink:title="application.FloodCell.floodSelf">
<polygon fill="white" stroke="black" points="204,-29.5 204,-48.5 362,-48.5 362,-29.5 204,-29.5"/>
<text text-anchor="middle" x="283" y="-36.5" font-family="Helvetica,sans-Serif" font-size="10.00">application.FloodCell.floodSelf</text>
</a>
</g>
</g>
<!-- Node1&#45;&gt;Node2 -->
<g id="edge1" class="edge"><title>Node1&#45;&gt;Node2</title>
<path fill="none" stroke="midnightblue" d="M168.26,-39C176.622,-39 185.133,-39 193.546,-39"/>
<polygon fill="midnightblue" stroke="midnightblue" points="193.742,-42.5001 203.742,-39 193.742,-35.5001 193.742,-42.5001"/>
</g>
<!-- Node3 -->
<g id="node3" class="node"><title>Node3</title>
<g id="a_node3"><a xlink:href="../../d7/dff/classapplication_1_1_cell.html#adee02d15440cb198751d122a9d7a5f10" target="_top" xlink:title="application.Cell.findWanted\lNeighbors">
<polygon fill="white" stroke="black" points="398,-49 398,-79 542,-79 542,-49 398,-49"/>
<text text-anchor="start" x="406" y="-67" font-family="Helvetica,sans-Serif" font-size="10.00">application.Cell.findWanted</text>
<text text-anchor="middle" x="470" y="-56" font-family="Helvetica,sans-Serif" font-size="10.00">Neighbors</text>
</a>
</g>
</g>
<!-- Node2&#45;&gt;Node3 -->
<g id="edge2" class="edge"><title>Node2&#45;&gt;Node3</title>
<path fill="none" stroke="midnightblue" d="M354.468,-48.5227C365.335,-49.9912 376.633,-51.5179 387.713,-53.0152"/>
<polygon fill="midnightblue" stroke="midnightblue" points="387.429,-56.5087 397.808,-54.3795 388.367,-49.5717 387.429,-56.5087"/>
</g>
<!-- Node4 -->
<g id="node4" class="node"><title>Node4</title>
<g id="a_node4"><a xlink:href="../../d3/d02/classapplication_1_1_flood_cell.html#a9b56e367e841f764834a05dd62fb24e0" target="_top" xlink:title="application.FloodCell.set\lUpdatedState">
<polygon fill="white" stroke="black" points="404,-0 404,-30 536,-30 536,-0 404,-0"/>
<text text-anchor="start" x="412" y="-18" font-family="Helvetica,sans-Serif" font-size="10.00">application.FloodCell.set</text>
<text text-anchor="middle" x="470" y="-7" font-family="Helvetica,sans-Serif" font-size="10.00">UpdatedState</text>
</a>
</g>
</g>
<!-- Node2&#45;&gt;Node4 -->
<g id="edge3" class="edge"><title>Node2&#45;&gt;Node4</title>
<path fill="none" stroke="midnightblue" d="M357.383,-29.4801C369.362,-27.926 381.789,-26.3138 393.811,-24.7542"/>
<polygon fill="midnightblue" stroke="midnightblue" points="394.33,-28.2164 403.796,-23.4589 393.429,-21.2746 394.33,-28.2164"/>
</g>
</g>
</svg>
