<?xml version="1.0" encoding="UTF-8" standalone="no"?>
<!DOCTYPE svg PUBLIC "-//W3C//DTD SVG 1.1//EN"
 "http://www.w3.org/Graphics/SVG/1.1/DTD/svg11.dtd">
<!-- Generated by graphviz version 2.36.0 (20140111.2315)
 -->
<!-- Title: application.FireCell.updateCell Pages: 1 -->
<svg width="536pt" height="136pt"
 viewBox="0.00 0.00 536.00 136.00" xmlns="http://www.w3.org/2000/svg" xmlns:xlink="http://www.w3.org/1999/xlink">
<g id="graph0" class="graph" transform="scale(1 1) rotate(0) translate(4 132)">
<title>application.FireCell.updateCell</title>
<polygon fill="white" stroke="none" points="-4,4 -4,-132 532,-132 532,4 -4,4"/>
<!-- Node1 -->
<g id="node1" class="node"><title>Node1</title>
<polygon fill="#bfbfbf" stroke="black" points="0.5,-54.5 0.5,-73.5 159.5,-73.5 159.5,-54.5 0.5,-54.5"/>
<text text-anchor="middle" x="80" y="-61.5" font-family="Helvetica,sans-Serif" font-size="10.00">application.FireCell.updateCell</text>
</g>
<!-- Node2 -->
<g id="node2" class="node"><title>Node2</title>
<g id="a_node2"><a xlink:href="../../db/d83/classapplication_1_1_fire_cell.html#a4bfef7b366a6906b55015f6c042a906f" target="_top" xlink:title="application.FireCell.calculate\lBurnChance">
<polygon fill="white" stroke="black" points="196.5,-98 196.5,-128 347.5,-128 347.5,-98 196.5,-98"/>
<text text-anchor="start" x="204.5" y="-116" font-family="Helvetica,sans-Serif" font-size="10.00">application.FireCell.calculate</text>
<text text-anchor="middle" x="272" y="-105" font-family="Helvetica,sans-Serif" font-size="10.00">BurnChance</text>
</a>
</g>
</g>
<!-- Node1&#45;&gt;Node2 -->
<g id="edge1" class="edge"><title>Node1&#45;&gt;Node2</title>
<path fill="none" stroke="midnightblue" d="M118.085,-73.564C142.14,-79.7676 174.205,-88.0371 202.759,-95.401"/>
<polygon fill="midnightblue" stroke="midnightblue" points="202.136,-98.8548 212.693,-97.963 203.884,-92.0766 202.136,-98.8548"/>
</g>
<!-- Node3 -->
<g id="node3" class="node"><title>Node3</title>
<g id="a_node3"><a xlink:href="../../db/d83/classapplication_1_1_fire_cell.html#ab287da674c1d521772a61c1a761c9320" target="_top" xlink:title="application.FireCell.find\lFireNeighbors">
<polygon fill="white" stroke="black" points="209.5,-49 209.5,-79 334.5,-79 334.5,-49 209.5,-49"/>
<text text-anchor="start" x="217.5" y="-67" font-family="Helvetica,sans-Serif" font-size="10.00">application.FireCell.find</text>
<text text-anchor="middle" x="272" y="-56" font-family="Helvetica,sans-Serif" font-size="10.00">FireNeighbors</text>
</a>
</g>
</g>
<!-- Node1&#45;&gt;Node3 -->
<g id="edge2" class="edge"><title>Node1&#45;&gt;Node3</title>
<path fill="none" stroke="midnightblue" d="M159.652,-64C172.702,-64 186.176,-64 199.05,-64"/>
<polygon fill="midnightblue" stroke="midnightblue" points="199.225,-67.5001 209.225,-64 199.225,-60.5001 199.225,-67.5001"/>
</g>
<!-- Node5 -->
<g id="node5" class="node"><title>Node5</title>
<g id="a_node5"><a xlink:href="../../db/d83/classapplication_1_1_fire_cell.html#af58519b02439a8680f5974cd8c7dbfe2" target="_top" xlink:title="application.FireCell.update\lState">
<polygon fill="white" stroke="black" points="201,-0 201,-30 343,-30 343,-0 201,-0"/>
<text text-anchor="start" x="209" y="-18" font-family="Helvetica,sans-Serif" font-size="10.00">application.FireCell.update</text>
<text text-anchor="middle" x="272" y="-7" font-family="Helvetica,sans-Serif" font-size="10.00">State</text>
</a>
</g>
</g>
<!-- Node1&#45;&gt;Node5 -->
<g id="edge4" class="edge"><title>Node1&#45;&gt;Node5</title>
<path fill="none" stroke="midnightblue" d="M118.085,-54.436C142.14,-48.2324 174.205,-39.9629 202.759,-32.599"/>
<polygon fill="midnightblue" stroke="midnightblue" points="203.884,-35.9234 212.693,-30.037 202.136,-29.1452 203.884,-35.9234"/>
</g>
<!-- Node4 -->
<g id="node4" class="node"><title>Node4</title>
<g id="a_node4"><a xlink:href="../../d7/dff/classapplication_1_1_cell.html#adee02d15440cb198751d122a9d7a5f10" target="_top" xlink:title="application.Cell.findWanted\lNeighbors">
<polygon fill="white" stroke="black" points="384,-49 384,-79 528,-79 528,-49 384,-49"/>
<text text-anchor="start" x="392" y="-67" font-family="Helvetica,sans-Serif" font-size="10.00">application.Cell.findWanted</text>
<text text-anchor="middle" x="456" y="-56" font-family="Helvetica,sans-Serif" font-size="10.00">Neighbors</text>
</a>
</g>
</g>
<!-- Node3&#45;&gt;Node4 -->
<g id="edge3" class="edge"><title>Node3&#45;&gt;Node4</title>
<path fill="none" stroke="midnightblue" d="M334.617,-64C347.067,-64 360.339,-64 373.352,-64"/>
<polygon fill="midnightblue" stroke="midnightblue" points="373.714,-67.5001 383.713,-64 373.713,-60.5001 373.714,-67.5001"/>
</g>
</g>
</svg>
