<?xml version="1.0" encoding="UTF-8" standalone="no"?>
<!DOCTYPE svg PUBLIC "-//W3C//DTD SVG 1.1//EN"
 "http://www.w3.org/Graphics/SVG/1.1/DTD/svg11.dtd">
<!-- Generated by graphviz version 2.36.0 (20140111.2315)
 -->
<!-- Title: application.AntCell2.antForage Pages: 1 -->
<svg width="714pt" height="38pt"
 viewBox="0.00 0.00 714.00 38.00" xmlns="http://www.w3.org/2000/svg" xmlns:xlink="http://www.w3.org/1999/xlink">
<g id="graph0" class="graph" transform="scale(1 1) rotate(0) translate(4 34)">
<title>application.AntCell2.antForage</title>
<polygon fill="white" stroke="none" points="-4,4 -4,-34 710,-34 710,4 -4,4"/>
<!-- Node1 -->
<g id="node1" class="node"><title>Node1</title>
<polygon fill="#bfbfbf" stroke="black" points="0,-0 0,-30 130,-30 130,-0 0,-0"/>
<text text-anchor="start" x="8" y="-18" font-family="Helvetica,sans-Serif" font-size="10.00">application.AntCell2.ant</text>
<text text-anchor="middle" x="65" y="-7" font-family="Helvetica,sans-Serif" font-size="10.00">Forage</text>
</g>
<!-- Node2 -->
<g id="node2" class="node"><title>Node2</title>
<g id="a_node2"><a xlink:href="../../d9/ddf/classapplication_1_1_ant_cell2.html#a50e68e98f7f9eae3a91d4bc8afb613ae" target="_top" xlink:title="application.AntCell2.goHome">
<polygon fill="white" stroke="black" points="166.5,-5.5 166.5,-24.5 321.5,-24.5 321.5,-5.5 166.5,-5.5"/>
<text text-anchor="middle" x="244" y="-12.5" font-family="Helvetica,sans-Serif" font-size="10.00">application.AntCell2.goHome</text>
</a>
</g>
</g>
<!-- Node1&#45;&gt;Node2 -->
<g id="edge1" class="edge"><title>Node1&#45;&gt;Node2</title>
<path fill="none" stroke="midnightblue" d="M130.151,-15C138.613,-15 147.397,-15 156.16,-15"/>
<polygon fill="midnightblue" stroke="midnightblue" points="156.415,-18.5001 166.415,-15 156.415,-11.5001 156.415,-18.5001"/>
</g>
<!-- Node3 -->
<g id="node3" class="node"><title>Node3</title>
<g id="a_node3"><a xlink:href="../../d7/d2c/namespaceapplication.html#aeb5d97b2aef40bf433a297e7af2891b1" target="_top" xlink:title="application.homeMoveTo">
<polygon fill="white" stroke="black" points="358,-5.5 358,-24.5 492,-24.5 492,-5.5 358,-5.5"/>
<text text-anchor="middle" x="425" y="-12.5" font-family="Helvetica,sans-Serif" font-size="10.00">application.homeMoveTo</text>
</a>
</g>
</g>
<!-- Node2&#45;&gt;Node3 -->
<g id="edge2" class="edge"><title>Node2&#45;&gt;Node3</title>
<path fill="none" stroke="midnightblue" d="M321.691,-15C330.353,-15 339.178,-15 347.833,-15"/>
<polygon fill="midnightblue" stroke="midnightblue" points="347.895,-18.5001 357.895,-15 347.895,-11.5001 347.895,-18.5001"/>
</g>
<!-- Node4 -->
<g id="node4" class="node"><title>Node4</title>
<g id="a_node4"><a xlink:href="../../d7/d2c/namespaceapplication.html#a1268c45d22827bf3daedac240d0e8c8a" target="_top" xlink:title="application.dropHomePheromone">
<polygon fill="white" stroke="black" points="528,-5.5 528,-24.5 706,-24.5 706,-5.5 528,-5.5"/>
<text text-anchor="middle" x="617" y="-12.5" font-family="Helvetica,sans-Serif" font-size="10.00">application.dropHomePheromone</text>
</a>
</g>
</g>
<!-- Node3&#45;&gt;Node4 -->
<g id="edge3" class="edge"><title>Node3&#45;&gt;Node4</title>
<path fill="none" stroke="midnightblue" d="M492.186,-15C500.499,-15 509.138,-15 517.812,-15"/>
<polygon fill="midnightblue" stroke="midnightblue" points="517.994,-18.5001 527.994,-15 517.994,-11.5001 517.994,-18.5001"/>
</g>
</g>
</svg>
