<?xml version="1.0" encoding="UTF-8" standalone="no"?>
<!DOCTYPE svg PUBLIC "-//W3C//DTD SVG 1.1//EN"
 "http://www.w3.org/Graphics/SVG/1.1/DTD/svg11.dtd">
<!-- Generated by graphviz version 2.36.0 (20140111.2315)
 -->
<!-- Title: application.AntCell2.goHome Pages: 1 -->
<svg width="548pt" height="28pt"
 viewBox="0.00 0.00 548.00 28.00" xmlns="http://www.w3.org/2000/svg" xmlns:xlink="http://www.w3.org/1999/xlink">
<g id="graph0" class="graph" transform="scale(1 1) rotate(0) translate(4 24)">
<title>application.AntCell2.goHome</title>
<polygon fill="white" stroke="none" points="-4,4 -4,-24 544,-24 544,4 -4,4"/>
<!-- Node1 -->
<g id="node1" class="node"><title>Node1</title>
<polygon fill="#bfbfbf" stroke="black" points="0.5,-0.5 0.5,-19.5 155.5,-19.5 155.5,-0.5 0.5,-0.5"/>
<text text-anchor="middle" x="78" y="-7.5" font-family="Helvetica,sans-Serif" font-size="10.00">application.AntCell2.goHome</text>
</g>
<!-- Node2 -->
<g id="node2" class="node"><title>Node2</title>
<g id="a_node2"><a xlink:href="../../d7/d2c/namespaceapplication.html#aeb5d97b2aef40bf433a297e7af2891b1" target="_top" xlink:title="application.homeMoveTo">
<polygon fill="white" stroke="black" points="192,-0.5 192,-19.5 326,-19.5 326,-0.5 192,-0.5"/>
<text text-anchor="middle" x="259" y="-7.5" font-family="Helvetica,sans-Serif" font-size="10.00">application.homeMoveTo</text>
</a>
</g>
</g>
<!-- Node1&#45;&gt;Node2 -->
<g id="edge1" class="edge"><title>Node1&#45;&gt;Node2</title>
<path fill="none" stroke="midnightblue" d="M155.691,-10C164.353,-10 173.178,-10 181.833,-10"/>
<polygon fill="midnightblue" stroke="midnightblue" points="181.895,-13.5001 191.895,-10 181.895,-6.5001 181.895,-13.5001"/>
</g>
<!-- Node3 -->
<g id="node3" class="node"><title>Node3</title>
<g id="a_node3"><a xlink:href="../../d7/d2c/namespaceapplication.html#a1268c45d22827bf3daedac240d0e8c8a" target="_top" xlink:title="application.dropHomePheromone">
<polygon fill="white" stroke="black" points="362,-0.5 362,-19.5 540,-19.5 540,-0.5 362,-0.5"/>
<text text-anchor="middle" x="451" y="-7.5" font-family="Helvetica,sans-Serif" font-size="10.00">application.dropHomePheromone</text>
</a>
</g>
</g>
<!-- Node2&#45;&gt;Node3 -->
<g id="edge2" class="edge"><title>Node2&#45;&gt;Node3</title>
<path fill="none" stroke="midnightblue" d="M326.186,-10C334.499,-10 343.138,-10 351.812,-10"/>
<polygon fill="midnightblue" stroke="midnightblue" points="351.994,-13.5001 361.994,-10 351.994,-6.5001 351.994,-13.5001"/>
</g>
</g>
</svg>
