<?xml version="1.0" encoding="UTF-8" standalone="no"?>
<!DOCTYPE svg PUBLIC "-//W3C//DTD SVG 1.1//EN"
 "http://www.w3.org/Graphics/SVG/1.1/DTD/svg11.dtd">
<!-- Generated by graphviz version 2.36.0 (20140111.2315)
 -->
<!-- Title: application.dropHomePheromone Pages: 1 -->
<svg width="714pt" height="38pt"
 viewBox="0.00 0.00 714.00 38.00" xmlns="http://www.w3.org/2000/svg" xmlns:xlink="http://www.w3.org/1999/xlink">
<g id="graph0" class="graph" transform="scale(1 1) rotate(0) translate(4 34)">
<title>application.dropHomePheromone</title>
<polygon fill="white" stroke="none" points="-4,4 -4,-34 710,-34 710,4 -4,4"/>
<!-- Node1 -->
<g id="node1" class="node"><title>Node1</title>
<polygon fill="#bfbfbf" stroke="black" points="0,-5.5 0,-24.5 178,-24.5 178,-5.5 0,-5.5"/>
<text text-anchor="middle" x="89" y="-12.5" font-family="Helvetica,sans-Serif" font-size="10.00">application.dropHomePheromone</text>
</g>
<!-- Node2 -->
<g id="node2" class="node"><title>Node2</title>
<g id="a_node2"><a xlink:href="../../d7/d2c/namespaceapplication.html#aeb5d97b2aef40bf433a297e7af2891b1" target="_top" xlink:title="application.homeMoveTo">
<polygon fill="white" stroke="black" points="214,-5.5 214,-24.5 348,-24.5 348,-5.5 214,-5.5"/>
<text text-anchor="middle" x="281" y="-12.5" font-family="Helvetica,sans-Serif" font-size="10.00">application.homeMoveTo</text>
</a>
</g>
</g>
<!-- Node1&#45;&gt;Node2 -->
<g id="edge1" class="edge"><title>Node1&#45;&gt;Node2</title>
<path fill="none" stroke="midnightblue" d="M188.222,-15C196.89,-15 205.521,-15 213.829,-15"/>
<polygon fill="midnightblue" stroke="midnightblue" points="188.048,-11.5001 178.048,-15 188.047,-18.5001 188.048,-11.5001"/>
</g>
<!-- Node3 -->
<g id="node3" class="node"><title>Node3</title>
<g id="a_node3"><a xlink:href="../../d9/ddf/classapplication_1_1_ant_cell2.html#a50e68e98f7f9eae3a91d4bc8afb613ae" target="_top" xlink:title="application.AntCell2.goHome">
<polygon fill="white" stroke="black" points="384.5,-5.5 384.5,-24.5 539.5,-24.5 539.5,-5.5 384.5,-5.5"/>
<text text-anchor="middle" x="462" y="-12.5" font-family="Helvetica,sans-Serif" font-size="10.00">application.AntCell2.goHome</text>
</a>
</g>
</g>
<!-- Node2&#45;&gt;Node3 -->
<g id="edge2" class="edge"><title>Node2&#45;&gt;Node3</title>
<path fill="none" stroke="midnightblue" d="M358.177,-15C366.807,-15 375.605,-15 384.242,-15"/>
<polygon fill="midnightblue" stroke="midnightblue" points="358.144,-11.5001 348.144,-15 358.144,-18.5001 358.144,-11.5001"/>
</g>
<!-- Node4 -->
<g id="node4" class="node"><title>Node4</title>
<g id="a_node4"><a xlink:href="../../d9/ddf/classapplication_1_1_ant_cell2.html#af44e7ddc417d0bd60bb78c87fd8351a9" target="_top" xlink:title="application.AntCell2.ant\lForage">
<polygon fill="white" stroke="black" points="576,-0 576,-30 706,-30 706,-0 576,-0"/>
<text text-anchor="start" x="584" y="-18" font-family="Helvetica,sans-Serif" font-size="10.00">application.AntCell2.ant</text>
<text text-anchor="middle" x="641" y="-7" font-family="Helvetica,sans-Serif" font-size="10.00">Forage</text>
</a>
</g>
</g>
<!-- Node3&#45;&gt;Node4 -->
<g id="edge3" class="edge"><title>Node3&#45;&gt;Node4</title>
<path fill="none" stroke="midnightblue" d="M549.825,-15C558.557,-15 567.311,-15 575.746,-15"/>
<polygon fill="midnightblue" stroke="midnightblue" points="549.605,-11.5001 539.605,-15 549.605,-18.5001 549.605,-11.5001"/>
</g>
</g>
</svg>
