<?xml version="1.0" encoding="UTF-8" standalone="no"?>
<!DOCTYPE svg PUBLIC "-//W3C//DTD SVG 1.1//EN"
 "http://www.w3.org/Graphics/SVG/1.1/DTD/svg11.dtd">
<!-- Generated by graphviz version 2.36.0 (20140111.2315)
 -->
<!-- Title: application.homeMoveTo Pages: 1 -->
<svg width="500pt" height="38pt"
 viewBox="0.00 0.00 500.00 38.00" xmlns="http://www.w3.org/2000/svg" xmlns:xlink="http://www.w3.org/1999/xlink">
<g id="graph0" class="graph" transform="scale(1 1) rotate(0) translate(4 34)">
<title>application.homeMoveTo</title>
<polygon fill="white" stroke="none" points="-4,4 -4,-34 496,-34 496,4 -4,4"/>
<!-- Node1 -->
<g id="node1" class="node"><title>Node1</title>
<polygon fill="#bfbfbf" stroke="black" points="0,-5.5 0,-24.5 134,-24.5 134,-5.5 0,-5.5"/>
<text text-anchor="middle" x="67" y="-12.5" font-family="Helvetica,sans-Serif" font-size="10.00">application.homeMoveTo</text>
</g>
<!-- Node2 -->
<g id="node2" class="node"><title>Node2</title>
<g id="a_node2"><a xlink:href="../../d9/ddf/classapplication_1_1_ant_cell2.html#a50e68e98f7f9eae3a91d4bc8afb613ae" target="_top" xlink:title="application.AntCell2.goHome">
<polygon fill="white" stroke="black" points="170.5,-5.5 170.5,-24.5 325.5,-24.5 325.5,-5.5 170.5,-5.5"/>
<text text-anchor="middle" x="248" y="-12.5" font-family="Helvetica,sans-Serif" font-size="10.00">application.AntCell2.goHome</text>
</a>
</g>
</g>
<!-- Node1&#45;&gt;Node2 -->
<g id="edge1" class="edge"><title>Node1&#45;&gt;Node2</title>
<path fill="none" stroke="midnightblue" d="M144.177,-15C152.807,-15 161.605,-15 170.242,-15"/>
<polygon fill="midnightblue" stroke="midnightblue" points="144.144,-11.5001 134.144,-15 144.144,-18.5001 144.144,-11.5001"/>
</g>
<!-- Node3 -->
<g id="node3" class="node"><title>Node3</title>
<g id="a_node3"><a xlink:href="../../d9/ddf/classapplication_1_1_ant_cell2.html#af44e7ddc417d0bd60bb78c87fd8351a9" target="_top" xlink:title="application.AntCell2.ant\lForage">
<polygon fill="white" stroke="black" points="362,-0 362,-30 492,-30 492,-0 362,-0"/>
<text text-anchor="start" x="370" y="-18" font-family="Helvetica,sans-Serif" font-size="10.00">application.AntCell2.ant</text>
<text text-anchor="middle" x="427" y="-7" font-family="Helvetica,sans-Serif" font-size="10.00">Forage</text>
</a>
</g>
</g>
<!-- Node2&#45;&gt;Node3 -->
<g id="edge2" class="edge"><title>Node2&#45;&gt;Node3</title>
<path fill="none" stroke="midnightblue" d="M335.825,-15C344.557,-15 353.311,-15 361.746,-15"/>
<polygon fill="midnightblue" stroke="midnightblue" points="335.605,-11.5001 325.605,-15 335.605,-18.5001 335.605,-11.5001"/>
</g>
</g>
</svg>
