<?xml version="1.0" encoding="UTF-8" standalone="no"?>
<!DOCTYPE svg PUBLIC "-//W3C//DTD SVG 1.1//EN"
 "http://www.w3.org/Graphics/SVG/1.1/DTD/svg11.dtd">
<!-- Generated by graphviz version 2.36.0 (20140111.2315)
 -->
<!-- Title: application.FloodCell Pages: 1 -->
<svg width="402pt" height="186pt"
 viewBox="0.00 0.00 402.00 186.00" xmlns="http://www.w3.org/2000/svg" xmlns:xlink="http://www.w3.org/1999/xlink">
<g id="graph0" class="graph" transform="scale(1 1) rotate(0) translate(4 182)">
<title>application.FloodCell</title>
<polygon fill="white" stroke="none" points="-4,4 -4,-182 398,-182 398,4 -4,4"/>
<!-- Node1 -->
<g id="node1" class="node"><title>Node1</title>
<polygon fill="#bfbfbf" stroke="black" points="212,-0.5 212,-19.5 326,-19.5 326,-0.5 212,-0.5"/>
<text text-anchor="middle" x="269" y="-7.5" font-family="Helvetica,sans-Serif" font-size="10.00">application.FloodCell</text>
</g>
<!-- Node2 -->
<g id="node2" class="node"><title>Node2</title>
<g id="a_node2"><a xlink:href="../../d7/dff/classapplication_1_1_cell.html" target="_top" xlink:title="application.Cell">
<polygon fill="white" stroke="black" points="81.5,-68.5 81.5,-87.5 170.5,-87.5 170.5,-68.5 81.5,-68.5"/>
<text text-anchor="middle" x="126" y="-75.5" font-family="Helvetica,sans-Serif" font-size="10.00">application.Cell</text>
</a>
</g>
</g>
<!-- Node2&#45;&gt;Node1 -->
<g id="edge1" class="edge"><title>Node2&#45;&gt;Node1</title>
<path fill="none" stroke="midnightblue" d="M154.092,-64.0346C182.554,-50.898 225.783,-30.9463 250.301,-19.6305"/>
<polygon fill="midnightblue" stroke="midnightblue" points="152.308,-61.0032 144.695,-68.3717 155.241,-67.3589 152.308,-61.0032"/>
</g>
<!-- Node2&#45;&gt;Node2 -->
<g id="edge4" class="edge"><title>Node2&#45;&gt;Node2</title>
<path fill="none" stroke="#9a32cd" stroke-dasharray="5,2" d="M180.516,-82.9508C185.126,-81.8915 188,-80.2412 188,-78 188,-74.4141 180.644,-72.3409 170.586,-71.7806"/>
<polygon fill="#9a32cd" stroke="#9a32cd" points="180.062,-79.4803 170.586,-84.2194 180.949,-86.4238 180.062,-79.4803"/>
<text text-anchor="middle" x="204.5" y="-75.5" font-family="Helvetica,sans-Serif" font-size="10.00"> Matrix</text>
</g>
<!-- Node3 -->
<g id="node3" class="node"><title>Node3</title>
<polygon fill="white" stroke="#bfbfbf" points="-0.5,-147 -0.5,-177 142.5,-177 142.5,-147 -0.5,-147"/>
<text text-anchor="start" x="7.5" y="-165" font-family="Helvetica,sans-Serif" font-size="10.00">Map&lt; Integer, application.</text>
<text text-anchor="middle" x="71" y="-154" font-family="Helvetica,sans-Serif" font-size="10.00">Cell &gt;</text>
</g>
<!-- Node3&#45;&gt;Node2 -->
<g id="edge2" class="edge"><title>Node3&#45;&gt;Node2</title>
<path fill="none" stroke="#9a32cd" stroke-dasharray="5,2" d="M86.4209,-138.009C97.6721,-121.234 112.29,-99.4404 120.237,-87.5915"/>
<polygon fill="#9a32cd" stroke="#9a32cd" points="83.2439,-136.462 80.5803,-146.717 89.0574,-140.361 83.2439,-136.462"/>
<text text-anchor="middle" x="132.5" y="-114.5" font-family="Helvetica,sans-Serif" font-size="10.00"> neighbors</text>
</g>
<!-- Node4 -->
<g id="node4" class="node"><title>Node4</title>
<polygon fill="white" stroke="#bfbfbf" points="161,-152.5 161,-171.5 201,-171.5 201,-152.5 161,-152.5"/>
<text text-anchor="middle" x="181" y="-159.5" font-family="Helvetica,sans-Serif" font-size="10.00">Paint</text>
</g>
<!-- Node4&#45;&gt;Node2 -->
<g id="edge3" class="edge"><title>Node4&#45;&gt;Node2</title>
<path fill="none" stroke="#9a32cd" stroke-dasharray="5,2" d="M176.155,-142.458C172.615,-131.197 167.02,-116.935 159,-106 153.747,-98.837 146.167,-92.4567 139.597,-87.6992"/>
<polygon fill="#9a32cd" stroke="#9a32cd" points="172.808,-143.482 178.932,-152.128 179.536,-141.55 172.808,-143.482"/>
<text text-anchor="middle" x="204.5" y="-120" font-family="Helvetica,sans-Serif" font-size="10.00"> currentState</text>
<text text-anchor="middle" x="204.5" y="-109" font-family="Helvetica,sans-Serif" font-size="10.00">updatedState</text>
</g>
<!-- Node5 -->
<g id="node5" class="node"><title>Node5</title>
<polygon fill="white" stroke="#bfbfbf" points="239.5,-68.5 239.5,-87.5 394.5,-87.5 394.5,-68.5 239.5,-68.5"/>
<text text-anchor="middle" x="317" y="-75.5" font-family="Helvetica,sans-Serif" font-size="10.00">List&lt; application.WaTorCell &gt;</text>
</g>
<!-- Node5&#45;&gt;Node1 -->
<g id="edge5" class="edge"><title>Node5&#45;&gt;Node1</title>
<path fill="none" stroke="#9a32cd" stroke-dasharray="5,2" d="M304.591,-59.9377C295.263,-47.112 282.861,-30.0591 275.43,-19.8411"/>
<polygon fill="#9a32cd" stroke="#9a32cd" points="302.012,-62.3429 310.725,-68.3717 307.674,-58.2257 302.012,-62.3429"/>
<text text-anchor="middle" x="331.5" y="-41.5" font-family="Helvetica,sans-Serif" font-size="10.00"> neighborsList</text>
</g>
</g>
</svg>
