<?xml version="1.0" encoding="UTF-8" standalone="no"?>
<!DOCTYPE svg PUBLIC "-//W3C//DTD SVG 1.1//EN"
 "http://www.w3.org/Graphics/SVG/1.1/DTD/svg11.dtd">
<!-- Generated by graphviz version 2.36.0 (20140111.2315)
 -->
<!-- Title: application.Cell Pages: 1 -->
<svg width="246pt" height="118pt"
 viewBox="0.00 0.00 246.00 118.00" xmlns="http://www.w3.org/2000/svg" xmlns:xlink="http://www.w3.org/1999/xlink">
<g id="graph0" class="graph" transform="scale(1 1) rotate(0) translate(4 114)">
<title>application.Cell</title>
<polygon fill="white" stroke="none" points="-4,4 -4,-114 242,-114 242,4 -4,4"/>
<!-- Node1 -->
<g id="node1" class="node"><title>Node1</title>
<polygon fill="#bfbfbf" stroke="black" points="81.5,-0.5 81.5,-19.5 170.5,-19.5 170.5,-0.5 81.5,-0.5"/>
<text text-anchor="middle" x="126" y="-7.5" font-family="Helvetica,sans-Serif" font-size="10.00">application.Cell</text>
</g>
<!-- Node1&#45;&gt;Node1 -->
<g id="edge3" class="edge"><title>Node1&#45;&gt;Node1</title>
<path fill="none" stroke="#9a32cd" stroke-dasharray="5,2" d="M180.516,-15.5332C185.126,-14.3493 188,-12.5049 188,-10 188,-5.99219 180.644,-3.67517 170.586,-3.04895"/>
<polygon fill="#9a32cd" stroke="#9a32cd" points="179.991,-12.0726 170.586,-16.951 180.98,-19.0023 179.991,-12.0726"/>
<text text-anchor="middle" x="204.5" y="-7.5" font-family="Helvetica,sans-Serif" font-size="10.00"> Matrix</text>
</g>
<!-- Node2 -->
<g id="node2" class="node"><title>Node2</title>
<polygon fill="white" stroke="#bfbfbf" points="-0.5,-79 -0.5,-109 142.5,-109 142.5,-79 -0.5,-79"/>
<text text-anchor="start" x="7.5" y="-97" font-family="Helvetica,sans-Serif" font-size="10.00">Map&lt; Integer, application.</text>
<text text-anchor="middle" x="71" y="-86" font-family="Helvetica,sans-Serif" font-size="10.00">Cell &gt;</text>
</g>
<!-- Node2&#45;&gt;Node1 -->
<g id="edge1" class="edge"><title>Node2&#45;&gt;Node1</title>
<path fill="none" stroke="#9a32cd" stroke-dasharray="5,2" d="M86.4209,-70.0089C97.6721,-53.2343 112.29,-31.4404 120.237,-19.5915"/>
<polygon fill="#9a32cd" stroke="#9a32cd" points="83.2439,-68.4621 80.5803,-78.7167 89.0574,-72.3614 83.2439,-68.4621"/>
<text text-anchor="middle" x="132.5" y="-46.5" font-family="Helvetica,sans-Serif" font-size="10.00"> neighbors</text>
</g>
<!-- Node3 -->
<g id="node3" class="node"><title>Node3</title>
<polygon fill="white" stroke="#bfbfbf" points="161,-84.5 161,-103.5 201,-103.5 201,-84.5 161,-84.5"/>
<text text-anchor="middle" x="181" y="-91.5" font-family="Helvetica,sans-Serif" font-size="10.00">Paint</text>
</g>
<!-- Node3&#45;&gt;Node1 -->
<g id="edge2" class="edge"><title>Node3&#45;&gt;Node1</title>
<path fill="none" stroke="#9a32cd" stroke-dasharray="5,2" d="M176.155,-74.4576C172.615,-63.197 167.02,-48.9351 159,-38 153.747,-30.837 146.167,-24.4567 139.597,-19.6992"/>
<polygon fill="#9a32cd" stroke="#9a32cd" points="172.808,-75.482 178.932,-84.1275 179.536,-73.5499 172.808,-75.482"/>
<text text-anchor="middle" x="204.5" y="-52" font-family="Helvetica,sans-Serif" font-size="10.00"> currentState</text>
<text text-anchor="middle" x="204.5" y="-41" font-family="Helvetica,sans-Serif" font-size="10.00">updatedState</text>
</g>
</g>
</svg>
