<?xml version="1.0" encoding="UTF-8" standalone="no"?>
<!DOCTYPE svg PUBLIC "-//W3C//DTD SVG 1.1//EN"
 "http://www.w3.org/Graphics/SVG/1.1/DTD/svg11.dtd">
<!-- Generated by graphviz version 2.36.0 (20140111.2315)
 -->
<!-- Title: application.GameOfLife.updateCell Pages: 1 -->
<svg width="378pt" height="87pt"
 viewBox="0.00 0.00 378.00 87.00" xmlns="http://www.w3.org/2000/svg" xmlns:xlink="http://www.w3.org/1999/xlink">
<g id="graph0" class="graph" transform="scale(1 1) rotate(0) translate(4 83)">
<title>application.GameOfLife.updateCell</title>
<polygon fill="white" stroke="none" points="-4,4 -4,-83 374,-83 374,4 -4,4"/>
<!-- Node1 -->
<g id="node1" class="node"><title>Node1</title>
<polygon fill="#bfbfbf" stroke="black" points="0,-29.5 0,-48.5 182,-48.5 182,-29.5 0,-29.5"/>
<text text-anchor="middle" x="91" y="-36.5" font-family="Helvetica,sans-Serif" font-size="10.00">application.GameOfLife.updateCell</text>
</g>
<!-- Node2 -->
<g id="node2" class="node"><title>Node2</title>
<g id="a_node2"><a xlink:href="../../d7/d03/classapplication_1_1_game_of_life.html#a9c2ef578cf074ec42cdc753bb8b684e2" target="_top" xlink:title="application.GameOfLife.alive\lCalculator">
<polygon fill="white" stroke="black" points="218,-49 218,-79 370,-79 370,-49 218,-49"/>
<text text-anchor="start" x="226" y="-67" font-family="Helvetica,sans-Serif" font-size="10.00">application.GameOfLife.alive</text>
<text text-anchor="middle" x="294" y="-56" font-family="Helvetica,sans-Serif" font-size="10.00">Calculator</text>
</a>
</g>
</g>
<!-- Node1&#45;&gt;Node2 -->
<g id="edge1" class="edge"><title>Node1&#45;&gt;Node2</title>
<path fill="none" stroke="midnightblue" d="M168.563,-48.5227C181.47,-50.1282 194.937,-51.8031 208.043,-53.4331"/>
<polygon fill="midnightblue" stroke="midnightblue" points="207.623,-56.9079 217.979,-54.669 208.487,-49.9614 207.623,-56.9079"/>
</g>
<!-- Node3 -->
<g id="node3" class="node"><title>Node3</title>
<g id="a_node3"><a xlink:href="../../d7/d03/classapplication_1_1_game_of_life.html#a7e7cf181c4fe3033576d94f4c37a9f88" target="_top" xlink:title="application.GameOfLife.life\lUpdate">
<polygon fill="white" stroke="black" points="222,-0 222,-30 366,-30 366,-0 222,-0"/>
<text text-anchor="start" x="230" y="-18" font-family="Helvetica,sans-Serif" font-size="10.00">application.GameOfLife.life</text>
<text text-anchor="middle" x="294" y="-7" font-family="Helvetica,sans-Serif" font-size="10.00">Update</text>
</a>
</g>
</g>
<!-- Node1&#45;&gt;Node3 -->
<g id="edge2" class="edge"><title>Node1&#45;&gt;Node3</title>
<path fill="none" stroke="midnightblue" d="M171.729,-29.4801C184.918,-27.9053 198.605,-26.271 211.829,-24.692"/>
<polygon fill="midnightblue" stroke="midnightblue" points="212.32,-28.1583 221.835,-23.4973 211.49,-21.2077 212.32,-28.1583"/>
</g>
</g>
</svg>
