<?xml version="1.0" encoding="UTF-8" standalone="no"?>
<!DOCTYPE svg PUBLIC "-//W3C//DTD SVG 1.1//EN"
 "http://www.w3.org/Graphics/SVG/1.1/DTD/svg11.dtd">
<!-- Generated by graphviz version 2.36.0 (20140111.2315)
 -->
<!-- Title: application.Segregation Pages: 1 -->
<svg width="246pt" height="176pt"
 viewBox="0.00 0.00 246.00 176.00" xmlns="http://www.w3.org/2000/svg" xmlns:xlink="http://www.w3.org/1999/xlink">
<g id="graph0" class="graph" transform="scale(1 1) rotate(0) translate(4 172)">
<title>application.Segregation</title>
<polygon fill="white" stroke="none" points="-4,4 -4,-172 242,-172 242,4 -4,4"/>
<!-- Node1 -->
<g id="node1" class="node"><title>Node1</title>
<polygon fill="#bfbfbf" stroke="black" points="61,-0.5 61,-19.5 191,-19.5 191,-0.5 61,-0.5"/>
<text text-anchor="middle" x="126" y="-7.5" font-family="Helvetica,sans-Serif" font-size="10.00">application.Segregation</text>
</g>
<!-- Node2 -->
<g id="node2" class="node"><title>Node2</title>
<g id="a_node2"><a xlink:href="../../d7/dff/classapplication_1_1_cell.html" target="_top" xlink:title="application.Cell">
<polygon fill="white" stroke="black" points="81.5,-58.5 81.5,-77.5 170.5,-77.5 170.5,-58.5 81.5,-58.5"/>
<text text-anchor="middle" x="126" y="-65.5" font-family="Helvetica,sans-Serif" font-size="10.00">application.Cell</text>
</a>
</g>
</g>
<!-- Node2&#45;&gt;Node1 -->
<g id="edge1" class="edge"><title>Node2&#45;&gt;Node1</title>
<path fill="none" stroke="midnightblue" d="M126,-47.953C126,-38.2875 126,-27.0312 126,-19.5052"/>
<polygon fill="midnightblue" stroke="midnightblue" points="122.5,-48.25 126,-58.25 129.5,-48.25 122.5,-48.25"/>
</g>
<!-- Node2&#45;&gt;Node2 -->
<g id="edge4" class="edge"><title>Node2&#45;&gt;Node2</title>
<path fill="none" stroke="#9a32cd" stroke-dasharray="5,2" d="M180.858,-72.0108C185.268,-71.1365 188,-69.7996 188,-68 188,-65.0469 180.644,-63.3396 170.586,-62.8782"/>
<polygon fill="#9a32cd" stroke="#9a32cd" points="180.152,-68.5667 170.586,-73.1218 180.904,-75.5261 180.152,-68.5667"/>
<text text-anchor="middle" x="204.5" y="-65.5" font-family="Helvetica,sans-Serif" font-size="10.00"> Matrix</text>
</g>
<!-- Node3 -->
<g id="node3" class="node"><title>Node3</title>
<polygon fill="white" stroke="#bfbfbf" points="-0.5,-137 -0.5,-167 142.5,-167 142.5,-137 -0.5,-137"/>
<text text-anchor="start" x="7.5" y="-155" font-family="Helvetica,sans-Serif" font-size="10.00">Map&lt; Integer, application.</text>
<text text-anchor="middle" x="71" y="-144" font-family="Helvetica,sans-Serif" font-size="10.00">Cell &gt;</text>
</g>
<!-- Node3&#45;&gt;Node2 -->
<g id="edge2" class="edge"><title>Node3&#45;&gt;Node2</title>
<path fill="none" stroke="#9a32cd" stroke-dasharray="5,2" d="M86.4209,-128.009C97.6721,-111.234 112.29,-89.4404 120.237,-77.5915"/>
<polygon fill="#9a32cd" stroke="#9a32cd" points="83.2439,-126.462 80.5803,-136.717 89.0574,-130.361 83.2439,-126.462"/>
<text text-anchor="middle" x="132.5" y="-104.5" font-family="Helvetica,sans-Serif" font-size="10.00"> neighbors</text>
</g>
<!-- Node4 -->
<g id="node4" class="node"><title>Node4</title>
<polygon fill="white" stroke="#bfbfbf" points="161,-142.5 161,-161.5 201,-161.5 201,-142.5 161,-142.5"/>
<text text-anchor="middle" x="181" y="-149.5" font-family="Helvetica,sans-Serif" font-size="10.00">Paint</text>
</g>
<!-- Node4&#45;&gt;Node2 -->
<g id="edge3" class="edge"><title>Node4&#45;&gt;Node2</title>
<path fill="none" stroke="#9a32cd" stroke-dasharray="5,2" d="M176.155,-132.458C172.615,-121.197 167.02,-106.935 159,-96 153.747,-88.837 146.167,-82.4567 139.597,-77.6992"/>
<polygon fill="#9a32cd" stroke="#9a32cd" points="172.808,-133.482 178.932,-142.128 179.536,-131.55 172.808,-133.482"/>
<text text-anchor="middle" x="204.5" y="-110" font-family="Helvetica,sans-Serif" font-size="10.00"> currentState</text>
<text text-anchor="middle" x="204.5" y="-99" font-family="Helvetica,sans-Serif" font-size="10.00">updatedState</text>
</g>
</g>
</svg>
