<?xml version="1.0" encoding="UTF-8" standalone="no"?>
<!DOCTYPE svg PUBLIC "-//W3C//DTD SVG 1.1//EN"
 "http://www.w3.org/Graphics/SVG/1.1/DTD/svg11.dtd">
<!-- Generated by graphviz version 2.36.0 (20140111.2315)
 -->
<!-- Title: application.ApplicationLoop Pages: 1 -->
<svg width="928pt" height="319pt"
 viewBox="0.00 0.00 928.00 319.00" xmlns="http://www.w3.org/2000/svg" xmlns:xlink="http://www.w3.org/1999/xlink">
<g id="graph0" class="graph" transform="scale(1 1) rotate(0) translate(4 315)">
<title>application.ApplicationLoop</title>
<polygon fill="white" stroke="none" points="-4,4 -4,-315 924,-315 924,4 -4,4"/>
<!-- Node1 -->
<g id="node1" class="node"><title>Node1</title>
<polygon fill="#bfbfbf" stroke="black" points="772.5,-176.5 772.5,-195.5 919.5,-195.5 919.5,-176.5 772.5,-176.5"/>
<text text-anchor="middle" x="846" y="-183.5" font-family="Helvetica,sans-Serif" font-size="10.00">application.ApplicationLoop</text>
</g>
<!-- Node2 -->
<g id="node2" class="node"><title>Node2</title>
<polygon fill="white" stroke="#bfbfbf" points="555,-291.5 555,-310.5 611,-310.5 611,-291.5 555,-291.5"/>
<text text-anchor="middle" x="583" y="-298.5" font-family="Helvetica,sans-Serif" font-size="10.00">Timeline</text>
</g>
<!-- Node2&#45;&gt;Node1 -->
<g id="edge1" class="edge"><title>Node2&#45;&gt;Node1</title>
<path fill="none" stroke="#9a32cd" stroke-dasharray="5,2" d="M621.147,-296.909C656.731,-291.89 711.191,-281.276 754,-260 788.099,-243.053 820.938,-211.379 836.163,-195.536"/>
<polygon fill="#9a32cd" stroke="#9a32cd" points="620.64,-293.446 611.19,-298.237 621.565,-300.384 620.64,-293.446"/>
<text text-anchor="middle" x="718" y="-289" font-family="Helvetica,sans-Serif" font-size="10.00"> animation</text>
</g>
<!-- Node3 -->
<g id="node3" class="node"><title>Node3</title>
<polygon fill="white" stroke="#bfbfbf" points="507.5,-253.5 507.5,-272.5 658.5,-272.5 658.5,-253.5 507.5,-253.5"/>
<text text-anchor="middle" x="583" y="-260.5" font-family="Helvetica,sans-Serif" font-size="10.00">ArrayList&lt; XYChart.Series &gt;</text>
</g>
<!-- Node3&#45;&gt;Node1 -->
<g id="edge2" class="edge"><title>Node3&#45;&gt;Node1</title>
<path fill="none" stroke="#9a32cd" stroke-dasharray="5,2" d="M651.43,-251.542C682.977,-245.367 720.822,-236.783 754,-226 779.768,-217.626 808.156,-204.479 826.259,-195.562"/>
<polygon fill="#9a32cd" stroke="#9a32cd" points="650.584,-248.141 641.423,-253.462 651.903,-255.015 650.584,-248.141"/>
<text text-anchor="middle" x="718" y="-248" font-family="Helvetica,sans-Serif" font-size="10.00"> series</text>
</g>
<!-- Node4 -->
<g id="node4" class="node"><title>Node4</title>
<g id="a_node4"><a xlink:href="../../d3/d32/classapplication_1_1_grid.html" target="_top" xlink:title="application.Grid">
<polygon fill="white" stroke="black" points="537.5,-215.5 537.5,-234.5 628.5,-234.5 628.5,-215.5 537.5,-215.5"/>
<text text-anchor="middle" x="583" y="-222.5" font-family="Helvetica,sans-Serif" font-size="10.00">application.Grid</text>
</a>
</g>
</g>
<!-- Node4&#45;&gt;Node1 -->
<g id="edge3" class="edge"><title>Node4&#45;&gt;Node1</title>
<path fill="none" stroke="#9a32cd" stroke-dasharray="5,2" d="M638.754,-217.042C672.079,-212.175 715.503,-205.792 754,-200 763.484,-198.573 773.521,-197.046 783.331,-195.544"/>
<polygon fill="#9a32cd" stroke="#9a32cd" points="638.143,-213.594 628.753,-218.501 639.154,-220.521 638.143,-213.594"/>
<text text-anchor="middle" x="718" y="-214" font-family="Helvetica,sans-Serif" font-size="10.00"> grid</text>
</g>
<!-- Node5 -->
<g id="node5" class="node"><title>Node5</title>
<g id="a_node5"><a xlink:href="../../d7/dff/classapplication_1_1_cell.html" target="_top" xlink:title="application.Cell">
<polygon fill="white" stroke="black" points="267.5,-243.5 267.5,-262.5 356.5,-262.5 356.5,-243.5 267.5,-243.5"/>
<text text-anchor="middle" x="312" y="-250.5" font-family="Helvetica,sans-Serif" font-size="10.00">application.Cell</text>
</a>
</g>
</g>
<!-- Node5&#45;&gt;Node4 -->
<g id="edge4" class="edge"><title>Node5&#45;&gt;Node4</title>
<path fill="none" stroke="#9a32cd" stroke-dasharray="5,2" d="M366.493,-247.432C416.474,-242.229 490.24,-234.551 537.199,-229.663"/>
<polygon fill="#9a32cd" stroke="#9a32cd" points="366.102,-243.954 356.518,-248.47 366.827,-250.916 366.102,-243.954"/>
<text text-anchor="middle" x="439" y="-247" font-family="Helvetica,sans-Serif" font-size="10.00"> cellMatrix</text>
</g>
<!-- Node5&#45;&gt;Node5 -->
<g id="edge7" class="edge"><title>Node5&#45;&gt;Node5</title>
<path fill="none" stroke="#9a32cd" stroke-dasharray="5,2" d="M290.52,-272.4C291.954,-277.315 299.114,-281 312,-281 332.617,-281 338.577,-271.565 329.879,-262.757"/>
<polygon fill="#9a32cd" stroke="#9a32cd" points="293.901,-273.35 294.121,-262.757 287.343,-270.9 293.901,-273.35"/>
<text text-anchor="middle" x="312" y="-284" font-family="Helvetica,sans-Serif" font-size="10.00"> Matrix</text>
</g>
<!-- Node6 -->
<g id="node6" class="node"><title>Node6</title>
<polygon fill="white" stroke="#bfbfbf" points="0.5,-261 0.5,-291 143.5,-291 143.5,-261 0.5,-261"/>
<text text-anchor="start" x="8.5" y="-279" font-family="Helvetica,sans-Serif" font-size="10.00">Map&lt; Integer, application.</text>
<text text-anchor="middle" x="72" y="-268" font-family="Helvetica,sans-Serif" font-size="10.00">Cell &gt;</text>
</g>
<!-- Node6&#45;&gt;Node5 -->
<g id="edge5" class="edge"><title>Node6&#45;&gt;Node5</title>
<path fill="none" stroke="#9a32cd" stroke-dasharray="5,2" d="M153.809,-268.191C191.848,-264.515 235.71,-260.276 267.42,-257.212"/>
<polygon fill="#9a32cd" stroke="#9a32cd" points="153.38,-264.716 143.763,-269.162 154.054,-271.683 153.38,-264.716"/>
<text text-anchor="middle" x="196" y="-271" font-family="Helvetica,sans-Serif" font-size="10.00"> neighbors</text>
</g>
<!-- Node7 -->
<g id="node7" class="node"><title>Node7</title>
<polygon fill="white" stroke="#bfbfbf" points="52,-221.5 52,-240.5 92,-240.5 92,-221.5 52,-221.5"/>
<text text-anchor="middle" x="72" y="-228.5" font-family="Helvetica,sans-Serif" font-size="10.00">Paint</text>
</g>
<!-- Node7&#45;&gt;Node5 -->
<g id="edge6" class="edge"><title>Node7&#45;&gt;Node5</title>
<path fill="none" stroke="#9a32cd" stroke-dasharray="5,2" d="M102.777,-229.014C134.466,-227.406 185.998,-226.246 230,-232 247.286,-234.26 266.164,-239.016 281.344,-243.431"/>
<polygon fill="#9a32cd" stroke="#9a32cd" points="102.23,-225.538 92.4408,-229.59 102.62,-232.528 102.23,-225.538"/>
<text text-anchor="middle" x="196" y="-246" font-family="Helvetica,sans-Serif" font-size="10.00"> currentState</text>
<text text-anchor="middle" x="196" y="-235" font-family="Helvetica,sans-Serif" font-size="10.00">updatedState</text>
</g>
<!-- Node8 -->
<g id="node8" class="node"><title>Node8</title>
<polygon fill="white" stroke="#bfbfbf" points="289,-198.5 289,-217.5 335,-217.5 335,-198.5 289,-198.5"/>
<text text-anchor="middle" x="312" y="-205.5" font-family="Helvetica,sans-Serif" font-size="10.00">Group</text>
</g>
<!-- Node8&#45;&gt;Node1 -->
<g id="edge17" class="edge"><title>Node8&#45;&gt;Node1</title>
<path fill="none" stroke="#9a32cd" stroke-dasharray="5,2" d="M345.437,-205.349C383.065,-202.37 446.981,-197.613 502,-195 595.269,-190.571 702.917,-188.191 772.366,-187.012"/>
<polygon fill="#9a32cd" stroke="#9a32cd" points="344.786,-201.889 335.096,-206.175 345.343,-208.867 344.786,-201.889"/>
<text text-anchor="middle" x="583" y="-198" font-family="Helvetica,sans-Serif" font-size="10.00"> root</text>
</g>
<!-- Node8&#45;&gt;Node4 -->
<g id="edge8" class="edge"><title>Node8&#45;&gt;Node4</title>
<path fill="none" stroke="#9a32cd" stroke-dasharray="5,2" d="M345.096,-210.028C392.877,-213.048 482.894,-218.737 537.158,-222.166"/>
<polygon fill="#9a32cd" stroke="#9a32cd" points="345.214,-206.529 335.013,-209.391 344.773,-213.515 345.214,-206.529"/>
<text text-anchor="middle" x="439" y="-222" font-family="Helvetica,sans-Serif" font-size="10.00"> root</text>
</g>
<!-- Node9 -->
<g id="node9" class="node"><title>Node9</title>
<polygon fill="white" stroke="#bfbfbf" points="502.5,-130.5 502.5,-149.5 663.5,-149.5 663.5,-130.5 502.5,-130.5"/>
<text text-anchor="middle" x="583" y="-137.5" font-family="Helvetica,sans-Serif" font-size="10.00">EventHandler&lt; ActionEvent &gt;</text>
</g>
<!-- Node9&#45;&gt;Node1 -->
<g id="edge9" class="edge"><title>Node9&#45;&gt;Node1</title>
<path fill="none" stroke="#9a32cd" stroke-dasharray="5,2" d="M673.744,-148.616C699.757,-151.779 728.118,-155.874 754,-161 774.411,-165.042 796.967,-171.227 814.515,-176.433"/>
<polygon fill="#9a32cd" stroke="#9a32cd" points="673.862,-145.106 663.52,-147.405 673.039,-152.057 673.862,-145.106"/>
<text text-anchor="middle" x="718" y="-164" font-family="Helvetica,sans-Serif" font-size="10.00"> oneFrame</text>
</g>
<!-- Node10 -->
<g id="node10" class="node"><title>Node10</title>
<g id="a_node10"><a xlink:href="../../d1/dd5/classapplication_1_1_cell_x_m_l_reader.html" target="_top" xlink:title="application.CellXMLReader">
<polygon fill="white" stroke="black" points="512.5,-92.5 512.5,-111.5 653.5,-111.5 653.5,-92.5 512.5,-92.5"/>
<text text-anchor="middle" x="583" y="-99.5" font-family="Helvetica,sans-Serif" font-size="10.00">application.CellXMLReader</text>
</a>
</g>
</g>
<!-- Node10&#45;&gt;Node1 -->
<g id="edge10" class="edge"><title>Node10&#45;&gt;Node1</title>
<path fill="none" stroke="#9a32cd" stroke-dasharray="5,2" d="M663.686,-112.073C692.673,-117.134 725.339,-124.497 754,-135 783.078,-145.656 813.912,-164.832 831.182,-176.391"/>
<polygon fill="#9a32cd" stroke="#9a32cd" points="664.041,-108.583 653.599,-110.377 662.881,-115.486 664.041,-108.583"/>
<text text-anchor="middle" x="718" y="-138" font-family="Helvetica,sans-Serif" font-size="10.00"> cellXMLReader</text>
</g>
<!-- Node11 -->
<g id="node11" class="node"><title>Node11</title>
<polygon fill="white" stroke="#bfbfbf" points="259,-152.5 259,-171.5 365,-171.5 365,-152.5 259,-152.5"/>
<text text-anchor="middle" x="312" y="-159.5" font-family="Helvetica,sans-Serif" font-size="10.00">ArrayList&lt; Color &gt;</text>
</g>
<!-- Node11&#45;&gt;Node10 -->
<g id="edge11" class="edge"><title>Node11&#45;&gt;Node10</title>
<path fill="none" stroke="#9a32cd" stroke-dasharray="5,2" d="M375.222,-156.753C408.322,-152.566 449.247,-145.125 484,-132 492.771,-128.687 493.332,-124.572 502,-121 511.107,-117.247 521.117,-114.137 530.881,-111.596"/>
<polygon fill="#9a32cd" stroke="#9a32cd" points="374.73,-153.287 365.217,-157.951 375.562,-160.238 374.73,-153.287"/>
<text text-anchor="middle" x="439" y="-157" font-family="Helvetica,sans-Serif" font-size="10.00"> myColors</text>
</g>
<!-- Node12 -->
<g id="node12" class="node"><title>Node12</title>
<polygon fill="white" stroke="#bfbfbf" points="282.5,-114.5 282.5,-133.5 341.5,-133.5 341.5,-114.5 282.5,-114.5"/>
<text text-anchor="middle" x="312" y="-121.5" font-family="Helvetica,sans-Serif" font-size="10.00">NodeList</text>
</g>
<!-- Node12&#45;&gt;Node10 -->
<g id="edge12" class="edge"><title>Node12&#45;&gt;Node10</title>
<path fill="none" stroke="#9a32cd" stroke-dasharray="5,2" d="M351.602,-120.843C393.5,-117.416 461.269,-111.874 512.487,-107.685"/>
<polygon fill="#9a32cd" stroke="#9a32cd" points="351.214,-117.363 341.533,-121.666 351.785,-124.34 351.214,-117.363"/>
<text text-anchor="middle" x="439" y="-120" font-family="Helvetica,sans-Serif" font-size="10.00"> myNodeList</text>
</g>
<!-- Node13 -->
<g id="node13" class="node"><title>Node13</title>
<polygon fill="white" stroke="#bfbfbf" points="248,-76.5 248,-95.5 376,-95.5 376,-76.5 248,-76.5"/>
<text text-anchor="middle" x="312" y="-83.5" font-family="Helvetica,sans-Serif" font-size="10.00">List&lt; application.Cell &gt;</text>
</g>
<!-- Node13&#45;&gt;Node10 -->
<g id="edge13" class="edge"><title>Node13&#45;&gt;Node10</title>
<path fill="none" stroke="#9a32cd" stroke-dasharray="5,2" d="M386.074,-86.8105C416.398,-87.4914 451.926,-88.7349 484,-91 493.222,-91.6513 502.914,-92.5173 512.468,-93.4783"/>
<polygon fill="#9a32cd" stroke="#9a32cd" points="386.072,-83.3098 376.002,-86.6005 385.926,-90.3083 386.072,-83.3098"/>
<text text-anchor="middle" x="439" y="-94" font-family="Helvetica,sans-Serif" font-size="10.00"> myCellList</text>
</g>
<!-- Node14 -->
<g id="node14" class="node"><title>Node14</title>
<polygon fill="white" stroke="#bfbfbf" points="254.5,-38.5 254.5,-57.5 369.5,-57.5 369.5,-38.5 254.5,-38.5"/>
<text text-anchor="middle" x="312" y="-45.5" font-family="Helvetica,sans-Serif" font-size="10.00">ArrayList&lt; Integer &gt;</text>
</g>
<!-- Node14&#45;&gt;Node10 -->
<g id="edge14" class="edge"><title>Node14&#45;&gt;Node10</title>
<path fill="none" stroke="#9a32cd" stroke-dasharray="5,2" d="M379.833,-52.1338C411.97,-55.5327 450.66,-61.7241 484,-73 492.669,-75.932 493.468,-79.6894 502,-83 511.582,-86.7181 522.102,-89.8477 532.275,-92.4257"/>
<polygon fill="#9a32cd" stroke="#9a32cd" points="379.941,-48.6274 369.644,-51.1255 379.251,-55.5934 379.941,-48.6274"/>
<text text-anchor="middle" x="439" y="-76" font-family="Helvetica,sans-Serif" font-size="10.00"> myWaTorVariables</text>
</g>
<!-- Node15 -->
<g id="node15" class="node"><title>Node15</title>
<polygon fill="white" stroke="#bfbfbf" points="278.5,-0.5 278.5,-19.5 345.5,-19.5 345.5,-0.5 278.5,-0.5"/>
<text text-anchor="middle" x="312" y="-7.5" font-family="Helvetica,sans-Serif" font-size="10.00">Document</text>
</g>
<!-- Node15&#45;&gt;Node10 -->
<g id="edge15" class="edge"><title>Node15&#45;&gt;Node10</title>
<path fill="none" stroke="#9a32cd" stroke-dasharray="5,2" d="M355.857,-6.69004C393.529,-6.08659 447.836,-11.1122 484,-40 500.187,-52.9306 486.204,-69.5935 502,-83 506.571,-86.8797 511.796,-89.9978 517.336,-92.4998"/>
<polygon fill="#9a32cd" stroke="#9a32cd" points="355.592,-3.1963 345.701,-6.99436 355.802,-10.1932 355.592,-3.1963"/>
<text text-anchor="middle" x="439" y="-43" font-family="Helvetica,sans-Serif" font-size="10.00"> myDocument</text>
</g>
<!-- Node16 -->
<g id="node16" class="node"><title>Node16</title>
<polygon fill="white" stroke="#bfbfbf" points="553.5,-54.5 553.5,-73.5 612.5,-73.5 612.5,-54.5 553.5,-54.5"/>
<text text-anchor="middle" x="583" y="-61.5" font-family="Helvetica,sans-Serif" font-size="10.00">GridPane</text>
</g>
<!-- Node16&#45;&gt;Node1 -->
<g id="edge16" class="edge"><title>Node16&#45;&gt;Node1</title>
<path fill="none" stroke="#9a32cd" stroke-dasharray="5,2" d="M622.675,-66.8689C658.477,-70.8254 712.309,-80.1537 754,-102 790.565,-121.16 823.47,-158.83 837.637,-176.468"/>
<polygon fill="#9a32cd" stroke="#9a32cd" points="622.932,-63.377 612.629,-65.8474 622.224,-70.3411 622.932,-63.377"/>
<text text-anchor="middle" x="718" y="-105" font-family="Helvetica,sans-Serif" font-size="10.00"> gridpane</text>
</g>
</g>
</svg>
