<?xml version="1.0" encoding="UTF-8" standalone="no"?>
<!DOCTYPE svg PUBLIC "-//W3C//DTD SVG 1.1//EN"
 "http://www.w3.org/Graphics/SVG/1.1/DTD/svg11.dtd">
<!-- Generated by graphviz version 2.36.0 (20140111.2315)
 -->
<!-- Title: application.Grid.initializeAndPopulateMatrix Pages: 1 -->
<svg width="306pt" height="66pt"
 viewBox="0.00 0.00 306.00 66.00" xmlns="http://www.w3.org/2000/svg" xmlns:xlink="http://www.w3.org/1999/xlink">
<g id="graph0" class="graph" transform="scale(1 1) rotate(0) translate(4 62)">
<title>application.Grid.initializeAndPopulateMatrix</title>
<polygon fill="white" stroke="none" points="-4,4 -4,-62 302,-62 302,4 -4,4"/>
<!-- Node1 -->
<g id="node1" class="node"><title>Node1</title>
<polygon fill="#bfbfbf" stroke="black" points="0,-14 0,-44 132,-44 132,-14 0,-14"/>
<text text-anchor="start" x="8" y="-32" font-family="Helvetica,sans-Serif" font-size="10.00">application.Grid.initialize</text>
<text text-anchor="middle" x="66" y="-21" font-family="Helvetica,sans-Serif" font-size="10.00">AndPopulateMatrix</text>
</g>
<!-- Node2 -->
<g id="node2" class="node"><title>Node2</title>
<g id="a_node2"><a xlink:href="../../d7/dff/classapplication_1_1_cell.html#a9b55760c359deba99fa09c169bbcb924" target="_top" xlink:title="application.Cell.setXPos">
<polygon fill="white" stroke="black" points="168,-38.5 168,-57.5 298,-57.5 298,-38.5 168,-38.5"/>
<text text-anchor="middle" x="233" y="-45.5" font-family="Helvetica,sans-Serif" font-size="10.00">application.Cell.setXPos</text>
</a>
</g>
</g>
<!-- Node1&#45;&gt;Node2 -->
<g id="edge1" class="edge"><title>Node1&#45;&gt;Node2</title>
<path fill="none" stroke="midnightblue" d="M132.212,-36.5093C140.629,-37.4785 149.297,-38.4766 157.845,-39.4609"/>
<polygon fill="midnightblue" stroke="midnightblue" points="157.466,-42.9403 167.801,-40.6074 158.267,-35.9863 157.466,-42.9403"/>
</g>
<!-- Node3 -->
<g id="node3" class="node"><title>Node3</title>
<g id="a_node3"><a xlink:href="../../d7/dff/classapplication_1_1_cell.html#acc3b6f97d338de7648cefc50fe63b829" target="_top" xlink:title="application.Cell.setYPos">
<polygon fill="white" stroke="black" points="168.5,-0.5 168.5,-19.5 297.5,-19.5 297.5,-0.5 168.5,-0.5"/>
<text text-anchor="middle" x="233" y="-7.5" font-family="Helvetica,sans-Serif" font-size="10.00">application.Cell.setYPos</text>
</a>
</g>
</g>
<!-- Node1&#45;&gt;Node3 -->
<g id="edge2" class="edge"><title>Node1&#45;&gt;Node3</title>
<path fill="none" stroke="midnightblue" d="M132.212,-21.4907C140.759,-20.5066 149.564,-19.4926 158.239,-18.4937"/>
<polygon fill="midnightblue" stroke="midnightblue" points="158.806,-21.9517 168.339,-17.3306 158.005,-14.9976 158.806,-21.9517"/>
</g>
</g>
</svg>
