<?xml version="1.0" encoding="UTF-8" standalone="no"?>
<!DOCTYPE svg PUBLIC "-//W3C//DTD SVG 1.1//EN"
 "http://www.w3.org/Graphics/SVG/1.1/DTD/svg11.dtd">
<!-- Generated by graphviz version 2.36.0 (20140111.2315)
 -->
<!-- Title: application.Grid.addCellsToMap Pages: 1 -->
<svg width="3080pt" height="268pt"
 viewBox="0.00 0.00 3080.00 267.80" xmlns="http://www.w3.org/2000/svg" xmlns:xlink="http://www.w3.org/1999/xlink">
<g id="graph0" class="graph" transform="scale(1 1) rotate(0) translate(4 263.804)">
<title>application.Grid.addCellsToMap</title>
<polygon fill="white" stroke="none" points="-4,4 -4,-263.804 3076,-263.804 3076,4 -4,4"/>
<!-- Node1 -->
<g id="node1" class="node"><title>Node1</title>
<polygon fill="#bfbfbf" stroke="black" points="0,-96 0,-126 134,-126 134,-96 0,-96"/>
<text text-anchor="start" x="8" y="-114" font-family="Helvetica,sans-Serif" font-size="10.00">application.Grid.addCells</text>
<text text-anchor="middle" x="67" y="-103" font-family="Helvetica,sans-Serif" font-size="10.00">ToMap</text>
</g>
<!-- Node2 -->
<g id="node2" class="node"><title>Node2</title>
<g id="a_node2"><a xlink:href="../../d3/d32/classapplication_1_1_grid.html#ae805f0f4d572a70e090900fbd8d8bad7" target="_top" xlink:title="application.Grid.createCardinal\lNeighborsMap">
<polygon fill="white" stroke="black" points="170,-169 170,-199 334,-199 334,-169 170,-169"/>
<text text-anchor="start" x="178" y="-187" font-family="Helvetica,sans-Serif" font-size="10.00">application.Grid.createCardinal</text>
<text text-anchor="middle" x="252" y="-176" font-family="Helvetica,sans-Serif" font-size="10.00">NeighborsMap</text>
</a>
</g>
</g>
<!-- Node1&#45;&gt;Node2 -->
<g id="edge1" class="edge"><title>Node1&#45;&gt;Node2</title>
<path fill="none" stroke="midnightblue" d="M115.467,-129.935C145.875,-142.065 184.803,-157.593 213.131,-168.894"/>
<polygon fill="midnightblue" stroke="midnightblue" points="116.503,-126.58 105.918,-126.126 113.909,-133.082 116.503,-126.58"/>
</g>
<!-- Node20 -->
<g id="node20" class="node"><title>Node20</title>
<g id="a_node20"><a xlink:href="../../d3/d32/classapplication_1_1_grid.html#a66a821d455f974dbfaba0e89348c4e66" target="_top" xlink:title="application.Grid.createCorner\lNeighborsMap">
<polygon fill="white" stroke="black" points="173.5,-96 173.5,-126 330.5,-126 330.5,-96 173.5,-96"/>
<text text-anchor="start" x="181.5" y="-114" font-family="Helvetica,sans-Serif" font-size="10.00">application.Grid.createCorner</text>
<text text-anchor="middle" x="252" y="-103" font-family="Helvetica,sans-Serif" font-size="10.00">NeighborsMap</text>
</a>
</g>
</g>
<!-- Node1&#45;&gt;Node20 -->
<g id="edge24" class="edge"><title>Node1&#45;&gt;Node20</title>
<path fill="none" stroke="midnightblue" d="M144.313,-111C153.857,-111 163.627,-111 173.193,-111"/>
<polygon fill="midnightblue" stroke="midnightblue" points="144.067,-107.5 134.067,-111 144.067,-114.5 144.067,-107.5"/>
</g>
<!-- Node22 -->
<g id="node22" class="node"><title>Node22</title>
<g id="a_node22"><a xlink:href="../../d3/d32/classapplication_1_1_grid.html#a929ef96f891b8a70b35f8f495706596f" target="_top" xlink:title="application.Grid.createHexagonal\lNeighborsMap">
<polygon fill="white" stroke="black" points="568,-0 568,-30 744,-30 744,-0 568,-0"/>
<text text-anchor="start" x="576" y="-18" font-family="Helvetica,sans-Serif" font-size="10.00">application.Grid.createHexagonal</text>
<text text-anchor="middle" x="656" y="-7" font-family="Helvetica,sans-Serif" font-size="10.00">NeighborsMap</text>
</a>
</g>
</g>
<!-- Node1&#45;&gt;Node22 -->
<g id="edge30" class="edge"><title>Node1&#45;&gt;Node22</title>
<path fill="none" stroke="midnightblue" d="M135.266,-93.5555C146.811,-90.8365 158.72,-88.2028 170,-86 308.227,-59.006 470.433,-37.2405 567.843,-25.2252"/>
<polygon fill="midnightblue" stroke="midnightblue" points="134.149,-90.2241 125.24,-95.958 135.78,-97.0314 134.149,-90.2241"/>
</g>
<!-- Node3 -->
<g id="node3" class="node"><title>Node3</title>
<g id="a_node3"><a xlink:href="../../d3/d32/classapplication_1_1_grid.html#a5d8c63199bedd9c3baee2b9d5f199825" target="_top" xlink:title="application.Grid.createSquare\lNeighborsMap">
<polygon fill="white" stroke="black" points="371.5,-149 371.5,-179 530.5,-179 530.5,-149 371.5,-149"/>
<text text-anchor="start" x="379.5" y="-167" font-family="Helvetica,sans-Serif" font-size="10.00">application.Grid.createSquare</text>
<text text-anchor="middle" x="451" y="-156" font-family="Helvetica,sans-Serif" font-size="10.00">NeighborsMap</text>
</a>
</g>
</g>
<!-- Node2&#45;&gt;Node3 -->
<g id="edge2" class="edge"><title>Node2&#45;&gt;Node3</title>
<path fill="none" stroke="midnightblue" d="M344.417,-174.719C353.453,-173.802 362.569,-172.876 371.459,-171.974"/>
<polygon fill="midnightblue" stroke="midnightblue" points="343.86,-171.258 334.265,-175.75 344.567,-178.222 343.86,-171.258"/>
</g>
<!-- Node4 -->
<g id="node4" class="node"><title>Node4</title>
<g id="a_node4"><a xlink:href="../../d3/d32/classapplication_1_1_grid.html#a84418341012ba47bc37524654a9b4fdf" target="_top" xlink:title="application.Grid.populate\lMatrixNeighborMaps">
<polygon fill="white" stroke="black" points="780,-126 780,-156 916,-156 916,-126 780,-126"/>
<text text-anchor="start" x="788" y="-144" font-family="Helvetica,sans-Serif" font-size="10.00">application.Grid.populate</text>
<text text-anchor="middle" x="848" y="-133" font-family="Helvetica,sans-Serif" font-size="10.00">MatrixNeighborMaps</text>
</a>
</g>
</g>
<!-- Node2&#45;&gt;Node4 -->
<g id="edge23" class="edge"><title>Node2&#45;&gt;Node4</title>
<path fill="none" stroke="midnightblue" d="M286.807,-203.975C309.485,-216.18 340.497,-230.629 370,-237 532.9,-272.176 587.938,-268.468 744,-210 777.257,-197.541 810.432,-172.478 829.815,-156.235"/>
<polygon fill="midnightblue" stroke="midnightblue" points="288.382,-200.846 277.934,-199.085 285.003,-206.977 288.382,-200.846"/>
</g>
<!-- Node18 -->
<g id="node18" class="node"><title>Node18</title>
<g id="a_node18"><a xlink:href="../../d3/d32/classapplication_1_1_grid.html#a2ce9acc3e02b5443dc0243680eec5473" target="_top" xlink:title="application.Grid.createToroidal\lCardinalNeighborsMap">
<polygon fill="white" stroke="black" points="370.5,-198 370.5,-228 531.5,-228 531.5,-198 370.5,-198"/>
<text text-anchor="start" x="378.5" y="-216" font-family="Helvetica,sans-Serif" font-size="10.00">application.Grid.createToroidal</text>
<text text-anchor="middle" x="451" y="-205" font-family="Helvetica,sans-Serif" font-size="10.00">CardinalNeighborsMap</text>
</a>
</g>
</g>
<!-- Node2&#45;&gt;Node18 -->
<g id="edge19" class="edge"><title>Node2&#45;&gt;Node18</title>
<path fill="none" stroke="midnightblue" d="M344.346,-197.447C352.977,-198.717 361.681,-199.999 370.192,-201.252"/>
<polygon fill="midnightblue" stroke="midnightblue" points="344.668,-193.957 334.265,-195.963 343.648,-200.882 344.668,-193.957"/>
</g>
<!-- Node3&#45;&gt;Node4 -->
<g id="edge3" class="edge"><title>Node3&#45;&gt;Node4</title>
<path fill="none" stroke="midnightblue" d="M540.901,-169.716C598.91,-172.114 676.179,-172.797 744,-165 760.052,-163.155 777.239,-159.742 792.884,-156.058"/>
<polygon fill="midnightblue" stroke="midnightblue" points="540.81,-166.208 530.666,-169.267 540.503,-173.202 540.81,-166.208"/>
</g>
<!-- Node5 -->
<g id="node5" class="node"><title>Node5</title>
<g id="a_node5"><a xlink:href="../../d9/d5e/classapplication_1_1_application_loop.html#a903043ba2535055f46dbee6aca8b3eef" target="_top" xlink:title="application.ApplicationLoop.init">
<polygon fill="white" stroke="black" points="952,-131.5 952,-150.5 1116,-150.5 1116,-131.5 952,-131.5"/>
<text text-anchor="middle" x="1034" y="-138.5" font-family="Helvetica,sans-Serif" font-size="10.00">application.ApplicationLoop.init</text>
</a>
</g>
</g>
<!-- Node4&#45;&gt;Node5 -->
<g id="edge4" class="edge"><title>Node4&#45;&gt;Node5</title>
<path fill="none" stroke="midnightblue" d="M926.392,-141C934.824,-141 943.425,-141 951.9,-141"/>
<polygon fill="midnightblue" stroke="midnightblue" points="926.209,-137.5 916.209,-141 926.209,-144.5 926.209,-137.5"/>
</g>
<!-- Node6 -->
<g id="node6" class="node"><title>Node6</title>
<g id="a_node6"><a xlink:href="../../d9/d96/classapplication_1_1_main.html#adc868cfca1990edad66af3dcb8cf4349" target="_top" xlink:title="application.Main.playGame">
<polygon fill="white" stroke="black" points="1152,-131.5 1152,-150.5 1298,-150.5 1298,-131.5 1152,-131.5"/>
<text text-anchor="middle" x="1225" y="-138.5" font-family="Helvetica,sans-Serif" font-size="10.00">application.Main.playGame</text>
</a>
</g>
</g>
<!-- Node5&#45;&gt;Node6 -->
<g id="edge5" class="edge"><title>Node5&#45;&gt;Node6</title>
<path fill="none" stroke="midnightblue" d="M1126.26,-141C1134.82,-141 1143.41,-141 1151.76,-141"/>
<polygon fill="midnightblue" stroke="midnightblue" points="1126.25,-137.5 1116.25,-141 1126.25,-144.5 1126.25,-137.5"/>
</g>
<!-- Node7 -->
<g id="node7" class="node"><title>Node7</title>
<g id="a_node7"><a xlink:href="../../d9/d96/classapplication_1_1_main.html#ada0f47786d75e28e627d2621d75eaf5a" target="_top" xlink:title="application.Main.activate\lStartButton">
<polygon fill="white" stroke="black" points="1334.5,-150 1334.5,-180 1469.5,-180 1469.5,-150 1334.5,-150"/>
<text text-anchor="start" x="1342.5" y="-168" font-family="Helvetica,sans-Serif" font-size="10.00">application.Main.activate</text>
<text text-anchor="middle" x="1402" y="-157" font-family="Helvetica,sans-Serif" font-size="10.00">StartButton</text>
</a>
</g>
</g>
<!-- Node6&#45;&gt;Node7 -->
<g id="edge6" class="edge"><title>Node6&#45;&gt;Node7</title>
<path fill="none" stroke="midnightblue" d="M1305.39,-151.888C1315.03,-153.21 1324.81,-154.55 1334.24,-155.844"/>
<polygon fill="midnightblue" stroke="midnightblue" points="1305.8,-148.411 1295.42,-150.52 1304.85,-155.346 1305.8,-148.411"/>
</g>
<!-- Node8 -->
<g id="node8" class="node"><title>Node8</title>
<g id="a_node8"><a xlink:href="../../d9/d96/classapplication_1_1_main.html#a64e6451d894979853890a235efe37db8" target="_top" xlink:title="application.Main.createStart\lGameButton">
<polygon fill="white" stroke="black" points="1506,-150 1506,-180 1658,-180 1658,-150 1506,-150"/>
<text text-anchor="start" x="1514" y="-168" font-family="Helvetica,sans-Serif" font-size="10.00">application.Main.createStart</text>
<text text-anchor="middle" x="1582" y="-157" font-family="Helvetica,sans-Serif" font-size="10.00">GameButton</text>
</a>
</g>
</g>
<!-- Node7&#45;&gt;Node8 -->
<g id="edge7" class="edge"><title>Node7&#45;&gt;Node8</title>
<path fill="none" stroke="midnightblue" d="M1479.65,-165C1488.34,-165 1497.2,-165 1505.87,-165"/>
<polygon fill="midnightblue" stroke="midnightblue" points="1479.53,-161.5 1469.53,-165 1479.53,-168.5 1479.53,-161.5"/>
</g>
<!-- Node9 -->
<g id="node9" class="node"><title>Node9</title>
<g id="a_node9"><a xlink:href="../../d9/d96/classapplication_1_1_main.html#a5fee6c1b05965eca9205a99e3245a5fb" target="_top" xlink:title="application.Main.populate\lStartPageModules">
<polygon fill="white" stroke="black" points="1694.5,-151 1694.5,-181 1833.5,-181 1833.5,-151 1694.5,-151"/>
<text text-anchor="start" x="1702.5" y="-169" font-family="Helvetica,sans-Serif" font-size="10.00">application.Main.populate</text>
<text text-anchor="middle" x="1764" y="-158" font-family="Helvetica,sans-Serif" font-size="10.00">StartPageModules</text>
</a>
</g>
</g>
<!-- Node8&#45;&gt;Node9 -->
<g id="edge8" class="edge"><title>Node8&#45;&gt;Node9</title>
<path fill="none" stroke="midnightblue" d="M1668.27,-165.474C1677.04,-165.522 1685.86,-165.571 1694.41,-165.619"/>
<polygon fill="midnightblue" stroke="midnightblue" points="1668.05,-161.973 1658.03,-165.417 1668.01,-168.972 1668.05,-161.973"/>
</g>
<!-- Node10 -->
<g id="node10" class="node"><title>Node10</title>
<g id="a_node10"><a xlink:href="../../d9/d96/classapplication_1_1_main.html#a4e5ad4e3de8bbd8654120180a94e870d" target="_top" xlink:title="application.Main.start">
<polygon fill="white" stroke="black" points="1870.5,-156.5 1870.5,-175.5 1989.5,-175.5 1989.5,-156.5 1870.5,-156.5"/>
<text text-anchor="middle" x="1930" y="-163.5" font-family="Helvetica,sans-Serif" font-size="10.00">application.Main.start</text>
</a>
</g>
</g>
<!-- Node9&#45;&gt;Node10 -->
<g id="edge9" class="edge"><title>Node9&#45;&gt;Node10</title>
<path fill="none" stroke="midnightblue" d="M1843.68,-166C1852.64,-166 1861.66,-166 1870.3,-166"/>
<polygon fill="midnightblue" stroke="midnightblue" points="1843.6,-162.5 1833.6,-166 1843.6,-169.5 1843.6,-162.5"/>
</g>
<!-- Node11 -->
<g id="node11" class="node"><title>Node11</title>
<g id="a_node11"><a xlink:href="../../d9/d96/classapplication_1_1_main.html#ad652e3294ffb6519b18d784d5831c76a" target="_top" xlink:title="application.Main.activate\lReturntoStart">
<polygon fill="white" stroke="black" points="2026.5,-151 2026.5,-181 2161.5,-181 2161.5,-151 2026.5,-151"/>
<text text-anchor="start" x="2034.5" y="-169" font-family="Helvetica,sans-Serif" font-size="10.00">application.Main.activate</text>
<text text-anchor="middle" x="2094" y="-158" font-family="Helvetica,sans-Serif" font-size="10.00">ReturntoStart</text>
</a>
</g>
</g>
<!-- Node10&#45;&gt;Node11 -->
<g id="edge10" class="edge"><title>Node10&#45;&gt;Node11</title>
<path fill="none" stroke="midnightblue" d="M2000.08,-166C2008.81,-166 2017.73,-166 2026.42,-166"/>
<polygon fill="midnightblue" stroke="midnightblue" points="1999.94,-162.5 1989.94,-166 1999.94,-169.5 1999.94,-162.5"/>
</g>
<!-- Node12 -->
<g id="node12" class="node"><title>Node12</title>
<g id="a_node12"><a xlink:href="../../d9/d96/classapplication_1_1_main.html#a4c5877fafc53c4fae488f1f30faf294b" target="_top" xlink:title="application.Main.createReturn\lToStartButton">
<polygon fill="white" stroke="black" points="2198,-151 2198,-181 2356,-181 2356,-151 2198,-151"/>
<text text-anchor="start" x="2206" y="-169" font-family="Helvetica,sans-Serif" font-size="10.00">application.Main.createReturn</text>
<text text-anchor="middle" x="2277" y="-158" font-family="Helvetica,sans-Serif" font-size="10.00">ToStartButton</text>
</a>
</g>
</g>
<!-- Node11&#45;&gt;Node12 -->
<g id="edge11" class="edge"><title>Node11&#45;&gt;Node12</title>
<path fill="none" stroke="midnightblue" d="M2171.7,-166C2180.36,-166 2189.19,-166 2197.87,-166"/>
<polygon fill="midnightblue" stroke="midnightblue" points="2171.63,-162.5 2161.63,-166 2171.63,-169.5 2171.63,-162.5"/>
</g>
<!-- Node13 -->
<g id="node13" class="node"><title>Node13</title>
<g id="a_node13"><a xlink:href="../../d9/d96/classapplication_1_1_main.html#a2ddf30fb8360296e1ad3459fe6f920fb" target="_top" xlink:title="application.Main.populate\lGridPageModules">
<polygon fill="white" stroke="black" points="2392.5,-103 2392.5,-133 2531.5,-133 2531.5,-103 2392.5,-103"/>
<text text-anchor="start" x="2400.5" y="-121" font-family="Helvetica,sans-Serif" font-size="10.00">application.Main.populate</text>
<text text-anchor="middle" x="2462" y="-110" font-family="Helvetica,sans-Serif" font-size="10.00">GridPageModules</text>
</a>
</g>
</g>
<!-- Node12&#45;&gt;Node13 -->
<g id="edge12" class="edge"><title>Node12&#45;&gt;Node13</title>
<path fill="none" stroke="midnightblue" d="M2345.29,-148.351C2364.5,-143.311 2385.25,-137.868 2403.8,-133.002"/>
<polygon fill="midnightblue" stroke="midnightblue" points="2344.19,-145.022 2335.4,-150.944 2345.96,-151.792 2344.19,-145.022"/>
</g>
<!-- Node14 -->
<g id="node14" class="node"><title>Node14</title>
<g id="a_node14"><a xlink:href="../../d9/d96/classapplication_1_1_main.html#abcabe1a32eb7b5054cf34ca0def07531" target="_top" xlink:title="application.Main.populate\lErrorPageModules">
<polygon fill="white" stroke="black" points="2392.5,-152 2392.5,-182 2531.5,-182 2531.5,-152 2392.5,-152"/>
<text text-anchor="start" x="2400.5" y="-170" font-family="Helvetica,sans-Serif" font-size="10.00">application.Main.populate</text>
<text text-anchor="middle" x="2462" y="-159" font-family="Helvetica,sans-Serif" font-size="10.00">ErrorPageModules</text>
</a>
</g>
</g>
<!-- Node12&#45;&gt;Node14 -->
<g id="edge14" class="edge"><title>Node12&#45;&gt;Node14</title>
<path fill="none" stroke="midnightblue" d="M2366.36,-166.483C2375.1,-166.531 2383.87,-166.579 2392.37,-166.625"/>
<polygon fill="midnightblue" stroke="midnightblue" points="2366.16,-162.982 2356.14,-166.427 2366.12,-169.982 2366.16,-162.982"/>
</g>
<!-- Node13&#45;&gt;Node6 -->
<g id="edge13" class="edge"><title>Node13&#45;&gt;Node6</title>
<path fill="none" stroke="midnightblue" d="M2382.01,-118.34C2307.88,-118.63 2193.92,-119 2095,-119 1581,-119 1581,-119 1581,-119 1482.97,-119 1370.01,-127.46 1298.33,-133.888"/>
<polygon fill="midnightblue" stroke="midnightblue" points="2382.21,-121.84 2392.19,-118.3 2382.18,-114.84 2382.21,-121.84"/>
</g>
<!-- Node15 -->
<g id="node15" class="node"><title>Node15</title>
<g id="a_node15"><a xlink:href="../../d9/d96/classapplication_1_1_main.html#a81e70f73d65beae34c459628791cc5d4" target="_top" xlink:title="application.Main.activate\lErrorPage">
<polygon fill="white" stroke="black" points="2568.5,-152 2568.5,-182 2703.5,-182 2703.5,-152 2568.5,-152"/>
<text text-anchor="start" x="2576.5" y="-170" font-family="Helvetica,sans-Serif" font-size="10.00">application.Main.activate</text>
<text text-anchor="middle" x="2636" y="-159" font-family="Helvetica,sans-Serif" font-size="10.00">ErrorPage</text>
</a>
</g>
</g>
<!-- Node14&#45;&gt;Node15 -->
<g id="edge15" class="edge"><title>Node14&#45;&gt;Node15</title>
<path fill="none" stroke="midnightblue" d="M2542.15,-167C2550.88,-167 2559.7,-167 2568.25,-167"/>
<polygon fill="midnightblue" stroke="midnightblue" points="2541.97,-163.5 2531.97,-167 2541.97,-170.5 2541.97,-163.5"/>
</g>
<!-- Node16 -->
<g id="node16" class="node"><title>Node16</title>
<g id="a_node16"><a xlink:href="../../d9/d96/classapplication_1_1_main.html#aef0593911aa3cbc594ac75bbb8d6a2b0" target="_top" xlink:title="application.Main.activate\lImportXMLButton">
<polygon fill="white" stroke="black" points="2740.5,-152 2740.5,-182 2875.5,-182 2875.5,-152 2740.5,-152"/>
<text text-anchor="start" x="2748.5" y="-170" font-family="Helvetica,sans-Serif" font-size="10.00">application.Main.activate</text>
<text text-anchor="middle" x="2808" y="-159" font-family="Helvetica,sans-Serif" font-size="10.00">ImportXMLButton</text>
</a>
</g>
</g>
<!-- Node15&#45;&gt;Node16 -->
<g id="edge16" class="edge"><title>Node15&#45;&gt;Node16</title>
<path fill="none" stroke="midnightblue" d="M2713.72,-167C2722.65,-167 2731.71,-167 2740.49,-167"/>
<polygon fill="midnightblue" stroke="midnightblue" points="2713.7,-163.5 2703.7,-167 2713.7,-170.5 2713.7,-163.5"/>
</g>
<!-- Node17 -->
<g id="node17" class="node"><title>Node17</title>
<g id="a_node17"><a xlink:href="../../d9/d96/classapplication_1_1_main.html#a18021492af2e457d39edcbd16dc0d3c8" target="_top" xlink:title="application.Main.createImport\lXMLButton">
<polygon fill="white" stroke="black" points="2912.5,-174 2912.5,-204 3071.5,-204 3071.5,-174 2912.5,-174"/>
<text text-anchor="start" x="2920.5" y="-192" font-family="Helvetica,sans-Serif" font-size="10.00">application.Main.createImport</text>
<text text-anchor="middle" x="2992" y="-181" font-family="Helvetica,sans-Serif" font-size="10.00">XMLButton</text>
</a>
</g>
</g>
<!-- Node16&#45;&gt;Node17 -->
<g id="edge17" class="edge"><title>Node16&#45;&gt;Node17</title>
<path fill="none" stroke="midnightblue" d="M2885.87,-176.292C2894.59,-177.346 2903.49,-178.422 2912.24,-179.479"/>
<polygon fill="midnightblue" stroke="midnightblue" points="2886.08,-172.793 2875.74,-175.067 2885.24,-179.742 2886.08,-172.793"/>
</g>
<!-- Node17&#45;&gt;Node9 -->
<g id="edge18" class="edge"><title>Node17&#45;&gt;Node9</title>
<path fill="none" stroke="midnightblue" d="M2902.03,-197.596C2830.5,-203.768 2727.38,-211 2637,-211 2093,-211 2093,-211 2093,-211 2002.76,-211 1899.84,-194.075 1833.73,-180.984"/>
<polygon fill="midnightblue" stroke="midnightblue" points="2902.69,-201.052 2912.35,-196.695 2902.08,-194.078 2902.69,-201.052"/>
</g>
<!-- Node18&#45;&gt;Node4 -->
<g id="edge22" class="edge"><title>Node18&#45;&gt;Node4</title>
<path fill="none" stroke="midnightblue" d="M542.043,-210.361C600.357,-207.041 677.536,-199.602 744,-183 769.293,-176.682 796.553,-165.348 816.672,-156.045"/>
<polygon fill="midnightblue" stroke="midnightblue" points="541.547,-206.883 531.75,-210.916 541.924,-213.873 541.547,-206.883"/>
</g>
<!-- Node19 -->
<g id="node19" class="node"><title>Node19</title>
<g id="a_node19"><a xlink:href="../../d3/d32/classapplication_1_1_grid.html#ae06467dd7272ca7e584a866886a2946e" target="_top" xlink:title="application.Grid.createToroidal\lSquareNeighborsMap">
<polygon fill="white" stroke="black" points="575.5,-126 575.5,-156 736.5,-156 736.5,-126 575.5,-126"/>
<text text-anchor="start" x="583.5" y="-144" font-family="Helvetica,sans-Serif" font-size="10.00">application.Grid.createToroidal</text>
<text text-anchor="middle" x="656" y="-133" font-family="Helvetica,sans-Serif" font-size="10.00">SquareNeighborsMap</text>
</a>
</g>
</g>
<!-- Node18&#45;&gt;Node19 -->
<g id="edge20" class="edge"><title>Node18&#45;&gt;Node19</title>
<path fill="none" stroke="midnightblue" d="M511.967,-194.705C518.744,-192.506 525.534,-190.243 532,-188 560.94,-177.96 593.284,-165.553 617.539,-156.008"/>
<polygon fill="midnightblue" stroke="midnightblue" points="510.541,-191.487 502.087,-197.873 512.678,-198.153 510.541,-191.487"/>
</g>
<!-- Node19&#45;&gt;Node4 -->
<g id="edge21" class="edge"><title>Node19&#45;&gt;Node4</title>
<path fill="none" stroke="midnightblue" d="M746.88,-141C757.957,-141 769.127,-141 779.785,-141"/>
<polygon fill="midnightblue" stroke="midnightblue" points="746.751,-137.5 736.751,-141 746.751,-144.5 746.751,-137.5"/>
</g>
<!-- Node20&#45;&gt;Node3 -->
<g id="edge25" class="edge"><title>Node20&#45;&gt;Node3</title>
<path fill="none" stroke="midnightblue" d="M318.803,-128.703C343.159,-135.256 370.524,-142.618 393.935,-148.916"/>
<polygon fill="midnightblue" stroke="midnightblue" points="319.491,-125.264 308.925,-126.046 317.673,-132.024 319.491,-125.264"/>
</g>
<!-- Node20&#45;&gt;Node4 -->
<g id="edge29" class="edge"><title>Node20&#45;&gt;Node4</title>
<path fill="none" stroke="midnightblue" d="M321.725,-93.7985C337.485,-90.5575 354.242,-87.6648 370,-86 535.494,-68.5164 581.409,-68.5308 744,-104 767.205,-109.062 792.306,-118.002 811.919,-125.826"/>
<polygon fill="midnightblue" stroke="midnightblue" points="320.584,-90.4629 311.532,-95.9691 322.042,-97.3093 320.584,-90.4629"/>
</g>
<!-- Node21 -->
<g id="node21" class="node"><title>Node21</title>
<g id="a_node21"><a xlink:href="../../d3/d32/classapplication_1_1_grid.html#a7e36b15310e2328fd289887bd3eda478" target="_top" xlink:title="application.Grid.createToroidal\lCornerNeighborsMap">
<polygon fill="white" stroke="black" points="370.5,-96 370.5,-126 531.5,-126 531.5,-96 370.5,-96"/>
<text text-anchor="start" x="378.5" y="-114" font-family="Helvetica,sans-Serif" font-size="10.00">application.Grid.createToroidal</text>
<text text-anchor="middle" x="451" y="-103" font-family="Helvetica,sans-Serif" font-size="10.00">CornerNeighborsMap</text>
</a>
</g>
</g>
<!-- Node20&#45;&gt;Node21 -->
<g id="edge26" class="edge"><title>Node20&#45;&gt;Node21</title>
<path fill="none" stroke="midnightblue" d="M340.739,-111C350.556,-111 360.518,-111 370.228,-111"/>
<polygon fill="midnightblue" stroke="midnightblue" points="340.577,-107.5 330.577,-111 340.577,-114.5 340.577,-107.5"/>
</g>
<!-- Node21&#45;&gt;Node4 -->
<g id="edge28" class="edge"><title>Node21&#45;&gt;Node4</title>
<path fill="none" stroke="midnightblue" d="M541.884,-107.432C599.816,-106.389 676.634,-107.356 744,-116 760.7,-118.143 778.621,-121.948 794.756,-125.953"/>
<polygon fill="midnightblue" stroke="midnightblue" points="541.586,-103.937 531.659,-107.64 541.728,-110.936 541.586,-103.937"/>
</g>
<!-- Node21&#45;&gt;Node19 -->
<g id="edge27" class="edge"><title>Node21&#45;&gt;Node19</title>
<path fill="none" stroke="midnightblue" d="M541.808,-124.272C552.947,-125.918 564.275,-127.592 575.248,-129.214"/>
<polygon fill="midnightblue" stroke="midnightblue" points="542.053,-120.77 531.648,-122.771 541.029,-127.695 542.053,-120.77"/>
</g>
<!-- Node22&#45;&gt;Node4 -->
<g id="edge31" class="edge"><title>Node22&#45;&gt;Node4</title>
<path fill="none" stroke="midnightblue" d="M721.496,-33.7919C729.306,-37.0598 736.99,-40.7872 744,-45 781.294,-67.4137 816.523,-105.07 834.528,-125.937"/>
<polygon fill="midnightblue" stroke="midnightblue" points="722.532,-30.4384 711.945,-30.0321 719.968,-36.9519 722.532,-30.4384"/>
</g>
</g>
</svg>
