<?xml version="1.0" encoding="UTF-8" standalone="no"?>
<!DOCTYPE svg PUBLIC "-//W3C//DTD SVG 1.1//EN"
 "http://www.w3.org/Graphics/SVG/1.1/DTD/svg11.dtd">
<!-- Generated by graphviz version 2.36.0 (20140111.2315)
 -->
<!-- Title: application.Grid.initializeAndPopulateMatrix Pages: 1 -->
<svg width="2520pt" height="116pt"
 viewBox="0.00 0.00 2520.00 116.00" xmlns="http://www.w3.org/2000/svg" xmlns:xlink="http://www.w3.org/1999/xlink">
<g id="graph0" class="graph" transform="scale(1 1) rotate(0) translate(4 112)">
<title>application.Grid.initializeAndPopulateMatrix</title>
<polygon fill="white" stroke="none" points="-4,4 -4,-112 2516,-112 2516,4 -4,4"/>
<!-- Node1 -->
<g id="node1" class="node"><title>Node1</title>
<polygon fill="#bfbfbf" stroke="black" points="0,-24 0,-54 132,-54 132,-24 0,-24"/>
<text text-anchor="start" x="8" y="-42" font-family="Helvetica,sans-Serif" font-size="10.00">application.Grid.initialize</text>
<text text-anchor="middle" x="66" y="-31" font-family="Helvetica,sans-Serif" font-size="10.00">AndPopulateMatrix</text>
</g>
<!-- Node2 -->
<g id="node2" class="node"><title>Node2</title>
<g id="a_node2"><a xlink:href="../../d9/d5e/classapplication_1_1_application_loop.html#ae6fc4b7d381bb5b4d4ba3eb4bb69c078" target="_top" xlink:title="application.ApplicationLoop.initialize\lGridPane">
<polygon fill="white" stroke="black" points="168,-24 168,-54 356,-54 356,-24 168,-24"/>
<text text-anchor="start" x="176" y="-42" font-family="Helvetica,sans-Serif" font-size="10.00">application.ApplicationLoop.initialize</text>
<text text-anchor="middle" x="262" y="-31" font-family="Helvetica,sans-Serif" font-size="10.00">GridPane</text>
</a>
</g>
</g>
<!-- Node1&#45;&gt;Node2 -->
<g id="edge1" class="edge"><title>Node1&#45;&gt;Node2</title>
<path fill="none" stroke="midnightblue" d="M142.215,-39C150.584,-39 159.18,-39 167.738,-39"/>
<polygon fill="midnightblue" stroke="midnightblue" points="142.139,-35.5001 132.139,-39 142.139,-42.5001 142.139,-35.5001"/>
</g>
<!-- Node3 -->
<g id="node3" class="node"><title>Node3</title>
<g id="a_node3"><a xlink:href="../../d9/d5e/classapplication_1_1_application_loop.html#a903043ba2535055f46dbee6aca8b3eef" target="_top" xlink:title="application.ApplicationLoop.init">
<polygon fill="white" stroke="black" points="392,-29.5 392,-48.5 556,-48.5 556,-29.5 392,-29.5"/>
<text text-anchor="middle" x="474" y="-36.5" font-family="Helvetica,sans-Serif" font-size="10.00">application.ApplicationLoop.init</text>
</a>
</g>
</g>
<!-- Node2&#45;&gt;Node3 -->
<g id="edge2" class="edge"><title>Node2&#45;&gt;Node3</title>
<path fill="none" stroke="midnightblue" d="M366.152,-39C374.796,-39 383.456,-39 391.899,-39"/>
<polygon fill="midnightblue" stroke="midnightblue" points="366.026,-35.5001 356.026,-39 366.026,-42.5001 366.026,-35.5001"/>
</g>
<!-- Node4 -->
<g id="node4" class="node"><title>Node4</title>
<g id="a_node4"><a xlink:href="../../d9/d96/classapplication_1_1_main.html#adc868cfca1990edad66af3dcb8cf4349" target="_top" xlink:title="application.Main.playGame">
<polygon fill="white" stroke="black" points="592,-29.5 592,-48.5 738,-48.5 738,-29.5 592,-29.5"/>
<text text-anchor="middle" x="665" y="-36.5" font-family="Helvetica,sans-Serif" font-size="10.00">application.Main.playGame</text>
</a>
</g>
</g>
<!-- Node3&#45;&gt;Node4 -->
<g id="edge3" class="edge"><title>Node3&#45;&gt;Node4</title>
<path fill="none" stroke="midnightblue" d="M566.261,-39C574.817,-39 583.409,-39 591.755,-39"/>
<polygon fill="midnightblue" stroke="midnightblue" points="566.25,-35.5001 556.25,-39 566.25,-42.5001 566.25,-35.5001"/>
</g>
<!-- Node5 -->
<g id="node5" class="node"><title>Node5</title>
<g id="a_node5"><a xlink:href="../../d9/d96/classapplication_1_1_main.html#ada0f47786d75e28e627d2621d75eaf5a" target="_top" xlink:title="application.Main.activate\lStartButton">
<polygon fill="white" stroke="black" points="774.5,-46 774.5,-76 909.5,-76 909.5,-46 774.5,-46"/>
<text text-anchor="start" x="782.5" y="-64" font-family="Helvetica,sans-Serif" font-size="10.00">application.Main.activate</text>
<text text-anchor="middle" x="842" y="-53" font-family="Helvetica,sans-Serif" font-size="10.00">StartButton</text>
</a>
</g>
</g>
<!-- Node4&#45;&gt;Node5 -->
<g id="edge4" class="edge"><title>Node4&#45;&gt;Node5</title>
<path fill="none" stroke="midnightblue" d="M748.351,-49.3527C757.052,-50.4465 765.82,-51.5489 774.312,-52.6163"/>
<polygon fill="midnightblue" stroke="midnightblue" points="748.548,-45.85 738.19,-48.0753 747.675,-52.7953 748.548,-45.85"/>
</g>
<!-- Node6 -->
<g id="node6" class="node"><title>Node6</title>
<g id="a_node6"><a xlink:href="../../d9/d96/classapplication_1_1_main.html#a64e6451d894979853890a235efe37db8" target="_top" xlink:title="application.Main.createStart\lGameButton">
<polygon fill="white" stroke="black" points="946,-47 946,-77 1098,-77 1098,-47 946,-47"/>
<text text-anchor="start" x="954" y="-65" font-family="Helvetica,sans-Serif" font-size="10.00">application.Main.createStart</text>
<text text-anchor="middle" x="1022" y="-54" font-family="Helvetica,sans-Serif" font-size="10.00">GameButton</text>
</a>
</g>
</g>
<!-- Node5&#45;&gt;Node6 -->
<g id="edge5" class="edge"><title>Node5&#45;&gt;Node6</title>
<path fill="none" stroke="midnightblue" d="M919.646,-61.4306C928.341,-61.4794 937.196,-61.5292 945.871,-61.5779"/>
<polygon fill="midnightblue" stroke="midnightblue" points="919.553,-57.9301 909.534,-61.3738 919.514,-64.93 919.553,-57.9301"/>
</g>
<!-- Node7 -->
<g id="node7" class="node"><title>Node7</title>
<g id="a_node7"><a xlink:href="../../d9/d96/classapplication_1_1_main.html#a5fee6c1b05965eca9205a99e3245a5fb" target="_top" xlink:title="application.Main.populate\lStartPageModules">
<polygon fill="white" stroke="black" points="1134.5,-48 1134.5,-78 1273.5,-78 1273.5,-48 1134.5,-48"/>
<text text-anchor="start" x="1142.5" y="-66" font-family="Helvetica,sans-Serif" font-size="10.00">application.Main.populate</text>
<text text-anchor="middle" x="1204" y="-55" font-family="Helvetica,sans-Serif" font-size="10.00">StartPageModules</text>
</a>
</g>
</g>
<!-- Node6&#45;&gt;Node7 -->
<g id="edge6" class="edge"><title>Node6&#45;&gt;Node7</title>
<path fill="none" stroke="midnightblue" d="M1108.27,-62.4737C1117.04,-62.5224 1125.86,-62.5715 1134.41,-62.619"/>
<polygon fill="midnightblue" stroke="midnightblue" points="1108.05,-58.9726 1098.03,-62.4168 1108.01,-65.9724 1108.05,-58.9726"/>
</g>
<!-- Node8 -->
<g id="node8" class="node"><title>Node8</title>
<g id="a_node8"><a xlink:href="../../d9/d96/classapplication_1_1_main.html#a4e5ad4e3de8bbd8654120180a94e870d" target="_top" xlink:title="application.Main.start">
<polygon fill="white" stroke="black" points="1310.5,-53.5 1310.5,-72.5 1429.5,-72.5 1429.5,-53.5 1310.5,-53.5"/>
<text text-anchor="middle" x="1370" y="-60.5" font-family="Helvetica,sans-Serif" font-size="10.00">application.Main.start</text>
</a>
</g>
</g>
<!-- Node7&#45;&gt;Node8 -->
<g id="edge7" class="edge"><title>Node7&#45;&gt;Node8</title>
<path fill="none" stroke="midnightblue" d="M1283.68,-63C1292.64,-63 1301.66,-63 1310.3,-63"/>
<polygon fill="midnightblue" stroke="midnightblue" points="1283.6,-59.5001 1273.6,-63 1283.6,-66.5001 1283.6,-59.5001"/>
</g>
<!-- Node9 -->
<g id="node9" class="node"><title>Node9</title>
<g id="a_node9"><a xlink:href="../../d9/d96/classapplication_1_1_main.html#ad652e3294ffb6519b18d784d5831c76a" target="_top" xlink:title="application.Main.activate\lReturntoStart">
<polygon fill="white" stroke="black" points="1466.5,-48 1466.5,-78 1601.5,-78 1601.5,-48 1466.5,-48"/>
<text text-anchor="start" x="1474.5" y="-66" font-family="Helvetica,sans-Serif" font-size="10.00">application.Main.activate</text>
<text text-anchor="middle" x="1534" y="-55" font-family="Helvetica,sans-Serif" font-size="10.00">ReturntoStart</text>
</a>
</g>
</g>
<!-- Node8&#45;&gt;Node9 -->
<g id="edge8" class="edge"><title>Node8&#45;&gt;Node9</title>
<path fill="none" stroke="midnightblue" d="M1440.08,-63C1448.81,-63 1457.73,-63 1466.42,-63"/>
<polygon fill="midnightblue" stroke="midnightblue" points="1439.94,-59.5001 1429.94,-63 1439.94,-66.5001 1439.94,-59.5001"/>
</g>
<!-- Node10 -->
<g id="node10" class="node"><title>Node10</title>
<g id="a_node10"><a xlink:href="../../d9/d96/classapplication_1_1_main.html#a4c5877fafc53c4fae488f1f30faf294b" target="_top" xlink:title="application.Main.createReturn\lToStartButton">
<polygon fill="white" stroke="black" points="1638,-48 1638,-78 1796,-78 1796,-48 1638,-48"/>
<text text-anchor="start" x="1646" y="-66" font-family="Helvetica,sans-Serif" font-size="10.00">application.Main.createReturn</text>
<text text-anchor="middle" x="1717" y="-55" font-family="Helvetica,sans-Serif" font-size="10.00">ToStartButton</text>
</a>
</g>
</g>
<!-- Node9&#45;&gt;Node10 -->
<g id="edge9" class="edge"><title>Node9&#45;&gt;Node10</title>
<path fill="none" stroke="midnightblue" d="M1611.7,-63C1620.36,-63 1629.19,-63 1637.87,-63"/>
<polygon fill="midnightblue" stroke="midnightblue" points="1611.63,-59.5001 1601.63,-63 1611.63,-66.5001 1611.63,-59.5001"/>
</g>
<!-- Node11 -->
<g id="node11" class="node"><title>Node11</title>
<g id="a_node11"><a xlink:href="../../d9/d96/classapplication_1_1_main.html#a2ddf30fb8360296e1ad3459fe6f920fb" target="_top" xlink:title="application.Main.populate\lGridPageModules">
<polygon fill="white" stroke="black" points="1832.5,-0 1832.5,-30 1971.5,-30 1971.5,-0 1832.5,-0"/>
<text text-anchor="start" x="1840.5" y="-18" font-family="Helvetica,sans-Serif" font-size="10.00">application.Main.populate</text>
<text text-anchor="middle" x="1902" y="-7" font-family="Helvetica,sans-Serif" font-size="10.00">GridPageModules</text>
</a>
</g>
</g>
<!-- Node10&#45;&gt;Node11 -->
<g id="edge10" class="edge"><title>Node10&#45;&gt;Node11</title>
<path fill="none" stroke="midnightblue" d="M1785.29,-45.3505C1804.5,-40.3106 1825.25,-34.868 1843.8,-30.0024"/>
<polygon fill="midnightblue" stroke="midnightblue" points="1784.19,-42.0215 1775.4,-47.9442 1785.96,-48.7925 1784.19,-42.0215"/>
</g>
<!-- Node12 -->
<g id="node12" class="node"><title>Node12</title>
<g id="a_node12"><a xlink:href="../../d9/d96/classapplication_1_1_main.html#abcabe1a32eb7b5054cf34ca0def07531" target="_top" xlink:title="application.Main.populate\lErrorPageModules">
<polygon fill="white" stroke="black" points="1832.5,-49 1832.5,-79 1971.5,-79 1971.5,-49 1832.5,-49"/>
<text text-anchor="start" x="1840.5" y="-67" font-family="Helvetica,sans-Serif" font-size="10.00">application.Main.populate</text>
<text text-anchor="middle" x="1902" y="-56" font-family="Helvetica,sans-Serif" font-size="10.00">ErrorPageModules</text>
</a>
</g>
</g>
<!-- Node10&#45;&gt;Node12 -->
<g id="edge12" class="edge"><title>Node10&#45;&gt;Node12</title>
<path fill="none" stroke="midnightblue" d="M1806.36,-63.4828C1815.1,-63.5306 1823.87,-63.5785 1832.37,-63.6249"/>
<polygon fill="midnightblue" stroke="midnightblue" points="1806.16,-59.9818 1796.14,-63.427 1806.12,-66.9817 1806.16,-59.9818"/>
</g>
<!-- Node11&#45;&gt;Node4 -->
<g id="edge11" class="edge"><title>Node11&#45;&gt;Node4</title>
<path fill="none" stroke="midnightblue" d="M1822.01,-15.6807C1747.88,-16.2604 1633.92,-17 1535,-17 1021,-17 1021,-17 1021,-17 922.972,-17 810.008,-25.46 738.328,-31.8876"/>
<polygon fill="midnightblue" stroke="midnightblue" points="1822.22,-19.1792 1832.2,-15.6001 1822.17,-12.1794 1822.22,-19.1792"/>
</g>
<!-- Node13 -->
<g id="node13" class="node"><title>Node13</title>
<g id="a_node13"><a xlink:href="../../d9/d96/classapplication_1_1_main.html#a81e70f73d65beae34c459628791cc5d4" target="_top" xlink:title="application.Main.activate\lErrorPage">
<polygon fill="white" stroke="black" points="2008.5,-49 2008.5,-79 2143.5,-79 2143.5,-49 2008.5,-49"/>
<text text-anchor="start" x="2016.5" y="-67" font-family="Helvetica,sans-Serif" font-size="10.00">application.Main.activate</text>
<text text-anchor="middle" x="2076" y="-56" font-family="Helvetica,sans-Serif" font-size="10.00">ErrorPage</text>
</a>
</g>
</g>
<!-- Node12&#45;&gt;Node13 -->
<g id="edge13" class="edge"><title>Node12&#45;&gt;Node13</title>
<path fill="none" stroke="midnightblue" d="M1982.15,-64C1990.88,-64 1999.7,-64 2008.25,-64"/>
<polygon fill="midnightblue" stroke="midnightblue" points="1981.97,-60.5001 1971.97,-64 1981.97,-67.5001 1981.97,-60.5001"/>
</g>
<!-- Node14 -->
<g id="node14" class="node"><title>Node14</title>
<g id="a_node14"><a xlink:href="../../d9/d96/classapplication_1_1_main.html#aef0593911aa3cbc594ac75bbb8d6a2b0" target="_top" xlink:title="application.Main.activate\lImportXMLButton">
<polygon fill="white" stroke="black" points="2180.5,-49 2180.5,-79 2315.5,-79 2315.5,-49 2180.5,-49"/>
<text text-anchor="start" x="2188.5" y="-67" font-family="Helvetica,sans-Serif" font-size="10.00">application.Main.activate</text>
<text text-anchor="middle" x="2248" y="-56" font-family="Helvetica,sans-Serif" font-size="10.00">ImportXMLButton</text>
</a>
</g>
</g>
<!-- Node13&#45;&gt;Node14 -->
<g id="edge14" class="edge"><title>Node13&#45;&gt;Node14</title>
<path fill="none" stroke="midnightblue" d="M2153.72,-64C2162.65,-64 2171.71,-64 2180.49,-64"/>
<polygon fill="midnightblue" stroke="midnightblue" points="2153.7,-60.5001 2143.7,-64 2153.7,-67.5001 2153.7,-60.5001"/>
</g>
<!-- Node15 -->
<g id="node15" class="node"><title>Node15</title>
<g id="a_node15"><a xlink:href="../../d9/d96/classapplication_1_1_main.html#a18021492af2e457d39edcbd16dc0d3c8" target="_top" xlink:title="application.Main.createImport\lXMLButton">
<polygon fill="white" stroke="black" points="2352.5,-71 2352.5,-101 2511.5,-101 2511.5,-71 2352.5,-71"/>
<text text-anchor="start" x="2360.5" y="-89" font-family="Helvetica,sans-Serif" font-size="10.00">application.Main.createImport</text>
<text text-anchor="middle" x="2432" y="-78" font-family="Helvetica,sans-Serif" font-size="10.00">XMLButton</text>
</a>
</g>
</g>
<!-- Node14&#45;&gt;Node15 -->
<g id="edge15" class="edge"><title>Node14&#45;&gt;Node15</title>
<path fill="none" stroke="midnightblue" d="M2325.87,-73.2923C2334.59,-74.3465 2343.49,-75.4221 2352.24,-76.4792"/>
<polygon fill="midnightblue" stroke="midnightblue" points="2326.08,-69.7925 2315.74,-72.0671 2325.24,-76.7419 2326.08,-69.7925"/>
</g>
<!-- Node15&#45;&gt;Node7 -->
<g id="edge16" class="edge"><title>Node15&#45;&gt;Node7</title>
<path fill="none" stroke="midnightblue" d="M2342.03,-94.5964C2270.5,-100.768 2167.38,-108 2077,-108 1533,-108 1533,-108 1533,-108 1442.76,-108 1339.84,-91.0749 1273.73,-77.9843"/>
<polygon fill="midnightblue" stroke="midnightblue" points="2342.69,-98.0519 2352.35,-93.6945 2342.08,-91.0785 2342.69,-98.0519"/>
</g>
</g>
</svg>
