<?xml version="1.0" encoding="UTF-8" standalone="no"?>
<!DOCTYPE svg PUBLIC "-//W3C//DTD SVG 1.1//EN"
 "http://www.w3.org/Graphics/SVG/1.1/DTD/svg11.dtd">
<!-- Generated by graphviz version 2.36.0 (20140111.2315)
 -->
<!-- Title: application.Grid.checkBounds Pages: 1 -->
<svg width="3274pt" height="283pt"
 viewBox="0.00 0.00 3274.00 282.91" xmlns="http://www.w3.org/2000/svg" xmlns:xlink="http://www.w3.org/1999/xlink">
<g id="graph0" class="graph" transform="scale(1 1) rotate(0) translate(4 278.91)">
<title>application.Grid.checkBounds</title>
<polygon fill="white" stroke="none" points="-4,4 -4,-278.91 3270,-278.91 3270,4 -4,4"/>
<!-- Node1 -->
<g id="node1" class="node"><title>Node1</title>
<polygon fill="#bfbfbf" stroke="black" points="0,-73.4103 0,-92.4103 158,-92.4103 158,-73.4103 0,-73.4103"/>
<text text-anchor="middle" x="79" y="-80.4103" font-family="Helvetica,sans-Serif" font-size="10.00">application.Grid.checkBounds</text>
</g>
<!-- Node2 -->
<g id="node2" class="node"><title>Node2</title>
<g id="a_node2"><a xlink:href="../../d3/d32/classapplication_1_1_grid.html#ac41429427f1a5cae5d81a8d2b0472ad0" target="_top" xlink:title="application.Grid.addCells\lToMap">
<polygon fill="white" stroke="black" points="194,-135.91 194,-165.91 328,-165.91 328,-135.91 194,-135.91"/>
<text text-anchor="start" x="202" y="-153.91" font-family="Helvetica,sans-Serif" font-size="10.00">application.Grid.addCells</text>
<text text-anchor="middle" x="261" y="-142.91" font-family="Helvetica,sans-Serif" font-size="10.00">ToMap</text>
</a>
</g>
</g>
<!-- Node1&#45;&gt;Node2 -->
<g id="edge1" class="edge"><title>Node1&#45;&gt;Node2</title>
<path fill="none" stroke="midnightblue" d="M115.085,-96.1648C145.234,-107.554 188.692,-123.972 220.146,-135.854"/>
<polygon fill="midnightblue" stroke="midnightblue" points="115.999,-92.7687 105.408,-92.5088 113.526,-99.317 115.999,-92.7687"/>
</g>
<!-- Node19 -->
<g id="node19" class="node"><title>Node19</title>
<g id="a_node19"><a xlink:href="../../d3/d32/classapplication_1_1_grid.html#a2ce9acc3e02b5443dc0243680eec5473" target="_top" xlink:title="application.Grid.createToroidal\lCardinalNeighborsMap">
<polygon fill="white" stroke="black" points="564.5,-67.9103 564.5,-97.9103 725.5,-97.9103 725.5,-67.9103 564.5,-67.9103"/>
<text text-anchor="start" x="572.5" y="-85.9103" font-family="Helvetica,sans-Serif" font-size="10.00">application.Grid.createToroidal</text>
<text text-anchor="middle" x="645" y="-74.9103" font-family="Helvetica,sans-Serif" font-size="10.00">CardinalNeighborsMap</text>
</a>
</g>
</g>
<!-- Node1&#45;&gt;Node19 -->
<g id="edge33" class="edge"><title>Node1&#45;&gt;Node19</title>
<path fill="none" stroke="midnightblue" d="M168.404,-82.9103C277.061,-82.9103 459.842,-82.9103 564.334,-82.9103"/>
<polygon fill="midnightblue" stroke="midnightblue" points="168.126,-79.4104 158.125,-82.9103 168.125,-86.4104 168.126,-79.4104"/>
</g>
<!-- Node22 -->
<g id="node22" class="node"><title>Node22</title>
<g id="a_node22"><a xlink:href="../../d3/d32/classapplication_1_1_grid.html#a7e36b15310e2328fd289887bd3eda478" target="_top" xlink:title="application.Grid.createToroidal\lCornerNeighborsMap">
<polygon fill="white" stroke="black" points="564.5,-18.9103 564.5,-48.9103 725.5,-48.9103 725.5,-18.9103 564.5,-18.9103"/>
<text text-anchor="start" x="572.5" y="-36.9103" font-family="Helvetica,sans-Serif" font-size="10.00">application.Grid.createToroidal</text>
<text text-anchor="middle" x="645" y="-25.9103" font-family="Helvetica,sans-Serif" font-size="10.00">CornerNeighborsMap</text>
</a>
</g>
</g>
<!-- Node1&#45;&gt;Node22 -->
<g id="edge34" class="edge"><title>Node1&#45;&gt;Node22</title>
<path fill="none" stroke="midnightblue" d="M168.404,-75.2298C277.061,-65.7898 459.842,-49.9098 564.334,-40.8316"/>
<polygon fill="midnightblue" stroke="midnightblue" points="167.785,-71.7703 158.125,-76.1228 168.391,-78.744 167.785,-71.7703"/>
</g>
<!-- Node3 -->
<g id="node3" class="node"><title>Node3</title>
<g id="a_node3"><a xlink:href="../../d3/d32/classapplication_1_1_grid.html#ae805f0f4d572a70e090900fbd8d8bad7" target="_top" xlink:title="application.Grid.createCardinal\lNeighborsMap">
<polygon fill="white" stroke="black" points="364,-160.91 364,-190.91 528,-190.91 528,-160.91 364,-160.91"/>
<text text-anchor="start" x="372" y="-178.91" font-family="Helvetica,sans-Serif" font-size="10.00">application.Grid.createCardinal</text>
<text text-anchor="middle" x="446" y="-167.91" font-family="Helvetica,sans-Serif" font-size="10.00">NeighborsMap</text>
</a>
</g>
</g>
<!-- Node2&#45;&gt;Node3 -->
<g id="edge2" class="edge"><title>Node2&#45;&gt;Node3</title>
<path fill="none" stroke="midnightblue" d="M338.227,-161.324C346.645,-162.474 355.241,-163.648 363.718,-164.806"/>
<polygon fill="midnightblue" stroke="midnightblue" points="338.449,-157.822 328.067,-159.936 337.501,-164.757 338.449,-157.822"/>
</g>
<!-- Node21 -->
<g id="node21" class="node"><title>Node21</title>
<g id="a_node21"><a xlink:href="../../d3/d32/classapplication_1_1_grid.html#a66a821d455f974dbfaba0e89348c4e66" target="_top" xlink:title="application.Grid.createCorner\lNeighborsMap">
<polygon fill="white" stroke="black" points="367.5,-111.91 367.5,-141.91 524.5,-141.91 524.5,-111.91 367.5,-111.91"/>
<text text-anchor="start" x="375.5" y="-129.91" font-family="Helvetica,sans-Serif" font-size="10.00">application.Grid.createCorner</text>
<text text-anchor="middle" x="446" y="-118.91" font-family="Helvetica,sans-Serif" font-size="10.00">NeighborsMap</text>
</a>
</g>
</g>
<!-- Node2&#45;&gt;Node21 -->
<g id="edge25" class="edge"><title>Node2&#45;&gt;Node21</title>
<path fill="none" stroke="midnightblue" d="M338.009,-140.942C347.649,-139.678 357.525,-138.382 367.193,-137.115"/>
<polygon fill="midnightblue" stroke="midnightblue" points="337.527,-137.475 328.067,-142.246 338.437,-144.416 337.527,-137.475"/>
</g>
<!-- Node23 -->
<g id="node23" class="node"><title>Node23</title>
<g id="a_node23"><a xlink:href="../../d3/d32/classapplication_1_1_grid.html#a929ef96f891b8a70b35f8f495706596f" target="_top" xlink:title="application.Grid.createHexagonal\lNeighborsMap">
<polygon fill="white" stroke="black" points="762,-243.91 762,-273.91 938,-273.91 938,-243.91 762,-243.91"/>
<text text-anchor="start" x="770" y="-261.91" font-family="Helvetica,sans-Serif" font-size="10.00">application.Grid.createHexagonal</text>
<text text-anchor="middle" x="850" y="-250.91" font-family="Helvetica,sans-Serif" font-size="10.00">NeighborsMap</text>
</a>
</g>
</g>
<!-- Node2&#45;&gt;Node23 -->
<g id="edge31" class="edge"><title>Node2&#45;&gt;Node23</title>
<path fill="none" stroke="midnightblue" d="M296.457,-170.955C315.714,-181.249 340.503,-193.04 364,-199.91 499.35,-239.483 663.447,-252.54 761.871,-256.832"/>
<polygon fill="midnightblue" stroke="midnightblue" points="297.932,-167.772 287.479,-166.049 294.576,-173.915 297.932,-167.772"/>
</g>
<!-- Node4 -->
<g id="node4" class="node"><title>Node4</title>
<g id="a_node4"><a xlink:href="../../d3/d32/classapplication_1_1_grid.html#a5d8c63199bedd9c3baee2b9d5f199825" target="_top" xlink:title="application.Grid.createSquare\lNeighborsMap">
<polygon fill="white" stroke="black" points="565.5,-155.91 565.5,-185.91 724.5,-185.91 724.5,-155.91 565.5,-155.91"/>
<text text-anchor="start" x="573.5" y="-173.91" font-family="Helvetica,sans-Serif" font-size="10.00">application.Grid.createSquare</text>
<text text-anchor="middle" x="645" y="-162.91" font-family="Helvetica,sans-Serif" font-size="10.00">NeighborsMap</text>
</a>
</g>
</g>
<!-- Node3&#45;&gt;Node4 -->
<g id="edge3" class="edge"><title>Node3&#45;&gt;Node4</title>
<path fill="none" stroke="midnightblue" d="M538.417,-173.59C547.453,-173.361 556.569,-173.129 565.459,-172.904"/>
<polygon fill="midnightblue" stroke="midnightblue" points="538.173,-170.095 528.265,-173.848 538.35,-177.093 538.173,-170.095"/>
</g>
<!-- Node5 -->
<g id="node5" class="node"><title>Node5</title>
<g id="a_node5"><a xlink:href="../../d3/d32/classapplication_1_1_grid.html#a84418341012ba47bc37524654a9b4fdf" target="_top" xlink:title="application.Grid.populate\lMatrixNeighborMaps">
<polygon fill="white" stroke="black" points="974,-111.91 974,-141.91 1110,-141.91 1110,-111.91 974,-111.91"/>
<text text-anchor="start" x="982" y="-129.91" font-family="Helvetica,sans-Serif" font-size="10.00">application.Grid.populate</text>
<text text-anchor="middle" x="1042" y="-118.91" font-family="Helvetica,sans-Serif" font-size="10.00">MatrixNeighborMaps</text>
</a>
</g>
</g>
<!-- Node3&#45;&gt;Node5 -->
<g id="edge24" class="edge"><title>Node3&#45;&gt;Node5</title>
<path fill="none" stroke="midnightblue" d="M538.412,-192.201C547.039,-193.301 555.67,-194.238 564,-194.91 730.216,-208.319 776.305,-205.683 938,-164.91 961.102,-159.085 986.201,-149.889 1005.84,-142.002"/>
<polygon fill="midnightblue" stroke="midnightblue" points="538.682,-188.705 528.304,-190.839 537.747,-195.643 538.682,-188.705"/>
</g>
<!-- Node3&#45;&gt;Node19 -->
<g id="edge20" class="edge"><title>Node3&#45;&gt;Node19</title>
<path fill="none" stroke="midnightblue" d="M511.576,-157.472C517.193,-155.421 522.737,-153.228 528,-150.91 562.183,-135.858 598.95,-113.059 621.718,-98.0758"/>
<polygon fill="midnightblue" stroke="midnightblue" points="510.377,-154.184 502.093,-160.79 512.688,-160.791 510.377,-154.184"/>
</g>
<!-- Node4&#45;&gt;Node5 -->
<g id="edge4" class="edge"><title>Node4&#45;&gt;Node5</title>
<path fill="none" stroke="midnightblue" d="M734.988,-162.53C792.875,-156.89 869.976,-149.026 938,-140.91 949.648,-139.521 962.021,-137.934 974,-136.34"/>
<polygon fill="midnightblue" stroke="midnightblue" points="734.39,-159.071 724.775,-163.521 735.066,-166.039 734.39,-159.071"/>
</g>
<!-- Node6 -->
<g id="node6" class="node"><title>Node6</title>
<g id="a_node6"><a xlink:href="../../d9/d5e/classapplication_1_1_application_loop.html#a903043ba2535055f46dbee6aca8b3eef" target="_top" xlink:title="application.ApplicationLoop.init">
<polygon fill="white" stroke="black" points="1146,-117.41 1146,-136.41 1310,-136.41 1310,-117.41 1146,-117.41"/>
<text text-anchor="middle" x="1228" y="-124.41" font-family="Helvetica,sans-Serif" font-size="10.00">application.ApplicationLoop.init</text>
</a>
</g>
</g>
<!-- Node5&#45;&gt;Node6 -->
<g id="edge5" class="edge"><title>Node5&#45;&gt;Node6</title>
<path fill="none" stroke="midnightblue" d="M1120.39,-126.91C1128.82,-126.91 1137.42,-126.91 1145.9,-126.91"/>
<polygon fill="midnightblue" stroke="midnightblue" points="1120.21,-123.41 1110.21,-126.91 1120.21,-130.41 1120.21,-123.41"/>
</g>
<!-- Node7 -->
<g id="node7" class="node"><title>Node7</title>
<g id="a_node7"><a xlink:href="../../d9/d96/classapplication_1_1_main.html#adc868cfca1990edad66af3dcb8cf4349" target="_top" xlink:title="application.Main.playGame">
<polygon fill="white" stroke="black" points="1346,-117.41 1346,-136.41 1492,-136.41 1492,-117.41 1346,-117.41"/>
<text text-anchor="middle" x="1419" y="-124.41" font-family="Helvetica,sans-Serif" font-size="10.00">application.Main.playGame</text>
</a>
</g>
</g>
<!-- Node6&#45;&gt;Node7 -->
<g id="edge6" class="edge"><title>Node6&#45;&gt;Node7</title>
<path fill="none" stroke="midnightblue" d="M1320.26,-126.91C1328.82,-126.91 1337.41,-126.91 1345.76,-126.91"/>
<polygon fill="midnightblue" stroke="midnightblue" points="1320.25,-123.41 1310.25,-126.91 1320.25,-130.41 1320.25,-123.41"/>
</g>
<!-- Node8 -->
<g id="node8" class="node"><title>Node8</title>
<g id="a_node8"><a xlink:href="../../d9/d96/classapplication_1_1_main.html#ada0f47786d75e28e627d2621d75eaf5a" target="_top" xlink:title="application.Main.activate\lStartButton">
<polygon fill="white" stroke="black" points="1528.5,-135.91 1528.5,-165.91 1663.5,-165.91 1663.5,-135.91 1528.5,-135.91"/>
<text text-anchor="start" x="1536.5" y="-153.91" font-family="Helvetica,sans-Serif" font-size="10.00">application.Main.activate</text>
<text text-anchor="middle" x="1596" y="-142.91" font-family="Helvetica,sans-Serif" font-size="10.00">StartButton</text>
</a>
</g>
</g>
<!-- Node7&#45;&gt;Node8 -->
<g id="edge7" class="edge"><title>Node7&#45;&gt;Node8</title>
<path fill="none" stroke="midnightblue" d="M1499.39,-137.799C1509.03,-139.121 1518.81,-140.461 1528.24,-141.754"/>
<polygon fill="midnightblue" stroke="midnightblue" points="1499.8,-134.321 1489.42,-136.43 1498.85,-141.257 1499.8,-134.321"/>
</g>
<!-- Node9 -->
<g id="node9" class="node"><title>Node9</title>
<g id="a_node9"><a xlink:href="../../d9/d96/classapplication_1_1_main.html#a64e6451d894979853890a235efe37db8" target="_top" xlink:title="application.Main.createStart\lGameButton">
<polygon fill="white" stroke="black" points="1700,-135.91 1700,-165.91 1852,-165.91 1852,-135.91 1700,-135.91"/>
<text text-anchor="start" x="1708" y="-153.91" font-family="Helvetica,sans-Serif" font-size="10.00">application.Main.createStart</text>
<text text-anchor="middle" x="1776" y="-142.91" font-family="Helvetica,sans-Serif" font-size="10.00">GameButton</text>
</a>
</g>
</g>
<!-- Node8&#45;&gt;Node9 -->
<g id="edge8" class="edge"><title>Node8&#45;&gt;Node9</title>
<path fill="none" stroke="midnightblue" d="M1673.65,-150.91C1682.34,-150.91 1691.2,-150.91 1699.87,-150.91"/>
<polygon fill="midnightblue" stroke="midnightblue" points="1673.53,-147.41 1663.53,-150.91 1673.53,-154.41 1673.53,-147.41"/>
</g>
<!-- Node10 -->
<g id="node10" class="node"><title>Node10</title>
<g id="a_node10"><a xlink:href="../../d9/d96/classapplication_1_1_main.html#a5fee6c1b05965eca9205a99e3245a5fb" target="_top" xlink:title="application.Main.populate\lStartPageModules">
<polygon fill="white" stroke="black" points="1888.5,-136.91 1888.5,-166.91 2027.5,-166.91 2027.5,-136.91 1888.5,-136.91"/>
<text text-anchor="start" x="1896.5" y="-154.91" font-family="Helvetica,sans-Serif" font-size="10.00">application.Main.populate</text>
<text text-anchor="middle" x="1958" y="-143.91" font-family="Helvetica,sans-Serif" font-size="10.00">StartPageModules</text>
</a>
</g>
</g>
<!-- Node9&#45;&gt;Node10 -->
<g id="edge9" class="edge"><title>Node9&#45;&gt;Node10</title>
<path fill="none" stroke="midnightblue" d="M1862.27,-151.384C1871.04,-151.433 1879.86,-151.482 1888.41,-151.529"/>
<polygon fill="midnightblue" stroke="midnightblue" points="1862.05,-147.883 1852.03,-151.327 1862.01,-154.883 1862.05,-147.883"/>
</g>
<!-- Node11 -->
<g id="node11" class="node"><title>Node11</title>
<g id="a_node11"><a xlink:href="../../d9/d96/classapplication_1_1_main.html#a4e5ad4e3de8bbd8654120180a94e870d" target="_top" xlink:title="application.Main.start">
<polygon fill="white" stroke="black" points="2064.5,-142.41 2064.5,-161.41 2183.5,-161.41 2183.5,-142.41 2064.5,-142.41"/>
<text text-anchor="middle" x="2124" y="-149.41" font-family="Helvetica,sans-Serif" font-size="10.00">application.Main.start</text>
</a>
</g>
</g>
<!-- Node10&#45;&gt;Node11 -->
<g id="edge10" class="edge"><title>Node10&#45;&gt;Node11</title>
<path fill="none" stroke="midnightblue" d="M2037.68,-151.91C2046.64,-151.91 2055.66,-151.91 2064.3,-151.91"/>
<polygon fill="midnightblue" stroke="midnightblue" points="2037.6,-148.41 2027.6,-151.91 2037.6,-155.41 2037.6,-148.41"/>
</g>
<!-- Node12 -->
<g id="node12" class="node"><title>Node12</title>
<g id="a_node12"><a xlink:href="../../d9/d96/classapplication_1_1_main.html#ad652e3294ffb6519b18d784d5831c76a" target="_top" xlink:title="application.Main.activate\lReturntoStart">
<polygon fill="white" stroke="black" points="2220.5,-136.91 2220.5,-166.91 2355.5,-166.91 2355.5,-136.91 2220.5,-136.91"/>
<text text-anchor="start" x="2228.5" y="-154.91" font-family="Helvetica,sans-Serif" font-size="10.00">application.Main.activate</text>
<text text-anchor="middle" x="2288" y="-143.91" font-family="Helvetica,sans-Serif" font-size="10.00">ReturntoStart</text>
</a>
</g>
</g>
<!-- Node11&#45;&gt;Node12 -->
<g id="edge11" class="edge"><title>Node11&#45;&gt;Node12</title>
<path fill="none" stroke="midnightblue" d="M2194.08,-151.91C2202.81,-151.91 2211.73,-151.91 2220.42,-151.91"/>
<polygon fill="midnightblue" stroke="midnightblue" points="2193.94,-148.41 2183.94,-151.91 2193.94,-155.41 2193.94,-148.41"/>
</g>
<!-- Node13 -->
<g id="node13" class="node"><title>Node13</title>
<g id="a_node13"><a xlink:href="../../d9/d96/classapplication_1_1_main.html#a4c5877fafc53c4fae488f1f30faf294b" target="_top" xlink:title="application.Main.createReturn\lToStartButton">
<polygon fill="white" stroke="black" points="2392,-136.91 2392,-166.91 2550,-166.91 2550,-136.91 2392,-136.91"/>
<text text-anchor="start" x="2400" y="-154.91" font-family="Helvetica,sans-Serif" font-size="10.00">application.Main.createReturn</text>
<text text-anchor="middle" x="2471" y="-143.91" font-family="Helvetica,sans-Serif" font-size="10.00">ToStartButton</text>
</a>
</g>
</g>
<!-- Node12&#45;&gt;Node13 -->
<g id="edge12" class="edge"><title>Node12&#45;&gt;Node13</title>
<path fill="none" stroke="midnightblue" d="M2365.7,-151.91C2374.36,-151.91 2383.19,-151.91 2391.87,-151.91"/>
<polygon fill="midnightblue" stroke="midnightblue" points="2365.63,-148.41 2355.63,-151.91 2365.63,-155.41 2365.63,-148.41"/>
</g>
<!-- Node14 -->
<g id="node14" class="node"><title>Node14</title>
<g id="a_node14"><a xlink:href="../../d9/d96/classapplication_1_1_main.html#a2ddf30fb8360296e1ad3459fe6f920fb" target="_top" xlink:title="application.Main.populate\lGridPageModules">
<polygon fill="white" stroke="black" points="2586.5,-88.9103 2586.5,-118.91 2725.5,-118.91 2725.5,-88.9103 2586.5,-88.9103"/>
<text text-anchor="start" x="2594.5" y="-106.91" font-family="Helvetica,sans-Serif" font-size="10.00">application.Main.populate</text>
<text text-anchor="middle" x="2656" y="-95.9103" font-family="Helvetica,sans-Serif" font-size="10.00">GridPageModules</text>
</a>
</g>
</g>
<!-- Node13&#45;&gt;Node14 -->
<g id="edge13" class="edge"><title>Node13&#45;&gt;Node14</title>
<path fill="none" stroke="midnightblue" d="M2539.29,-134.261C2558.5,-129.221 2579.25,-123.778 2597.8,-118.913"/>
<polygon fill="midnightblue" stroke="midnightblue" points="2538.19,-130.932 2529.4,-136.855 2539.96,-137.703 2538.19,-130.932"/>
</g>
<!-- Node15 -->
<g id="node15" class="node"><title>Node15</title>
<g id="a_node15"><a xlink:href="../../d9/d96/classapplication_1_1_main.html#abcabe1a32eb7b5054cf34ca0def07531" target="_top" xlink:title="application.Main.populate\lErrorPageModules">
<polygon fill="white" stroke="black" points="2586.5,-137.91 2586.5,-167.91 2725.5,-167.91 2725.5,-137.91 2586.5,-137.91"/>
<text text-anchor="start" x="2594.5" y="-155.91" font-family="Helvetica,sans-Serif" font-size="10.00">application.Main.populate</text>
<text text-anchor="middle" x="2656" y="-144.91" font-family="Helvetica,sans-Serif" font-size="10.00">ErrorPageModules</text>
</a>
</g>
</g>
<!-- Node13&#45;&gt;Node15 -->
<g id="edge15" class="edge"><title>Node13&#45;&gt;Node15</title>
<path fill="none" stroke="midnightblue" d="M2560.36,-152.393C2569.1,-152.441 2577.87,-152.489 2586.37,-152.535"/>
<polygon fill="midnightblue" stroke="midnightblue" points="2560.16,-148.892 2550.14,-152.337 2560.12,-155.892 2560.16,-148.892"/>
</g>
<!-- Node14&#45;&gt;Node7 -->
<g id="edge14" class="edge"><title>Node14&#45;&gt;Node7</title>
<path fill="none" stroke="midnightblue" d="M2576.01,-104.251C2501.88,-104.54 2387.92,-104.91 2289,-104.91 1775,-104.91 1775,-104.91 1775,-104.91 1676.97,-104.91 1564.01,-113.37 1492.33,-119.798"/>
<polygon fill="midnightblue" stroke="midnightblue" points="2576.21,-107.75 2586.19,-104.21 2576.18,-100.75 2576.21,-107.75"/>
</g>
<!-- Node16 -->
<g id="node16" class="node"><title>Node16</title>
<g id="a_node16"><a xlink:href="../../d9/d96/classapplication_1_1_main.html#a81e70f73d65beae34c459628791cc5d4" target="_top" xlink:title="application.Main.activate\lErrorPage">
<polygon fill="white" stroke="black" points="2762.5,-137.91 2762.5,-167.91 2897.5,-167.91 2897.5,-137.91 2762.5,-137.91"/>
<text text-anchor="start" x="2770.5" y="-155.91" font-family="Helvetica,sans-Serif" font-size="10.00">application.Main.activate</text>
<text text-anchor="middle" x="2830" y="-144.91" font-family="Helvetica,sans-Serif" font-size="10.00">ErrorPage</text>
</a>
</g>
</g>
<!-- Node15&#45;&gt;Node16 -->
<g id="edge16" class="edge"><title>Node15&#45;&gt;Node16</title>
<path fill="none" stroke="midnightblue" d="M2736.15,-152.91C2744.88,-152.91 2753.7,-152.91 2762.25,-152.91"/>
<polygon fill="midnightblue" stroke="midnightblue" points="2735.97,-149.41 2725.97,-152.91 2735.97,-156.41 2735.97,-149.41"/>
</g>
<!-- Node17 -->
<g id="node17" class="node"><title>Node17</title>
<g id="a_node17"><a xlink:href="../../d9/d96/classapplication_1_1_main.html#aef0593911aa3cbc594ac75bbb8d6a2b0" target="_top" xlink:title="application.Main.activate\lImportXMLButton">
<polygon fill="white" stroke="black" points="2934.5,-137.91 2934.5,-167.91 3069.5,-167.91 3069.5,-137.91 2934.5,-137.91"/>
<text text-anchor="start" x="2942.5" y="-155.91" font-family="Helvetica,sans-Serif" font-size="10.00">application.Main.activate</text>
<text text-anchor="middle" x="3002" y="-144.91" font-family="Helvetica,sans-Serif" font-size="10.00">ImportXMLButton</text>
</a>
</g>
</g>
<!-- Node16&#45;&gt;Node17 -->
<g id="edge17" class="edge"><title>Node16&#45;&gt;Node17</title>
<path fill="none" stroke="midnightblue" d="M2907.72,-152.91C2916.65,-152.91 2925.71,-152.91 2934.49,-152.91"/>
<polygon fill="midnightblue" stroke="midnightblue" points="2907.7,-149.41 2897.7,-152.91 2907.7,-156.41 2907.7,-149.41"/>
</g>
<!-- Node18 -->
<g id="node18" class="node"><title>Node18</title>
<g id="a_node18"><a xlink:href="../../d9/d96/classapplication_1_1_main.html#a18021492af2e457d39edcbd16dc0d3c8" target="_top" xlink:title="application.Main.createImport\lXMLButton">
<polygon fill="white" stroke="black" points="3106.5,-159.91 3106.5,-189.91 3265.5,-189.91 3265.5,-159.91 3106.5,-159.91"/>
<text text-anchor="start" x="3114.5" y="-177.91" font-family="Helvetica,sans-Serif" font-size="10.00">application.Main.createImport</text>
<text text-anchor="middle" x="3186" y="-166.91" font-family="Helvetica,sans-Serif" font-size="10.00">XMLButton</text>
</a>
</g>
</g>
<!-- Node17&#45;&gt;Node18 -->
<g id="edge18" class="edge"><title>Node17&#45;&gt;Node18</title>
<path fill="none" stroke="midnightblue" d="M3079.87,-162.203C3088.59,-163.257 3097.49,-164.332 3106.24,-165.389"/>
<polygon fill="midnightblue" stroke="midnightblue" points="3080.08,-158.703 3069.74,-160.977 3079.24,-165.652 3080.08,-158.703"/>
</g>
<!-- Node18&#45;&gt;Node10 -->
<g id="edge19" class="edge"><title>Node18&#45;&gt;Node10</title>
<path fill="none" stroke="midnightblue" d="M3096.03,-183.507C3024.5,-189.678 2921.38,-196.91 2831,-196.91 2287,-196.91 2287,-196.91 2287,-196.91 2196.76,-196.91 2093.84,-179.985 2027.73,-166.895"/>
<polygon fill="midnightblue" stroke="midnightblue" points="3096.69,-186.962 3106.35,-182.605 3096.08,-179.989 3096.69,-186.962"/>
</g>
<!-- Node19&#45;&gt;Node5 -->
<g id="edge23" class="edge"><title>Node19&#45;&gt;Node5</title>
<path fill="none" stroke="midnightblue" d="M735.904,-91.3801C793.687,-97.0132 870.334,-104.838 938,-112.91 949.648,-114.3 962.021,-115.886 974,-117.48"/>
<polygon fill="midnightblue" stroke="midnightblue" points="735.997,-87.8727 725.705,-90.3895 735.32,-94.84 735.997,-87.8727"/>
</g>
<!-- Node20 -->
<g id="node20" class="node"><title>Node20</title>
<g id="a_node20"><a xlink:href="../../d3/d32/classapplication_1_1_grid.html#ae06467dd7272ca7e584a866886a2946e" target="_top" xlink:title="application.Grid.createToroidal\lSquareNeighborsMap">
<polygon fill="white" stroke="black" points="769.5,-29.9103 769.5,-59.9103 930.5,-59.9103 930.5,-29.9103 769.5,-29.9103"/>
<text text-anchor="start" x="777.5" y="-47.9103" font-family="Helvetica,sans-Serif" font-size="10.00">application.Grid.createToroidal</text>
<text text-anchor="middle" x="850" y="-36.9103" font-family="Helvetica,sans-Serif" font-size="10.00">SquareNeighborsMap</text>
</a>
</g>
</g>
<!-- Node19&#45;&gt;Node20 -->
<g id="edge21" class="edge"><title>Node19&#45;&gt;Node20</title>
<path fill="none" stroke="midnightblue" d="M735.808,-66.0989C746.947,-64.0139 758.275,-61.8933 769.248,-59.8392"/>
<polygon fill="midnightblue" stroke="midnightblue" points="734.834,-62.7205 725.648,-68.0008 736.122,-69.601 734.834,-62.7205"/>
</g>
<!-- Node20&#45;&gt;Node5 -->
<g id="edge22" class="edge"><title>Node20&#45;&gt;Node5</title>
<path fill="none" stroke="midnightblue" d="M907.967,-63.3115C918.062,-66.9239 928.409,-70.8575 938,-74.9103 964.202,-85.9818 993.027,-100.77 1013.5,-111.745"/>
<polygon fill="midnightblue" stroke="midnightblue" points="908.993,-59.9622 898.398,-59.953 906.674,-66.5672 908.993,-59.9622"/>
</g>
<!-- Node21&#45;&gt;Node4 -->
<g id="edge26" class="edge"><title>Node21&#45;&gt;Node4</title>
<path fill="none" stroke="midnightblue" d="M524.315,-144.179C541.628,-148.045 559.857,-152.117 576.724,-155.884"/>
<polygon fill="midnightblue" stroke="midnightblue" points="524.768,-140.694 514.245,-141.93 523.242,-147.525 524.768,-140.694"/>
</g>
<!-- Node21&#45;&gt;Node5 -->
<g id="edge30" class="edge"><title>Node21&#45;&gt;Node5</title>
<path fill="none" stroke="midnightblue" d="M534.878,-126.91C654.533,-126.91 866.119,-126.91 973.876,-126.91"/>
<polygon fill="midnightblue" stroke="midnightblue" points="534.655,-123.41 524.655,-126.91 534.655,-130.41 534.655,-123.41"/>
</g>
<!-- Node21&#45;&gt;Node22 -->
<g id="edge27" class="edge"><title>Node21&#45;&gt;Node22</title>
<path fill="none" stroke="midnightblue" d="M477.623,-106.07C500.614,-91.1238 533.289,-71.3367 564,-57.9103 571.44,-54.6575 579.454,-51.6794 587.433,-49.0114"/>
<polygon fill="midnightblue" stroke="midnightblue" points="475.436,-103.319 469.006,-111.74 479.284,-109.167 475.436,-103.319"/>
</g>
<!-- Node22&#45;&gt;Node5 -->
<g id="edge29" class="edge"><title>Node22&#45;&gt;Node5</title>
<path fill="none" stroke="midnightblue" d="M705.418,-16.4166C766.377,-1.75382 862.682,12.1309 938,-19.9103 982.369,-38.7856 1016.88,-87.1788 1032.26,-111.895"/>
<polygon fill="midnightblue" stroke="midnightblue" points="704.435,-13.0544 695.575,-18.8649 706.124,-19.8474 704.435,-13.0544"/>
</g>
<!-- Node22&#45;&gt;Node20 -->
<g id="edge28" class="edge"><title>Node22&#45;&gt;Node20</title>
<path fill="none" stroke="midnightblue" d="M735.808,-38.7768C746.947,-39.3803 758.275,-39.9942 769.248,-40.5888"/>
<polygon fill="midnightblue" stroke="midnightblue" points="735.823,-35.2725 725.648,-38.2262 735.444,-42.2623 735.823,-35.2725"/>
</g>
<!-- Node23&#45;&gt;Node5 -->
<g id="edge32" class="edge"><title>Node23&#45;&gt;Node5</title>
<path fill="none" stroke="midnightblue" d="M916.518,-239.938C923.996,-236.727 931.322,-233.063 938,-228.91 976.469,-204.99 1011.76,-164.281 1029.33,-142.217"/>
<polygon fill="midnightblue" stroke="midnightblue" points="914.974,-236.787 907.002,-243.765 917.586,-243.281 914.974,-236.787"/>
</g>
</g>
</svg>
