<?xml version="1.0" encoding="UTF-8" standalone="no"?>
<!DOCTYPE svg PUBLIC "-//W3C//DTD SVG 1.1//EN"
 "http://www.w3.org/Graphics/SVG/1.1/DTD/svg11.dtd">
<!-- Generated by graphviz version 2.36.0 (20140111.2315)
 -->
<!-- Title: application.Grid.populateMatrixNeighborMaps Pages: 1 -->
<!--zoomable 408 -->
<svg id="main" version="1.1" xmlns="http://www.w3.org/2000/svg" xmlns:xlink="http://www.w3.org/1999/xlink" xml:space="preserve" onload="init(evt)">
<style type="text/css"><![CDATA[
.edge:hover path { stroke: red; }
.edge:hover polygon { stroke: red; fill: red; }
]]></style>
<script type="text/javascript"><![CDATA[
var edges = document.getElementsByTagName('g');
if (edges && edges.length) {
  for (var i=0;i<edges.length;i++) {
    if (edges[i].id.substr(0,4)=='edge') {
      edges[i].setAttribute('class','edge');
    }
  }
}
]]></script>
        <defs>
                <circle id="rim" cx="0" cy="0" r="7"/>
                <circle id="rim2" cx="0" cy="0" r="3.5"/>
                <g id="zoomPlus">
                        <use xlink:href="#rim" fill="#404040">
                                <set attributeName="fill" to="#808080" begin="zoomplus.mouseover" end="zoomplus.mouseout"/>
                        </use>
                        <path d="M-4,0h8M0,-4v8" fill="none" stroke="white" stroke-width="1.5" pointer-events="none"/>
                </g>
                <g id="zoomMin">
                        <use xlink:href="#rim" fill="#404040">
                                <set attributeName="fill" to="#808080" begin="zoomminus.mouseover" end="zoomminus.mouseout"/>
                        </use>
                        <path d="M-4,0h8" fill="none" stroke="white" stroke-width="1.5" pointer-events="none"/>
                </g>
                <g id="dirArrow">
                        <path fill="none" stroke="white" stroke-width="1.5" d="M0,-3.0v7 M-2.5,-0.5L0,-3.0L2.5,-0.5"/>
                </g>
               <g id="resetDef">
                       <use xlink:href="#rim2" fill="#404040">
                               <set attributeName="fill" to="#808080" begin="reset.mouseover" end="reset.mouseout"/>
                       </use>
               </g>
        </defs>

<script type="text/javascript">
var viewWidth = 1116;
var viewHeight = 408;
var sectionId = 'dynsection-21';
</script>
<script xlink:href="../../svgpan.js"/>
<svg id="graph" class="graph">
<g id="viewport">
<title>application.Grid.populateMatrixNeighborMaps</title>
<polygon fill="white" stroke="none" points="-4,4 -4,-403.696 1112,-403.696 1112,4 -4,4"/>
<!-- Node1 -->
<g id="node1" class="node"><title>Node1</title>
<polygon fill="#bfbfbf" stroke="black" points="0,-199 0,-229 136,-229 136,-199 0,-199"/>
<text text-anchor="start" x="8" y="-217" font-family="Helvetica,sans-Serif" font-size="10.00">application.Grid.populate</text>
<text text-anchor="middle" x="68" y="-206" font-family="Helvetica,sans-Serif" font-size="10.00">MatrixNeighborMaps</text>
</g>
<!-- Node2 -->
<g id="node2" class="node"><title>Node2</title>
<g id="a_node2"><a xlink:href="../../d3/d32/classapplication_1_1_grid.html#ae805f0f4d572a70e090900fbd8d8bad7" target="_top" xlink:title="application.Grid.createCardinal\lNeighborsMap">
<polygon fill="white" stroke="black" points="574,-279 574,-309 738,-309 738,-279 574,-279"/>
<text text-anchor="start" x="582" y="-297" font-family="Helvetica,sans-Serif" font-size="10.00">application.Grid.createCardinal</text>
<text text-anchor="middle" x="656" y="-286" font-family="Helvetica,sans-Serif" font-size="10.00">NeighborsMap</text>
</a>
</g>
</g>
<!-- Node1&#45;&gt;Node2 -->
<g id="edge1" class="edge"><title>Node1&#45;&gt;Node2</title>
<path fill="none" stroke="midnightblue" d="M75.2843,-229.295C88.3127,-258.761 121.344,-322.878 172,-350 313.133,-425.563 376.988,-401.996 532,-362 567.141,-352.933 602.967,-331.448 626.821,-315.035"/>
<polygon fill="midnightblue" stroke="midnightblue" points="628.879,-317.867 635.044,-309.25 624.852,-312.142 628.879,-317.867"/>
</g>
<!-- Node5 -->
<g id="node5" class="node"><title>Node5</title>
<g id="a_node5"><a xlink:href="../../d3/d32/classapplication_1_1_grid.html#a66a821d455f974dbfaba0e89348c4e66" target="_top" xlink:title="application.Grid.createCorner\lNeighborsMap">
<polygon fill="white" stroke="black" points="577.5,-230 577.5,-260 734.5,-260 734.5,-230 577.5,-230"/>
<text text-anchor="start" x="585.5" y="-248" font-family="Helvetica,sans-Serif" font-size="10.00">application.Grid.createCorner</text>
<text text-anchor="middle" x="656" y="-237" font-family="Helvetica,sans-Serif" font-size="10.00">NeighborsMap</text>
</a>
</g>
</g>
<!-- Node1&#45;&gt;Node5 -->
<g id="edge4" class="edge"><title>Node1&#45;&gt;Node5</title>
<path fill="none" stroke="midnightblue" d="M136.222,-217.556C242.552,-223.181 449.542,-234.131 567.377,-240.365"/>
<polygon fill="midnightblue" stroke="midnightblue" points="567.277,-243.864 577.448,-240.897 567.647,-236.874 567.277,-243.864"/>
</g>
<!-- Node6 -->
<g id="node6" class="node"><title>Node6</title>
<g id="a_node6"><a xlink:href="../../d3/d32/classapplication_1_1_grid.html#a929ef96f891b8a70b35f8f495706596f" target="_top" xlink:title="application.Grid.createHexagonal\lNeighborsMap">
<polygon fill="white" stroke="black" points="568,-142 568,-172 744,-172 744,-142 568,-142"/>
<text text-anchor="start" x="576" y="-160" font-family="Helvetica,sans-Serif" font-size="10.00">application.Grid.createHexagonal</text>
<text text-anchor="middle" x="656" y="-149" font-family="Helvetica,sans-Serif" font-size="10.00">NeighborsMap</text>
</a>
</g>
</g>
<!-- Node1&#45;&gt;Node6 -->
<g id="edge6" class="edge"><title>Node1&#45;&gt;Node6</title>
<path fill="none" stroke="midnightblue" d="M136.035,-205.491C148.01,-203.984 160.373,-202.438 172,-201 259.973,-190.117 281.758,-185.439 370,-177 432.403,-171.032 502.653,-166.082 557.793,-162.6"/>
<polygon fill="midnightblue" stroke="midnightblue" points="558.146,-166.085 567.907,-161.967 557.708,-159.098 558.146,-166.085"/>
</g>
<!-- Node7 -->
<g id="node7" class="node"><title>Node7</title>
<g id="a_node7"><a xlink:href="../../d3/d32/classapplication_1_1_grid.html#a5d8c63199bedd9c3baee2b9d5f199825" target="_top" xlink:title="application.Grid.createSquare\lNeighborsMap">
<polygon fill="white" stroke="black" points="371.5,-274 371.5,-304 530.5,-304 530.5,-274 371.5,-274"/>
<text text-anchor="start" x="379.5" y="-292" font-family="Helvetica,sans-Serif" font-size="10.00">application.Grid.createSquare</text>
<text text-anchor="middle" x="451" y="-281" font-family="Helvetica,sans-Serif" font-size="10.00">NeighborsMap</text>
</a>
</g>
</g>
<!-- Node1&#45;&gt;Node7 -->
<g id="edge8" class="edge"><title>Node1&#45;&gt;Node7</title>
<path fill="none" stroke="midnightblue" d="M80.9615,-229.322C98.3595,-250.216 132.871,-286.686 172,-301 240.371,-326.011 324.584,-317.417 382.293,-306.115"/>
<polygon fill="midnightblue" stroke="midnightblue" points="383.293,-309.483 392.392,-304.057 381.895,-302.624 383.293,-309.483"/>
</g>
<!-- Node8 -->
<g id="node8" class="node"><title>Node8</title>
<g id="a_node8"><a xlink:href="../../d3/d32/classapplication_1_1_grid.html#a2ce9acc3e02b5443dc0243680eec5473" target="_top" xlink:title="application.Grid.createToroidal\lCardinalNeighborsMap">
<polygon fill="white" stroke="black" points="370.5,-323 370.5,-353 531.5,-353 531.5,-323 370.5,-323"/>
<text text-anchor="start" x="378.5" y="-341" font-family="Helvetica,sans-Serif" font-size="10.00">application.Grid.createToroidal</text>
<text text-anchor="middle" x="451" y="-330" font-family="Helvetica,sans-Serif" font-size="10.00">CardinalNeighborsMap</text>
</a>
</g>
</g>
<!-- Node1&#45;&gt;Node8 -->
<g id="edge11" class="edge"><title>Node1&#45;&gt;Node8</title>
<path fill="none" stroke="midnightblue" d="M77.7862,-229.027C93.2264,-253.808 127.823,-302.536 172,-323 230.646,-350.167 303.877,-353.045 360.454,-349.597"/>
<polygon fill="midnightblue" stroke="midnightblue" points="360.721,-353.087 370.458,-348.911 360.242,-346.103 360.721,-353.087"/>
</g>
<!-- Node9 -->
<g id="node9" class="node"><title>Node9</title>
<g id="a_node9"><a xlink:href="../../d3/d32/classapplication_1_1_grid.html#a7e36b15310e2328fd289887bd3eda478" target="_top" xlink:title="application.Grid.createToroidal\lCornerNeighborsMap">
<polygon fill="white" stroke="black" points="370.5,-186 370.5,-216 531.5,-216 531.5,-186 370.5,-186"/>
<text text-anchor="start" x="378.5" y="-204" font-family="Helvetica,sans-Serif" font-size="10.00">application.Grid.createToroidal</text>
<text text-anchor="middle" x="451" y="-193" font-family="Helvetica,sans-Serif" font-size="10.00">CornerNeighborsMap</text>
</a>
</g>
</g>
<!-- Node1&#45;&gt;Node9 -->
<g id="edge14" class="edge"><title>Node1&#45;&gt;Node9</title>
<path fill="none" stroke="midnightblue" d="M136.238,-211.706C198.416,-209.584 291.297,-206.415 359.88,-204.075"/>
<polygon fill="midnightblue" stroke="midnightblue" points="360.368,-207.56 370.242,-203.721 360.129,-200.565 360.368,-207.56"/>
</g>
<!-- Node10 -->
<g id="node10" class="node"><title>Node10</title>
<g id="a_node10"><a xlink:href="../../d3/d32/classapplication_1_1_grid.html#ae06467dd7272ca7e584a866886a2946e" target="_top" xlink:title="application.Grid.createToroidal\lSquareNeighborsMap">
<polygon fill="white" stroke="black" points="172.5,-262 172.5,-292 333.5,-292 333.5,-262 172.5,-262"/>
<text text-anchor="start" x="180.5" y="-280" font-family="Helvetica,sans-Serif" font-size="10.00">application.Grid.createToroidal</text>
<text text-anchor="middle" x="253" y="-269" font-family="Helvetica,sans-Serif" font-size="10.00">SquareNeighborsMap</text>
</a>
</g>
</g>
<!-- Node1&#45;&gt;Node10 -->
<g id="edge17" class="edge"><title>Node1&#45;&gt;Node10</title>
<path fill="none" stroke="midnightblue" d="M112.833,-229.09C138.543,-237.941 171.218,-249.19 198.446,-258.563"/>
<polygon fill="midnightblue" stroke="midnightblue" points="197.613,-261.978 208.208,-261.924 199.892,-255.359 197.613,-261.978"/>
</g>
<!-- Node11 -->
<g id="node11" class="node"><title>Node11</title>
<g id="a_node11"><a xlink:href="../../d1/dd5/classapplication_1_1_cell_x_m_l_reader.html#a54533cee8d698059c9a30f9d2de72dc2" target="_top" xlink:title="application.CellXMLReader.get\lGridEdgeType">
<polygon fill="white" stroke="black" points="173.5,-98 173.5,-128 332.5,-128 332.5,-98 173.5,-98"/>
<text text-anchor="start" x="181.5" y="-116" font-family="Helvetica,sans-Serif" font-size="10.00">application.CellXMLReader.get</text>
<text text-anchor="middle" x="253" y="-105" font-family="Helvetica,sans-Serif" font-size="10.00">GridEdgeType</text>
</a>
</g>
</g>
<!-- Node1&#45;&gt;Node11 -->
<g id="edge20" class="edge"><title>Node1&#45;&gt;Node11</title>
<path fill="none" stroke="midnightblue" d="M87.8475,-198.898C107.849,-183.39 140.81,-159.283 172,-143 179.739,-138.96 188.147,-135.192 196.508,-131.784"/>
<polygon fill="midnightblue" stroke="midnightblue" points="197.865,-135.012 205.89,-128.095 195.303,-128.498 197.865,-135.012"/>
</g>
<!-- Node12 -->
<g id="node12" class="node"><title>Node12</title>
<g id="a_node12"><a xlink:href="../../d1/dd5/classapplication_1_1_cell_x_m_l_reader.html#a27b402db7a4f2f1cedc683e748d6014e" target="_top" xlink:title="application.CellXMLReader.get\lGridLocationShape">
<polygon fill="white" stroke="black" points="173.5,-49 173.5,-79 332.5,-79 332.5,-49 173.5,-49"/>
<text text-anchor="start" x="181.5" y="-67" font-family="Helvetica,sans-Serif" font-size="10.00">application.CellXMLReader.get</text>
<text text-anchor="middle" x="253" y="-56" font-family="Helvetica,sans-Serif" font-size="10.00">GridLocationShape</text>
</a>
</g>
</g>
<!-- Node1&#45;&gt;Node12 -->
<g id="edge21" class="edge"><title>Node1&#45;&gt;Node12</title>
<path fill="none" stroke="midnightblue" d="M77.4115,-198.892C92.7779,-172.661 127.905,-118.667 172,-89 174.926,-87.0315 178.015,-85.2116 181.209,-83.5299"/>
<polygon fill="midnightblue" stroke="midnightblue" points="182.911,-86.5965 190.446,-79.1477 179.911,-80.2722 182.911,-86.5965"/>
</g>
<!-- Node13 -->
<g id="node13" class="node"><title>Node13</title>
<g id="a_node13"><a xlink:href="../../d1/dd5/classapplication_1_1_cell_x_m_l_reader.html#a2d20a6d1c0588f8399595580d5dbe481" target="_top" xlink:title="application.CellXMLReader.get\lGridNeighborType">
<polygon fill="white" stroke="black" points="173.5,-0 173.5,-30 332.5,-30 332.5,-0 173.5,-0"/>
<text text-anchor="start" x="181.5" y="-18" font-family="Helvetica,sans-Serif" font-size="10.00">application.CellXMLReader.get</text>
<text text-anchor="middle" x="253" y="-7" font-family="Helvetica,sans-Serif" font-size="10.00">GridNeighborType</text>
</a>
</g>
</g>
<!-- Node1&#45;&gt;Node13 -->
<g id="edge22" class="edge"><title>Node1&#45;&gt;Node13</title>
<path fill="none" stroke="midnightblue" d="M73.6658,-198.788C84.8624,-164.849 116.523,-82.515 172,-39 173.626,-37.7247 175.319,-36.5171 177.066,-35.3735"/>
<polygon fill="midnightblue" stroke="midnightblue" points="179.24,-38.1631 186.197,-30.1724 175.775,-32.0806 179.24,-38.1631"/>
</g>
<!-- Node3 -->
<g id="node3" class="node"><title>Node3</title>
<g id="a_node3"><a xlink:href="../../d3/d32/classapplication_1_1_grid.html#ac41429427f1a5cae5d81a8d2b0472ad0" target="_top" xlink:title="application.Grid.addCells\lToMap">
<polygon fill="white" stroke="black" points="780,-230 780,-260 914,-260 914,-230 780,-230"/>
<text text-anchor="start" x="788" y="-248" font-family="Helvetica,sans-Serif" font-size="10.00">application.Grid.addCells</text>
<text text-anchor="middle" x="847" y="-237" font-family="Helvetica,sans-Serif" font-size="10.00">ToMap</text>
</a>
</g>
</g>
<!-- Node2&#45;&gt;Node3 -->
<g id="edge2" class="edge"><title>Node2&#45;&gt;Node3</title>
<path fill="none" stroke="midnightblue" d="M714.991,-278.965C735.037,-273.768 757.674,-267.899 778.421,-262.52"/>
<polygon fill="midnightblue" stroke="midnightblue" points="779.317,-265.904 788.119,-260.006 777.561,-259.128 779.317,-265.904"/>
</g>
<!-- Node4 -->
<g id="node4" class="node"><title>Node4</title>
<g id="a_node4"><a xlink:href="../../d3/d32/classapplication_1_1_grid.html#a2207f0a92274780283eba8d67665b992" target="_top" xlink:title="application.Grid.checkBounds">
<polygon fill="white" stroke="black" points="950,-235.5 950,-254.5 1108,-254.5 1108,-235.5 950,-235.5"/>
<text text-anchor="middle" x="1029" y="-242.5" font-family="Helvetica,sans-Serif" font-size="10.00">application.Grid.checkBounds</text>
</a>
</g>
</g>
<!-- Node3&#45;&gt;Node4 -->
<g id="edge3" class="edge"><title>Node3&#45;&gt;Node4</title>
<path fill="none" stroke="midnightblue" d="M914.003,-245C922.369,-245 931.033,-245 939.676,-245"/>
<polygon fill="midnightblue" stroke="midnightblue" points="939.794,-248.5 949.794,-245 939.794,-241.5 939.794,-248.5"/>
</g>
<!-- Node5&#45;&gt;Node3 -->
<g id="edge5" class="edge"><title>Node5&#45;&gt;Node3</title>
<path fill="none" stroke="midnightblue" d="M734.692,-245C746.268,-245 758.191,-245 769.737,-245"/>
<polygon fill="midnightblue" stroke="midnightblue" points="769.768,-248.5 779.768,-245 769.768,-241.5 769.768,-248.5"/>
</g>
<!-- Node6&#45;&gt;Node3 -->
<g id="edge7" class="edge"><title>Node6&#45;&gt;Node3</title>
<path fill="none" stroke="midnightblue" d="M689.49,-172.128C721.23,-186.906 769.678,-209.464 804.258,-225.565"/>
<polygon fill="midnightblue" stroke="midnightblue" points="803.075,-228.875 813.618,-229.923 806.03,-222.529 803.075,-228.875"/>
</g>
<!-- Node7&#45;&gt;Node2 -->
<g id="edge9" class="edge"><title>Node7&#45;&gt;Node2</title>
<path fill="none" stroke="midnightblue" d="M530.776,-290.94C541.612,-291.207 552.813,-291.483 563.849,-291.755"/>
<polygon fill="midnightblue" stroke="midnightblue" points="563.84,-295.256 573.923,-292.003 564.012,-288.258 563.84,-295.256"/>
</g>
<!-- Node7&#45;&gt;Node5 -->
<g id="edge10" class="edge"><title>Node7&#45;&gt;Node5</title>
<path fill="none" stroke="midnightblue" d="M521.293,-273.981C538.834,-270.179 557.807,-266.066 575.797,-262.167"/>
<polygon fill="midnightblue" stroke="midnightblue" points="576.643,-265.565 585.675,-260.026 575.16,-258.724 576.643,-265.565"/>
</g>
<!-- Node8&#45;&gt;Node2 -->
<g id="edge13" class="edge"><title>Node8&#45;&gt;Node2</title>
<path fill="none" stroke="midnightblue" d="M521.293,-322.981C538.834,-319.179 557.807,-315.066 575.797,-311.167"/>
<polygon fill="midnightblue" stroke="midnightblue" points="576.643,-314.565 585.675,-309.026 575.16,-307.724 576.643,-314.565"/>
</g>
<!-- Node8&#45;&gt;Node4 -->
<g id="edge12" class="edge"><title>Node8&#45;&gt;Node4</title>
<path fill="none" stroke="midnightblue" d="M531.765,-336.473C590.716,-334.391 672.767,-329.495 744,-318 832.713,-303.684 934.108,-274.405 988.521,-257.602"/>
<polygon fill="midnightblue" stroke="midnightblue" points="989.612,-260.929 998.121,-254.617 987.533,-254.244 989.612,-260.929"/>
</g>
<!-- Node9&#45;&gt;Node4 -->
<g id="edge15" class="edge"><title>Node9&#45;&gt;Node4</title>
<path fill="none" stroke="midnightblue" d="M531.631,-200.489C623.969,-200.811 780.581,-204.184 914,-221 936.059,-223.78 960.194,-228.598 980.554,-233.191"/>
<polygon fill="midnightblue" stroke="midnightblue" points="979.992,-236.653 990.523,-235.489 981.564,-229.832 979.992,-236.653"/>
</g>
<!-- Node9&#45;&gt;Node5 -->
<g id="edge16" class="edge"><title>Node9&#45;&gt;Node5</title>
<path fill="none" stroke="midnightblue" d="M521.293,-216.019C538.834,-219.821 557.807,-223.934 575.797,-227.833"/>
<polygon fill="midnightblue" stroke="midnightblue" points="575.16,-231.276 585.675,-229.974 576.643,-224.435 575.16,-231.276"/>
</g>
<!-- Node10&#45;&gt;Node8 -->
<g id="edge18" class="edge"><title>Node10&#45;&gt;Node8</title>
<path fill="none" stroke="midnightblue" d="M302.198,-292C329.27,-300.426 363.247,-311 391.797,-319.886"/>
<polygon fill="midnightblue" stroke="midnightblue" points="391.06,-323.322 401.648,-322.952 393.14,-316.638 391.06,-323.322"/>
</g>
<!-- Node10&#45;&gt;Node9 -->
<g id="edge19" class="edge"><title>Node10&#45;&gt;Node9</title>
<path fill="none" stroke="midnightblue" d="M292.723,-261.985C323.896,-249.897 367.886,-232.84 401.42,-219.837"/>
<polygon fill="midnightblue" stroke="midnightblue" points="402.964,-222.992 411.022,-216.114 400.433,-216.466 402.964,-222.992"/>
</g>
</g>
</svg>
        <g id="navigator" transform="translate(0 0)" fill="#404254">
                <rect fill="#f2f5e9" fill-opacity="0.5" stroke="#606060" stroke-width=".5" x="0" y="0" width="60" height="60"/>
                <use id="zoomplus" xlink:href="#zoomPlus" x="17" y="9" onmousedown="handleZoom(evt,'in')"/>
                <use id="zoomminus" xlink:href="#zoomMin" x="42" y="9" onmousedown="handleZoom(evt,'out')"/>
                <use id="reset" xlink:href="#resetDef" x="30" y="36" onmousedown="handleReset()"/>
                <g id="arrowUp" xlink:href="#dirArrow" transform="translate(30 24)" onmousedown="handlePan(0,-1)">
                  <use xlink:href="#rim" fill="#404040">
                        <set attributeName="fill" to="#808080" begin="arrowUp.mouseover" end="arrowUp.mouseout"/>
                  </use>
                  <path fill="none" stroke="white" stroke-width="1.5" d="M0,-3.0v7 M-2.5,-0.5L0,-3.0L2.5,-0.5"/>
                </g>
                <g id="arrowRight" xlink:href="#dirArrow" transform="rotate(90) translate(36 -43)" onmousedown="handlePan(1,0)">
                  <use xlink:href="#rim" fill="#404040">
                        <set attributeName="fill" to="#808080" begin="arrowRight.mouseover" end="arrowRight.mouseout"/>
                  </use>
                  <path fill="none" stroke="white" stroke-width="1.5" d="M0,-3.0v7 M-2.5,-0.5L0,-3.0L2.5,-0.5"/>
                </g>
                <g id="arrowDown" xlink:href="#dirArrow" transform="rotate(180) translate(-30 -48)" onmousedown="handlePan(0,1)">
                  <use xlink:href="#rim" fill="#404040">
                        <set attributeName="fill" to="#808080" begin="arrowDown.mouseover" end="arrowDown.mouseout"/>
                  </use>
                  <path fill="none" stroke="white" stroke-width="1.5" d="M0,-3.0v7 M-2.5,-0.5L0,-3.0L2.5,-0.5"/>
                </g>
                <g id="arrowLeft" xlink:href="#dirArrow" transform="rotate(270) translate(-36 17)" onmousedown="handlePan(-1,0)">
                  <use xlink:href="#rim" fill="#404040">
                        <set attributeName="fill" to="#808080" begin="arrowLeft.mouseover" end="arrowLeft.mouseout"/>
                  </use>
                  <path fill="none" stroke="white" stroke-width="1.5" d="M0,-3.0v7 M-2.5,-0.5L0,-3.0L2.5,-0.5"/>
                </g>
        </g>
        <svg viewBox="0 0 15 15" width="100%" height="30px" preserveAspectRatio="xMaxYMin meet">
         <g id="arrow_out" transform="scale(0.3 0.3)">
          <a xlink:href="classapplication_1_1_grid_a84418341012ba47bc37524654a9b4fdf_cgraph_org.svg" target="_base">
           <rect id="button" ry="5" rx="5" y="6" x="6" height="38" width="38"
                fill="#f2f5e9" fill-opacity="0.5" stroke="#606060" stroke-width="1.0"/>
           <path id="arrow"
             d="M 11.500037,31.436501 C 11.940474,20.09759 22.043105,11.32322 32.158766,21.979434 L 37.068811,17.246167 C 37.068811,17.246167 37.088388,32 37.088388,32 L 22.160133,31.978069 C 22.160133,31.978069 26.997745,27.140456 26.997745,27.140456 C 18.528582,18.264221 13.291696,25.230495 11.500037,31.436501 z"
             style="fill:#404040;"/>
          </a>
         </g>
        </svg>
</svg>
