<?xml version="1.0" encoding="UTF-8" standalone="no"?>
<!DOCTYPE svg PUBLIC "-//W3C//DTD SVG 1.1//EN"
 "http://www.w3.org/Graphics/SVG/1.1/DTD/svg11.dtd">
<!-- Generated by graphviz version 2.36.0 (20140111.2315)
 -->
<!-- Title: application.Grid.updateGrid Pages: 1 -->
<!--zoomable 96 -->
<svg id="main" version="1.1" xmlns="http://www.w3.org/2000/svg" xmlns:xlink="http://www.w3.org/1999/xlink" xml:space="preserve" onload="init(evt)">
<style type="text/css"><![CDATA[
.edge:hover path { stroke: red; }
.edge:hover polygon { stroke: red; fill: red; }
]]></style>
<script type="text/javascript"><![CDATA[
var edges = document.getElementsByTagName('g');
if (edges && edges.length) {
  for (var i=0;i<edges.length;i++) {
    if (edges[i].id.substr(0,4)=='edge') {
      edges[i].setAttribute('class','edge');
    }
  }
}
]]></script>
        <defs>
                <circle id="rim" cx="0" cy="0" r="7"/>
                <circle id="rim2" cx="0" cy="0" r="3.5"/>
                <g id="zoomPlus">
                        <use xlink:href="#rim" fill="#404040">
                                <set attributeName="fill" to="#808080" begin="zoomplus.mouseover" end="zoomplus.mouseout"/>
                        </use>
                        <path d="M-4,0h8M0,-4v8" fill="none" stroke="white" stroke-width="1.5" pointer-events="none"/>
                </g>
                <g id="zoomMin">
                        <use xlink:href="#rim" fill="#404040">
                                <set attributeName="fill" to="#808080" begin="zoomminus.mouseover" end="zoomminus.mouseout"/>
                        </use>
                        <path d="M-4,0h8" fill="none" stroke="white" stroke-width="1.5" pointer-events="none"/>
                </g>
                <g id="dirArrow">
                        <path fill="none" stroke="white" stroke-width="1.5" d="M0,-3.0v7 M-2.5,-0.5L0,-3.0L2.5,-0.5"/>
                </g>
               <g id="resetDef">
                       <use xlink:href="#rim2" fill="#404040">
                               <set attributeName="fill" to="#808080" begin="reset.mouseover" end="reset.mouseout"/>
                       </use>
               </g>
        </defs>

<script type="text/javascript">
var viewWidth = 2866;
var viewHeight = 96;
var sectionId = 'dynsection-28';
</script>
<script xlink:href="../../svgpan.js"/>
<svg id="graph" class="graph">
<g id="viewport">
<title>application.Grid.updateGrid</title>
<polygon fill="white" stroke="none" points="-4,4 -4,-92 2862,-92 2862,4 -4,4"/>
<!-- Node1 -->
<g id="node1" class="node"><title>Node1</title>
<polygon fill="#bfbfbf" stroke="black" points="0.5,-10.5 0.5,-29.5 147.5,-29.5 147.5,-10.5 0.5,-10.5"/>
<text text-anchor="middle" x="74" y="-17.5" font-family="Helvetica,sans-Serif" font-size="10.00">application.Grid.updateGrid</text>
</g>
<!-- Node2 -->
<g id="node2" class="node"><title>Node2</title>
<g id="a_node2"><a xlink:href="../../d9/d5e/classapplication_1_1_application_loop.html#a5750a9e01dbb29cdf3fa5aeec69b68d3" target="_top" xlink:title="application.ApplicationLoop.update\lGameLoop">
<polygon fill="white" stroke="black" points="184,-5 184,-35 368,-35 368,-5 184,-5"/>
<text text-anchor="start" x="192" y="-23" font-family="Helvetica,sans-Serif" font-size="10.00">application.ApplicationLoop.update</text>
<text text-anchor="middle" x="276" y="-12" font-family="Helvetica,sans-Serif" font-size="10.00">GameLoop</text>
</a>
</g>
</g>
<!-- Node1&#45;&gt;Node2 -->
<g id="edge1" class="edge"><title>Node1&#45;&gt;Node2</title>
<path fill="none" stroke="midnightblue" d="M157.778,-20C166.385,-20 175.167,-20 183.86,-20"/>
<polygon fill="midnightblue" stroke="midnightblue" points="157.77,-16.5001 147.77,-20 157.77,-23.5001 157.77,-16.5001"/>
</g>
<!-- Node3 -->
<g id="node3" class="node"><title>Node3</title>
<g id="a_node3"><a xlink:href="../../d9/d96/classapplication_1_1_main.html#a54922ba4610913cb11270dc424da1be6" target="_top" xlink:title="application.Main.activate\lStepThroughFrame">
<polygon fill="white" stroke="black" points="404.5,-5 404.5,-35 539.5,-35 539.5,-5 404.5,-5"/>
<text text-anchor="start" x="412.5" y="-23" font-family="Helvetica,sans-Serif" font-size="10.00">application.Main.activate</text>
<text text-anchor="middle" x="472" y="-12" font-family="Helvetica,sans-Serif" font-size="10.00">StepThroughFrame</text>
</a>
</g>
</g>
<!-- Node2&#45;&gt;Node3 -->
<g id="edge2" class="edge"><title>Node2&#45;&gt;Node3</title>
<path fill="none" stroke="midnightblue" d="M378.062,-20C386.939,-20 395.771,-20 404.26,-20"/>
<polygon fill="midnightblue" stroke="midnightblue" points="378.036,-16.5001 368.036,-20 378.036,-23.5001 378.036,-16.5001"/>
</g>
<!-- Node4 -->
<g id="node4" class="node"><title>Node4</title>
<g id="a_node4"><a xlink:href="../../d9/d96/classapplication_1_1_main.html#a17e3960f589de0ae82b734128978d480" target="_top" xlink:title="application.Main.createStep\lThroughButton">
<polygon fill="white" stroke="black" points="576,-5 576,-35 726,-35 726,-5 576,-5"/>
<text text-anchor="start" x="584" y="-23" font-family="Helvetica,sans-Serif" font-size="10.00">application.Main.createStep</text>
<text text-anchor="middle" x="651" y="-12" font-family="Helvetica,sans-Serif" font-size="10.00">ThroughButton</text>
</a>
</g>
</g>
<!-- Node3&#45;&gt;Node4 -->
<g id="edge3" class="edge"><title>Node3&#45;&gt;Node4</title>
<path fill="none" stroke="midnightblue" d="M549.78,-20C558.476,-20 567.325,-20 575.984,-20"/>
<polygon fill="midnightblue" stroke="midnightblue" points="549.664,-16.5001 539.664,-20 549.664,-23.5001 549.664,-16.5001"/>
</g>
<!-- Node5 -->
<g id="node5" class="node"><title>Node5</title>
<g id="a_node5"><a xlink:href="../../d9/d96/classapplication_1_1_main.html#a2ddf30fb8360296e1ad3459fe6f920fb" target="_top" xlink:title="application.Main.populate\lGridPageModules">
<polygon fill="white" stroke="black" points="762.5,-5 762.5,-35 901.5,-35 901.5,-5 762.5,-5"/>
<text text-anchor="start" x="770.5" y="-23" font-family="Helvetica,sans-Serif" font-size="10.00">application.Main.populate</text>
<text text-anchor="middle" x="832" y="-12" font-family="Helvetica,sans-Serif" font-size="10.00">GridPageModules</text>
</a>
</g>
</g>
<!-- Node4&#45;&gt;Node5 -->
<g id="edge4" class="edge"><title>Node4&#45;&gt;Node5</title>
<path fill="none" stroke="midnightblue" d="M736.313,-20C745.057,-20 753.868,-20 762.409,-20"/>
<polygon fill="midnightblue" stroke="midnightblue" points="736.098,-16.5001 726.098,-20 736.098,-23.5001 736.098,-16.5001"/>
</g>
<!-- Node6 -->
<g id="node6" class="node"><title>Node6</title>
<g id="a_node6"><a xlink:href="../../d9/d96/classapplication_1_1_main.html#adc868cfca1990edad66af3dcb8cf4349" target="_top" xlink:title="application.Main.playGame">
<polygon fill="white" stroke="black" points="938,-31.5 938,-50.5 1084,-50.5 1084,-31.5 938,-31.5"/>
<text text-anchor="middle" x="1011" y="-38.5" font-family="Helvetica,sans-Serif" font-size="10.00">application.Main.playGame</text>
</a>
</g>
</g>
<!-- Node5&#45;&gt;Node6 -->
<g id="edge5" class="edge"><title>Node5&#45;&gt;Node6</title>
<path fill="none" stroke="midnightblue" d="M911.787,-29.3477C920.459,-30.3765 929.256,-31.4202 937.841,-32.4387"/>
<polygon fill="midnightblue" stroke="midnightblue" points="912.029,-25.8518 901.686,-28.1492 911.204,-32.8031 912.029,-25.8518"/>
</g>
<!-- Node7 -->
<g id="node7" class="node"><title>Node7</title>
<g id="a_node7"><a xlink:href="../../d9/d96/classapplication_1_1_main.html#ada0f47786d75e28e627d2621d75eaf5a" target="_top" xlink:title="application.Main.activate\lStartButton">
<polygon fill="white" stroke="black" points="1120.5,-29 1120.5,-59 1255.5,-59 1255.5,-29 1120.5,-29"/>
<text text-anchor="start" x="1128.5" y="-47" font-family="Helvetica,sans-Serif" font-size="10.00">application.Main.activate</text>
<text text-anchor="middle" x="1188" y="-36" font-family="Helvetica,sans-Serif" font-size="10.00">StartButton</text>
</a>
</g>
</g>
<!-- Node6&#45;&gt;Node7 -->
<g id="edge6" class="edge"><title>Node6&#45;&gt;Node7</title>
<path fill="none" stroke="midnightblue" d="M1094.35,-42.4117C1103.05,-42.5609 1111.82,-42.7112 1120.31,-42.8568"/>
<polygon fill="midnightblue" stroke="midnightblue" points="1094.25,-38.9095 1084.19,-42.2375 1094.13,-45.9085 1094.25,-38.9095"/>
</g>
<!-- Node8 -->
<g id="node8" class="node"><title>Node8</title>
<g id="a_node8"><a xlink:href="../../d9/d96/classapplication_1_1_main.html#a64e6451d894979853890a235efe37db8" target="_top" xlink:title="application.Main.createStart\lGameButton">
<polygon fill="white" stroke="black" points="1292,-29 1292,-59 1444,-59 1444,-29 1292,-29"/>
<text text-anchor="start" x="1300" y="-47" font-family="Helvetica,sans-Serif" font-size="10.00">application.Main.createStart</text>
<text text-anchor="middle" x="1368" y="-36" font-family="Helvetica,sans-Serif" font-size="10.00">GameButton</text>
</a>
</g>
</g>
<!-- Node7&#45;&gt;Node8 -->
<g id="edge7" class="edge"><title>Node7&#45;&gt;Node8</title>
<path fill="none" stroke="midnightblue" d="M1265.65,-44C1274.34,-44 1283.2,-44 1291.87,-44"/>
<polygon fill="midnightblue" stroke="midnightblue" points="1265.53,-40.5001 1255.53,-44 1265.53,-47.5001 1265.53,-40.5001"/>
</g>
<!-- Node9 -->
<g id="node9" class="node"><title>Node9</title>
<g id="a_node9"><a xlink:href="../../d9/d96/classapplication_1_1_main.html#a5fee6c1b05965eca9205a99e3245a5fb" target="_top" xlink:title="application.Main.populate\lStartPageModules">
<polygon fill="white" stroke="black" points="1480.5,-29 1480.5,-59 1619.5,-59 1619.5,-29 1480.5,-29"/>
<text text-anchor="start" x="1488.5" y="-47" font-family="Helvetica,sans-Serif" font-size="10.00">application.Main.populate</text>
<text text-anchor="middle" x="1550" y="-36" font-family="Helvetica,sans-Serif" font-size="10.00">StartPageModules</text>
</a>
</g>
</g>
<!-- Node8&#45;&gt;Node9 -->
<g id="edge8" class="edge"><title>Node8&#45;&gt;Node9</title>
<path fill="none" stroke="midnightblue" d="M1454.27,-44C1463.04,-44 1471.86,-44 1480.41,-44"/>
<polygon fill="midnightblue" stroke="midnightblue" points="1454.03,-40.5001 1444.03,-44 1454.03,-47.5001 1454.03,-40.5001"/>
</g>
<!-- Node10 -->
<g id="node10" class="node"><title>Node10</title>
<g id="a_node10"><a xlink:href="../../d9/d96/classapplication_1_1_main.html#a4e5ad4e3de8bbd8654120180a94e870d" target="_top" xlink:title="application.Main.start">
<polygon fill="white" stroke="black" points="1656.5,-34.5 1656.5,-53.5 1775.5,-53.5 1775.5,-34.5 1656.5,-34.5"/>
<text text-anchor="middle" x="1716" y="-41.5" font-family="Helvetica,sans-Serif" font-size="10.00">application.Main.start</text>
</a>
</g>
</g>
<!-- Node9&#45;&gt;Node10 -->
<g id="edge9" class="edge"><title>Node9&#45;&gt;Node10</title>
<path fill="none" stroke="midnightblue" d="M1629.68,-44C1638.64,-44 1647.66,-44 1656.3,-44"/>
<polygon fill="midnightblue" stroke="midnightblue" points="1629.6,-40.5001 1619.6,-44 1629.6,-47.5001 1629.6,-40.5001"/>
</g>
<!-- Node11 -->
<g id="node11" class="node"><title>Node11</title>
<g id="a_node11"><a xlink:href="../../d9/d96/classapplication_1_1_main.html#ad652e3294ffb6519b18d784d5831c76a" target="_top" xlink:title="application.Main.activate\lReturntoStart">
<polygon fill="white" stroke="black" points="1812.5,-29 1812.5,-59 1947.5,-59 1947.5,-29 1812.5,-29"/>
<text text-anchor="start" x="1820.5" y="-47" font-family="Helvetica,sans-Serif" font-size="10.00">application.Main.activate</text>
<text text-anchor="middle" x="1880" y="-36" font-family="Helvetica,sans-Serif" font-size="10.00">ReturntoStart</text>
</a>
</g>
</g>
<!-- Node10&#45;&gt;Node11 -->
<g id="edge10" class="edge"><title>Node10&#45;&gt;Node11</title>
<path fill="none" stroke="midnightblue" d="M1786.08,-44C1794.81,-44 1803.73,-44 1812.42,-44"/>
<polygon fill="midnightblue" stroke="midnightblue" points="1785.94,-40.5001 1775.94,-44 1785.94,-47.5001 1785.94,-40.5001"/>
</g>
<!-- Node12 -->
<g id="node12" class="node"><title>Node12</title>
<g id="a_node12"><a xlink:href="../../d9/d96/classapplication_1_1_main.html#a4c5877fafc53c4fae488f1f30faf294b" target="_top" xlink:title="application.Main.createReturn\lToStartButton">
<polygon fill="white" stroke="black" points="1984,-29 1984,-59 2142,-59 2142,-29 1984,-29"/>
<text text-anchor="start" x="1992" y="-47" font-family="Helvetica,sans-Serif" font-size="10.00">application.Main.createReturn</text>
<text text-anchor="middle" x="2063" y="-36" font-family="Helvetica,sans-Serif" font-size="10.00">ToStartButton</text>
</a>
</g>
</g>
<!-- Node11&#45;&gt;Node12 -->
<g id="edge11" class="edge"><title>Node11&#45;&gt;Node12</title>
<path fill="none" stroke="midnightblue" d="M1957.7,-44C1966.36,-44 1975.19,-44 1983.87,-44"/>
<polygon fill="midnightblue" stroke="midnightblue" points="1957.63,-40.5001 1947.63,-44 1957.63,-47.5001 1957.63,-40.5001"/>
</g>
<!-- Node12&#45;&gt;Node5 -->
<g id="edge12" class="edge"><title>Node12&#45;&gt;Node5</title>
<path fill="none" stroke="midnightblue" d="M1990.64,-26.8172C1976.57,-23.8641 1961.87,-21.0812 1948,-19 1846.13,-3.71043 1820.01,-0 1717,-0 1187,-0 1187,-0 1187,-0 1087.74,-0 973.074,-7.93505 901.792,-13.8088"/>
<polygon fill="midnightblue" stroke="midnightblue" points="1990.24,-30.3112 2000.75,-28.99 1991.71,-23.4673 1990.24,-30.3112"/>
</g>
<!-- Node13 -->
<g id="node13" class="node"><title>Node13</title>
<g id="a_node13"><a xlink:href="../../d9/d96/classapplication_1_1_main.html#abcabe1a32eb7b5054cf34ca0def07531" target="_top" xlink:title="application.Main.populate\lErrorPageModules">
<polygon fill="white" stroke="black" points="2178.5,-29 2178.5,-59 2317.5,-59 2317.5,-29 2178.5,-29"/>
<text text-anchor="start" x="2186.5" y="-47" font-family="Helvetica,sans-Serif" font-size="10.00">application.Main.populate</text>
<text text-anchor="middle" x="2248" y="-36" font-family="Helvetica,sans-Serif" font-size="10.00">ErrorPageModules</text>
</a>
</g>
</g>
<!-- Node12&#45;&gt;Node13 -->
<g id="edge13" class="edge"><title>Node12&#45;&gt;Node13</title>
<path fill="none" stroke="midnightblue" d="M2152.36,-44C2161.1,-44 2169.87,-44 2178.37,-44"/>
<polygon fill="midnightblue" stroke="midnightblue" points="2152.14,-40.5001 2142.14,-44 2152.14,-47.5001 2152.14,-40.5001"/>
</g>
<!-- Node14 -->
<g id="node14" class="node"><title>Node14</title>
<g id="a_node14"><a xlink:href="../../d9/d96/classapplication_1_1_main.html#a81e70f73d65beae34c459628791cc5d4" target="_top" xlink:title="application.Main.activate\lErrorPage">
<polygon fill="white" stroke="black" points="2354.5,-29 2354.5,-59 2489.5,-59 2489.5,-29 2354.5,-29"/>
<text text-anchor="start" x="2362.5" y="-47" font-family="Helvetica,sans-Serif" font-size="10.00">application.Main.activate</text>
<text text-anchor="middle" x="2422" y="-36" font-family="Helvetica,sans-Serif" font-size="10.00">ErrorPage</text>
</a>
</g>
</g>
<!-- Node13&#45;&gt;Node14 -->
<g id="edge14" class="edge"><title>Node13&#45;&gt;Node14</title>
<path fill="none" stroke="midnightblue" d="M2328.15,-44C2336.88,-44 2345.7,-44 2354.25,-44"/>
<polygon fill="midnightblue" stroke="midnightblue" points="2327.97,-40.5001 2317.97,-44 2327.97,-47.5001 2327.97,-40.5001"/>
</g>
<!-- Node15 -->
<g id="node15" class="node"><title>Node15</title>
<g id="a_node15"><a xlink:href="../../d9/d96/classapplication_1_1_main.html#aef0593911aa3cbc594ac75bbb8d6a2b0" target="_top" xlink:title="application.Main.activate\lImportXMLButton">
<polygon fill="white" stroke="black" points="2526.5,-29 2526.5,-59 2661.5,-59 2661.5,-29 2526.5,-29"/>
<text text-anchor="start" x="2534.5" y="-47" font-family="Helvetica,sans-Serif" font-size="10.00">application.Main.activate</text>
<text text-anchor="middle" x="2594" y="-36" font-family="Helvetica,sans-Serif" font-size="10.00">ImportXMLButton</text>
</a>
</g>
</g>
<!-- Node14&#45;&gt;Node15 -->
<g id="edge15" class="edge"><title>Node14&#45;&gt;Node15</title>
<path fill="none" stroke="midnightblue" d="M2499.72,-44C2508.65,-44 2517.71,-44 2526.49,-44"/>
<polygon fill="midnightblue" stroke="midnightblue" points="2499.7,-40.5001 2489.7,-44 2499.7,-47.5001 2499.7,-40.5001"/>
</g>
<!-- Node16 -->
<g id="node16" class="node"><title>Node16</title>
<g id="a_node16"><a xlink:href="../../d9/d96/classapplication_1_1_main.html#a18021492af2e457d39edcbd16dc0d3c8" target="_top" xlink:title="application.Main.createImport\lXMLButton">
<polygon fill="white" stroke="black" points="2698.5,-51 2698.5,-81 2857.5,-81 2857.5,-51 2698.5,-51"/>
<text text-anchor="start" x="2706.5" y="-69" font-family="Helvetica,sans-Serif" font-size="10.00">application.Main.createImport</text>
<text text-anchor="middle" x="2778" y="-58" font-family="Helvetica,sans-Serif" font-size="10.00">XMLButton</text>
</a>
</g>
</g>
<!-- Node15&#45;&gt;Node16 -->
<g id="edge16" class="edge"><title>Node15&#45;&gt;Node16</title>
<path fill="none" stroke="midnightblue" d="M2671.87,-53.2923C2680.59,-54.3465 2689.49,-55.4221 2698.24,-56.4792"/>
<polygon fill="midnightblue" stroke="midnightblue" points="2672.08,-49.7925 2661.74,-52.0671 2671.24,-56.7419 2672.08,-49.7925"/>
</g>
<!-- Node16&#45;&gt;Node9 -->
<g id="edge17" class="edge"><title>Node16&#45;&gt;Node9</title>
<path fill="none" stroke="midnightblue" d="M2688.03,-74.5964C2616.5,-80.7676 2513.38,-88 2423,-88 1879,-88 1879,-88 1879,-88 1788.8,-88 1685.87,-71.451 1619.75,-58.6514"/>
<polygon fill="midnightblue" stroke="midnightblue" points="2688.69,-78.0519 2698.35,-73.6945 2688.08,-71.0785 2688.69,-78.0519"/>
</g>
</g>
</svg>
        <g id="navigator" transform="translate(0 0)" fill="#404254">
                <rect fill="#f2f5e9" fill-opacity="0.5" stroke="#606060" stroke-width=".5" x="0" y="0" width="60" height="60"/>
                <use id="zoomplus" xlink:href="#zoomPlus" x="17" y="9" onmousedown="handleZoom(evt,'in')"/>
                <use id="zoomminus" xlink:href="#zoomMin" x="42" y="9" onmousedown="handleZoom(evt,'out')"/>
                <use id="reset" xlink:href="#resetDef" x="30" y="36" onmousedown="handleReset()"/>
                <g id="arrowUp" xlink:href="#dirArrow" transform="translate(30 24)" onmousedown="handlePan(0,-1)">
                  <use xlink:href="#rim" fill="#404040">
                        <set attributeName="fill" to="#808080" begin="arrowUp.mouseover" end="arrowUp.mouseout"/>
                  </use>
                  <path fill="none" stroke="white" stroke-width="1.5" d="M0,-3.0v7 M-2.5,-0.5L0,-3.0L2.5,-0.5"/>
                </g>
                <g id="arrowRight" xlink:href="#dirArrow" transform="rotate(90) translate(36 -43)" onmousedown="handlePan(1,0)">
                  <use xlink:href="#rim" fill="#404040">
                        <set attributeName="fill" to="#808080" begin="arrowRight.mouseover" end="arrowRight.mouseout"/>
                  </use>
                  <path fill="none" stroke="white" stroke-width="1.5" d="M0,-3.0v7 M-2.5,-0.5L0,-3.0L2.5,-0.5"/>
                </g>
                <g id="arrowDown" xlink:href="#dirArrow" transform="rotate(180) translate(-30 -48)" onmousedown="handlePan(0,1)">
                  <use xlink:href="#rim" fill="#404040">
                        <set attributeName="fill" to="#808080" begin="arrowDown.mouseover" end="arrowDown.mouseout"/>
                  </use>
                  <path fill="none" stroke="white" stroke-width="1.5" d="M0,-3.0v7 M-2.5,-0.5L0,-3.0L2.5,-0.5"/>
                </g>
                <g id="arrowLeft" xlink:href="#dirArrow" transform="rotate(270) translate(-36 17)" onmousedown="handlePan(-1,0)">
                  <use xlink:href="#rim" fill="#404040">
                        <set attributeName="fill" to="#808080" begin="arrowLeft.mouseover" end="arrowLeft.mouseout"/>
                  </use>
                  <path fill="none" stroke="white" stroke-width="1.5" d="M0,-3.0v7 M-2.5,-0.5L0,-3.0L2.5,-0.5"/>
                </g>
        </g>
        <svg viewBox="0 0 15 15" width="100%" height="30px" preserveAspectRatio="xMaxYMin meet">
         <g id="arrow_out" transform="scale(0.3 0.3)">
          <a xlink:href="classapplication_1_1_grid_af59c90cc59f615f7eb538b683abe0d3e_icgraph_org.svg" target="_base">
           <rect id="button" ry="5" rx="5" y="6" x="6" height="38" width="38"
                fill="#f2f5e9" fill-opacity="0.5" stroke="#606060" stroke-width="1.0"/>
           <path id="arrow"
             d="M 11.500037,31.436501 C 11.940474,20.09759 22.043105,11.32322 32.158766,21.979434 L 37.068811,17.246167 C 37.068811,17.246167 37.088388,32 37.088388,32 L 22.160133,31.978069 C 22.160133,31.978069 26.997745,27.140456 26.997745,27.140456 C 18.528582,18.264221 13.291696,25.230495 11.500037,31.436501 z"
             style="fill:#404040;"/>
          </a>
         </g>
        </svg>
</svg>
