<?xml version="1.0" encoding="UTF-8" standalone="no"?>
<!DOCTYPE svg PUBLIC "-//W3C//DTD SVG 1.1//EN"
 "http://www.w3.org/Graphics/SVG/1.1/DTD/svg11.dtd">
<!-- Generated by graphviz version 2.36.0 (20140111.2315)
 -->
<!-- Title: application.Grid.createToroidalCardinalNeighborsMap Pages: 1 -->
<svg width="734pt" height="61pt"
 viewBox="0.00 0.00 734.00 61.00" xmlns="http://www.w3.org/2000/svg" xmlns:xlink="http://www.w3.org/1999/xlink">
<g id="graph0" class="graph" transform="scale(1 1) rotate(0) translate(4 57)">
<title>application.Grid.createToroidalCardinalNeighborsMap</title>
<polygon fill="white" stroke="none" points="-4,4 -4,-57 730,-57 730,4 -4,4"/>
<!-- Node1 -->
<g id="node1" class="node"><title>Node1</title>
<polygon fill="#bfbfbf" stroke="black" points="0.5,-22 0.5,-52 161.5,-52 161.5,-22 0.5,-22"/>
<text text-anchor="start" x="8.5" y="-40" font-family="Helvetica,sans-Serif" font-size="10.00">application.Grid.createToroidal</text>
<text text-anchor="middle" x="81" y="-29" font-family="Helvetica,sans-Serif" font-size="10.00">CardinalNeighborsMap</text>
</g>
<!-- Node2 -->
<g id="node2" class="node"><title>Node2</title>
<g id="a_node2"><a xlink:href="../../d3/d32/classapplication_1_1_grid.html#a2207f0a92274780283eba8d67665b992" target="_top" xlink:title="application.Grid.checkBounds">
<polygon fill="white" stroke="black" points="568,-27.5 568,-46.5 726,-46.5 726,-27.5 568,-27.5"/>
<text text-anchor="middle" x="647" y="-34.5" font-family="Helvetica,sans-Serif" font-size="10.00">application.Grid.checkBounds</text>
</a>
</g>
</g>
<!-- Node1&#45;&gt;Node2 -->
<g id="edge1" class="edge"><title>Node1&#45;&gt;Node2</title>
<path fill="none" stroke="midnightblue" d="M161.558,-38.5531C173.762,-38.7388 186.217,-38.8984 198,-39 346.439,-40.2796 383.561,-40.302 532,-39 540.323,-38.927 548.987,-38.824 557.656,-38.7029"/>
<polygon fill="midnightblue" stroke="midnightblue" points="557.867,-42.2003 567.814,-38.5531 557.764,-35.201 557.867,-42.2003"/>
</g>
<!-- Node3 -->
<g id="node3" class="node"><title>Node3</title>
<g id="a_node3"><a xlink:href="../../d3/d32/classapplication_1_1_grid.html#ae805f0f4d572a70e090900fbd8d8bad7" target="_top" xlink:title="application.Grid.createCardinal\lNeighborsMap">
<polygon fill="white" stroke="black" points="198,-0 198,-30 362,-30 362,-0 198,-0"/>
<text text-anchor="start" x="206" y="-18" font-family="Helvetica,sans-Serif" font-size="10.00">application.Grid.createCardinal</text>
<text text-anchor="middle" x="280" y="-7" font-family="Helvetica,sans-Serif" font-size="10.00">NeighborsMap</text>
</a>
</g>
</g>
<!-- Node1&#45;&gt;Node3 -->
<g id="edge2" class="edge"><title>Node1&#45;&gt;Node3</title>
<path fill="none" stroke="midnightblue" d="M161.56,-28.1152C170.156,-27.1552 178.952,-26.1728 187.673,-25.1989"/>
<polygon fill="midnightblue" stroke="midnightblue" points="188.31,-28.6497 197.86,-24.0614 187.533,-21.6929 188.31,-28.6497"/>
</g>
<!-- Node4 -->
<g id="node4" class="node"><title>Node4</title>
<g id="a_node4"><a xlink:href="../../d3/d32/classapplication_1_1_grid.html#ac41429427f1a5cae5d81a8d2b0472ad0" target="_top" xlink:title="application.Grid.addCells\lToMap">
<polygon fill="white" stroke="black" points="398,-0 398,-30 532,-30 532,-0 398,-0"/>
<text text-anchor="start" x="406" y="-18" font-family="Helvetica,sans-Serif" font-size="10.00">application.Grid.addCells</text>
<text text-anchor="middle" x="465" y="-7" font-family="Helvetica,sans-Serif" font-size="10.00">ToMap</text>
</a>
</g>
</g>
<!-- Node3&#45;&gt;Node4 -->
<g id="edge3" class="edge"><title>Node3&#45;&gt;Node4</title>
<path fill="none" stroke="midnightblue" d="M362.066,-15C370.562,-15 379.179,-15 387.62,-15"/>
<polygon fill="midnightblue" stroke="midnightblue" points="387.809,-18.5001 397.809,-15 387.809,-11.5001 387.809,-18.5001"/>
</g>
<!-- Node4&#45;&gt;Node2 -->
<g id="edge4" class="edge"><title>Node4&#45;&gt;Node2</title>
<path fill="none" stroke="midnightblue" d="M532.003,-23.0671C540.441,-24.0983 549.182,-25.1667 557.899,-26.2322"/>
<polygon fill="midnightblue" stroke="midnightblue" points="557.752,-29.7401 568.102,-27.4792 558.601,-22.7918 557.752,-29.7401"/>
</g>
</g>
</svg>
