<?xml version="1.0" encoding="UTF-8" standalone="no"?>
<!DOCTYPE svg PUBLIC "-//W3C//DTD SVG 1.1//EN"
 "http://www.w3.org/Graphics/SVG/1.1/DTD/svg11.dtd">
<!-- Generated by graphviz version 2.36.0 (20140111.2315)
 -->
<!-- Title: application.Grid.createToroidalSquareNeighborsMap Pages: 1 -->
<svg width="932pt" height="114pt"
 viewBox="0.00 0.00 932.00 114.14" xmlns="http://www.w3.org/2000/svg" xmlns:xlink="http://www.w3.org/1999/xlink">
<g id="graph0" class="graph" transform="scale(1 1) rotate(0) translate(4 110.14)">
<title>application.Grid.createToroidalSquareNeighborsMap</title>
<polygon fill="white" stroke="none" points="-4,4 -4,-110.14 928,-110.14 928,4 -4,4"/>
<!-- Node1 -->
<g id="node1" class="node"><title>Node1</title>
<polygon fill="#bfbfbf" stroke="black" points="0.5,-38.1884 0.5,-68.1884 161.5,-68.1884 161.5,-38.1884 0.5,-38.1884"/>
<text text-anchor="start" x="8.5" y="-56.1884" font-family="Helvetica,sans-Serif" font-size="10.00">application.Grid.createToroidal</text>
<text text-anchor="middle" x="81" y="-45.1884" font-family="Helvetica,sans-Serif" font-size="10.00">SquareNeighborsMap</text>
</g>
<!-- Node2 -->
<g id="node2" class="node"><title>Node2</title>
<g id="a_node2"><a xlink:href="../../d3/d32/classapplication_1_1_grid.html#a2ce9acc3e02b5443dc0243680eec5473" target="_top" xlink:title="application.Grid.createToroidal\lCardinalNeighborsMap">
<polygon fill="white" stroke="black" points="198.5,-63.1884 198.5,-93.1884 359.5,-93.1884 359.5,-63.1884 198.5,-63.1884"/>
<text text-anchor="start" x="206.5" y="-81.1884" font-family="Helvetica,sans-Serif" font-size="10.00">application.Grid.createToroidal</text>
<text text-anchor="middle" x="279" y="-70.1884" font-family="Helvetica,sans-Serif" font-size="10.00">CardinalNeighborsMap</text>
</a>
</g>
</g>
<!-- Node1&#45;&gt;Node2 -->
<g id="edge1" class="edge"><title>Node1&#45;&gt;Node2</title>
<path fill="none" stroke="midnightblue" d="M161.721,-63.3569C170.499,-64.4766 179.48,-65.6222 188.369,-66.7559"/>
<polygon fill="midnightblue" stroke="midnightblue" points="187.987,-70.2355 198.35,-68.029 188.873,-63.2918 187.987,-70.2355"/>
</g>
<!-- Node6 -->
<g id="node6" class="node"><title>Node6</title>
<g id="a_node6"><a xlink:href="../../d3/d32/classapplication_1_1_grid.html#a7e36b15310e2328fd289887bd3eda478" target="_top" xlink:title="application.Grid.createToroidal\lCornerNeighborsMap">
<polygon fill="white" stroke="black" points="198.5,-14.1884 198.5,-44.1884 359.5,-44.1884 359.5,-14.1884 198.5,-14.1884"/>
<text text-anchor="start" x="206.5" y="-32.1884" font-family="Helvetica,sans-Serif" font-size="10.00">application.Grid.createToroidal</text>
<text text-anchor="middle" x="279" y="-21.1884" font-family="Helvetica,sans-Serif" font-size="10.00">CornerNeighborsMap</text>
</a>
</g>
</g>
<!-- Node1&#45;&gt;Node6 -->
<g id="edge6" class="edge"><title>Node1&#45;&gt;Node6</title>
<path fill="none" stroke="midnightblue" d="M161.721,-43.4267C170.499,-42.3518 179.48,-41.252 188.369,-40.1636"/>
<polygon fill="midnightblue" stroke="midnightblue" points="188.85,-43.631 198.35,-38.9415 187.999,-36.6829 188.85,-43.631"/>
</g>
<!-- Node3 -->
<g id="node3" class="node"><title>Node3</title>
<g id="a_node3"><a xlink:href="../../d3/d32/classapplication_1_1_grid.html#a2207f0a92274780283eba8d67665b992" target="_top" xlink:title="application.Grid.checkBounds">
<polygon fill="white" stroke="black" points="766,-43.6884 766,-62.6884 924,-62.6884 924,-43.6884 766,-43.6884"/>
<text text-anchor="middle" x="845" y="-50.6884" font-family="Helvetica,sans-Serif" font-size="10.00">application.Grid.checkBounds</text>
</a>
</g>
</g>
<!-- Node2&#45;&gt;Node3 -->
<g id="edge2" class="edge"><title>Node2&#45;&gt;Node3</title>
<path fill="none" stroke="midnightblue" d="M341.042,-93.2493C358.663,-96.9337 377.997,-100.346 396,-102.188 542.075,-117.141 714.744,-83.8364 796.511,-64.9927"/>
<polygon fill="midnightblue" stroke="midnightblue" points="797.317,-68.3985 806.259,-62.7149 795.725,-61.5821 797.317,-68.3985"/>
</g>
<!-- Node4 -->
<g id="node4" class="node"><title>Node4</title>
<g id="a_node4"><a xlink:href="../../d3/d32/classapplication_1_1_grid.html#ae805f0f4d572a70e090900fbd8d8bad7" target="_top" xlink:title="application.Grid.createCardinal\lNeighborsMap">
<polygon fill="white" stroke="black" points="396,-63.1884 396,-93.1884 560,-93.1884 560,-63.1884 396,-63.1884"/>
<text text-anchor="start" x="404" y="-81.1884" font-family="Helvetica,sans-Serif" font-size="10.00">application.Grid.createCardinal</text>
<text text-anchor="middle" x="478" y="-70.1884" font-family="Helvetica,sans-Serif" font-size="10.00">NeighborsMap</text>
</a>
</g>
</g>
<!-- Node2&#45;&gt;Node4 -->
<g id="edge3" class="edge"><title>Node2&#45;&gt;Node4</title>
<path fill="none" stroke="midnightblue" d="M359.56,-78.1884C368.156,-78.1884 376.952,-78.1884 385.673,-78.1884"/>
<polygon fill="midnightblue" stroke="midnightblue" points="385.86,-81.6885 395.86,-78.1884 385.86,-74.6885 385.86,-81.6885"/>
</g>
<!-- Node5 -->
<g id="node5" class="node"><title>Node5</title>
<g id="a_node5"><a xlink:href="../../d3/d32/classapplication_1_1_grid.html#ac41429427f1a5cae5d81a8d2b0472ad0" target="_top" xlink:title="application.Grid.addCells\lToMap">
<polygon fill="white" stroke="black" points="596,-38.1884 596,-68.1884 730,-68.1884 730,-38.1884 596,-38.1884"/>
<text text-anchor="start" x="604" y="-56.1884" font-family="Helvetica,sans-Serif" font-size="10.00">application.Grid.addCells</text>
<text text-anchor="middle" x="663" y="-45.1884" font-family="Helvetica,sans-Serif" font-size="10.00">ToMap</text>
</a>
</g>
</g>
<!-- Node4&#45;&gt;Node5 -->
<g id="edge4" class="edge"><title>Node4&#45;&gt;Node5</title>
<path fill="none" stroke="midnightblue" d="M560.066,-67.1139C568.655,-65.9405 577.369,-64.7501 585.899,-63.5848"/>
<polygon fill="midnightblue" stroke="midnightblue" points="586.375,-67.0523 595.809,-62.2309 585.427,-60.1168 586.375,-67.0523"/>
</g>
<!-- Node5&#45;&gt;Node3 -->
<g id="edge5" class="edge"><title>Node5&#45;&gt;Node3</title>
<path fill="none" stroke="midnightblue" d="M730.003,-53.1884C738.369,-53.1884 747.033,-53.1884 755.676,-53.1884"/>
<polygon fill="midnightblue" stroke="midnightblue" points="755.794,-56.6885 765.794,-53.1884 755.794,-49.6885 755.794,-56.6885"/>
</g>
<!-- Node6&#45;&gt;Node3 -->
<g id="edge7" class="edge"><title>Node6&#45;&gt;Node3</title>
<path fill="none" stroke="midnightblue" d="M338.025,-14.1578C356.43,-10.0724 376.949,-6.21808 396,-4.18843 542.198,11.3869 715.152,-22.3048 796.81,-41.3283"/>
<polygon fill="midnightblue" stroke="midnightblue" points="796.006,-44.7346 806.543,-43.6275 797.616,-37.9221 796.006,-44.7346"/>
</g>
<!-- Node7 -->
<g id="node7" class="node"><title>Node7</title>
<g id="a_node7"><a xlink:href="../../d3/d32/classapplication_1_1_grid.html#a66a821d455f974dbfaba0e89348c4e66" target="_top" xlink:title="application.Grid.createCorner\lNeighborsMap">
<polygon fill="white" stroke="black" points="399.5,-14.1884 399.5,-44.1884 556.5,-44.1884 556.5,-14.1884 399.5,-14.1884"/>
<text text-anchor="start" x="407.5" y="-32.1884" font-family="Helvetica,sans-Serif" font-size="10.00">application.Grid.createCorner</text>
<text text-anchor="middle" x="478" y="-21.1884" font-family="Helvetica,sans-Serif" font-size="10.00">NeighborsMap</text>
</a>
</g>
</g>
<!-- Node6&#45;&gt;Node7 -->
<g id="edge8" class="edge"><title>Node6&#45;&gt;Node7</title>
<path fill="none" stroke="midnightblue" d="M359.56,-29.1884C369.308,-29.1884 379.314,-29.1884 389.175,-29.1884"/>
<polygon fill="midnightblue" stroke="midnightblue" points="389.382,-32.6885 399.382,-29.1884 389.382,-25.6885 389.382,-32.6885"/>
</g>
<!-- Node7&#45;&gt;Node5 -->
<g id="edge9" class="edge"><title>Node7&#45;&gt;Node5</title>
<path fill="none" stroke="midnightblue" d="M556.608,-39.3666C566.297,-40.6372 576.198,-41.9357 585.863,-43.2033"/>
<polygon fill="midnightblue" stroke="midnightblue" points="585.462,-46.6805 595.832,-44.5106 586.372,-39.7399 585.462,-46.6805"/>
</g>
</g>
</svg>
