<?xml version="1.0" encoding="UTF-8" standalone="no"?>
<!DOCTYPE svg PUBLIC "-//W3C//DTD SVG 1.1//EN"
 "http://www.w3.org/Graphics/SVG/1.1/DTD/svg11.dtd">
<!-- Generated by graphviz version 2.36.0 (20140111.2315)
 -->
<!-- Title: application.Grid.createToroidalSquareNeighborsMap Pages: 1 -->
<svg width="2498pt" height="116pt"
 viewBox="0.00 0.00 2498.00 116.00" xmlns="http://www.w3.org/2000/svg" xmlns:xlink="http://www.w3.org/1999/xlink">
<g id="graph0" class="graph" transform="scale(1 1) rotate(0) translate(4 112)">
<title>application.Grid.createToroidalSquareNeighborsMap</title>
<polygon fill="white" stroke="none" points="-4,4 -4,-112 2494,-112 2494,4 -4,4"/>
<!-- Node1 -->
<g id="node1" class="node"><title>Node1</title>
<polygon fill="#bfbfbf" stroke="black" points="0.5,-24 0.5,-54 161.5,-54 161.5,-24 0.5,-24"/>
<text text-anchor="start" x="8.5" y="-42" font-family="Helvetica,sans-Serif" font-size="10.00">application.Grid.createToroidal</text>
<text text-anchor="middle" x="81" y="-31" font-family="Helvetica,sans-Serif" font-size="10.00">SquareNeighborsMap</text>
</g>
<!-- Node2 -->
<g id="node2" class="node"><title>Node2</title>
<g id="a_node2"><a xlink:href="../../d3/d32/classapplication_1_1_grid.html#a84418341012ba47bc37524654a9b4fdf" target="_top" xlink:title="application.Grid.populate\lMatrixNeighborMaps">
<polygon fill="white" stroke="black" points="198,-24 198,-54 334,-54 334,-24 198,-24"/>
<text text-anchor="start" x="206" y="-42" font-family="Helvetica,sans-Serif" font-size="10.00">application.Grid.populate</text>
<text text-anchor="middle" x="266" y="-31" font-family="Helvetica,sans-Serif" font-size="10.00">MatrixNeighborMaps</text>
</a>
</g>
</g>
<!-- Node1&#45;&gt;Node2 -->
<g id="edge1" class="edge"><title>Node1&#45;&gt;Node2</title>
<path fill="none" stroke="midnightblue" d="M171.939,-39C180.656,-39 189.392,-39 197.83,-39"/>
<polygon fill="midnightblue" stroke="midnightblue" points="171.734,-35.5001 161.734,-39 171.734,-42.5001 171.734,-35.5001"/>
</g>
<!-- Node3 -->
<g id="node3" class="node"><title>Node3</title>
<g id="a_node3"><a xlink:href="../../d9/d5e/classapplication_1_1_application_loop.html#a903043ba2535055f46dbee6aca8b3eef" target="_top" xlink:title="application.ApplicationLoop.init">
<polygon fill="white" stroke="black" points="370,-29.5 370,-48.5 534,-48.5 534,-29.5 370,-29.5"/>
<text text-anchor="middle" x="452" y="-36.5" font-family="Helvetica,sans-Serif" font-size="10.00">application.ApplicationLoop.init</text>
</a>
</g>
</g>
<!-- Node2&#45;&gt;Node3 -->
<g id="edge2" class="edge"><title>Node2&#45;&gt;Node3</title>
<path fill="none" stroke="midnightblue" d="M344.392,-39C352.824,-39 361.425,-39 369.9,-39"/>
<polygon fill="midnightblue" stroke="midnightblue" points="344.209,-35.5001 334.209,-39 344.209,-42.5001 344.209,-35.5001"/>
</g>
<!-- Node4 -->
<g id="node4" class="node"><title>Node4</title>
<g id="a_node4"><a xlink:href="../../d9/d96/classapplication_1_1_main.html#adc868cfca1990edad66af3dcb8cf4349" target="_top" xlink:title="application.Main.playGame">
<polygon fill="white" stroke="black" points="570,-29.5 570,-48.5 716,-48.5 716,-29.5 570,-29.5"/>
<text text-anchor="middle" x="643" y="-36.5" font-family="Helvetica,sans-Serif" font-size="10.00">application.Main.playGame</text>
</a>
</g>
</g>
<!-- Node3&#45;&gt;Node4 -->
<g id="edge3" class="edge"><title>Node3&#45;&gt;Node4</title>
<path fill="none" stroke="midnightblue" d="M544.261,-39C552.817,-39 561.409,-39 569.755,-39"/>
<polygon fill="midnightblue" stroke="midnightblue" points="544.25,-35.5001 534.25,-39 544.25,-42.5001 544.25,-35.5001"/>
</g>
<!-- Node5 -->
<g id="node5" class="node"><title>Node5</title>
<g id="a_node5"><a xlink:href="../../d9/d96/classapplication_1_1_main.html#ada0f47786d75e28e627d2621d75eaf5a" target="_top" xlink:title="application.Main.activate\lStartButton">
<polygon fill="white" stroke="black" points="752.5,-46 752.5,-76 887.5,-76 887.5,-46 752.5,-46"/>
<text text-anchor="start" x="760.5" y="-64" font-family="Helvetica,sans-Serif" font-size="10.00">application.Main.activate</text>
<text text-anchor="middle" x="820" y="-53" font-family="Helvetica,sans-Serif" font-size="10.00">StartButton</text>
</a>
</g>
</g>
<!-- Node4&#45;&gt;Node5 -->
<g id="edge4" class="edge"><title>Node4&#45;&gt;Node5</title>
<path fill="none" stroke="midnightblue" d="M726.351,-49.3527C735.052,-50.4465 743.82,-51.5489 752.312,-52.6163"/>
<polygon fill="midnightblue" stroke="midnightblue" points="726.548,-45.85 716.19,-48.0753 725.675,-52.7953 726.548,-45.85"/>
</g>
<!-- Node6 -->
<g id="node6" class="node"><title>Node6</title>
<g id="a_node6"><a xlink:href="../../d9/d96/classapplication_1_1_main.html#a64e6451d894979853890a235efe37db8" target="_top" xlink:title="application.Main.createStart\lGameButton">
<polygon fill="white" stroke="black" points="924,-47 924,-77 1076,-77 1076,-47 924,-47"/>
<text text-anchor="start" x="932" y="-65" font-family="Helvetica,sans-Serif" font-size="10.00">application.Main.createStart</text>
<text text-anchor="middle" x="1000" y="-54" font-family="Helvetica,sans-Serif" font-size="10.00">GameButton</text>
</a>
</g>
</g>
<!-- Node5&#45;&gt;Node6 -->
<g id="edge5" class="edge"><title>Node5&#45;&gt;Node6</title>
<path fill="none" stroke="midnightblue" d="M897.646,-61.4306C906.341,-61.4794 915.196,-61.5292 923.871,-61.5779"/>
<polygon fill="midnightblue" stroke="midnightblue" points="897.553,-57.9301 887.534,-61.3738 897.514,-64.93 897.553,-57.9301"/>
</g>
<!-- Node7 -->
<g id="node7" class="node"><title>Node7</title>
<g id="a_node7"><a xlink:href="../../d9/d96/classapplication_1_1_main.html#a5fee6c1b05965eca9205a99e3245a5fb" target="_top" xlink:title="application.Main.populate\lStartPageModules">
<polygon fill="white" stroke="black" points="1112.5,-48 1112.5,-78 1251.5,-78 1251.5,-48 1112.5,-48"/>
<text text-anchor="start" x="1120.5" y="-66" font-family="Helvetica,sans-Serif" font-size="10.00">application.Main.populate</text>
<text text-anchor="middle" x="1182" y="-55" font-family="Helvetica,sans-Serif" font-size="10.00">StartPageModules</text>
</a>
</g>
</g>
<!-- Node6&#45;&gt;Node7 -->
<g id="edge6" class="edge"><title>Node6&#45;&gt;Node7</title>
<path fill="none" stroke="midnightblue" d="M1086.27,-62.4737C1095.04,-62.5224 1103.86,-62.5715 1112.41,-62.619"/>
<polygon fill="midnightblue" stroke="midnightblue" points="1086.05,-58.9726 1076.03,-62.4168 1086.01,-65.9724 1086.05,-58.9726"/>
</g>
<!-- Node8 -->
<g id="node8" class="node"><title>Node8</title>
<g id="a_node8"><a xlink:href="../../d9/d96/classapplication_1_1_main.html#a4e5ad4e3de8bbd8654120180a94e870d" target="_top" xlink:title="application.Main.start">
<polygon fill="white" stroke="black" points="1288.5,-53.5 1288.5,-72.5 1407.5,-72.5 1407.5,-53.5 1288.5,-53.5"/>
<text text-anchor="middle" x="1348" y="-60.5" font-family="Helvetica,sans-Serif" font-size="10.00">application.Main.start</text>
</a>
</g>
</g>
<!-- Node7&#45;&gt;Node8 -->
<g id="edge7" class="edge"><title>Node7&#45;&gt;Node8</title>
<path fill="none" stroke="midnightblue" d="M1261.68,-63C1270.64,-63 1279.66,-63 1288.3,-63"/>
<polygon fill="midnightblue" stroke="midnightblue" points="1261.6,-59.5001 1251.6,-63 1261.6,-66.5001 1261.6,-59.5001"/>
</g>
<!-- Node9 -->
<g id="node9" class="node"><title>Node9</title>
<g id="a_node9"><a xlink:href="../../d9/d96/classapplication_1_1_main.html#ad652e3294ffb6519b18d784d5831c76a" target="_top" xlink:title="application.Main.activate\lReturntoStart">
<polygon fill="white" stroke="black" points="1444.5,-48 1444.5,-78 1579.5,-78 1579.5,-48 1444.5,-48"/>
<text text-anchor="start" x="1452.5" y="-66" font-family="Helvetica,sans-Serif" font-size="10.00">application.Main.activate</text>
<text text-anchor="middle" x="1512" y="-55" font-family="Helvetica,sans-Serif" font-size="10.00">ReturntoStart</text>
</a>
</g>
</g>
<!-- Node8&#45;&gt;Node9 -->
<g id="edge8" class="edge"><title>Node8&#45;&gt;Node9</title>
<path fill="none" stroke="midnightblue" d="M1418.08,-63C1426.81,-63 1435.73,-63 1444.42,-63"/>
<polygon fill="midnightblue" stroke="midnightblue" points="1417.94,-59.5001 1407.94,-63 1417.94,-66.5001 1417.94,-59.5001"/>
</g>
<!-- Node10 -->
<g id="node10" class="node"><title>Node10</title>
<g id="a_node10"><a xlink:href="../../d9/d96/classapplication_1_1_main.html#a4c5877fafc53c4fae488f1f30faf294b" target="_top" xlink:title="application.Main.createReturn\lToStartButton">
<polygon fill="white" stroke="black" points="1616,-48 1616,-78 1774,-78 1774,-48 1616,-48"/>
<text text-anchor="start" x="1624" y="-66" font-family="Helvetica,sans-Serif" font-size="10.00">application.Main.createReturn</text>
<text text-anchor="middle" x="1695" y="-55" font-family="Helvetica,sans-Serif" font-size="10.00">ToStartButton</text>
</a>
</g>
</g>
<!-- Node9&#45;&gt;Node10 -->
<g id="edge9" class="edge"><title>Node9&#45;&gt;Node10</title>
<path fill="none" stroke="midnightblue" d="M1589.7,-63C1598.36,-63 1607.19,-63 1615.87,-63"/>
<polygon fill="midnightblue" stroke="midnightblue" points="1589.63,-59.5001 1579.63,-63 1589.63,-66.5001 1589.63,-59.5001"/>
</g>
<!-- Node11 -->
<g id="node11" class="node"><title>Node11</title>
<g id="a_node11"><a xlink:href="../../d9/d96/classapplication_1_1_main.html#a2ddf30fb8360296e1ad3459fe6f920fb" target="_top" xlink:title="application.Main.populate\lGridPageModules">
<polygon fill="white" stroke="black" points="1810.5,-0 1810.5,-30 1949.5,-30 1949.5,-0 1810.5,-0"/>
<text text-anchor="start" x="1818.5" y="-18" font-family="Helvetica,sans-Serif" font-size="10.00">application.Main.populate</text>
<text text-anchor="middle" x="1880" y="-7" font-family="Helvetica,sans-Serif" font-size="10.00">GridPageModules</text>
</a>
</g>
</g>
<!-- Node10&#45;&gt;Node11 -->
<g id="edge10" class="edge"><title>Node10&#45;&gt;Node11</title>
<path fill="none" stroke="midnightblue" d="M1763.29,-45.3505C1782.5,-40.3106 1803.25,-34.868 1821.8,-30.0024"/>
<polygon fill="midnightblue" stroke="midnightblue" points="1762.19,-42.0215 1753.4,-47.9442 1763.96,-48.7925 1762.19,-42.0215"/>
</g>
<!-- Node12 -->
<g id="node12" class="node"><title>Node12</title>
<g id="a_node12"><a xlink:href="../../d9/d96/classapplication_1_1_main.html#abcabe1a32eb7b5054cf34ca0def07531" target="_top" xlink:title="application.Main.populate\lErrorPageModules">
<polygon fill="white" stroke="black" points="1810.5,-49 1810.5,-79 1949.5,-79 1949.5,-49 1810.5,-49"/>
<text text-anchor="start" x="1818.5" y="-67" font-family="Helvetica,sans-Serif" font-size="10.00">application.Main.populate</text>
<text text-anchor="middle" x="1880" y="-56" font-family="Helvetica,sans-Serif" font-size="10.00">ErrorPageModules</text>
</a>
</g>
</g>
<!-- Node10&#45;&gt;Node12 -->
<g id="edge12" class="edge"><title>Node10&#45;&gt;Node12</title>
<path fill="none" stroke="midnightblue" d="M1784.36,-63.4828C1793.1,-63.5306 1801.87,-63.5785 1810.37,-63.6249"/>
<polygon fill="midnightblue" stroke="midnightblue" points="1784.16,-59.9818 1774.14,-63.427 1784.12,-66.9817 1784.16,-59.9818"/>
</g>
<!-- Node11&#45;&gt;Node4 -->
<g id="edge11" class="edge"><title>Node11&#45;&gt;Node4</title>
<path fill="none" stroke="midnightblue" d="M1800.01,-15.6807C1725.88,-16.2604 1611.92,-17 1513,-17 999,-17 999,-17 999,-17 900.972,-17 788.008,-25.46 716.328,-31.8876"/>
<polygon fill="midnightblue" stroke="midnightblue" points="1800.22,-19.1792 1810.2,-15.6001 1800.17,-12.1794 1800.22,-19.1792"/>
</g>
<!-- Node13 -->
<g id="node13" class="node"><title>Node13</title>
<g id="a_node13"><a xlink:href="../../d9/d96/classapplication_1_1_main.html#a81e70f73d65beae34c459628791cc5d4" target="_top" xlink:title="application.Main.activate\lErrorPage">
<polygon fill="white" stroke="black" points="1986.5,-49 1986.5,-79 2121.5,-79 2121.5,-49 1986.5,-49"/>
<text text-anchor="start" x="1994.5" y="-67" font-family="Helvetica,sans-Serif" font-size="10.00">application.Main.activate</text>
<text text-anchor="middle" x="2054" y="-56" font-family="Helvetica,sans-Serif" font-size="10.00">ErrorPage</text>
</a>
</g>
</g>
<!-- Node12&#45;&gt;Node13 -->
<g id="edge13" class="edge"><title>Node12&#45;&gt;Node13</title>
<path fill="none" stroke="midnightblue" d="M1960.15,-64C1968.88,-64 1977.7,-64 1986.25,-64"/>
<polygon fill="midnightblue" stroke="midnightblue" points="1959.97,-60.5001 1949.97,-64 1959.97,-67.5001 1959.97,-60.5001"/>
</g>
<!-- Node14 -->
<g id="node14" class="node"><title>Node14</title>
<g id="a_node14"><a xlink:href="../../d9/d96/classapplication_1_1_main.html#aef0593911aa3cbc594ac75bbb8d6a2b0" target="_top" xlink:title="application.Main.activate\lImportXMLButton">
<polygon fill="white" stroke="black" points="2158.5,-49 2158.5,-79 2293.5,-79 2293.5,-49 2158.5,-49"/>
<text text-anchor="start" x="2166.5" y="-67" font-family="Helvetica,sans-Serif" font-size="10.00">application.Main.activate</text>
<text text-anchor="middle" x="2226" y="-56" font-family="Helvetica,sans-Serif" font-size="10.00">ImportXMLButton</text>
</a>
</g>
</g>
<!-- Node13&#45;&gt;Node14 -->
<g id="edge14" class="edge"><title>Node13&#45;&gt;Node14</title>
<path fill="none" stroke="midnightblue" d="M2131.72,-64C2140.65,-64 2149.71,-64 2158.49,-64"/>
<polygon fill="midnightblue" stroke="midnightblue" points="2131.7,-60.5001 2121.7,-64 2131.7,-67.5001 2131.7,-60.5001"/>
</g>
<!-- Node15 -->
<g id="node15" class="node"><title>Node15</title>
<g id="a_node15"><a xlink:href="../../d9/d96/classapplication_1_1_main.html#a18021492af2e457d39edcbd16dc0d3c8" target="_top" xlink:title="application.Main.createImport\lXMLButton">
<polygon fill="white" stroke="black" points="2330.5,-71 2330.5,-101 2489.5,-101 2489.5,-71 2330.5,-71"/>
<text text-anchor="start" x="2338.5" y="-89" font-family="Helvetica,sans-Serif" font-size="10.00">application.Main.createImport</text>
<text text-anchor="middle" x="2410" y="-78" font-family="Helvetica,sans-Serif" font-size="10.00">XMLButton</text>
</a>
</g>
</g>
<!-- Node14&#45;&gt;Node15 -->
<g id="edge15" class="edge"><title>Node14&#45;&gt;Node15</title>
<path fill="none" stroke="midnightblue" d="M2303.87,-73.2923C2312.59,-74.3465 2321.49,-75.4221 2330.24,-76.4792"/>
<polygon fill="midnightblue" stroke="midnightblue" points="2304.08,-69.7925 2293.74,-72.0671 2303.24,-76.7419 2304.08,-69.7925"/>
</g>
<!-- Node15&#45;&gt;Node7 -->
<g id="edge16" class="edge"><title>Node15&#45;&gt;Node7</title>
<path fill="none" stroke="midnightblue" d="M2320.03,-94.5964C2248.5,-100.768 2145.38,-108 2055,-108 1511,-108 1511,-108 1511,-108 1420.76,-108 1317.84,-91.0749 1251.73,-77.9843"/>
<polygon fill="midnightblue" stroke="midnightblue" points="2320.69,-98.0519 2330.35,-93.6945 2320.08,-91.0785 2320.69,-98.0519"/>
</g>
</g>
</svg>
