<?xml version="1.0" encoding="UTF-8" standalone="no"?>
<!DOCTYPE svg PUBLIC "-//W3C//DTD SVG 1.1//EN"
 "http://www.w3.org/Graphics/SVG/1.1/DTD/svg11.dtd">
<!-- Generated by graphviz version 2.36.0 (20140111.2315)
 -->
<!-- Title: application.Grid.repopulateGridPane Pages: 1 -->
<svg width="3048pt" height="96pt"
 viewBox="0.00 0.00 3048.00 96.00" xmlns="http://www.w3.org/2000/svg" xmlns:xlink="http://www.w3.org/1999/xlink">
<g id="graph0" class="graph" transform="scale(1 1) rotate(0) translate(4 92)">
<title>application.Grid.repopulateGridPane</title>
<polygon fill="white" stroke="none" points="-4,4 -4,-92 3044,-92 3044,4 -4,4"/>
<!-- Node1 -->
<g id="node1" class="node"><title>Node1</title>
<polygon fill="#bfbfbf" stroke="black" points="0,-5 0,-35 146,-35 146,-5 0,-5"/>
<text text-anchor="start" x="8" y="-23" font-family="Helvetica,sans-Serif" font-size="10.00">application.Grid.repopulate</text>
<text text-anchor="middle" x="73" y="-12" font-family="Helvetica,sans-Serif" font-size="10.00">GridPane</text>
</g>
<!-- Node2 -->
<g id="node2" class="node"><title>Node2</title>
<g id="a_node2"><a xlink:href="../../d3/d32/classapplication_1_1_grid.html#af59c90cc59f615f7eb538b683abe0d3e" target="_top" xlink:title="application.Grid.updateGrid">
<polygon fill="white" stroke="black" points="182.5,-10.5 182.5,-29.5 329.5,-29.5 329.5,-10.5 182.5,-10.5"/>
<text text-anchor="middle" x="256" y="-17.5" font-family="Helvetica,sans-Serif" font-size="10.00">application.Grid.updateGrid</text>
</a>
</g>
</g>
<!-- Node1&#45;&gt;Node2 -->
<g id="edge1" class="edge"><title>Node1&#45;&gt;Node2</title>
<path fill="none" stroke="midnightblue" d="M156.207,-20C164.912,-20 173.719,-20 182.304,-20"/>
<polygon fill="midnightblue" stroke="midnightblue" points="156.056,-16.5001 146.056,-20 156.056,-23.5001 156.056,-16.5001"/>
</g>
<!-- Node3 -->
<g id="node3" class="node"><title>Node3</title>
<g id="a_node3"><a xlink:href="../../d9/d5e/classapplication_1_1_application_loop.html#a5750a9e01dbb29cdf3fa5aeec69b68d3" target="_top" xlink:title="application.ApplicationLoop.update\lGameLoop">
<polygon fill="white" stroke="black" points="366,-5 366,-35 550,-35 550,-5 366,-5"/>
<text text-anchor="start" x="374" y="-23" font-family="Helvetica,sans-Serif" font-size="10.00">application.ApplicationLoop.update</text>
<text text-anchor="middle" x="458" y="-12" font-family="Helvetica,sans-Serif" font-size="10.00">GameLoop</text>
</a>
</g>
</g>
<!-- Node2&#45;&gt;Node3 -->
<g id="edge2" class="edge"><title>Node2&#45;&gt;Node3</title>
<path fill="none" stroke="midnightblue" d="M339.778,-20C348.385,-20 357.167,-20 365.86,-20"/>
<polygon fill="midnightblue" stroke="midnightblue" points="339.77,-16.5001 329.77,-20 339.77,-23.5001 339.77,-16.5001"/>
</g>
<!-- Node4 -->
<g id="node4" class="node"><title>Node4</title>
<g id="a_node4"><a xlink:href="../../d9/d96/classapplication_1_1_main.html#a54922ba4610913cb11270dc424da1be6" target="_top" xlink:title="application.Main.activate\lStepThroughFrame">
<polygon fill="white" stroke="black" points="586.5,-5 586.5,-35 721.5,-35 721.5,-5 586.5,-5"/>
<text text-anchor="start" x="594.5" y="-23" font-family="Helvetica,sans-Serif" font-size="10.00">application.Main.activate</text>
<text text-anchor="middle" x="654" y="-12" font-family="Helvetica,sans-Serif" font-size="10.00">StepThroughFrame</text>
</a>
</g>
</g>
<!-- Node3&#45;&gt;Node4 -->
<g id="edge3" class="edge"><title>Node3&#45;&gt;Node4</title>
<path fill="none" stroke="midnightblue" d="M560.062,-20C568.939,-20 577.771,-20 586.26,-20"/>
<polygon fill="midnightblue" stroke="midnightblue" points="560.036,-16.5001 550.036,-20 560.036,-23.5001 560.036,-16.5001"/>
</g>
<!-- Node5 -->
<g id="node5" class="node"><title>Node5</title>
<g id="a_node5"><a xlink:href="../../d9/d96/classapplication_1_1_main.html#a17e3960f589de0ae82b734128978d480" target="_top" xlink:title="application.Main.createStep\lThroughButton">
<polygon fill="white" stroke="black" points="758,-5 758,-35 908,-35 908,-5 758,-5"/>
<text text-anchor="start" x="766" y="-23" font-family="Helvetica,sans-Serif" font-size="10.00">application.Main.createStep</text>
<text text-anchor="middle" x="833" y="-12" font-family="Helvetica,sans-Serif" font-size="10.00">ThroughButton</text>
</a>
</g>
</g>
<!-- Node4&#45;&gt;Node5 -->
<g id="edge4" class="edge"><title>Node4&#45;&gt;Node5</title>
<path fill="none" stroke="midnightblue" d="M731.78,-20C740.476,-20 749.325,-20 757.984,-20"/>
<polygon fill="midnightblue" stroke="midnightblue" points="731.664,-16.5001 721.664,-20 731.664,-23.5001 731.664,-16.5001"/>
</g>
<!-- Node6 -->
<g id="node6" class="node"><title>Node6</title>
<g id="a_node6"><a xlink:href="../../d9/d96/classapplication_1_1_main.html#a2ddf30fb8360296e1ad3459fe6f920fb" target="_top" xlink:title="application.Main.populate\lGridPageModules">
<polygon fill="white" stroke="black" points="944.5,-5 944.5,-35 1083.5,-35 1083.5,-5 944.5,-5"/>
<text text-anchor="start" x="952.5" y="-23" font-family="Helvetica,sans-Serif" font-size="10.00">application.Main.populate</text>
<text text-anchor="middle" x="1014" y="-12" font-family="Helvetica,sans-Serif" font-size="10.00">GridPageModules</text>
</a>
</g>
</g>
<!-- Node5&#45;&gt;Node6 -->
<g id="edge5" class="edge"><title>Node5&#45;&gt;Node6</title>
<path fill="none" stroke="midnightblue" d="M918.313,-20C927.057,-20 935.868,-20 944.409,-20"/>
<polygon fill="midnightblue" stroke="midnightblue" points="918.098,-16.5001 908.098,-20 918.098,-23.5001 918.098,-16.5001"/>
</g>
<!-- Node7 -->
<g id="node7" class="node"><title>Node7</title>
<g id="a_node7"><a xlink:href="../../d9/d96/classapplication_1_1_main.html#adc868cfca1990edad66af3dcb8cf4349" target="_top" xlink:title="application.Main.playGame">
<polygon fill="white" stroke="black" points="1120,-31.5 1120,-50.5 1266,-50.5 1266,-31.5 1120,-31.5"/>
<text text-anchor="middle" x="1193" y="-38.5" font-family="Helvetica,sans-Serif" font-size="10.00">application.Main.playGame</text>
</a>
</g>
</g>
<!-- Node6&#45;&gt;Node7 -->
<g id="edge6" class="edge"><title>Node6&#45;&gt;Node7</title>
<path fill="none" stroke="midnightblue" d="M1093.79,-29.3477C1102.46,-30.3765 1111.26,-31.4202 1119.84,-32.4387"/>
<polygon fill="midnightblue" stroke="midnightblue" points="1094.03,-25.8518 1083.69,-28.1492 1093.2,-32.8031 1094.03,-25.8518"/>
</g>
<!-- Node8 -->
<g id="node8" class="node"><title>Node8</title>
<g id="a_node8"><a xlink:href="../../d9/d96/classapplication_1_1_main.html#ada0f47786d75e28e627d2621d75eaf5a" target="_top" xlink:title="application.Main.activate\lStartButton">
<polygon fill="white" stroke="black" points="1302.5,-29 1302.5,-59 1437.5,-59 1437.5,-29 1302.5,-29"/>
<text text-anchor="start" x="1310.5" y="-47" font-family="Helvetica,sans-Serif" font-size="10.00">application.Main.activate</text>
<text text-anchor="middle" x="1370" y="-36" font-family="Helvetica,sans-Serif" font-size="10.00">StartButton</text>
</a>
</g>
</g>
<!-- Node7&#45;&gt;Node8 -->
<g id="edge7" class="edge"><title>Node7&#45;&gt;Node8</title>
<path fill="none" stroke="midnightblue" d="M1276.35,-42.4117C1285.05,-42.5609 1293.82,-42.7112 1302.31,-42.8568"/>
<polygon fill="midnightblue" stroke="midnightblue" points="1276.25,-38.9095 1266.19,-42.2375 1276.13,-45.9085 1276.25,-38.9095"/>
</g>
<!-- Node9 -->
<g id="node9" class="node"><title>Node9</title>
<g id="a_node9"><a xlink:href="../../d9/d96/classapplication_1_1_main.html#a64e6451d894979853890a235efe37db8" target="_top" xlink:title="application.Main.createStart\lGameButton">
<polygon fill="white" stroke="black" points="1474,-29 1474,-59 1626,-59 1626,-29 1474,-29"/>
<text text-anchor="start" x="1482" y="-47" font-family="Helvetica,sans-Serif" font-size="10.00">application.Main.createStart</text>
<text text-anchor="middle" x="1550" y="-36" font-family="Helvetica,sans-Serif" font-size="10.00">GameButton</text>
</a>
</g>
</g>
<!-- Node8&#45;&gt;Node9 -->
<g id="edge8" class="edge"><title>Node8&#45;&gt;Node9</title>
<path fill="none" stroke="midnightblue" d="M1447.65,-44C1456.34,-44 1465.2,-44 1473.87,-44"/>
<polygon fill="midnightblue" stroke="midnightblue" points="1447.53,-40.5001 1437.53,-44 1447.53,-47.5001 1447.53,-40.5001"/>
</g>
<!-- Node10 -->
<g id="node10" class="node"><title>Node10</title>
<g id="a_node10"><a xlink:href="../../d9/d96/classapplication_1_1_main.html#a5fee6c1b05965eca9205a99e3245a5fb" target="_top" xlink:title="application.Main.populate\lStartPageModules">
<polygon fill="white" stroke="black" points="1662.5,-29 1662.5,-59 1801.5,-59 1801.5,-29 1662.5,-29"/>
<text text-anchor="start" x="1670.5" y="-47" font-family="Helvetica,sans-Serif" font-size="10.00">application.Main.populate</text>
<text text-anchor="middle" x="1732" y="-36" font-family="Helvetica,sans-Serif" font-size="10.00">StartPageModules</text>
</a>
</g>
</g>
<!-- Node9&#45;&gt;Node10 -->
<g id="edge9" class="edge"><title>Node9&#45;&gt;Node10</title>
<path fill="none" stroke="midnightblue" d="M1636.27,-44C1645.04,-44 1653.86,-44 1662.41,-44"/>
<polygon fill="midnightblue" stroke="midnightblue" points="1636.03,-40.5001 1626.03,-44 1636.03,-47.5001 1636.03,-40.5001"/>
</g>
<!-- Node11 -->
<g id="node11" class="node"><title>Node11</title>
<g id="a_node11"><a xlink:href="../../d9/d96/classapplication_1_1_main.html#a4e5ad4e3de8bbd8654120180a94e870d" target="_top" xlink:title="application.Main.start">
<polygon fill="white" stroke="black" points="1838.5,-34.5 1838.5,-53.5 1957.5,-53.5 1957.5,-34.5 1838.5,-34.5"/>
<text text-anchor="middle" x="1898" y="-41.5" font-family="Helvetica,sans-Serif" font-size="10.00">application.Main.start</text>
</a>
</g>
</g>
<!-- Node10&#45;&gt;Node11 -->
<g id="edge10" class="edge"><title>Node10&#45;&gt;Node11</title>
<path fill="none" stroke="midnightblue" d="M1811.68,-44C1820.64,-44 1829.66,-44 1838.3,-44"/>
<polygon fill="midnightblue" stroke="midnightblue" points="1811.6,-40.5001 1801.6,-44 1811.6,-47.5001 1811.6,-40.5001"/>
</g>
<!-- Node12 -->
<g id="node12" class="node"><title>Node12</title>
<g id="a_node12"><a xlink:href="../../d9/d96/classapplication_1_1_main.html#ad652e3294ffb6519b18d784d5831c76a" target="_top" xlink:title="application.Main.activate\lReturntoStart">
<polygon fill="white" stroke="black" points="1994.5,-29 1994.5,-59 2129.5,-59 2129.5,-29 1994.5,-29"/>
<text text-anchor="start" x="2002.5" y="-47" font-family="Helvetica,sans-Serif" font-size="10.00">application.Main.activate</text>
<text text-anchor="middle" x="2062" y="-36" font-family="Helvetica,sans-Serif" font-size="10.00">ReturntoStart</text>
</a>
</g>
</g>
<!-- Node11&#45;&gt;Node12 -->
<g id="edge11" class="edge"><title>Node11&#45;&gt;Node12</title>
<path fill="none" stroke="midnightblue" d="M1968.08,-44C1976.81,-44 1985.73,-44 1994.42,-44"/>
<polygon fill="midnightblue" stroke="midnightblue" points="1967.94,-40.5001 1957.94,-44 1967.94,-47.5001 1967.94,-40.5001"/>
</g>
<!-- Node13 -->
<g id="node13" class="node"><title>Node13</title>
<g id="a_node13"><a xlink:href="../../d9/d96/classapplication_1_1_main.html#a4c5877fafc53c4fae488f1f30faf294b" target="_top" xlink:title="application.Main.createReturn\lToStartButton">
<polygon fill="white" stroke="black" points="2166,-29 2166,-59 2324,-59 2324,-29 2166,-29"/>
<text text-anchor="start" x="2174" y="-47" font-family="Helvetica,sans-Serif" font-size="10.00">application.Main.createReturn</text>
<text text-anchor="middle" x="2245" y="-36" font-family="Helvetica,sans-Serif" font-size="10.00">ToStartButton</text>
</a>
</g>
</g>
<!-- Node12&#45;&gt;Node13 -->
<g id="edge12" class="edge"><title>Node12&#45;&gt;Node13</title>
<path fill="none" stroke="midnightblue" d="M2139.7,-44C2148.36,-44 2157.19,-44 2165.87,-44"/>
<polygon fill="midnightblue" stroke="midnightblue" points="2139.63,-40.5001 2129.63,-44 2139.63,-47.5001 2139.63,-40.5001"/>
</g>
<!-- Node13&#45;&gt;Node6 -->
<g id="edge13" class="edge"><title>Node13&#45;&gt;Node6</title>
<path fill="none" stroke="midnightblue" d="M2172.64,-26.8172C2158.57,-23.8641 2143.87,-21.0812 2130,-19 2028.13,-3.71043 2002.01,-0 1899,-0 1369,-0 1369,-0 1369,-0 1269.74,-0 1155.07,-7.93505 1083.79,-13.8088"/>
<polygon fill="midnightblue" stroke="midnightblue" points="2172.24,-30.3112 2182.75,-28.99 2173.71,-23.4673 2172.24,-30.3112"/>
</g>
<!-- Node14 -->
<g id="node14" class="node"><title>Node14</title>
<g id="a_node14"><a xlink:href="../../d9/d96/classapplication_1_1_main.html#abcabe1a32eb7b5054cf34ca0def07531" target="_top" xlink:title="application.Main.populate\lErrorPageModules">
<polygon fill="white" stroke="black" points="2360.5,-29 2360.5,-59 2499.5,-59 2499.5,-29 2360.5,-29"/>
<text text-anchor="start" x="2368.5" y="-47" font-family="Helvetica,sans-Serif" font-size="10.00">application.Main.populate</text>
<text text-anchor="middle" x="2430" y="-36" font-family="Helvetica,sans-Serif" font-size="10.00">ErrorPageModules</text>
</a>
</g>
</g>
<!-- Node13&#45;&gt;Node14 -->
<g id="edge14" class="edge"><title>Node13&#45;&gt;Node14</title>
<path fill="none" stroke="midnightblue" d="M2334.36,-44C2343.1,-44 2351.87,-44 2360.37,-44"/>
<polygon fill="midnightblue" stroke="midnightblue" points="2334.14,-40.5001 2324.14,-44 2334.14,-47.5001 2334.14,-40.5001"/>
</g>
<!-- Node15 -->
<g id="node15" class="node"><title>Node15</title>
<g id="a_node15"><a xlink:href="../../d9/d96/classapplication_1_1_main.html#a81e70f73d65beae34c459628791cc5d4" target="_top" xlink:title="application.Main.activate\lErrorPage">
<polygon fill="white" stroke="black" points="2536.5,-29 2536.5,-59 2671.5,-59 2671.5,-29 2536.5,-29"/>
<text text-anchor="start" x="2544.5" y="-47" font-family="Helvetica,sans-Serif" font-size="10.00">application.Main.activate</text>
<text text-anchor="middle" x="2604" y="-36" font-family="Helvetica,sans-Serif" font-size="10.00">ErrorPage</text>
</a>
</g>
</g>
<!-- Node14&#45;&gt;Node15 -->
<g id="edge15" class="edge"><title>Node14&#45;&gt;Node15</title>
<path fill="none" stroke="midnightblue" d="M2510.15,-44C2518.88,-44 2527.7,-44 2536.25,-44"/>
<polygon fill="midnightblue" stroke="midnightblue" points="2509.97,-40.5001 2499.97,-44 2509.97,-47.5001 2509.97,-40.5001"/>
</g>
<!-- Node16 -->
<g id="node16" class="node"><title>Node16</title>
<g id="a_node16"><a xlink:href="../../d9/d96/classapplication_1_1_main.html#aef0593911aa3cbc594ac75bbb8d6a2b0" target="_top" xlink:title="application.Main.activate\lImportXMLButton">
<polygon fill="white" stroke="black" points="2708.5,-29 2708.5,-59 2843.5,-59 2843.5,-29 2708.5,-29"/>
<text text-anchor="start" x="2716.5" y="-47" font-family="Helvetica,sans-Serif" font-size="10.00">application.Main.activate</text>
<text text-anchor="middle" x="2776" y="-36" font-family="Helvetica,sans-Serif" font-size="10.00">ImportXMLButton</text>
</a>
</g>
</g>
<!-- Node15&#45;&gt;Node16 -->
<g id="edge16" class="edge"><title>Node15&#45;&gt;Node16</title>
<path fill="none" stroke="midnightblue" d="M2681.72,-44C2690.65,-44 2699.71,-44 2708.49,-44"/>
<polygon fill="midnightblue" stroke="midnightblue" points="2681.7,-40.5001 2671.7,-44 2681.7,-47.5001 2681.7,-40.5001"/>
</g>
<!-- Node17 -->
<g id="node17" class="node"><title>Node17</title>
<g id="a_node17"><a xlink:href="../../d9/d96/classapplication_1_1_main.html#a18021492af2e457d39edcbd16dc0d3c8" target="_top" xlink:title="application.Main.createImport\lXMLButton">
<polygon fill="white" stroke="black" points="2880.5,-51 2880.5,-81 3039.5,-81 3039.5,-51 2880.5,-51"/>
<text text-anchor="start" x="2888.5" y="-69" font-family="Helvetica,sans-Serif" font-size="10.00">application.Main.createImport</text>
<text text-anchor="middle" x="2960" y="-58" font-family="Helvetica,sans-Serif" font-size="10.00">XMLButton</text>
</a>
</g>
</g>
<!-- Node16&#45;&gt;Node17 -->
<g id="edge17" class="edge"><title>Node16&#45;&gt;Node17</title>
<path fill="none" stroke="midnightblue" d="M2853.87,-53.2923C2862.59,-54.3465 2871.49,-55.4221 2880.24,-56.4792"/>
<polygon fill="midnightblue" stroke="midnightblue" points="2854.08,-49.7925 2843.74,-52.0671 2853.24,-56.7419 2854.08,-49.7925"/>
</g>
<!-- Node17&#45;&gt;Node10 -->
<g id="edge18" class="edge"><title>Node17&#45;&gt;Node10</title>
<path fill="none" stroke="midnightblue" d="M2870.03,-74.5964C2798.5,-80.7676 2695.38,-88 2605,-88 2061,-88 2061,-88 2061,-88 1970.8,-88 1867.87,-71.451 1801.75,-58.6514"/>
<polygon fill="midnightblue" stroke="midnightblue" points="2870.69,-78.0519 2880.35,-73.6945 2870.08,-71.0785 2870.69,-78.0519"/>
</g>
</g>
</svg>
