<?xml version="1.0" encoding="UTF-8" standalone="no"?>
<!DOCTYPE svg PUBLIC "-//W3C//DTD SVG 1.1//EN"
 "http://www.w3.org/Graphics/SVG/1.1/DTD/svg11.dtd">
<!-- Generated by graphviz version 2.36.0 (20140111.2315)
 -->
<!-- Title: application.Grid.changeCellState Pages: 1 -->
<svg width="2534pt" height="116pt"
 viewBox="0.00 0.00 2534.00 116.00" xmlns="http://www.w3.org/2000/svg" xmlns:xlink="http://www.w3.org/1999/xlink">
<g id="graph0" class="graph" transform="scale(1 1) rotate(0) translate(4 112)">
<title>application.Grid.changeCellState</title>
<polygon fill="white" stroke="none" points="-4,4 -4,-112 2530,-112 2530,4 -4,4"/>
<!-- Node1 -->
<g id="node1" class="node"><title>Node1</title>
<polygon fill="#bfbfbf" stroke="black" points="0,-24 0,-54 146,-54 146,-24 0,-24"/>
<text text-anchor="start" x="8" y="-42" font-family="Helvetica,sans-Serif" font-size="10.00">application.Grid.changeCell</text>
<text text-anchor="middle" x="73" y="-31" font-family="Helvetica,sans-Serif" font-size="10.00">State</text>
</g>
<!-- Node2 -->
<g id="node2" class="node"><title>Node2</title>
<g id="a_node2"><a xlink:href="../../d9/d5e/classapplication_1_1_application_loop.html#ab054523f2a0e4fe79c8f3ea961d7b80e" target="_top" xlink:title="application.ApplicationLoop.editGrid">
<polygon fill="white" stroke="black" points="182,-29.5 182,-48.5 370,-48.5 370,-29.5 182,-29.5"/>
<text text-anchor="middle" x="276" y="-36.5" font-family="Helvetica,sans-Serif" font-size="10.00">application.ApplicationLoop.editGrid</text>
</a>
</g>
</g>
<!-- Node1&#45;&gt;Node2 -->
<g id="edge1" class="edge"><title>Node1&#45;&gt;Node2</title>
<path fill="none" stroke="midnightblue" d="M156.355,-39C164.696,-39 173.21,-39 181.656,-39"/>
<polygon fill="midnightblue" stroke="midnightblue" points="156.282,-35.5001 146.282,-39 156.282,-42.5001 156.282,-35.5001"/>
</g>
<!-- Node3 -->
<g id="node3" class="node"><title>Node3</title>
<g id="a_node3"><a xlink:href="../../d9/d5e/classapplication_1_1_application_loop.html#a903043ba2535055f46dbee6aca8b3eef" target="_top" xlink:title="application.ApplicationLoop.init">
<polygon fill="white" stroke="black" points="406,-29.5 406,-48.5 570,-48.5 570,-29.5 406,-29.5"/>
<text text-anchor="middle" x="488" y="-36.5" font-family="Helvetica,sans-Serif" font-size="10.00">application.ApplicationLoop.init</text>
</a>
</g>
</g>
<!-- Node2&#45;&gt;Node3 -->
<g id="edge2" class="edge"><title>Node2&#45;&gt;Node3</title>
<path fill="none" stroke="midnightblue" d="M380.152,-39C388.796,-39 397.456,-39 405.899,-39"/>
<polygon fill="midnightblue" stroke="midnightblue" points="380.026,-35.5001 370.026,-39 380.026,-42.5001 380.026,-35.5001"/>
</g>
<!-- Node4 -->
<g id="node4" class="node"><title>Node4</title>
<g id="a_node4"><a xlink:href="../../d9/d96/classapplication_1_1_main.html#adc868cfca1990edad66af3dcb8cf4349" target="_top" xlink:title="application.Main.playGame">
<polygon fill="white" stroke="black" points="606,-29.5 606,-48.5 752,-48.5 752,-29.5 606,-29.5"/>
<text text-anchor="middle" x="679" y="-36.5" font-family="Helvetica,sans-Serif" font-size="10.00">application.Main.playGame</text>
</a>
</g>
</g>
<!-- Node3&#45;&gt;Node4 -->
<g id="edge3" class="edge"><title>Node3&#45;&gt;Node4</title>
<path fill="none" stroke="midnightblue" d="M580.261,-39C588.817,-39 597.409,-39 605.755,-39"/>
<polygon fill="midnightblue" stroke="midnightblue" points="580.25,-35.5001 570.25,-39 580.25,-42.5001 580.25,-35.5001"/>
</g>
<!-- Node5 -->
<g id="node5" class="node"><title>Node5</title>
<g id="a_node5"><a xlink:href="../../d9/d96/classapplication_1_1_main.html#ada0f47786d75e28e627d2621d75eaf5a" target="_top" xlink:title="application.Main.activate\lStartButton">
<polygon fill="white" stroke="black" points="788.5,-46 788.5,-76 923.5,-76 923.5,-46 788.5,-46"/>
<text text-anchor="start" x="796.5" y="-64" font-family="Helvetica,sans-Serif" font-size="10.00">application.Main.activate</text>
<text text-anchor="middle" x="856" y="-53" font-family="Helvetica,sans-Serif" font-size="10.00">StartButton</text>
</a>
</g>
</g>
<!-- Node4&#45;&gt;Node5 -->
<g id="edge4" class="edge"><title>Node4&#45;&gt;Node5</title>
<path fill="none" stroke="midnightblue" d="M762.351,-49.3527C771.052,-50.4465 779.82,-51.5489 788.312,-52.6163"/>
<polygon fill="midnightblue" stroke="midnightblue" points="762.548,-45.85 752.19,-48.0753 761.675,-52.7953 762.548,-45.85"/>
</g>
<!-- Node6 -->
<g id="node6" class="node"><title>Node6</title>
<g id="a_node6"><a xlink:href="../../d9/d96/classapplication_1_1_main.html#a64e6451d894979853890a235efe37db8" target="_top" xlink:title="application.Main.createStart\lGameButton">
<polygon fill="white" stroke="black" points="960,-47 960,-77 1112,-77 1112,-47 960,-47"/>
<text text-anchor="start" x="968" y="-65" font-family="Helvetica,sans-Serif" font-size="10.00">application.Main.createStart</text>
<text text-anchor="middle" x="1036" y="-54" font-family="Helvetica,sans-Serif" font-size="10.00">GameButton</text>
</a>
</g>
</g>
<!-- Node5&#45;&gt;Node6 -->
<g id="edge5" class="edge"><title>Node5&#45;&gt;Node6</title>
<path fill="none" stroke="midnightblue" d="M933.646,-61.4306C942.341,-61.4794 951.196,-61.5292 959.871,-61.5779"/>
<polygon fill="midnightblue" stroke="midnightblue" points="933.553,-57.9301 923.534,-61.3738 933.514,-64.93 933.553,-57.9301"/>
</g>
<!-- Node7 -->
<g id="node7" class="node"><title>Node7</title>
<g id="a_node7"><a xlink:href="../../d9/d96/classapplication_1_1_main.html#a5fee6c1b05965eca9205a99e3245a5fb" target="_top" xlink:title="application.Main.populate\lStartPageModules">
<polygon fill="white" stroke="black" points="1148.5,-48 1148.5,-78 1287.5,-78 1287.5,-48 1148.5,-48"/>
<text text-anchor="start" x="1156.5" y="-66" font-family="Helvetica,sans-Serif" font-size="10.00">application.Main.populate</text>
<text text-anchor="middle" x="1218" y="-55" font-family="Helvetica,sans-Serif" font-size="10.00">StartPageModules</text>
</a>
</g>
</g>
<!-- Node6&#45;&gt;Node7 -->
<g id="edge6" class="edge"><title>Node6&#45;&gt;Node7</title>
<path fill="none" stroke="midnightblue" d="M1122.27,-62.4737C1131.04,-62.5224 1139.86,-62.5715 1148.41,-62.619"/>
<polygon fill="midnightblue" stroke="midnightblue" points="1122.05,-58.9726 1112.03,-62.4168 1122.01,-65.9724 1122.05,-58.9726"/>
</g>
<!-- Node8 -->
<g id="node8" class="node"><title>Node8</title>
<g id="a_node8"><a xlink:href="../../d9/d96/classapplication_1_1_main.html#a4e5ad4e3de8bbd8654120180a94e870d" target="_top" xlink:title="application.Main.start">
<polygon fill="white" stroke="black" points="1324.5,-53.5 1324.5,-72.5 1443.5,-72.5 1443.5,-53.5 1324.5,-53.5"/>
<text text-anchor="middle" x="1384" y="-60.5" font-family="Helvetica,sans-Serif" font-size="10.00">application.Main.start</text>
</a>
</g>
</g>
<!-- Node7&#45;&gt;Node8 -->
<g id="edge7" class="edge"><title>Node7&#45;&gt;Node8</title>
<path fill="none" stroke="midnightblue" d="M1297.68,-63C1306.64,-63 1315.66,-63 1324.3,-63"/>
<polygon fill="midnightblue" stroke="midnightblue" points="1297.6,-59.5001 1287.6,-63 1297.6,-66.5001 1297.6,-59.5001"/>
</g>
<!-- Node9 -->
<g id="node9" class="node"><title>Node9</title>
<g id="a_node9"><a xlink:href="../../d9/d96/classapplication_1_1_main.html#ad652e3294ffb6519b18d784d5831c76a" target="_top" xlink:title="application.Main.activate\lReturntoStart">
<polygon fill="white" stroke="black" points="1480.5,-48 1480.5,-78 1615.5,-78 1615.5,-48 1480.5,-48"/>
<text text-anchor="start" x="1488.5" y="-66" font-family="Helvetica,sans-Serif" font-size="10.00">application.Main.activate</text>
<text text-anchor="middle" x="1548" y="-55" font-family="Helvetica,sans-Serif" font-size="10.00">ReturntoStart</text>
</a>
</g>
</g>
<!-- Node8&#45;&gt;Node9 -->
<g id="edge8" class="edge"><title>Node8&#45;&gt;Node9</title>
<path fill="none" stroke="midnightblue" d="M1454.08,-63C1462.81,-63 1471.73,-63 1480.42,-63"/>
<polygon fill="midnightblue" stroke="midnightblue" points="1453.94,-59.5001 1443.94,-63 1453.94,-66.5001 1453.94,-59.5001"/>
</g>
<!-- Node10 -->
<g id="node10" class="node"><title>Node10</title>
<g id="a_node10"><a xlink:href="../../d9/d96/classapplication_1_1_main.html#a4c5877fafc53c4fae488f1f30faf294b" target="_top" xlink:title="application.Main.createReturn\lToStartButton">
<polygon fill="white" stroke="black" points="1652,-48 1652,-78 1810,-78 1810,-48 1652,-48"/>
<text text-anchor="start" x="1660" y="-66" font-family="Helvetica,sans-Serif" font-size="10.00">application.Main.createReturn</text>
<text text-anchor="middle" x="1731" y="-55" font-family="Helvetica,sans-Serif" font-size="10.00">ToStartButton</text>
</a>
</g>
</g>
<!-- Node9&#45;&gt;Node10 -->
<g id="edge9" class="edge"><title>Node9&#45;&gt;Node10</title>
<path fill="none" stroke="midnightblue" d="M1625.7,-63C1634.36,-63 1643.19,-63 1651.87,-63"/>
<polygon fill="midnightblue" stroke="midnightblue" points="1625.63,-59.5001 1615.63,-63 1625.63,-66.5001 1625.63,-59.5001"/>
</g>
<!-- Node11 -->
<g id="node11" class="node"><title>Node11</title>
<g id="a_node11"><a xlink:href="../../d9/d96/classapplication_1_1_main.html#a2ddf30fb8360296e1ad3459fe6f920fb" target="_top" xlink:title="application.Main.populate\lGridPageModules">
<polygon fill="white" stroke="black" points="1846.5,-0 1846.5,-30 1985.5,-30 1985.5,-0 1846.5,-0"/>
<text text-anchor="start" x="1854.5" y="-18" font-family="Helvetica,sans-Serif" font-size="10.00">application.Main.populate</text>
<text text-anchor="middle" x="1916" y="-7" font-family="Helvetica,sans-Serif" font-size="10.00">GridPageModules</text>
</a>
</g>
</g>
<!-- Node10&#45;&gt;Node11 -->
<g id="edge10" class="edge"><title>Node10&#45;&gt;Node11</title>
<path fill="none" stroke="midnightblue" d="M1799.29,-45.3505C1818.5,-40.3106 1839.25,-34.868 1857.8,-30.0024"/>
<polygon fill="midnightblue" stroke="midnightblue" points="1798.19,-42.0215 1789.4,-47.9442 1799.96,-48.7925 1798.19,-42.0215"/>
</g>
<!-- Node12 -->
<g id="node12" class="node"><title>Node12</title>
<g id="a_node12"><a xlink:href="../../d9/d96/classapplication_1_1_main.html#abcabe1a32eb7b5054cf34ca0def07531" target="_top" xlink:title="application.Main.populate\lErrorPageModules">
<polygon fill="white" stroke="black" points="1846.5,-49 1846.5,-79 1985.5,-79 1985.5,-49 1846.5,-49"/>
<text text-anchor="start" x="1854.5" y="-67" font-family="Helvetica,sans-Serif" font-size="10.00">application.Main.populate</text>
<text text-anchor="middle" x="1916" y="-56" font-family="Helvetica,sans-Serif" font-size="10.00">ErrorPageModules</text>
</a>
</g>
</g>
<!-- Node10&#45;&gt;Node12 -->
<g id="edge12" class="edge"><title>Node10&#45;&gt;Node12</title>
<path fill="none" stroke="midnightblue" d="M1820.36,-63.4828C1829.1,-63.5306 1837.87,-63.5785 1846.37,-63.6249"/>
<polygon fill="midnightblue" stroke="midnightblue" points="1820.16,-59.9818 1810.14,-63.427 1820.12,-66.9817 1820.16,-59.9818"/>
</g>
<!-- Node11&#45;&gt;Node4 -->
<g id="edge11" class="edge"><title>Node11&#45;&gt;Node4</title>
<path fill="none" stroke="midnightblue" d="M1836.01,-15.6807C1761.88,-16.2604 1647.92,-17 1549,-17 1035,-17 1035,-17 1035,-17 936.972,-17 824.008,-25.46 752.328,-31.8876"/>
<polygon fill="midnightblue" stroke="midnightblue" points="1836.22,-19.1792 1846.2,-15.6001 1836.17,-12.1794 1836.22,-19.1792"/>
</g>
<!-- Node13 -->
<g id="node13" class="node"><title>Node13</title>
<g id="a_node13"><a xlink:href="../../d9/d96/classapplication_1_1_main.html#a81e70f73d65beae34c459628791cc5d4" target="_top" xlink:title="application.Main.activate\lErrorPage">
<polygon fill="white" stroke="black" points="2022.5,-49 2022.5,-79 2157.5,-79 2157.5,-49 2022.5,-49"/>
<text text-anchor="start" x="2030.5" y="-67" font-family="Helvetica,sans-Serif" font-size="10.00">application.Main.activate</text>
<text text-anchor="middle" x="2090" y="-56" font-family="Helvetica,sans-Serif" font-size="10.00">ErrorPage</text>
</a>
</g>
</g>
<!-- Node12&#45;&gt;Node13 -->
<g id="edge13" class="edge"><title>Node12&#45;&gt;Node13</title>
<path fill="none" stroke="midnightblue" d="M1996.15,-64C2004.88,-64 2013.7,-64 2022.25,-64"/>
<polygon fill="midnightblue" stroke="midnightblue" points="1995.97,-60.5001 1985.97,-64 1995.97,-67.5001 1995.97,-60.5001"/>
</g>
<!-- Node14 -->
<g id="node14" class="node"><title>Node14</title>
<g id="a_node14"><a xlink:href="../../d9/d96/classapplication_1_1_main.html#aef0593911aa3cbc594ac75bbb8d6a2b0" target="_top" xlink:title="application.Main.activate\lImportXMLButton">
<polygon fill="white" stroke="black" points="2194.5,-49 2194.5,-79 2329.5,-79 2329.5,-49 2194.5,-49"/>
<text text-anchor="start" x="2202.5" y="-67" font-family="Helvetica,sans-Serif" font-size="10.00">application.Main.activate</text>
<text text-anchor="middle" x="2262" y="-56" font-family="Helvetica,sans-Serif" font-size="10.00">ImportXMLButton</text>
</a>
</g>
</g>
<!-- Node13&#45;&gt;Node14 -->
<g id="edge14" class="edge"><title>Node13&#45;&gt;Node14</title>
<path fill="none" stroke="midnightblue" d="M2167.72,-64C2176.65,-64 2185.71,-64 2194.49,-64"/>
<polygon fill="midnightblue" stroke="midnightblue" points="2167.7,-60.5001 2157.7,-64 2167.7,-67.5001 2167.7,-60.5001"/>
</g>
<!-- Node15 -->
<g id="node15" class="node"><title>Node15</title>
<g id="a_node15"><a xlink:href="../../d9/d96/classapplication_1_1_main.html#a18021492af2e457d39edcbd16dc0d3c8" target="_top" xlink:title="application.Main.createImport\lXMLButton">
<polygon fill="white" stroke="black" points="2366.5,-71 2366.5,-101 2525.5,-101 2525.5,-71 2366.5,-71"/>
<text text-anchor="start" x="2374.5" y="-89" font-family="Helvetica,sans-Serif" font-size="10.00">application.Main.createImport</text>
<text text-anchor="middle" x="2446" y="-78" font-family="Helvetica,sans-Serif" font-size="10.00">XMLButton</text>
</a>
</g>
</g>
<!-- Node14&#45;&gt;Node15 -->
<g id="edge15" class="edge"><title>Node14&#45;&gt;Node15</title>
<path fill="none" stroke="midnightblue" d="M2339.87,-73.2923C2348.59,-74.3465 2357.49,-75.4221 2366.24,-76.4792"/>
<polygon fill="midnightblue" stroke="midnightblue" points="2340.08,-69.7925 2329.74,-72.0671 2339.24,-76.7419 2340.08,-69.7925"/>
</g>
<!-- Node15&#45;&gt;Node7 -->
<g id="edge16" class="edge"><title>Node15&#45;&gt;Node7</title>
<path fill="none" stroke="midnightblue" d="M2356.03,-94.5964C2284.5,-100.768 2181.38,-108 2091,-108 1547,-108 1547,-108 1547,-108 1456.76,-108 1353.84,-91.0749 1287.73,-77.9843"/>
<polygon fill="midnightblue" stroke="midnightblue" points="2356.69,-98.0519 2366.35,-93.6945 2356.08,-91.0785 2356.69,-98.0519"/>
</g>
</g>
</svg>
