<?xml version="1.0" encoding="UTF-8" standalone="no"?>
<!DOCTYPE svg PUBLIC "-//W3C//DTD SVG 1.1//EN"
 "http://www.w3.org/Graphics/SVG/1.1/DTD/svg11.dtd">
<!-- Generated by graphviz version 2.36.0 (20140111.2315)
 -->
<!-- Title: application.Grid.populateMatrixNeighborMaps Pages: 1 -->
<svg width="2300pt" height="116pt"
 viewBox="0.00 0.00 2300.00 116.00" xmlns="http://www.w3.org/2000/svg" xmlns:xlink="http://www.w3.org/1999/xlink">
<g id="graph0" class="graph" transform="scale(1 1) rotate(0) translate(4 112)">
<title>application.Grid.populateMatrixNeighborMaps</title>
<polygon fill="white" stroke="none" points="-4,4 -4,-112 2296,-112 2296,4 -4,4"/>
<!-- Node1 -->
<g id="node1" class="node"><title>Node1</title>
<polygon fill="#bfbfbf" stroke="black" points="0,-24 0,-54 136,-54 136,-24 0,-24"/>
<text text-anchor="start" x="8" y="-42" font-family="Helvetica,sans-Serif" font-size="10.00">application.Grid.populate</text>
<text text-anchor="middle" x="68" y="-31" font-family="Helvetica,sans-Serif" font-size="10.00">MatrixNeighborMaps</text>
</g>
<!-- Node2 -->
<g id="node2" class="node"><title>Node2</title>
<g id="a_node2"><a xlink:href="../../d9/d5e/classapplication_1_1_application_loop.html#a903043ba2535055f46dbee6aca8b3eef" target="_top" xlink:title="application.ApplicationLoop.init">
<polygon fill="white" stroke="black" points="172,-29.5 172,-48.5 336,-48.5 336,-29.5 172,-29.5"/>
<text text-anchor="middle" x="254" y="-36.5" font-family="Helvetica,sans-Serif" font-size="10.00">application.ApplicationLoop.init</text>
</a>
</g>
</g>
<!-- Node1&#45;&gt;Node2 -->
<g id="edge1" class="edge"><title>Node1&#45;&gt;Node2</title>
<path fill="none" stroke="midnightblue" d="M146.392,-39C154.824,-39 163.425,-39 171.9,-39"/>
<polygon fill="midnightblue" stroke="midnightblue" points="146.209,-35.5001 136.209,-39 146.209,-42.5001 146.209,-35.5001"/>
</g>
<!-- Node3 -->
<g id="node3" class="node"><title>Node3</title>
<g id="a_node3"><a xlink:href="../../d9/d96/classapplication_1_1_main.html#adc868cfca1990edad66af3dcb8cf4349" target="_top" xlink:title="application.Main.playGame">
<polygon fill="white" stroke="black" points="372,-29.5 372,-48.5 518,-48.5 518,-29.5 372,-29.5"/>
<text text-anchor="middle" x="445" y="-36.5" font-family="Helvetica,sans-Serif" font-size="10.00">application.Main.playGame</text>
</a>
</g>
</g>
<!-- Node2&#45;&gt;Node3 -->
<g id="edge2" class="edge"><title>Node2&#45;&gt;Node3</title>
<path fill="none" stroke="midnightblue" d="M346.261,-39C354.817,-39 363.409,-39 371.755,-39"/>
<polygon fill="midnightblue" stroke="midnightblue" points="346.25,-35.5001 336.25,-39 346.25,-42.5001 346.25,-35.5001"/>
</g>
<!-- Node4 -->
<g id="node4" class="node"><title>Node4</title>
<g id="a_node4"><a xlink:href="../../d9/d96/classapplication_1_1_main.html#ada0f47786d75e28e627d2621d75eaf5a" target="_top" xlink:title="application.Main.activate\lStartButton">
<polygon fill="white" stroke="black" points="554.5,-46 554.5,-76 689.5,-76 689.5,-46 554.5,-46"/>
<text text-anchor="start" x="562.5" y="-64" font-family="Helvetica,sans-Serif" font-size="10.00">application.Main.activate</text>
<text text-anchor="middle" x="622" y="-53" font-family="Helvetica,sans-Serif" font-size="10.00">StartButton</text>
</a>
</g>
</g>
<!-- Node3&#45;&gt;Node4 -->
<g id="edge3" class="edge"><title>Node3&#45;&gt;Node4</title>
<path fill="none" stroke="midnightblue" d="M528.351,-49.3527C537.052,-50.4465 545.82,-51.5489 554.312,-52.6163"/>
<polygon fill="midnightblue" stroke="midnightblue" points="528.548,-45.85 518.19,-48.0753 527.675,-52.7953 528.548,-45.85"/>
</g>
<!-- Node5 -->
<g id="node5" class="node"><title>Node5</title>
<g id="a_node5"><a xlink:href="../../d9/d96/classapplication_1_1_main.html#a64e6451d894979853890a235efe37db8" target="_top" xlink:title="application.Main.createStart\lGameButton">
<polygon fill="white" stroke="black" points="726,-47 726,-77 878,-77 878,-47 726,-47"/>
<text text-anchor="start" x="734" y="-65" font-family="Helvetica,sans-Serif" font-size="10.00">application.Main.createStart</text>
<text text-anchor="middle" x="802" y="-54" font-family="Helvetica,sans-Serif" font-size="10.00">GameButton</text>
</a>
</g>
</g>
<!-- Node4&#45;&gt;Node5 -->
<g id="edge4" class="edge"><title>Node4&#45;&gt;Node5</title>
<path fill="none" stroke="midnightblue" d="M699.646,-61.4306C708.341,-61.4794 717.196,-61.5292 725.871,-61.5779"/>
<polygon fill="midnightblue" stroke="midnightblue" points="699.553,-57.9301 689.534,-61.3738 699.514,-64.93 699.553,-57.9301"/>
</g>
<!-- Node6 -->
<g id="node6" class="node"><title>Node6</title>
<g id="a_node6"><a xlink:href="../../d9/d96/classapplication_1_1_main.html#a5fee6c1b05965eca9205a99e3245a5fb" target="_top" xlink:title="application.Main.populate\lStartPageModules">
<polygon fill="white" stroke="black" points="914.5,-48 914.5,-78 1053.5,-78 1053.5,-48 914.5,-48"/>
<text text-anchor="start" x="922.5" y="-66" font-family="Helvetica,sans-Serif" font-size="10.00">application.Main.populate</text>
<text text-anchor="middle" x="984" y="-55" font-family="Helvetica,sans-Serif" font-size="10.00">StartPageModules</text>
</a>
</g>
</g>
<!-- Node5&#45;&gt;Node6 -->
<g id="edge5" class="edge"><title>Node5&#45;&gt;Node6</title>
<path fill="none" stroke="midnightblue" d="M888.274,-62.4737C897.039,-62.5224 905.864,-62.5715 914.415,-62.619"/>
<polygon fill="midnightblue" stroke="midnightblue" points="888.052,-58.9726 878.033,-62.4168 888.013,-65.9724 888.052,-58.9726"/>
</g>
<!-- Node7 -->
<g id="node7" class="node"><title>Node7</title>
<g id="a_node7"><a xlink:href="../../d9/d96/classapplication_1_1_main.html#a4e5ad4e3de8bbd8654120180a94e870d" target="_top" xlink:title="application.Main.start">
<polygon fill="white" stroke="black" points="1090.5,-53.5 1090.5,-72.5 1209.5,-72.5 1209.5,-53.5 1090.5,-53.5"/>
<text text-anchor="middle" x="1150" y="-60.5" font-family="Helvetica,sans-Serif" font-size="10.00">application.Main.start</text>
</a>
</g>
</g>
<!-- Node6&#45;&gt;Node7 -->
<g id="edge6" class="edge"><title>Node6&#45;&gt;Node7</title>
<path fill="none" stroke="midnightblue" d="M1063.68,-63C1072.64,-63 1081.66,-63 1090.3,-63"/>
<polygon fill="midnightblue" stroke="midnightblue" points="1063.6,-59.5001 1053.6,-63 1063.6,-66.5001 1063.6,-59.5001"/>
</g>
<!-- Node8 -->
<g id="node8" class="node"><title>Node8</title>
<g id="a_node8"><a xlink:href="../../d9/d96/classapplication_1_1_main.html#ad652e3294ffb6519b18d784d5831c76a" target="_top" xlink:title="application.Main.activate\lReturntoStart">
<polygon fill="white" stroke="black" points="1246.5,-48 1246.5,-78 1381.5,-78 1381.5,-48 1246.5,-48"/>
<text text-anchor="start" x="1254.5" y="-66" font-family="Helvetica,sans-Serif" font-size="10.00">application.Main.activate</text>
<text text-anchor="middle" x="1314" y="-55" font-family="Helvetica,sans-Serif" font-size="10.00">ReturntoStart</text>
</a>
</g>
</g>
<!-- Node7&#45;&gt;Node8 -->
<g id="edge7" class="edge"><title>Node7&#45;&gt;Node8</title>
<path fill="none" stroke="midnightblue" d="M1220.08,-63C1228.81,-63 1237.73,-63 1246.42,-63"/>
<polygon fill="midnightblue" stroke="midnightblue" points="1219.94,-59.5001 1209.94,-63 1219.94,-66.5001 1219.94,-59.5001"/>
</g>
<!-- Node9 -->
<g id="node9" class="node"><title>Node9</title>
<g id="a_node9"><a xlink:href="../../d9/d96/classapplication_1_1_main.html#a4c5877fafc53c4fae488f1f30faf294b" target="_top" xlink:title="application.Main.createReturn\lToStartButton">
<polygon fill="white" stroke="black" points="1418,-48 1418,-78 1576,-78 1576,-48 1418,-48"/>
<text text-anchor="start" x="1426" y="-66" font-family="Helvetica,sans-Serif" font-size="10.00">application.Main.createReturn</text>
<text text-anchor="middle" x="1497" y="-55" font-family="Helvetica,sans-Serif" font-size="10.00">ToStartButton</text>
</a>
</g>
</g>
<!-- Node8&#45;&gt;Node9 -->
<g id="edge8" class="edge"><title>Node8&#45;&gt;Node9</title>
<path fill="none" stroke="midnightblue" d="M1391.7,-63C1400.36,-63 1409.19,-63 1417.87,-63"/>
<polygon fill="midnightblue" stroke="midnightblue" points="1391.63,-59.5001 1381.63,-63 1391.63,-66.5001 1391.63,-59.5001"/>
</g>
<!-- Node10 -->
<g id="node10" class="node"><title>Node10</title>
<g id="a_node10"><a xlink:href="../../d9/d96/classapplication_1_1_main.html#a2ddf30fb8360296e1ad3459fe6f920fb" target="_top" xlink:title="application.Main.populate\lGridPageModules">
<polygon fill="white" stroke="black" points="1612.5,-0 1612.5,-30 1751.5,-30 1751.5,-0 1612.5,-0"/>
<text text-anchor="start" x="1620.5" y="-18" font-family="Helvetica,sans-Serif" font-size="10.00">application.Main.populate</text>
<text text-anchor="middle" x="1682" y="-7" font-family="Helvetica,sans-Serif" font-size="10.00">GridPageModules</text>
</a>
</g>
</g>
<!-- Node9&#45;&gt;Node10 -->
<g id="edge9" class="edge"><title>Node9&#45;&gt;Node10</title>
<path fill="none" stroke="midnightblue" d="M1565.29,-45.3505C1584.5,-40.3106 1605.25,-34.868 1623.8,-30.0024"/>
<polygon fill="midnightblue" stroke="midnightblue" points="1564.19,-42.0215 1555.4,-47.9442 1565.96,-48.7925 1564.19,-42.0215"/>
</g>
<!-- Node11 -->
<g id="node11" class="node"><title>Node11</title>
<g id="a_node11"><a xlink:href="../../d9/d96/classapplication_1_1_main.html#abcabe1a32eb7b5054cf34ca0def07531" target="_top" xlink:title="application.Main.populate\lErrorPageModules">
<polygon fill="white" stroke="black" points="1612.5,-49 1612.5,-79 1751.5,-79 1751.5,-49 1612.5,-49"/>
<text text-anchor="start" x="1620.5" y="-67" font-family="Helvetica,sans-Serif" font-size="10.00">application.Main.populate</text>
<text text-anchor="middle" x="1682" y="-56" font-family="Helvetica,sans-Serif" font-size="10.00">ErrorPageModules</text>
</a>
</g>
</g>
<!-- Node9&#45;&gt;Node11 -->
<g id="edge11" class="edge"><title>Node9&#45;&gt;Node11</title>
<path fill="none" stroke="midnightblue" d="M1586.36,-63.4828C1595.1,-63.5306 1603.87,-63.5785 1612.37,-63.6249"/>
<polygon fill="midnightblue" stroke="midnightblue" points="1586.16,-59.9818 1576.14,-63.427 1586.12,-66.9817 1586.16,-59.9818"/>
</g>
<!-- Node10&#45;&gt;Node3 -->
<g id="edge10" class="edge"><title>Node10&#45;&gt;Node3</title>
<path fill="none" stroke="midnightblue" d="M1602.01,-15.6807C1527.88,-16.2604 1413.92,-17 1315,-17 801,-17 801,-17 801,-17 702.972,-17 590.008,-25.46 518.328,-31.8876"/>
<polygon fill="midnightblue" stroke="midnightblue" points="1602.22,-19.1792 1612.2,-15.6001 1602.17,-12.1794 1602.22,-19.1792"/>
</g>
<!-- Node12 -->
<g id="node12" class="node"><title>Node12</title>
<g id="a_node12"><a xlink:href="../../d9/d96/classapplication_1_1_main.html#a81e70f73d65beae34c459628791cc5d4" target="_top" xlink:title="application.Main.activate\lErrorPage">
<polygon fill="white" stroke="black" points="1788.5,-49 1788.5,-79 1923.5,-79 1923.5,-49 1788.5,-49"/>
<text text-anchor="start" x="1796.5" y="-67" font-family="Helvetica,sans-Serif" font-size="10.00">application.Main.activate</text>
<text text-anchor="middle" x="1856" y="-56" font-family="Helvetica,sans-Serif" font-size="10.00">ErrorPage</text>
</a>
</g>
</g>
<!-- Node11&#45;&gt;Node12 -->
<g id="edge12" class="edge"><title>Node11&#45;&gt;Node12</title>
<path fill="none" stroke="midnightblue" d="M1762.15,-64C1770.88,-64 1779.7,-64 1788.25,-64"/>
<polygon fill="midnightblue" stroke="midnightblue" points="1761.97,-60.5001 1751.97,-64 1761.97,-67.5001 1761.97,-60.5001"/>
</g>
<!-- Node13 -->
<g id="node13" class="node"><title>Node13</title>
<g id="a_node13"><a xlink:href="../../d9/d96/classapplication_1_1_main.html#aef0593911aa3cbc594ac75bbb8d6a2b0" target="_top" xlink:title="application.Main.activate\lImportXMLButton">
<polygon fill="white" stroke="black" points="1960.5,-49 1960.5,-79 2095.5,-79 2095.5,-49 1960.5,-49"/>
<text text-anchor="start" x="1968.5" y="-67" font-family="Helvetica,sans-Serif" font-size="10.00">application.Main.activate</text>
<text text-anchor="middle" x="2028" y="-56" font-family="Helvetica,sans-Serif" font-size="10.00">ImportXMLButton</text>
</a>
</g>
</g>
<!-- Node12&#45;&gt;Node13 -->
<g id="edge13" class="edge"><title>Node12&#45;&gt;Node13</title>
<path fill="none" stroke="midnightblue" d="M1933.72,-64C1942.65,-64 1951.71,-64 1960.49,-64"/>
<polygon fill="midnightblue" stroke="midnightblue" points="1933.7,-60.5001 1923.7,-64 1933.7,-67.5001 1933.7,-60.5001"/>
</g>
<!-- Node14 -->
<g id="node14" class="node"><title>Node14</title>
<g id="a_node14"><a xlink:href="../../d9/d96/classapplication_1_1_main.html#a18021492af2e457d39edcbd16dc0d3c8" target="_top" xlink:title="application.Main.createImport\lXMLButton">
<polygon fill="white" stroke="black" points="2132.5,-71 2132.5,-101 2291.5,-101 2291.5,-71 2132.5,-71"/>
<text text-anchor="start" x="2140.5" y="-89" font-family="Helvetica,sans-Serif" font-size="10.00">application.Main.createImport</text>
<text text-anchor="middle" x="2212" y="-78" font-family="Helvetica,sans-Serif" font-size="10.00">XMLButton</text>
</a>
</g>
</g>
<!-- Node13&#45;&gt;Node14 -->
<g id="edge14" class="edge"><title>Node13&#45;&gt;Node14</title>
<path fill="none" stroke="midnightblue" d="M2105.87,-73.2923C2114.59,-74.3465 2123.49,-75.4221 2132.24,-76.4792"/>
<polygon fill="midnightblue" stroke="midnightblue" points="2106.08,-69.7925 2095.74,-72.0671 2105.24,-76.7419 2106.08,-69.7925"/>
</g>
<!-- Node14&#45;&gt;Node6 -->
<g id="edge15" class="edge"><title>Node14&#45;&gt;Node6</title>
<path fill="none" stroke="midnightblue" d="M2122.03,-94.5964C2050.5,-100.768 1947.38,-108 1857,-108 1313,-108 1313,-108 1313,-108 1222.76,-108 1119.84,-91.0749 1053.73,-77.9843"/>
<polygon fill="midnightblue" stroke="midnightblue" points="2122.69,-98.0519 2132.35,-93.6945 2122.08,-91.0785 2122.69,-98.0519"/>
</g>
</g>
</svg>
