<?xml version="1.0" encoding="UTF-8" standalone="no"?>
<!DOCTYPE svg PUBLIC "-//W3C//DTD SVG 1.1//EN"
 "http://www.w3.org/Graphics/SVG/1.1/DTD/svg11.dtd">
<!-- Generated by graphviz version 2.36.0 (20140111.2315)
 -->
<!-- Title: application.Grid.createCornerNeighborsMap Pages: 1 -->
<svg width="2890pt" height="164pt"
 viewBox="0.00 0.00 2890.00 164.00" xmlns="http://www.w3.org/2000/svg" xmlns:xlink="http://www.w3.org/1999/xlink">
<g id="graph0" class="graph" transform="scale(1 1) rotate(0) translate(4 160)">
<title>application.Grid.createCornerNeighborsMap</title>
<polygon fill="white" stroke="none" points="-4,4 -4,-160 2886,-160 2886,4 -4,4"/>
<!-- Node1 -->
<g id="node1" class="node"><title>Node1</title>
<polygon fill="#bfbfbf" stroke="black" points="0.5,-82 0.5,-112 157.5,-112 157.5,-82 0.5,-82"/>
<text text-anchor="start" x="8.5" y="-100" font-family="Helvetica,sans-Serif" font-size="10.00">application.Grid.createCorner</text>
<text text-anchor="middle" x="79" y="-89" font-family="Helvetica,sans-Serif" font-size="10.00">NeighborsMap</text>
</g>
<!-- Node2 -->
<g id="node2" class="node"><title>Node2</title>
<g id="a_node2"><a xlink:href="../../d3/d32/classapplication_1_1_grid.html#a5d8c63199bedd9c3baee2b9d5f199825" target="_top" xlink:title="application.Grid.createSquare\lNeighborsMap">
<polygon fill="white" stroke="black" points="393.5,-126 393.5,-156 552.5,-156 552.5,-126 393.5,-126"/>
<text text-anchor="start" x="401.5" y="-144" font-family="Helvetica,sans-Serif" font-size="10.00">application.Grid.createSquare</text>
<text text-anchor="middle" x="473" y="-133" font-family="Helvetica,sans-Serif" font-size="10.00">NeighborsMap</text>
</a>
</g>
</g>
<!-- Node1&#45;&gt;Node2 -->
<g id="edge1" class="edge"><title>Node1&#45;&gt;Node2</title>
<path fill="none" stroke="midnightblue" d="M167.599,-107.89C176.514,-108.959 185.436,-110.012 194,-111 261.273,-118.76 337.778,-126.971 393.478,-132.837"/>
<polygon fill="midnightblue" stroke="midnightblue" points="167.902,-104.401 157.555,-106.68 167.064,-111.351 167.902,-104.401"/>
</g>
<!-- Node3 -->
<g id="node3" class="node"><title>Node3</title>
<g id="a_node3"><a xlink:href="../../d3/d32/classapplication_1_1_grid.html#a84418341012ba47bc37524654a9b4fdf" target="_top" xlink:title="application.Grid.populate\lMatrixNeighborMaps">
<polygon fill="white" stroke="black" points="590,-63 590,-93 726,-93 726,-63 590,-63"/>
<text text-anchor="start" x="598" y="-81" font-family="Helvetica,sans-Serif" font-size="10.00">application.Grid.populate</text>
<text text-anchor="middle" x="658" y="-70" font-family="Helvetica,sans-Serif" font-size="10.00">MatrixNeighborMaps</text>
</a>
</g>
</g>
<!-- Node1&#45;&gt;Node3 -->
<g id="edge22" class="edge"><title>Node1&#45;&gt;Node3</title>
<path fill="none" stroke="midnightblue" d="M167.77,-94.1098C283.642,-90.2943 485.166,-83.6583 589.729,-80.2152"/>
<polygon fill="midnightblue" stroke="midnightblue" points="167.397,-90.6201 157.517,-94.4474 167.627,-97.6163 167.397,-90.6201"/>
</g>
<!-- Node17 -->
<g id="node17" class="node"><title>Node17</title>
<g id="a_node17"><a xlink:href="../../d3/d32/classapplication_1_1_grid.html#a7e36b15310e2328fd289887bd3eda478" target="_top" xlink:title="application.Grid.createToroidal\lCornerNeighborsMap">
<polygon fill="white" stroke="black" points="194.5,-38 194.5,-68 355.5,-68 355.5,-38 194.5,-38"/>
<text text-anchor="start" x="202.5" y="-56" font-family="Helvetica,sans-Serif" font-size="10.00">application.Grid.createToroidal</text>
<text text-anchor="middle" x="275" y="-45" font-family="Helvetica,sans-Serif" font-size="10.00">CornerNeighborsMap</text>
</a>
</g>
</g>
<!-- Node1&#45;&gt;Node17 -->
<g id="edge18" class="edge"><title>Node1&#45;&gt;Node17</title>
<path fill="none" stroke="midnightblue" d="M156.138,-79.7316C173.187,-75.8648 191.138,-71.7934 207.748,-68.0262"/>
<polygon fill="midnightblue" stroke="midnightblue" points="155.199,-76.3555 146.221,-81.9808 156.748,-83.1821 155.199,-76.3555"/>
</g>
<!-- Node2&#45;&gt;Node3 -->
<g id="edge2" class="edge"><title>Node2&#45;&gt;Node3</title>
<path fill="none" stroke="midnightblue" d="M527.597,-122.548C554.831,-113.173 587.506,-101.924 613.208,-93.076"/>
<polygon fill="midnightblue" stroke="midnightblue" points="526.149,-119.345 517.833,-125.91 528.428,-125.964 526.149,-119.345"/>
</g>
<!-- Node4 -->
<g id="node4" class="node"><title>Node4</title>
<g id="a_node4"><a xlink:href="../../d9/d5e/classapplication_1_1_application_loop.html#a903043ba2535055f46dbee6aca8b3eef" target="_top" xlink:title="application.ApplicationLoop.init">
<polygon fill="white" stroke="black" points="762,-68.5 762,-87.5 926,-87.5 926,-68.5 762,-68.5"/>
<text text-anchor="middle" x="844" y="-75.5" font-family="Helvetica,sans-Serif" font-size="10.00">application.ApplicationLoop.init</text>
</a>
</g>
</g>
<!-- Node3&#45;&gt;Node4 -->
<g id="edge3" class="edge"><title>Node3&#45;&gt;Node4</title>
<path fill="none" stroke="midnightblue" d="M736.392,-78C744.824,-78 753.425,-78 761.9,-78"/>
<polygon fill="midnightblue" stroke="midnightblue" points="736.209,-74.5001 726.209,-78 736.209,-81.5001 736.209,-74.5001"/>
</g>
<!-- Node5 -->
<g id="node5" class="node"><title>Node5</title>
<g id="a_node5"><a xlink:href="../../d9/d96/classapplication_1_1_main.html#adc868cfca1990edad66af3dcb8cf4349" target="_top" xlink:title="application.Main.playGame">
<polygon fill="white" stroke="black" points="962,-68.5 962,-87.5 1108,-87.5 1108,-68.5 962,-68.5"/>
<text text-anchor="middle" x="1035" y="-75.5" font-family="Helvetica,sans-Serif" font-size="10.00">application.Main.playGame</text>
</a>
</g>
</g>
<!-- Node4&#45;&gt;Node5 -->
<g id="edge4" class="edge"><title>Node4&#45;&gt;Node5</title>
<path fill="none" stroke="midnightblue" d="M936.261,-78C944.817,-78 953.409,-78 961.755,-78"/>
<polygon fill="midnightblue" stroke="midnightblue" points="936.25,-74.5001 926.25,-78 936.25,-81.5001 936.25,-74.5001"/>
</g>
<!-- Node6 -->
<g id="node6" class="node"><title>Node6</title>
<g id="a_node6"><a xlink:href="../../d9/d96/classapplication_1_1_main.html#ada0f47786d75e28e627d2621d75eaf5a" target="_top" xlink:title="application.Main.activate\lStartButton">
<polygon fill="white" stroke="black" points="1144.5,-87 1144.5,-117 1279.5,-117 1279.5,-87 1144.5,-87"/>
<text text-anchor="start" x="1152.5" y="-105" font-family="Helvetica,sans-Serif" font-size="10.00">application.Main.activate</text>
<text text-anchor="middle" x="1212" y="-94" font-family="Helvetica,sans-Serif" font-size="10.00">StartButton</text>
</a>
</g>
</g>
<!-- Node5&#45;&gt;Node6 -->
<g id="edge5" class="edge"><title>Node5&#45;&gt;Node6</title>
<path fill="none" stroke="midnightblue" d="M1115.39,-88.8883C1125.03,-90.2103 1134.81,-91.5505 1144.24,-92.8438"/>
<polygon fill="midnightblue" stroke="midnightblue" points="1115.8,-85.4112 1105.42,-87.5199 1114.85,-92.3462 1115.8,-85.4112"/>
</g>
<!-- Node7 -->
<g id="node7" class="node"><title>Node7</title>
<g id="a_node7"><a xlink:href="../../d9/d96/classapplication_1_1_main.html#a64e6451d894979853890a235efe37db8" target="_top" xlink:title="application.Main.createStart\lGameButton">
<polygon fill="white" stroke="black" points="1316,-87 1316,-117 1468,-117 1468,-87 1316,-87"/>
<text text-anchor="start" x="1324" y="-105" font-family="Helvetica,sans-Serif" font-size="10.00">application.Main.createStart</text>
<text text-anchor="middle" x="1392" y="-94" font-family="Helvetica,sans-Serif" font-size="10.00">GameButton</text>
</a>
</g>
</g>
<!-- Node6&#45;&gt;Node7 -->
<g id="edge6" class="edge"><title>Node6&#45;&gt;Node7</title>
<path fill="none" stroke="midnightblue" d="M1289.65,-102C1298.34,-102 1307.2,-102 1315.87,-102"/>
<polygon fill="midnightblue" stroke="midnightblue" points="1289.53,-98.5001 1279.53,-102 1289.53,-105.5 1289.53,-98.5001"/>
</g>
<!-- Node8 -->
<g id="node8" class="node"><title>Node8</title>
<g id="a_node8"><a xlink:href="../../d9/d96/classapplication_1_1_main.html#a5fee6c1b05965eca9205a99e3245a5fb" target="_top" xlink:title="application.Main.populate\lStartPageModules">
<polygon fill="white" stroke="black" points="1504.5,-88 1504.5,-118 1643.5,-118 1643.5,-88 1504.5,-88"/>
<text text-anchor="start" x="1512.5" y="-106" font-family="Helvetica,sans-Serif" font-size="10.00">application.Main.populate</text>
<text text-anchor="middle" x="1574" y="-95" font-family="Helvetica,sans-Serif" font-size="10.00">StartPageModules</text>
</a>
</g>
</g>
<!-- Node7&#45;&gt;Node8 -->
<g id="edge7" class="edge"><title>Node7&#45;&gt;Node8</title>
<path fill="none" stroke="midnightblue" d="M1478.27,-102.474C1487.04,-102.522 1495.86,-102.571 1504.41,-102.619"/>
<polygon fill="midnightblue" stroke="midnightblue" points="1478.05,-98.9726 1468.03,-102.417 1478.01,-105.972 1478.05,-98.9726"/>
</g>
<!-- Node9 -->
<g id="node9" class="node"><title>Node9</title>
<g id="a_node9"><a xlink:href="../../d9/d96/classapplication_1_1_main.html#a4e5ad4e3de8bbd8654120180a94e870d" target="_top" xlink:title="application.Main.start">
<polygon fill="white" stroke="black" points="1680.5,-93.5 1680.5,-112.5 1799.5,-112.5 1799.5,-93.5 1680.5,-93.5"/>
<text text-anchor="middle" x="1740" y="-100.5" font-family="Helvetica,sans-Serif" font-size="10.00">application.Main.start</text>
</a>
</g>
</g>
<!-- Node8&#45;&gt;Node9 -->
<g id="edge8" class="edge"><title>Node8&#45;&gt;Node9</title>
<path fill="none" stroke="midnightblue" d="M1653.68,-103C1662.64,-103 1671.66,-103 1680.3,-103"/>
<polygon fill="midnightblue" stroke="midnightblue" points="1653.6,-99.5001 1643.6,-103 1653.6,-106.5 1653.6,-99.5001"/>
</g>
<!-- Node10 -->
<g id="node10" class="node"><title>Node10</title>
<g id="a_node10"><a xlink:href="../../d9/d96/classapplication_1_1_main.html#ad652e3294ffb6519b18d784d5831c76a" target="_top" xlink:title="application.Main.activate\lReturntoStart">
<polygon fill="white" stroke="black" points="1836.5,-88 1836.5,-118 1971.5,-118 1971.5,-88 1836.5,-88"/>
<text text-anchor="start" x="1844.5" y="-106" font-family="Helvetica,sans-Serif" font-size="10.00">application.Main.activate</text>
<text text-anchor="middle" x="1904" y="-95" font-family="Helvetica,sans-Serif" font-size="10.00">ReturntoStart</text>
</a>
</g>
</g>
<!-- Node9&#45;&gt;Node10 -->
<g id="edge9" class="edge"><title>Node9&#45;&gt;Node10</title>
<path fill="none" stroke="midnightblue" d="M1810.08,-103C1818.81,-103 1827.73,-103 1836.42,-103"/>
<polygon fill="midnightblue" stroke="midnightblue" points="1809.94,-99.5001 1799.94,-103 1809.94,-106.5 1809.94,-99.5001"/>
</g>
<!-- Node11 -->
<g id="node11" class="node"><title>Node11</title>
<g id="a_node11"><a xlink:href="../../d9/d96/classapplication_1_1_main.html#a4c5877fafc53c4fae488f1f30faf294b" target="_top" xlink:title="application.Main.createReturn\lToStartButton">
<polygon fill="white" stroke="black" points="2008,-88 2008,-118 2166,-118 2166,-88 2008,-88"/>
<text text-anchor="start" x="2016" y="-106" font-family="Helvetica,sans-Serif" font-size="10.00">application.Main.createReturn</text>
<text text-anchor="middle" x="2087" y="-95" font-family="Helvetica,sans-Serif" font-size="10.00">ToStartButton</text>
</a>
</g>
</g>
<!-- Node10&#45;&gt;Node11 -->
<g id="edge10" class="edge"><title>Node10&#45;&gt;Node11</title>
<path fill="none" stroke="midnightblue" d="M1981.7,-103C1990.36,-103 1999.19,-103 2007.87,-103"/>
<polygon fill="midnightblue" stroke="midnightblue" points="1981.63,-99.5001 1971.63,-103 1981.63,-106.5 1981.63,-99.5001"/>
</g>
<!-- Node12 -->
<g id="node12" class="node"><title>Node12</title>
<g id="a_node12"><a xlink:href="../../d9/d96/classapplication_1_1_main.html#a2ddf30fb8360296e1ad3459fe6f920fb" target="_top" xlink:title="application.Main.populate\lGridPageModules">
<polygon fill="white" stroke="black" points="2202.5,-40 2202.5,-70 2341.5,-70 2341.5,-40 2202.5,-40"/>
<text text-anchor="start" x="2210.5" y="-58" font-family="Helvetica,sans-Serif" font-size="10.00">application.Main.populate</text>
<text text-anchor="middle" x="2272" y="-47" font-family="Helvetica,sans-Serif" font-size="10.00">GridPageModules</text>
</a>
</g>
</g>
<!-- Node11&#45;&gt;Node12 -->
<g id="edge11" class="edge"><title>Node11&#45;&gt;Node12</title>
<path fill="none" stroke="midnightblue" d="M2155.29,-85.3505C2174.5,-80.3106 2195.25,-74.868 2213.8,-70.0024"/>
<polygon fill="midnightblue" stroke="midnightblue" points="2154.19,-82.0215 2145.4,-87.9442 2155.96,-88.7925 2154.19,-82.0215"/>
</g>
<!-- Node13 -->
<g id="node13" class="node"><title>Node13</title>
<g id="a_node13"><a xlink:href="../../d9/d96/classapplication_1_1_main.html#abcabe1a32eb7b5054cf34ca0def07531" target="_top" xlink:title="application.Main.populate\lErrorPageModules">
<polygon fill="white" stroke="black" points="2202.5,-89 2202.5,-119 2341.5,-119 2341.5,-89 2202.5,-89"/>
<text text-anchor="start" x="2210.5" y="-107" font-family="Helvetica,sans-Serif" font-size="10.00">application.Main.populate</text>
<text text-anchor="middle" x="2272" y="-96" font-family="Helvetica,sans-Serif" font-size="10.00">ErrorPageModules</text>
</a>
</g>
</g>
<!-- Node11&#45;&gt;Node13 -->
<g id="edge13" class="edge"><title>Node11&#45;&gt;Node13</title>
<path fill="none" stroke="midnightblue" d="M2176.36,-103.483C2185.1,-103.531 2193.87,-103.579 2202.37,-103.625"/>
<polygon fill="midnightblue" stroke="midnightblue" points="2176.16,-99.9818 2166.14,-103.427 2176.12,-106.982 2176.16,-99.9818"/>
</g>
<!-- Node12&#45;&gt;Node5 -->
<g id="edge12" class="edge"><title>Node12&#45;&gt;Node5</title>
<path fill="none" stroke="midnightblue" d="M2192.01,-55.3404C2117.88,-55.6302 2003.92,-56 1905,-56 1391,-56 1391,-56 1391,-56 1292.97,-56 1180.01,-64.46 1108.33,-70.8876"/>
<polygon fill="midnightblue" stroke="midnightblue" points="2192.21,-58.8397 2202.19,-55.3 2192.18,-51.8397 2192.21,-58.8397"/>
</g>
<!-- Node14 -->
<g id="node14" class="node"><title>Node14</title>
<g id="a_node14"><a xlink:href="../../d9/d96/classapplication_1_1_main.html#a81e70f73d65beae34c459628791cc5d4" target="_top" xlink:title="application.Main.activate\lErrorPage">
<polygon fill="white" stroke="black" points="2378.5,-89 2378.5,-119 2513.5,-119 2513.5,-89 2378.5,-89"/>
<text text-anchor="start" x="2386.5" y="-107" font-family="Helvetica,sans-Serif" font-size="10.00">application.Main.activate</text>
<text text-anchor="middle" x="2446" y="-96" font-family="Helvetica,sans-Serif" font-size="10.00">ErrorPage</text>
</a>
</g>
</g>
<!-- Node13&#45;&gt;Node14 -->
<g id="edge14" class="edge"><title>Node13&#45;&gt;Node14</title>
<path fill="none" stroke="midnightblue" d="M2352.15,-104C2360.88,-104 2369.7,-104 2378.25,-104"/>
<polygon fill="midnightblue" stroke="midnightblue" points="2351.97,-100.5 2341.97,-104 2351.97,-107.5 2351.97,-100.5"/>
</g>
<!-- Node15 -->
<g id="node15" class="node"><title>Node15</title>
<g id="a_node15"><a xlink:href="../../d9/d96/classapplication_1_1_main.html#aef0593911aa3cbc594ac75bbb8d6a2b0" target="_top" xlink:title="application.Main.activate\lImportXMLButton">
<polygon fill="white" stroke="black" points="2550.5,-89 2550.5,-119 2685.5,-119 2685.5,-89 2550.5,-89"/>
<text text-anchor="start" x="2558.5" y="-107" font-family="Helvetica,sans-Serif" font-size="10.00">application.Main.activate</text>
<text text-anchor="middle" x="2618" y="-96" font-family="Helvetica,sans-Serif" font-size="10.00">ImportXMLButton</text>
</a>
</g>
</g>
<!-- Node14&#45;&gt;Node15 -->
<g id="edge15" class="edge"><title>Node14&#45;&gt;Node15</title>
<path fill="none" stroke="midnightblue" d="M2523.72,-104C2532.65,-104 2541.71,-104 2550.49,-104"/>
<polygon fill="midnightblue" stroke="midnightblue" points="2523.7,-100.5 2513.7,-104 2523.7,-107.5 2523.7,-100.5"/>
</g>
<!-- Node16 -->
<g id="node16" class="node"><title>Node16</title>
<g id="a_node16"><a xlink:href="../../d9/d96/classapplication_1_1_main.html#a18021492af2e457d39edcbd16dc0d3c8" target="_top" xlink:title="application.Main.createImport\lXMLButton">
<polygon fill="white" stroke="black" points="2722.5,-111 2722.5,-141 2881.5,-141 2881.5,-111 2722.5,-111"/>
<text text-anchor="start" x="2730.5" y="-129" font-family="Helvetica,sans-Serif" font-size="10.00">application.Main.createImport</text>
<text text-anchor="middle" x="2802" y="-118" font-family="Helvetica,sans-Serif" font-size="10.00">XMLButton</text>
</a>
</g>
</g>
<!-- Node15&#45;&gt;Node16 -->
<g id="edge16" class="edge"><title>Node15&#45;&gt;Node16</title>
<path fill="none" stroke="midnightblue" d="M2695.87,-113.292C2704.59,-114.346 2713.49,-115.422 2722.24,-116.479"/>
<polygon fill="midnightblue" stroke="midnightblue" points="2696.08,-109.793 2685.74,-112.067 2695.24,-116.742 2696.08,-109.793"/>
</g>
<!-- Node16&#45;&gt;Node8 -->
<g id="edge17" class="edge"><title>Node16&#45;&gt;Node8</title>
<path fill="none" stroke="midnightblue" d="M2712.03,-134.596C2640.5,-140.768 2537.38,-148 2447,-148 1903,-148 1903,-148 1903,-148 1812.76,-148 1709.84,-131.075 1643.73,-117.984"/>
<polygon fill="midnightblue" stroke="midnightblue" points="2712.69,-138.052 2722.35,-133.695 2712.08,-131.078 2712.69,-138.052"/>
</g>
<!-- Node17&#45;&gt;Node3 -->
<g id="edge21" class="edge"><title>Node17&#45;&gt;Node3</title>
<path fill="none" stroke="midnightblue" d="M366.241,-58.9214C434.881,-63.4253 527.807,-69.5228 589.95,-73.6004"/>
<polygon fill="midnightblue" stroke="midnightblue" points="366.078,-55.4032 355.87,-58.2408 365.619,-62.3882 366.078,-55.4032"/>
</g>
<!-- Node18 -->
<g id="node18" class="node"><title>Node18</title>
<g id="a_node18"><a xlink:href="../../d3/d32/classapplication_1_1_grid.html#ae06467dd7272ca7e584a866886a2946e" target="_top" xlink:title="application.Grid.createToroidal\lSquareNeighborsMap">
<polygon fill="white" stroke="black" points="392.5,-0 392.5,-30 553.5,-30 553.5,-0 392.5,-0"/>
<text text-anchor="start" x="400.5" y="-18" font-family="Helvetica,sans-Serif" font-size="10.00">application.Grid.createToroidal</text>
<text text-anchor="middle" x="473" y="-7" font-family="Helvetica,sans-Serif" font-size="10.00">SquareNeighborsMap</text>
</a>
</g>
</g>
<!-- Node17&#45;&gt;Node18 -->
<g id="edge19" class="edge"><title>Node17&#45;&gt;Node18</title>
<path fill="none" stroke="midnightblue" d="M363.34,-36.0667C373.708,-34.0565 384.238,-32.0151 394.456,-30.034"/>
<polygon fill="midnightblue" stroke="midnightblue" points="362.615,-32.642 353.464,-37.9814 363.948,-39.514 362.615,-32.642"/>
</g>
<!-- Node18&#45;&gt;Node3 -->
<g id="edge20" class="edge"><title>Node18&#45;&gt;Node3</title>
<path fill="none" stroke="midnightblue" d="M527.597,-33.4515C554.831,-42.827 587.506,-54.0757 613.208,-62.924"/>
<polygon fill="midnightblue" stroke="midnightblue" points="528.428,-30.0359 517.833,-30.0901 526.149,-36.6546 528.428,-30.0359"/>
</g>
</g>
</svg>
