<?xml version="1.0" encoding="UTF-8" standalone="no"?>
<!DOCTYPE svg PUBLIC "-//W3C//DTD SVG 1.1//EN"
 "http://www.w3.org/Graphics/SVG/1.1/DTD/svg11.dtd">
<!-- Generated by graphviz version 2.36.0 (20140111.2315)
 -->
<!-- Title: application.Grid.createToroidalCornerNeighborsMap Pages: 1 -->
<svg width="2696pt" height="116pt"
 viewBox="0.00 0.00 2696.00 116.00" xmlns="http://www.w3.org/2000/svg" xmlns:xlink="http://www.w3.org/1999/xlink">
<g id="graph0" class="graph" transform="scale(1 1) rotate(0) translate(4 112)">
<title>application.Grid.createToroidalCornerNeighborsMap</title>
<polygon fill="white" stroke="none" points="-4,4 -4,-112 2692,-112 2692,4 -4,4"/>
<!-- Node1 -->
<g id="node1" class="node"><title>Node1</title>
<polygon fill="#bfbfbf" stroke="black" points="0.5,-23 0.5,-53 161.5,-53 161.5,-23 0.5,-23"/>
<text text-anchor="start" x="8.5" y="-41" font-family="Helvetica,sans-Serif" font-size="10.00">application.Grid.createToroidal</text>
<text text-anchor="middle" x="81" y="-30" font-family="Helvetica,sans-Serif" font-size="10.00">CornerNeighborsMap</text>
</g>
<!-- Node2 -->
<g id="node2" class="node"><title>Node2</title>
<g id="a_node2"><a xlink:href="../../d3/d32/classapplication_1_1_grid.html#ae06467dd7272ca7e584a866886a2946e" target="_top" xlink:title="application.Grid.createToroidal\lSquareNeighborsMap">
<polygon fill="white" stroke="black" points="198.5,-45 198.5,-75 359.5,-75 359.5,-45 198.5,-45"/>
<text text-anchor="start" x="206.5" y="-63" font-family="Helvetica,sans-Serif" font-size="10.00">application.Grid.createToroidal</text>
<text text-anchor="middle" x="279" y="-52" font-family="Helvetica,sans-Serif" font-size="10.00">SquareNeighborsMap</text>
</a>
</g>
</g>
<!-- Node1&#45;&gt;Node2 -->
<g id="edge1" class="edge"><title>Node1&#45;&gt;Node2</title>
<path fill="none" stroke="midnightblue" d="M171.702,-48.0686C180.592,-49.0664 189.573,-50.0745 198.35,-51.0597"/>
<polygon fill="midnightblue" stroke="midnightblue" points="172.049,-44.5856 161.721,-46.9482 171.268,-51.5419 172.049,-44.5856"/>
</g>
<!-- Node3 -->
<g id="node3" class="node"><title>Node3</title>
<g id="a_node3"><a xlink:href="../../d3/d32/classapplication_1_1_grid.html#a84418341012ba47bc37524654a9b4fdf" target="_top" xlink:title="application.Grid.populate\lMatrixNeighborMaps">
<polygon fill="white" stroke="black" points="396,-23 396,-53 532,-53 532,-23 396,-23"/>
<text text-anchor="start" x="404" y="-41" font-family="Helvetica,sans-Serif" font-size="10.00">application.Grid.populate</text>
<text text-anchor="middle" x="464" y="-30" font-family="Helvetica,sans-Serif" font-size="10.00">MatrixNeighborMaps</text>
</a>
</g>
</g>
<!-- Node1&#45;&gt;Node3 -->
<g id="edge18" class="edge"><title>Node1&#45;&gt;Node3</title>
<path fill="none" stroke="midnightblue" d="M171.604,-35.4516C180.521,-35.2673 189.438,-35.1107 198,-35 269.994,-34.0692 288.008,-33.9518 360,-35 371.627,-35.1693 383.99,-35.446 395.965,-35.7647"/>
<polygon fill="midnightblue" stroke="midnightblue" points="171.476,-31.9535 161.555,-35.6704 171.628,-38.9518 171.476,-31.9535"/>
</g>
<!-- Node2&#45;&gt;Node3 -->
<g id="edge2" class="edge"><title>Node2&#45;&gt;Node3</title>
<path fill="none" stroke="midnightblue" d="M369.939,-49.1876C378.656,-48.1397 387.392,-47.0895 395.83,-46.0751"/>
<polygon fill="midnightblue" stroke="midnightblue" points="369.245,-45.7458 359.734,-50.4145 370.08,-52.6958 369.245,-45.7458"/>
</g>
<!-- Node4 -->
<g id="node4" class="node"><title>Node4</title>
<g id="a_node4"><a xlink:href="../../d9/d5e/classapplication_1_1_application_loop.html#a903043ba2535055f46dbee6aca8b3eef" target="_top" xlink:title="application.ApplicationLoop.init">
<polygon fill="white" stroke="black" points="568,-28.5 568,-47.5 732,-47.5 732,-28.5 568,-28.5"/>
<text text-anchor="middle" x="650" y="-35.5" font-family="Helvetica,sans-Serif" font-size="10.00">application.ApplicationLoop.init</text>
</a>
</g>
</g>
<!-- Node3&#45;&gt;Node4 -->
<g id="edge3" class="edge"><title>Node3&#45;&gt;Node4</title>
<path fill="none" stroke="midnightblue" d="M542.392,-38C550.824,-38 559.425,-38 567.9,-38"/>
<polygon fill="midnightblue" stroke="midnightblue" points="542.209,-34.5001 532.209,-38 542.209,-41.5001 542.209,-34.5001"/>
</g>
<!-- Node5 -->
<g id="node5" class="node"><title>Node5</title>
<g id="a_node5"><a xlink:href="../../d9/d96/classapplication_1_1_main.html#adc868cfca1990edad66af3dcb8cf4349" target="_top" xlink:title="application.Main.playGame">
<polygon fill="white" stroke="black" points="768,-28.5 768,-47.5 914,-47.5 914,-28.5 768,-28.5"/>
<text text-anchor="middle" x="841" y="-35.5" font-family="Helvetica,sans-Serif" font-size="10.00">application.Main.playGame</text>
</a>
</g>
</g>
<!-- Node4&#45;&gt;Node5 -->
<g id="edge4" class="edge"><title>Node4&#45;&gt;Node5</title>
<path fill="none" stroke="midnightblue" d="M742.261,-38C750.817,-38 759.409,-38 767.755,-38"/>
<polygon fill="midnightblue" stroke="midnightblue" points="742.25,-34.5001 732.25,-38 742.25,-41.5001 742.25,-34.5001"/>
</g>
<!-- Node6 -->
<g id="node6" class="node"><title>Node6</title>
<g id="a_node6"><a xlink:href="../../d9/d96/classapplication_1_1_main.html#ada0f47786d75e28e627d2621d75eaf5a" target="_top" xlink:title="application.Main.activate\lStartButton">
<polygon fill="white" stroke="black" points="950.5,-47 950.5,-77 1085.5,-77 1085.5,-47 950.5,-47"/>
<text text-anchor="start" x="958.5" y="-65" font-family="Helvetica,sans-Serif" font-size="10.00">application.Main.activate</text>
<text text-anchor="middle" x="1018" y="-54" font-family="Helvetica,sans-Serif" font-size="10.00">StartButton</text>
</a>
</g>
</g>
<!-- Node5&#45;&gt;Node6 -->
<g id="edge5" class="edge"><title>Node5&#45;&gt;Node6</title>
<path fill="none" stroke="midnightblue" d="M921.394,-48.8883C931.033,-50.2103 940.805,-51.5505 950.236,-52.8438"/>
<polygon fill="midnightblue" stroke="midnightblue" points="921.799,-45.4112 911.416,-47.5199 920.848,-52.3462 921.799,-45.4112"/>
</g>
<!-- Node7 -->
<g id="node7" class="node"><title>Node7</title>
<g id="a_node7"><a xlink:href="../../d9/d96/classapplication_1_1_main.html#a64e6451d894979853890a235efe37db8" target="_top" xlink:title="application.Main.createStart\lGameButton">
<polygon fill="white" stroke="black" points="1122,-47 1122,-77 1274,-77 1274,-47 1122,-47"/>
<text text-anchor="start" x="1130" y="-65" font-family="Helvetica,sans-Serif" font-size="10.00">application.Main.createStart</text>
<text text-anchor="middle" x="1198" y="-54" font-family="Helvetica,sans-Serif" font-size="10.00">GameButton</text>
</a>
</g>
</g>
<!-- Node6&#45;&gt;Node7 -->
<g id="edge6" class="edge"><title>Node6&#45;&gt;Node7</title>
<path fill="none" stroke="midnightblue" d="M1095.65,-62C1104.34,-62 1113.2,-62 1121.87,-62"/>
<polygon fill="midnightblue" stroke="midnightblue" points="1095.53,-58.5001 1085.53,-62 1095.53,-65.5001 1095.53,-58.5001"/>
</g>
<!-- Node8 -->
<g id="node8" class="node"><title>Node8</title>
<g id="a_node8"><a xlink:href="../../d9/d96/classapplication_1_1_main.html#a5fee6c1b05965eca9205a99e3245a5fb" target="_top" xlink:title="application.Main.populate\lStartPageModules">
<polygon fill="white" stroke="black" points="1310.5,-48 1310.5,-78 1449.5,-78 1449.5,-48 1310.5,-48"/>
<text text-anchor="start" x="1318.5" y="-66" font-family="Helvetica,sans-Serif" font-size="10.00">application.Main.populate</text>
<text text-anchor="middle" x="1380" y="-55" font-family="Helvetica,sans-Serif" font-size="10.00">StartPageModules</text>
</a>
</g>
</g>
<!-- Node7&#45;&gt;Node8 -->
<g id="edge7" class="edge"><title>Node7&#45;&gt;Node8</title>
<path fill="none" stroke="midnightblue" d="M1284.27,-62.4737C1293.04,-62.5224 1301.86,-62.5715 1310.41,-62.619"/>
<polygon fill="midnightblue" stroke="midnightblue" points="1284.05,-58.9726 1274.03,-62.4168 1284.01,-65.9724 1284.05,-58.9726"/>
</g>
<!-- Node9 -->
<g id="node9" class="node"><title>Node9</title>
<g id="a_node9"><a xlink:href="../../d9/d96/classapplication_1_1_main.html#a4e5ad4e3de8bbd8654120180a94e870d" target="_top" xlink:title="application.Main.start">
<polygon fill="white" stroke="black" points="1486.5,-53.5 1486.5,-72.5 1605.5,-72.5 1605.5,-53.5 1486.5,-53.5"/>
<text text-anchor="middle" x="1546" y="-60.5" font-family="Helvetica,sans-Serif" font-size="10.00">application.Main.start</text>
</a>
</g>
</g>
<!-- Node8&#45;&gt;Node9 -->
<g id="edge8" class="edge"><title>Node8&#45;&gt;Node9</title>
<path fill="none" stroke="midnightblue" d="M1459.68,-63C1468.64,-63 1477.66,-63 1486.3,-63"/>
<polygon fill="midnightblue" stroke="midnightblue" points="1459.6,-59.5001 1449.6,-63 1459.6,-66.5001 1459.6,-59.5001"/>
</g>
<!-- Node10 -->
<g id="node10" class="node"><title>Node10</title>
<g id="a_node10"><a xlink:href="../../d9/d96/classapplication_1_1_main.html#ad652e3294ffb6519b18d784d5831c76a" target="_top" xlink:title="application.Main.activate\lReturntoStart">
<polygon fill="white" stroke="black" points="1642.5,-48 1642.5,-78 1777.5,-78 1777.5,-48 1642.5,-48"/>
<text text-anchor="start" x="1650.5" y="-66" font-family="Helvetica,sans-Serif" font-size="10.00">application.Main.activate</text>
<text text-anchor="middle" x="1710" y="-55" font-family="Helvetica,sans-Serif" font-size="10.00">ReturntoStart</text>
</a>
</g>
</g>
<!-- Node9&#45;&gt;Node10 -->
<g id="edge9" class="edge"><title>Node9&#45;&gt;Node10</title>
<path fill="none" stroke="midnightblue" d="M1616.08,-63C1624.81,-63 1633.73,-63 1642.42,-63"/>
<polygon fill="midnightblue" stroke="midnightblue" points="1615.94,-59.5001 1605.94,-63 1615.94,-66.5001 1615.94,-59.5001"/>
</g>
<!-- Node11 -->
<g id="node11" class="node"><title>Node11</title>
<g id="a_node11"><a xlink:href="../../d9/d96/classapplication_1_1_main.html#a4c5877fafc53c4fae488f1f30faf294b" target="_top" xlink:title="application.Main.createReturn\lToStartButton">
<polygon fill="white" stroke="black" points="1814,-48 1814,-78 1972,-78 1972,-48 1814,-48"/>
<text text-anchor="start" x="1822" y="-66" font-family="Helvetica,sans-Serif" font-size="10.00">application.Main.createReturn</text>
<text text-anchor="middle" x="1893" y="-55" font-family="Helvetica,sans-Serif" font-size="10.00">ToStartButton</text>
</a>
</g>
</g>
<!-- Node10&#45;&gt;Node11 -->
<g id="edge10" class="edge"><title>Node10&#45;&gt;Node11</title>
<path fill="none" stroke="midnightblue" d="M1787.7,-63C1796.36,-63 1805.19,-63 1813.87,-63"/>
<polygon fill="midnightblue" stroke="midnightblue" points="1787.63,-59.5001 1777.63,-63 1787.63,-66.5001 1787.63,-59.5001"/>
</g>
<!-- Node12 -->
<g id="node12" class="node"><title>Node12</title>
<g id="a_node12"><a xlink:href="../../d9/d96/classapplication_1_1_main.html#a2ddf30fb8360296e1ad3459fe6f920fb" target="_top" xlink:title="application.Main.populate\lGridPageModules">
<polygon fill="white" stroke="black" points="2008.5,-0 2008.5,-30 2147.5,-30 2147.5,-0 2008.5,-0"/>
<text text-anchor="start" x="2016.5" y="-18" font-family="Helvetica,sans-Serif" font-size="10.00">application.Main.populate</text>
<text text-anchor="middle" x="2078" y="-7" font-family="Helvetica,sans-Serif" font-size="10.00">GridPageModules</text>
</a>
</g>
</g>
<!-- Node11&#45;&gt;Node12 -->
<g id="edge11" class="edge"><title>Node11&#45;&gt;Node12</title>
<path fill="none" stroke="midnightblue" d="M1961.29,-45.3505C1980.5,-40.3106 2001.25,-34.868 2019.8,-30.0024"/>
<polygon fill="midnightblue" stroke="midnightblue" points="1960.19,-42.0215 1951.4,-47.9442 1961.96,-48.7925 1960.19,-42.0215"/>
</g>
<!-- Node13 -->
<g id="node13" class="node"><title>Node13</title>
<g id="a_node13"><a xlink:href="../../d9/d96/classapplication_1_1_main.html#abcabe1a32eb7b5054cf34ca0def07531" target="_top" xlink:title="application.Main.populate\lErrorPageModules">
<polygon fill="white" stroke="black" points="2008.5,-49 2008.5,-79 2147.5,-79 2147.5,-49 2008.5,-49"/>
<text text-anchor="start" x="2016.5" y="-67" font-family="Helvetica,sans-Serif" font-size="10.00">application.Main.populate</text>
<text text-anchor="middle" x="2078" y="-56" font-family="Helvetica,sans-Serif" font-size="10.00">ErrorPageModules</text>
</a>
</g>
</g>
<!-- Node11&#45;&gt;Node13 -->
<g id="edge13" class="edge"><title>Node11&#45;&gt;Node13</title>
<path fill="none" stroke="midnightblue" d="M1982.36,-63.4828C1991.1,-63.5306 1999.87,-63.5785 2008.37,-63.6249"/>
<polygon fill="midnightblue" stroke="midnightblue" points="1982.16,-59.9818 1972.14,-63.427 1982.12,-66.9817 1982.16,-59.9818"/>
</g>
<!-- Node12&#45;&gt;Node5 -->
<g id="edge12" class="edge"><title>Node12&#45;&gt;Node5</title>
<path fill="none" stroke="midnightblue" d="M1998.01,-15.3404C1923.88,-15.6302 1809.92,-16 1711,-16 1197,-16 1197,-16 1197,-16 1098.97,-16 986.008,-24.46 914.328,-30.8876"/>
<polygon fill="midnightblue" stroke="midnightblue" points="1998.21,-18.8397 2008.19,-15.3 1998.18,-11.8397 1998.21,-18.8397"/>
</g>
<!-- Node14 -->
<g id="node14" class="node"><title>Node14</title>
<g id="a_node14"><a xlink:href="../../d9/d96/classapplication_1_1_main.html#a81e70f73d65beae34c459628791cc5d4" target="_top" xlink:title="application.Main.activate\lErrorPage">
<polygon fill="white" stroke="black" points="2184.5,-49 2184.5,-79 2319.5,-79 2319.5,-49 2184.5,-49"/>
<text text-anchor="start" x="2192.5" y="-67" font-family="Helvetica,sans-Serif" font-size="10.00">application.Main.activate</text>
<text text-anchor="middle" x="2252" y="-56" font-family="Helvetica,sans-Serif" font-size="10.00">ErrorPage</text>
</a>
</g>
</g>
<!-- Node13&#45;&gt;Node14 -->
<g id="edge14" class="edge"><title>Node13&#45;&gt;Node14</title>
<path fill="none" stroke="midnightblue" d="M2158.15,-64C2166.88,-64 2175.7,-64 2184.25,-64"/>
<polygon fill="midnightblue" stroke="midnightblue" points="2157.97,-60.5001 2147.97,-64 2157.97,-67.5001 2157.97,-60.5001"/>
</g>
<!-- Node15 -->
<g id="node15" class="node"><title>Node15</title>
<g id="a_node15"><a xlink:href="../../d9/d96/classapplication_1_1_main.html#aef0593911aa3cbc594ac75bbb8d6a2b0" target="_top" xlink:title="application.Main.activate\lImportXMLButton">
<polygon fill="white" stroke="black" points="2356.5,-49 2356.5,-79 2491.5,-79 2491.5,-49 2356.5,-49"/>
<text text-anchor="start" x="2364.5" y="-67" font-family="Helvetica,sans-Serif" font-size="10.00">application.Main.activate</text>
<text text-anchor="middle" x="2424" y="-56" font-family="Helvetica,sans-Serif" font-size="10.00">ImportXMLButton</text>
</a>
</g>
</g>
<!-- Node14&#45;&gt;Node15 -->
<g id="edge15" class="edge"><title>Node14&#45;&gt;Node15</title>
<path fill="none" stroke="midnightblue" d="M2329.72,-64C2338.65,-64 2347.71,-64 2356.49,-64"/>
<polygon fill="midnightblue" stroke="midnightblue" points="2329.7,-60.5001 2319.7,-64 2329.7,-67.5001 2329.7,-60.5001"/>
</g>
<!-- Node16 -->
<g id="node16" class="node"><title>Node16</title>
<g id="a_node16"><a xlink:href="../../d9/d96/classapplication_1_1_main.html#a18021492af2e457d39edcbd16dc0d3c8" target="_top" xlink:title="application.Main.createImport\lXMLButton">
<polygon fill="white" stroke="black" points="2528.5,-71 2528.5,-101 2687.5,-101 2687.5,-71 2528.5,-71"/>
<text text-anchor="start" x="2536.5" y="-89" font-family="Helvetica,sans-Serif" font-size="10.00">application.Main.createImport</text>
<text text-anchor="middle" x="2608" y="-78" font-family="Helvetica,sans-Serif" font-size="10.00">XMLButton</text>
</a>
</g>
</g>
<!-- Node15&#45;&gt;Node16 -->
<g id="edge16" class="edge"><title>Node15&#45;&gt;Node16</title>
<path fill="none" stroke="midnightblue" d="M2501.87,-73.2923C2510.59,-74.3465 2519.49,-75.4221 2528.24,-76.4792"/>
<polygon fill="midnightblue" stroke="midnightblue" points="2502.08,-69.7925 2491.74,-72.0671 2501.24,-76.7419 2502.08,-69.7925"/>
</g>
<!-- Node16&#45;&gt;Node8 -->
<g id="edge17" class="edge"><title>Node16&#45;&gt;Node8</title>
<path fill="none" stroke="midnightblue" d="M2518.03,-94.5964C2446.5,-100.768 2343.38,-108 2253,-108 1709,-108 1709,-108 1709,-108 1618.76,-108 1515.84,-91.0749 1449.73,-77.9843"/>
<polygon fill="midnightblue" stroke="midnightblue" points="2518.69,-98.0519 2528.35,-93.6945 2518.08,-91.0785 2518.69,-98.0519"/>
</g>
</g>
</svg>
