<?xml version="1.0" encoding="UTF-8" standalone="no"?>
<!DOCTYPE svg PUBLIC "-//W3C//DTD SVG 1.1//EN"
 "http://www.w3.org/Graphics/SVG/1.1/DTD/svg11.dtd">
<!-- Generated by graphviz version 2.36.0 (20140111.2315)
 -->
<!-- Title: application.Segregation.updateCell Pages: 1 -->
<svg width="436pt" height="77pt"
 viewBox="0.00 0.00 436.00 77.00" xmlns="http://www.w3.org/2000/svg" xmlns:xlink="http://www.w3.org/1999/xlink">
<g id="graph0" class="graph" transform="scale(1 1) rotate(0) translate(4 73)">
<title>application.Segregation.updateCell</title>
<polygon fill="white" stroke="none" points="-4,4 -4,-73 432,-73 432,4 -4,4"/>
<!-- Node1 -->
<g id="node1" class="node"><title>Node1</title>
<polygon fill="#bfbfbf" stroke="black" points="0,-22.5 0,-41.5 184,-41.5 184,-22.5 0,-22.5"/>
<text text-anchor="middle" x="92" y="-29.5" font-family="Helvetica,sans-Serif" font-size="10.00">application.Segregation.updateCell</text>
</g>
<!-- Node2 -->
<g id="node2" class="node"><title>Node2</title>
<g id="a_node2"><a xlink:href="../../db/d3b/classapplication_1_1_segregation.html#ab2e44801f93429938051c12c08a1be0b" target="_top" xlink:title="application.Segregation.cell\lMover">
<polygon fill="white" stroke="black" points="249.5,-39 249.5,-69 398.5,-69 398.5,-39 249.5,-39"/>
<text text-anchor="start" x="257.5" y="-57" font-family="Helvetica,sans-Serif" font-size="10.00">application.Segregation.cell</text>
<text text-anchor="middle" x="324" y="-46" font-family="Helvetica,sans-Serif" font-size="10.00">Mover</text>
</a>
</g>
</g>
<!-- Node1&#45;&gt;Node2 -->
<g id="edge1" class="edge"><title>Node1&#45;&gt;Node2</title>
<path fill="none" stroke="midnightblue" d="M184.232,-40.7266C202.265,-42.4515 221.114,-44.2543 238.897,-45.9554"/>
<polygon fill="midnightblue" stroke="midnightblue" points="238.943,-49.4756 249.23,-46.9438 239.609,-42.5074 238.943,-49.4756"/>
</g>
<!-- Node3 -->
<g id="node3" class="node"><title>Node3</title>
<g id="a_node3"><a xlink:href="../../db/d3b/classapplication_1_1_segregation.html#a3e1ace745f72cd72d172198dcaa0b9f3" target="_top" xlink:title="application.Segregation.percentageCalc">
<polygon fill="white" stroke="black" points="220,-0.5 220,-19.5 428,-19.5 428,-0.5 220,-0.5"/>
<text text-anchor="middle" x="324" y="-7.5" font-family="Helvetica,sans-Serif" font-size="10.00">application.Segregation.percentageCalc</text>
</a>
</g>
</g>
<!-- Node1&#45;&gt;Node3 -->
<g id="edge2" class="edge"><title>Node1&#45;&gt;Node3</title>
<path fill="none" stroke="midnightblue" d="M184.232,-23.2734C193.82,-22.3563 203.638,-21.4172 213.404,-20.4831"/>
<polygon fill="midnightblue" stroke="midnightblue" points="213.93,-23.9489 223.551,-19.5125 213.263,-16.9807 213.93,-23.9489"/>
</g>
</g>
</svg>
