<?xml version="1.0" encoding="UTF-8" standalone="no"?>
<!DOCTYPE svg PUBLIC "-//W3C//DTD SVG 1.1//EN"
 "http://www.w3.org/Graphics/SVG/1.1/DTD/svg11.dtd">
<!-- Generated by graphviz version 2.36.0 (20140111.2315)
 -->
<!-- Title: application.ApplicationLoop.addPointsToLineChart Pages: 1 -->
<svg width="2886pt" height="96pt"
 viewBox="0.00 0.00 2886.00 96.00" xmlns="http://www.w3.org/2000/svg" xmlns:xlink="http://www.w3.org/1999/xlink">
<g id="graph0" class="graph" transform="scale(1 1) rotate(0) translate(4 92)">
<title>application.ApplicationLoop.addPointsToLineChart</title>
<polygon fill="white" stroke="none" points="-4,4 -4,-92 2882,-92 2882,4 -4,4"/>
<!-- Node1 -->
<g id="node1" class="node"><title>Node1</title>
<polygon fill="#bfbfbf" stroke="black" points="0,-5 0,-35 168,-35 168,-5 0,-5"/>
<text text-anchor="start" x="8" y="-23" font-family="Helvetica,sans-Serif" font-size="10.00">application.ApplicationLoop.add</text>
<text text-anchor="middle" x="84" y="-12" font-family="Helvetica,sans-Serif" font-size="10.00">PointsToLineChart</text>
</g>
<!-- Node2 -->
<g id="node2" class="node"><title>Node2</title>
<g id="a_node2"><a xlink:href="../../d9/d5e/classapplication_1_1_application_loop.html#a5750a9e01dbb29cdf3fa5aeec69b68d3" target="_top" xlink:title="application.ApplicationLoop.update\lGameLoop">
<polygon fill="white" stroke="black" points="204,-5 204,-35 388,-35 388,-5 204,-5"/>
<text text-anchor="start" x="212" y="-23" font-family="Helvetica,sans-Serif" font-size="10.00">application.ApplicationLoop.update</text>
<text text-anchor="middle" x="296" y="-12" font-family="Helvetica,sans-Serif" font-size="10.00">GameLoop</text>
</a>
</g>
</g>
<!-- Node1&#45;&gt;Node2 -->
<g id="edge1" class="edge"><title>Node1&#45;&gt;Node2</title>
<path fill="none" stroke="midnightblue" d="M178.507,-20C186.929,-20 195.45,-20 203.851,-20"/>
<polygon fill="midnightblue" stroke="midnightblue" points="178.299,-16.5001 168.299,-20 178.299,-23.5001 178.299,-16.5001"/>
</g>
<!-- Node3 -->
<g id="node3" class="node"><title>Node3</title>
<g id="a_node3"><a xlink:href="../../d9/d96/classapplication_1_1_main.html#a54922ba4610913cb11270dc424da1be6" target="_top" xlink:title="application.Main.activate\lStepThroughFrame">
<polygon fill="white" stroke="black" points="424.5,-5 424.5,-35 559.5,-35 559.5,-5 424.5,-5"/>
<text text-anchor="start" x="432.5" y="-23" font-family="Helvetica,sans-Serif" font-size="10.00">application.Main.activate</text>
<text text-anchor="middle" x="492" y="-12" font-family="Helvetica,sans-Serif" font-size="10.00">StepThroughFrame</text>
</a>
</g>
</g>
<!-- Node2&#45;&gt;Node3 -->
<g id="edge2" class="edge"><title>Node2&#45;&gt;Node3</title>
<path fill="none" stroke="midnightblue" d="M398.062,-20C406.939,-20 415.771,-20 424.26,-20"/>
<polygon fill="midnightblue" stroke="midnightblue" points="398.036,-16.5001 388.036,-20 398.036,-23.5001 398.036,-16.5001"/>
</g>
<!-- Node4 -->
<g id="node4" class="node"><title>Node4</title>
<g id="a_node4"><a xlink:href="../../d9/d96/classapplication_1_1_main.html#a17e3960f589de0ae82b734128978d480" target="_top" xlink:title="application.Main.createStep\lThroughButton">
<polygon fill="white" stroke="black" points="596,-5 596,-35 746,-35 746,-5 596,-5"/>
<text text-anchor="start" x="604" y="-23" font-family="Helvetica,sans-Serif" font-size="10.00">application.Main.createStep</text>
<text text-anchor="middle" x="671" y="-12" font-family="Helvetica,sans-Serif" font-size="10.00">ThroughButton</text>
</a>
</g>
</g>
<!-- Node3&#45;&gt;Node4 -->
<g id="edge3" class="edge"><title>Node3&#45;&gt;Node4</title>
<path fill="none" stroke="midnightblue" d="M569.78,-20C578.476,-20 587.325,-20 595.984,-20"/>
<polygon fill="midnightblue" stroke="midnightblue" points="569.664,-16.5001 559.664,-20 569.664,-23.5001 569.664,-16.5001"/>
</g>
<!-- Node5 -->
<g id="node5" class="node"><title>Node5</title>
<g id="a_node5"><a xlink:href="../../d9/d96/classapplication_1_1_main.html#a2ddf30fb8360296e1ad3459fe6f920fb" target="_top" xlink:title="application.Main.populate\lGridPageModules">
<polygon fill="white" stroke="black" points="782.5,-5 782.5,-35 921.5,-35 921.5,-5 782.5,-5"/>
<text text-anchor="start" x="790.5" y="-23" font-family="Helvetica,sans-Serif" font-size="10.00">application.Main.populate</text>
<text text-anchor="middle" x="852" y="-12" font-family="Helvetica,sans-Serif" font-size="10.00">GridPageModules</text>
</a>
</g>
</g>
<!-- Node4&#45;&gt;Node5 -->
<g id="edge4" class="edge"><title>Node4&#45;&gt;Node5</title>
<path fill="none" stroke="midnightblue" d="M756.313,-20C765.057,-20 773.868,-20 782.409,-20"/>
<polygon fill="midnightblue" stroke="midnightblue" points="756.098,-16.5001 746.098,-20 756.098,-23.5001 756.098,-16.5001"/>
</g>
<!-- Node6 -->
<g id="node6" class="node"><title>Node6</title>
<g id="a_node6"><a xlink:href="../../d9/d96/classapplication_1_1_main.html#adc868cfca1990edad66af3dcb8cf4349" target="_top" xlink:title="application.Main.playGame">
<polygon fill="white" stroke="black" points="958,-31.5 958,-50.5 1104,-50.5 1104,-31.5 958,-31.5"/>
<text text-anchor="middle" x="1031" y="-38.5" font-family="Helvetica,sans-Serif" font-size="10.00">application.Main.playGame</text>
</a>
</g>
</g>
<!-- Node5&#45;&gt;Node6 -->
<g id="edge5" class="edge"><title>Node5&#45;&gt;Node6</title>
<path fill="none" stroke="midnightblue" d="M931.787,-29.3477C940.459,-30.3765 949.256,-31.4202 957.841,-32.4387"/>
<polygon fill="midnightblue" stroke="midnightblue" points="932.029,-25.8518 921.686,-28.1492 931.204,-32.8031 932.029,-25.8518"/>
</g>
<!-- Node7 -->
<g id="node7" class="node"><title>Node7</title>
<g id="a_node7"><a xlink:href="../../d9/d96/classapplication_1_1_main.html#ada0f47786d75e28e627d2621d75eaf5a" target="_top" xlink:title="application.Main.activate\lStartButton">
<polygon fill="white" stroke="black" points="1140.5,-29 1140.5,-59 1275.5,-59 1275.5,-29 1140.5,-29"/>
<text text-anchor="start" x="1148.5" y="-47" font-family="Helvetica,sans-Serif" font-size="10.00">application.Main.activate</text>
<text text-anchor="middle" x="1208" y="-36" font-family="Helvetica,sans-Serif" font-size="10.00">StartButton</text>
</a>
</g>
</g>
<!-- Node6&#45;&gt;Node7 -->
<g id="edge6" class="edge"><title>Node6&#45;&gt;Node7</title>
<path fill="none" stroke="midnightblue" d="M1114.35,-42.4117C1123.05,-42.5609 1131.82,-42.7112 1140.31,-42.8568"/>
<polygon fill="midnightblue" stroke="midnightblue" points="1114.25,-38.9095 1104.19,-42.2375 1114.13,-45.9085 1114.25,-38.9095"/>
</g>
<!-- Node8 -->
<g id="node8" class="node"><title>Node8</title>
<g id="a_node8"><a xlink:href="../../d9/d96/classapplication_1_1_main.html#a64e6451d894979853890a235efe37db8" target="_top" xlink:title="application.Main.createStart\lGameButton">
<polygon fill="white" stroke="black" points="1312,-29 1312,-59 1464,-59 1464,-29 1312,-29"/>
<text text-anchor="start" x="1320" y="-47" font-family="Helvetica,sans-Serif" font-size="10.00">application.Main.createStart</text>
<text text-anchor="middle" x="1388" y="-36" font-family="Helvetica,sans-Serif" font-size="10.00">GameButton</text>
</a>
</g>
</g>
<!-- Node7&#45;&gt;Node8 -->
<g id="edge7" class="edge"><title>Node7&#45;&gt;Node8</title>
<path fill="none" stroke="midnightblue" d="M1285.65,-44C1294.34,-44 1303.2,-44 1311.87,-44"/>
<polygon fill="midnightblue" stroke="midnightblue" points="1285.53,-40.5001 1275.53,-44 1285.53,-47.5001 1285.53,-40.5001"/>
</g>
<!-- Node9 -->
<g id="node9" class="node"><title>Node9</title>
<g id="a_node9"><a xlink:href="../../d9/d96/classapplication_1_1_main.html#a5fee6c1b05965eca9205a99e3245a5fb" target="_top" xlink:title="application.Main.populate\lStartPageModules">
<polygon fill="white" stroke="black" points="1500.5,-29 1500.5,-59 1639.5,-59 1639.5,-29 1500.5,-29"/>
<text text-anchor="start" x="1508.5" y="-47" font-family="Helvetica,sans-Serif" font-size="10.00">application.Main.populate</text>
<text text-anchor="middle" x="1570" y="-36" font-family="Helvetica,sans-Serif" font-size="10.00">StartPageModules</text>
</a>
</g>
</g>
<!-- Node8&#45;&gt;Node9 -->
<g id="edge8" class="edge"><title>Node8&#45;&gt;Node9</title>
<path fill="none" stroke="midnightblue" d="M1474.27,-44C1483.04,-44 1491.86,-44 1500.41,-44"/>
<polygon fill="midnightblue" stroke="midnightblue" points="1474.03,-40.5001 1464.03,-44 1474.03,-47.5001 1474.03,-40.5001"/>
</g>
<!-- Node10 -->
<g id="node10" class="node"><title>Node10</title>
<g id="a_node10"><a xlink:href="../../d9/d96/classapplication_1_1_main.html#a4e5ad4e3de8bbd8654120180a94e870d" target="_top" xlink:title="application.Main.start">
<polygon fill="white" stroke="black" points="1676.5,-34.5 1676.5,-53.5 1795.5,-53.5 1795.5,-34.5 1676.5,-34.5"/>
<text text-anchor="middle" x="1736" y="-41.5" font-family="Helvetica,sans-Serif" font-size="10.00">application.Main.start</text>
</a>
</g>
</g>
<!-- Node9&#45;&gt;Node10 -->
<g id="edge9" class="edge"><title>Node9&#45;&gt;Node10</title>
<path fill="none" stroke="midnightblue" d="M1649.68,-44C1658.64,-44 1667.66,-44 1676.3,-44"/>
<polygon fill="midnightblue" stroke="midnightblue" points="1649.6,-40.5001 1639.6,-44 1649.6,-47.5001 1649.6,-40.5001"/>
</g>
<!-- Node11 -->
<g id="node11" class="node"><title>Node11</title>
<g id="a_node11"><a xlink:href="../../d9/d96/classapplication_1_1_main.html#ad652e3294ffb6519b18d784d5831c76a" target="_top" xlink:title="application.Main.activate\lReturntoStart">
<polygon fill="white" stroke="black" points="1832.5,-29 1832.5,-59 1967.5,-59 1967.5,-29 1832.5,-29"/>
<text text-anchor="start" x="1840.5" y="-47" font-family="Helvetica,sans-Serif" font-size="10.00">application.Main.activate</text>
<text text-anchor="middle" x="1900" y="-36" font-family="Helvetica,sans-Serif" font-size="10.00">ReturntoStart</text>
</a>
</g>
</g>
<!-- Node10&#45;&gt;Node11 -->
<g id="edge10" class="edge"><title>Node10&#45;&gt;Node11</title>
<path fill="none" stroke="midnightblue" d="M1806.08,-44C1814.81,-44 1823.73,-44 1832.42,-44"/>
<polygon fill="midnightblue" stroke="midnightblue" points="1805.94,-40.5001 1795.94,-44 1805.94,-47.5001 1805.94,-40.5001"/>
</g>
<!-- Node12 -->
<g id="node12" class="node"><title>Node12</title>
<g id="a_node12"><a xlink:href="../../d9/d96/classapplication_1_1_main.html#a4c5877fafc53c4fae488f1f30faf294b" target="_top" xlink:title="application.Main.createReturn\lToStartButton">
<polygon fill="white" stroke="black" points="2004,-29 2004,-59 2162,-59 2162,-29 2004,-29"/>
<text text-anchor="start" x="2012" y="-47" font-family="Helvetica,sans-Serif" font-size="10.00">application.Main.createReturn</text>
<text text-anchor="middle" x="2083" y="-36" font-family="Helvetica,sans-Serif" font-size="10.00">ToStartButton</text>
</a>
</g>
</g>
<!-- Node11&#45;&gt;Node12 -->
<g id="edge11" class="edge"><title>Node11&#45;&gt;Node12</title>
<path fill="none" stroke="midnightblue" d="M1977.7,-44C1986.36,-44 1995.19,-44 2003.87,-44"/>
<polygon fill="midnightblue" stroke="midnightblue" points="1977.63,-40.5001 1967.63,-44 1977.63,-47.5001 1977.63,-40.5001"/>
</g>
<!-- Node12&#45;&gt;Node5 -->
<g id="edge12" class="edge"><title>Node12&#45;&gt;Node5</title>
<path fill="none" stroke="midnightblue" d="M2010.64,-26.8172C1996.57,-23.8641 1981.87,-21.0812 1968,-19 1866.13,-3.71043 1840.01,-0 1737,-0 1207,-0 1207,-0 1207,-0 1107.74,-0 993.074,-7.93505 921.792,-13.8088"/>
<polygon fill="midnightblue" stroke="midnightblue" points="2010.24,-30.3112 2020.75,-28.99 2011.71,-23.4673 2010.24,-30.3112"/>
</g>
<!-- Node13 -->
<g id="node13" class="node"><title>Node13</title>
<g id="a_node13"><a xlink:href="../../d9/d96/classapplication_1_1_main.html#abcabe1a32eb7b5054cf34ca0def07531" target="_top" xlink:title="application.Main.populate\lErrorPageModules">
<polygon fill="white" stroke="black" points="2198.5,-29 2198.5,-59 2337.5,-59 2337.5,-29 2198.5,-29"/>
<text text-anchor="start" x="2206.5" y="-47" font-family="Helvetica,sans-Serif" font-size="10.00">application.Main.populate</text>
<text text-anchor="middle" x="2268" y="-36" font-family="Helvetica,sans-Serif" font-size="10.00">ErrorPageModules</text>
</a>
</g>
</g>
<!-- Node12&#45;&gt;Node13 -->
<g id="edge13" class="edge"><title>Node12&#45;&gt;Node13</title>
<path fill="none" stroke="midnightblue" d="M2172.36,-44C2181.1,-44 2189.87,-44 2198.37,-44"/>
<polygon fill="midnightblue" stroke="midnightblue" points="2172.14,-40.5001 2162.14,-44 2172.14,-47.5001 2172.14,-40.5001"/>
</g>
<!-- Node14 -->
<g id="node14" class="node"><title>Node14</title>
<g id="a_node14"><a xlink:href="../../d9/d96/classapplication_1_1_main.html#a81e70f73d65beae34c459628791cc5d4" target="_top" xlink:title="application.Main.activate\lErrorPage">
<polygon fill="white" stroke="black" points="2374.5,-29 2374.5,-59 2509.5,-59 2509.5,-29 2374.5,-29"/>
<text text-anchor="start" x="2382.5" y="-47" font-family="Helvetica,sans-Serif" font-size="10.00">application.Main.activate</text>
<text text-anchor="middle" x="2442" y="-36" font-family="Helvetica,sans-Serif" font-size="10.00">ErrorPage</text>
</a>
</g>
</g>
<!-- Node13&#45;&gt;Node14 -->
<g id="edge14" class="edge"><title>Node13&#45;&gt;Node14</title>
<path fill="none" stroke="midnightblue" d="M2348.15,-44C2356.88,-44 2365.7,-44 2374.25,-44"/>
<polygon fill="midnightblue" stroke="midnightblue" points="2347.97,-40.5001 2337.97,-44 2347.97,-47.5001 2347.97,-40.5001"/>
</g>
<!-- Node15 -->
<g id="node15" class="node"><title>Node15</title>
<g id="a_node15"><a xlink:href="../../d9/d96/classapplication_1_1_main.html#aef0593911aa3cbc594ac75bbb8d6a2b0" target="_top" xlink:title="application.Main.activate\lImportXMLButton">
<polygon fill="white" stroke="black" points="2546.5,-29 2546.5,-59 2681.5,-59 2681.5,-29 2546.5,-29"/>
<text text-anchor="start" x="2554.5" y="-47" font-family="Helvetica,sans-Serif" font-size="10.00">application.Main.activate</text>
<text text-anchor="middle" x="2614" y="-36" font-family="Helvetica,sans-Serif" font-size="10.00">ImportXMLButton</text>
</a>
</g>
</g>
<!-- Node14&#45;&gt;Node15 -->
<g id="edge15" class="edge"><title>Node14&#45;&gt;Node15</title>
<path fill="none" stroke="midnightblue" d="M2519.72,-44C2528.65,-44 2537.71,-44 2546.49,-44"/>
<polygon fill="midnightblue" stroke="midnightblue" points="2519.7,-40.5001 2509.7,-44 2519.7,-47.5001 2519.7,-40.5001"/>
</g>
<!-- Node16 -->
<g id="node16" class="node"><title>Node16</title>
<g id="a_node16"><a xlink:href="../../d9/d96/classapplication_1_1_main.html#a18021492af2e457d39edcbd16dc0d3c8" target="_top" xlink:title="application.Main.createImport\lXMLButton">
<polygon fill="white" stroke="black" points="2718.5,-51 2718.5,-81 2877.5,-81 2877.5,-51 2718.5,-51"/>
<text text-anchor="start" x="2726.5" y="-69" font-family="Helvetica,sans-Serif" font-size="10.00">application.Main.createImport</text>
<text text-anchor="middle" x="2798" y="-58" font-family="Helvetica,sans-Serif" font-size="10.00">XMLButton</text>
</a>
</g>
</g>
<!-- Node15&#45;&gt;Node16 -->
<g id="edge16" class="edge"><title>Node15&#45;&gt;Node16</title>
<path fill="none" stroke="midnightblue" d="M2691.87,-53.2923C2700.59,-54.3465 2709.49,-55.4221 2718.24,-56.4792"/>
<polygon fill="midnightblue" stroke="midnightblue" points="2692.08,-49.7925 2681.74,-52.0671 2691.24,-56.7419 2692.08,-49.7925"/>
</g>
<!-- Node16&#45;&gt;Node9 -->
<g id="edge17" class="edge"><title>Node16&#45;&gt;Node9</title>
<path fill="none" stroke="midnightblue" d="M2708.03,-74.5964C2636.5,-80.7676 2533.38,-88 2443,-88 1899,-88 1899,-88 1899,-88 1808.8,-88 1705.87,-71.451 1639.75,-58.6514"/>
<polygon fill="midnightblue" stroke="midnightblue" points="2708.69,-78.0519 2718.35,-73.6945 2708.08,-71.0785 2708.69,-78.0519"/>
</g>
</g>
</svg>
