<?xml version="1.0" encoding="UTF-8" standalone="no"?>
<!DOCTYPE svg PUBLIC "-//W3C//DTD SVG 1.1//EN"
 "http://www.w3.org/Graphics/SVG/1.1/DTD/svg11.dtd">
<!-- Generated by graphviz version 2.36.0 (20140111.2315)
 -->
<!-- Title: application.ApplicationLoop.init Pages: 1 -->
<svg width="2128pt" height="116pt"
 viewBox="0.00 0.00 2128.00 116.00" xmlns="http://www.w3.org/2000/svg" xmlns:xlink="http://www.w3.org/1999/xlink">
<g id="graph0" class="graph" transform="scale(1 1) rotate(0) translate(4 112)">
<title>application.ApplicationLoop.init</title>
<polygon fill="white" stroke="none" points="-4,4 -4,-112 2124,-112 2124,4 -4,4"/>
<!-- Node1 -->
<g id="node1" class="node"><title>Node1</title>
<polygon fill="#bfbfbf" stroke="black" points="0,-29.5 0,-48.5 164,-48.5 164,-29.5 0,-29.5"/>
<text text-anchor="middle" x="82" y="-36.5" font-family="Helvetica,sans-Serif" font-size="10.00">application.ApplicationLoop.init</text>
</g>
<!-- Node2 -->
<g id="node2" class="node"><title>Node2</title>
<g id="a_node2"><a xlink:href="../../d9/d96/classapplication_1_1_main.html#adc868cfca1990edad66af3dcb8cf4349" target="_top" xlink:title="application.Main.playGame">
<polygon fill="white" stroke="black" points="200,-29.5 200,-48.5 346,-48.5 346,-29.5 200,-29.5"/>
<text text-anchor="middle" x="273" y="-36.5" font-family="Helvetica,sans-Serif" font-size="10.00">application.Main.playGame</text>
</a>
</g>
</g>
<!-- Node1&#45;&gt;Node2 -->
<g id="edge1" class="edge"><title>Node1&#45;&gt;Node2</title>
<path fill="none" stroke="midnightblue" d="M174.261,-39C182.817,-39 191.409,-39 199.755,-39"/>
<polygon fill="midnightblue" stroke="midnightblue" points="174.25,-35.5001 164.25,-39 174.25,-42.5001 174.25,-35.5001"/>
</g>
<!-- Node3 -->
<g id="node3" class="node"><title>Node3</title>
<g id="a_node3"><a xlink:href="../../d9/d96/classapplication_1_1_main.html#ada0f47786d75e28e627d2621d75eaf5a" target="_top" xlink:title="application.Main.activate\lStartButton">
<polygon fill="white" stroke="black" points="382.5,-46 382.5,-76 517.5,-76 517.5,-46 382.5,-46"/>
<text text-anchor="start" x="390.5" y="-64" font-family="Helvetica,sans-Serif" font-size="10.00">application.Main.activate</text>
<text text-anchor="middle" x="450" y="-53" font-family="Helvetica,sans-Serif" font-size="10.00">StartButton</text>
</a>
</g>
</g>
<!-- Node2&#45;&gt;Node3 -->
<g id="edge2" class="edge"><title>Node2&#45;&gt;Node3</title>
<path fill="none" stroke="midnightblue" d="M356.351,-49.3527C365.052,-50.4465 373.82,-51.5489 382.312,-52.6163"/>
<polygon fill="midnightblue" stroke="midnightblue" points="356.548,-45.85 346.19,-48.0753 355.675,-52.7953 356.548,-45.85"/>
</g>
<!-- Node4 -->
<g id="node4" class="node"><title>Node4</title>
<g id="a_node4"><a xlink:href="../../d9/d96/classapplication_1_1_main.html#a64e6451d894979853890a235efe37db8" target="_top" xlink:title="application.Main.createStart\lGameButton">
<polygon fill="white" stroke="black" points="554,-47 554,-77 706,-77 706,-47 554,-47"/>
<text text-anchor="start" x="562" y="-65" font-family="Helvetica,sans-Serif" font-size="10.00">application.Main.createStart</text>
<text text-anchor="middle" x="630" y="-54" font-family="Helvetica,sans-Serif" font-size="10.00">GameButton</text>
</a>
</g>
</g>
<!-- Node3&#45;&gt;Node4 -->
<g id="edge3" class="edge"><title>Node3&#45;&gt;Node4</title>
<path fill="none" stroke="midnightblue" d="M527.646,-61.4306C536.341,-61.4794 545.196,-61.5292 553.871,-61.5779"/>
<polygon fill="midnightblue" stroke="midnightblue" points="527.553,-57.9301 517.534,-61.3738 527.514,-64.93 527.553,-57.9301"/>
</g>
<!-- Node5 -->
<g id="node5" class="node"><title>Node5</title>
<g id="a_node5"><a xlink:href="../../d9/d96/classapplication_1_1_main.html#a5fee6c1b05965eca9205a99e3245a5fb" target="_top" xlink:title="application.Main.populate\lStartPageModules">
<polygon fill="white" stroke="black" points="742.5,-48 742.5,-78 881.5,-78 881.5,-48 742.5,-48"/>
<text text-anchor="start" x="750.5" y="-66" font-family="Helvetica,sans-Serif" font-size="10.00">application.Main.populate</text>
<text text-anchor="middle" x="812" y="-55" font-family="Helvetica,sans-Serif" font-size="10.00">StartPageModules</text>
</a>
</g>
</g>
<!-- Node4&#45;&gt;Node5 -->
<g id="edge4" class="edge"><title>Node4&#45;&gt;Node5</title>
<path fill="none" stroke="midnightblue" d="M716.274,-62.4737C725.039,-62.5224 733.864,-62.5715 742.415,-62.619"/>
<polygon fill="midnightblue" stroke="midnightblue" points="716.052,-58.9726 706.033,-62.4168 716.013,-65.9724 716.052,-58.9726"/>
</g>
<!-- Node6 -->
<g id="node6" class="node"><title>Node6</title>
<g id="a_node6"><a xlink:href="../../d9/d96/classapplication_1_1_main.html#a4e5ad4e3de8bbd8654120180a94e870d" target="_top" xlink:title="application.Main.start">
<polygon fill="white" stroke="black" points="918.5,-53.5 918.5,-72.5 1037.5,-72.5 1037.5,-53.5 918.5,-53.5"/>
<text text-anchor="middle" x="978" y="-60.5" font-family="Helvetica,sans-Serif" font-size="10.00">application.Main.start</text>
</a>
</g>
</g>
<!-- Node5&#45;&gt;Node6 -->
<g id="edge5" class="edge"><title>Node5&#45;&gt;Node6</title>
<path fill="none" stroke="midnightblue" d="M891.677,-63C900.642,-63 909.661,-63 918.302,-63"/>
<polygon fill="midnightblue" stroke="midnightblue" points="891.601,-59.5001 881.601,-63 891.6,-66.5001 891.601,-59.5001"/>
</g>
<!-- Node7 -->
<g id="node7" class="node"><title>Node7</title>
<g id="a_node7"><a xlink:href="../../d9/d96/classapplication_1_1_main.html#ad652e3294ffb6519b18d784d5831c76a" target="_top" xlink:title="application.Main.activate\lReturntoStart">
<polygon fill="white" stroke="black" points="1074.5,-48 1074.5,-78 1209.5,-78 1209.5,-48 1074.5,-48"/>
<text text-anchor="start" x="1082.5" y="-66" font-family="Helvetica,sans-Serif" font-size="10.00">application.Main.activate</text>
<text text-anchor="middle" x="1142" y="-55" font-family="Helvetica,sans-Serif" font-size="10.00">ReturntoStart</text>
</a>
</g>
</g>
<!-- Node6&#45;&gt;Node7 -->
<g id="edge6" class="edge"><title>Node6&#45;&gt;Node7</title>
<path fill="none" stroke="midnightblue" d="M1048.08,-63C1056.81,-63 1065.73,-63 1074.42,-63"/>
<polygon fill="midnightblue" stroke="midnightblue" points="1047.94,-59.5001 1037.94,-63 1047.94,-66.5001 1047.94,-59.5001"/>
</g>
<!-- Node8 -->
<g id="node8" class="node"><title>Node8</title>
<g id="a_node8"><a xlink:href="../../d9/d96/classapplication_1_1_main.html#a4c5877fafc53c4fae488f1f30faf294b" target="_top" xlink:title="application.Main.createReturn\lToStartButton">
<polygon fill="white" stroke="black" points="1246,-48 1246,-78 1404,-78 1404,-48 1246,-48"/>
<text text-anchor="start" x="1254" y="-66" font-family="Helvetica,sans-Serif" font-size="10.00">application.Main.createReturn</text>
<text text-anchor="middle" x="1325" y="-55" font-family="Helvetica,sans-Serif" font-size="10.00">ToStartButton</text>
</a>
</g>
</g>
<!-- Node7&#45;&gt;Node8 -->
<g id="edge7" class="edge"><title>Node7&#45;&gt;Node8</title>
<path fill="none" stroke="midnightblue" d="M1219.7,-63C1228.36,-63 1237.19,-63 1245.87,-63"/>
<polygon fill="midnightblue" stroke="midnightblue" points="1219.63,-59.5001 1209.63,-63 1219.63,-66.5001 1219.63,-59.5001"/>
</g>
<!-- Node9 -->
<g id="node9" class="node"><title>Node9</title>
<g id="a_node9"><a xlink:href="../../d9/d96/classapplication_1_1_main.html#a2ddf30fb8360296e1ad3459fe6f920fb" target="_top" xlink:title="application.Main.populate\lGridPageModules">
<polygon fill="white" stroke="black" points="1440.5,-0 1440.5,-30 1579.5,-30 1579.5,-0 1440.5,-0"/>
<text text-anchor="start" x="1448.5" y="-18" font-family="Helvetica,sans-Serif" font-size="10.00">application.Main.populate</text>
<text text-anchor="middle" x="1510" y="-7" font-family="Helvetica,sans-Serif" font-size="10.00">GridPageModules</text>
</a>
</g>
</g>
<!-- Node8&#45;&gt;Node9 -->
<g id="edge8" class="edge"><title>Node8&#45;&gt;Node9</title>
<path fill="none" stroke="midnightblue" d="M1393.29,-45.3505C1412.5,-40.3106 1433.25,-34.868 1451.8,-30.0024"/>
<polygon fill="midnightblue" stroke="midnightblue" points="1392.19,-42.0215 1383.4,-47.9442 1393.96,-48.7925 1392.19,-42.0215"/>
</g>
<!-- Node10 -->
<g id="node10" class="node"><title>Node10</title>
<g id="a_node10"><a xlink:href="../../d9/d96/classapplication_1_1_main.html#abcabe1a32eb7b5054cf34ca0def07531" target="_top" xlink:title="application.Main.populate\lErrorPageModules">
<polygon fill="white" stroke="black" points="1440.5,-49 1440.5,-79 1579.5,-79 1579.5,-49 1440.5,-49"/>
<text text-anchor="start" x="1448.5" y="-67" font-family="Helvetica,sans-Serif" font-size="10.00">application.Main.populate</text>
<text text-anchor="middle" x="1510" y="-56" font-family="Helvetica,sans-Serif" font-size="10.00">ErrorPageModules</text>
</a>
</g>
</g>
<!-- Node8&#45;&gt;Node10 -->
<g id="edge10" class="edge"><title>Node8&#45;&gt;Node10</title>
<path fill="none" stroke="midnightblue" d="M1414.36,-63.4828C1423.1,-63.5306 1431.87,-63.5785 1440.37,-63.6249"/>
<polygon fill="midnightblue" stroke="midnightblue" points="1414.16,-59.9818 1404.14,-63.427 1414.12,-66.9817 1414.16,-59.9818"/>
</g>
<!-- Node9&#45;&gt;Node2 -->
<g id="edge9" class="edge"><title>Node9&#45;&gt;Node2</title>
<path fill="none" stroke="midnightblue" d="M1430.01,-15.6807C1355.88,-16.2604 1241.92,-17 1143,-17 629,-17 629,-17 629,-17 530.972,-17 418.008,-25.46 346.328,-31.8876"/>
<polygon fill="midnightblue" stroke="midnightblue" points="1430.22,-19.1792 1440.2,-15.6001 1430.17,-12.1794 1430.22,-19.1792"/>
</g>
<!-- Node11 -->
<g id="node11" class="node"><title>Node11</title>
<g id="a_node11"><a xlink:href="../../d9/d96/classapplication_1_1_main.html#a81e70f73d65beae34c459628791cc5d4" target="_top" xlink:title="application.Main.activate\lErrorPage">
<polygon fill="white" stroke="black" points="1616.5,-49 1616.5,-79 1751.5,-79 1751.5,-49 1616.5,-49"/>
<text text-anchor="start" x="1624.5" y="-67" font-family="Helvetica,sans-Serif" font-size="10.00">application.Main.activate</text>
<text text-anchor="middle" x="1684" y="-56" font-family="Helvetica,sans-Serif" font-size="10.00">ErrorPage</text>
</a>
</g>
</g>
<!-- Node10&#45;&gt;Node11 -->
<g id="edge11" class="edge"><title>Node10&#45;&gt;Node11</title>
<path fill="none" stroke="midnightblue" d="M1590.15,-64C1598.88,-64 1607.7,-64 1616.25,-64"/>
<polygon fill="midnightblue" stroke="midnightblue" points="1589.97,-60.5001 1579.97,-64 1589.97,-67.5001 1589.97,-60.5001"/>
</g>
<!-- Node12 -->
<g id="node12" class="node"><title>Node12</title>
<g id="a_node12"><a xlink:href="../../d9/d96/classapplication_1_1_main.html#aef0593911aa3cbc594ac75bbb8d6a2b0" target="_top" xlink:title="application.Main.activate\lImportXMLButton">
<polygon fill="white" stroke="black" points="1788.5,-49 1788.5,-79 1923.5,-79 1923.5,-49 1788.5,-49"/>
<text text-anchor="start" x="1796.5" y="-67" font-family="Helvetica,sans-Serif" font-size="10.00">application.Main.activate</text>
<text text-anchor="middle" x="1856" y="-56" font-family="Helvetica,sans-Serif" font-size="10.00">ImportXMLButton</text>
</a>
</g>
</g>
<!-- Node11&#45;&gt;Node12 -->
<g id="edge12" class="edge"><title>Node11&#45;&gt;Node12</title>
<path fill="none" stroke="midnightblue" d="M1761.72,-64C1770.65,-64 1779.71,-64 1788.49,-64"/>
<polygon fill="midnightblue" stroke="midnightblue" points="1761.7,-60.5001 1751.7,-64 1761.7,-67.5001 1761.7,-60.5001"/>
</g>
<!-- Node13 -->
<g id="node13" class="node"><title>Node13</title>
<g id="a_node13"><a xlink:href="../../d9/d96/classapplication_1_1_main.html#a18021492af2e457d39edcbd16dc0d3c8" target="_top" xlink:title="application.Main.createImport\lXMLButton">
<polygon fill="white" stroke="black" points="1960.5,-71 1960.5,-101 2119.5,-101 2119.5,-71 1960.5,-71"/>
<text text-anchor="start" x="1968.5" y="-89" font-family="Helvetica,sans-Serif" font-size="10.00">application.Main.createImport</text>
<text text-anchor="middle" x="2040" y="-78" font-family="Helvetica,sans-Serif" font-size="10.00">XMLButton</text>
</a>
</g>
</g>
<!-- Node12&#45;&gt;Node13 -->
<g id="edge13" class="edge"><title>Node12&#45;&gt;Node13</title>
<path fill="none" stroke="midnightblue" d="M1933.87,-73.2923C1942.59,-74.3465 1951.49,-75.4221 1960.24,-76.4792"/>
<polygon fill="midnightblue" stroke="midnightblue" points="1934.08,-69.7925 1923.74,-72.0671 1933.24,-76.7419 1934.08,-69.7925"/>
</g>
<!-- Node13&#45;&gt;Node5 -->
<g id="edge14" class="edge"><title>Node13&#45;&gt;Node5</title>
<path fill="none" stroke="midnightblue" d="M1950.03,-94.5964C1878.5,-100.768 1775.38,-108 1685,-108 1141,-108 1141,-108 1141,-108 1050.76,-108 947.839,-91.0749 881.733,-77.9843"/>
<polygon fill="midnightblue" stroke="midnightblue" points="1950.69,-98.0519 1960.35,-93.6945 1950.08,-91.0785 1950.69,-98.0519"/>
</g>
</g>
</svg>
