<?xml version="1.0" encoding="UTF-8" standalone="no"?>
<!DOCTYPE svg PUBLIC "-//W3C//DTD SVG 1.1//EN"
 "http://www.w3.org/Graphics/SVG/1.1/DTD/svg11.dtd">
<!-- Generated by graphviz version 2.36.0 (20140111.2315)
 -->
<!-- Title: application.ApplicationLoop.populateLineChart Pages: 1 -->
<svg width="2526pt" height="96pt"
 viewBox="0.00 0.00 2526.00 96.00" xmlns="http://www.w3.org/2000/svg" xmlns:xlink="http://www.w3.org/1999/xlink">
<g id="graph0" class="graph" transform="scale(1 1) rotate(0) translate(4 92)">
<title>application.ApplicationLoop.populateLineChart</title>
<polygon fill="white" stroke="none" points="-4,4 -4,-92 2522,-92 2522,4 -4,4"/>
<!-- Node1 -->
<g id="node1" class="node"><title>Node1</title>
<polygon fill="#bfbfbf" stroke="black" points="0,-5 0,-35 192,-35 192,-5 0,-5"/>
<text text-anchor="start" x="8" y="-23" font-family="Helvetica,sans-Serif" font-size="10.00">application.ApplicationLoop.populate</text>
<text text-anchor="middle" x="96" y="-12" font-family="Helvetica,sans-Serif" font-size="10.00">LineChart</text>
</g>
<!-- Node2 -->
<g id="node2" class="node"><title>Node2</title>
<g id="a_node2"><a xlink:href="../../d9/d96/classapplication_1_1_main.html#aa4d46cb157b4be891c964b8edcc8a071" target="_top" xlink:title="application.Main.createGame\lGraph">
<polygon fill="white" stroke="black" points="228.5,-5 228.5,-35 385.5,-35 385.5,-5 228.5,-5"/>
<text text-anchor="start" x="236.5" y="-23" font-family="Helvetica,sans-Serif" font-size="10.00">application.Main.createGame</text>
<text text-anchor="middle" x="307" y="-12" font-family="Helvetica,sans-Serif" font-size="10.00">Graph</text>
</a>
</g>
</g>
<!-- Node1&#45;&gt;Node2 -->
<g id="edge1" class="edge"><title>Node1&#45;&gt;Node2</title>
<path fill="none" stroke="midnightblue" d="M202.042,-20C210.927,-20 219.808,-20 228.426,-20"/>
<polygon fill="midnightblue" stroke="midnightblue" points="202.021,-16.5001 192.021,-20 202.021,-23.5001 202.021,-16.5001"/>
</g>
<!-- Node3 -->
<g id="node3" class="node"><title>Node3</title>
<g id="a_node3"><a xlink:href="../../d9/d96/classapplication_1_1_main.html#a2ddf30fb8360296e1ad3459fe6f920fb" target="_top" xlink:title="application.Main.populate\lGridPageModules">
<polygon fill="white" stroke="black" points="422.5,-5 422.5,-35 561.5,-35 561.5,-5 422.5,-5"/>
<text text-anchor="start" x="430.5" y="-23" font-family="Helvetica,sans-Serif" font-size="10.00">application.Main.populate</text>
<text text-anchor="middle" x="492" y="-12" font-family="Helvetica,sans-Serif" font-size="10.00">GridPageModules</text>
</a>
</g>
</g>
<!-- Node2&#45;&gt;Node3 -->
<g id="edge2" class="edge"><title>Node2&#45;&gt;Node3</title>
<path fill="none" stroke="midnightblue" d="M395.655,-20C404.587,-20 413.568,-20 422.258,-20"/>
<polygon fill="midnightblue" stroke="midnightblue" points="395.609,-16.5001 385.608,-20 395.608,-23.5001 395.609,-16.5001"/>
</g>
<!-- Node4 -->
<g id="node4" class="node"><title>Node4</title>
<g id="a_node4"><a xlink:href="../../d9/d96/classapplication_1_1_main.html#adc868cfca1990edad66af3dcb8cf4349" target="_top" xlink:title="application.Main.playGame">
<polygon fill="white" stroke="black" points="598,-31.5 598,-50.5 744,-50.5 744,-31.5 598,-31.5"/>
<text text-anchor="middle" x="671" y="-38.5" font-family="Helvetica,sans-Serif" font-size="10.00">application.Main.playGame</text>
</a>
</g>
</g>
<!-- Node3&#45;&gt;Node4 -->
<g id="edge3" class="edge"><title>Node3&#45;&gt;Node4</title>
<path fill="none" stroke="midnightblue" d="M571.787,-29.3477C580.459,-30.3765 589.256,-31.4202 597.841,-32.4387"/>
<polygon fill="midnightblue" stroke="midnightblue" points="572.029,-25.8518 561.686,-28.1492 571.204,-32.8031 572.029,-25.8518"/>
</g>
<!-- Node5 -->
<g id="node5" class="node"><title>Node5</title>
<g id="a_node5"><a xlink:href="../../d9/d96/classapplication_1_1_main.html#ada0f47786d75e28e627d2621d75eaf5a" target="_top" xlink:title="application.Main.activate\lStartButton">
<polygon fill="white" stroke="black" points="780.5,-29 780.5,-59 915.5,-59 915.5,-29 780.5,-29"/>
<text text-anchor="start" x="788.5" y="-47" font-family="Helvetica,sans-Serif" font-size="10.00">application.Main.activate</text>
<text text-anchor="middle" x="848" y="-36" font-family="Helvetica,sans-Serif" font-size="10.00">StartButton</text>
</a>
</g>
</g>
<!-- Node4&#45;&gt;Node5 -->
<g id="edge4" class="edge"><title>Node4&#45;&gt;Node5</title>
<path fill="none" stroke="midnightblue" d="M754.351,-42.4117C763.052,-42.5609 771.82,-42.7112 780.312,-42.8568"/>
<polygon fill="midnightblue" stroke="midnightblue" points="754.248,-38.9095 744.19,-42.2375 754.128,-45.9085 754.248,-38.9095"/>
</g>
<!-- Node6 -->
<g id="node6" class="node"><title>Node6</title>
<g id="a_node6"><a xlink:href="../../d9/d96/classapplication_1_1_main.html#a64e6451d894979853890a235efe37db8" target="_top" xlink:title="application.Main.createStart\lGameButton">
<polygon fill="white" stroke="black" points="952,-29 952,-59 1104,-59 1104,-29 952,-29"/>
<text text-anchor="start" x="960" y="-47" font-family="Helvetica,sans-Serif" font-size="10.00">application.Main.createStart</text>
<text text-anchor="middle" x="1028" y="-36" font-family="Helvetica,sans-Serif" font-size="10.00">GameButton</text>
</a>
</g>
</g>
<!-- Node5&#45;&gt;Node6 -->
<g id="edge5" class="edge"><title>Node5&#45;&gt;Node6</title>
<path fill="none" stroke="midnightblue" d="M925.646,-44C934.341,-44 943.196,-44 951.871,-44"/>
<polygon fill="midnightblue" stroke="midnightblue" points="925.534,-40.5001 915.534,-44 925.534,-47.5001 925.534,-40.5001"/>
</g>
<!-- Node7 -->
<g id="node7" class="node"><title>Node7</title>
<g id="a_node7"><a xlink:href="../../d9/d96/classapplication_1_1_main.html#a5fee6c1b05965eca9205a99e3245a5fb" target="_top" xlink:title="application.Main.populate\lStartPageModules">
<polygon fill="white" stroke="black" points="1140.5,-29 1140.5,-59 1279.5,-59 1279.5,-29 1140.5,-29"/>
<text text-anchor="start" x="1148.5" y="-47" font-family="Helvetica,sans-Serif" font-size="10.00">application.Main.populate</text>
<text text-anchor="middle" x="1210" y="-36" font-family="Helvetica,sans-Serif" font-size="10.00">StartPageModules</text>
</a>
</g>
</g>
<!-- Node6&#45;&gt;Node7 -->
<g id="edge6" class="edge"><title>Node6&#45;&gt;Node7</title>
<path fill="none" stroke="midnightblue" d="M1114.27,-44C1123.04,-44 1131.86,-44 1140.41,-44"/>
<polygon fill="midnightblue" stroke="midnightblue" points="1114.03,-40.5001 1104.03,-44 1114.03,-47.5001 1114.03,-40.5001"/>
</g>
<!-- Node8 -->
<g id="node8" class="node"><title>Node8</title>
<g id="a_node8"><a xlink:href="../../d9/d96/classapplication_1_1_main.html#a4e5ad4e3de8bbd8654120180a94e870d" target="_top" xlink:title="application.Main.start">
<polygon fill="white" stroke="black" points="1316.5,-34.5 1316.5,-53.5 1435.5,-53.5 1435.5,-34.5 1316.5,-34.5"/>
<text text-anchor="middle" x="1376" y="-41.5" font-family="Helvetica,sans-Serif" font-size="10.00">application.Main.start</text>
</a>
</g>
</g>
<!-- Node7&#45;&gt;Node8 -->
<g id="edge7" class="edge"><title>Node7&#45;&gt;Node8</title>
<path fill="none" stroke="midnightblue" d="M1289.68,-44C1298.64,-44 1307.66,-44 1316.3,-44"/>
<polygon fill="midnightblue" stroke="midnightblue" points="1289.6,-40.5001 1279.6,-44 1289.6,-47.5001 1289.6,-40.5001"/>
</g>
<!-- Node9 -->
<g id="node9" class="node"><title>Node9</title>
<g id="a_node9"><a xlink:href="../../d9/d96/classapplication_1_1_main.html#ad652e3294ffb6519b18d784d5831c76a" target="_top" xlink:title="application.Main.activate\lReturntoStart">
<polygon fill="white" stroke="black" points="1472.5,-29 1472.5,-59 1607.5,-59 1607.5,-29 1472.5,-29"/>
<text text-anchor="start" x="1480.5" y="-47" font-family="Helvetica,sans-Serif" font-size="10.00">application.Main.activate</text>
<text text-anchor="middle" x="1540" y="-36" font-family="Helvetica,sans-Serif" font-size="10.00">ReturntoStart</text>
</a>
</g>
</g>
<!-- Node8&#45;&gt;Node9 -->
<g id="edge8" class="edge"><title>Node8&#45;&gt;Node9</title>
<path fill="none" stroke="midnightblue" d="M1446.08,-44C1454.81,-44 1463.73,-44 1472.42,-44"/>
<polygon fill="midnightblue" stroke="midnightblue" points="1445.94,-40.5001 1435.94,-44 1445.94,-47.5001 1445.94,-40.5001"/>
</g>
<!-- Node10 -->
<g id="node10" class="node"><title>Node10</title>
<g id="a_node10"><a xlink:href="../../d9/d96/classapplication_1_1_main.html#a4c5877fafc53c4fae488f1f30faf294b" target="_top" xlink:title="application.Main.createReturn\lToStartButton">
<polygon fill="white" stroke="black" points="1644,-29 1644,-59 1802,-59 1802,-29 1644,-29"/>
<text text-anchor="start" x="1652" y="-47" font-family="Helvetica,sans-Serif" font-size="10.00">application.Main.createReturn</text>
<text text-anchor="middle" x="1723" y="-36" font-family="Helvetica,sans-Serif" font-size="10.00">ToStartButton</text>
</a>
</g>
</g>
<!-- Node9&#45;&gt;Node10 -->
<g id="edge9" class="edge"><title>Node9&#45;&gt;Node10</title>
<path fill="none" stroke="midnightblue" d="M1617.7,-44C1626.36,-44 1635.19,-44 1643.87,-44"/>
<polygon fill="midnightblue" stroke="midnightblue" points="1617.63,-40.5001 1607.63,-44 1617.63,-47.5001 1617.63,-40.5001"/>
</g>
<!-- Node10&#45;&gt;Node3 -->
<g id="edge10" class="edge"><title>Node10&#45;&gt;Node3</title>
<path fill="none" stroke="midnightblue" d="M1650.64,-26.8172C1636.57,-23.8641 1621.87,-21.0812 1608,-19 1506.13,-3.71043 1480.01,-0 1377,-0 847,-0 847,-0 847,-0 747.74,-0 633.074,-7.93505 561.792,-13.8088"/>
<polygon fill="midnightblue" stroke="midnightblue" points="1650.24,-30.3112 1660.75,-28.99 1651.71,-23.4673 1650.24,-30.3112"/>
</g>
<!-- Node11 -->
<g id="node11" class="node"><title>Node11</title>
<g id="a_node11"><a xlink:href="../../d9/d96/classapplication_1_1_main.html#abcabe1a32eb7b5054cf34ca0def07531" target="_top" xlink:title="application.Main.populate\lErrorPageModules">
<polygon fill="white" stroke="black" points="1838.5,-29 1838.5,-59 1977.5,-59 1977.5,-29 1838.5,-29"/>
<text text-anchor="start" x="1846.5" y="-47" font-family="Helvetica,sans-Serif" font-size="10.00">application.Main.populate</text>
<text text-anchor="middle" x="1908" y="-36" font-family="Helvetica,sans-Serif" font-size="10.00">ErrorPageModules</text>
</a>
</g>
</g>
<!-- Node10&#45;&gt;Node11 -->
<g id="edge11" class="edge"><title>Node10&#45;&gt;Node11</title>
<path fill="none" stroke="midnightblue" d="M1812.36,-44C1821.1,-44 1829.87,-44 1838.37,-44"/>
<polygon fill="midnightblue" stroke="midnightblue" points="1812.14,-40.5001 1802.14,-44 1812.14,-47.5001 1812.14,-40.5001"/>
</g>
<!-- Node12 -->
<g id="node12" class="node"><title>Node12</title>
<g id="a_node12"><a xlink:href="../../d9/d96/classapplication_1_1_main.html#a81e70f73d65beae34c459628791cc5d4" target="_top" xlink:title="application.Main.activate\lErrorPage">
<polygon fill="white" stroke="black" points="2014.5,-29 2014.5,-59 2149.5,-59 2149.5,-29 2014.5,-29"/>
<text text-anchor="start" x="2022.5" y="-47" font-family="Helvetica,sans-Serif" font-size="10.00">application.Main.activate</text>
<text text-anchor="middle" x="2082" y="-36" font-family="Helvetica,sans-Serif" font-size="10.00">ErrorPage</text>
</a>
</g>
</g>
<!-- Node11&#45;&gt;Node12 -->
<g id="edge12" class="edge"><title>Node11&#45;&gt;Node12</title>
<path fill="none" stroke="midnightblue" d="M1988.15,-44C1996.88,-44 2005.7,-44 2014.25,-44"/>
<polygon fill="midnightblue" stroke="midnightblue" points="1987.97,-40.5001 1977.97,-44 1987.97,-47.5001 1987.97,-40.5001"/>
</g>
<!-- Node13 -->
<g id="node13" class="node"><title>Node13</title>
<g id="a_node13"><a xlink:href="../../d9/d96/classapplication_1_1_main.html#aef0593911aa3cbc594ac75bbb8d6a2b0" target="_top" xlink:title="application.Main.activate\lImportXMLButton">
<polygon fill="white" stroke="black" points="2186.5,-29 2186.5,-59 2321.5,-59 2321.5,-29 2186.5,-29"/>
<text text-anchor="start" x="2194.5" y="-47" font-family="Helvetica,sans-Serif" font-size="10.00">application.Main.activate</text>
<text text-anchor="middle" x="2254" y="-36" font-family="Helvetica,sans-Serif" font-size="10.00">ImportXMLButton</text>
</a>
</g>
</g>
<!-- Node12&#45;&gt;Node13 -->
<g id="edge13" class="edge"><title>Node12&#45;&gt;Node13</title>
<path fill="none" stroke="midnightblue" d="M2159.72,-44C2168.65,-44 2177.71,-44 2186.49,-44"/>
<polygon fill="midnightblue" stroke="midnightblue" points="2159.7,-40.5001 2149.7,-44 2159.7,-47.5001 2159.7,-40.5001"/>
</g>
<!-- Node14 -->
<g id="node14" class="node"><title>Node14</title>
<g id="a_node14"><a xlink:href="../../d9/d96/classapplication_1_1_main.html#a18021492af2e457d39edcbd16dc0d3c8" target="_top" xlink:title="application.Main.createImport\lXMLButton">
<polygon fill="white" stroke="black" points="2358.5,-51 2358.5,-81 2517.5,-81 2517.5,-51 2358.5,-51"/>
<text text-anchor="start" x="2366.5" y="-69" font-family="Helvetica,sans-Serif" font-size="10.00">application.Main.createImport</text>
<text text-anchor="middle" x="2438" y="-58" font-family="Helvetica,sans-Serif" font-size="10.00">XMLButton</text>
</a>
</g>
</g>
<!-- Node13&#45;&gt;Node14 -->
<g id="edge14" class="edge"><title>Node13&#45;&gt;Node14</title>
<path fill="none" stroke="midnightblue" d="M2331.87,-53.2923C2340.59,-54.3465 2349.49,-55.4221 2358.24,-56.4792"/>
<polygon fill="midnightblue" stroke="midnightblue" points="2332.08,-49.7925 2321.74,-52.0671 2331.24,-56.7419 2332.08,-49.7925"/>
</g>
<!-- Node14&#45;&gt;Node7 -->
<g id="edge15" class="edge"><title>Node14&#45;&gt;Node7</title>
<path fill="none" stroke="midnightblue" d="M2348.03,-74.5964C2276.5,-80.7676 2173.38,-88 2083,-88 1539,-88 1539,-88 1539,-88 1448.8,-88 1345.87,-71.451 1279.75,-58.6514"/>
<polygon fill="midnightblue" stroke="midnightblue" points="2348.69,-78.0519 2358.35,-73.6945 2348.08,-71.0785 2348.69,-78.0519"/>
</g>
</g>
</svg>
