<?xml version="1.0" encoding="UTF-8" standalone="no"?>
<!DOCTYPE svg PUBLIC "-//W3C//DTD SVG 1.1//EN"
 "http://www.w3.org/Graphics/SVG/1.1/DTD/svg11.dtd">
<!-- Generated by graphviz version 2.36.0 (20140111.2315)
 -->
<!-- Title: application.ApplicationLoop.init Pages: 1 -->
<svg width="1452pt" height="660pt"
 viewBox="0.00 0.00 1452.00 660.00" xmlns="http://www.w3.org/2000/svg" xmlns:xlink="http://www.w3.org/1999/xlink">
<g id="graph0" class="graph" transform="scale(1 1) rotate(0) translate(4 656)">
<title>application.ApplicationLoop.init</title>
<polygon fill="white" stroke="none" points="-4,4 -4,-656 1448,-656 1448,4 -4,4"/>
<!-- Node1 -->
<g id="node1" class="node"><title>Node1</title>
<polygon fill="#bfbfbf" stroke="black" points="0,-359.5 0,-378.5 164,-378.5 164,-359.5 0,-359.5"/>
<text text-anchor="middle" x="82" y="-366.5" font-family="Helvetica,sans-Serif" font-size="10.00">application.ApplicationLoop.init</text>
</g>
<!-- Node2 -->
<g id="node2" class="node"><title>Node2</title>
<g id="a_node2"><a xlink:href="../../d9/d5e/classapplication_1_1_application_loop.html#ab054523f2a0e4fe79c8f3ea961d7b80e" target="_top" xlink:title="application.ApplicationLoop.editGrid">
<polygon fill="white" stroke="black" points="200,-578.5 200,-597.5 388,-597.5 388,-578.5 200,-578.5"/>
<text text-anchor="middle" x="294" y="-585.5" font-family="Helvetica,sans-Serif" font-size="10.00">application.ApplicationLoop.editGrid</text>
</a>
</g>
</g>
<!-- Node1&#45;&gt;Node2 -->
<g id="edge1" class="edge"><title>Node1&#45;&gt;Node2</title>
<path fill="none" stroke="midnightblue" d="M89.3119,-378.857C105.67,-403.969 151.552,-471.706 200,-519 221.458,-539.947 249.482,-559.908 269.137,-572.922"/>
<polygon fill="midnightblue" stroke="midnightblue" points="267.236,-575.861 277.525,-578.39 271.059,-569.997 267.236,-575.861"/>
</g>
<!-- Node4 -->
<g id="node4" class="node"><title>Node4</title>
<g id="a_node4"><a xlink:href="../../d9/d5e/classapplication_1_1_application_loop.html#ae6fc4b7d381bb5b4d4ba3eb4bb69c078" target="_top" xlink:title="application.ApplicationLoop.initialize\lGridPane">
<polygon fill="white" stroke="black" points="200,-480 200,-510 388,-510 388,-480 200,-480"/>
<text text-anchor="start" x="208" y="-498" font-family="Helvetica,sans-Serif" font-size="10.00">application.ApplicationLoop.initialize</text>
<text text-anchor="middle" x="294" y="-487" font-family="Helvetica,sans-Serif" font-size="10.00">GridPane</text>
</a>
</g>
</g>
<!-- Node1&#45;&gt;Node4 -->
<g id="edge3" class="edge"><title>Node1&#45;&gt;Node4</title>
<path fill="none" stroke="midnightblue" d="M99.1297,-378.678C133.255,-399.153 213.383,-447.23 259.231,-474.738"/>
<polygon fill="midnightblue" stroke="midnightblue" points="257.543,-477.808 267.919,-479.951 261.145,-471.805 257.543,-477.808"/>
</g>
<!-- Node13 -->
<g id="node13" class="node"><title>Node13</title>
<g id="a_node13"><a xlink:href="../../d3/d32/classapplication_1_1_grid.html#a84418341012ba47bc37524654a9b4fdf" target="_top" xlink:title="application.Grid.populate\lMatrixNeighborMaps">
<polygon fill="white" stroke="black" points="226,-228 226,-258 362,-258 362,-228 226,-228"/>
<text text-anchor="start" x="234" y="-246" font-family="Helvetica,sans-Serif" font-size="10.00">application.Grid.populate</text>
<text text-anchor="middle" x="294" y="-235" font-family="Helvetica,sans-Serif" font-size="10.00">MatrixNeighborMaps</text>
</a>
</g>
</g>
<!-- Node1&#45;&gt;Node13 -->
<g id="edge12" class="edge"><title>Node1&#45;&gt;Node13</title>
<path fill="none" stroke="midnightblue" d="M99.1297,-359.322C133.255,-338.847 213.383,-290.77 259.231,-263.262"/>
<polygon fill="midnightblue" stroke="midnightblue" points="261.145,-266.195 267.919,-258.049 257.543,-260.192 261.145,-266.195"/>
</g>
<!-- Node26 -->
<g id="node26" class="node"><title>Node26</title>
<g id="a_node26"><a xlink:href="../../d3/d32/classapplication_1_1_grid.html#aefd7116eb39fe945107a3579e47def69" target="_top" xlink:title="application.Grid.setRoot">
<polygon fill="white" stroke="black" points="229,-189.5 229,-208.5 359,-208.5 359,-189.5 229,-189.5"/>
<text text-anchor="middle" x="294" y="-196.5" font-family="Helvetica,sans-Serif" font-size="10.00">application.Grid.setRoot</text>
</a>
</g>
</g>
<!-- Node1&#45;&gt;Node26 -->
<g id="edge35" class="edge"><title>Node1&#45;&gt;Node26</title>
<path fill="none" stroke="midnightblue" d="M87.4319,-359.302C100.408,-332.089 141.148,-254.615 200,-218 205.829,-214.374 212.223,-211.424 218.844,-209.028"/>
<polygon fill="midnightblue" stroke="midnightblue" points="220.203,-212.268 228.668,-205.898 218.078,-205.599 220.203,-212.268"/>
</g>
<!-- Node3 -->
<g id="node3" class="node"><title>Node3</title>
<g id="a_node3"><a xlink:href="../../d3/d32/classapplication_1_1_grid.html#aa7df788dff50795b5c7d8432fae70a2e" target="_top" xlink:title="application.Grid.changeCell\lState">
<polygon fill="white" stroke="black" points="458,-622 458,-652 604,-652 604,-622 458,-622"/>
<text text-anchor="start" x="466" y="-640" font-family="Helvetica,sans-Serif" font-size="10.00">application.Grid.changeCell</text>
<text text-anchor="middle" x="531" y="-629" font-family="Helvetica,sans-Serif" font-size="10.00">State</text>
</a>
</g>
</g>
<!-- Node2&#45;&gt;Node3 -->
<g id="edge2" class="edge"><title>Node2&#45;&gt;Node3</title>
<path fill="none" stroke="midnightblue" d="M340.589,-597.506C370.968,-603.84 411.768,-612.347 447.72,-619.844"/>
<polygon fill="midnightblue" stroke="midnightblue" points="447.215,-623.314 457.719,-621.929 448.644,-616.461 447.215,-623.314"/>
</g>
<!-- Node5 -->
<g id="node5" class="node"><title>Node5</title>
<g id="a_node5"><a xlink:href="../../d9/d5e/classapplication_1_1_application_loop.html#a313767dcd02c47d5c97bcbc4432cadcb" target="_top" xlink:title="application.ApplicationLoop.generateRect">
<polygon fill="white" stroke="black" points="424,-485.5 424,-504.5 638,-504.5 638,-485.5 424,-485.5"/>
<text text-anchor="middle" x="531" y="-492.5" font-family="Helvetica,sans-Serif" font-size="10.00">application.ApplicationLoop.generateRect</text>
</a>
</g>
</g>
<!-- Node4&#45;&gt;Node5 -->
<g id="edge4" class="edge"><title>Node4&#45;&gt;Node5</title>
<path fill="none" stroke="midnightblue" d="M388.216,-495C396.597,-495 405.151,-495 413.697,-495"/>
<polygon fill="midnightblue" stroke="midnightblue" points="413.714,-498.5 423.714,-495 413.714,-491.5 413.714,-498.5"/>
</g>
<!-- Node8 -->
<g id="node8" class="node"><title>Node8</title>
<g id="a_node8"><a xlink:href="../../d1/dd5/classapplication_1_1_cell_x_m_l_reader.html#a624d0f1211126fed6ffcb82cf079aa0b" target="_top" xlink:title="application.CellXMLReader.check\lModelTypeAndInitializeCell">
<polygon fill="white" stroke="black" points="445.5,-436 445.5,-466 616.5,-466 616.5,-436 445.5,-436"/>
<text text-anchor="start" x="453.5" y="-454" font-family="Helvetica,sans-Serif" font-size="10.00">application.CellXMLReader.check</text>
<text text-anchor="middle" x="531" y="-443" font-family="Helvetica,sans-Serif" font-size="10.00">ModelTypeAndInitializeCell</text>
</a>
</g>
</g>
<!-- Node4&#45;&gt;Node8 -->
<g id="edge7" class="edge"><title>Node4&#45;&gt;Node8</title>
<path fill="none" stroke="midnightblue" d="M375.216,-479.981C395.993,-476.091 418.504,-471.876 439.756,-467.897"/>
<polygon fill="midnightblue" stroke="midnightblue" points="440.561,-471.307 449.746,-466.026 439.273,-464.426 440.561,-471.307"/>
</g>
<!-- Node9 -->
<g id="node9" class="node"><title>Node9</title>
<g id="a_node9"><a xlink:href="../../d3/d32/classapplication_1_1_grid.html#af498f57e4a25440244ee6ce0b4c1899c" target="_top" xlink:title="application.Grid.initialize\lAndPopulateMatrix">
<polygon fill="white" stroke="black" points="465,-573 465,-603 597,-603 597,-573 465,-573"/>
<text text-anchor="start" x="473" y="-591" font-family="Helvetica,sans-Serif" font-size="10.00">application.Grid.initialize</text>
<text text-anchor="middle" x="531" y="-580" font-family="Helvetica,sans-Serif" font-size="10.00">AndPopulateMatrix</text>
</a>
</g>
</g>
<!-- Node4&#45;&gt;Node9 -->
<g id="edge8" class="edge"><title>Node4&#45;&gt;Node9</title>
<path fill="none" stroke="midnightblue" d="M319.34,-510.237C344.648,-525.494 385.829,-548.704 424,-563 433.795,-566.669 444.307,-569.919 454.768,-572.761"/>
<polygon fill="midnightblue" stroke="midnightblue" points="454.198,-576.229 464.757,-575.361 455.961,-569.455 454.198,-576.229"/>
</g>
<!-- Node12 -->
<g id="node12" class="node"><title>Node12</title>
<g id="a_node12"><a xlink:href="../../d1/dd5/classapplication_1_1_cell_x_m_l_reader.html#a0f21755c22ce20011cb2dedfbf929981" target="_top" xlink:title="application.CellXMLReader.get\lCellList">
<polygon fill="white" stroke="black" points="451.5,-524 451.5,-554 610.5,-554 610.5,-524 451.5,-524"/>
<text text-anchor="start" x="459.5" y="-542" font-family="Helvetica,sans-Serif" font-size="10.00">application.CellXMLReader.get</text>
<text text-anchor="middle" x="531" y="-531" font-family="Helvetica,sans-Serif" font-size="10.00">CellList</text>
</a>
</g>
</g>
<!-- Node4&#45;&gt;Node12 -->
<g id="edge11" class="edge"><title>Node4&#45;&gt;Node12</title>
<path fill="none" stroke="midnightblue" d="M375.216,-510.019C396.548,-514.013 419.708,-518.35 441.457,-522.422"/>
<polygon fill="midnightblue" stroke="midnightblue" points="440.865,-525.872 451.339,-524.272 442.154,-518.991 440.865,-525.872"/>
</g>
<!-- Node6 -->
<g id="node6" class="node"><title>Node6</title>
<g id="a_node6"><a xlink:href="../../d9/d5e/classapplication_1_1_application_loop.html#a7e471b6bf7b92c3181b661075cf852ed" target="_top" xlink:title="application.ApplicationLoop.generate\lRandomColor">
<polygon fill="white" stroke="black" points="674,-495 674,-525 868,-525 868,-495 674,-495"/>
<text text-anchor="start" x="682" y="-513" font-family="Helvetica,sans-Serif" font-size="10.00">application.ApplicationLoop.generate</text>
<text text-anchor="middle" x="771" y="-502" font-family="Helvetica,sans-Serif" font-size="10.00">RandomColor</text>
</a>
</g>
</g>
<!-- Node5&#45;&gt;Node6 -->
<g id="edge5" class="edge"><title>Node5&#45;&gt;Node6</title>
<path fill="none" stroke="midnightblue" d="M638.123,-501.688C646.676,-502.227 655.319,-502.772 663.872,-503.311"/>
<polygon fill="midnightblue" stroke="midnightblue" points="663.661,-506.805 673.861,-503.941 664.101,-499.819 663.661,-506.805"/>
</g>
<!-- Node7 -->
<g id="node7" class="node"><title>Node7</title>
<g id="a_node7"><a xlink:href="../../d9/d5e/classapplication_1_1_application_loop.html#af1d62db2642f62abd06c8b88288eef61" target="_top" xlink:title="application.ApplicationLoop.generate\lRectHelper">
<polygon fill="white" stroke="black" points="674,-446 674,-476 868,-476 868,-446 674,-446"/>
<text text-anchor="start" x="682" y="-464" font-family="Helvetica,sans-Serif" font-size="10.00">application.ApplicationLoop.generate</text>
<text text-anchor="middle" x="771" y="-453" font-family="Helvetica,sans-Serif" font-size="10.00">RectHelper</text>
</a>
</g>
</g>
<!-- Node5&#45;&gt;Node7 -->
<g id="edge6" class="edge"><title>Node5&#45;&gt;Node7</title>
<path fill="none" stroke="midnightblue" d="M598.613,-485.484C618.767,-482.605 641.425,-479.368 663.503,-476.214"/>
<polygon fill="midnightblue" stroke="midnightblue" points="664.191,-479.651 673.595,-474.772 663.2,-472.722 664.191,-479.651"/>
</g>
<!-- Node10 -->
<g id="node10" class="node"><title>Node10</title>
<g id="a_node10"><a xlink:href="../../d7/dff/classapplication_1_1_cell.html#a9b55760c359deba99fa09c169bbcb924" target="_top" xlink:title="application.Cell.setXPos">
<polygon fill="white" stroke="black" points="706,-597.5 706,-616.5 836,-616.5 836,-597.5 706,-597.5"/>
<text text-anchor="middle" x="771" y="-604.5" font-family="Helvetica,sans-Serif" font-size="10.00">application.Cell.setXPos</text>
</a>
</g>
</g>
<!-- Node9&#45;&gt;Node10 -->
<g id="edge9" class="edge"><title>Node9&#45;&gt;Node10</title>
<path fill="none" stroke="midnightblue" d="M597.035,-593.192C627.586,-595.631 664.157,-598.55 695.786,-601.075"/>
<polygon fill="midnightblue" stroke="midnightblue" points="695.621,-604.573 705.868,-601.88 696.178,-597.595 695.621,-604.573"/>
</g>
<!-- Node11 -->
<g id="node11" class="node"><title>Node11</title>
<g id="a_node11"><a xlink:href="../../d7/dff/classapplication_1_1_cell.html#acc3b6f97d338de7648cefc50fe63b829" target="_top" xlink:title="application.Cell.setYPos">
<polygon fill="white" stroke="black" points="706.5,-559.5 706.5,-578.5 835.5,-578.5 835.5,-559.5 706.5,-559.5"/>
<text text-anchor="middle" x="771" y="-566.5" font-family="Helvetica,sans-Serif" font-size="10.00">application.Cell.setYPos</text>
</a>
</g>
</g>
<!-- Node9&#45;&gt;Node11 -->
<g id="edge10" class="edge"><title>Node9&#45;&gt;Node11</title>
<path fill="none" stroke="midnightblue" d="M597.035,-582.808C627.71,-580.359 664.455,-577.426 696.172,-574.894"/>
<polygon fill="midnightblue" stroke="midnightblue" points="696.589,-578.372 706.279,-574.087 696.032,-571.394 696.589,-578.372"/>
</g>
<!-- Node14 -->
<g id="node14" class="node"><title>Node14</title>
<g id="a_node14"><a xlink:href="../../d1/dd5/classapplication_1_1_cell_x_m_l_reader.html#a54533cee8d698059c9a30f9d2de72dc2" target="_top" xlink:title="application.CellXMLReader.get\lGridEdgeType">
<polygon fill="white" stroke="black" points="451.5,-387 451.5,-417 610.5,-417 610.5,-387 451.5,-387"/>
<text text-anchor="start" x="459.5" y="-405" font-family="Helvetica,sans-Serif" font-size="10.00">application.CellXMLReader.get</text>
<text text-anchor="middle" x="531" y="-394" font-family="Helvetica,sans-Serif" font-size="10.00">GridEdgeType</text>
</a>
</g>
</g>
<!-- Node13&#45;&gt;Node14 -->
<g id="edge13" class="edge"><title>Node13&#45;&gt;Node14</title>
<path fill="none" stroke="midnightblue" d="M305.056,-258.181C324.504,-286.275 370.133,-346.3 424,-377 429.552,-380.164 435.485,-382.929 441.603,-385.344"/>
<polygon fill="midnightblue" stroke="midnightblue" points="440.745,-388.755 451.339,-388.858 443.122,-382.171 440.745,-388.755"/>
</g>
<!-- Node15 -->
<g id="node15" class="node"><title>Node15</title>
<g id="a_node15"><a xlink:href="../../d1/dd5/classapplication_1_1_cell_x_m_l_reader.html#a2d20a6d1c0588f8399595580d5dbe481" target="_top" xlink:title="application.CellXMLReader.get\lGridNeighborType">
<polygon fill="white" stroke="black" points="451.5,-338 451.5,-368 610.5,-368 610.5,-338 451.5,-338"/>
<text text-anchor="start" x="459.5" y="-356" font-family="Helvetica,sans-Serif" font-size="10.00">application.CellXMLReader.get</text>
<text text-anchor="middle" x="531" y="-345" font-family="Helvetica,sans-Serif" font-size="10.00">GridNeighborType</text>
</a>
</g>
</g>
<!-- Node13&#45;&gt;Node15 -->
<g id="edge14" class="edge"><title>Node13&#45;&gt;Node15</title>
<path fill="none" stroke="midnightblue" d="M315.451,-258.21C340.085,-275.918 383.252,-305.025 424,-323 434.218,-327.508 445.29,-331.52 456.295,-335.028"/>
<polygon fill="midnightblue" stroke="midnightblue" points="455.338,-338.395 465.925,-337.981 457.39,-331.703 455.338,-338.395"/>
</g>
<!-- Node16 -->
<g id="node16" class="node"><title>Node16</title>
<g id="a_node16"><a xlink:href="../../d3/d32/classapplication_1_1_grid.html#a7e36b15310e2328fd289887bd3eda478" target="_top" xlink:title="application.Grid.createToroidal\lCornerNeighborsMap">
<polygon fill="white" stroke="black" points="690.5,-263 690.5,-293 851.5,-293 851.5,-263 690.5,-263"/>
<text text-anchor="start" x="698.5" y="-281" font-family="Helvetica,sans-Serif" font-size="10.00">application.Grid.createToroidal</text>
<text text-anchor="middle" x="771" y="-270" font-family="Helvetica,sans-Serif" font-size="10.00">CornerNeighborsMap</text>
</a>
</g>
</g>
<!-- Node13&#45;&gt;Node16 -->
<g id="edge15" class="edge"><title>Node13&#45;&gt;Node16</title>
<path fill="none" stroke="midnightblue" d="M327.301,-258.017C352.9,-269.05 389.91,-283.104 424,-289 510.078,-303.888 609.951,-298.324 680.204,-290.732"/>
<polygon fill="midnightblue" stroke="midnightblue" points="680.799,-294.188 690.349,-289.6 680.022,-287.231 680.799,-294.188"/>
</g>
<!-- Node17 -->
<g id="node17" class="node"><title>Node17</title>
<g id="a_node17"><a xlink:href="../../d3/d32/classapplication_1_1_grid.html#a66a821d455f974dbfaba0e89348c4e66" target="_top" xlink:title="application.Grid.createCorner\lNeighborsMap">
<polygon fill="white" stroke="black" points="913.5,-170 913.5,-200 1070.5,-200 1070.5,-170 913.5,-170"/>
<text text-anchor="start" x="921.5" y="-188" font-family="Helvetica,sans-Serif" font-size="10.00">application.Grid.createCorner</text>
<text text-anchor="middle" x="992" y="-177" font-family="Helvetica,sans-Serif" font-size="10.00">NeighborsMap</text>
</a>
</g>
</g>
<!-- Node13&#45;&gt;Node17 -->
<g id="edge27" class="edge"><title>Node13&#45;&gt;Node17</title>
<path fill="none" stroke="midnightblue" d="M362.013,-235.231C437.691,-226.661 564.559,-212.907 674,-204 751.46,-197.696 839.727,-192.574 903.415,-189.243"/>
<polygon fill="midnightblue" stroke="midnightblue" points="903.615,-192.738 913.42,-188.724 903.252,-185.747 903.615,-192.738"/>
</g>
<!-- Node20 -->
<g id="node20" class="node"><title>Node20</title>
<g id="a_node20"><a xlink:href="../../d3/d32/classapplication_1_1_grid.html#a2ce9acc3e02b5443dc0243680eec5473" target="_top" xlink:title="application.Grid.createToroidal\lCardinalNeighborsMap">
<polygon fill="white" stroke="black" points="690.5,-214 690.5,-244 851.5,-244 851.5,-214 690.5,-214"/>
<text text-anchor="start" x="698.5" y="-232" font-family="Helvetica,sans-Serif" font-size="10.00">application.Grid.createToroidal</text>
<text text-anchor="middle" x="771" y="-221" font-family="Helvetica,sans-Serif" font-size="10.00">CardinalNeighborsMap</text>
</a>
</g>
</g>
<!-- Node13&#45;&gt;Node20 -->
<g id="edge20" class="edge"><title>Node13&#45;&gt;Node20</title>
<path fill="none" stroke="midnightblue" d="M362.048,-241.024C445.239,-238.572 587.401,-234.382 680.015,-231.652"/>
<polygon fill="midnightblue" stroke="midnightblue" points="680.324,-235.145 690.216,-231.352 680.118,-228.148 680.324,-235.145"/>
</g>
<!-- Node21 -->
<g id="node21" class="node"><title>Node21</title>
<g id="a_node21"><a xlink:href="../../d3/d32/classapplication_1_1_grid.html#ae805f0f4d572a70e090900fbd8d8bad7" target="_top" xlink:title="application.Grid.createCardinal\lNeighborsMap">
<polygon fill="white" stroke="black" points="910,-121 910,-151 1074,-151 1074,-121 910,-121"/>
<text text-anchor="start" x="918" y="-139" font-family="Helvetica,sans-Serif" font-size="10.00">application.Grid.createCardinal</text>
<text text-anchor="middle" x="992" y="-128" font-family="Helvetica,sans-Serif" font-size="10.00">NeighborsMap</text>
</a>
</g>
</g>
<!-- Node13&#45;&gt;Node21 -->
<g id="edge28" class="edge"><title>Node13&#45;&gt;Node21</title>
<path fill="none" stroke="midnightblue" d="M362.465,-233.131C371.804,-229.515 380.686,-224.619 388,-218 421.477,-187.702 387.207,-149.172 424,-123 504.411,-65.8022 769.641,-108.056 868,-116 878.484,-116.847 889.422,-118.093 900.264,-119.557"/>
<polygon fill="midnightblue" stroke="midnightblue" points="899.786,-123.024 910.177,-120.957 900.765,-116.093 899.786,-123.024"/>
</g>
<!-- Node22 -->
<g id="node22" class="node"><title>Node22</title>
<g id="a_node22"><a xlink:href="../../d3/d32/classapplication_1_1_grid.html#ae06467dd7272ca7e584a866886a2946e" target="_top" xlink:title="application.Grid.createToroidal\lSquareNeighborsMap">
<polygon fill="white" stroke="black" points="450.5,-250 450.5,-280 611.5,-280 611.5,-250 450.5,-250"/>
<text text-anchor="start" x="458.5" y="-268" font-family="Helvetica,sans-Serif" font-size="10.00">application.Grid.createToroidal</text>
<text text-anchor="middle" x="531" y="-257" font-family="Helvetica,sans-Serif" font-size="10.00">SquareNeighborsMap</text>
</a>
</g>
</g>
<!-- Node13&#45;&gt;Node22 -->
<g id="edge24" class="edge"><title>Node13&#45;&gt;Node22</title>
<path fill="none" stroke="midnightblue" d="M362.027,-249.275C386.339,-251.551 414.211,-254.16 440.172,-256.591"/>
<polygon fill="midnightblue" stroke="midnightblue" points="440.114,-260.1 450.397,-257.548 440.767,-253.131 440.114,-260.1"/>
</g>
<!-- Node23 -->
<g id="node23" class="node"><title>Node23</title>
<g id="a_node23"><a xlink:href="../../d3/d32/classapplication_1_1_grid.html#a5d8c63199bedd9c3baee2b9d5f199825" target="_top" xlink:title="application.Grid.createSquare\lNeighborsMap">
<polygon fill="white" stroke="black" points="691.5,-126 691.5,-156 850.5,-156 850.5,-126 691.5,-126"/>
<text text-anchor="start" x="699.5" y="-144" font-family="Helvetica,sans-Serif" font-size="10.00">application.Grid.createSquare</text>
<text text-anchor="middle" x="771" y="-133" font-family="Helvetica,sans-Serif" font-size="10.00">NeighborsMap</text>
</a>
</g>
</g>
<!-- Node13&#45;&gt;Node23 -->
<g id="edge29" class="edge"><title>Node13&#45;&gt;Node23</title>
<path fill="none" stroke="midnightblue" d="M362.446,-230.744C371.475,-227.455 380.272,-223.286 388,-218 410.305,-202.744 400.402,-182.168 424,-169 502.662,-125.107 607.419,-122.924 680.983,-128.708"/>
<polygon fill="midnightblue" stroke="midnightblue" points="680.89,-132.213 691.151,-129.574 681.484,-125.238 680.89,-132.213"/>
</g>
<!-- Node24 -->
<g id="node24" class="node"><title>Node24</title>
<g id="a_node24"><a xlink:href="../../d1/dd5/classapplication_1_1_cell_x_m_l_reader.html#a27b402db7a4f2f1cedc683e748d6014e" target="_top" xlink:title="application.CellXMLReader.get\lGridLocationShape">
<polygon fill="white" stroke="black" points="451.5,-0 451.5,-30 610.5,-30 610.5,-0 451.5,-0"/>
<text text-anchor="start" x="459.5" y="-18" font-family="Helvetica,sans-Serif" font-size="10.00">application.CellXMLReader.get</text>
<text text-anchor="middle" x="531" y="-7" font-family="Helvetica,sans-Serif" font-size="10.00">GridLocationShape</text>
</a>
</g>
</g>
<!-- Node13&#45;&gt;Node24 -->
<g id="edge32" class="edge"><title>Node13&#45;&gt;Node24</title>
<path fill="none" stroke="midnightblue" d="M362.017,-234.674C371.76,-230.89 380.884,-225.537 388,-218 441.916,-160.895 370.462,-102.46 424,-45 429.199,-39.4203 435.35,-34.851 442.03,-31.1126"/>
<polygon fill="midnightblue" stroke="midnightblue" points="443.985,-34.0527 451.428,-26.513 440.908,-27.7653 443.985,-34.0527"/>
</g>
<!-- Node25 -->
<g id="node25" class="node"><title>Node25</title>
<g id="a_node25"><a xlink:href="../../d3/d32/classapplication_1_1_grid.html#a929ef96f891b8a70b35f8f495706596f" target="_top" xlink:title="application.Grid.createHexagonal\lNeighborsMap">
<polygon fill="white" stroke="black" points="904,-58 904,-88 1080,-88 1080,-58 904,-58"/>
<text text-anchor="start" x="912" y="-76" font-family="Helvetica,sans-Serif" font-size="10.00">application.Grid.createHexagonal</text>
<text text-anchor="middle" x="992" y="-65" font-family="Helvetica,sans-Serif" font-size="10.00">NeighborsMap</text>
</a>
</g>
</g>
<!-- Node13&#45;&gt;Node25 -->
<g id="edge33" class="edge"><title>Node13&#45;&gt;Node25</title>
<path fill="none" stroke="midnightblue" d="M362.05,-234.062C371.67,-230.342 380.747,-225.17 388,-218 430.028,-176.455 377.434,-126.387 424,-90 494.571,-34.855 751.08,-49.4882 893.69,-62.5833"/>
<polygon fill="midnightblue" stroke="midnightblue" points="893.475,-66.0783 903.757,-63.5225 894.125,-59.1086 893.475,-66.0783"/>
</g>
<!-- Node16&#45;&gt;Node17 -->
<g id="edge16" class="edge"><title>Node16&#45;&gt;Node17</title>
<path fill="none" stroke="midnightblue" d="M838.545,-262.991C848.55,-260.07 858.643,-256.736 868,-253 900.351,-240.083 934.871,-220.425 959.081,-205.562"/>
<polygon fill="midnightblue" stroke="midnightblue" points="961.184,-208.376 967.829,-200.125 957.488,-202.431 961.184,-208.376"/>
</g>
<!-- Node19 -->
<g id="node19" class="node"><title>Node19</title>
<g id="a_node19"><a xlink:href="../../d3/d32/classapplication_1_1_grid.html#a2207f0a92274780283eba8d67665b992" target="_top" xlink:title="application.Grid.checkBounds">
<polygon fill="white" stroke="black" points="1286,-219.5 1286,-238.5 1444,-238.5 1444,-219.5 1286,-219.5"/>
<text text-anchor="middle" x="1365" y="-226.5" font-family="Helvetica,sans-Serif" font-size="10.00">application.Grid.checkBounds</text>
</a>
</g>
</g>
<!-- Node16&#45;&gt;Node19 -->
<g id="edge19" class="edge"><title>Node16&#45;&gt;Node19</title>
<path fill="none" stroke="midnightblue" d="M851.604,-273.371C946.561,-267.571 1110.05,-256.709 1250,-243 1259.9,-242.03 1270.27,-240.907 1280.55,-239.727"/>
<polygon fill="midnightblue" stroke="midnightblue" points="1281.25,-243.169 1290.78,-238.532 1280.44,-236.216 1281.25,-243.169"/>
</g>
<!-- Node18 -->
<g id="node18" class="node"><title>Node18</title>
<g id="a_node18"><a xlink:href="../../d3/d32/classapplication_1_1_grid.html#ac41429427f1a5cae5d81a8d2b0472ad0" target="_top" xlink:title="application.Grid.addCells\lToMap">
<polygon fill="white" stroke="black" points="1116,-146 1116,-176 1250,-176 1250,-146 1116,-146"/>
<text text-anchor="start" x="1124" y="-164" font-family="Helvetica,sans-Serif" font-size="10.00">application.Grid.addCells</text>
<text text-anchor="middle" x="1183" y="-153" font-family="Helvetica,sans-Serif" font-size="10.00">ToMap</text>
</a>
</g>
</g>
<!-- Node17&#45;&gt;Node18 -->
<g id="edge17" class="edge"><title>Node17&#45;&gt;Node18</title>
<path fill="none" stroke="midnightblue" d="M1070.69,-175.134C1082.27,-173.664 1094.19,-172.15 1105.74,-170.684"/>
<polygon fill="midnightblue" stroke="midnightblue" points="1106.29,-174.142 1115.77,-169.41 1105.41,-167.198 1106.29,-174.142"/>
</g>
<!-- Node18&#45;&gt;Node19 -->
<g id="edge18" class="edge"><title>Node18&#45;&gt;Node19</title>
<path fill="none" stroke="midnightblue" d="M1223.95,-176.091C1255.4,-187.973 1298.81,-204.373 1328.93,-215.751"/>
<polygon fill="midnightblue" stroke="midnightblue" points="1328.01,-219.144 1338.6,-219.404 1330.48,-212.596 1328.01,-219.144"/>
</g>
<!-- Node20&#45;&gt;Node19 -->
<g id="edge23" class="edge"><title>Node20&#45;&gt;Node19</title>
<path fill="none" stroke="midnightblue" d="M851.532,-229C961.881,-229 1160.78,-229 1275.64,-229"/>
<polygon fill="midnightblue" stroke="midnightblue" points="1275.8,-232.5 1285.8,-229 1275.8,-225.5 1275.8,-232.5"/>
</g>
<!-- Node20&#45;&gt;Node21 -->
<g id="edge21" class="edge"><title>Node20&#45;&gt;Node21</title>
<path fill="none" stroke="midnightblue" d="M797.04,-213.853C823.044,-198.621 865.267,-175.265 904,-160 909.323,-157.902 914.897,-155.915 920.543,-154.048"/>
<polygon fill="midnightblue" stroke="midnightblue" points="921.607,-157.383 930.081,-151.024 919.491,-150.71 921.607,-157.383"/>
</g>
<!-- Node21&#45;&gt;Node18 -->
<g id="edge22" class="edge"><title>Node21&#45;&gt;Node18</title>
<path fill="none" stroke="midnightblue" d="M1074.25,-146.747C1084.68,-148.127 1095.33,-149.536 1105.68,-150.904"/>
<polygon fill="midnightblue" stroke="midnightblue" points="1105.53,-154.416 1115.91,-152.257 1106.45,-147.476 1105.53,-154.416"/>
</g>
<!-- Node22&#45;&gt;Node16 -->
<g id="edge26" class="edge"><title>Node22&#45;&gt;Node16</title>
<path fill="none" stroke="midnightblue" d="M611.581,-269.347C633.612,-270.55 657.675,-271.865 680.243,-273.097"/>
<polygon fill="midnightblue" stroke="midnightblue" points="680.318,-276.607 690.494,-273.657 680.699,-269.617 680.318,-276.607"/>
</g>
<!-- Node22&#45;&gt;Node20 -->
<g id="edge25" class="edge"><title>Node22&#45;&gt;Node20</title>
<path fill="none" stroke="midnightblue" d="M611.581,-252.962C633.712,-249.615 657.892,-245.957 680.548,-242.531"/>
<polygon fill="midnightblue" stroke="midnightblue" points="681.13,-245.982 690.494,-241.026 680.083,-239.061 681.13,-245.982"/>
</g>
<!-- Node23&#45;&gt;Node17 -->
<g id="edge31" class="edge"><title>Node23&#45;&gt;Node17</title>
<path fill="none" stroke="midnightblue" d="M846.755,-156.019C865.941,-159.874 886.715,-164.048 906.362,-167.995"/>
<polygon fill="midnightblue" stroke="midnightblue" points="905.717,-171.435 916.21,-169.974 907.096,-164.573 905.717,-171.435"/>
</g>
<!-- Node23&#45;&gt;Node21 -->
<g id="edge30" class="edge"><title>Node23&#45;&gt;Node21</title>
<path fill="none" stroke="midnightblue" d="M850.755,-139.202C866.698,-138.838 883.588,-138.452 899.915,-138.08"/>
<polygon fill="midnightblue" stroke="midnightblue" points="900.078,-141.577 909.995,-137.849 899.918,-134.579 900.078,-141.577"/>
</g>
<!-- Node25&#45;&gt;Node18 -->
<g id="edge34" class="edge"><title>Node25&#45;&gt;Node18</title>
<path fill="none" stroke="midnightblue" d="M1028.71,-88.179C1044.5,-94.9977 1063.25,-103.241 1080,-111 1100.97,-120.715 1124.12,-132.014 1143.06,-141.411"/>
<polygon fill="midnightblue" stroke="midnightblue" points="1141.75,-144.671 1152.26,-145.994 1144.87,-138.404 1141.75,-144.671"/>
</g>
</g>
</svg>
