<?xml version="1.0" encoding="UTF-8" standalone="no"?>
<!DOCTYPE svg PUBLIC "-//W3C//DTD SVG 1.1//EN"
 "http://www.w3.org/Graphics/SVG/1.1/DTD/svg11.dtd">
<!-- Generated by graphviz version 2.36.0 (20140111.2315)
 -->
<!-- Title: application.ApplicationLoop.editGrid Pages: 1 -->
<svg width="2352pt" height="116pt"
 viewBox="0.00 0.00 2352.00 116.00" xmlns="http://www.w3.org/2000/svg" xmlns:xlink="http://www.w3.org/1999/xlink">
<g id="graph0" class="graph" transform="scale(1 1) rotate(0) translate(4 112)">
<title>application.ApplicationLoop.editGrid</title>
<polygon fill="white" stroke="none" points="-4,4 -4,-112 2348,-112 2348,4 -4,4"/>
<!-- Node1 -->
<g id="node1" class="node"><title>Node1</title>
<polygon fill="#bfbfbf" stroke="black" points="0,-29.5 0,-48.5 188,-48.5 188,-29.5 0,-29.5"/>
<text text-anchor="middle" x="94" y="-36.5" font-family="Helvetica,sans-Serif" font-size="10.00">application.ApplicationLoop.editGrid</text>
</g>
<!-- Node2 -->
<g id="node2" class="node"><title>Node2</title>
<g id="a_node2"><a xlink:href="../../d9/d5e/classapplication_1_1_application_loop.html#a903043ba2535055f46dbee6aca8b3eef" target="_top" xlink:title="application.ApplicationLoop.init">
<polygon fill="white" stroke="black" points="224,-29.5 224,-48.5 388,-48.5 388,-29.5 224,-29.5"/>
<text text-anchor="middle" x="306" y="-36.5" font-family="Helvetica,sans-Serif" font-size="10.00">application.ApplicationLoop.init</text>
</a>
</g>
</g>
<!-- Node1&#45;&gt;Node2 -->
<g id="edge1" class="edge"><title>Node1&#45;&gt;Node2</title>
<path fill="none" stroke="midnightblue" d="M198.152,-39C206.796,-39 215.456,-39 223.899,-39"/>
<polygon fill="midnightblue" stroke="midnightblue" points="198.026,-35.5001 188.026,-39 198.026,-42.5001 198.026,-35.5001"/>
</g>
<!-- Node3 -->
<g id="node3" class="node"><title>Node3</title>
<g id="a_node3"><a xlink:href="../../d9/d96/classapplication_1_1_main.html#adc868cfca1990edad66af3dcb8cf4349" target="_top" xlink:title="application.Main.playGame">
<polygon fill="white" stroke="black" points="424,-29.5 424,-48.5 570,-48.5 570,-29.5 424,-29.5"/>
<text text-anchor="middle" x="497" y="-36.5" font-family="Helvetica,sans-Serif" font-size="10.00">application.Main.playGame</text>
</a>
</g>
</g>
<!-- Node2&#45;&gt;Node3 -->
<g id="edge2" class="edge"><title>Node2&#45;&gt;Node3</title>
<path fill="none" stroke="midnightblue" d="M398.261,-39C406.817,-39 415.409,-39 423.755,-39"/>
<polygon fill="midnightblue" stroke="midnightblue" points="398.25,-35.5001 388.25,-39 398.25,-42.5001 398.25,-35.5001"/>
</g>
<!-- Node4 -->
<g id="node4" class="node"><title>Node4</title>
<g id="a_node4"><a xlink:href="../../d9/d96/classapplication_1_1_main.html#ada0f47786d75e28e627d2621d75eaf5a" target="_top" xlink:title="application.Main.activate\lStartButton">
<polygon fill="white" stroke="black" points="606.5,-46 606.5,-76 741.5,-76 741.5,-46 606.5,-46"/>
<text text-anchor="start" x="614.5" y="-64" font-family="Helvetica,sans-Serif" font-size="10.00">application.Main.activate</text>
<text text-anchor="middle" x="674" y="-53" font-family="Helvetica,sans-Serif" font-size="10.00">StartButton</text>
</a>
</g>
</g>
<!-- Node3&#45;&gt;Node4 -->
<g id="edge3" class="edge"><title>Node3&#45;&gt;Node4</title>
<path fill="none" stroke="midnightblue" d="M580.351,-49.3527C589.052,-50.4465 597.82,-51.5489 606.312,-52.6163"/>
<polygon fill="midnightblue" stroke="midnightblue" points="580.548,-45.85 570.19,-48.0753 579.675,-52.7953 580.548,-45.85"/>
</g>
<!-- Node5 -->
<g id="node5" class="node"><title>Node5</title>
<g id="a_node5"><a xlink:href="../../d9/d96/classapplication_1_1_main.html#a64e6451d894979853890a235efe37db8" target="_top" xlink:title="application.Main.createStart\lGameButton">
<polygon fill="white" stroke="black" points="778,-47 778,-77 930,-77 930,-47 778,-47"/>
<text text-anchor="start" x="786" y="-65" font-family="Helvetica,sans-Serif" font-size="10.00">application.Main.createStart</text>
<text text-anchor="middle" x="854" y="-54" font-family="Helvetica,sans-Serif" font-size="10.00">GameButton</text>
</a>
</g>
</g>
<!-- Node4&#45;&gt;Node5 -->
<g id="edge4" class="edge"><title>Node4&#45;&gt;Node5</title>
<path fill="none" stroke="midnightblue" d="M751.646,-61.4306C760.341,-61.4794 769.196,-61.5292 777.871,-61.5779"/>
<polygon fill="midnightblue" stroke="midnightblue" points="751.553,-57.9301 741.534,-61.3738 751.514,-64.93 751.553,-57.9301"/>
</g>
<!-- Node6 -->
<g id="node6" class="node"><title>Node6</title>
<g id="a_node6"><a xlink:href="../../d9/d96/classapplication_1_1_main.html#a5fee6c1b05965eca9205a99e3245a5fb" target="_top" xlink:title="application.Main.populate\lStartPageModules">
<polygon fill="white" stroke="black" points="966.5,-48 966.5,-78 1105.5,-78 1105.5,-48 966.5,-48"/>
<text text-anchor="start" x="974.5" y="-66" font-family="Helvetica,sans-Serif" font-size="10.00">application.Main.populate</text>
<text text-anchor="middle" x="1036" y="-55" font-family="Helvetica,sans-Serif" font-size="10.00">StartPageModules</text>
</a>
</g>
</g>
<!-- Node5&#45;&gt;Node6 -->
<g id="edge5" class="edge"><title>Node5&#45;&gt;Node6</title>
<path fill="none" stroke="midnightblue" d="M940.274,-62.4737C949.039,-62.5224 957.864,-62.5715 966.415,-62.619"/>
<polygon fill="midnightblue" stroke="midnightblue" points="940.052,-58.9726 930.033,-62.4168 940.013,-65.9724 940.052,-58.9726"/>
</g>
<!-- Node7 -->
<g id="node7" class="node"><title>Node7</title>
<g id="a_node7"><a xlink:href="../../d9/d96/classapplication_1_1_main.html#a4e5ad4e3de8bbd8654120180a94e870d" target="_top" xlink:title="application.Main.start">
<polygon fill="white" stroke="black" points="1142.5,-53.5 1142.5,-72.5 1261.5,-72.5 1261.5,-53.5 1142.5,-53.5"/>
<text text-anchor="middle" x="1202" y="-60.5" font-family="Helvetica,sans-Serif" font-size="10.00">application.Main.start</text>
</a>
</g>
</g>
<!-- Node6&#45;&gt;Node7 -->
<g id="edge6" class="edge"><title>Node6&#45;&gt;Node7</title>
<path fill="none" stroke="midnightblue" d="M1115.68,-63C1124.64,-63 1133.66,-63 1142.3,-63"/>
<polygon fill="midnightblue" stroke="midnightblue" points="1115.6,-59.5001 1105.6,-63 1115.6,-66.5001 1115.6,-59.5001"/>
</g>
<!-- Node8 -->
<g id="node8" class="node"><title>Node8</title>
<g id="a_node8"><a xlink:href="../../d9/d96/classapplication_1_1_main.html#ad652e3294ffb6519b18d784d5831c76a" target="_top" xlink:title="application.Main.activate\lReturntoStart">
<polygon fill="white" stroke="black" points="1298.5,-48 1298.5,-78 1433.5,-78 1433.5,-48 1298.5,-48"/>
<text text-anchor="start" x="1306.5" y="-66" font-family="Helvetica,sans-Serif" font-size="10.00">application.Main.activate</text>
<text text-anchor="middle" x="1366" y="-55" font-family="Helvetica,sans-Serif" font-size="10.00">ReturntoStart</text>
</a>
</g>
</g>
<!-- Node7&#45;&gt;Node8 -->
<g id="edge7" class="edge"><title>Node7&#45;&gt;Node8</title>
<path fill="none" stroke="midnightblue" d="M1272.08,-63C1280.81,-63 1289.73,-63 1298.42,-63"/>
<polygon fill="midnightblue" stroke="midnightblue" points="1271.94,-59.5001 1261.94,-63 1271.94,-66.5001 1271.94,-59.5001"/>
</g>
<!-- Node9 -->
<g id="node9" class="node"><title>Node9</title>
<g id="a_node9"><a xlink:href="../../d9/d96/classapplication_1_1_main.html#a4c5877fafc53c4fae488f1f30faf294b" target="_top" xlink:title="application.Main.createReturn\lToStartButton">
<polygon fill="white" stroke="black" points="1470,-48 1470,-78 1628,-78 1628,-48 1470,-48"/>
<text text-anchor="start" x="1478" y="-66" font-family="Helvetica,sans-Serif" font-size="10.00">application.Main.createReturn</text>
<text text-anchor="middle" x="1549" y="-55" font-family="Helvetica,sans-Serif" font-size="10.00">ToStartButton</text>
</a>
</g>
</g>
<!-- Node8&#45;&gt;Node9 -->
<g id="edge8" class="edge"><title>Node8&#45;&gt;Node9</title>
<path fill="none" stroke="midnightblue" d="M1443.7,-63C1452.36,-63 1461.19,-63 1469.87,-63"/>
<polygon fill="midnightblue" stroke="midnightblue" points="1443.63,-59.5001 1433.63,-63 1443.63,-66.5001 1443.63,-59.5001"/>
</g>
<!-- Node10 -->
<g id="node10" class="node"><title>Node10</title>
<g id="a_node10"><a xlink:href="../../d9/d96/classapplication_1_1_main.html#a2ddf30fb8360296e1ad3459fe6f920fb" target="_top" xlink:title="application.Main.populate\lGridPageModules">
<polygon fill="white" stroke="black" points="1664.5,-0 1664.5,-30 1803.5,-30 1803.5,-0 1664.5,-0"/>
<text text-anchor="start" x="1672.5" y="-18" font-family="Helvetica,sans-Serif" font-size="10.00">application.Main.populate</text>
<text text-anchor="middle" x="1734" y="-7" font-family="Helvetica,sans-Serif" font-size="10.00">GridPageModules</text>
</a>
</g>
</g>
<!-- Node9&#45;&gt;Node10 -->
<g id="edge9" class="edge"><title>Node9&#45;&gt;Node10</title>
<path fill="none" stroke="midnightblue" d="M1617.29,-45.3505C1636.5,-40.3106 1657.25,-34.868 1675.8,-30.0024"/>
<polygon fill="midnightblue" stroke="midnightblue" points="1616.19,-42.0215 1607.4,-47.9442 1617.96,-48.7925 1616.19,-42.0215"/>
</g>
<!-- Node11 -->
<g id="node11" class="node"><title>Node11</title>
<g id="a_node11"><a xlink:href="../../d9/d96/classapplication_1_1_main.html#abcabe1a32eb7b5054cf34ca0def07531" target="_top" xlink:title="application.Main.populate\lErrorPageModules">
<polygon fill="white" stroke="black" points="1664.5,-49 1664.5,-79 1803.5,-79 1803.5,-49 1664.5,-49"/>
<text text-anchor="start" x="1672.5" y="-67" font-family="Helvetica,sans-Serif" font-size="10.00">application.Main.populate</text>
<text text-anchor="middle" x="1734" y="-56" font-family="Helvetica,sans-Serif" font-size="10.00">ErrorPageModules</text>
</a>
</g>
</g>
<!-- Node9&#45;&gt;Node11 -->
<g id="edge11" class="edge"><title>Node9&#45;&gt;Node11</title>
<path fill="none" stroke="midnightblue" d="M1638.36,-63.4828C1647.1,-63.5306 1655.87,-63.5785 1664.37,-63.6249"/>
<polygon fill="midnightblue" stroke="midnightblue" points="1638.16,-59.9818 1628.14,-63.427 1638.12,-66.9817 1638.16,-59.9818"/>
</g>
<!-- Node10&#45;&gt;Node3 -->
<g id="edge10" class="edge"><title>Node10&#45;&gt;Node3</title>
<path fill="none" stroke="midnightblue" d="M1654.01,-15.6807C1579.88,-16.2604 1465.92,-17 1367,-17 853,-17 853,-17 853,-17 754.972,-17 642.008,-25.46 570.328,-31.8876"/>
<polygon fill="midnightblue" stroke="midnightblue" points="1654.22,-19.1792 1664.2,-15.6001 1654.17,-12.1794 1654.22,-19.1792"/>
</g>
<!-- Node12 -->
<g id="node12" class="node"><title>Node12</title>
<g id="a_node12"><a xlink:href="../../d9/d96/classapplication_1_1_main.html#a81e70f73d65beae34c459628791cc5d4" target="_top" xlink:title="application.Main.activate\lErrorPage">
<polygon fill="white" stroke="black" points="1840.5,-49 1840.5,-79 1975.5,-79 1975.5,-49 1840.5,-49"/>
<text text-anchor="start" x="1848.5" y="-67" font-family="Helvetica,sans-Serif" font-size="10.00">application.Main.activate</text>
<text text-anchor="middle" x="1908" y="-56" font-family="Helvetica,sans-Serif" font-size="10.00">ErrorPage</text>
</a>
</g>
</g>
<!-- Node11&#45;&gt;Node12 -->
<g id="edge12" class="edge"><title>Node11&#45;&gt;Node12</title>
<path fill="none" stroke="midnightblue" d="M1814.15,-64C1822.88,-64 1831.7,-64 1840.25,-64"/>
<polygon fill="midnightblue" stroke="midnightblue" points="1813.97,-60.5001 1803.97,-64 1813.97,-67.5001 1813.97,-60.5001"/>
</g>
<!-- Node13 -->
<g id="node13" class="node"><title>Node13</title>
<g id="a_node13"><a xlink:href="../../d9/d96/classapplication_1_1_main.html#aef0593911aa3cbc594ac75bbb8d6a2b0" target="_top" xlink:title="application.Main.activate\lImportXMLButton">
<polygon fill="white" stroke="black" points="2012.5,-49 2012.5,-79 2147.5,-79 2147.5,-49 2012.5,-49"/>
<text text-anchor="start" x="2020.5" y="-67" font-family="Helvetica,sans-Serif" font-size="10.00">application.Main.activate</text>
<text text-anchor="middle" x="2080" y="-56" font-family="Helvetica,sans-Serif" font-size="10.00">ImportXMLButton</text>
</a>
</g>
</g>
<!-- Node12&#45;&gt;Node13 -->
<g id="edge13" class="edge"><title>Node12&#45;&gt;Node13</title>
<path fill="none" stroke="midnightblue" d="M1985.72,-64C1994.65,-64 2003.71,-64 2012.49,-64"/>
<polygon fill="midnightblue" stroke="midnightblue" points="1985.7,-60.5001 1975.7,-64 1985.7,-67.5001 1985.7,-60.5001"/>
</g>
<!-- Node14 -->
<g id="node14" class="node"><title>Node14</title>
<g id="a_node14"><a xlink:href="../../d9/d96/classapplication_1_1_main.html#a18021492af2e457d39edcbd16dc0d3c8" target="_top" xlink:title="application.Main.createImport\lXMLButton">
<polygon fill="white" stroke="black" points="2184.5,-71 2184.5,-101 2343.5,-101 2343.5,-71 2184.5,-71"/>
<text text-anchor="start" x="2192.5" y="-89" font-family="Helvetica,sans-Serif" font-size="10.00">application.Main.createImport</text>
<text text-anchor="middle" x="2264" y="-78" font-family="Helvetica,sans-Serif" font-size="10.00">XMLButton</text>
</a>
</g>
</g>
<!-- Node13&#45;&gt;Node14 -->
<g id="edge14" class="edge"><title>Node13&#45;&gt;Node14</title>
<path fill="none" stroke="midnightblue" d="M2157.87,-73.2923C2166.59,-74.3465 2175.49,-75.4221 2184.24,-76.4792"/>
<polygon fill="midnightblue" stroke="midnightblue" points="2158.08,-69.7925 2147.74,-72.0671 2157.24,-76.7419 2158.08,-69.7925"/>
</g>
<!-- Node14&#45;&gt;Node6 -->
<g id="edge15" class="edge"><title>Node14&#45;&gt;Node6</title>
<path fill="none" stroke="midnightblue" d="M2174.03,-94.5964C2102.5,-100.768 1999.38,-108 1909,-108 1365,-108 1365,-108 1365,-108 1274.76,-108 1171.84,-91.0749 1105.73,-77.9843"/>
<polygon fill="midnightblue" stroke="midnightblue" points="2174.69,-98.0519 2184.35,-93.6945 2174.08,-91.0785 2174.69,-98.0519"/>
</g>
</g>
</svg>
