<?xml version="1.0" encoding="UTF-8" standalone="no"?>
<!DOCTYPE svg PUBLIC "-//W3C//DTD SVG 1.1//EN"
 "http://www.w3.org/Graphics/SVG/1.1/DTD/svg11.dtd">
<!-- Generated by graphviz version 2.36.0 (20140111.2315)
 -->
<!-- Title: application.ApplicationLoop.generateHex Pages: 1 -->
<svg width="450pt" height="87pt"
 viewBox="0.00 0.00 450.00 87.00" xmlns="http://www.w3.org/2000/svg" xmlns:xlink="http://www.w3.org/1999/xlink">
<g id="graph0" class="graph" transform="scale(1 1) rotate(0) translate(4 83)">
<title>application.ApplicationLoop.generateHex</title>
<polygon fill="white" stroke="none" points="-4,4 -4,-83 446,-83 446,4 -4,4"/>
<!-- Node1 -->
<g id="node1" class="node"><title>Node1</title>
<polygon fill="#bfbfbf" stroke="black" points="0,-29.5 0,-48.5 212,-48.5 212,-29.5 0,-29.5"/>
<text text-anchor="middle" x="106" y="-36.5" font-family="Helvetica,sans-Serif" font-size="10.00">application.ApplicationLoop.generateHex</text>
</g>
<!-- Node2 -->
<g id="node2" class="node"><title>Node2</title>
<g id="a_node2"><a xlink:href="../../d9/d5e/classapplication_1_1_application_loop.html#ae340bba16f5a6a2966c5c302de6918e3" target="_top" xlink:title="application.ApplicationLoop.generate\lHexHelper">
<polygon fill="white" stroke="black" points="248,-49 248,-79 442,-79 442,-49 248,-49"/>
<text text-anchor="start" x="256" y="-67" font-family="Helvetica,sans-Serif" font-size="10.00">application.ApplicationLoop.generate</text>
<text text-anchor="middle" x="345" y="-56" font-family="Helvetica,sans-Serif" font-size="10.00">HexHelper</text>
</a>
</g>
</g>
<!-- Node1&#45;&gt;Node2 -->
<g id="edge1" class="edge"><title>Node1&#45;&gt;Node2</title>
<path fill="none" stroke="midnightblue" d="M197.276,-48.5227C210.41,-49.9082 224.036,-51.3455 237.455,-52.761"/>
<polygon fill="midnightblue" stroke="midnightblue" points="237.352,-56.2696 247.664,-53.838 238.087,-49.3082 237.352,-56.2696"/>
</g>
<!-- Node3 -->
<g id="node3" class="node"><title>Node3</title>
<g id="a_node3"><a xlink:href="../../d9/d5e/classapplication_1_1_application_loop.html#a7e471b6bf7b92c3181b661075cf852ed" target="_top" xlink:title="application.ApplicationLoop.generate\lRandomColor">
<polygon fill="white" stroke="black" points="248,-0 248,-30 442,-30 442,-0 248,-0"/>
<text text-anchor="start" x="256" y="-18" font-family="Helvetica,sans-Serif" font-size="10.00">application.ApplicationLoop.generate</text>
<text text-anchor="middle" x="345" y="-7" font-family="Helvetica,sans-Serif" font-size="10.00">RandomColor</text>
</a>
</g>
</g>
<!-- Node1&#45;&gt;Node3 -->
<g id="edge2" class="edge"><title>Node1&#45;&gt;Node3</title>
<path fill="none" stroke="midnightblue" d="M201.009,-29.4801C213.024,-28.2634 225.39,-27.0111 237.584,-25.7763"/>
<polygon fill="midnightblue" stroke="midnightblue" points="238.178,-29.2341 247.775,-24.7443 237.473,-22.2698 238.178,-29.2341"/>
</g>
</g>
</svg>
