<?xml version="1.0" encoding="UTF-8" standalone="no"?>
<!DOCTYPE svg PUBLIC "-//W3C//DTD SVG 1.1//EN"
 "http://www.w3.org/Graphics/SVG/1.1/DTD/svg11.dtd">
<!-- Generated by graphviz version 2.36.0 (20140111.2315)
 -->
<!-- Title: application.ApplicationLoop.updateGameLoop Pages: 1 -->
<svg width="768pt" height="155pt"
 viewBox="0.00 0.00 768.00 155.00" xmlns="http://www.w3.org/2000/svg" xmlns:xlink="http://www.w3.org/1999/xlink">
<g id="graph0" class="graph" transform="scale(1 1) rotate(0) translate(4 151)">
<title>application.ApplicationLoop.updateGameLoop</title>
<polygon fill="white" stroke="none" points="-4,4 -4,-151 764,-151 764,4 -4,4"/>
<!-- Node1 -->
<g id="node1" class="node"><title>Node1</title>
<polygon fill="#bfbfbf" stroke="black" points="0,-68 0,-98 184,-98 184,-68 0,-68"/>
<text text-anchor="start" x="8" y="-86" font-family="Helvetica,sans-Serif" font-size="10.00">application.ApplicationLoop.update</text>
<text text-anchor="middle" x="92" y="-75" font-family="Helvetica,sans-Serif" font-size="10.00">GameLoop</text>
</g>
<!-- Node2 -->
<g id="node2" class="node"><title>Node2</title>
<g id="a_node2"><a xlink:href="../../d9/d5e/classapplication_1_1_application_loop.html#a4ed391042db7dc3e62e9749f28c82f09" target="_top" xlink:title="application.ApplicationLoop.add\lPointsToLineChart">
<polygon fill="white" stroke="black" points="225,-117 225,-147 393,-147 393,-117 225,-117"/>
<text text-anchor="start" x="233" y="-135" font-family="Helvetica,sans-Serif" font-size="10.00">application.ApplicationLoop.add</text>
<text text-anchor="middle" x="309" y="-124" font-family="Helvetica,sans-Serif" font-size="10.00">PointsToLineChart</text>
</a>
</g>
</g>
<!-- Node1&#45;&gt;Node2 -->
<g id="edge1" class="edge"><title>Node1&#45;&gt;Node2</title>
<path fill="none" stroke="midnightblue" d="M158.968,-98.0346C182.185,-103.326 208.456,-109.313 232.404,-114.771"/>
<polygon fill="midnightblue" stroke="midnightblue" points="231.629,-118.184 242.157,-116.994 233.184,-111.359 231.629,-118.184"/>
</g>
<!-- Node3 -->
<g id="node3" class="node"><title>Node3</title>
<g id="a_node3"><a xlink:href="../../d9/d5e/classapplication_1_1_application_loop.html#a5e176f31f90e5c1ab7b09e68ac391d92" target="_top" xlink:title="application.ApplicationLoop.count\lNumberOfCertainColorSpaces">
<polygon fill="white" stroke="black" points="220.5,-68 220.5,-98 397.5,-98 397.5,-68 220.5,-68"/>
<text text-anchor="start" x="228.5" y="-86" font-family="Helvetica,sans-Serif" font-size="10.00">application.ApplicationLoop.count</text>
<text text-anchor="middle" x="309" y="-75" font-family="Helvetica,sans-Serif" font-size="10.00">NumberOfCertainColorSpaces</text>
</a>
</g>
</g>
<!-- Node1&#45;&gt;Node3 -->
<g id="edge2" class="edge"><title>Node1&#45;&gt;Node3</title>
<path fill="none" stroke="midnightblue" d="M184.179,-83C192.817,-83 201.598,-83 210.293,-83"/>
<polygon fill="midnightblue" stroke="midnightblue" points="210.447,-86.5001 220.447,-83 210.447,-79.5001 210.447,-86.5001"/>
</g>
<!-- Node4 -->
<g id="node4" class="node"><title>Node4</title>
<g id="a_node4"><a xlink:href="../../d3/d32/classapplication_1_1_grid.html#af59c90cc59f615f7eb538b683abe0d3e" target="_top" xlink:title="application.Grid.updateGrid">
<polygon fill="white" stroke="black" points="235.5,-29.5 235.5,-48.5 382.5,-48.5 382.5,-29.5 235.5,-29.5"/>
<text text-anchor="middle" x="309" y="-36.5" font-family="Helvetica,sans-Serif" font-size="10.00">application.Grid.updateGrid</text>
</a>
</g>
</g>
<!-- Node1&#45;&gt;Node4 -->
<g id="edge3" class="edge"><title>Node1&#45;&gt;Node4</title>
<path fill="none" stroke="midnightblue" d="M166.389,-67.9808C194.204,-62.2885 225.418,-55.9006 251.447,-50.5736"/>
<polygon fill="midnightblue" stroke="midnightblue" points="252.424,-53.9464 261.519,-48.5124 251.02,-47.0885 252.424,-53.9464"/>
</g>
<!-- Node5 -->
<g id="node5" class="node"><title>Node5</title>
<g id="a_node5"><a xlink:href="../../d3/d32/classapplication_1_1_grid.html#a315db0ee4ce99fd922f84922a2acb74e" target="_top" xlink:title="application.Grid.updateCell\lMatrix">
<polygon fill="white" stroke="black" points="434.5,-49 434.5,-79 579.5,-79 579.5,-49 434.5,-49"/>
<text text-anchor="start" x="442.5" y="-67" font-family="Helvetica,sans-Serif" font-size="10.00">application.Grid.updateCell</text>
<text text-anchor="middle" x="507" y="-56" font-family="Helvetica,sans-Serif" font-size="10.00">Matrix</text>
</a>
</g>
</g>
<!-- Node4&#45;&gt;Node5 -->
<g id="edge4" class="edge"><title>Node4&#45;&gt;Node5</title>
<path fill="none" stroke="midnightblue" d="M382.705,-48.2736C396.293,-50.0067 410.578,-51.8288 424.413,-53.5935"/>
<polygon fill="midnightblue" stroke="midnightblue" points="424.029,-57.0728 434.392,-54.8663 424.915,-50.1291 424.029,-57.0728"/>
</g>
<!-- Node7 -->
<g id="node7" class="node"><title>Node7</title>
<g id="a_node7"><a xlink:href="../../d3/d32/classapplication_1_1_grid.html#a74143390c54d93896daded8d752f992e" target="_top" xlink:title="application.Grid.repopulate\lGridPane">
<polygon fill="white" stroke="black" points="434,-0 434,-30 580,-30 580,-0 434,-0"/>
<text text-anchor="start" x="442" y="-18" font-family="Helvetica,sans-Serif" font-size="10.00">application.Grid.repopulate</text>
<text text-anchor="middle" x="507" y="-7" font-family="Helvetica,sans-Serif" font-size="10.00">GridPane</text>
</a>
</g>
</g>
<!-- Node4&#45;&gt;Node7 -->
<g id="edge6" class="edge"><title>Node4&#45;&gt;Node7</title>
<path fill="none" stroke="midnightblue" d="M382.705,-30.0974C395.987,-28.4709 409.936,-26.763 423.479,-25.1046"/>
<polygon fill="midnightblue" stroke="midnightblue" points="424.239,-28.5378 433.739,-23.8482 423.388,-21.5897 424.239,-28.5378"/>
</g>
<!-- Node6 -->
<g id="node6" class="node"><title>Node6</title>
<g id="a_node6"><a xlink:href="../../d7/dff/classapplication_1_1_cell.html#a009926fa26199176d7e24f2a9fcec5bc" target="_top" xlink:title="application.Cell.updateCell">
<polygon fill="white" stroke="black" points="616.5,-54.5 616.5,-73.5 759.5,-73.5 759.5,-54.5 616.5,-54.5"/>
<text text-anchor="middle" x="688" y="-61.5" font-family="Helvetica,sans-Serif" font-size="10.00">application.Cell.updateCell</text>
</a>
</g>
</g>
<!-- Node5&#45;&gt;Node6 -->
<g id="edge5" class="edge"><title>Node5&#45;&gt;Node6</title>
<path fill="none" stroke="midnightblue" d="M579.517,-64C588.361,-64 597.45,-64 606.418,-64"/>
<polygon fill="midnightblue" stroke="midnightblue" points="606.472,-67.5001 616.472,-64 606.472,-60.5001 606.472,-67.5001"/>
</g>
</g>
</svg>
