<?xml version="1.0" encoding="UTF-8" standalone="no"?>
<!DOCTYPE svg PUBLIC "-//W3C//DTD SVG 1.1//EN"
 "http://www.w3.org/Graphics/SVG/1.1/DTD/svg11.dtd">
<!-- Generated by graphviz version 2.36.0 (20140111.2315)
 -->
<!-- Title: application.ApplicationLoop.generateRect Pages: 1 -->
<svg width="452pt" height="87pt"
 viewBox="0.00 0.00 452.00 87.00" xmlns="http://www.w3.org/2000/svg" xmlns:xlink="http://www.w3.org/1999/xlink">
<g id="graph0" class="graph" transform="scale(1 1) rotate(0) translate(4 83)">
<title>application.ApplicationLoop.generateRect</title>
<polygon fill="white" stroke="none" points="-4,4 -4,-83 448,-83 448,4 -4,4"/>
<!-- Node1 -->
<g id="node1" class="node"><title>Node1</title>
<polygon fill="#bfbfbf" stroke="black" points="0,-29.5 0,-48.5 214,-48.5 214,-29.5 0,-29.5"/>
<text text-anchor="middle" x="107" y="-36.5" font-family="Helvetica,sans-Serif" font-size="10.00">application.ApplicationLoop.generateRect</text>
</g>
<!-- Node2 -->
<g id="node2" class="node"><title>Node2</title>
<g id="a_node2"><a xlink:href="../../d9/d5e/classapplication_1_1_application_loop.html#a7e471b6bf7b92c3181b661075cf852ed" target="_top" xlink:title="application.ApplicationLoop.generate\lRandomColor">
<polygon fill="white" stroke="black" points="250,-49 250,-79 444,-79 444,-49 250,-49"/>
<text text-anchor="start" x="258" y="-67" font-family="Helvetica,sans-Serif" font-size="10.00">application.ApplicationLoop.generate</text>
<text text-anchor="middle" x="347" y="-56" font-family="Helvetica,sans-Serif" font-size="10.00">RandomColor</text>
</a>
</g>
</g>
<!-- Node1&#45;&gt;Node2 -->
<g id="edge1" class="edge"><title>Node1&#45;&gt;Node2</title>
<path fill="none" stroke="midnightblue" d="M198.657,-48.5227C211.951,-49.9192 225.747,-51.3683 239.326,-52.7947"/>
<polygon fill="midnightblue" stroke="midnightblue" points="239.345,-56.3159 249.656,-53.8798 240.076,-49.3542 239.345,-56.3159"/>
</g>
<!-- Node3 -->
<g id="node3" class="node"><title>Node3</title>
<g id="a_node3"><a xlink:href="../../d9/d5e/classapplication_1_1_application_loop.html#af1d62db2642f62abd06c8b88288eef61" target="_top" xlink:title="application.ApplicationLoop.generate\lRectHelper">
<polygon fill="white" stroke="black" points="250,-0 250,-30 444,-30 444,-0 250,-0"/>
<text text-anchor="start" x="258" y="-18" font-family="Helvetica,sans-Serif" font-size="10.00">application.ApplicationLoop.generate</text>
<text text-anchor="middle" x="347" y="-7" font-family="Helvetica,sans-Serif" font-size="10.00">RectHelper</text>
</a>
</g>
</g>
<!-- Node1&#45;&gt;Node3 -->
<g id="edge2" class="edge"><title>Node1&#45;&gt;Node3</title>
<path fill="none" stroke="midnightblue" d="M202.406,-29.4801C214.573,-28.2532 227.098,-26.9901 239.444,-25.7452"/>
<polygon fill="midnightblue" stroke="midnightblue" points="240.161,-29.1907 249.759,-24.705 239.458,-22.226 240.161,-29.1907"/>
</g>
</g>
</svg>
