<?xml version="1.0" encoding="UTF-8" standalone="no"?>
<!DOCTYPE svg PUBLIC "-//W3C//DTD SVG 1.1//EN"
 "http://www.w3.org/Graphics/SVG/1.1/DTD/svg11.dtd">
<!-- Generated by graphviz version 2.36.0 (20140111.2315)
 -->
<!-- Title: application.ApplicationLoop.generateRectHelper Pages: 1 -->
<svg width="2832pt" height="116pt"
 viewBox="0.00 0.00 2832.00 116.00" xmlns="http://www.w3.org/2000/svg" xmlns:xlink="http://www.w3.org/1999/xlink">
<g id="graph0" class="graph" transform="scale(1 1) rotate(0) translate(4 112)">
<title>application.ApplicationLoop.generateRectHelper</title>
<polygon fill="white" stroke="none" points="-4,4 -4,-112 2828,-112 2828,4 -4,4"/>
<!-- Node1 -->
<g id="node1" class="node"><title>Node1</title>
<polygon fill="#bfbfbf" stroke="black" points="0,-24 0,-54 194,-54 194,-24 0,-24"/>
<text text-anchor="start" x="8" y="-42" font-family="Helvetica,sans-Serif" font-size="10.00">application.ApplicationLoop.generate</text>
<text text-anchor="middle" x="97" y="-31" font-family="Helvetica,sans-Serif" font-size="10.00">RectHelper</text>
</g>
<!-- Node2 -->
<g id="node2" class="node"><title>Node2</title>
<g id="a_node2"><a xlink:href="../../d9/d5e/classapplication_1_1_application_loop.html#a313767dcd02c47d5c97bcbc4432cadcb" target="_top" xlink:title="application.ApplicationLoop.generateRect">
<polygon fill="white" stroke="black" points="230,-29.5 230,-48.5 444,-48.5 444,-29.5 230,-29.5"/>
<text text-anchor="middle" x="337" y="-36.5" font-family="Helvetica,sans-Serif" font-size="10.00">application.ApplicationLoop.generateRect</text>
</a>
</g>
</g>
<!-- Node1&#45;&gt;Node2 -->
<g id="edge1" class="edge"><title>Node1&#45;&gt;Node2</title>
<path fill="none" stroke="midnightblue" d="M204.364,-39C212.809,-39 221.34,-39 229.783,-39"/>
<polygon fill="midnightblue" stroke="midnightblue" points="204.118,-35.5001 194.118,-39 204.118,-42.5001 204.118,-35.5001"/>
</g>
<!-- Node3 -->
<g id="node3" class="node"><title>Node3</title>
<g id="a_node3"><a xlink:href="../../d9/d5e/classapplication_1_1_application_loop.html#ae6fc4b7d381bb5b4d4ba3eb4bb69c078" target="_top" xlink:title="application.ApplicationLoop.initialize\lGridPane">
<polygon fill="white" stroke="black" points="480,-24 480,-54 668,-54 668,-24 480,-24"/>
<text text-anchor="start" x="488" y="-42" font-family="Helvetica,sans-Serif" font-size="10.00">application.ApplicationLoop.initialize</text>
<text text-anchor="middle" x="574" y="-31" font-family="Helvetica,sans-Serif" font-size="10.00">GridPane</text>
</a>
</g>
</g>
<!-- Node2&#45;&gt;Node3 -->
<g id="edge2" class="edge"><title>Node2&#45;&gt;Node3</title>
<path fill="none" stroke="midnightblue" d="M454.24,-39C462.843,-39 471.455,-39 479.891,-39"/>
<polygon fill="midnightblue" stroke="midnightblue" points="454.156,-35.5001 444.156,-39 454.156,-42.5001 454.156,-35.5001"/>
</g>
<!-- Node4 -->
<g id="node4" class="node"><title>Node4</title>
<g id="a_node4"><a xlink:href="../../d9/d5e/classapplication_1_1_application_loop.html#a903043ba2535055f46dbee6aca8b3eef" target="_top" xlink:title="application.ApplicationLoop.init">
<polygon fill="white" stroke="black" points="704,-29.5 704,-48.5 868,-48.5 868,-29.5 704,-29.5"/>
<text text-anchor="middle" x="786" y="-36.5" font-family="Helvetica,sans-Serif" font-size="10.00">application.ApplicationLoop.init</text>
</a>
</g>
</g>
<!-- Node3&#45;&gt;Node4 -->
<g id="edge3" class="edge"><title>Node3&#45;&gt;Node4</title>
<path fill="none" stroke="midnightblue" d="M678.152,-39C686.796,-39 695.456,-39 703.899,-39"/>
<polygon fill="midnightblue" stroke="midnightblue" points="678.026,-35.5001 668.026,-39 678.026,-42.5001 678.026,-35.5001"/>
</g>
<!-- Node5 -->
<g id="node5" class="node"><title>Node5</title>
<g id="a_node5"><a xlink:href="../../d9/d96/classapplication_1_1_main.html#adc868cfca1990edad66af3dcb8cf4349" target="_top" xlink:title="application.Main.playGame">
<polygon fill="white" stroke="black" points="904,-29.5 904,-48.5 1050,-48.5 1050,-29.5 904,-29.5"/>
<text text-anchor="middle" x="977" y="-36.5" font-family="Helvetica,sans-Serif" font-size="10.00">application.Main.playGame</text>
</a>
</g>
</g>
<!-- Node4&#45;&gt;Node5 -->
<g id="edge4" class="edge"><title>Node4&#45;&gt;Node5</title>
<path fill="none" stroke="midnightblue" d="M878.261,-39C886.817,-39 895.409,-39 903.755,-39"/>
<polygon fill="midnightblue" stroke="midnightblue" points="878.25,-35.5001 868.25,-39 878.25,-42.5001 878.25,-35.5001"/>
</g>
<!-- Node6 -->
<g id="node6" class="node"><title>Node6</title>
<g id="a_node6"><a xlink:href="../../d9/d96/classapplication_1_1_main.html#ada0f47786d75e28e627d2621d75eaf5a" target="_top" xlink:title="application.Main.activate\lStartButton">
<polygon fill="white" stroke="black" points="1086.5,-46 1086.5,-76 1221.5,-76 1221.5,-46 1086.5,-46"/>
<text text-anchor="start" x="1094.5" y="-64" font-family="Helvetica,sans-Serif" font-size="10.00">application.Main.activate</text>
<text text-anchor="middle" x="1154" y="-53" font-family="Helvetica,sans-Serif" font-size="10.00">StartButton</text>
</a>
</g>
</g>
<!-- Node5&#45;&gt;Node6 -->
<g id="edge5" class="edge"><title>Node5&#45;&gt;Node6</title>
<path fill="none" stroke="midnightblue" d="M1060.35,-49.3527C1069.05,-50.4465 1077.82,-51.5489 1086.31,-52.6163"/>
<polygon fill="midnightblue" stroke="midnightblue" points="1060.55,-45.85 1050.19,-48.0753 1059.67,-52.7953 1060.55,-45.85"/>
</g>
<!-- Node7 -->
<g id="node7" class="node"><title>Node7</title>
<g id="a_node7"><a xlink:href="../../d9/d96/classapplication_1_1_main.html#a64e6451d894979853890a235efe37db8" target="_top" xlink:title="application.Main.createStart\lGameButton">
<polygon fill="white" stroke="black" points="1258,-47 1258,-77 1410,-77 1410,-47 1258,-47"/>
<text text-anchor="start" x="1266" y="-65" font-family="Helvetica,sans-Serif" font-size="10.00">application.Main.createStart</text>
<text text-anchor="middle" x="1334" y="-54" font-family="Helvetica,sans-Serif" font-size="10.00">GameButton</text>
</a>
</g>
</g>
<!-- Node6&#45;&gt;Node7 -->
<g id="edge6" class="edge"><title>Node6&#45;&gt;Node7</title>
<path fill="none" stroke="midnightblue" d="M1231.65,-61.4306C1240.34,-61.4794 1249.2,-61.5292 1257.87,-61.5779"/>
<polygon fill="midnightblue" stroke="midnightblue" points="1231.55,-57.9301 1221.53,-61.3738 1231.51,-64.93 1231.55,-57.9301"/>
</g>
<!-- Node8 -->
<g id="node8" class="node"><title>Node8</title>
<g id="a_node8"><a xlink:href="../../d9/d96/classapplication_1_1_main.html#a5fee6c1b05965eca9205a99e3245a5fb" target="_top" xlink:title="application.Main.populate\lStartPageModules">
<polygon fill="white" stroke="black" points="1446.5,-48 1446.5,-78 1585.5,-78 1585.5,-48 1446.5,-48"/>
<text text-anchor="start" x="1454.5" y="-66" font-family="Helvetica,sans-Serif" font-size="10.00">application.Main.populate</text>
<text text-anchor="middle" x="1516" y="-55" font-family="Helvetica,sans-Serif" font-size="10.00">StartPageModules</text>
</a>
</g>
</g>
<!-- Node7&#45;&gt;Node8 -->
<g id="edge7" class="edge"><title>Node7&#45;&gt;Node8</title>
<path fill="none" stroke="midnightblue" d="M1420.27,-62.4737C1429.04,-62.5224 1437.86,-62.5715 1446.41,-62.619"/>
<polygon fill="midnightblue" stroke="midnightblue" points="1420.05,-58.9726 1410.03,-62.4168 1420.01,-65.9724 1420.05,-58.9726"/>
</g>
<!-- Node9 -->
<g id="node9" class="node"><title>Node9</title>
<g id="a_node9"><a xlink:href="../../d9/d96/classapplication_1_1_main.html#a4e5ad4e3de8bbd8654120180a94e870d" target="_top" xlink:title="application.Main.start">
<polygon fill="white" stroke="black" points="1622.5,-53.5 1622.5,-72.5 1741.5,-72.5 1741.5,-53.5 1622.5,-53.5"/>
<text text-anchor="middle" x="1682" y="-60.5" font-family="Helvetica,sans-Serif" font-size="10.00">application.Main.start</text>
</a>
</g>
</g>
<!-- Node8&#45;&gt;Node9 -->
<g id="edge8" class="edge"><title>Node8&#45;&gt;Node9</title>
<path fill="none" stroke="midnightblue" d="M1595.68,-63C1604.64,-63 1613.66,-63 1622.3,-63"/>
<polygon fill="midnightblue" stroke="midnightblue" points="1595.6,-59.5001 1585.6,-63 1595.6,-66.5001 1595.6,-59.5001"/>
</g>
<!-- Node10 -->
<g id="node10" class="node"><title>Node10</title>
<g id="a_node10"><a xlink:href="../../d9/d96/classapplication_1_1_main.html#ad652e3294ffb6519b18d784d5831c76a" target="_top" xlink:title="application.Main.activate\lReturntoStart">
<polygon fill="white" stroke="black" points="1778.5,-48 1778.5,-78 1913.5,-78 1913.5,-48 1778.5,-48"/>
<text text-anchor="start" x="1786.5" y="-66" font-family="Helvetica,sans-Serif" font-size="10.00">application.Main.activate</text>
<text text-anchor="middle" x="1846" y="-55" font-family="Helvetica,sans-Serif" font-size="10.00">ReturntoStart</text>
</a>
</g>
</g>
<!-- Node9&#45;&gt;Node10 -->
<g id="edge9" class="edge"><title>Node9&#45;&gt;Node10</title>
<path fill="none" stroke="midnightblue" d="M1752.08,-63C1760.81,-63 1769.73,-63 1778.42,-63"/>
<polygon fill="midnightblue" stroke="midnightblue" points="1751.94,-59.5001 1741.94,-63 1751.94,-66.5001 1751.94,-59.5001"/>
</g>
<!-- Node11 -->
<g id="node11" class="node"><title>Node11</title>
<g id="a_node11"><a xlink:href="../../d9/d96/classapplication_1_1_main.html#a4c5877fafc53c4fae488f1f30faf294b" target="_top" xlink:title="application.Main.createReturn\lToStartButton">
<polygon fill="white" stroke="black" points="1950,-48 1950,-78 2108,-78 2108,-48 1950,-48"/>
<text text-anchor="start" x="1958" y="-66" font-family="Helvetica,sans-Serif" font-size="10.00">application.Main.createReturn</text>
<text text-anchor="middle" x="2029" y="-55" font-family="Helvetica,sans-Serif" font-size="10.00">ToStartButton</text>
</a>
</g>
</g>
<!-- Node10&#45;&gt;Node11 -->
<g id="edge10" class="edge"><title>Node10&#45;&gt;Node11</title>
<path fill="none" stroke="midnightblue" d="M1923.7,-63C1932.36,-63 1941.19,-63 1949.87,-63"/>
<polygon fill="midnightblue" stroke="midnightblue" points="1923.63,-59.5001 1913.63,-63 1923.63,-66.5001 1923.63,-59.5001"/>
</g>
<!-- Node12 -->
<g id="node12" class="node"><title>Node12</title>
<g id="a_node12"><a xlink:href="../../d9/d96/classapplication_1_1_main.html#a2ddf30fb8360296e1ad3459fe6f920fb" target="_top" xlink:title="application.Main.populate\lGridPageModules">
<polygon fill="white" stroke="black" points="2144.5,-0 2144.5,-30 2283.5,-30 2283.5,-0 2144.5,-0"/>
<text text-anchor="start" x="2152.5" y="-18" font-family="Helvetica,sans-Serif" font-size="10.00">application.Main.populate</text>
<text text-anchor="middle" x="2214" y="-7" font-family="Helvetica,sans-Serif" font-size="10.00">GridPageModules</text>
</a>
</g>
</g>
<!-- Node11&#45;&gt;Node12 -->
<g id="edge11" class="edge"><title>Node11&#45;&gt;Node12</title>
<path fill="none" stroke="midnightblue" d="M2097.29,-45.3505C2116.5,-40.3106 2137.25,-34.868 2155.8,-30.0024"/>
<polygon fill="midnightblue" stroke="midnightblue" points="2096.19,-42.0215 2087.4,-47.9442 2097.96,-48.7925 2096.19,-42.0215"/>
</g>
<!-- Node13 -->
<g id="node13" class="node"><title>Node13</title>
<g id="a_node13"><a xlink:href="../../d9/d96/classapplication_1_1_main.html#abcabe1a32eb7b5054cf34ca0def07531" target="_top" xlink:title="application.Main.populate\lErrorPageModules">
<polygon fill="white" stroke="black" points="2144.5,-49 2144.5,-79 2283.5,-79 2283.5,-49 2144.5,-49"/>
<text text-anchor="start" x="2152.5" y="-67" font-family="Helvetica,sans-Serif" font-size="10.00">application.Main.populate</text>
<text text-anchor="middle" x="2214" y="-56" font-family="Helvetica,sans-Serif" font-size="10.00">ErrorPageModules</text>
</a>
</g>
</g>
<!-- Node11&#45;&gt;Node13 -->
<g id="edge13" class="edge"><title>Node11&#45;&gt;Node13</title>
<path fill="none" stroke="midnightblue" d="M2118.36,-63.4828C2127.1,-63.5306 2135.87,-63.5785 2144.37,-63.6249"/>
<polygon fill="midnightblue" stroke="midnightblue" points="2118.16,-59.9818 2108.14,-63.427 2118.12,-66.9817 2118.16,-59.9818"/>
</g>
<!-- Node12&#45;&gt;Node5 -->
<g id="edge12" class="edge"><title>Node12&#45;&gt;Node5</title>
<path fill="none" stroke="midnightblue" d="M2134.01,-15.6807C2059.88,-16.2604 1945.92,-17 1847,-17 1333,-17 1333,-17 1333,-17 1234.97,-17 1122.01,-25.46 1050.33,-31.8876"/>
<polygon fill="midnightblue" stroke="midnightblue" points="2134.22,-19.1792 2144.2,-15.6001 2134.17,-12.1794 2134.22,-19.1792"/>
</g>
<!-- Node14 -->
<g id="node14" class="node"><title>Node14</title>
<g id="a_node14"><a xlink:href="../../d9/d96/classapplication_1_1_main.html#a81e70f73d65beae34c459628791cc5d4" target="_top" xlink:title="application.Main.activate\lErrorPage">
<polygon fill="white" stroke="black" points="2320.5,-49 2320.5,-79 2455.5,-79 2455.5,-49 2320.5,-49"/>
<text text-anchor="start" x="2328.5" y="-67" font-family="Helvetica,sans-Serif" font-size="10.00">application.Main.activate</text>
<text text-anchor="middle" x="2388" y="-56" font-family="Helvetica,sans-Serif" font-size="10.00">ErrorPage</text>
</a>
</g>
</g>
<!-- Node13&#45;&gt;Node14 -->
<g id="edge14" class="edge"><title>Node13&#45;&gt;Node14</title>
<path fill="none" stroke="midnightblue" d="M2294.15,-64C2302.88,-64 2311.7,-64 2320.25,-64"/>
<polygon fill="midnightblue" stroke="midnightblue" points="2293.97,-60.5001 2283.97,-64 2293.97,-67.5001 2293.97,-60.5001"/>
</g>
<!-- Node15 -->
<g id="node15" class="node"><title>Node15</title>
<g id="a_node15"><a xlink:href="../../d9/d96/classapplication_1_1_main.html#aef0593911aa3cbc594ac75bbb8d6a2b0" target="_top" xlink:title="application.Main.activate\lImportXMLButton">
<polygon fill="white" stroke="black" points="2492.5,-49 2492.5,-79 2627.5,-79 2627.5,-49 2492.5,-49"/>
<text text-anchor="start" x="2500.5" y="-67" font-family="Helvetica,sans-Serif" font-size="10.00">application.Main.activate</text>
<text text-anchor="middle" x="2560" y="-56" font-family="Helvetica,sans-Serif" font-size="10.00">ImportXMLButton</text>
</a>
</g>
</g>
<!-- Node14&#45;&gt;Node15 -->
<g id="edge15" class="edge"><title>Node14&#45;&gt;Node15</title>
<path fill="none" stroke="midnightblue" d="M2465.72,-64C2474.65,-64 2483.71,-64 2492.49,-64"/>
<polygon fill="midnightblue" stroke="midnightblue" points="2465.7,-60.5001 2455.7,-64 2465.7,-67.5001 2465.7,-60.5001"/>
</g>
<!-- Node16 -->
<g id="node16" class="node"><title>Node16</title>
<g id="a_node16"><a xlink:href="../../d9/d96/classapplication_1_1_main.html#a18021492af2e457d39edcbd16dc0d3c8" target="_top" xlink:title="application.Main.createImport\lXMLButton">
<polygon fill="white" stroke="black" points="2664.5,-71 2664.5,-101 2823.5,-101 2823.5,-71 2664.5,-71"/>
<text text-anchor="start" x="2672.5" y="-89" font-family="Helvetica,sans-Serif" font-size="10.00">application.Main.createImport</text>
<text text-anchor="middle" x="2744" y="-78" font-family="Helvetica,sans-Serif" font-size="10.00">XMLButton</text>
</a>
</g>
</g>
<!-- Node15&#45;&gt;Node16 -->
<g id="edge16" class="edge"><title>Node15&#45;&gt;Node16</title>
<path fill="none" stroke="midnightblue" d="M2637.87,-73.2923C2646.59,-74.3465 2655.49,-75.4221 2664.24,-76.4792"/>
<polygon fill="midnightblue" stroke="midnightblue" points="2638.08,-69.7925 2627.74,-72.0671 2637.24,-76.7419 2638.08,-69.7925"/>
</g>
<!-- Node16&#45;&gt;Node8 -->
<g id="edge17" class="edge"><title>Node16&#45;&gt;Node8</title>
<path fill="none" stroke="midnightblue" d="M2654.03,-94.5964C2582.5,-100.768 2479.38,-108 2389,-108 1845,-108 1845,-108 1845,-108 1754.76,-108 1651.84,-91.0749 1585.73,-77.9843"/>
<polygon fill="midnightblue" stroke="midnightblue" points="2654.69,-98.0519 2664.35,-93.6945 2654.08,-91.0785 2654.69,-98.0519"/>
</g>
</g>
</svg>
