<?xml version="1.0" encoding="UTF-8" standalone="no"?>
<!DOCTYPE svg PUBLIC "-//W3C//DTD SVG 1.1//EN"
 "http://www.w3.org/Graphics/SVG/1.1/DTD/svg11.dtd">
<!-- Generated by graphviz version 2.36.0 (20140111.2315)
 -->
<!-- Title: application.ApplicationLoop.countNumberOfCertainColorSpaces Pages: 1 -->
<svg width="2896pt" height="96pt"
 viewBox="0.00 0.00 2896.00 96.00" xmlns="http://www.w3.org/2000/svg" xmlns:xlink="http://www.w3.org/1999/xlink">
<g id="graph0" class="graph" transform="scale(1 1) rotate(0) translate(4 92)">
<title>application.ApplicationLoop.countNumberOfCertainColorSpaces</title>
<polygon fill="white" stroke="none" points="-4,4 -4,-92 2892,-92 2892,4 -4,4"/>
<!-- Node1 -->
<g id="node1" class="node"><title>Node1</title>
<polygon fill="#bfbfbf" stroke="black" points="0.5,-5 0.5,-35 177.5,-35 177.5,-5 0.5,-5"/>
<text text-anchor="start" x="8.5" y="-23" font-family="Helvetica,sans-Serif" font-size="10.00">application.ApplicationLoop.count</text>
<text text-anchor="middle" x="89" y="-12" font-family="Helvetica,sans-Serif" font-size="10.00">NumberOfCertainColorSpaces</text>
</g>
<!-- Node2 -->
<g id="node2" class="node"><title>Node2</title>
<g id="a_node2"><a xlink:href="../../d9/d5e/classapplication_1_1_application_loop.html#a5750a9e01dbb29cdf3fa5aeec69b68d3" target="_top" xlink:title="application.ApplicationLoop.update\lGameLoop">
<polygon fill="white" stroke="black" points="214,-5 214,-35 398,-35 398,-5 214,-5"/>
<text text-anchor="start" x="222" y="-23" font-family="Helvetica,sans-Serif" font-size="10.00">application.ApplicationLoop.update</text>
<text text-anchor="middle" x="306" y="-12" font-family="Helvetica,sans-Serif" font-size="10.00">GameLoop</text>
</a>
</g>
</g>
<!-- Node1&#45;&gt;Node2 -->
<g id="edge1" class="edge"><title>Node1&#45;&gt;Node2</title>
<path fill="none" stroke="midnightblue" d="M187.817,-20C196.429,-20 205.125,-20 213.681,-20"/>
<polygon fill="midnightblue" stroke="midnightblue" points="187.759,-16.5001 177.759,-20 187.759,-23.5001 187.759,-16.5001"/>
</g>
<!-- Node3 -->
<g id="node3" class="node"><title>Node3</title>
<g id="a_node3"><a xlink:href="../../d9/d96/classapplication_1_1_main.html#a54922ba4610913cb11270dc424da1be6" target="_top" xlink:title="application.Main.activate\lStepThroughFrame">
<polygon fill="white" stroke="black" points="434.5,-5 434.5,-35 569.5,-35 569.5,-5 434.5,-5"/>
<text text-anchor="start" x="442.5" y="-23" font-family="Helvetica,sans-Serif" font-size="10.00">application.Main.activate</text>
<text text-anchor="middle" x="502" y="-12" font-family="Helvetica,sans-Serif" font-size="10.00">StepThroughFrame</text>
</a>
</g>
</g>
<!-- Node2&#45;&gt;Node3 -->
<g id="edge2" class="edge"><title>Node2&#45;&gt;Node3</title>
<path fill="none" stroke="midnightblue" d="M408.062,-20C416.939,-20 425.771,-20 434.26,-20"/>
<polygon fill="midnightblue" stroke="midnightblue" points="408.036,-16.5001 398.036,-20 408.036,-23.5001 408.036,-16.5001"/>
</g>
<!-- Node4 -->
<g id="node4" class="node"><title>Node4</title>
<g id="a_node4"><a xlink:href="../../d9/d96/classapplication_1_1_main.html#a17e3960f589de0ae82b734128978d480" target="_top" xlink:title="application.Main.createStep\lThroughButton">
<polygon fill="white" stroke="black" points="606,-5 606,-35 756,-35 756,-5 606,-5"/>
<text text-anchor="start" x="614" y="-23" font-family="Helvetica,sans-Serif" font-size="10.00">application.Main.createStep</text>
<text text-anchor="middle" x="681" y="-12" font-family="Helvetica,sans-Serif" font-size="10.00">ThroughButton</text>
</a>
</g>
</g>
<!-- Node3&#45;&gt;Node4 -->
<g id="edge3" class="edge"><title>Node3&#45;&gt;Node4</title>
<path fill="none" stroke="midnightblue" d="M579.78,-20C588.476,-20 597.325,-20 605.984,-20"/>
<polygon fill="midnightblue" stroke="midnightblue" points="579.664,-16.5001 569.664,-20 579.664,-23.5001 579.664,-16.5001"/>
</g>
<!-- Node5 -->
<g id="node5" class="node"><title>Node5</title>
<g id="a_node5"><a xlink:href="../../d9/d96/classapplication_1_1_main.html#a2ddf30fb8360296e1ad3459fe6f920fb" target="_top" xlink:title="application.Main.populate\lGridPageModules">
<polygon fill="white" stroke="black" points="792.5,-5 792.5,-35 931.5,-35 931.5,-5 792.5,-5"/>
<text text-anchor="start" x="800.5" y="-23" font-family="Helvetica,sans-Serif" font-size="10.00">application.Main.populate</text>
<text text-anchor="middle" x="862" y="-12" font-family="Helvetica,sans-Serif" font-size="10.00">GridPageModules</text>
</a>
</g>
</g>
<!-- Node4&#45;&gt;Node5 -->
<g id="edge4" class="edge"><title>Node4&#45;&gt;Node5</title>
<path fill="none" stroke="midnightblue" d="M766.313,-20C775.057,-20 783.868,-20 792.409,-20"/>
<polygon fill="midnightblue" stroke="midnightblue" points="766.098,-16.5001 756.098,-20 766.098,-23.5001 766.098,-16.5001"/>
</g>
<!-- Node6 -->
<g id="node6" class="node"><title>Node6</title>
<g id="a_node6"><a xlink:href="../../d9/d96/classapplication_1_1_main.html#adc868cfca1990edad66af3dcb8cf4349" target="_top" xlink:title="application.Main.playGame">
<polygon fill="white" stroke="black" points="968,-31.5 968,-50.5 1114,-50.5 1114,-31.5 968,-31.5"/>
<text text-anchor="middle" x="1041" y="-38.5" font-family="Helvetica,sans-Serif" font-size="10.00">application.Main.playGame</text>
</a>
</g>
</g>
<!-- Node5&#45;&gt;Node6 -->
<g id="edge5" class="edge"><title>Node5&#45;&gt;Node6</title>
<path fill="none" stroke="midnightblue" d="M941.787,-29.3477C950.459,-30.3765 959.256,-31.4202 967.841,-32.4387"/>
<polygon fill="midnightblue" stroke="midnightblue" points="942.029,-25.8518 931.686,-28.1492 941.204,-32.8031 942.029,-25.8518"/>
</g>
<!-- Node7 -->
<g id="node7" class="node"><title>Node7</title>
<g id="a_node7"><a xlink:href="../../d9/d96/classapplication_1_1_main.html#ada0f47786d75e28e627d2621d75eaf5a" target="_top" xlink:title="application.Main.activate\lStartButton">
<polygon fill="white" stroke="black" points="1150.5,-29 1150.5,-59 1285.5,-59 1285.5,-29 1150.5,-29"/>
<text text-anchor="start" x="1158.5" y="-47" font-family="Helvetica,sans-Serif" font-size="10.00">application.Main.activate</text>
<text text-anchor="middle" x="1218" y="-36" font-family="Helvetica,sans-Serif" font-size="10.00">StartButton</text>
</a>
</g>
</g>
<!-- Node6&#45;&gt;Node7 -->
<g id="edge6" class="edge"><title>Node6&#45;&gt;Node7</title>
<path fill="none" stroke="midnightblue" d="M1124.35,-42.4117C1133.05,-42.5609 1141.82,-42.7112 1150.31,-42.8568"/>
<polygon fill="midnightblue" stroke="midnightblue" points="1124.25,-38.9095 1114.19,-42.2375 1124.13,-45.9085 1124.25,-38.9095"/>
</g>
<!-- Node8 -->
<g id="node8" class="node"><title>Node8</title>
<g id="a_node8"><a xlink:href="../../d9/d96/classapplication_1_1_main.html#a64e6451d894979853890a235efe37db8" target="_top" xlink:title="application.Main.createStart\lGameButton">
<polygon fill="white" stroke="black" points="1322,-29 1322,-59 1474,-59 1474,-29 1322,-29"/>
<text text-anchor="start" x="1330" y="-47" font-family="Helvetica,sans-Serif" font-size="10.00">application.Main.createStart</text>
<text text-anchor="middle" x="1398" y="-36" font-family="Helvetica,sans-Serif" font-size="10.00">GameButton</text>
</a>
</g>
</g>
<!-- Node7&#45;&gt;Node8 -->
<g id="edge7" class="edge"><title>Node7&#45;&gt;Node8</title>
<path fill="none" stroke="midnightblue" d="M1295.65,-44C1304.34,-44 1313.2,-44 1321.87,-44"/>
<polygon fill="midnightblue" stroke="midnightblue" points="1295.53,-40.5001 1285.53,-44 1295.53,-47.5001 1295.53,-40.5001"/>
</g>
<!-- Node9 -->
<g id="node9" class="node"><title>Node9</title>
<g id="a_node9"><a xlink:href="../../d9/d96/classapplication_1_1_main.html#a5fee6c1b05965eca9205a99e3245a5fb" target="_top" xlink:title="application.Main.populate\lStartPageModules">
<polygon fill="white" stroke="black" points="1510.5,-29 1510.5,-59 1649.5,-59 1649.5,-29 1510.5,-29"/>
<text text-anchor="start" x="1518.5" y="-47" font-family="Helvetica,sans-Serif" font-size="10.00">application.Main.populate</text>
<text text-anchor="middle" x="1580" y="-36" font-family="Helvetica,sans-Serif" font-size="10.00">StartPageModules</text>
</a>
</g>
</g>
<!-- Node8&#45;&gt;Node9 -->
<g id="edge8" class="edge"><title>Node8&#45;&gt;Node9</title>
<path fill="none" stroke="midnightblue" d="M1484.27,-44C1493.04,-44 1501.86,-44 1510.41,-44"/>
<polygon fill="midnightblue" stroke="midnightblue" points="1484.03,-40.5001 1474.03,-44 1484.03,-47.5001 1484.03,-40.5001"/>
</g>
<!-- Node10 -->
<g id="node10" class="node"><title>Node10</title>
<g id="a_node10"><a xlink:href="../../d9/d96/classapplication_1_1_main.html#a4e5ad4e3de8bbd8654120180a94e870d" target="_top" xlink:title="application.Main.start">
<polygon fill="white" stroke="black" points="1686.5,-34.5 1686.5,-53.5 1805.5,-53.5 1805.5,-34.5 1686.5,-34.5"/>
<text text-anchor="middle" x="1746" y="-41.5" font-family="Helvetica,sans-Serif" font-size="10.00">application.Main.start</text>
</a>
</g>
</g>
<!-- Node9&#45;&gt;Node10 -->
<g id="edge9" class="edge"><title>Node9&#45;&gt;Node10</title>
<path fill="none" stroke="midnightblue" d="M1659.68,-44C1668.64,-44 1677.66,-44 1686.3,-44"/>
<polygon fill="midnightblue" stroke="midnightblue" points="1659.6,-40.5001 1649.6,-44 1659.6,-47.5001 1659.6,-40.5001"/>
</g>
<!-- Node11 -->
<g id="node11" class="node"><title>Node11</title>
<g id="a_node11"><a xlink:href="../../d9/d96/classapplication_1_1_main.html#ad652e3294ffb6519b18d784d5831c76a" target="_top" xlink:title="application.Main.activate\lReturntoStart">
<polygon fill="white" stroke="black" points="1842.5,-29 1842.5,-59 1977.5,-59 1977.5,-29 1842.5,-29"/>
<text text-anchor="start" x="1850.5" y="-47" font-family="Helvetica,sans-Serif" font-size="10.00">application.Main.activate</text>
<text text-anchor="middle" x="1910" y="-36" font-family="Helvetica,sans-Serif" font-size="10.00">ReturntoStart</text>
</a>
</g>
</g>
<!-- Node10&#45;&gt;Node11 -->
<g id="edge10" class="edge"><title>Node10&#45;&gt;Node11</title>
<path fill="none" stroke="midnightblue" d="M1816.08,-44C1824.81,-44 1833.73,-44 1842.42,-44"/>
<polygon fill="midnightblue" stroke="midnightblue" points="1815.94,-40.5001 1805.94,-44 1815.94,-47.5001 1815.94,-40.5001"/>
</g>
<!-- Node12 -->
<g id="node12" class="node"><title>Node12</title>
<g id="a_node12"><a xlink:href="../../d9/d96/classapplication_1_1_main.html#a4c5877fafc53c4fae488f1f30faf294b" target="_top" xlink:title="application.Main.createReturn\lToStartButton">
<polygon fill="white" stroke="black" points="2014,-29 2014,-59 2172,-59 2172,-29 2014,-29"/>
<text text-anchor="start" x="2022" y="-47" font-family="Helvetica,sans-Serif" font-size="10.00">application.Main.createReturn</text>
<text text-anchor="middle" x="2093" y="-36" font-family="Helvetica,sans-Serif" font-size="10.00">ToStartButton</text>
</a>
</g>
</g>
<!-- Node11&#45;&gt;Node12 -->
<g id="edge11" class="edge"><title>Node11&#45;&gt;Node12</title>
<path fill="none" stroke="midnightblue" d="M1987.7,-44C1996.36,-44 2005.19,-44 2013.87,-44"/>
<polygon fill="midnightblue" stroke="midnightblue" points="1987.63,-40.5001 1977.63,-44 1987.63,-47.5001 1987.63,-40.5001"/>
</g>
<!-- Node12&#45;&gt;Node5 -->
<g id="edge12" class="edge"><title>Node12&#45;&gt;Node5</title>
<path fill="none" stroke="midnightblue" d="M2020.64,-26.8172C2006.57,-23.8641 1991.87,-21.0812 1978,-19 1876.13,-3.71043 1850.01,-0 1747,-0 1217,-0 1217,-0 1217,-0 1117.74,-0 1003.07,-7.93505 931.792,-13.8088"/>
<polygon fill="midnightblue" stroke="midnightblue" points="2020.24,-30.3112 2030.75,-28.99 2021.71,-23.4673 2020.24,-30.3112"/>
</g>
<!-- Node13 -->
<g id="node13" class="node"><title>Node13</title>
<g id="a_node13"><a xlink:href="../../d9/d96/classapplication_1_1_main.html#abcabe1a32eb7b5054cf34ca0def07531" target="_top" xlink:title="application.Main.populate\lErrorPageModules">
<polygon fill="white" stroke="black" points="2208.5,-29 2208.5,-59 2347.5,-59 2347.5,-29 2208.5,-29"/>
<text text-anchor="start" x="2216.5" y="-47" font-family="Helvetica,sans-Serif" font-size="10.00">application.Main.populate</text>
<text text-anchor="middle" x="2278" y="-36" font-family="Helvetica,sans-Serif" font-size="10.00">ErrorPageModules</text>
</a>
</g>
</g>
<!-- Node12&#45;&gt;Node13 -->
<g id="edge13" class="edge"><title>Node12&#45;&gt;Node13</title>
<path fill="none" stroke="midnightblue" d="M2182.36,-44C2191.1,-44 2199.87,-44 2208.37,-44"/>
<polygon fill="midnightblue" stroke="midnightblue" points="2182.14,-40.5001 2172.14,-44 2182.14,-47.5001 2182.14,-40.5001"/>
</g>
<!-- Node14 -->
<g id="node14" class="node"><title>Node14</title>
<g id="a_node14"><a xlink:href="../../d9/d96/classapplication_1_1_main.html#a81e70f73d65beae34c459628791cc5d4" target="_top" xlink:title="application.Main.activate\lErrorPage">
<polygon fill="white" stroke="black" points="2384.5,-29 2384.5,-59 2519.5,-59 2519.5,-29 2384.5,-29"/>
<text text-anchor="start" x="2392.5" y="-47" font-family="Helvetica,sans-Serif" font-size="10.00">application.Main.activate</text>
<text text-anchor="middle" x="2452" y="-36" font-family="Helvetica,sans-Serif" font-size="10.00">ErrorPage</text>
</a>
</g>
</g>
<!-- Node13&#45;&gt;Node14 -->
<g id="edge14" class="edge"><title>Node13&#45;&gt;Node14</title>
<path fill="none" stroke="midnightblue" d="M2358.15,-44C2366.88,-44 2375.7,-44 2384.25,-44"/>
<polygon fill="midnightblue" stroke="midnightblue" points="2357.97,-40.5001 2347.97,-44 2357.97,-47.5001 2357.97,-40.5001"/>
</g>
<!-- Node15 -->
<g id="node15" class="node"><title>Node15</title>
<g id="a_node15"><a xlink:href="../../d9/d96/classapplication_1_1_main.html#aef0593911aa3cbc594ac75bbb8d6a2b0" target="_top" xlink:title="application.Main.activate\lImportXMLButton">
<polygon fill="white" stroke="black" points="2556.5,-29 2556.5,-59 2691.5,-59 2691.5,-29 2556.5,-29"/>
<text text-anchor="start" x="2564.5" y="-47" font-family="Helvetica,sans-Serif" font-size="10.00">application.Main.activate</text>
<text text-anchor="middle" x="2624" y="-36" font-family="Helvetica,sans-Serif" font-size="10.00">ImportXMLButton</text>
</a>
</g>
</g>
<!-- Node14&#45;&gt;Node15 -->
<g id="edge15" class="edge"><title>Node14&#45;&gt;Node15</title>
<path fill="none" stroke="midnightblue" d="M2529.72,-44C2538.65,-44 2547.71,-44 2556.49,-44"/>
<polygon fill="midnightblue" stroke="midnightblue" points="2529.7,-40.5001 2519.7,-44 2529.7,-47.5001 2529.7,-40.5001"/>
</g>
<!-- Node16 -->
<g id="node16" class="node"><title>Node16</title>
<g id="a_node16"><a xlink:href="../../d9/d96/classapplication_1_1_main.html#a18021492af2e457d39edcbd16dc0d3c8" target="_top" xlink:title="application.Main.createImport\lXMLButton">
<polygon fill="white" stroke="black" points="2728.5,-51 2728.5,-81 2887.5,-81 2887.5,-51 2728.5,-51"/>
<text text-anchor="start" x="2736.5" y="-69" font-family="Helvetica,sans-Serif" font-size="10.00">application.Main.createImport</text>
<text text-anchor="middle" x="2808" y="-58" font-family="Helvetica,sans-Serif" font-size="10.00">XMLButton</text>
</a>
</g>
</g>
<!-- Node15&#45;&gt;Node16 -->
<g id="edge16" class="edge"><title>Node15&#45;&gt;Node16</title>
<path fill="none" stroke="midnightblue" d="M2701.87,-53.2923C2710.59,-54.3465 2719.49,-55.4221 2728.24,-56.4792"/>
<polygon fill="midnightblue" stroke="midnightblue" points="2702.08,-49.7925 2691.74,-52.0671 2701.24,-56.7419 2702.08,-49.7925"/>
</g>
<!-- Node16&#45;&gt;Node9 -->
<g id="edge17" class="edge"><title>Node16&#45;&gt;Node9</title>
<path fill="none" stroke="midnightblue" d="M2718.03,-74.5964C2646.5,-80.7676 2543.38,-88 2453,-88 1909,-88 1909,-88 1909,-88 1818.8,-88 1715.87,-71.451 1649.75,-58.6514"/>
<polygon fill="midnightblue" stroke="midnightblue" points="2718.69,-78.0519 2728.35,-73.6945 2718.08,-71.0785 2718.69,-78.0519"/>
</g>
</g>
</svg>
