<?xml version="1.0" encoding="UTF-8" standalone="no"?>
<!DOCTYPE svg PUBLIC "-//W3C//DTD SVG 1.1//EN"
 "http://www.w3.org/Graphics/SVG/1.1/DTD/svg11.dtd">
<!-- Generated by graphviz version 2.36.0 (20140111.2315)
 -->
<!-- Title: application.ApplicationLoop.start Pages: 1 -->
<!--zoomable 182 -->
<svg id="main" version="1.1" xmlns="http://www.w3.org/2000/svg" xmlns:xlink="http://www.w3.org/1999/xlink" xml:space="preserve" onload="init(evt)">
<style type="text/css"><![CDATA[
.edge:hover path { stroke: red; }
.edge:hover polygon { stroke: red; fill: red; }
]]></style>
<script type="text/javascript"><![CDATA[
var edges = document.getElementsByTagName('g');
if (edges && edges.length) {
  for (var i=0;i<edges.length;i++) {
    if (edges[i].id.substr(0,4)=='edge') {
      edges[i].setAttribute('class','edge');
    }
  }
}
]]></script>
        <defs>
                <circle id="rim" cx="0" cy="0" r="7"/>
                <circle id="rim2" cx="0" cy="0" r="3.5"/>
                <g id="zoomPlus">
                        <use xlink:href="#rim" fill="#404040">
                                <set attributeName="fill" to="#808080" begin="zoomplus.mouseover" end="zoomplus.mouseout"/>
                        </use>
                        <path d="M-4,0h8M0,-4v8" fill="none" stroke="white" stroke-width="1.5" pointer-events="none"/>
                </g>
                <g id="zoomMin">
                        <use xlink:href="#rim" fill="#404040">
                                <set attributeName="fill" to="#808080" begin="zoomminus.mouseover" end="zoomminus.mouseout"/>
                        </use>
                        <path d="M-4,0h8" fill="none" stroke="white" stroke-width="1.5" pointer-events="none"/>
                </g>
                <g id="dirArrow">
                        <path fill="none" stroke="white" stroke-width="1.5" d="M0,-3.0v7 M-2.5,-0.5L0,-3.0L2.5,-0.5"/>
                </g>
               <g id="resetDef">
                       <use xlink:href="#rim2" fill="#404040">
                               <set attributeName="fill" to="#808080" begin="reset.mouseover" end="reset.mouseout"/>
                       </use>
               </g>
        </defs>

<script type="text/javascript">
var viewWidth = 2364;
var viewHeight = 182;
var sectionId = 'dynsection-19';
</script>
<script xlink:href="../../svgpan.js"/>
<svg id="graph" class="graph">
<g id="viewport">
<title>application.ApplicationLoop.start</title>
<polygon fill="white" stroke="none" points="-4,4 -4,-178 2360,-178 2360,4 -4,4"/>
<!-- Node1 -->
<g id="node1" class="node"><title>Node1</title>
<polygon fill="#bfbfbf" stroke="black" points="0.5,-57.5 0.5,-76.5 173.5,-76.5 173.5,-57.5 0.5,-57.5"/>
<text text-anchor="middle" x="87" y="-64.5" font-family="Helvetica,sans-Serif" font-size="10.00">application.ApplicationLoop.start</text>
</g>
<!-- Node2 -->
<g id="node2" class="node"><title>Node2</title>
<g id="a_node2"><a xlink:href="../../d9/d96/classapplication_1_1_main.html#a6c520e9c63fdccaf896d7a635e3f84e8" target="_top" xlink:title="application.Main.runGameLoop">
<polygon fill="white" stroke="black" points="210.5,-57.5 210.5,-76.5 375.5,-76.5 375.5,-57.5 210.5,-57.5"/>
<text text-anchor="middle" x="293" y="-64.5" font-family="Helvetica,sans-Serif" font-size="10.00">application.Main.runGameLoop</text>
</a>
</g>
</g>
<!-- Node1&#45;&gt;Node2 -->
<g id="edge1" class="edge"><title>Node1&#45;&gt;Node2</title>
<path fill="none" stroke="midnightblue" d="M183.899,-67C192.686,-67 201.533,-67 210.178,-67"/>
<polygon fill="midnightblue" stroke="midnightblue" points="183.628,-63.5001 173.628,-67 183.628,-70.5001 183.628,-63.5001"/>
</g>
<!-- Node3 -->
<g id="node3" class="node"><title>Node3</title>
<g id="a_node3"><a xlink:href="../../d9/d96/classapplication_1_1_main.html#adc868cfca1990edad66af3dcb8cf4349" target="_top" xlink:title="application.Main.playGame">
<polygon fill="white" stroke="black" points="412,-79.5 412,-98.5 558,-98.5 558,-79.5 412,-79.5"/>
<text text-anchor="middle" x="485" y="-86.5" font-family="Helvetica,sans-Serif" font-size="10.00">application.Main.playGame</text>
</a>
</g>
</g>
<!-- Node2&#45;&gt;Node3 -->
<g id="edge2" class="edge"><title>Node2&#45;&gt;Node3</title>
<path fill="none" stroke="midnightblue" d="M385.63,-77.6098C394.472,-78.6336 403.353,-79.6619 411.966,-80.6592"/>
<polygon fill="midnightblue" stroke="midnightblue" points="386.016,-74.1312 375.68,-76.4577 385.211,-81.0847 386.016,-74.1312"/>
</g>
<!-- Node15 -->
<g id="node15" class="node"><title>Node15</title>
<g id="a_node15"><a xlink:href="../../d9/d96/classapplication_1_1_main.html#a42869215e52dd2b2709898935eaa713f" target="_top" xlink:title="application.Main.setSlider\lEventListener">
<polygon fill="white" stroke="black" points="415.5,-30 415.5,-60 554.5,-60 554.5,-30 415.5,-30"/>
<text text-anchor="start" x="423.5" y="-48" font-family="Helvetica,sans-Serif" font-size="10.00">application.Main.setSlider</text>
<text text-anchor="middle" x="485" y="-37" font-family="Helvetica,sans-Serif" font-size="10.00">EventListener</text>
</a>
</g>
</g>
<!-- Node2&#45;&gt;Node15 -->
<g id="edge16" class="edge"><title>Node2&#45;&gt;Node15</title>
<path fill="none" stroke="midnightblue" d="M385.922,-56.3564C395.783,-55.2146 405.689,-54.0676 415.213,-52.9649"/>
<polygon fill="midnightblue" stroke="midnightblue" points="385.211,-52.9153 375.68,-57.5423 386.016,-59.8688 385.211,-52.9153"/>
</g>
<!-- Node4 -->
<g id="node4" class="node"><title>Node4</title>
<g id="a_node4"><a xlink:href="../../d9/d96/classapplication_1_1_main.html#ada0f47786d75e28e627d2621d75eaf5a" target="_top" xlink:title="application.Main.activate\lStartButton">
<polygon fill="white" stroke="black" points="604.5,-115 604.5,-145 739.5,-145 739.5,-115 604.5,-115"/>
<text text-anchor="start" x="612.5" y="-133" font-family="Helvetica,sans-Serif" font-size="10.00">application.Main.activate</text>
<text text-anchor="middle" x="672" y="-122" font-family="Helvetica,sans-Serif" font-size="10.00">StartButton</text>
</a>
</g>
</g>
<!-- Node3&#45;&gt;Node4 -->
<g id="edge3" class="edge"><title>Node3&#45;&gt;Node4</title>
<path fill="none" stroke="midnightblue" d="M538.948,-100.734C559.339,-105.254 582.89,-110.473 604.407,-115.242"/>
<polygon fill="midnightblue" stroke="midnightblue" points="539.428,-97.256 528.908,-98.5093 537.914,-104.09 539.428,-97.256"/>
</g>
<!-- Node5 -->
<g id="node5" class="node"><title>Node5</title>
<g id="a_node5"><a xlink:href="../../d9/d96/classapplication_1_1_main.html#a64e6451d894979853890a235efe37db8" target="_top" xlink:title="application.Main.createStart\lGameButton">
<polygon fill="white" stroke="black" points="788,-115 788,-145 940,-145 940,-115 788,-115"/>
<text text-anchor="start" x="796" y="-133" font-family="Helvetica,sans-Serif" font-size="10.00">application.Main.createStart</text>
<text text-anchor="middle" x="864" y="-122" font-family="Helvetica,sans-Serif" font-size="10.00">GameButton</text>
</a>
</g>
</g>
<!-- Node4&#45;&gt;Node5 -->
<g id="edge4" class="edge"><title>Node4&#45;&gt;Node5</title>
<path fill="none" stroke="midnightblue" d="M750.034,-130C762.455,-130 775.301,-130 787.68,-130"/>
<polygon fill="midnightblue" stroke="midnightblue" points="749.72,-126.5 739.72,-130 749.72,-133.5 749.72,-126.5"/>
</g>
<!-- Node6 -->
<g id="node6" class="node"><title>Node6</title>
<g id="a_node6"><a xlink:href="../../d9/d96/classapplication_1_1_main.html#a5fee6c1b05965eca9205a99e3245a5fb" target="_top" xlink:title="application.Main.populate\lStartPageModules">
<polygon fill="white" stroke="black" points="978.5,-115 978.5,-145 1117.5,-145 1117.5,-115 978.5,-115"/>
<text text-anchor="start" x="986.5" y="-133" font-family="Helvetica,sans-Serif" font-size="10.00">application.Main.populate</text>
<text text-anchor="middle" x="1048" y="-122" font-family="Helvetica,sans-Serif" font-size="10.00">StartPageModules</text>
</a>
</g>
</g>
<!-- Node5&#45;&gt;Node6 -->
<g id="edge5" class="edge"><title>Node5&#45;&gt;Node6</title>
<path fill="none" stroke="midnightblue" d="M950.213,-130C959.602,-130 969.073,-130 978.224,-130"/>
<polygon fill="midnightblue" stroke="midnightblue" points="950.077,-126.5 940.077,-130 950.077,-133.5 950.077,-126.5"/>
</g>
<!-- Node7 -->
<g id="node7" class="node"><title>Node7</title>
<g id="a_node7"><a xlink:href="../../d9/d96/classapplication_1_1_main.html#a4e5ad4e3de8bbd8654120180a94e870d" target="_top" xlink:title="application.Main.start">
<polygon fill="white" stroke="black" points="1154.5,-120.5 1154.5,-139.5 1273.5,-139.5 1273.5,-120.5 1154.5,-120.5"/>
<text text-anchor="middle" x="1214" y="-127.5" font-family="Helvetica,sans-Serif" font-size="10.00">application.Main.start</text>
</a>
</g>
</g>
<!-- Node6&#45;&gt;Node7 -->
<g id="edge6" class="edge"><title>Node6&#45;&gt;Node7</title>
<path fill="none" stroke="midnightblue" d="M1127.68,-130C1136.64,-130 1145.66,-130 1154.3,-130"/>
<polygon fill="midnightblue" stroke="midnightblue" points="1127.6,-126.5 1117.6,-130 1127.6,-133.5 1127.6,-126.5"/>
</g>
<!-- Node8 -->
<g id="node8" class="node"><title>Node8</title>
<g id="a_node8"><a xlink:href="../../d9/d96/classapplication_1_1_main.html#ad652e3294ffb6519b18d784d5831c76a" target="_top" xlink:title="application.Main.activate\lReturntoStart">
<polygon fill="white" stroke="black" points="1310.5,-115 1310.5,-145 1445.5,-145 1445.5,-115 1310.5,-115"/>
<text text-anchor="start" x="1318.5" y="-133" font-family="Helvetica,sans-Serif" font-size="10.00">application.Main.activate</text>
<text text-anchor="middle" x="1378" y="-122" font-family="Helvetica,sans-Serif" font-size="10.00">ReturntoStart</text>
</a>
</g>
</g>
<!-- Node7&#45;&gt;Node8 -->
<g id="edge7" class="edge"><title>Node7&#45;&gt;Node8</title>
<path fill="none" stroke="midnightblue" d="M1284.08,-130C1292.81,-130 1301.73,-130 1310.42,-130"/>
<polygon fill="midnightblue" stroke="midnightblue" points="1283.94,-126.5 1273.94,-130 1283.94,-133.5 1283.94,-126.5"/>
</g>
<!-- Node9 -->
<g id="node9" class="node"><title>Node9</title>
<g id="a_node9"><a xlink:href="../../d9/d96/classapplication_1_1_main.html#a4c5877fafc53c4fae488f1f30faf294b" target="_top" xlink:title="application.Main.createReturn\lToStartButton">
<polygon fill="white" stroke="black" points="1482,-115 1482,-145 1640,-145 1640,-115 1482,-115"/>
<text text-anchor="start" x="1490" y="-133" font-family="Helvetica,sans-Serif" font-size="10.00">application.Main.createReturn</text>
<text text-anchor="middle" x="1561" y="-122" font-family="Helvetica,sans-Serif" font-size="10.00">ToStartButton</text>
</a>
</g>
</g>
<!-- Node8&#45;&gt;Node9 -->
<g id="edge8" class="edge"><title>Node8&#45;&gt;Node9</title>
<path fill="none" stroke="midnightblue" d="M1455.7,-130C1464.36,-130 1473.19,-130 1481.87,-130"/>
<polygon fill="midnightblue" stroke="midnightblue" points="1455.63,-126.5 1445.63,-130 1455.63,-133.5 1455.63,-126.5"/>
</g>
<!-- Node10 -->
<g id="node10" class="node"><title>Node10</title>
<g id="a_node10"><a xlink:href="../../d9/d96/classapplication_1_1_main.html#a2ddf30fb8360296e1ad3459fe6f920fb" target="_top" xlink:title="application.Main.populate\lGridPageModules">
<polygon fill="white" stroke="black" points="1676.5,-66 1676.5,-96 1815.5,-96 1815.5,-66 1676.5,-66"/>
<text text-anchor="start" x="1684.5" y="-84" font-family="Helvetica,sans-Serif" font-size="10.00">application.Main.populate</text>
<text text-anchor="middle" x="1746" y="-73" font-family="Helvetica,sans-Serif" font-size="10.00">GridPageModules</text>
</a>
</g>
</g>
<!-- Node9&#45;&gt;Node10 -->
<g id="edge9" class="edge"><title>Node9&#45;&gt;Node10</title>
<path fill="none" stroke="midnightblue" d="M1628.29,-112.252C1648.12,-106.941 1669.67,-101.171 1688.79,-96.0516"/>
<polygon fill="midnightblue" stroke="midnightblue" points="1627.15,-108.931 1618.4,-114.899 1628.96,-115.693 1627.15,-108.931"/>
</g>
<!-- Node11 -->
<g id="node11" class="node"><title>Node11</title>
<g id="a_node11"><a xlink:href="../../d9/d96/classapplication_1_1_main.html#abcabe1a32eb7b5054cf34ca0def07531" target="_top" xlink:title="application.Main.populate\lErrorPageModules">
<polygon fill="white" stroke="black" points="1676.5,-115 1676.5,-145 1815.5,-145 1815.5,-115 1676.5,-115"/>
<text text-anchor="start" x="1684.5" y="-133" font-family="Helvetica,sans-Serif" font-size="10.00">application.Main.populate</text>
<text text-anchor="middle" x="1746" y="-122" font-family="Helvetica,sans-Serif" font-size="10.00">ErrorPageModules</text>
</a>
</g>
</g>
<!-- Node9&#45;&gt;Node11 -->
<g id="edge11" class="edge"><title>Node9&#45;&gt;Node11</title>
<path fill="none" stroke="midnightblue" d="M1650.36,-130C1659.1,-130 1667.87,-130 1676.37,-130"/>
<polygon fill="midnightblue" stroke="midnightblue" points="1650.14,-126.5 1640.14,-130 1650.14,-133.5 1650.14,-126.5"/>
</g>
<!-- Node10&#45;&gt;Node3 -->
<g id="edge10" class="edge"><title>Node10&#45;&gt;Node3</title>
<path fill="none" stroke="midnightblue" d="M1666.01,-82.7018C1591.89,-84.151 1477.93,-86 1379,-86 863,-86 863,-86 863,-86 756.965,-86 634.161,-87.2014 558.272,-88.0836"/>
<polygon fill="midnightblue" stroke="midnightblue" points="1666.27,-86.1974 1676.2,-82.5002 1666.13,-79.1988 1666.27,-86.1974"/>
</g>
<!-- Node12 -->
<g id="node12" class="node"><title>Node12</title>
<g id="a_node12"><a xlink:href="../../d9/d96/classapplication_1_1_main.html#a81e70f73d65beae34c459628791cc5d4" target="_top" xlink:title="application.Main.activate\lErrorPage">
<polygon fill="white" stroke="black" points="1852.5,-115 1852.5,-145 1987.5,-145 1987.5,-115 1852.5,-115"/>
<text text-anchor="start" x="1860.5" y="-133" font-family="Helvetica,sans-Serif" font-size="10.00">application.Main.activate</text>
<text text-anchor="middle" x="1920" y="-122" font-family="Helvetica,sans-Serif" font-size="10.00">ErrorPage</text>
</a>
</g>
</g>
<!-- Node11&#45;&gt;Node12 -->
<g id="edge12" class="edge"><title>Node11&#45;&gt;Node12</title>
<path fill="none" stroke="midnightblue" d="M1826.15,-130C1834.88,-130 1843.7,-130 1852.25,-130"/>
<polygon fill="midnightblue" stroke="midnightblue" points="1825.97,-126.5 1815.97,-130 1825.97,-133.5 1825.97,-126.5"/>
</g>
<!-- Node13 -->
<g id="node13" class="node"><title>Node13</title>
<g id="a_node13"><a xlink:href="../../d9/d96/classapplication_1_1_main.html#aef0593911aa3cbc594ac75bbb8d6a2b0" target="_top" xlink:title="application.Main.activate\lImportXMLButton">
<polygon fill="white" stroke="black" points="2024.5,-115 2024.5,-145 2159.5,-145 2159.5,-115 2024.5,-115"/>
<text text-anchor="start" x="2032.5" y="-133" font-family="Helvetica,sans-Serif" font-size="10.00">application.Main.activate</text>
<text text-anchor="middle" x="2092" y="-122" font-family="Helvetica,sans-Serif" font-size="10.00">ImportXMLButton</text>
</a>
</g>
</g>
<!-- Node12&#45;&gt;Node13 -->
<g id="edge13" class="edge"><title>Node12&#45;&gt;Node13</title>
<path fill="none" stroke="midnightblue" d="M1997.72,-130C2006.65,-130 2015.71,-130 2024.49,-130"/>
<polygon fill="midnightblue" stroke="midnightblue" points="1997.7,-126.5 1987.7,-130 1997.7,-133.5 1997.7,-126.5"/>
</g>
<!-- Node14 -->
<g id="node14" class="node"><title>Node14</title>
<g id="a_node14"><a xlink:href="../../d9/d96/classapplication_1_1_main.html#a18021492af2e457d39edcbd16dc0d3c8" target="_top" xlink:title="application.Main.createImport\lXMLButton">
<polygon fill="white" stroke="black" points="2196.5,-137 2196.5,-167 2355.5,-167 2355.5,-137 2196.5,-137"/>
<text text-anchor="start" x="2204.5" y="-155" font-family="Helvetica,sans-Serif" font-size="10.00">application.Main.createImport</text>
<text text-anchor="middle" x="2276" y="-144" font-family="Helvetica,sans-Serif" font-size="10.00">XMLButton</text>
</a>
</g>
</g>
<!-- Node13&#45;&gt;Node14 -->
<g id="edge14" class="edge"><title>Node13&#45;&gt;Node14</title>
<path fill="none" stroke="midnightblue" d="M2169.87,-139.292C2178.59,-140.346 2187.49,-141.422 2196.24,-142.479"/>
<polygon fill="midnightblue" stroke="midnightblue" points="2170.08,-135.793 2159.74,-138.067 2169.24,-142.742 2170.08,-135.793"/>
</g>
<!-- Node14&#45;&gt;Node6 -->
<g id="edge15" class="edge"><title>Node14&#45;&gt;Node6</title>
<path fill="none" stroke="midnightblue" d="M2186.03,-160.596C2114.5,-166.768 2011.38,-174 1921,-174 1377,-174 1377,-174 1377,-174 1286.8,-174 1183.87,-157.451 1117.75,-144.651"/>
<polygon fill="midnightblue" stroke="midnightblue" points="2186.69,-164.052 2196.35,-159.695 2186.08,-157.078 2186.69,-164.052"/>
</g>
<!-- Node16 -->
<g id="node16" class="node"><title>Node16</title>
<g id="a_node16"><a xlink:href="../../d9/d96/classapplication_1_1_main.html#a70093ccc8a1ea3876f646690a254eba6" target="_top" xlink:title="application.Main.createSlider">
<polygon fill="white" stroke="black" points="594.5,-35.5 594.5,-54.5 749.5,-54.5 749.5,-35.5 594.5,-35.5"/>
<text text-anchor="middle" x="672" y="-42.5" font-family="Helvetica,sans-Serif" font-size="10.00">application.Main.createSlider</text>
</a>
</g>
</g>
<!-- Node15&#45;&gt;Node16 -->
<g id="edge17" class="edge"><title>Node15&#45;&gt;Node16</title>
<path fill="none" stroke="midnightblue" d="M564.76,-45C574.578,-45 584.607,-45 594.392,-45"/>
<polygon fill="midnightblue" stroke="midnightblue" points="564.624,-41.5001 554.624,-45 564.624,-48.5001 564.624,-41.5001"/>
</g>
<!-- Node16&#45;&gt;Node10 -->
<g id="edge18" class="edge"><title>Node16&#45;&gt;Node10</title>
<path fill="none" stroke="midnightblue" d="M760.085,-46.0936C835.883,-46.951 948.705,-48 1047,-48 1047,-48 1047,-48 1379,-48 1482.99,-48 1602.94,-61.3786 1676.36,-71.0989"/>
<polygon fill="midnightblue" stroke="midnightblue" points="759.68,-42.5888 749.641,-45.974 759.6,-49.5884 759.68,-42.5888"/>
</g>
<!-- Node17 -->
<g id="node17" class="node"><title>Node17</title>
<g id="a_node17"><a xlink:href="../../d9/d96/classapplication_1_1_main.html#a1f5094dad31bc45ef126f701738cbe46" target="_top" xlink:title="application.Main.createSlider">
<polygon fill="white" stroke="black" points="786.5,-0.5 786.5,-19.5 941.5,-19.5 941.5,-0.5 786.5,-0.5"/>
<text text-anchor="middle" x="864" y="-7.5" font-family="Helvetica,sans-Serif" font-size="10.00">application.Main.createSlider</text>
</a>
</g>
</g>
<!-- Node16&#45;&gt;Node17 -->
<g id="edge19" class="edge"><title>Node16&#45;&gt;Node17</title>
<path fill="none" stroke="midnightblue" d="M734.687,-33.6366C759.455,-29.0741 787.682,-23.8744 811.343,-19.5158"/>
<polygon fill="midnightblue" stroke="midnightblue" points="733.868,-30.2285 724.667,-35.4823 735.136,-37.1127 733.868,-30.2285"/>
</g>
</g>
</svg>
        <g id="navigator" transform="translate(0 0)" fill="#404254">
                <rect fill="#f2f5e9" fill-opacity="0.5" stroke="#606060" stroke-width=".5" x="0" y="0" width="60" height="60"/>
                <use id="zoomplus" xlink:href="#zoomPlus" x="17" y="9" onmousedown="handleZoom(evt,'in')"/>
                <use id="zoomminus" xlink:href="#zoomMin" x="42" y="9" onmousedown="handleZoom(evt,'out')"/>
                <use id="reset" xlink:href="#resetDef" x="30" y="36" onmousedown="handleReset()"/>
                <g id="arrowUp" xlink:href="#dirArrow" transform="translate(30 24)" onmousedown="handlePan(0,-1)">
                  <use xlink:href="#rim" fill="#404040">
                        <set attributeName="fill" to="#808080" begin="arrowUp.mouseover" end="arrowUp.mouseout"/>
                  </use>
                  <path fill="none" stroke="white" stroke-width="1.5" d="M0,-3.0v7 M-2.5,-0.5L0,-3.0L2.5,-0.5"/>
                </g>
                <g id="arrowRight" xlink:href="#dirArrow" transform="rotate(90) translate(36 -43)" onmousedown="handlePan(1,0)">
                  <use xlink:href="#rim" fill="#404040">
                        <set attributeName="fill" to="#808080" begin="arrowRight.mouseover" end="arrowRight.mouseout"/>
                  </use>
                  <path fill="none" stroke="white" stroke-width="1.5" d="M0,-3.0v7 M-2.5,-0.5L0,-3.0L2.5,-0.5"/>
                </g>
                <g id="arrowDown" xlink:href="#dirArrow" transform="rotate(180) translate(-30 -48)" onmousedown="handlePan(0,1)">
                  <use xlink:href="#rim" fill="#404040">
                        <set attributeName="fill" to="#808080" begin="arrowDown.mouseover" end="arrowDown.mouseout"/>
                  </use>
                  <path fill="none" stroke="white" stroke-width="1.5" d="M0,-3.0v7 M-2.5,-0.5L0,-3.0L2.5,-0.5"/>
                </g>
                <g id="arrowLeft" xlink:href="#dirArrow" transform="rotate(270) translate(-36 17)" onmousedown="handlePan(-1,0)">
                  <use xlink:href="#rim" fill="#404040">
                        <set attributeName="fill" to="#808080" begin="arrowLeft.mouseover" end="arrowLeft.mouseout"/>
                  </use>
                  <path fill="none" stroke="white" stroke-width="1.5" d="M0,-3.0v7 M-2.5,-0.5L0,-3.0L2.5,-0.5"/>
                </g>
        </g>
        <svg viewBox="0 0 15 15" width="100%" height="30px" preserveAspectRatio="xMaxYMin meet">
         <g id="arrow_out" transform="scale(0.3 0.3)">
          <a xlink:href="classapplication_1_1_application_loop_ab6a0753dda3f3b164bbc402cbbbd7187_icgraph_org.svg" target="_base">
           <rect id="button" ry="5" rx="5" y="6" x="6" height="38" width="38"
                fill="#f2f5e9" fill-opacity="0.5" stroke="#606060" stroke-width="1.0"/>
           <path id="arrow"
             d="M 11.500037,31.436501 C 11.940474,20.09759 22.043105,11.32322 32.158766,21.979434 L 37.068811,17.246167 C 37.068811,17.246167 37.088388,32 37.088388,32 L 22.160133,31.978069 C 22.160133,31.978069 26.997745,27.140456 26.997745,27.140456 C 18.528582,18.264221 13.291696,25.230495 11.500037,31.436501 z"
             style="fill:#404040;"/>
          </a>
         </g>
        </svg>
</svg>
