<?xml version="1.0" encoding="UTF-8" standalone="no"?>
<!DOCTYPE svg PUBLIC "-//W3C//DTD SVG 1.1//EN"
 "http://www.w3.org/Graphics/SVG/1.1/DTD/svg11.dtd">
<!-- Generated by graphviz version 2.36.0 (20140111.2315)
 -->
<!-- Title: application.ApplicationLoop.initializeGridPane Pages: 1 -->
<svg width="676pt" height="189pt"
 viewBox="0.00 0.00 676.00 189.00" xmlns="http://www.w3.org/2000/svg" xmlns:xlink="http://www.w3.org/1999/xlink">
<g id="graph0" class="graph" transform="scale(1 1) rotate(0) translate(4 185)">
<title>application.ApplicationLoop.initializeGridPane</title>
<polygon fill="white" stroke="none" points="-4,4 -4,-185 672,-185 672,4 -4,4"/>
<!-- Node1 -->
<g id="node1" class="node"><title>Node1</title>
<polygon fill="#bfbfbf" stroke="black" points="0,-85 0,-115 188,-115 188,-85 0,-85"/>
<text text-anchor="start" x="8" y="-103" font-family="Helvetica,sans-Serif" font-size="10.00">application.ApplicationLoop.initialize</text>
<text text-anchor="middle" x="94" y="-92" font-family="Helvetica,sans-Serif" font-size="10.00">GridPane</text>
</g>
<!-- Node2 -->
<g id="node2" class="node"><title>Node2</title>
<g id="a_node2"><a xlink:href="../../d1/dd5/classapplication_1_1_cell_x_m_l_reader.html#a624d0f1211126fed6ffcb82cf079aa0b" target="_top" xlink:title="application.CellXMLReader.check\lModelTypeAndInitializeCell">
<polygon fill="white" stroke="black" points="245.5,-151 245.5,-181 416.5,-181 416.5,-151 245.5,-151"/>
<text text-anchor="start" x="253.5" y="-169" font-family="Helvetica,sans-Serif" font-size="10.00">application.CellXMLReader.check</text>
<text text-anchor="middle" x="331" y="-158" font-family="Helvetica,sans-Serif" font-size="10.00">ModelTypeAndInitializeCell</text>
</a>
</g>
</g>
<!-- Node1&#45;&gt;Node2 -->
<g id="edge1" class="edge"><title>Node1&#45;&gt;Node2</title>
<path fill="none" stroke="midnightblue" d="M139.525,-115.073C164.267,-123.215 195.687,-133.174 224,-141 233.363,-143.588 243.237,-146.144 253.039,-148.577"/>
<polygon fill="midnightblue" stroke="midnightblue" points="252.252,-151.987 262.797,-150.965 253.916,-145.188 252.252,-151.987"/>
</g>
<!-- Node3 -->
<g id="node3" class="node"><title>Node3</title>
<g id="a_node3"><a xlink:href="../../d9/d5e/classapplication_1_1_application_loop.html#a313767dcd02c47d5c97bcbc4432cadcb" target="_top" xlink:title="application.ApplicationLoop.generateRect">
<polygon fill="white" stroke="black" points="224,-112.5 224,-131.5 438,-131.5 438,-112.5 224,-112.5"/>
<text text-anchor="middle" x="331" y="-119.5" font-family="Helvetica,sans-Serif" font-size="10.00">application.ApplicationLoop.generateRect</text>
</a>
</g>
</g>
<!-- Node1&#45;&gt;Node3 -->
<g id="edge2" class="edge"><title>Node1&#45;&gt;Node3</title>
<path fill="none" stroke="midnightblue" d="M188.216,-108.727C198.115,-109.653 208.255,-110.603 218.337,-111.546"/>
<polygon fill="midnightblue" stroke="midnightblue" points="218.106,-115.04 228.389,-112.487 218.759,-108.071 218.106,-115.04"/>
</g>
<!-- Node6 -->
<g id="node6" class="node"><title>Node6</title>
<g id="a_node6"><a xlink:href="../../d1/dd5/classapplication_1_1_cell_x_m_l_reader.html#a0f21755c22ce20011cb2dedfbf929981" target="_top" xlink:title="application.CellXMLReader.get\lCellList">
<polygon fill="white" stroke="black" points="251.5,-63 251.5,-93 410.5,-93 410.5,-63 251.5,-63"/>
<text text-anchor="start" x="259.5" y="-81" font-family="Helvetica,sans-Serif" font-size="10.00">application.CellXMLReader.get</text>
<text text-anchor="middle" x="331" y="-70" font-family="Helvetica,sans-Serif" font-size="10.00">CellList</text>
</a>
</g>
</g>
<!-- Node1&#45;&gt;Node6 -->
<g id="edge5" class="edge"><title>Node1&#45;&gt;Node6</title>
<path fill="none" stroke="midnightblue" d="M188.216,-91.2734C205.677,-89.6388 223.886,-87.9341 241.208,-86.3125"/>
<polygon fill="midnightblue" stroke="midnightblue" points="241.662,-89.7854 251.292,-85.3684 241.009,-82.8158 241.662,-89.7854"/>
</g>
<!-- Node7 -->
<g id="node7" class="node"><title>Node7</title>
<g id="a_node7"><a xlink:href="../../d3/d32/classapplication_1_1_grid.html#af498f57e4a25440244ee6ce0b4c1899c" target="_top" xlink:title="application.Grid.initialize\lAndPopulateMatrix">
<polygon fill="white" stroke="black" points="265,-14 265,-44 397,-44 397,-14 265,-14"/>
<text text-anchor="start" x="273" y="-32" font-family="Helvetica,sans-Serif" font-size="10.00">application.Grid.initialize</text>
<text text-anchor="middle" x="331" y="-21" font-family="Helvetica,sans-Serif" font-size="10.00">AndPopulateMatrix</text>
</a>
</g>
</g>
<!-- Node1&#45;&gt;Node7 -->
<g id="edge6" class="edge"><title>Node1&#45;&gt;Node7</title>
<path fill="none" stroke="midnightblue" d="M132.4,-84.947C157.93,-75.0261 192.671,-62.2135 224,-53 233.945,-50.0751 244.504,-47.3003 254.955,-44.7457"/>
<polygon fill="midnightblue" stroke="midnightblue" points="256.005,-48.0935 264.919,-42.3664 254.379,-41.285 256.005,-48.0935"/>
</g>
<!-- Node4 -->
<g id="node4" class="node"><title>Node4</title>
<g id="a_node4"><a xlink:href="../../d9/d5e/classapplication_1_1_application_loop.html#a7e471b6bf7b92c3181b661075cf852ed" target="_top" xlink:title="application.ApplicationLoop.generate\lRandomColor">
<polygon fill="white" stroke="black" points="474,-141 474,-171 668,-171 668,-141 474,-141"/>
<text text-anchor="start" x="482" y="-159" font-family="Helvetica,sans-Serif" font-size="10.00">application.ApplicationLoop.generate</text>
<text text-anchor="middle" x="571" y="-148" font-family="Helvetica,sans-Serif" font-size="10.00">RandomColor</text>
</a>
</g>
</g>
<!-- Node3&#45;&gt;Node4 -->
<g id="edge3" class="edge"><title>Node3&#45;&gt;Node4</title>
<path fill="none" stroke="midnightblue" d="M398.613,-131.516C418.767,-134.395 441.425,-137.632 463.503,-140.786"/>
<polygon fill="midnightblue" stroke="midnightblue" points="463.2,-144.278 473.595,-142.228 464.191,-137.349 463.2,-144.278"/>
</g>
<!-- Node5 -->
<g id="node5" class="node"><title>Node5</title>
<g id="a_node5"><a xlink:href="../../d9/d5e/classapplication_1_1_application_loop.html#af1d62db2642f62abd06c8b88288eef61" target="_top" xlink:title="application.ApplicationLoop.generate\lRectHelper">
<polygon fill="white" stroke="black" points="474,-92 474,-122 668,-122 668,-92 474,-92"/>
<text text-anchor="start" x="482" y="-110" font-family="Helvetica,sans-Serif" font-size="10.00">application.ApplicationLoop.generate</text>
<text text-anchor="middle" x="571" y="-99" font-family="Helvetica,sans-Serif" font-size="10.00">RectHelper</text>
</a>
</g>
</g>
<!-- Node3&#45;&gt;Node5 -->
<g id="edge4" class="edge"><title>Node3&#45;&gt;Node5</title>
<path fill="none" stroke="midnightblue" d="M438.123,-115.312C446.676,-114.773 455.319,-114.228 463.872,-113.689"/>
<polygon fill="midnightblue" stroke="midnightblue" points="464.101,-117.181 473.861,-113.059 463.661,-110.195 464.101,-117.181"/>
</g>
<!-- Node8 -->
<g id="node8" class="node"><title>Node8</title>
<g id="a_node8"><a xlink:href="../../d7/dff/classapplication_1_1_cell.html#a9b55760c359deba99fa09c169bbcb924" target="_top" xlink:title="application.Cell.setXPos">
<polygon fill="white" stroke="black" points="506,-38.5 506,-57.5 636,-57.5 636,-38.5 506,-38.5"/>
<text text-anchor="middle" x="571" y="-45.5" font-family="Helvetica,sans-Serif" font-size="10.00">application.Cell.setXPos</text>
</a>
</g>
</g>
<!-- Node7&#45;&gt;Node8 -->
<g id="edge7" class="edge"><title>Node7&#45;&gt;Node8</title>
<path fill="none" stroke="midnightblue" d="M397.035,-34.1918C427.586,-36.6308 464.157,-39.5504 495.786,-42.0754"/>
<polygon fill="midnightblue" stroke="midnightblue" points="495.621,-45.5732 505.868,-42.8802 496.178,-38.5954 495.621,-45.5732"/>
</g>
<!-- Node9 -->
<g id="node9" class="node"><title>Node9</title>
<g id="a_node9"><a xlink:href="../../d7/dff/classapplication_1_1_cell.html#acc3b6f97d338de7648cefc50fe63b829" target="_top" xlink:title="application.Cell.setYPos">
<polygon fill="white" stroke="black" points="506.5,-0.5 506.5,-19.5 635.5,-19.5 635.5,-0.5 506.5,-0.5"/>
<text text-anchor="middle" x="571" y="-7.5" font-family="Helvetica,sans-Serif" font-size="10.00">application.Cell.setYPos</text>
</a>
</g>
</g>
<!-- Node7&#45;&gt;Node9 -->
<g id="edge8" class="edge"><title>Node7&#45;&gt;Node9</title>
<path fill="none" stroke="midnightblue" d="M397.035,-23.8082C427.71,-21.3593 464.455,-18.4259 496.172,-15.8938"/>
<polygon fill="midnightblue" stroke="midnightblue" points="496.589,-19.3717 506.279,-15.087 496.032,-12.3939 496.589,-19.3717"/>
</g>
</g>
</svg>
