<?xml version="1.0" encoding="UTF-8" standalone="no"?>
<!DOCTYPE svg PUBLIC "-//W3C//DTD SVG 1.1//EN"
 "http://www.w3.org/Graphics/SVG/1.1/DTD/svg11.dtd">
<!-- Generated by graphviz version 2.36.0 (20140111.2315)
 -->
<!-- Title: application.AntCell.findLargestFood Pages: 1 -->
<svg width="306pt" height="38pt"
 viewBox="0.00 0.00 306.00 38.00" xmlns="http://www.w3.org/2000/svg" xmlns:xlink="http://www.w3.org/1999/xlink">
<g id="graph0" class="graph" transform="scale(1 1) rotate(0) translate(4 34)">
<title>application.AntCell.findLargestFood</title>
<polygon fill="white" stroke="none" points="-4,4 -4,-34 302,-34 302,4 -4,4"/>
<!-- Node1 -->
<g id="node1" class="node"><title>Node1</title>
<polygon fill="#bfbfbf" stroke="black" points="0.5,-0 0.5,-30 125.5,-30 125.5,-0 0.5,-0"/>
<text text-anchor="start" x="8.5" y="-18" font-family="Helvetica,sans-Serif" font-size="10.00">application.AntCell.find</text>
<text text-anchor="middle" x="63" y="-7" font-family="Helvetica,sans-Serif" font-size="10.00">LargestFood</text>
</g>
<!-- Node2 -->
<g id="node2" class="node"><title>Node2</title>
<g id="a_node2"><a xlink:href="../../d0/ddc/classapplication_1_1_ant_cell.html#ac2dbfde869e54353159171c0b9710cf1" target="_top" xlink:title="application.AntCell.check\lForwardFood">
<polygon fill="white" stroke="black" points="162,-0 162,-30 298,-30 298,-0 162,-0"/>
<text text-anchor="start" x="170" y="-18" font-family="Helvetica,sans-Serif" font-size="10.00">application.AntCell.check</text>
<text text-anchor="middle" x="230" y="-7" font-family="Helvetica,sans-Serif" font-size="10.00">ForwardFood</text>
</a>
</g>
</g>
<!-- Node1&#45;&gt;Node2 -->
<g id="edge1" class="edge"><title>Node1&#45;&gt;Node2</title>
<path fill="none" stroke="midnightblue" d="M136.183,-15C144.686,-15 153.338,-15 161.769,-15"/>
<polygon fill="midnightblue" stroke="midnightblue" points="135.909,-11.5001 125.909,-15 135.909,-18.5001 135.909,-11.5001"/>
</g>
</g>
</svg>
