<?xml version="1.0" encoding="UTF-8" standalone="no"?>
<!DOCTYPE svg PUBLIC "-//W3C//DTD SVG 1.1//EN"
 "http://www.w3.org/Graphics/SVG/1.1/DTD/svg11.dtd">
<!-- Generated by graphviz version 2.36.0 (20140111.2315)
 -->
<!-- Title: application.AntCell.checkBounds Pages: 1 -->
<svg width="516pt" height="136pt"
 viewBox="0.00 0.00 516.00 136.00" xmlns="http://www.w3.org/2000/svg" xmlns:xlink="http://www.w3.org/1999/xlink">
<g id="graph0" class="graph" transform="scale(1 1) rotate(0) translate(4 132)">
<title>application.AntCell.checkBounds</title>
<polygon fill="white" stroke="none" points="-4,4 -4,-132 512,-132 512,4 -4,4"/>
<!-- Node1 -->
<g id="node1" class="node"><title>Node1</title>
<polygon fill="#bfbfbf" stroke="black" points="0,-49 0,-79 136,-79 136,-49 0,-49"/>
<text text-anchor="start" x="8" y="-67" font-family="Helvetica,sans-Serif" font-size="10.00">application.AntCell.check</text>
<text text-anchor="middle" x="68" y="-56" font-family="Helvetica,sans-Serif" font-size="10.00">Bounds</text>
</g>
<!-- Node2 -->
<g id="node2" class="node"><title>Node2</title>
<g id="a_node2"><a xlink:href="../../d0/ddc/classapplication_1_1_ant_cell.html#a2ba7d54d6f543d4726639ab229c67619" target="_top" xlink:title="application.AntCell.find\lLargestFood">
<polygon fill="white" stroke="black" points="191.5,-98 191.5,-128 316.5,-128 316.5,-98 191.5,-98"/>
<text text-anchor="start" x="199.5" y="-116" font-family="Helvetica,sans-Serif" font-size="10.00">application.AntCell.find</text>
<text text-anchor="middle" x="254" y="-105" font-family="Helvetica,sans-Serif" font-size="10.00">LargestFood</text>
</a>
</g>
</g>
<!-- Node1&#45;&gt;Node2 -->
<g id="edge1" class="edge"><title>Node1&#45;&gt;Node2</title>
<path fill="none" stroke="midnightblue" d="M135.176,-81.6229C155.306,-86.9837 177.232,-92.8225 196.65,-97.9938"/>
<polygon fill="midnightblue" stroke="midnightblue" points="136.02,-78.2259 125.457,-79.0346 134.219,-84.9902 136.02,-78.2259"/>
</g>
<!-- Node4 -->
<g id="node4" class="node"><title>Node4</title>
<g id="a_node4"><a xlink:href="../../d0/ddc/classapplication_1_1_ant_cell.html#ab8cc3a9fc74ec4a15d6ae2472c7f8b4c" target="_top" xlink:title="application.AntCell.find\lLargestHome">
<polygon fill="white" stroke="black" points="191.5,-49 191.5,-79 316.5,-79 316.5,-49 191.5,-49"/>
<text text-anchor="start" x="199.5" y="-67" font-family="Helvetica,sans-Serif" font-size="10.00">application.AntCell.find</text>
<text text-anchor="middle" x="254" y="-56" font-family="Helvetica,sans-Serif" font-size="10.00">LargestHome</text>
</a>
</g>
</g>
<!-- Node1&#45;&gt;Node4 -->
<g id="edge3" class="edge"><title>Node1&#45;&gt;Node4</title>
<path fill="none" stroke="midnightblue" d="M146.498,-64C161.51,-64 177.051,-64 191.467,-64"/>
<polygon fill="midnightblue" stroke="midnightblue" points="146.209,-60.5001 136.209,-64 146.209,-67.5001 146.209,-60.5001"/>
</g>
<!-- Node6 -->
<g id="node6" class="node"><title>Node6</title>
<g id="a_node6"><a xlink:href="../../d0/ddc/classapplication_1_1_ant_cell.html#ada3d08bba769501d0bc397caf9714c80" target="_top" xlink:title="application.AntCell.pheromone\lNeighbourFinder">
<polygon fill="white" stroke="black" points="172,-0 172,-30 336,-30 336,-0 172,-0"/>
<text text-anchor="start" x="180" y="-18" font-family="Helvetica,sans-Serif" font-size="10.00">application.AntCell.pheromone</text>
<text text-anchor="middle" x="254" y="-7" font-family="Helvetica,sans-Serif" font-size="10.00">NeighbourFinder</text>
</a>
</g>
</g>
<!-- Node1&#45;&gt;Node6 -->
<g id="edge5" class="edge"><title>Node1&#45;&gt;Node6</title>
<path fill="none" stroke="midnightblue" d="M135.176,-46.3771C155.306,-41.0163 177.232,-35.1775 196.65,-30.0062"/>
<polygon fill="midnightblue" stroke="midnightblue" points="134.219,-43.0098 125.457,-48.9654 136.02,-49.7741 134.219,-43.0098"/>
</g>
<!-- Node3 -->
<g id="node3" class="node"><title>Node3</title>
<g id="a_node3"><a xlink:href="../../d0/ddc/classapplication_1_1_ant_cell.html#ac2dbfde869e54353159171c0b9710cf1" target="_top" xlink:title="application.AntCell.check\lForwardFood">
<polygon fill="white" stroke="black" points="372,-98 372,-128 508,-128 508,-98 372,-98"/>
<text text-anchor="start" x="380" y="-116" font-family="Helvetica,sans-Serif" font-size="10.00">application.AntCell.check</text>
<text text-anchor="middle" x="440" y="-105" font-family="Helvetica,sans-Serif" font-size="10.00">ForwardFood</text>
</a>
</g>
</g>
<!-- Node2&#45;&gt;Node3 -->
<g id="edge2" class="edge"><title>Node2&#45;&gt;Node3</title>
<path fill="none" stroke="midnightblue" d="M326.675,-113C341.538,-113 357.145,-113 371.839,-113"/>
<polygon fill="midnightblue" stroke="midnightblue" points="326.525,-109.5 316.525,-113 326.525,-116.5 326.525,-109.5"/>
</g>
<!-- Node5 -->
<g id="node5" class="node"><title>Node5</title>
<g id="a_node5"><a xlink:href="../../d0/ddc/classapplication_1_1_ant_cell.html#a5419f60de47e5babb01fd49ffbb1d0e4" target="_top" xlink:title="application.AntCell.check\lForwardHome">
<polygon fill="white" stroke="black" points="372,-49 372,-79 508,-79 508,-49 372,-49"/>
<text text-anchor="start" x="380" y="-67" font-family="Helvetica,sans-Serif" font-size="10.00">application.AntCell.check</text>
<text text-anchor="middle" x="440" y="-56" font-family="Helvetica,sans-Serif" font-size="10.00">ForwardHome</text>
</a>
</g>
</g>
<!-- Node4&#45;&gt;Node5 -->
<g id="edge4" class="edge"><title>Node4&#45;&gt;Node5</title>
<path fill="none" stroke="midnightblue" d="M326.675,-64C341.538,-64 357.145,-64 371.839,-64"/>
<polygon fill="midnightblue" stroke="midnightblue" points="326.525,-60.5001 316.525,-64 326.525,-67.5001 326.525,-60.5001"/>
</g>
</g>
</svg>
