<?xml version="1.0" encoding="UTF-8" standalone="no"?>
<!DOCTYPE svg PUBLIC "-//W3C//DTD SVG 1.1//EN"
 "http://www.w3.org/Graphics/SVG/1.1/DTD/svg11.dtd">
<!-- Generated by graphviz version 2.36.0 (20140111.2315)
 -->
<!-- Title: application.AntCell.checkForwardFood Pages: 1 -->
<svg width="478pt" height="38pt"
 viewBox="0.00 0.00 478.00 38.00" xmlns="http://www.w3.org/2000/svg" xmlns:xlink="http://www.w3.org/1999/xlink">
<g id="graph0" class="graph" transform="scale(1 1) rotate(0) translate(4 34)">
<title>application.AntCell.checkForwardFood</title>
<polygon fill="white" stroke="none" points="-4,4 -4,-34 474,-34 474,4 -4,4"/>
<!-- Node1 -->
<g id="node1" class="node"><title>Node1</title>
<polygon fill="#bfbfbf" stroke="black" points="0,-0 0,-30 136,-30 136,-0 0,-0"/>
<text text-anchor="start" x="8" y="-18" font-family="Helvetica,sans-Serif" font-size="10.00">application.AntCell.check</text>
<text text-anchor="middle" x="68" y="-7" font-family="Helvetica,sans-Serif" font-size="10.00">ForwardFood</text>
</g>
<!-- Node2 -->
<g id="node2" class="node"><title>Node2</title>
<g id="a_node2"><a xlink:href="../../d0/ddc/classapplication_1_1_ant_cell.html#a2ba7d54d6f543d4726639ab229c67619" target="_top" xlink:title="application.AntCell.find\lLargestFood">
<polygon fill="white" stroke="black" points="172.5,-0 172.5,-30 297.5,-30 297.5,-0 172.5,-0"/>
<text text-anchor="start" x="180.5" y="-18" font-family="Helvetica,sans-Serif" font-size="10.00">application.AntCell.find</text>
<text text-anchor="middle" x="235" y="-7" font-family="Helvetica,sans-Serif" font-size="10.00">LargestFood</text>
</a>
</g>
</g>
<!-- Node1&#45;&gt;Node2 -->
<g id="edge1" class="edge"><title>Node1&#45;&gt;Node2</title>
<path fill="none" stroke="midnightblue" d="M136.112,-15C144.705,-15 153.529,-15 162.193,-15"/>
<polygon fill="midnightblue" stroke="midnightblue" points="162.267,-18.5001 172.267,-15 162.267,-11.5001 162.267,-18.5001"/>
</g>
<!-- Node3 -->
<g id="node3" class="node"><title>Node3</title>
<g id="a_node3"><a xlink:href="../../d0/ddc/classapplication_1_1_ant_cell.html#ad3671227e4c2dba8fea16a244adc9711" target="_top" xlink:title="application.AntCell.check\lBounds">
<polygon fill="white" stroke="black" points="334,-0 334,-30 470,-30 470,-0 334,-0"/>
<text text-anchor="start" x="342" y="-18" font-family="Helvetica,sans-Serif" font-size="10.00">application.AntCell.check</text>
<text text-anchor="middle" x="402" y="-7" font-family="Helvetica,sans-Serif" font-size="10.00">Bounds</text>
</a>
</g>
</g>
<!-- Node2&#45;&gt;Node3 -->
<g id="edge2" class="edge"><title>Node2&#45;&gt;Node3</title>
<path fill="none" stroke="midnightblue" d="M297.909,-15C306.322,-15 315.04,-15 323.682,-15"/>
<polygon fill="midnightblue" stroke="midnightblue" points="323.769,-18.5001 333.769,-15 323.769,-11.5001 323.769,-18.5001"/>
</g>
</g>
</svg>
