<?xml version="1.0" encoding="UTF-8" standalone="no"?>
<!DOCTYPE svg PUBLIC "-//W3C//DTD SVG 1.1//EN"
 "http://www.w3.org/Graphics/SVG/1.1/DTD/svg11.dtd">
<!-- Generated by graphviz version 2.36.0 (20140111.2315)
 -->
<!-- Title: application.AntCell.pheromoneNeighbourFinder Pages: 1 -->
<svg width="346pt" height="136pt"
 viewBox="0.00 0.00 346.00 136.00" xmlns="http://www.w3.org/2000/svg" xmlns:xlink="http://www.w3.org/1999/xlink">
<g id="graph0" class="graph" transform="scale(1 1) rotate(0) translate(4 132)">
<title>application.AntCell.pheromoneNeighbourFinder</title>
<polygon fill="white" stroke="none" points="-4,4 -4,-132 342,-132 342,4 -4,4"/>
<!-- Node1 -->
<g id="node1" class="node"><title>Node1</title>
<polygon fill="#bfbfbf" stroke="black" points="0,-49 0,-79 164,-79 164,-49 0,-49"/>
<text text-anchor="start" x="8" y="-67" font-family="Helvetica,sans-Serif" font-size="10.00">application.AntCell.pheromone</text>
<text text-anchor="middle" x="82" y="-56" font-family="Helvetica,sans-Serif" font-size="10.00">NeighbourFinder</text>
</g>
<!-- Node2 -->
<g id="node2" class="node"><title>Node2</title>
<g id="a_node2"><a xlink:href="../../d0/ddc/classapplication_1_1_ant_cell.html#ad3671227e4c2dba8fea16a244adc9711" target="_top" xlink:title="application.AntCell.check\lBounds">
<polygon fill="white" stroke="black" points="201,-98 201,-128 337,-128 337,-98 201,-98"/>
<text text-anchor="start" x="209" y="-116" font-family="Helvetica,sans-Serif" font-size="10.00">application.AntCell.check</text>
<text text-anchor="middle" x="269" y="-105" font-family="Helvetica,sans-Serif" font-size="10.00">Bounds</text>
</a>
</g>
</g>
<!-- Node1&#45;&gt;Node2 -->
<g id="edge1" class="edge"><title>Node1&#45;&gt;Node2</title>
<path fill="none" stroke="midnightblue" d="M139.763,-79.0346C159.297,-84.2083 181.343,-90.0475 201.576,-95.4066"/>
<polygon fill="midnightblue" stroke="midnightblue" points="200.781,-98.8167 211.344,-97.9938 202.573,-92.05 200.781,-98.8167"/>
</g>
<!-- Node3 -->
<g id="node3" class="node"><title>Node3</title>
<g id="a_node3"><a xlink:href="../../d0/ddc/classapplication_1_1_ant_cell.html#aba1d9f405d6776f93d3c62c35808a99d" target="_top" xlink:title="application.AntCell.find\lLargestFoodPheromone">
<polygon fill="white" stroke="black" points="203.5,-49 203.5,-79 334.5,-79 334.5,-49 203.5,-49"/>
<text text-anchor="start" x="211.5" y="-67" font-family="Helvetica,sans-Serif" font-size="10.00">application.AntCell.find</text>
<text text-anchor="middle" x="269" y="-56" font-family="Helvetica,sans-Serif" font-size="10.00">LargestFoodPheromone</text>
</a>
</g>
</g>
<!-- Node1&#45;&gt;Node3 -->
<g id="edge2" class="edge"><title>Node1&#45;&gt;Node3</title>
<path fill="none" stroke="midnightblue" d="M164.144,-64C173.769,-64 183.56,-64 193.093,-64"/>
<polygon fill="midnightblue" stroke="midnightblue" points="193.315,-67.5001 203.315,-64 193.315,-60.5001 193.315,-67.5001"/>
</g>
<!-- Node4 -->
<g id="node4" class="node"><title>Node4</title>
<g id="a_node4"><a xlink:href="../../d0/ddc/classapplication_1_1_ant_cell.html#a204781b893c6b6ec01c85451e43dbf9d" target="_top" xlink:title="application.AntCell.find\lLargestHomePheromone">
<polygon fill="white" stroke="black" points="200.5,-0 200.5,-30 337.5,-30 337.5,-0 200.5,-0"/>
<text text-anchor="start" x="208.5" y="-18" font-family="Helvetica,sans-Serif" font-size="10.00">application.AntCell.find</text>
<text text-anchor="middle" x="269" y="-7" font-family="Helvetica,sans-Serif" font-size="10.00">LargestHomePheromone</text>
</a>
</g>
</g>
<!-- Node1&#45;&gt;Node4 -->
<g id="edge3" class="edge"><title>Node1&#45;&gt;Node4</title>
<path fill="none" stroke="midnightblue" d="M139.763,-48.9654C159.297,-43.7917 181.343,-37.9525 201.576,-32.5934"/>
<polygon fill="midnightblue" stroke="midnightblue" points="202.573,-35.95 211.344,-30.0062 200.781,-29.1833 202.573,-35.95"/>
</g>
</g>
</svg>
