<?xml version="1.0" encoding="UTF-8" standalone="no"?>
<!DOCTYPE svg PUBLIC "-//W3C//DTD SVG 1.1//EN"
 "http://www.w3.org/Graphics/SVG/1.1/DTD/svg11.dtd">
<!-- Generated by graphviz version 2.36.0 (20140111.2315)
 -->
<!-- Title: application.AntCell.homeMoveTo Pages: 1 -->
<svg width="310pt" height="38pt"
 viewBox="0.00 0.00 310.00 38.00" xmlns="http://www.w3.org/2000/svg" xmlns:xlink="http://www.w3.org/1999/xlink">
<g id="graph0" class="graph" transform="scale(1 1) rotate(0) translate(4 34)">
<title>application.AntCell.homeMoveTo</title>
<polygon fill="white" stroke="none" points="-4,4 -4,-34 306,-34 306,4 -4,4"/>
<!-- Node1 -->
<g id="node1" class="node"><title>Node1</title>
<polygon fill="#bfbfbf" stroke="black" points="0,-0 0,-30 136,-30 136,-0 0,-0"/>
<text text-anchor="start" x="8" y="-18" font-family="Helvetica,sans-Serif" font-size="10.00">application.AntCell.home</text>
<text text-anchor="middle" x="68" y="-7" font-family="Helvetica,sans-Serif" font-size="10.00">MoveTo</text>
</g>
<!-- Node2 -->
<g id="node2" class="node"><title>Node2</title>
<g id="a_node2"><a xlink:href="../../d0/ddc/classapplication_1_1_ant_cell.html#a1dd59d4426b31d6869c29cbc06a619af" target="_top" xlink:title="application.AntCell.drop\lHomePheromone">
<polygon fill="white" stroke="black" points="172,-0 172,-30 302,-30 302,-0 172,-0"/>
<text text-anchor="start" x="180" y="-18" font-family="Helvetica,sans-Serif" font-size="10.00">application.AntCell.drop</text>
<text text-anchor="middle" x="237" y="-7" font-family="Helvetica,sans-Serif" font-size="10.00">HomePheromone</text>
</a>
</g>
</g>
<!-- Node1&#45;&gt;Node2 -->
<g id="edge1" class="edge"><title>Node1&#45;&gt;Node2</title>
<path fill="none" stroke="midnightblue" d="M136.444,-15C144.746,-15 153.268,-15 161.665,-15"/>
<polygon fill="midnightblue" stroke="midnightblue" points="161.823,-18.5001 171.822,-15 161.822,-11.5001 161.823,-18.5001"/>
</g>
</g>
</svg>
