<?xml version="1.0" encoding="UTF-8" standalone="no"?>
<!DOCTYPE svg PUBLIC "-//W3C//DTD SVG 1.1//EN"
 "http://www.w3.org/Graphics/SVG/1.1/DTD/svg11.dtd">
<!-- Generated by graphviz version 2.36.0 (20140111.2315)
 -->
<!-- Title: application.CellXMLReader.loadAttributesIntoCell Pages: 1 -->
<svg width="380pt" height="202pt"
 viewBox="0.00 0.00 380.00 202.00" xmlns="http://www.w3.org/2000/svg" xmlns:xlink="http://www.w3.org/1999/xlink">
<g id="graph0" class="graph" transform="scale(1 1) rotate(0) translate(4 198)">
<title>application.CellXMLReader.loadAttributesIntoCell</title>
<polygon fill="white" stroke="none" points="-4,4 -4,-198 376,-198 376,4 -4,4"/>
<!-- Node1 -->
<g id="node1" class="node"><title>Node1</title>
<polygon fill="#bfbfbf" stroke="black" points="0,-71 0,-101 164,-101 164,-71 0,-71"/>
<text text-anchor="start" x="8" y="-89" font-family="Helvetica,sans-Serif" font-size="10.00">application.CellXMLReader.load</text>
<text text-anchor="middle" x="82" y="-78" font-family="Helvetica,sans-Serif" font-size="10.00">AttributesIntoCell</text>
</g>
<!-- Node2 -->
<g id="node2" class="node"><title>Node2</title>
<g id="a_node2"><a xlink:href="../../d1/dd5/classapplication_1_1_cell_x_m_l_reader.html#a624d0f1211126fed6ffcb82cf079aa0b" target="_top" xlink:title="application.CellXMLReader.check\lModelTypeAndInitializeCell">
<polygon fill="white" stroke="black" points="200.5,-164 200.5,-194 371.5,-194 371.5,-164 200.5,-164"/>
<text text-anchor="start" x="208.5" y="-182" font-family="Helvetica,sans-Serif" font-size="10.00">application.CellXMLReader.check</text>
<text text-anchor="middle" x="286" y="-171" font-family="Helvetica,sans-Serif" font-size="10.00">ModelTypeAndInitializeCell</text>
</a>
</g>
</g>
<!-- Node1&#45;&gt;Node2 -->
<g id="edge1" class="edge"><title>Node1&#45;&gt;Node2</title>
<path fill="none" stroke="midnightblue" d="M105.452,-101.249C128.399,-116.296 165.469,-139.145 200,-154 205.431,-156.336 211.148,-158.535 216.941,-160.584"/>
<polygon fill="midnightblue" stroke="midnightblue" points="216.134,-164.006 226.728,-163.89 218.374,-157.374 216.134,-164.006"/>
</g>
<!-- Node3 -->
<g id="node3" class="node"><title>Node3</title>
<g id="a_node3"><a xlink:href="../../d7/dff/classapplication_1_1_cell.html#a5bff8514612c2a8631d927f4a18c7569" target="_top" xlink:title="application.Cell.setCurrent\lState">
<polygon fill="white" stroke="black" points="214.5,-115 214.5,-145 357.5,-145 357.5,-115 214.5,-115"/>
<text text-anchor="start" x="222.5" y="-133" font-family="Helvetica,sans-Serif" font-size="10.00">application.Cell.setCurrent</text>
<text text-anchor="middle" x="286" y="-122" font-family="Helvetica,sans-Serif" font-size="10.00">State</text>
</a>
</g>
</g>
<!-- Node1&#45;&gt;Node3 -->
<g id="edge2" class="edge"><title>Node1&#45;&gt;Node3</title>
<path fill="none" stroke="midnightblue" d="M151.952,-101.019C169.407,-104.821 188.286,-108.934 206.187,-112.833"/>
<polygon fill="midnightblue" stroke="midnightblue" points="205.5,-116.265 216.016,-114.974 206.99,-109.426 205.5,-116.265"/>
</g>
<!-- Node4 -->
<g id="node4" class="node"><title>Node4</title>
<g id="a_node4"><a xlink:href="../../d7/dff/classapplication_1_1_cell.html#a34e60407d74251ba0b3c4baf82af9e2c" target="_top" xlink:title="application.Cell.setThreshold">
<polygon fill="white" stroke="black" points="209.5,-76.5 209.5,-95.5 362.5,-95.5 362.5,-76.5 209.5,-76.5"/>
<text text-anchor="middle" x="286" y="-83.5" font-family="Helvetica,sans-Serif" font-size="10.00">application.Cell.setThreshold</text>
</a>
</g>
</g>
<!-- Node1&#45;&gt;Node4 -->
<g id="edge3" class="edge"><title>Node1&#45;&gt;Node4</title>
<path fill="none" stroke="midnightblue" d="M164.288,-86C175.82,-86 187.708,-86 199.32,-86"/>
<polygon fill="midnightblue" stroke="midnightblue" points="199.437,-89.5001 209.437,-86 199.437,-82.5001 199.437,-89.5001"/>
</g>
<!-- Node5 -->
<g id="node5" class="node"><title>Node5</title>
<g id="a_node5"><a xlink:href="../../d7/dff/classapplication_1_1_cell.html#a9b55760c359deba99fa09c169bbcb924" target="_top" xlink:title="application.Cell.setXPos">
<polygon fill="white" stroke="black" points="221,-38.5 221,-57.5 351,-57.5 351,-38.5 221,-38.5"/>
<text text-anchor="middle" x="286" y="-45.5" font-family="Helvetica,sans-Serif" font-size="10.00">application.Cell.setXPos</text>
</a>
</g>
</g>
<!-- Node1&#45;&gt;Node5 -->
<g id="edge4" class="edge"><title>Node1&#45;&gt;Node5</title>
<path fill="none" stroke="midnightblue" d="M162.836,-70.9814C183.402,-67.1125 205.194,-63.0131 224.59,-59.3643"/>
<polygon fill="midnightblue" stroke="midnightblue" points="225.315,-62.7894 234.495,-57.5009 224.02,-55.9101 225.315,-62.7894"/>
</g>
<!-- Node6 -->
<g id="node6" class="node"><title>Node6</title>
<g id="a_node6"><a xlink:href="../../d7/dff/classapplication_1_1_cell.html#acc3b6f97d338de7648cefc50fe63b829" target="_top" xlink:title="application.Cell.setYPos">
<polygon fill="white" stroke="black" points="221.5,-0.5 221.5,-19.5 350.5,-19.5 350.5,-0.5 221.5,-0.5"/>
<text text-anchor="middle" x="286" y="-7.5" font-family="Helvetica,sans-Serif" font-size="10.00">application.Cell.setYPos</text>
</a>
</g>
</g>
<!-- Node1&#45;&gt;Node6 -->
<g id="edge5" class="edge"><title>Node1&#45;&gt;Node6</title>
<path fill="none" stroke="midnightblue" d="M109.65,-70.7865C132.877,-58.0756 167.797,-40.2694 200,-29 207.426,-26.4013 215.345,-24.074 223.249,-22.0153"/>
<polygon fill="midnightblue" stroke="midnightblue" points="224.348,-25.349 233.216,-19.5509 222.668,-18.5537 224.348,-25.349"/>
</g>
</g>
</svg>
