<?xml version="1.0" encoding="UTF-8" standalone="no"?>
<!DOCTYPE svg PUBLIC "-//W3C//DTD SVG 1.1//EN"
 "http://www.w3.org/Graphics/SVG/1.1/DTD/svg11.dtd">
<!-- Generated by graphviz version 2.36.0 (20140111.2315)
 -->
<!-- Title: application.CellXMLReader.setColorScheme Pages: 1 -->
<svg width="2396pt" height="145pt"
 viewBox="0.00 0.00 2396.00 145.00" xmlns="http://www.w3.org/2000/svg" xmlns:xlink="http://www.w3.org/1999/xlink">
<g id="graph0" class="graph" transform="scale(1 1) rotate(0) translate(4 141)">
<title>application.CellXMLReader.setColorScheme</title>
<polygon fill="white" stroke="none" points="-4,4 -4,-141 2392,-141 2392,4 -4,4"/>
<!-- Node1 -->
<g id="node1" class="node"><title>Node1</title>
<polygon fill="#bfbfbf" stroke="black" points="0,-13 0,-43 158,-43 158,-13 0,-13"/>
<text text-anchor="start" x="8" y="-31" font-family="Helvetica,sans-Serif" font-size="10.00">application.CellXMLReader.set</text>
<text text-anchor="middle" x="79" y="-20" font-family="Helvetica,sans-Serif" font-size="10.00">ColorScheme</text>
</g>
<!-- Node2 -->
<g id="node2" class="node"><title>Node2</title>
<g id="a_node2"><a xlink:href="../../d1/dd5/classapplication_1_1_cell_x_m_l_reader.html#a6ef5e260e8d5d74c4b08dbb341ca4c05" target="_top" xlink:title="application.CellXMLReader.configure\lModelParameters">
<polygon fill="white" stroke="black" points="194,-13 194,-43 382,-43 382,-13 194,-13"/>
<text text-anchor="start" x="202" y="-31" font-family="Helvetica,sans-Serif" font-size="10.00">application.CellXMLReader.configure</text>
<text text-anchor="middle" x="288" y="-20" font-family="Helvetica,sans-Serif" font-size="10.00">ModelParameters</text>
</a>
</g>
</g>
<!-- Node1&#45;&gt;Node2 -->
<g id="edge1" class="edge"><title>Node1&#45;&gt;Node2</title>
<path fill="none" stroke="midnightblue" d="M168.383,-28C176.75,-28 185.253,-28 193.665,-28"/>
<polygon fill="midnightblue" stroke="midnightblue" points="168.258,-24.5001 158.258,-28 168.258,-31.5001 168.258,-24.5001"/>
</g>
<!-- Node3 -->
<g id="node3" class="node"><title>Node3</title>
<g id="a_node3"><a xlink:href="../../d1/dd5/classapplication_1_1_cell_x_m_l_reader.html#a6df22c595f6ab48c2565869a8c111e32" target="_top" xlink:title="application.CellXMLReader.populate\lCellListFromDocument">
<polygon fill="white" stroke="black" points="418.5,-13 418.5,-43 603.5,-43 603.5,-13 418.5,-13"/>
<text text-anchor="start" x="426.5" y="-31" font-family="Helvetica,sans-Serif" font-size="10.00">application.CellXMLReader.populate</text>
<text text-anchor="middle" x="511" y="-20" font-family="Helvetica,sans-Serif" font-size="10.00">CellListFromDocument</text>
</a>
</g>
</g>
<!-- Node2&#45;&gt;Node3 -->
<g id="edge2" class="edge"><title>Node2&#45;&gt;Node3</title>
<path fill="none" stroke="midnightblue" d="M392.29,-28C401.019,-28 409.808,-28 418.438,-28"/>
<polygon fill="midnightblue" stroke="midnightblue" points="392.083,-24.5001 382.083,-28 392.083,-31.5001 392.083,-24.5001"/>
</g>
<!-- Node4 -->
<g id="node4" class="node"><title>Node4</title>
<g id="a_node4"><a xlink:href="../../d9/d96/classapplication_1_1_main.html#aef0593911aa3cbc594ac75bbb8d6a2b0" target="_top" xlink:title="application.Main.activate\lImportXMLButton">
<polygon fill="white" stroke="black" points="640.5,-13 640.5,-43 775.5,-43 775.5,-13 640.5,-13"/>
<text text-anchor="start" x="648.5" y="-31" font-family="Helvetica,sans-Serif" font-size="10.00">application.Main.activate</text>
<text text-anchor="middle" x="708" y="-20" font-family="Helvetica,sans-Serif" font-size="10.00">ImportXMLButton</text>
</a>
</g>
</g>
<!-- Node3&#45;&gt;Node4 -->
<g id="edge3" class="edge"><title>Node3&#45;&gt;Node4</title>
<path fill="none" stroke="midnightblue" d="M613.745,-28C622.812,-28 631.829,-28 640.483,-28"/>
<polygon fill="midnightblue" stroke="midnightblue" points="613.505,-24.5001 603.505,-28 613.505,-31.5001 613.505,-24.5001"/>
</g>
<!-- Node5 -->
<g id="node5" class="node"><title>Node5</title>
<g id="a_node5"><a xlink:href="../../d9/d96/classapplication_1_1_main.html#a18021492af2e457d39edcbd16dc0d3c8" target="_top" xlink:title="application.Main.createImport\lXMLButton">
<polygon fill="white" stroke="black" points="812.5,-42 812.5,-72 971.5,-72 971.5,-42 812.5,-42"/>
<text text-anchor="start" x="820.5" y="-60" font-family="Helvetica,sans-Serif" font-size="10.00">application.Main.createImport</text>
<text text-anchor="middle" x="892" y="-49" font-family="Helvetica,sans-Serif" font-size="10.00">XMLButton</text>
</a>
</g>
</g>
<!-- Node4&#45;&gt;Node5 -->
<g id="edge4" class="edge"><title>Node4&#45;&gt;Node5</title>
<path fill="none" stroke="midnightblue" d="M785.873,-40.249C794.594,-41.6386 803.492,-43.0564 812.237,-44.4498"/>
<polygon fill="midnightblue" stroke="midnightblue" points="786.163,-36.7511 775.737,-38.6339 785.061,-43.6639 786.163,-36.7511"/>
</g>
<!-- Node6 -->
<g id="node6" class="node"><title>Node6</title>
<g id="a_node6"><a xlink:href="../../d9/d96/classapplication_1_1_main.html#a5fee6c1b05965eca9205a99e3245a5fb" target="_top" xlink:title="application.Main.populate\lStartPageModules">
<polygon fill="white" stroke="black" points="1008.5,-54 1008.5,-84 1147.5,-84 1147.5,-54 1008.5,-54"/>
<text text-anchor="start" x="1016.5" y="-72" font-family="Helvetica,sans-Serif" font-size="10.00">application.Main.populate</text>
<text text-anchor="middle" x="1078" y="-61" font-family="Helvetica,sans-Serif" font-size="10.00">StartPageModules</text>
</a>
</g>
</g>
<!-- Node5&#45;&gt;Node6 -->
<g id="edge5" class="edge"><title>Node5&#45;&gt;Node6</title>
<path fill="none" stroke="midnightblue" d="M981.636,-62.7806C990.587,-63.3644 999.581,-63.9509 1008.28,-64.5181"/>
<polygon fill="midnightblue" stroke="midnightblue" points="981.773,-59.2822 971.566,-62.1239 981.317,-66.2674 981.773,-59.2822"/>
</g>
<!-- Node7 -->
<g id="node7" class="node"><title>Node7</title>
<g id="a_node7"><a xlink:href="../../d9/d96/classapplication_1_1_main.html#a4e5ad4e3de8bbd8654120180a94e870d" target="_top" xlink:title="application.Main.start">
<polygon fill="white" stroke="black" points="1184.5,-59.5 1184.5,-78.5 1303.5,-78.5 1303.5,-59.5 1184.5,-59.5"/>
<text text-anchor="middle" x="1244" y="-66.5" font-family="Helvetica,sans-Serif" font-size="10.00">application.Main.start</text>
</a>
</g>
</g>
<!-- Node6&#45;&gt;Node7 -->
<g id="edge6" class="edge"><title>Node6&#45;&gt;Node7</title>
<path fill="none" stroke="midnightblue" d="M1157.68,-69C1166.64,-69 1175.66,-69 1184.3,-69"/>
<polygon fill="midnightblue" stroke="midnightblue" points="1157.6,-65.5001 1147.6,-69 1157.6,-72.5001 1157.6,-65.5001"/>
</g>
<!-- Node8 -->
<g id="node8" class="node"><title>Node8</title>
<g id="a_node8"><a xlink:href="../../d9/d96/classapplication_1_1_main.html#ad652e3294ffb6519b18d784d5831c76a" target="_top" xlink:title="application.Main.activate\lReturntoStart">
<polygon fill="white" stroke="black" points="1340.5,-54 1340.5,-84 1475.5,-84 1475.5,-54 1340.5,-54"/>
<text text-anchor="start" x="1348.5" y="-72" font-family="Helvetica,sans-Serif" font-size="10.00">application.Main.activate</text>
<text text-anchor="middle" x="1408" y="-61" font-family="Helvetica,sans-Serif" font-size="10.00">ReturntoStart</text>
</a>
</g>
</g>
<!-- Node7&#45;&gt;Node8 -->
<g id="edge7" class="edge"><title>Node7&#45;&gt;Node8</title>
<path fill="none" stroke="midnightblue" d="M1314.08,-69C1322.81,-69 1331.73,-69 1340.42,-69"/>
<polygon fill="midnightblue" stroke="midnightblue" points="1313.94,-65.5001 1303.94,-69 1313.94,-72.5001 1313.94,-65.5001"/>
</g>
<!-- Node9 -->
<g id="node9" class="node"><title>Node9</title>
<g id="a_node9"><a xlink:href="../../d9/d96/classapplication_1_1_main.html#a4c5877fafc53c4fae488f1f30faf294b" target="_top" xlink:title="application.Main.createReturn\lToStartButton">
<polygon fill="white" stroke="black" points="1512,-54 1512,-84 1670,-84 1670,-54 1512,-54"/>
<text text-anchor="start" x="1520" y="-72" font-family="Helvetica,sans-Serif" font-size="10.00">application.Main.createReturn</text>
<text text-anchor="middle" x="1591" y="-61" font-family="Helvetica,sans-Serif" font-size="10.00">ToStartButton</text>
</a>
</g>
</g>
<!-- Node8&#45;&gt;Node9 -->
<g id="edge8" class="edge"><title>Node8&#45;&gt;Node9</title>
<path fill="none" stroke="midnightblue" d="M1485.7,-69C1494.36,-69 1503.19,-69 1511.87,-69"/>
<polygon fill="midnightblue" stroke="midnightblue" points="1485.63,-65.5001 1475.63,-69 1485.63,-72.5001 1485.63,-65.5001"/>
</g>
<!-- Node10 -->
<g id="node10" class="node"><title>Node10</title>
<g id="a_node10"><a xlink:href="../../d9/d96/classapplication_1_1_main.html#a2ddf30fb8360296e1ad3459fe6f920fb" target="_top" xlink:title="application.Main.populate\lGridPageModules">
<polygon fill="white" stroke="black" points="1706.5,-78 1706.5,-108 1845.5,-108 1845.5,-78 1706.5,-78"/>
<text text-anchor="start" x="1714.5" y="-96" font-family="Helvetica,sans-Serif" font-size="10.00">application.Main.populate</text>
<text text-anchor="middle" x="1776" y="-85" font-family="Helvetica,sans-Serif" font-size="10.00">GridPageModules</text>
</a>
</g>
</g>
<!-- Node9&#45;&gt;Node10 -->
<g id="edge9" class="edge"><title>Node9&#45;&gt;Node10</title>
<path fill="none" stroke="midnightblue" d="M1680.07,-80.5507C1688.91,-81.7089 1697.78,-82.8726 1706.37,-83.9987"/>
<polygon fill="midnightblue" stroke="midnightblue" points="1680.51,-77.0779 1670.14,-79.2478 1679.6,-84.0185 1680.51,-77.0779"/>
</g>
<!-- Node14 -->
<g id="node14" class="node"><title>Node14</title>
<g id="a_node14"><a xlink:href="../../d9/d96/classapplication_1_1_main.html#abcabe1a32eb7b5054cf34ca0def07531" target="_top" xlink:title="application.Main.populate\lErrorPageModules">
<polygon fill="white" stroke="black" points="1706.5,-29 1706.5,-59 1845.5,-59 1845.5,-29 1706.5,-29"/>
<text text-anchor="start" x="1714.5" y="-47" font-family="Helvetica,sans-Serif" font-size="10.00">application.Main.populate</text>
<text text-anchor="middle" x="1776" y="-36" font-family="Helvetica,sans-Serif" font-size="10.00">ErrorPageModules</text>
</a>
</g>
</g>
<!-- Node9&#45;&gt;Node14 -->
<g id="edge14" class="edge"><title>Node9&#45;&gt;Node14</title>
<path fill="none" stroke="midnightblue" d="M1680.07,-56.968C1688.91,-55.7616 1697.78,-54.5493 1706.37,-53.3763"/>
<polygon fill="midnightblue" stroke="midnightblue" points="1679.57,-53.5038 1670.14,-58.3252 1680.52,-60.4394 1679.57,-53.5038"/>
</g>
<!-- Node11 -->
<g id="node11" class="node"><title>Node11</title>
<g id="a_node11"><a xlink:href="../../d9/d96/classapplication_1_1_main.html#adc868cfca1990edad66af3dcb8cf4349" target="_top" xlink:title="application.Main.playGame">
<polygon fill="white" stroke="black" points="1882,-83.5 1882,-102.5 2028,-102.5 2028,-83.5 1882,-83.5"/>
<text text-anchor="middle" x="1955" y="-90.5" font-family="Helvetica,sans-Serif" font-size="10.00">application.Main.playGame</text>
</a>
</g>
</g>
<!-- Node10&#45;&gt;Node11 -->
<g id="edge10" class="edge"><title>Node10&#45;&gt;Node11</title>
<path fill="none" stroke="midnightblue" d="M1855.79,-93C1864.46,-93 1873.26,-93 1881.84,-93"/>
<polygon fill="midnightblue" stroke="midnightblue" points="1855.69,-89.5001 1845.69,-93 1855.69,-96.5001 1855.69,-89.5001"/>
</g>
<!-- Node12 -->
<g id="node12" class="node"><title>Node12</title>
<g id="a_node12"><a xlink:href="../../d9/d96/classapplication_1_1_main.html#ada0f47786d75e28e627d2621d75eaf5a" target="_top" xlink:title="application.Main.activate\lStartButton">
<polygon fill="white" stroke="black" points="2064.5,-78 2064.5,-108 2199.5,-108 2199.5,-78 2064.5,-78"/>
<text text-anchor="start" x="2072.5" y="-96" font-family="Helvetica,sans-Serif" font-size="10.00">application.Main.activate</text>
<text text-anchor="middle" x="2132" y="-85" font-family="Helvetica,sans-Serif" font-size="10.00">StartButton</text>
</a>
</g>
</g>
<!-- Node11&#45;&gt;Node12 -->
<g id="edge11" class="edge"><title>Node11&#45;&gt;Node12</title>
<path fill="none" stroke="midnightblue" d="M2038.35,-93C2047.05,-93 2055.82,-93 2064.31,-93"/>
<polygon fill="midnightblue" stroke="midnightblue" points="2038.19,-89.5001 2028.19,-93 2038.19,-96.5001 2038.19,-89.5001"/>
</g>
<!-- Node13 -->
<g id="node13" class="node"><title>Node13</title>
<g id="a_node13"><a xlink:href="../../d9/d96/classapplication_1_1_main.html#a64e6451d894979853890a235efe37db8" target="_top" xlink:title="application.Main.createStart\lGameButton">
<polygon fill="white" stroke="black" points="2236,-100 2236,-130 2388,-130 2388,-100 2236,-100"/>
<text text-anchor="start" x="2244" y="-118" font-family="Helvetica,sans-Serif" font-size="10.00">application.Main.createStart</text>
<text text-anchor="middle" x="2312" y="-107" font-family="Helvetica,sans-Serif" font-size="10.00">GameButton</text>
</a>
</g>
</g>
<!-- Node12&#45;&gt;Node13 -->
<g id="edge12" class="edge"><title>Node12&#45;&gt;Node13</title>
<path fill="none" stroke="midnightblue" d="M2209.65,-102.473C2218.34,-103.548 2227.2,-104.642 2235.87,-105.714"/>
<polygon fill="midnightblue" stroke="midnightblue" points="2209.89,-98.9764 2199.53,-101.223 2209.03,-105.924 2209.89,-98.9764"/>
</g>
<!-- Node13&#45;&gt;Node6 -->
<g id="edge13" class="edge"><title>Node13&#45;&gt;Node6</title>
<path fill="none" stroke="midnightblue" d="M2225.59,-123.267C2153.74,-129.507 2048.26,-137 1956,-137 1407,-137 1407,-137 1407,-137 1303.34,-137 1185.01,-104.032 1122.7,-84.0071"/>
<polygon fill="midnightblue" stroke="midnightblue" points="2226.29,-126.719 2235.94,-122.356 2225.67,-119.746 2226.29,-126.719"/>
</g>
<!-- Node15 -->
<g id="node15" class="node"><title>Node15</title>
<g id="a_node15"><a xlink:href="../../d9/d96/classapplication_1_1_main.html#a81e70f73d65beae34c459628791cc5d4" target="_top" xlink:title="application.Main.activate\lErrorPage">
<polygon fill="white" stroke="black" points="1887.5,-7 1887.5,-37 2022.5,-37 2022.5,-7 1887.5,-7"/>
<text text-anchor="start" x="1895.5" y="-25" font-family="Helvetica,sans-Serif" font-size="10.00">application.Main.activate</text>
<text text-anchor="middle" x="1955" y="-14" font-family="Helvetica,sans-Serif" font-size="10.00">ErrorPage</text>
</a>
</g>
</g>
<!-- Node14&#45;&gt;Node15 -->
<g id="edge15" class="edge"><title>Node14&#45;&gt;Node15</title>
<path fill="none" stroke="midnightblue" d="M1855.74,-34.2133C1866.3,-32.9 1877.06,-31.5634 1887.39,-30.2795"/>
<polygon fill="midnightblue" stroke="midnightblue" points="1855.18,-30.7559 1845.69,-35.4627 1856.04,-37.7025 1855.18,-30.7559"/>
</g>
<!-- Node15&#45;&gt;Node4 -->
<g id="edge16" class="edge"><title>Node15&#45;&gt;Node4</title>
<path fill="none" stroke="midnightblue" d="M1877.3,-14.6294C1804.08,-8.23585 1690.62,-0 1592,-0 1077,-0 1077,-0 1077,-0 971.439,-1.42109e-14 849.335,-11.5966 775.699,-19.8636"/>
<polygon fill="midnightblue" stroke="midnightblue" points="1877.08,-18.1243 1887.35,-15.5183 1877.7,-11.1515 1877.08,-18.1243"/>
</g>
</g>
</svg>
