<?xml version="1.0" encoding="UTF-8" standalone="no"?>
<!DOCTYPE svg PUBLIC "-//W3C//DTD SVG 1.1//EN"
 "http://www.w3.org/Graphics/SVG/1.1/DTD/svg11.dtd">
<!-- Generated by graphviz version 2.36.0 (20140111.2315)
 -->
<!-- Title: application.CellXMLReader.getCellList Pages: 1 -->
<svg width="2548pt" height="116pt"
 viewBox="0.00 0.00 2548.00 116.00" xmlns="http://www.w3.org/2000/svg" xmlns:xlink="http://www.w3.org/1999/xlink">
<g id="graph0" class="graph" transform="scale(1 1) rotate(0) translate(4 112)">
<title>application.CellXMLReader.getCellList</title>
<polygon fill="white" stroke="none" points="-4,4 -4,-112 2544,-112 2544,4 -4,4"/>
<!-- Node1 -->
<g id="node1" class="node"><title>Node1</title>
<polygon fill="#bfbfbf" stroke="black" points="0.5,-24 0.5,-54 159.5,-54 159.5,-24 0.5,-24"/>
<text text-anchor="start" x="8.5" y="-42" font-family="Helvetica,sans-Serif" font-size="10.00">application.CellXMLReader.get</text>
<text text-anchor="middle" x="80" y="-31" font-family="Helvetica,sans-Serif" font-size="10.00">CellList</text>
</g>
<!-- Node2 -->
<g id="node2" class="node"><title>Node2</title>
<g id="a_node2"><a xlink:href="../../d9/d5e/classapplication_1_1_application_loop.html#ae6fc4b7d381bb5b4d4ba3eb4bb69c078" target="_top" xlink:title="application.ApplicationLoop.initialize\lGridPane">
<polygon fill="white" stroke="black" points="196,-24 196,-54 384,-54 384,-24 196,-24"/>
<text text-anchor="start" x="204" y="-42" font-family="Helvetica,sans-Serif" font-size="10.00">application.ApplicationLoop.initialize</text>
<text text-anchor="middle" x="290" y="-31" font-family="Helvetica,sans-Serif" font-size="10.00">GridPane</text>
</a>
</g>
</g>
<!-- Node1&#45;&gt;Node2 -->
<g id="edge1" class="edge"><title>Node1&#45;&gt;Node2</title>
<path fill="none" stroke="midnightblue" d="M169.73,-39C178.398,-39 187.211,-39 195.92,-39"/>
<polygon fill="midnightblue" stroke="midnightblue" points="169.636,-35.5001 159.636,-39 169.636,-42.5001 169.636,-35.5001"/>
</g>
<!-- Node3 -->
<g id="node3" class="node"><title>Node3</title>
<g id="a_node3"><a xlink:href="../../d9/d5e/classapplication_1_1_application_loop.html#a903043ba2535055f46dbee6aca8b3eef" target="_top" xlink:title="application.ApplicationLoop.init">
<polygon fill="white" stroke="black" points="420,-29.5 420,-48.5 584,-48.5 584,-29.5 420,-29.5"/>
<text text-anchor="middle" x="502" y="-36.5" font-family="Helvetica,sans-Serif" font-size="10.00">application.ApplicationLoop.init</text>
</a>
</g>
</g>
<!-- Node2&#45;&gt;Node3 -->
<g id="edge2" class="edge"><title>Node2&#45;&gt;Node3</title>
<path fill="none" stroke="midnightblue" d="M394.152,-39C402.796,-39 411.456,-39 419.899,-39"/>
<polygon fill="midnightblue" stroke="midnightblue" points="394.026,-35.5001 384.026,-39 394.026,-42.5001 394.026,-35.5001"/>
</g>
<!-- Node4 -->
<g id="node4" class="node"><title>Node4</title>
<g id="a_node4"><a xlink:href="../../d9/d96/classapplication_1_1_main.html#adc868cfca1990edad66af3dcb8cf4349" target="_top" xlink:title="application.Main.playGame">
<polygon fill="white" stroke="black" points="620,-29.5 620,-48.5 766,-48.5 766,-29.5 620,-29.5"/>
<text text-anchor="middle" x="693" y="-36.5" font-family="Helvetica,sans-Serif" font-size="10.00">application.Main.playGame</text>
</a>
</g>
</g>
<!-- Node3&#45;&gt;Node4 -->
<g id="edge3" class="edge"><title>Node3&#45;&gt;Node4</title>
<path fill="none" stroke="midnightblue" d="M594.261,-39C602.817,-39 611.409,-39 619.755,-39"/>
<polygon fill="midnightblue" stroke="midnightblue" points="594.25,-35.5001 584.25,-39 594.25,-42.5001 594.25,-35.5001"/>
</g>
<!-- Node5 -->
<g id="node5" class="node"><title>Node5</title>
<g id="a_node5"><a xlink:href="../../d9/d96/classapplication_1_1_main.html#ada0f47786d75e28e627d2621d75eaf5a" target="_top" xlink:title="application.Main.activate\lStartButton">
<polygon fill="white" stroke="black" points="802.5,-46 802.5,-76 937.5,-76 937.5,-46 802.5,-46"/>
<text text-anchor="start" x="810.5" y="-64" font-family="Helvetica,sans-Serif" font-size="10.00">application.Main.activate</text>
<text text-anchor="middle" x="870" y="-53" font-family="Helvetica,sans-Serif" font-size="10.00">StartButton</text>
</a>
</g>
</g>
<!-- Node4&#45;&gt;Node5 -->
<g id="edge4" class="edge"><title>Node4&#45;&gt;Node5</title>
<path fill="none" stroke="midnightblue" d="M776.351,-49.3527C785.052,-50.4465 793.82,-51.5489 802.312,-52.6163"/>
<polygon fill="midnightblue" stroke="midnightblue" points="776.548,-45.85 766.19,-48.0753 775.675,-52.7953 776.548,-45.85"/>
</g>
<!-- Node6 -->
<g id="node6" class="node"><title>Node6</title>
<g id="a_node6"><a xlink:href="../../d9/d96/classapplication_1_1_main.html#a64e6451d894979853890a235efe37db8" target="_top" xlink:title="application.Main.createStart\lGameButton">
<polygon fill="white" stroke="black" points="974,-47 974,-77 1126,-77 1126,-47 974,-47"/>
<text text-anchor="start" x="982" y="-65" font-family="Helvetica,sans-Serif" font-size="10.00">application.Main.createStart</text>
<text text-anchor="middle" x="1050" y="-54" font-family="Helvetica,sans-Serif" font-size="10.00">GameButton</text>
</a>
</g>
</g>
<!-- Node5&#45;&gt;Node6 -->
<g id="edge5" class="edge"><title>Node5&#45;&gt;Node6</title>
<path fill="none" stroke="midnightblue" d="M947.646,-61.4306C956.341,-61.4794 965.196,-61.5292 973.871,-61.5779"/>
<polygon fill="midnightblue" stroke="midnightblue" points="947.553,-57.9301 937.534,-61.3738 947.514,-64.93 947.553,-57.9301"/>
</g>
<!-- Node7 -->
<g id="node7" class="node"><title>Node7</title>
<g id="a_node7"><a xlink:href="../../d9/d96/classapplication_1_1_main.html#a5fee6c1b05965eca9205a99e3245a5fb" target="_top" xlink:title="application.Main.populate\lStartPageModules">
<polygon fill="white" stroke="black" points="1162.5,-48 1162.5,-78 1301.5,-78 1301.5,-48 1162.5,-48"/>
<text text-anchor="start" x="1170.5" y="-66" font-family="Helvetica,sans-Serif" font-size="10.00">application.Main.populate</text>
<text text-anchor="middle" x="1232" y="-55" font-family="Helvetica,sans-Serif" font-size="10.00">StartPageModules</text>
</a>
</g>
</g>
<!-- Node6&#45;&gt;Node7 -->
<g id="edge6" class="edge"><title>Node6&#45;&gt;Node7</title>
<path fill="none" stroke="midnightblue" d="M1136.27,-62.4737C1145.04,-62.5224 1153.86,-62.5715 1162.41,-62.619"/>
<polygon fill="midnightblue" stroke="midnightblue" points="1136.05,-58.9726 1126.03,-62.4168 1136.01,-65.9724 1136.05,-58.9726"/>
</g>
<!-- Node8 -->
<g id="node8" class="node"><title>Node8</title>
<g id="a_node8"><a xlink:href="../../d9/d96/classapplication_1_1_main.html#a4e5ad4e3de8bbd8654120180a94e870d" target="_top" xlink:title="application.Main.start">
<polygon fill="white" stroke="black" points="1338.5,-53.5 1338.5,-72.5 1457.5,-72.5 1457.5,-53.5 1338.5,-53.5"/>
<text text-anchor="middle" x="1398" y="-60.5" font-family="Helvetica,sans-Serif" font-size="10.00">application.Main.start</text>
</a>
</g>
</g>
<!-- Node7&#45;&gt;Node8 -->
<g id="edge7" class="edge"><title>Node7&#45;&gt;Node8</title>
<path fill="none" stroke="midnightblue" d="M1311.68,-63C1320.64,-63 1329.66,-63 1338.3,-63"/>
<polygon fill="midnightblue" stroke="midnightblue" points="1311.6,-59.5001 1301.6,-63 1311.6,-66.5001 1311.6,-59.5001"/>
</g>
<!-- Node9 -->
<g id="node9" class="node"><title>Node9</title>
<g id="a_node9"><a xlink:href="../../d9/d96/classapplication_1_1_main.html#ad652e3294ffb6519b18d784d5831c76a" target="_top" xlink:title="application.Main.activate\lReturntoStart">
<polygon fill="white" stroke="black" points="1494.5,-48 1494.5,-78 1629.5,-78 1629.5,-48 1494.5,-48"/>
<text text-anchor="start" x="1502.5" y="-66" font-family="Helvetica,sans-Serif" font-size="10.00">application.Main.activate</text>
<text text-anchor="middle" x="1562" y="-55" font-family="Helvetica,sans-Serif" font-size="10.00">ReturntoStart</text>
</a>
</g>
</g>
<!-- Node8&#45;&gt;Node9 -->
<g id="edge8" class="edge"><title>Node8&#45;&gt;Node9</title>
<path fill="none" stroke="midnightblue" d="M1468.08,-63C1476.81,-63 1485.73,-63 1494.42,-63"/>
<polygon fill="midnightblue" stroke="midnightblue" points="1467.94,-59.5001 1457.94,-63 1467.94,-66.5001 1467.94,-59.5001"/>
</g>
<!-- Node10 -->
<g id="node10" class="node"><title>Node10</title>
<g id="a_node10"><a xlink:href="../../d9/d96/classapplication_1_1_main.html#a4c5877fafc53c4fae488f1f30faf294b" target="_top" xlink:title="application.Main.createReturn\lToStartButton">
<polygon fill="white" stroke="black" points="1666,-48 1666,-78 1824,-78 1824,-48 1666,-48"/>
<text text-anchor="start" x="1674" y="-66" font-family="Helvetica,sans-Serif" font-size="10.00">application.Main.createReturn</text>
<text text-anchor="middle" x="1745" y="-55" font-family="Helvetica,sans-Serif" font-size="10.00">ToStartButton</text>
</a>
</g>
</g>
<!-- Node9&#45;&gt;Node10 -->
<g id="edge9" class="edge"><title>Node9&#45;&gt;Node10</title>
<path fill="none" stroke="midnightblue" d="M1639.7,-63C1648.36,-63 1657.19,-63 1665.87,-63"/>
<polygon fill="midnightblue" stroke="midnightblue" points="1639.63,-59.5001 1629.63,-63 1639.63,-66.5001 1639.63,-59.5001"/>
</g>
<!-- Node11 -->
<g id="node11" class="node"><title>Node11</title>
<g id="a_node11"><a xlink:href="../../d9/d96/classapplication_1_1_main.html#a2ddf30fb8360296e1ad3459fe6f920fb" target="_top" xlink:title="application.Main.populate\lGridPageModules">
<polygon fill="white" stroke="black" points="1860.5,-0 1860.5,-30 1999.5,-30 1999.5,-0 1860.5,-0"/>
<text text-anchor="start" x="1868.5" y="-18" font-family="Helvetica,sans-Serif" font-size="10.00">application.Main.populate</text>
<text text-anchor="middle" x="1930" y="-7" font-family="Helvetica,sans-Serif" font-size="10.00">GridPageModules</text>
</a>
</g>
</g>
<!-- Node10&#45;&gt;Node11 -->
<g id="edge10" class="edge"><title>Node10&#45;&gt;Node11</title>
<path fill="none" stroke="midnightblue" d="M1813.29,-45.3505C1832.5,-40.3106 1853.25,-34.868 1871.8,-30.0024"/>
<polygon fill="midnightblue" stroke="midnightblue" points="1812.19,-42.0215 1803.4,-47.9442 1813.96,-48.7925 1812.19,-42.0215"/>
</g>
<!-- Node12 -->
<g id="node12" class="node"><title>Node12</title>
<g id="a_node12"><a xlink:href="../../d9/d96/classapplication_1_1_main.html#abcabe1a32eb7b5054cf34ca0def07531" target="_top" xlink:title="application.Main.populate\lErrorPageModules">
<polygon fill="white" stroke="black" points="1860.5,-49 1860.5,-79 1999.5,-79 1999.5,-49 1860.5,-49"/>
<text text-anchor="start" x="1868.5" y="-67" font-family="Helvetica,sans-Serif" font-size="10.00">application.Main.populate</text>
<text text-anchor="middle" x="1930" y="-56" font-family="Helvetica,sans-Serif" font-size="10.00">ErrorPageModules</text>
</a>
</g>
</g>
<!-- Node10&#45;&gt;Node12 -->
<g id="edge12" class="edge"><title>Node10&#45;&gt;Node12</title>
<path fill="none" stroke="midnightblue" d="M1834.36,-63.4828C1843.1,-63.5306 1851.87,-63.5785 1860.37,-63.6249"/>
<polygon fill="midnightblue" stroke="midnightblue" points="1834.16,-59.9818 1824.14,-63.427 1834.12,-66.9817 1834.16,-59.9818"/>
</g>
<!-- Node11&#45;&gt;Node4 -->
<g id="edge11" class="edge"><title>Node11&#45;&gt;Node4</title>
<path fill="none" stroke="midnightblue" d="M1850.01,-15.6807C1775.88,-16.2604 1661.92,-17 1563,-17 1049,-17 1049,-17 1049,-17 950.972,-17 838.008,-25.46 766.328,-31.8876"/>
<polygon fill="midnightblue" stroke="midnightblue" points="1850.22,-19.1792 1860.2,-15.6001 1850.17,-12.1794 1850.22,-19.1792"/>
</g>
<!-- Node13 -->
<g id="node13" class="node"><title>Node13</title>
<g id="a_node13"><a xlink:href="../../d9/d96/classapplication_1_1_main.html#a81e70f73d65beae34c459628791cc5d4" target="_top" xlink:title="application.Main.activate\lErrorPage">
<polygon fill="white" stroke="black" points="2036.5,-49 2036.5,-79 2171.5,-79 2171.5,-49 2036.5,-49"/>
<text text-anchor="start" x="2044.5" y="-67" font-family="Helvetica,sans-Serif" font-size="10.00">application.Main.activate</text>
<text text-anchor="middle" x="2104" y="-56" font-family="Helvetica,sans-Serif" font-size="10.00">ErrorPage</text>
</a>
</g>
</g>
<!-- Node12&#45;&gt;Node13 -->
<g id="edge13" class="edge"><title>Node12&#45;&gt;Node13</title>
<path fill="none" stroke="midnightblue" d="M2010.15,-64C2018.88,-64 2027.7,-64 2036.25,-64"/>
<polygon fill="midnightblue" stroke="midnightblue" points="2009.97,-60.5001 1999.97,-64 2009.97,-67.5001 2009.97,-60.5001"/>
</g>
<!-- Node14 -->
<g id="node14" class="node"><title>Node14</title>
<g id="a_node14"><a xlink:href="../../d9/d96/classapplication_1_1_main.html#aef0593911aa3cbc594ac75bbb8d6a2b0" target="_top" xlink:title="application.Main.activate\lImportXMLButton">
<polygon fill="white" stroke="black" points="2208.5,-49 2208.5,-79 2343.5,-79 2343.5,-49 2208.5,-49"/>
<text text-anchor="start" x="2216.5" y="-67" font-family="Helvetica,sans-Serif" font-size="10.00">application.Main.activate</text>
<text text-anchor="middle" x="2276" y="-56" font-family="Helvetica,sans-Serif" font-size="10.00">ImportXMLButton</text>
</a>
</g>
</g>
<!-- Node13&#45;&gt;Node14 -->
<g id="edge14" class="edge"><title>Node13&#45;&gt;Node14</title>
<path fill="none" stroke="midnightblue" d="M2181.72,-64C2190.65,-64 2199.71,-64 2208.49,-64"/>
<polygon fill="midnightblue" stroke="midnightblue" points="2181.7,-60.5001 2171.7,-64 2181.7,-67.5001 2181.7,-60.5001"/>
</g>
<!-- Node15 -->
<g id="node15" class="node"><title>Node15</title>
<g id="a_node15"><a xlink:href="../../d9/d96/classapplication_1_1_main.html#a18021492af2e457d39edcbd16dc0d3c8" target="_top" xlink:title="application.Main.createImport\lXMLButton">
<polygon fill="white" stroke="black" points="2380.5,-71 2380.5,-101 2539.5,-101 2539.5,-71 2380.5,-71"/>
<text text-anchor="start" x="2388.5" y="-89" font-family="Helvetica,sans-Serif" font-size="10.00">application.Main.createImport</text>
<text text-anchor="middle" x="2460" y="-78" font-family="Helvetica,sans-Serif" font-size="10.00">XMLButton</text>
</a>
</g>
</g>
<!-- Node14&#45;&gt;Node15 -->
<g id="edge15" class="edge"><title>Node14&#45;&gt;Node15</title>
<path fill="none" stroke="midnightblue" d="M2353.87,-73.2923C2362.59,-74.3465 2371.49,-75.4221 2380.24,-76.4792"/>
<polygon fill="midnightblue" stroke="midnightblue" points="2354.08,-69.7925 2343.74,-72.0671 2353.24,-76.7419 2354.08,-69.7925"/>
</g>
<!-- Node15&#45;&gt;Node7 -->
<g id="edge16" class="edge"><title>Node15&#45;&gt;Node7</title>
<path fill="none" stroke="midnightblue" d="M2370.03,-94.5964C2298.5,-100.768 2195.38,-108 2105,-108 1561,-108 1561,-108 1561,-108 1470.76,-108 1367.84,-91.0749 1301.73,-77.9843"/>
<polygon fill="midnightblue" stroke="midnightblue" points="2370.69,-98.0519 2380.35,-93.6945 2370.08,-91.0785 2370.69,-98.0519"/>
</g>
</g>
</svg>
