<?xml version="1.0" encoding="UTF-8" standalone="no"?>
<!DOCTYPE svg PUBLIC "-//W3C//DTD SVG 1.1//EN"
 "http://www.w3.org/Graphics/SVG/1.1/DTD/svg11.dtd">
<!-- Generated by graphviz version 2.36.0 (20140111.2315)
 -->
<!-- Title: application.CellXMLReader.printCellList Pages: 1 -->
<svg width="2180pt" height="145pt"
 viewBox="0.00 0.00 2180.00 145.00" xmlns="http://www.w3.org/2000/svg" xmlns:xlink="http://www.w3.org/1999/xlink">
<g id="graph0" class="graph" transform="scale(1 1) rotate(0) translate(4 141)">
<title>application.CellXMLReader.printCellList</title>
<polygon fill="white" stroke="none" points="-4,4 -4,-141 2176,-141 2176,4 -4,4"/>
<!-- Node1 -->
<g id="node1" class="node"><title>Node1</title>
<polygon fill="#bfbfbf" stroke="black" points="0.5,-13 0.5,-43 165.5,-43 165.5,-13 0.5,-13"/>
<text text-anchor="start" x="8.5" y="-31" font-family="Helvetica,sans-Serif" font-size="10.00">application.CellXMLReader.print</text>
<text text-anchor="middle" x="83" y="-20" font-family="Helvetica,sans-Serif" font-size="10.00">CellList</text>
</g>
<!-- Node2 -->
<g id="node2" class="node"><title>Node2</title>
<g id="a_node2"><a xlink:href="../../d1/dd5/classapplication_1_1_cell_x_m_l_reader.html#a6df22c595f6ab48c2565869a8c111e32" target="_top" xlink:title="application.CellXMLReader.populate\lCellListFromDocument">
<polygon fill="white" stroke="black" points="202.5,-13 202.5,-43 387.5,-43 387.5,-13 202.5,-13"/>
<text text-anchor="start" x="210.5" y="-31" font-family="Helvetica,sans-Serif" font-size="10.00">application.CellXMLReader.populate</text>
<text text-anchor="middle" x="295" y="-20" font-family="Helvetica,sans-Serif" font-size="10.00">CellListFromDocument</text>
</a>
</g>
</g>
<!-- Node1&#45;&gt;Node2 -->
<g id="edge1" class="edge"><title>Node1&#45;&gt;Node2</title>
<path fill="none" stroke="midnightblue" d="M175.984,-28C184.726,-28 193.591,-28 202.33,-28"/>
<polygon fill="midnightblue" stroke="midnightblue" points="175.793,-24.5001 165.793,-28 175.793,-31.5001 175.793,-24.5001"/>
</g>
<!-- Node3 -->
<g id="node3" class="node"><title>Node3</title>
<g id="a_node3"><a xlink:href="../../d9/d96/classapplication_1_1_main.html#aef0593911aa3cbc594ac75bbb8d6a2b0" target="_top" xlink:title="application.Main.activate\lImportXMLButton">
<polygon fill="white" stroke="black" points="424.5,-13 424.5,-43 559.5,-43 559.5,-13 424.5,-13"/>
<text text-anchor="start" x="432.5" y="-31" font-family="Helvetica,sans-Serif" font-size="10.00">application.Main.activate</text>
<text text-anchor="middle" x="492" y="-20" font-family="Helvetica,sans-Serif" font-size="10.00">ImportXMLButton</text>
</a>
</g>
</g>
<!-- Node2&#45;&gt;Node3 -->
<g id="edge2" class="edge"><title>Node2&#45;&gt;Node3</title>
<path fill="none" stroke="midnightblue" d="M397.745,-28C406.812,-28 415.829,-28 424.483,-28"/>
<polygon fill="midnightblue" stroke="midnightblue" points="397.505,-24.5001 387.505,-28 397.505,-31.5001 397.505,-24.5001"/>
</g>
<!-- Node4 -->
<g id="node4" class="node"><title>Node4</title>
<g id="a_node4"><a xlink:href="../../d9/d96/classapplication_1_1_main.html#a18021492af2e457d39edcbd16dc0d3c8" target="_top" xlink:title="application.Main.createImport\lXMLButton">
<polygon fill="white" stroke="black" points="596.5,-42 596.5,-72 755.5,-72 755.5,-42 596.5,-42"/>
<text text-anchor="start" x="604.5" y="-60" font-family="Helvetica,sans-Serif" font-size="10.00">application.Main.createImport</text>
<text text-anchor="middle" x="676" y="-49" font-family="Helvetica,sans-Serif" font-size="10.00">XMLButton</text>
</a>
</g>
</g>
<!-- Node3&#45;&gt;Node4 -->
<g id="edge3" class="edge"><title>Node3&#45;&gt;Node4</title>
<path fill="none" stroke="midnightblue" d="M569.873,-40.249C578.594,-41.6386 587.492,-43.0564 596.237,-44.4498"/>
<polygon fill="midnightblue" stroke="midnightblue" points="570.163,-36.7511 559.737,-38.6339 569.061,-43.6639 570.163,-36.7511"/>
</g>
<!-- Node5 -->
<g id="node5" class="node"><title>Node5</title>
<g id="a_node5"><a xlink:href="../../d9/d96/classapplication_1_1_main.html#a5fee6c1b05965eca9205a99e3245a5fb" target="_top" xlink:title="application.Main.populate\lStartPageModules">
<polygon fill="white" stroke="black" points="792.5,-54 792.5,-84 931.5,-84 931.5,-54 792.5,-54"/>
<text text-anchor="start" x="800.5" y="-72" font-family="Helvetica,sans-Serif" font-size="10.00">application.Main.populate</text>
<text text-anchor="middle" x="862" y="-61" font-family="Helvetica,sans-Serif" font-size="10.00">StartPageModules</text>
</a>
</g>
</g>
<!-- Node4&#45;&gt;Node5 -->
<g id="edge4" class="edge"><title>Node4&#45;&gt;Node5</title>
<path fill="none" stroke="midnightblue" d="M765.636,-62.7806C774.587,-63.3644 783.581,-63.9509 792.278,-64.5181"/>
<polygon fill="midnightblue" stroke="midnightblue" points="765.773,-59.2822 755.566,-62.1239 765.317,-66.2674 765.773,-59.2822"/>
</g>
<!-- Node6 -->
<g id="node6" class="node"><title>Node6</title>
<g id="a_node6"><a xlink:href="../../d9/d96/classapplication_1_1_main.html#a4e5ad4e3de8bbd8654120180a94e870d" target="_top" xlink:title="application.Main.start">
<polygon fill="white" stroke="black" points="968.5,-59.5 968.5,-78.5 1087.5,-78.5 1087.5,-59.5 968.5,-59.5"/>
<text text-anchor="middle" x="1028" y="-66.5" font-family="Helvetica,sans-Serif" font-size="10.00">application.Main.start</text>
</a>
</g>
</g>
<!-- Node5&#45;&gt;Node6 -->
<g id="edge5" class="edge"><title>Node5&#45;&gt;Node6</title>
<path fill="none" stroke="midnightblue" d="M941.677,-69C950.642,-69 959.661,-69 968.302,-69"/>
<polygon fill="midnightblue" stroke="midnightblue" points="941.601,-65.5001 931.601,-69 941.6,-72.5001 941.601,-65.5001"/>
</g>
<!-- Node7 -->
<g id="node7" class="node"><title>Node7</title>
<g id="a_node7"><a xlink:href="../../d9/d96/classapplication_1_1_main.html#ad652e3294ffb6519b18d784d5831c76a" target="_top" xlink:title="application.Main.activate\lReturntoStart">
<polygon fill="white" stroke="black" points="1124.5,-54 1124.5,-84 1259.5,-84 1259.5,-54 1124.5,-54"/>
<text text-anchor="start" x="1132.5" y="-72" font-family="Helvetica,sans-Serif" font-size="10.00">application.Main.activate</text>
<text text-anchor="middle" x="1192" y="-61" font-family="Helvetica,sans-Serif" font-size="10.00">ReturntoStart</text>
</a>
</g>
</g>
<!-- Node6&#45;&gt;Node7 -->
<g id="edge6" class="edge"><title>Node6&#45;&gt;Node7</title>
<path fill="none" stroke="midnightblue" d="M1098.08,-69C1106.81,-69 1115.73,-69 1124.42,-69"/>
<polygon fill="midnightblue" stroke="midnightblue" points="1097.94,-65.5001 1087.94,-69 1097.94,-72.5001 1097.94,-65.5001"/>
</g>
<!-- Node8 -->
<g id="node8" class="node"><title>Node8</title>
<g id="a_node8"><a xlink:href="../../d9/d96/classapplication_1_1_main.html#a4c5877fafc53c4fae488f1f30faf294b" target="_top" xlink:title="application.Main.createReturn\lToStartButton">
<polygon fill="white" stroke="black" points="1296,-54 1296,-84 1454,-84 1454,-54 1296,-54"/>
<text text-anchor="start" x="1304" y="-72" font-family="Helvetica,sans-Serif" font-size="10.00">application.Main.createReturn</text>
<text text-anchor="middle" x="1375" y="-61" font-family="Helvetica,sans-Serif" font-size="10.00">ToStartButton</text>
</a>
</g>
</g>
<!-- Node7&#45;&gt;Node8 -->
<g id="edge7" class="edge"><title>Node7&#45;&gt;Node8</title>
<path fill="none" stroke="midnightblue" d="M1269.7,-69C1278.36,-69 1287.19,-69 1295.87,-69"/>
<polygon fill="midnightblue" stroke="midnightblue" points="1269.63,-65.5001 1259.63,-69 1269.63,-72.5001 1269.63,-65.5001"/>
</g>
<!-- Node9 -->
<g id="node9" class="node"><title>Node9</title>
<g id="a_node9"><a xlink:href="../../d9/d96/classapplication_1_1_main.html#a2ddf30fb8360296e1ad3459fe6f920fb" target="_top" xlink:title="application.Main.populate\lGridPageModules">
<polygon fill="white" stroke="black" points="1490.5,-78 1490.5,-108 1629.5,-108 1629.5,-78 1490.5,-78"/>
<text text-anchor="start" x="1498.5" y="-96" font-family="Helvetica,sans-Serif" font-size="10.00">application.Main.populate</text>
<text text-anchor="middle" x="1560" y="-85" font-family="Helvetica,sans-Serif" font-size="10.00">GridPageModules</text>
</a>
</g>
</g>
<!-- Node8&#45;&gt;Node9 -->
<g id="edge8" class="edge"><title>Node8&#45;&gt;Node9</title>
<path fill="none" stroke="midnightblue" d="M1464.07,-80.5507C1472.91,-81.7089 1481.78,-82.8726 1490.37,-83.9987"/>
<polygon fill="midnightblue" stroke="midnightblue" points="1464.51,-77.0779 1454.14,-79.2478 1463.6,-84.0185 1464.51,-77.0779"/>
</g>
<!-- Node13 -->
<g id="node13" class="node"><title>Node13</title>
<g id="a_node13"><a xlink:href="../../d9/d96/classapplication_1_1_main.html#abcabe1a32eb7b5054cf34ca0def07531" target="_top" xlink:title="application.Main.populate\lErrorPageModules">
<polygon fill="white" stroke="black" points="1490.5,-29 1490.5,-59 1629.5,-59 1629.5,-29 1490.5,-29"/>
<text text-anchor="start" x="1498.5" y="-47" font-family="Helvetica,sans-Serif" font-size="10.00">application.Main.populate</text>
<text text-anchor="middle" x="1560" y="-36" font-family="Helvetica,sans-Serif" font-size="10.00">ErrorPageModules</text>
</a>
</g>
</g>
<!-- Node8&#45;&gt;Node13 -->
<g id="edge13" class="edge"><title>Node8&#45;&gt;Node13</title>
<path fill="none" stroke="midnightblue" d="M1464.07,-56.968C1472.91,-55.7616 1481.78,-54.5493 1490.37,-53.3763"/>
<polygon fill="midnightblue" stroke="midnightblue" points="1463.57,-53.5038 1454.14,-58.3252 1464.52,-60.4394 1463.57,-53.5038"/>
</g>
<!-- Node10 -->
<g id="node10" class="node"><title>Node10</title>
<g id="a_node10"><a xlink:href="../../d9/d96/classapplication_1_1_main.html#adc868cfca1990edad66af3dcb8cf4349" target="_top" xlink:title="application.Main.playGame">
<polygon fill="white" stroke="black" points="1666,-83.5 1666,-102.5 1812,-102.5 1812,-83.5 1666,-83.5"/>
<text text-anchor="middle" x="1739" y="-90.5" font-family="Helvetica,sans-Serif" font-size="10.00">application.Main.playGame</text>
</a>
</g>
</g>
<!-- Node9&#45;&gt;Node10 -->
<g id="edge9" class="edge"><title>Node9&#45;&gt;Node10</title>
<path fill="none" stroke="midnightblue" d="M1639.79,-93C1648.46,-93 1657.26,-93 1665.84,-93"/>
<polygon fill="midnightblue" stroke="midnightblue" points="1639.69,-89.5001 1629.69,-93 1639.69,-96.5001 1639.69,-89.5001"/>
</g>
<!-- Node11 -->
<g id="node11" class="node"><title>Node11</title>
<g id="a_node11"><a xlink:href="../../d9/d96/classapplication_1_1_main.html#ada0f47786d75e28e627d2621d75eaf5a" target="_top" xlink:title="application.Main.activate\lStartButton">
<polygon fill="white" stroke="black" points="1848.5,-78 1848.5,-108 1983.5,-108 1983.5,-78 1848.5,-78"/>
<text text-anchor="start" x="1856.5" y="-96" font-family="Helvetica,sans-Serif" font-size="10.00">application.Main.activate</text>
<text text-anchor="middle" x="1916" y="-85" font-family="Helvetica,sans-Serif" font-size="10.00">StartButton</text>
</a>
</g>
</g>
<!-- Node10&#45;&gt;Node11 -->
<g id="edge10" class="edge"><title>Node10&#45;&gt;Node11</title>
<path fill="none" stroke="midnightblue" d="M1822.35,-93C1831.05,-93 1839.82,-93 1848.31,-93"/>
<polygon fill="midnightblue" stroke="midnightblue" points="1822.19,-89.5001 1812.19,-93 1822.19,-96.5001 1822.19,-89.5001"/>
</g>
<!-- Node12 -->
<g id="node12" class="node"><title>Node12</title>
<g id="a_node12"><a xlink:href="../../d9/d96/classapplication_1_1_main.html#a64e6451d894979853890a235efe37db8" target="_top" xlink:title="application.Main.createStart\lGameButton">
<polygon fill="white" stroke="black" points="2020,-100 2020,-130 2172,-130 2172,-100 2020,-100"/>
<text text-anchor="start" x="2028" y="-118" font-family="Helvetica,sans-Serif" font-size="10.00">application.Main.createStart</text>
<text text-anchor="middle" x="2096" y="-107" font-family="Helvetica,sans-Serif" font-size="10.00">GameButton</text>
</a>
</g>
</g>
<!-- Node11&#45;&gt;Node12 -->
<g id="edge11" class="edge"><title>Node11&#45;&gt;Node12</title>
<path fill="none" stroke="midnightblue" d="M1993.65,-102.473C2002.34,-103.548 2011.2,-104.642 2019.87,-105.714"/>
<polygon fill="midnightblue" stroke="midnightblue" points="1993.89,-98.9764 1983.53,-101.223 1993.03,-105.924 1993.89,-98.9764"/>
</g>
<!-- Node12&#45;&gt;Node5 -->
<g id="edge12" class="edge"><title>Node12&#45;&gt;Node5</title>
<path fill="none" stroke="midnightblue" d="M2009.59,-123.267C1937.74,-129.507 1832.26,-137 1740,-137 1191,-137 1191,-137 1191,-137 1087.34,-137 969.013,-104.032 906.702,-84.0071"/>
<polygon fill="midnightblue" stroke="midnightblue" points="2010.29,-126.719 2019.94,-122.356 2009.67,-119.746 2010.29,-126.719"/>
</g>
<!-- Node14 -->
<g id="node14" class="node"><title>Node14</title>
<g id="a_node14"><a xlink:href="../../d9/d96/classapplication_1_1_main.html#a81e70f73d65beae34c459628791cc5d4" target="_top" xlink:title="application.Main.activate\lErrorPage">
<polygon fill="white" stroke="black" points="1671.5,-7 1671.5,-37 1806.5,-37 1806.5,-7 1671.5,-7"/>
<text text-anchor="start" x="1679.5" y="-25" font-family="Helvetica,sans-Serif" font-size="10.00">application.Main.activate</text>
<text text-anchor="middle" x="1739" y="-14" font-family="Helvetica,sans-Serif" font-size="10.00">ErrorPage</text>
</a>
</g>
</g>
<!-- Node13&#45;&gt;Node14 -->
<g id="edge14" class="edge"><title>Node13&#45;&gt;Node14</title>
<path fill="none" stroke="midnightblue" d="M1639.74,-34.2133C1650.3,-32.9 1661.06,-31.5634 1671.39,-30.2795"/>
<polygon fill="midnightblue" stroke="midnightblue" points="1639.18,-30.7559 1629.69,-35.4627 1640.04,-37.7025 1639.18,-30.7559"/>
</g>
<!-- Node14&#45;&gt;Node3 -->
<g id="edge15" class="edge"><title>Node14&#45;&gt;Node3</title>
<path fill="none" stroke="midnightblue" d="M1661.3,-14.6294C1588.08,-8.23585 1474.62,-0 1376,-0 861,-0 861,-0 861,-0 755.439,-1.42109e-14 633.335,-11.5966 559.699,-19.8636"/>
<polygon fill="midnightblue" stroke="midnightblue" points="1661.08,-18.1243 1671.35,-15.5183 1661.7,-11.1515 1661.08,-18.1243"/>
</g>
</g>
</svg>
