<?xml version="1.0" encoding="UTF-8" standalone="no"?>
<!DOCTYPE svg PUBLIC "-//W3C//DTD SVG 1.1//EN"
 "http://www.w3.org/Graphics/SVG/1.1/DTD/svg11.dtd">
<!-- Generated by graphviz version 2.36.0 (20140111.2315)
 -->
<!-- Title: application.CellXMLReader.loadAttributesIntoCell Pages: 1 -->
<svg width="2178pt" height="145pt"
 viewBox="0.00 0.00 2178.00 145.00" xmlns="http://www.w3.org/2000/svg" xmlns:xlink="http://www.w3.org/1999/xlink">
<g id="graph0" class="graph" transform="scale(1 1) rotate(0) translate(4 141)">
<title>application.CellXMLReader.loadAttributesIntoCell</title>
<polygon fill="white" stroke="none" points="-4,4 -4,-141 2174,-141 2174,4 -4,4"/>
<!-- Node1 -->
<g id="node1" class="node"><title>Node1</title>
<polygon fill="#bfbfbf" stroke="black" points="0,-13 0,-43 164,-43 164,-13 0,-13"/>
<text text-anchor="start" x="8" y="-31" font-family="Helvetica,sans-Serif" font-size="10.00">application.CellXMLReader.load</text>
<text text-anchor="middle" x="82" y="-20" font-family="Helvetica,sans-Serif" font-size="10.00">AttributesIntoCell</text>
</g>
<!-- Node2 -->
<g id="node2" class="node"><title>Node2</title>
<g id="a_node2"><a xlink:href="../../d1/dd5/classapplication_1_1_cell_x_m_l_reader.html#a6df22c595f6ab48c2565869a8c111e32" target="_top" xlink:title="application.CellXMLReader.populate\lCellListFromDocument">
<polygon fill="white" stroke="black" points="200.5,-13 200.5,-43 385.5,-43 385.5,-13 200.5,-13"/>
<text text-anchor="start" x="208.5" y="-31" font-family="Helvetica,sans-Serif" font-size="10.00">application.CellXMLReader.populate</text>
<text text-anchor="middle" x="293" y="-20" font-family="Helvetica,sans-Serif" font-size="10.00">CellListFromDocument</text>
</a>
</g>
</g>
<!-- Node1&#45;&gt;Node2 -->
<g id="edge1" class="edge"><title>Node1&#45;&gt;Node2</title>
<path fill="none" stroke="midnightblue" d="M174.161,-28C182.789,-28 191.54,-28 200.175,-28"/>
<polygon fill="midnightblue" stroke="midnightblue" points="174.104,-24.5001 164.104,-28 174.104,-31.5001 174.104,-24.5001"/>
</g>
<!-- Node3 -->
<g id="node3" class="node"><title>Node3</title>
<g id="a_node3"><a xlink:href="../../d9/d96/classapplication_1_1_main.html#aef0593911aa3cbc594ac75bbb8d6a2b0" target="_top" xlink:title="application.Main.activate\lImportXMLButton">
<polygon fill="white" stroke="black" points="422.5,-13 422.5,-43 557.5,-43 557.5,-13 422.5,-13"/>
<text text-anchor="start" x="430.5" y="-31" font-family="Helvetica,sans-Serif" font-size="10.00">application.Main.activate</text>
<text text-anchor="middle" x="490" y="-20" font-family="Helvetica,sans-Serif" font-size="10.00">ImportXMLButton</text>
</a>
</g>
</g>
<!-- Node2&#45;&gt;Node3 -->
<g id="edge2" class="edge"><title>Node2&#45;&gt;Node3</title>
<path fill="none" stroke="midnightblue" d="M395.745,-28C404.812,-28 413.829,-28 422.483,-28"/>
<polygon fill="midnightblue" stroke="midnightblue" points="395.505,-24.5001 385.505,-28 395.505,-31.5001 395.505,-24.5001"/>
</g>
<!-- Node4 -->
<g id="node4" class="node"><title>Node4</title>
<g id="a_node4"><a xlink:href="../../d9/d96/classapplication_1_1_main.html#a18021492af2e457d39edcbd16dc0d3c8" target="_top" xlink:title="application.Main.createImport\lXMLButton">
<polygon fill="white" stroke="black" points="594.5,-42 594.5,-72 753.5,-72 753.5,-42 594.5,-42"/>
<text text-anchor="start" x="602.5" y="-60" font-family="Helvetica,sans-Serif" font-size="10.00">application.Main.createImport</text>
<text text-anchor="middle" x="674" y="-49" font-family="Helvetica,sans-Serif" font-size="10.00">XMLButton</text>
</a>
</g>
</g>
<!-- Node3&#45;&gt;Node4 -->
<g id="edge3" class="edge"><title>Node3&#45;&gt;Node4</title>
<path fill="none" stroke="midnightblue" d="M567.873,-40.249C576.594,-41.6386 585.492,-43.0564 594.237,-44.4498"/>
<polygon fill="midnightblue" stroke="midnightblue" points="568.163,-36.7511 557.737,-38.6339 567.061,-43.6639 568.163,-36.7511"/>
</g>
<!-- Node5 -->
<g id="node5" class="node"><title>Node5</title>
<g id="a_node5"><a xlink:href="../../d9/d96/classapplication_1_1_main.html#a5fee6c1b05965eca9205a99e3245a5fb" target="_top" xlink:title="application.Main.populate\lStartPageModules">
<polygon fill="white" stroke="black" points="790.5,-54 790.5,-84 929.5,-84 929.5,-54 790.5,-54"/>
<text text-anchor="start" x="798.5" y="-72" font-family="Helvetica,sans-Serif" font-size="10.00">application.Main.populate</text>
<text text-anchor="middle" x="860" y="-61" font-family="Helvetica,sans-Serif" font-size="10.00">StartPageModules</text>
</a>
</g>
</g>
<!-- Node4&#45;&gt;Node5 -->
<g id="edge4" class="edge"><title>Node4&#45;&gt;Node5</title>
<path fill="none" stroke="midnightblue" d="M763.636,-62.7806C772.587,-63.3644 781.581,-63.9509 790.278,-64.5181"/>
<polygon fill="midnightblue" stroke="midnightblue" points="763.773,-59.2822 753.566,-62.1239 763.317,-66.2674 763.773,-59.2822"/>
</g>
<!-- Node6 -->
<g id="node6" class="node"><title>Node6</title>
<g id="a_node6"><a xlink:href="../../d9/d96/classapplication_1_1_main.html#a4e5ad4e3de8bbd8654120180a94e870d" target="_top" xlink:title="application.Main.start">
<polygon fill="white" stroke="black" points="966.5,-59.5 966.5,-78.5 1085.5,-78.5 1085.5,-59.5 966.5,-59.5"/>
<text text-anchor="middle" x="1026" y="-66.5" font-family="Helvetica,sans-Serif" font-size="10.00">application.Main.start</text>
</a>
</g>
</g>
<!-- Node5&#45;&gt;Node6 -->
<g id="edge5" class="edge"><title>Node5&#45;&gt;Node6</title>
<path fill="none" stroke="midnightblue" d="M939.677,-69C948.642,-69 957.661,-69 966.302,-69"/>
<polygon fill="midnightblue" stroke="midnightblue" points="939.601,-65.5001 929.601,-69 939.6,-72.5001 939.601,-65.5001"/>
</g>
<!-- Node7 -->
<g id="node7" class="node"><title>Node7</title>
<g id="a_node7"><a xlink:href="../../d9/d96/classapplication_1_1_main.html#ad652e3294ffb6519b18d784d5831c76a" target="_top" xlink:title="application.Main.activate\lReturntoStart">
<polygon fill="white" stroke="black" points="1122.5,-54 1122.5,-84 1257.5,-84 1257.5,-54 1122.5,-54"/>
<text text-anchor="start" x="1130.5" y="-72" font-family="Helvetica,sans-Serif" font-size="10.00">application.Main.activate</text>
<text text-anchor="middle" x="1190" y="-61" font-family="Helvetica,sans-Serif" font-size="10.00">ReturntoStart</text>
</a>
</g>
</g>
<!-- Node6&#45;&gt;Node7 -->
<g id="edge6" class="edge"><title>Node6&#45;&gt;Node7</title>
<path fill="none" stroke="midnightblue" d="M1096.08,-69C1104.81,-69 1113.73,-69 1122.42,-69"/>
<polygon fill="midnightblue" stroke="midnightblue" points="1095.94,-65.5001 1085.94,-69 1095.94,-72.5001 1095.94,-65.5001"/>
</g>
<!-- Node8 -->
<g id="node8" class="node"><title>Node8</title>
<g id="a_node8"><a xlink:href="../../d9/d96/classapplication_1_1_main.html#a4c5877fafc53c4fae488f1f30faf294b" target="_top" xlink:title="application.Main.createReturn\lToStartButton">
<polygon fill="white" stroke="black" points="1294,-54 1294,-84 1452,-84 1452,-54 1294,-54"/>
<text text-anchor="start" x="1302" y="-72" font-family="Helvetica,sans-Serif" font-size="10.00">application.Main.createReturn</text>
<text text-anchor="middle" x="1373" y="-61" font-family="Helvetica,sans-Serif" font-size="10.00">ToStartButton</text>
</a>
</g>
</g>
<!-- Node7&#45;&gt;Node8 -->
<g id="edge7" class="edge"><title>Node7&#45;&gt;Node8</title>
<path fill="none" stroke="midnightblue" d="M1267.7,-69C1276.36,-69 1285.19,-69 1293.87,-69"/>
<polygon fill="midnightblue" stroke="midnightblue" points="1267.63,-65.5001 1257.63,-69 1267.63,-72.5001 1267.63,-65.5001"/>
</g>
<!-- Node9 -->
<g id="node9" class="node"><title>Node9</title>
<g id="a_node9"><a xlink:href="../../d9/d96/classapplication_1_1_main.html#a2ddf30fb8360296e1ad3459fe6f920fb" target="_top" xlink:title="application.Main.populate\lGridPageModules">
<polygon fill="white" stroke="black" points="1488.5,-78 1488.5,-108 1627.5,-108 1627.5,-78 1488.5,-78"/>
<text text-anchor="start" x="1496.5" y="-96" font-family="Helvetica,sans-Serif" font-size="10.00">application.Main.populate</text>
<text text-anchor="middle" x="1558" y="-85" font-family="Helvetica,sans-Serif" font-size="10.00">GridPageModules</text>
</a>
</g>
</g>
<!-- Node8&#45;&gt;Node9 -->
<g id="edge8" class="edge"><title>Node8&#45;&gt;Node9</title>
<path fill="none" stroke="midnightblue" d="M1462.07,-80.5507C1470.91,-81.7089 1479.78,-82.8726 1488.37,-83.9987"/>
<polygon fill="midnightblue" stroke="midnightblue" points="1462.51,-77.0779 1452.14,-79.2478 1461.6,-84.0185 1462.51,-77.0779"/>
</g>
<!-- Node13 -->
<g id="node13" class="node"><title>Node13</title>
<g id="a_node13"><a xlink:href="../../d9/d96/classapplication_1_1_main.html#abcabe1a32eb7b5054cf34ca0def07531" target="_top" xlink:title="application.Main.populate\lErrorPageModules">
<polygon fill="white" stroke="black" points="1488.5,-29 1488.5,-59 1627.5,-59 1627.5,-29 1488.5,-29"/>
<text text-anchor="start" x="1496.5" y="-47" font-family="Helvetica,sans-Serif" font-size="10.00">application.Main.populate</text>
<text text-anchor="middle" x="1558" y="-36" font-family="Helvetica,sans-Serif" font-size="10.00">ErrorPageModules</text>
</a>
</g>
</g>
<!-- Node8&#45;&gt;Node13 -->
<g id="edge13" class="edge"><title>Node8&#45;&gt;Node13</title>
<path fill="none" stroke="midnightblue" d="M1462.07,-56.968C1470.91,-55.7616 1479.78,-54.5493 1488.37,-53.3763"/>
<polygon fill="midnightblue" stroke="midnightblue" points="1461.57,-53.5038 1452.14,-58.3252 1462.52,-60.4394 1461.57,-53.5038"/>
</g>
<!-- Node10 -->
<g id="node10" class="node"><title>Node10</title>
<g id="a_node10"><a xlink:href="../../d9/d96/classapplication_1_1_main.html#adc868cfca1990edad66af3dcb8cf4349" target="_top" xlink:title="application.Main.playGame">
<polygon fill="white" stroke="black" points="1664,-83.5 1664,-102.5 1810,-102.5 1810,-83.5 1664,-83.5"/>
<text text-anchor="middle" x="1737" y="-90.5" font-family="Helvetica,sans-Serif" font-size="10.00">application.Main.playGame</text>
</a>
</g>
</g>
<!-- Node9&#45;&gt;Node10 -->
<g id="edge9" class="edge"><title>Node9&#45;&gt;Node10</title>
<path fill="none" stroke="midnightblue" d="M1637.79,-93C1646.46,-93 1655.26,-93 1663.84,-93"/>
<polygon fill="midnightblue" stroke="midnightblue" points="1637.69,-89.5001 1627.69,-93 1637.69,-96.5001 1637.69,-89.5001"/>
</g>
<!-- Node11 -->
<g id="node11" class="node"><title>Node11</title>
<g id="a_node11"><a xlink:href="../../d9/d96/classapplication_1_1_main.html#ada0f47786d75e28e627d2621d75eaf5a" target="_top" xlink:title="application.Main.activate\lStartButton">
<polygon fill="white" stroke="black" points="1846.5,-78 1846.5,-108 1981.5,-108 1981.5,-78 1846.5,-78"/>
<text text-anchor="start" x="1854.5" y="-96" font-family="Helvetica,sans-Serif" font-size="10.00">application.Main.activate</text>
<text text-anchor="middle" x="1914" y="-85" font-family="Helvetica,sans-Serif" font-size="10.00">StartButton</text>
</a>
</g>
</g>
<!-- Node10&#45;&gt;Node11 -->
<g id="edge10" class="edge"><title>Node10&#45;&gt;Node11</title>
<path fill="none" stroke="midnightblue" d="M1820.35,-93C1829.05,-93 1837.82,-93 1846.31,-93"/>
<polygon fill="midnightblue" stroke="midnightblue" points="1820.19,-89.5001 1810.19,-93 1820.19,-96.5001 1820.19,-89.5001"/>
</g>
<!-- Node12 -->
<g id="node12" class="node"><title>Node12</title>
<g id="a_node12"><a xlink:href="../../d9/d96/classapplication_1_1_main.html#a64e6451d894979853890a235efe37db8" target="_top" xlink:title="application.Main.createStart\lGameButton">
<polygon fill="white" stroke="black" points="2018,-100 2018,-130 2170,-130 2170,-100 2018,-100"/>
<text text-anchor="start" x="2026" y="-118" font-family="Helvetica,sans-Serif" font-size="10.00">application.Main.createStart</text>
<text text-anchor="middle" x="2094" y="-107" font-family="Helvetica,sans-Serif" font-size="10.00">GameButton</text>
</a>
</g>
</g>
<!-- Node11&#45;&gt;Node12 -->
<g id="edge11" class="edge"><title>Node11&#45;&gt;Node12</title>
<path fill="none" stroke="midnightblue" d="M1991.65,-102.473C2000.34,-103.548 2009.2,-104.642 2017.87,-105.714"/>
<polygon fill="midnightblue" stroke="midnightblue" points="1991.89,-98.9764 1981.53,-101.223 1991.03,-105.924 1991.89,-98.9764"/>
</g>
<!-- Node12&#45;&gt;Node5 -->
<g id="edge12" class="edge"><title>Node12&#45;&gt;Node5</title>
<path fill="none" stroke="midnightblue" d="M2007.59,-123.267C1935.74,-129.507 1830.26,-137 1738,-137 1189,-137 1189,-137 1189,-137 1085.34,-137 967.013,-104.032 904.702,-84.0071"/>
<polygon fill="midnightblue" stroke="midnightblue" points="2008.29,-126.719 2017.94,-122.356 2007.67,-119.746 2008.29,-126.719"/>
</g>
<!-- Node14 -->
<g id="node14" class="node"><title>Node14</title>
<g id="a_node14"><a xlink:href="../../d9/d96/classapplication_1_1_main.html#a81e70f73d65beae34c459628791cc5d4" target="_top" xlink:title="application.Main.activate\lErrorPage">
<polygon fill="white" stroke="black" points="1669.5,-7 1669.5,-37 1804.5,-37 1804.5,-7 1669.5,-7"/>
<text text-anchor="start" x="1677.5" y="-25" font-family="Helvetica,sans-Serif" font-size="10.00">application.Main.activate</text>
<text text-anchor="middle" x="1737" y="-14" font-family="Helvetica,sans-Serif" font-size="10.00">ErrorPage</text>
</a>
</g>
</g>
<!-- Node13&#45;&gt;Node14 -->
<g id="edge14" class="edge"><title>Node13&#45;&gt;Node14</title>
<path fill="none" stroke="midnightblue" d="M1637.74,-34.2133C1648.3,-32.9 1659.06,-31.5634 1669.39,-30.2795"/>
<polygon fill="midnightblue" stroke="midnightblue" points="1637.18,-30.7559 1627.69,-35.4627 1638.04,-37.7025 1637.18,-30.7559"/>
</g>
<!-- Node14&#45;&gt;Node3 -->
<g id="edge15" class="edge"><title>Node14&#45;&gt;Node3</title>
<path fill="none" stroke="midnightblue" d="M1659.3,-14.6294C1586.08,-8.23585 1472.62,-0 1374,-0 859,-0 859,-0 859,-0 753.439,-1.42109e-14 631.335,-11.5966 557.699,-19.8636"/>
<polygon fill="midnightblue" stroke="midnightblue" points="1659.08,-18.1243 1669.35,-15.5183 1659.7,-11.1515 1659.08,-18.1243"/>
</g>
</g>
</svg>
