<?xml version="1.0" encoding="UTF-8" standalone="no"?>
<!DOCTYPE svg PUBLIC "-//W3C//DTD SVG 1.1//EN"
 "http://www.w3.org/Graphics/SVG/1.1/DTD/svg11.dtd">
<!-- Generated by graphviz version 2.36.0 (20140111.2315)
 -->
<!-- Title: application.CellXMLReader.configureModelParameters Pages: 1 -->
<svg width="390pt" height="87pt"
 viewBox="0.00 0.00 390.00 87.00" xmlns="http://www.w3.org/2000/svg" xmlns:xlink="http://www.w3.org/1999/xlink">
<g id="graph0" class="graph" transform="scale(1 1) rotate(0) translate(4 83)">
<title>application.CellXMLReader.configureModelParameters</title>
<polygon fill="white" stroke="none" points="-4,4 -4,-83 386,-83 386,4 -4,4"/>
<!-- Node1 -->
<g id="node1" class="node"><title>Node1</title>
<polygon fill="#bfbfbf" stroke="black" points="0,-24 0,-54 188,-54 188,-24 0,-24"/>
<text text-anchor="start" x="8" y="-42" font-family="Helvetica,sans-Serif" font-size="10.00">application.CellXMLReader.configure</text>
<text text-anchor="middle" x="94" y="-31" font-family="Helvetica,sans-Serif" font-size="10.00">ModelParameters</text>
</g>
<!-- Node2 -->
<g id="node2" class="node"><title>Node2</title>
<g id="a_node2"><a xlink:href="../../d1/dd5/classapplication_1_1_cell_x_m_l_reader.html#a0da30d2f39428d1e187fb1e779c09956" target="_top" xlink:title="application.CellXMLReader.set\lColorScheme">
<polygon fill="white" stroke="black" points="224,-49 224,-79 382,-79 382,-49 224,-49"/>
<text text-anchor="start" x="232" y="-67" font-family="Helvetica,sans-Serif" font-size="10.00">application.CellXMLReader.set</text>
<text text-anchor="middle" x="303" y="-56" font-family="Helvetica,sans-Serif" font-size="10.00">ColorScheme</text>
</a>
</g>
</g>
<!-- Node1&#45;&gt;Node2 -->
<g id="edge1" class="edge"><title>Node1&#45;&gt;Node2</title>
<path fill="none" stroke="midnightblue" d="M188.206,-50.2567C196.674,-51.2795 205.235,-52.3134 213.659,-53.3308"/>
<polygon fill="midnightblue" stroke="midnightblue" points="213.504,-56.8374 223.852,-54.5618 214.343,-49.8879 213.504,-56.8374"/>
</g>
<!-- Node3 -->
<g id="node3" class="node"><title>Node3</title>
<g id="a_node3"><a xlink:href="../../d1/dd5/classapplication_1_1_cell_x_m_l_reader.html#a9e9eba223b4a1ff64b3cbe681209193c" target="_top" xlink:title="application.CellXMLReader.set\lWaTorVariables">
<polygon fill="white" stroke="black" points="224,-0 224,-30 382,-30 382,-0 224,-0"/>
<text text-anchor="start" x="232" y="-18" font-family="Helvetica,sans-Serif" font-size="10.00">application.CellXMLReader.set</text>
<text text-anchor="middle" x="303" y="-7" font-family="Helvetica,sans-Serif" font-size="10.00">WaTorVariables</text>
</a>
</g>
</g>
<!-- Node1&#45;&gt;Node3 -->
<g id="edge2" class="edge"><title>Node1&#45;&gt;Node3</title>
<path fill="none" stroke="midnightblue" d="M188.206,-28.1936C196.674,-27.2117 205.235,-26.2191 213.659,-25.2424"/>
<polygon fill="midnightblue" stroke="midnightblue" points="214.321,-28.6892 223.852,-24.0607 213.515,-21.7358 214.321,-28.6892"/>
</g>
</g>
</svg>
