<?xml version="1.0" encoding="UTF-8" standalone="no"?>
<!DOCTYPE svg PUBLIC "-//W3C//DTD SVG 1.1//EN"
 "http://www.w3.org/Graphics/SVG/1.1/DTD/svg11.dtd">
<!-- Generated by graphviz version 2.36.0 (20140111.2315)
 -->
<!-- Title: application.CellXMLReader.loadAndParseXMLFile Pages: 1 -->
<svg width="1956pt" height="145pt"
 viewBox="0.00 0.00 1956.00 145.00" xmlns="http://www.w3.org/2000/svg" xmlns:xlink="http://www.w3.org/1999/xlink">
<g id="graph0" class="graph" transform="scale(1 1) rotate(0) translate(4 141)">
<title>application.CellXMLReader.loadAndParseXMLFile</title>
<polygon fill="white" stroke="none" points="-4,4 -4,-141 1952,-141 1952,4 -4,4"/>
<!-- Node1 -->
<g id="node1" class="node"><title>Node1</title>
<polygon fill="#bfbfbf" stroke="black" points="0,-13 0,-43 164,-43 164,-13 0,-13"/>
<text text-anchor="start" x="8" y="-31" font-family="Helvetica,sans-Serif" font-size="10.00">application.CellXMLReader.load</text>
<text text-anchor="middle" x="82" y="-20" font-family="Helvetica,sans-Serif" font-size="10.00">AndParseXMLFile</text>
</g>
<!-- Node2 -->
<g id="node2" class="node"><title>Node2</title>
<g id="a_node2"><a xlink:href="../../d9/d96/classapplication_1_1_main.html#aef0593911aa3cbc594ac75bbb8d6a2b0" target="_top" xlink:title="application.Main.activate\lImportXMLButton">
<polygon fill="white" stroke="black" points="200.5,-13 200.5,-43 335.5,-43 335.5,-13 200.5,-13"/>
<text text-anchor="start" x="208.5" y="-31" font-family="Helvetica,sans-Serif" font-size="10.00">application.Main.activate</text>
<text text-anchor="middle" x="268" y="-20" font-family="Helvetica,sans-Serif" font-size="10.00">ImportXMLButton</text>
</a>
</g>
</g>
<!-- Node1&#45;&gt;Node2 -->
<g id="edge1" class="edge"><title>Node1&#45;&gt;Node2</title>
<path fill="none" stroke="midnightblue" d="M174.435,-28C183.137,-28 191.846,-28 200.251,-28"/>
<polygon fill="midnightblue" stroke="midnightblue" points="174.241,-24.5001 164.241,-28 174.241,-31.5001 174.241,-24.5001"/>
</g>
<!-- Node3 -->
<g id="node3" class="node"><title>Node3</title>
<g id="a_node3"><a xlink:href="../../d9/d96/classapplication_1_1_main.html#a18021492af2e457d39edcbd16dc0d3c8" target="_top" xlink:title="application.Main.createImport\lXMLButton">
<polygon fill="white" stroke="black" points="372.5,-42 372.5,-72 531.5,-72 531.5,-42 372.5,-42"/>
<text text-anchor="start" x="380.5" y="-60" font-family="Helvetica,sans-Serif" font-size="10.00">application.Main.createImport</text>
<text text-anchor="middle" x="452" y="-49" font-family="Helvetica,sans-Serif" font-size="10.00">XMLButton</text>
</a>
</g>
</g>
<!-- Node2&#45;&gt;Node3 -->
<g id="edge2" class="edge"><title>Node2&#45;&gt;Node3</title>
<path fill="none" stroke="midnightblue" d="M345.873,-40.249C354.594,-41.6386 363.492,-43.0564 372.237,-44.4498"/>
<polygon fill="midnightblue" stroke="midnightblue" points="346.163,-36.7511 335.737,-38.6339 345.061,-43.6639 346.163,-36.7511"/>
</g>
<!-- Node4 -->
<g id="node4" class="node"><title>Node4</title>
<g id="a_node4"><a xlink:href="../../d9/d96/classapplication_1_1_main.html#a5fee6c1b05965eca9205a99e3245a5fb" target="_top" xlink:title="application.Main.populate\lStartPageModules">
<polygon fill="white" stroke="black" points="568.5,-54 568.5,-84 707.5,-84 707.5,-54 568.5,-54"/>
<text text-anchor="start" x="576.5" y="-72" font-family="Helvetica,sans-Serif" font-size="10.00">application.Main.populate</text>
<text text-anchor="middle" x="638" y="-61" font-family="Helvetica,sans-Serif" font-size="10.00">StartPageModules</text>
</a>
</g>
</g>
<!-- Node3&#45;&gt;Node4 -->
<g id="edge3" class="edge"><title>Node3&#45;&gt;Node4</title>
<path fill="none" stroke="midnightblue" d="M541.636,-62.7806C550.587,-63.3644 559.581,-63.9509 568.278,-64.5181"/>
<polygon fill="midnightblue" stroke="midnightblue" points="541.773,-59.2822 531.566,-62.1239 541.317,-66.2674 541.773,-59.2822"/>
</g>
<!-- Node5 -->
<g id="node5" class="node"><title>Node5</title>
<g id="a_node5"><a xlink:href="../../d9/d96/classapplication_1_1_main.html#a4e5ad4e3de8bbd8654120180a94e870d" target="_top" xlink:title="application.Main.start">
<polygon fill="white" stroke="black" points="744.5,-59.5 744.5,-78.5 863.5,-78.5 863.5,-59.5 744.5,-59.5"/>
<text text-anchor="middle" x="804" y="-66.5" font-family="Helvetica,sans-Serif" font-size="10.00">application.Main.start</text>
</a>
</g>
</g>
<!-- Node4&#45;&gt;Node5 -->
<g id="edge4" class="edge"><title>Node4&#45;&gt;Node5</title>
<path fill="none" stroke="midnightblue" d="M717.677,-69C726.642,-69 735.661,-69 744.302,-69"/>
<polygon fill="midnightblue" stroke="midnightblue" points="717.601,-65.5001 707.601,-69 717.6,-72.5001 717.601,-65.5001"/>
</g>
<!-- Node6 -->
<g id="node6" class="node"><title>Node6</title>
<g id="a_node6"><a xlink:href="../../d9/d96/classapplication_1_1_main.html#ad652e3294ffb6519b18d784d5831c76a" target="_top" xlink:title="application.Main.activate\lReturntoStart">
<polygon fill="white" stroke="black" points="900.5,-54 900.5,-84 1035.5,-84 1035.5,-54 900.5,-54"/>
<text text-anchor="start" x="908.5" y="-72" font-family="Helvetica,sans-Serif" font-size="10.00">application.Main.activate</text>
<text text-anchor="middle" x="968" y="-61" font-family="Helvetica,sans-Serif" font-size="10.00">ReturntoStart</text>
</a>
</g>
</g>
<!-- Node5&#45;&gt;Node6 -->
<g id="edge5" class="edge"><title>Node5&#45;&gt;Node6</title>
<path fill="none" stroke="midnightblue" d="M874.08,-69C882.81,-69 891.729,-69 900.419,-69"/>
<polygon fill="midnightblue" stroke="midnightblue" points="873.944,-65.5001 863.944,-69 873.944,-72.5001 873.944,-65.5001"/>
</g>
<!-- Node7 -->
<g id="node7" class="node"><title>Node7</title>
<g id="a_node7"><a xlink:href="../../d9/d96/classapplication_1_1_main.html#a4c5877fafc53c4fae488f1f30faf294b" target="_top" xlink:title="application.Main.createReturn\lToStartButton">
<polygon fill="white" stroke="black" points="1072,-54 1072,-84 1230,-84 1230,-54 1072,-54"/>
<text text-anchor="start" x="1080" y="-72" font-family="Helvetica,sans-Serif" font-size="10.00">application.Main.createReturn</text>
<text text-anchor="middle" x="1151" y="-61" font-family="Helvetica,sans-Serif" font-size="10.00">ToStartButton</text>
</a>
</g>
</g>
<!-- Node6&#45;&gt;Node7 -->
<g id="edge6" class="edge"><title>Node6&#45;&gt;Node7</title>
<path fill="none" stroke="midnightblue" d="M1045.7,-69C1054.36,-69 1063.19,-69 1071.87,-69"/>
<polygon fill="midnightblue" stroke="midnightblue" points="1045.63,-65.5001 1035.63,-69 1045.63,-72.5001 1045.63,-65.5001"/>
</g>
<!-- Node8 -->
<g id="node8" class="node"><title>Node8</title>
<g id="a_node8"><a xlink:href="../../d9/d96/classapplication_1_1_main.html#a2ddf30fb8360296e1ad3459fe6f920fb" target="_top" xlink:title="application.Main.populate\lGridPageModules">
<polygon fill="white" stroke="black" points="1266.5,-78 1266.5,-108 1405.5,-108 1405.5,-78 1266.5,-78"/>
<text text-anchor="start" x="1274.5" y="-96" font-family="Helvetica,sans-Serif" font-size="10.00">application.Main.populate</text>
<text text-anchor="middle" x="1336" y="-85" font-family="Helvetica,sans-Serif" font-size="10.00">GridPageModules</text>
</a>
</g>
</g>
<!-- Node7&#45;&gt;Node8 -->
<g id="edge7" class="edge"><title>Node7&#45;&gt;Node8</title>
<path fill="none" stroke="midnightblue" d="M1240.07,-80.5507C1248.91,-81.7089 1257.78,-82.8726 1266.37,-83.9987"/>
<polygon fill="midnightblue" stroke="midnightblue" points="1240.51,-77.0779 1230.14,-79.2478 1239.6,-84.0185 1240.51,-77.0779"/>
</g>
<!-- Node12 -->
<g id="node12" class="node"><title>Node12</title>
<g id="a_node12"><a xlink:href="../../d9/d96/classapplication_1_1_main.html#abcabe1a32eb7b5054cf34ca0def07531" target="_top" xlink:title="application.Main.populate\lErrorPageModules">
<polygon fill="white" stroke="black" points="1266.5,-29 1266.5,-59 1405.5,-59 1405.5,-29 1266.5,-29"/>
<text text-anchor="start" x="1274.5" y="-47" font-family="Helvetica,sans-Serif" font-size="10.00">application.Main.populate</text>
<text text-anchor="middle" x="1336" y="-36" font-family="Helvetica,sans-Serif" font-size="10.00">ErrorPageModules</text>
</a>
</g>
</g>
<!-- Node7&#45;&gt;Node12 -->
<g id="edge12" class="edge"><title>Node7&#45;&gt;Node12</title>
<path fill="none" stroke="midnightblue" d="M1240.07,-56.968C1248.91,-55.7616 1257.78,-54.5493 1266.37,-53.3763"/>
<polygon fill="midnightblue" stroke="midnightblue" points="1239.57,-53.5038 1230.14,-58.3252 1240.52,-60.4394 1239.57,-53.5038"/>
</g>
<!-- Node9 -->
<g id="node9" class="node"><title>Node9</title>
<g id="a_node9"><a xlink:href="../../d9/d96/classapplication_1_1_main.html#adc868cfca1990edad66af3dcb8cf4349" target="_top" xlink:title="application.Main.playGame">
<polygon fill="white" stroke="black" points="1442,-83.5 1442,-102.5 1588,-102.5 1588,-83.5 1442,-83.5"/>
<text text-anchor="middle" x="1515" y="-90.5" font-family="Helvetica,sans-Serif" font-size="10.00">application.Main.playGame</text>
</a>
</g>
</g>
<!-- Node8&#45;&gt;Node9 -->
<g id="edge8" class="edge"><title>Node8&#45;&gt;Node9</title>
<path fill="none" stroke="midnightblue" d="M1415.79,-93C1424.46,-93 1433.26,-93 1441.84,-93"/>
<polygon fill="midnightblue" stroke="midnightblue" points="1415.69,-89.5001 1405.69,-93 1415.69,-96.5001 1415.69,-89.5001"/>
</g>
<!-- Node10 -->
<g id="node10" class="node"><title>Node10</title>
<g id="a_node10"><a xlink:href="../../d9/d96/classapplication_1_1_main.html#ada0f47786d75e28e627d2621d75eaf5a" target="_top" xlink:title="application.Main.activate\lStartButton">
<polygon fill="white" stroke="black" points="1624.5,-78 1624.5,-108 1759.5,-108 1759.5,-78 1624.5,-78"/>
<text text-anchor="start" x="1632.5" y="-96" font-family="Helvetica,sans-Serif" font-size="10.00">application.Main.activate</text>
<text text-anchor="middle" x="1692" y="-85" font-family="Helvetica,sans-Serif" font-size="10.00">StartButton</text>
</a>
</g>
</g>
<!-- Node9&#45;&gt;Node10 -->
<g id="edge9" class="edge"><title>Node9&#45;&gt;Node10</title>
<path fill="none" stroke="midnightblue" d="M1598.35,-93C1607.05,-93 1615.82,-93 1624.31,-93"/>
<polygon fill="midnightblue" stroke="midnightblue" points="1598.19,-89.5001 1588.19,-93 1598.19,-96.5001 1598.19,-89.5001"/>
</g>
<!-- Node11 -->
<g id="node11" class="node"><title>Node11</title>
<g id="a_node11"><a xlink:href="../../d9/d96/classapplication_1_1_main.html#a64e6451d894979853890a235efe37db8" target="_top" xlink:title="application.Main.createStart\lGameButton">
<polygon fill="white" stroke="black" points="1796,-100 1796,-130 1948,-130 1948,-100 1796,-100"/>
<text text-anchor="start" x="1804" y="-118" font-family="Helvetica,sans-Serif" font-size="10.00">application.Main.createStart</text>
<text text-anchor="middle" x="1872" y="-107" font-family="Helvetica,sans-Serif" font-size="10.00">GameButton</text>
</a>
</g>
</g>
<!-- Node10&#45;&gt;Node11 -->
<g id="edge10" class="edge"><title>Node10&#45;&gt;Node11</title>
<path fill="none" stroke="midnightblue" d="M1769.65,-102.473C1778.34,-103.548 1787.2,-104.642 1795.87,-105.714"/>
<polygon fill="midnightblue" stroke="midnightblue" points="1769.89,-98.9764 1759.53,-101.223 1769.03,-105.924 1769.89,-98.9764"/>
</g>
<!-- Node11&#45;&gt;Node4 -->
<g id="edge11" class="edge"><title>Node11&#45;&gt;Node4</title>
<path fill="none" stroke="midnightblue" d="M1785.59,-123.267C1713.74,-129.507 1608.26,-137 1516,-137 967,-137 967,-137 967,-137 863.338,-137 745.013,-104.032 682.702,-84.0071"/>
<polygon fill="midnightblue" stroke="midnightblue" points="1786.29,-126.719 1795.94,-122.356 1785.67,-119.746 1786.29,-126.719"/>
</g>
<!-- Node13 -->
<g id="node13" class="node"><title>Node13</title>
<g id="a_node13"><a xlink:href="../../d9/d96/classapplication_1_1_main.html#a81e70f73d65beae34c459628791cc5d4" target="_top" xlink:title="application.Main.activate\lErrorPage">
<polygon fill="white" stroke="black" points="1447.5,-7 1447.5,-37 1582.5,-37 1582.5,-7 1447.5,-7"/>
<text text-anchor="start" x="1455.5" y="-25" font-family="Helvetica,sans-Serif" font-size="10.00">application.Main.activate</text>
<text text-anchor="middle" x="1515" y="-14" font-family="Helvetica,sans-Serif" font-size="10.00">ErrorPage</text>
</a>
</g>
</g>
<!-- Node12&#45;&gt;Node13 -->
<g id="edge13" class="edge"><title>Node12&#45;&gt;Node13</title>
<path fill="none" stroke="midnightblue" d="M1415.74,-34.2133C1426.3,-32.9 1437.06,-31.5634 1447.39,-30.2795"/>
<polygon fill="midnightblue" stroke="midnightblue" points="1415.18,-30.7559 1405.69,-35.4627 1416.04,-37.7025 1415.18,-30.7559"/>
</g>
<!-- Node13&#45;&gt;Node2 -->
<g id="edge14" class="edge"><title>Node13&#45;&gt;Node2</title>
<path fill="none" stroke="midnightblue" d="M1437.3,-14.6294C1364.08,-8.23585 1250.62,-0 1152,-0 637,-0 637,-0 637,-0 531.439,-1.42109e-14 409.335,-11.5966 335.699,-19.8636"/>
<polygon fill="midnightblue" stroke="midnightblue" points="1437.08,-18.1243 1447.35,-15.5183 1437.7,-11.1515 1437.08,-18.1243"/>
</g>
</g>
</svg>
