<?xml version="1.0" encoding="UTF-8" standalone="no"?>
<!DOCTYPE svg PUBLIC "-//W3C//DTD SVG 1.1//EN"
 "http://www.w3.org/Graphics/SVG/1.1/DTD/svg11.dtd">
<!-- Generated by graphviz version 2.36.0 (20140111.2315)
 -->
<!-- Title: application.CellXMLReader.populateCellListFromDocument Pages: 1 -->
<svg width="626pt" height="300pt"
 viewBox="0.00 0.00 626.00 300.00" xmlns="http://www.w3.org/2000/svg" xmlns:xlink="http://www.w3.org/1999/xlink">
<g id="graph0" class="graph" transform="scale(1 1) rotate(0) translate(4 296)">
<title>application.CellXMLReader.populateCellListFromDocument</title>
<polygon fill="white" stroke="none" points="-4,4 -4,-296 622,-296 622,4 -4,4"/>
<!-- Node1 -->
<g id="node1" class="node"><title>Node1</title>
<polygon fill="#bfbfbf" stroke="black" points="0.5,-93 0.5,-123 185.5,-123 185.5,-93 0.5,-93"/>
<text text-anchor="start" x="8.5" y="-111" font-family="Helvetica,sans-Serif" font-size="10.00">application.CellXMLReader.populate</text>
<text text-anchor="middle" x="93" y="-100" font-family="Helvetica,sans-Serif" font-size="10.00">CellListFromDocument</text>
</g>
<!-- Node2 -->
<g id="node2" class="node"><title>Node2</title>
<g id="a_node2"><a xlink:href="../../d1/dd5/classapplication_1_1_cell_x_m_l_reader.html#a6ef5e260e8d5d74c4b08dbb341ca4c05" target="_top" xlink:title="application.CellXMLReader.configure\lModelParameters">
<polygon fill="white" stroke="black" points="222,-213 222,-243 410,-243 410,-213 222,-213"/>
<text text-anchor="start" x="230" y="-231" font-family="Helvetica,sans-Serif" font-size="10.00">application.CellXMLReader.configure</text>
<text text-anchor="middle" x="316" y="-220" font-family="Helvetica,sans-Serif" font-size="10.00">ModelParameters</text>
</a>
</g>
</g>
<!-- Node1&#45;&gt;Node2 -->
<g id="edge1" class="edge"><title>Node1&#45;&gt;Node2</title>
<path fill="none" stroke="midnightblue" d="M121.99,-123.198C161.677,-144.748 234.356,-184.212 278.315,-208.081"/>
<polygon fill="midnightblue" stroke="midnightblue" points="276.779,-211.229 287.237,-212.925 280.12,-205.078 276.779,-211.229"/>
</g>
<!-- Node5 -->
<g id="node5" class="node"><title>Node5</title>
<g id="a_node5"><a xlink:href="../../d1/dd5/classapplication_1_1_cell_x_m_l_reader.html#a68405ca65ccde55966332c573f2dc34b" target="_top" xlink:title="application.CellXMLReader.load\lAttributesIntoCell">
<polygon fill="white" stroke="black" points="234,-93 234,-123 398,-123 398,-93 234,-93"/>
<text text-anchor="start" x="242" y="-111" font-family="Helvetica,sans-Serif" font-size="10.00">application.CellXMLReader.load</text>
<text text-anchor="middle" x="316" y="-100" font-family="Helvetica,sans-Serif" font-size="10.00">AttributesIntoCell</text>
</a>
</g>
</g>
<!-- Node1&#45;&gt;Node5 -->
<g id="edge4" class="edge"><title>Node1&#45;&gt;Node5</title>
<path fill="none" stroke="midnightblue" d="M185.804,-108C198.219,-108 210.959,-108 223.371,-108"/>
<polygon fill="midnightblue" stroke="midnightblue" points="223.706,-111.5 233.706,-108 223.706,-104.5 223.706,-111.5"/>
</g>
<!-- Node11 -->
<g id="node11" class="node"><title>Node11</title>
<g id="a_node11"><a xlink:href="../../d1/dd5/classapplication_1_1_cell_x_m_l_reader.html#a254f7a84682b8257bdb4f4d81f337d28" target="_top" xlink:title="application.CellXMLReader.print\lCellList">
<polygon fill="white" stroke="black" points="233.5,-44 233.5,-74 398.5,-74 398.5,-44 233.5,-44"/>
<text text-anchor="start" x="241.5" y="-62" font-family="Helvetica,sans-Serif" font-size="10.00">application.CellXMLReader.print</text>
<text text-anchor="middle" x="316" y="-51" font-family="Helvetica,sans-Serif" font-size="10.00">CellList</text>
</a>
</g>
</g>
<!-- Node1&#45;&gt;Node11 -->
<g id="edge10" class="edge"><title>Node1&#45;&gt;Node11</title>
<path fill="none" stroke="midnightblue" d="M161.809,-92.9654C185.674,-87.6741 212.678,-81.6867 237.295,-76.2288"/>
<polygon fill="midnightblue" stroke="midnightblue" points="238.314,-79.5879 247.319,-74.0062 236.798,-72.7539 238.314,-79.5879"/>
</g>
<!-- Node3 -->
<g id="node3" class="node"><title>Node3</title>
<g id="a_node3"><a xlink:href="../../d1/dd5/classapplication_1_1_cell_x_m_l_reader.html#a0da30d2f39428d1e187fb1e779c09956" target="_top" xlink:title="application.CellXMLReader.set\lColorScheme">
<polygon fill="white" stroke="black" points="453,-262 453,-292 611,-292 611,-262 453,-262"/>
<text text-anchor="start" x="461" y="-280" font-family="Helvetica,sans-Serif" font-size="10.00">application.CellXMLReader.set</text>
<text text-anchor="middle" x="532" y="-269" font-family="Helvetica,sans-Serif" font-size="10.00">ColorScheme</text>
</a>
</g>
</g>
<!-- Node2&#45;&gt;Node3 -->
<g id="edge2" class="edge"><title>Node2&#45;&gt;Node3</title>
<path fill="none" stroke="midnightblue" d="M382.661,-243.035C405.668,-248.302 431.687,-254.26 455.438,-259.698"/>
<polygon fill="midnightblue" stroke="midnightblue" points="454.934,-263.173 465.463,-261.994 456.496,-256.35 454.934,-263.173"/>
</g>
<!-- Node4 -->
<g id="node4" class="node"><title>Node4</title>
<g id="a_node4"><a xlink:href="../../d1/dd5/classapplication_1_1_cell_x_m_l_reader.html#a9e9eba223b4a1ff64b3cbe681209193c" target="_top" xlink:title="application.CellXMLReader.set\lWaTorVariables">
<polygon fill="white" stroke="black" points="453,-213 453,-243 611,-243 611,-213 453,-213"/>
<text text-anchor="start" x="461" y="-231" font-family="Helvetica,sans-Serif" font-size="10.00">application.CellXMLReader.set</text>
<text text-anchor="middle" x="532" y="-220" font-family="Helvetica,sans-Serif" font-size="10.00">WaTorVariables</text>
</a>
</g>
</g>
<!-- Node2&#45;&gt;Node4 -->
<g id="edge3" class="edge"><title>Node2&#45;&gt;Node4</title>
<path fill="none" stroke="midnightblue" d="M410.241,-228C420.996,-228 431.939,-228 442.627,-228"/>
<polygon fill="midnightblue" stroke="midnightblue" points="442.781,-231.5 452.781,-228 442.781,-224.5 442.781,-231.5"/>
</g>
<!-- Node6 -->
<g id="node6" class="node"><title>Node6</title>
<g id="a_node6"><a xlink:href="../../d1/dd5/classapplication_1_1_cell_x_m_l_reader.html#a624d0f1211126fed6ffcb82cf079aa0b" target="_top" xlink:title="application.CellXMLReader.check\lModelTypeAndInitializeCell">
<polygon fill="white" stroke="black" points="446.5,-164 446.5,-194 617.5,-194 617.5,-164 446.5,-164"/>
<text text-anchor="start" x="454.5" y="-182" font-family="Helvetica,sans-Serif" font-size="10.00">application.CellXMLReader.check</text>
<text text-anchor="middle" x="532" y="-171" font-family="Helvetica,sans-Serif" font-size="10.00">ModelTypeAndInitializeCell</text>
</a>
</g>
</g>
<!-- Node5&#45;&gt;Node6 -->
<g id="edge5" class="edge"><title>Node5&#45;&gt;Node6</title>
<path fill="none" stroke="midnightblue" d="M357.469,-123.093C382.787,-132.371 416.152,-144.297 446,-154 453.303,-156.374 460.99,-158.773 468.633,-161.096"/>
<polygon fill="midnightblue" stroke="midnightblue" points="467.676,-164.463 478.26,-163.992 469.692,-157.76 467.676,-164.463"/>
</g>
<!-- Node7 -->
<g id="node7" class="node"><title>Node7</title>
<g id="a_node7"><a xlink:href="../../d7/dff/classapplication_1_1_cell.html#a5bff8514612c2a8631d927f4a18c7569" target="_top" xlink:title="application.Cell.setCurrent\lState">
<polygon fill="white" stroke="black" points="460.5,-115 460.5,-145 603.5,-145 603.5,-115 460.5,-115"/>
<text text-anchor="start" x="468.5" y="-133" font-family="Helvetica,sans-Serif" font-size="10.00">application.Cell.setCurrent</text>
<text text-anchor="middle" x="532" y="-122" font-family="Helvetica,sans-Serif" font-size="10.00">State</text>
</a>
</g>
</g>
<!-- Node5&#45;&gt;Node7 -->
<g id="edge6" class="edge"><title>Node5&#45;&gt;Node7</title>
<path fill="none" stroke="midnightblue" d="M398.209,-116.349C415.149,-118.09 433.006,-119.926 449.94,-121.667"/>
<polygon fill="midnightblue" stroke="midnightblue" points="450.043,-125.196 460.349,-122.737 450.759,-118.232 450.043,-125.196"/>
</g>
<!-- Node8 -->
<g id="node8" class="node"><title>Node8</title>
<g id="a_node8"><a xlink:href="../../d7/dff/classapplication_1_1_cell.html#a34e60407d74251ba0b3c4baf82af9e2c" target="_top" xlink:title="application.Cell.setThreshold">
<polygon fill="white" stroke="black" points="455.5,-76.5 455.5,-95.5 608.5,-95.5 608.5,-76.5 455.5,-76.5"/>
<text text-anchor="middle" x="532" y="-83.5" font-family="Helvetica,sans-Serif" font-size="10.00">application.Cell.setThreshold</text>
</a>
</g>
</g>
<!-- Node5&#45;&gt;Node8 -->
<g id="edge7" class="edge"><title>Node5&#45;&gt;Node8</title>
<path fill="none" stroke="midnightblue" d="M398.209,-99.6514C413.631,-98.0659 429.814,-96.4023 445.368,-94.8033"/>
<polygon fill="midnightblue" stroke="midnightblue" points="445.894,-98.2677 455.484,-93.7633 445.178,-91.3044 445.894,-98.2677"/>
</g>
<!-- Node9 -->
<g id="node9" class="node"><title>Node9</title>
<g id="a_node9"><a xlink:href="../../d7/dff/classapplication_1_1_cell.html#a9b55760c359deba99fa09c169bbcb924" target="_top" xlink:title="application.Cell.setXPos">
<polygon fill="white" stroke="black" points="467,-38.5 467,-57.5 597,-57.5 597,-38.5 467,-38.5"/>
<text text-anchor="middle" x="532" y="-45.5" font-family="Helvetica,sans-Serif" font-size="10.00">application.Cell.setXPos</text>
</a>
</g>
</g>
<!-- Node5&#45;&gt;Node9 -->
<g id="edge8" class="edge"><title>Node5&#45;&gt;Node9</title>
<path fill="none" stroke="midnightblue" d="M378.448,-92.935C389.058,-89.9214 399.914,-86.5726 410,-83 426.504,-77.1541 429.375,-72.4923 446,-67 453.946,-64.3749 462.429,-61.9968 470.846,-59.8817"/>
<polygon fill="midnightblue" stroke="midnightblue" points="471.756,-63.2628 480.659,-57.5204 470.118,-56.457 471.756,-63.2628"/>
</g>
<!-- Node10 -->
<g id="node10" class="node"><title>Node10</title>
<g id="a_node10"><a xlink:href="../../d7/dff/classapplication_1_1_cell.html#acc3b6f97d338de7648cefc50fe63b829" target="_top" xlink:title="application.Cell.setYPos">
<polygon fill="white" stroke="black" points="467.5,-0.5 467.5,-19.5 596.5,-19.5 596.5,-0.5 467.5,-0.5"/>
<text text-anchor="middle" x="532" y="-7.5" font-family="Helvetica,sans-Serif" font-size="10.00">application.Cell.setYPos</text>
</a>
</g>
</g>
<!-- Node5&#45;&gt;Node10 -->
<g id="edge9" class="edge"><title>Node5&#45;&gt;Node10</title>
<path fill="none" stroke="midnightblue" d="M392.296,-92.9706C398.562,-90.1923 404.568,-86.9004 410,-83 433.43,-66.177 422.216,-45.319 446,-29 449.748,-26.4282 453.788,-24.1984 458,-22.2657"/>
<polygon fill="midnightblue" stroke="midnightblue" points="459.46,-25.4517 467.448,-18.492 456.863,-18.9511 459.46,-25.4517"/>
</g>
</g>
</svg>
