<?xml version="1.0" encoding="UTF-8" standalone="no"?>
<!DOCTYPE svg PUBLIC "-//W3C//DTD SVG 1.1//EN"
 "http://www.w3.org/Graphics/SVG/1.1/DTD/svg11.dtd">
<!-- Generated by graphviz version 2.36.0 (20140111.2315)
 -->
<!-- Title: application.CellXMLReader.checkModelTypeAndInitializeCell Pages: 1 -->
<svg width="2600pt" height="160pt"
 viewBox="0.00 0.00 2600.00 160.00" xmlns="http://www.w3.org/2000/svg" xmlns:xlink="http://www.w3.org/1999/xlink">
<g id="graph0" class="graph" transform="scale(1 1) rotate(0) translate(4 156)">
<title>application.CellXMLReader.checkModelTypeAndInitializeCell</title>
<polygon fill="white" stroke="none" points="-4,4 -4,-156 2596,-156 2596,4 -4,4"/>
<!-- Node1 -->
<g id="node1" class="node"><title>Node1</title>
<polygon fill="#bfbfbf" stroke="black" points="0.5,-22 0.5,-52 171.5,-52 171.5,-22 0.5,-22"/>
<text text-anchor="start" x="8.5" y="-40" font-family="Helvetica,sans-Serif" font-size="10.00">application.CellXMLReader.check</text>
<text text-anchor="middle" x="86" y="-29" font-family="Helvetica,sans-Serif" font-size="10.00">ModelTypeAndInitializeCell</text>
</g>
<!-- Node2 -->
<g id="node2" class="node"><title>Node2</title>
<g id="a_node2"><a xlink:href="../../d9/d5e/classapplication_1_1_application_loop.html#ae6fc4b7d381bb5b4d4ba3eb4bb69c078" target="_top" xlink:title="application.ApplicationLoop.initialize\lGridPane">
<polygon fill="white" stroke="black" points="208,-44 208,-74 396,-74 396,-44 208,-44"/>
<text text-anchor="start" x="216" y="-62" font-family="Helvetica,sans-Serif" font-size="10.00">application.ApplicationLoop.initialize</text>
<text text-anchor="middle" x="302" y="-51" font-family="Helvetica,sans-Serif" font-size="10.00">GridPane</text>
</a>
</g>
</g>
<!-- Node1&#45;&gt;Node2 -->
<g id="edge1" class="edge"><title>Node1&#45;&gt;Node2</title>
<path fill="none" stroke="midnightblue" d="M181.711,-46.7367C190.398,-47.6297 199.194,-48.5339 207.866,-49.4255"/>
<polygon fill="midnightblue" stroke="midnightblue" points="181.884,-43.2361 171.578,-45.695 181.168,-50.1994 181.884,-43.2361"/>
</g>
<!-- Node16 -->
<g id="node16" class="node"><title>Node16</title>
<g id="a_node16"><a xlink:href="../../d1/dd5/classapplication_1_1_cell_x_m_l_reader.html#a68405ca65ccde55966332c573f2dc34b" target="_top" xlink:title="application.CellXMLReader.load\lAttributesIntoCell">
<polygon fill="white" stroke="black" points="432,-0 432,-30 596,-30 596,-0 432,-0"/>
<text text-anchor="start" x="440" y="-18" font-family="Helvetica,sans-Serif" font-size="10.00">application.CellXMLReader.load</text>
<text text-anchor="middle" x="514" y="-7" font-family="Helvetica,sans-Serif" font-size="10.00">AttributesIntoCell</text>
</a>
</g>
</g>
<!-- Node1&#45;&gt;Node16 -->
<g id="edge17" class="edge"><title>Node1&#45;&gt;Node16</title>
<path fill="none" stroke="midnightblue" d="M182.061,-32.0907C257.065,-28.2173 360.56,-22.8725 431.739,-19.1966"/>
<polygon fill="midnightblue" stroke="midnightblue" points="181.479,-28.616 171.673,-32.6272 181.84,-35.6067 181.479,-28.616"/>
</g>
<!-- Node3 -->
<g id="node3" class="node"><title>Node3</title>
<g id="a_node3"><a xlink:href="../../d9/d5e/classapplication_1_1_application_loop.html#a903043ba2535055f46dbee6aca8b3eef" target="_top" xlink:title="application.ApplicationLoop.init">
<polygon fill="white" stroke="black" points="432,-49.5 432,-68.5 596,-68.5 596,-49.5 432,-49.5"/>
<text text-anchor="middle" x="514" y="-56.5" font-family="Helvetica,sans-Serif" font-size="10.00">application.ApplicationLoop.init</text>
</a>
</g>
</g>
<!-- Node2&#45;&gt;Node3 -->
<g id="edge2" class="edge"><title>Node2&#45;&gt;Node3</title>
<path fill="none" stroke="midnightblue" d="M406.152,-59C414.796,-59 423.456,-59 431.899,-59"/>
<polygon fill="midnightblue" stroke="midnightblue" points="406.026,-55.5001 396.026,-59 406.026,-62.5001 406.026,-55.5001"/>
</g>
<!-- Node4 -->
<g id="node4" class="node"><title>Node4</title>
<g id="a_node4"><a xlink:href="../../d9/d96/classapplication_1_1_main.html#adc868cfca1990edad66af3dcb8cf4349" target="_top" xlink:title="application.Main.playGame">
<polygon fill="white" stroke="black" points="652,-49.5 652,-68.5 798,-68.5 798,-49.5 652,-49.5"/>
<text text-anchor="middle" x="725" y="-56.5" font-family="Helvetica,sans-Serif" font-size="10.00">application.Main.playGame</text>
</a>
</g>
</g>
<!-- Node3&#45;&gt;Node4 -->
<g id="edge3" class="edge"><title>Node3&#45;&gt;Node4</title>
<path fill="none" stroke="midnightblue" d="M606.522,-59C621.679,-59 637.205,-59 651.8,-59"/>
<polygon fill="midnightblue" stroke="midnightblue" points="606.104,-55.5001 596.104,-59 606.104,-62.5001 606.104,-55.5001"/>
</g>
<!-- Node5 -->
<g id="node5" class="node"><title>Node5</title>
<g id="a_node5"><a xlink:href="../../d9/d96/classapplication_1_1_main.html#ada0f47786d75e28e627d2621d75eaf5a" target="_top" xlink:title="application.Main.activate\lStartButton">
<polygon fill="white" stroke="black" points="854.5,-90 854.5,-120 989.5,-120 989.5,-90 854.5,-90"/>
<text text-anchor="start" x="862.5" y="-108" font-family="Helvetica,sans-Serif" font-size="10.00">application.Main.activate</text>
<text text-anchor="middle" x="922" y="-97" font-family="Helvetica,sans-Serif" font-size="10.00">StartButton</text>
</a>
</g>
</g>
<!-- Node4&#45;&gt;Node5 -->
<g id="edge4" class="edge"><title>Node4&#45;&gt;Node5</title>
<path fill="none" stroke="midnightblue" d="M776.278,-70.8605C800.957,-76.6823 830.958,-83.7594 857.232,-89.9573"/>
<polygon fill="midnightblue" stroke="midnightblue" points="776.941,-67.4208 766.404,-68.5312 775.333,-74.2338 776.941,-67.4208"/>
</g>
<!-- Node6 -->
<g id="node6" class="node"><title>Node6</title>
<g id="a_node6"><a xlink:href="../../d9/d96/classapplication_1_1_main.html#a64e6451d894979853890a235efe37db8" target="_top" xlink:title="application.Main.createStart\lGameButton">
<polygon fill="white" stroke="black" points="1026,-90 1026,-120 1178,-120 1178,-90 1026,-90"/>
<text text-anchor="start" x="1034" y="-108" font-family="Helvetica,sans-Serif" font-size="10.00">application.Main.createStart</text>
<text text-anchor="middle" x="1102" y="-97" font-family="Helvetica,sans-Serif" font-size="10.00">GameButton</text>
</a>
</g>
</g>
<!-- Node5&#45;&gt;Node6 -->
<g id="edge5" class="edge"><title>Node5&#45;&gt;Node6</title>
<path fill="none" stroke="midnightblue" d="M999.646,-105C1008.34,-105 1017.2,-105 1025.87,-105"/>
<polygon fill="midnightblue" stroke="midnightblue" points="999.534,-101.5 989.534,-105 999.534,-108.5 999.534,-101.5"/>
</g>
<!-- Node7 -->
<g id="node7" class="node"><title>Node7</title>
<g id="a_node7"><a xlink:href="../../d9/d96/classapplication_1_1_main.html#a5fee6c1b05965eca9205a99e3245a5fb" target="_top" xlink:title="application.Main.populate\lStartPageModules">
<polygon fill="white" stroke="black" points="1214.5,-90 1214.5,-120 1353.5,-120 1353.5,-90 1214.5,-90"/>
<text text-anchor="start" x="1222.5" y="-108" font-family="Helvetica,sans-Serif" font-size="10.00">application.Main.populate</text>
<text text-anchor="middle" x="1284" y="-97" font-family="Helvetica,sans-Serif" font-size="10.00">StartPageModules</text>
</a>
</g>
</g>
<!-- Node6&#45;&gt;Node7 -->
<g id="edge6" class="edge"><title>Node6&#45;&gt;Node7</title>
<path fill="none" stroke="midnightblue" d="M1188.27,-105C1197.04,-105 1205.86,-105 1214.41,-105"/>
<polygon fill="midnightblue" stroke="midnightblue" points="1188.03,-101.5 1178.03,-105 1188.03,-108.5 1188.03,-101.5"/>
</g>
<!-- Node8 -->
<g id="node8" class="node"><title>Node8</title>
<g id="a_node8"><a xlink:href="../../d9/d96/classapplication_1_1_main.html#a4e5ad4e3de8bbd8654120180a94e870d" target="_top" xlink:title="application.Main.start">
<polygon fill="white" stroke="black" points="1390.5,-95.5 1390.5,-114.5 1509.5,-114.5 1509.5,-95.5 1390.5,-95.5"/>
<text text-anchor="middle" x="1450" y="-102.5" font-family="Helvetica,sans-Serif" font-size="10.00">application.Main.start</text>
</a>
</g>
</g>
<!-- Node7&#45;&gt;Node8 -->
<g id="edge7" class="edge"><title>Node7&#45;&gt;Node8</title>
<path fill="none" stroke="midnightblue" d="M1363.68,-105C1372.64,-105 1381.66,-105 1390.3,-105"/>
<polygon fill="midnightblue" stroke="midnightblue" points="1363.6,-101.5 1353.6,-105 1363.6,-108.5 1363.6,-101.5"/>
</g>
<!-- Node9 -->
<g id="node9" class="node"><title>Node9</title>
<g id="a_node9"><a xlink:href="../../d9/d96/classapplication_1_1_main.html#ad652e3294ffb6519b18d784d5831c76a" target="_top" xlink:title="application.Main.activate\lReturntoStart">
<polygon fill="white" stroke="black" points="1546.5,-90 1546.5,-120 1681.5,-120 1681.5,-90 1546.5,-90"/>
<text text-anchor="start" x="1554.5" y="-108" font-family="Helvetica,sans-Serif" font-size="10.00">application.Main.activate</text>
<text text-anchor="middle" x="1614" y="-97" font-family="Helvetica,sans-Serif" font-size="10.00">ReturntoStart</text>
</a>
</g>
</g>
<!-- Node8&#45;&gt;Node9 -->
<g id="edge8" class="edge"><title>Node8&#45;&gt;Node9</title>
<path fill="none" stroke="midnightblue" d="M1520.08,-105C1528.81,-105 1537.73,-105 1546.42,-105"/>
<polygon fill="midnightblue" stroke="midnightblue" points="1519.94,-101.5 1509.94,-105 1519.94,-108.5 1519.94,-101.5"/>
</g>
<!-- Node10 -->
<g id="node10" class="node"><title>Node10</title>
<g id="a_node10"><a xlink:href="../../d9/d96/classapplication_1_1_main.html#a4c5877fafc53c4fae488f1f30faf294b" target="_top" xlink:title="application.Main.createReturn\lToStartButton">
<polygon fill="white" stroke="black" points="1718,-90 1718,-120 1876,-120 1876,-90 1718,-90"/>
<text text-anchor="start" x="1726" y="-108" font-family="Helvetica,sans-Serif" font-size="10.00">application.Main.createReturn</text>
<text text-anchor="middle" x="1797" y="-97" font-family="Helvetica,sans-Serif" font-size="10.00">ToStartButton</text>
</a>
</g>
</g>
<!-- Node9&#45;&gt;Node10 -->
<g id="edge9" class="edge"><title>Node9&#45;&gt;Node10</title>
<path fill="none" stroke="midnightblue" d="M1691.7,-105C1700.36,-105 1709.19,-105 1717.87,-105"/>
<polygon fill="midnightblue" stroke="midnightblue" points="1691.63,-101.5 1681.63,-105 1691.63,-108.5 1691.63,-101.5"/>
</g>
<!-- Node11 -->
<g id="node11" class="node"><title>Node11</title>
<g id="a_node11"><a xlink:href="../../d9/d96/classapplication_1_1_main.html#a2ddf30fb8360296e1ad3459fe6f920fb" target="_top" xlink:title="application.Main.populate\lGridPageModules">
<polygon fill="white" stroke="black" points="1912.5,-44 1912.5,-74 2051.5,-74 2051.5,-44 1912.5,-44"/>
<text text-anchor="start" x="1920.5" y="-62" font-family="Helvetica,sans-Serif" font-size="10.00">application.Main.populate</text>
<text text-anchor="middle" x="1982" y="-51" font-family="Helvetica,sans-Serif" font-size="10.00">GridPageModules</text>
</a>
</g>
</g>
<!-- Node10&#45;&gt;Node11 -->
<g id="edge10" class="edge"><title>Node10&#45;&gt;Node11</title>
<path fill="none" stroke="midnightblue" d="M1868.1,-87.3803C1885.63,-82.9726 1904.28,-78.2856 1921.26,-74.0174"/>
<polygon fill="midnightblue" stroke="midnightblue" points="1866.77,-84.1056 1857.92,-89.9379 1868.47,-90.8944 1866.77,-84.1056"/>
</g>
<!-- Node12 -->
<g id="node12" class="node"><title>Node12</title>
<g id="a_node12"><a xlink:href="../../d9/d96/classapplication_1_1_main.html#abcabe1a32eb7b5054cf34ca0def07531" target="_top" xlink:title="application.Main.populate\lErrorPageModules">
<polygon fill="white" stroke="black" points="1912.5,-93 1912.5,-123 2051.5,-123 2051.5,-93 1912.5,-93"/>
<text text-anchor="start" x="1920.5" y="-111" font-family="Helvetica,sans-Serif" font-size="10.00">application.Main.populate</text>
<text text-anchor="middle" x="1982" y="-100" font-family="Helvetica,sans-Serif" font-size="10.00">ErrorPageModules</text>
</a>
</g>
</g>
<!-- Node10&#45;&gt;Node12 -->
<g id="edge12" class="edge"><title>Node10&#45;&gt;Node12</title>
<path fill="none" stroke="midnightblue" d="M1886.36,-106.449C1895.1,-106.592 1903.87,-106.736 1912.37,-106.875"/>
<polygon fill="midnightblue" stroke="midnightblue" points="1886.2,-102.945 1876.14,-106.281 1886.08,-109.945 1886.2,-102.945"/>
</g>
<!-- Node11&#45;&gt;Node4 -->
<g id="edge11" class="edge"><title>Node11&#45;&gt;Node4</title>
<path fill="none" stroke="midnightblue" d="M1902.01,-59C1827.88,-59 1713.92,-59 1615,-59 1101,-59 1101,-59 1101,-59 995.694,-59 873.754,-59 798.24,-59"/>
<polygon fill="midnightblue" stroke="midnightblue" points="1902.19,-62.5001 1912.19,-59 1902.19,-55.5001 1902.19,-62.5001"/>
</g>
<!-- Node13 -->
<g id="node13" class="node"><title>Node13</title>
<g id="a_node13"><a xlink:href="../../d9/d96/classapplication_1_1_main.html#a81e70f73d65beae34c459628791cc5d4" target="_top" xlink:title="application.Main.activate\lErrorPage">
<polygon fill="white" stroke="black" points="2088.5,-93 2088.5,-123 2223.5,-123 2223.5,-93 2088.5,-93"/>
<text text-anchor="start" x="2096.5" y="-111" font-family="Helvetica,sans-Serif" font-size="10.00">application.Main.activate</text>
<text text-anchor="middle" x="2156" y="-100" font-family="Helvetica,sans-Serif" font-size="10.00">ErrorPage</text>
</a>
</g>
</g>
<!-- Node12&#45;&gt;Node13 -->
<g id="edge13" class="edge"><title>Node12&#45;&gt;Node13</title>
<path fill="none" stroke="midnightblue" d="M2062.15,-108C2070.88,-108 2079.7,-108 2088.25,-108"/>
<polygon fill="midnightblue" stroke="midnightblue" points="2061.97,-104.5 2051.97,-108 2061.97,-111.5 2061.97,-104.5"/>
</g>
<!-- Node14 -->
<g id="node14" class="node"><title>Node14</title>
<g id="a_node14"><a xlink:href="../../d9/d96/classapplication_1_1_main.html#aef0593911aa3cbc594ac75bbb8d6a2b0" target="_top" xlink:title="application.Main.activate\lImportXMLButton">
<polygon fill="white" stroke="black" points="2260.5,-93 2260.5,-123 2395.5,-123 2395.5,-93 2260.5,-93"/>
<text text-anchor="start" x="2268.5" y="-111" font-family="Helvetica,sans-Serif" font-size="10.00">application.Main.activate</text>
<text text-anchor="middle" x="2328" y="-100" font-family="Helvetica,sans-Serif" font-size="10.00">ImportXMLButton</text>
</a>
</g>
</g>
<!-- Node13&#45;&gt;Node14 -->
<g id="edge14" class="edge"><title>Node13&#45;&gt;Node14</title>
<path fill="none" stroke="midnightblue" d="M2233.72,-108C2242.65,-108 2251.71,-108 2260.49,-108"/>
<polygon fill="midnightblue" stroke="midnightblue" points="2233.7,-104.5 2223.7,-108 2233.7,-111.5 2233.7,-104.5"/>
</g>
<!-- Node15 -->
<g id="node15" class="node"><title>Node15</title>
<g id="a_node15"><a xlink:href="../../d9/d96/classapplication_1_1_main.html#a18021492af2e457d39edcbd16dc0d3c8" target="_top" xlink:title="application.Main.createImport\lXMLButton">
<polygon fill="white" stroke="black" points="2432.5,-115 2432.5,-145 2591.5,-145 2591.5,-115 2432.5,-115"/>
<text text-anchor="start" x="2440.5" y="-133" font-family="Helvetica,sans-Serif" font-size="10.00">application.Main.createImport</text>
<text text-anchor="middle" x="2512" y="-122" font-family="Helvetica,sans-Serif" font-size="10.00">XMLButton</text>
</a>
</g>
</g>
<!-- Node14&#45;&gt;Node15 -->
<g id="edge15" class="edge"><title>Node14&#45;&gt;Node15</title>
<path fill="none" stroke="midnightblue" d="M2405.87,-117.292C2414.59,-118.346 2423.49,-119.422 2432.24,-120.479"/>
<polygon fill="midnightblue" stroke="midnightblue" points="2406.08,-113.793 2395.74,-116.067 2405.24,-120.742 2406.08,-113.793"/>
</g>
<!-- Node15&#45;&gt;Node7 -->
<g id="edge16" class="edge"><title>Node15&#45;&gt;Node7</title>
<path fill="none" stroke="midnightblue" d="M2422.03,-138.596C2350.5,-144.768 2247.38,-152 2157,-152 1613,-152 1613,-152 1613,-152 1521.25,-152 1416.5,-133.755 1350.57,-120"/>
<polygon fill="midnightblue" stroke="midnightblue" points="2422.69,-142.052 2432.35,-137.695 2422.08,-135.078 2422.69,-142.052"/>
</g>
<!-- Node17 -->
<g id="node17" class="node"><title>Node17</title>
<g id="a_node17"><a xlink:href="../../d1/dd5/classapplication_1_1_cell_x_m_l_reader.html#a6df22c595f6ab48c2565869a8c111e32" target="_top" xlink:title="application.CellXMLReader.populate\lCellListFromDocument">
<polygon fill="white" stroke="black" points="632.5,-0 632.5,-30 817.5,-30 817.5,-0 632.5,-0"/>
<text text-anchor="start" x="640.5" y="-18" font-family="Helvetica,sans-Serif" font-size="10.00">application.CellXMLReader.populate</text>
<text text-anchor="middle" x="725" y="-7" font-family="Helvetica,sans-Serif" font-size="10.00">CellListFromDocument</text>
</a>
</g>
</g>
<!-- Node16&#45;&gt;Node17 -->
<g id="edge18" class="edge"><title>Node16&#45;&gt;Node17</title>
<path fill="none" stroke="midnightblue" d="M606.161,-15C614.789,-15 623.54,-15 632.175,-15"/>
<polygon fill="midnightblue" stroke="midnightblue" points="606.104,-11.5001 596.104,-15 606.104,-18.5001 606.104,-11.5001"/>
</g>
<!-- Node17&#45;&gt;Node14 -->
<g id="edge19" class="edge"><title>Node17&#45;&gt;Node14</title>
<path fill="none" stroke="midnightblue" d="M828.135,-15C903.538,-15 1008.66,-15 1101,-15 1101,-15 1101,-15 1983,-15 2100.86,-15 2233.8,-66.4983 2294.11,-92.851"/>
<polygon fill="midnightblue" stroke="midnightblue" points="827.697,-11.5001 817.697,-15 827.697,-18.5001 827.697,-11.5001"/>
</g>
</g>
</svg>
