<?xml version="1.0" encoding="UTF-8" standalone="no"?>
<!DOCTYPE svg PUBLIC "-//W3C//DTD SVG 1.1//EN"
 "http://www.w3.org/Graphics/SVG/1.1/DTD/svg11.dtd">
<!-- Generated by graphviz version 2.36.0 (20140111.2315)
 -->
<!-- Title: application.CellXMLReader.populateCellListFromDocument Pages: 1 -->
<svg width="1978pt" height="145pt"
 viewBox="0.00 0.00 1978.00 145.00" xmlns="http://www.w3.org/2000/svg" xmlns:xlink="http://www.w3.org/1999/xlink">
<g id="graph0" class="graph" transform="scale(1 1) rotate(0) translate(4 141)">
<title>application.CellXMLReader.populateCellListFromDocument</title>
<polygon fill="white" stroke="none" points="-4,4 -4,-141 1974,-141 1974,4 -4,4"/>
<!-- Node1 -->
<g id="node1" class="node"><title>Node1</title>
<polygon fill="#bfbfbf" stroke="black" points="0.5,-13 0.5,-43 185.5,-43 185.5,-13 0.5,-13"/>
<text text-anchor="start" x="8.5" y="-31" font-family="Helvetica,sans-Serif" font-size="10.00">application.CellXMLReader.populate</text>
<text text-anchor="middle" x="93" y="-20" font-family="Helvetica,sans-Serif" font-size="10.00">CellListFromDocument</text>
</g>
<!-- Node2 -->
<g id="node2" class="node"><title>Node2</title>
<g id="a_node2"><a xlink:href="../../d9/d96/classapplication_1_1_main.html#aef0593911aa3cbc594ac75bbb8d6a2b0" target="_top" xlink:title="application.Main.activate\lImportXMLButton">
<polygon fill="white" stroke="black" points="222.5,-13 222.5,-43 357.5,-43 357.5,-13 222.5,-13"/>
<text text-anchor="start" x="230.5" y="-31" font-family="Helvetica,sans-Serif" font-size="10.00">application.Main.activate</text>
<text text-anchor="middle" x="290" y="-20" font-family="Helvetica,sans-Serif" font-size="10.00">ImportXMLButton</text>
</a>
</g>
</g>
<!-- Node1&#45;&gt;Node2 -->
<g id="edge1" class="edge"><title>Node1&#45;&gt;Node2</title>
<path fill="none" stroke="midnightblue" d="M195.745,-28C204.812,-28 213.829,-28 222.483,-28"/>
<polygon fill="midnightblue" stroke="midnightblue" points="195.505,-24.5001 185.505,-28 195.505,-31.5001 195.505,-24.5001"/>
</g>
<!-- Node3 -->
<g id="node3" class="node"><title>Node3</title>
<g id="a_node3"><a xlink:href="../../d9/d96/classapplication_1_1_main.html#a18021492af2e457d39edcbd16dc0d3c8" target="_top" xlink:title="application.Main.createImport\lXMLButton">
<polygon fill="white" stroke="black" points="394.5,-42 394.5,-72 553.5,-72 553.5,-42 394.5,-42"/>
<text text-anchor="start" x="402.5" y="-60" font-family="Helvetica,sans-Serif" font-size="10.00">application.Main.createImport</text>
<text text-anchor="middle" x="474" y="-49" font-family="Helvetica,sans-Serif" font-size="10.00">XMLButton</text>
</a>
</g>
</g>
<!-- Node2&#45;&gt;Node3 -->
<g id="edge2" class="edge"><title>Node2&#45;&gt;Node3</title>
<path fill="none" stroke="midnightblue" d="M367.873,-40.249C376.594,-41.6386 385.492,-43.0564 394.237,-44.4498"/>
<polygon fill="midnightblue" stroke="midnightblue" points="368.163,-36.7511 357.737,-38.6339 367.061,-43.6639 368.163,-36.7511"/>
</g>
<!-- Node4 -->
<g id="node4" class="node"><title>Node4</title>
<g id="a_node4"><a xlink:href="../../d9/d96/classapplication_1_1_main.html#a5fee6c1b05965eca9205a99e3245a5fb" target="_top" xlink:title="application.Main.populate\lStartPageModules">
<polygon fill="white" stroke="black" points="590.5,-54 590.5,-84 729.5,-84 729.5,-54 590.5,-54"/>
<text text-anchor="start" x="598.5" y="-72" font-family="Helvetica,sans-Serif" font-size="10.00">application.Main.populate</text>
<text text-anchor="middle" x="660" y="-61" font-family="Helvetica,sans-Serif" font-size="10.00">StartPageModules</text>
</a>
</g>
</g>
<!-- Node3&#45;&gt;Node4 -->
<g id="edge3" class="edge"><title>Node3&#45;&gt;Node4</title>
<path fill="none" stroke="midnightblue" d="M563.636,-62.7806C572.587,-63.3644 581.581,-63.9509 590.278,-64.5181"/>
<polygon fill="midnightblue" stroke="midnightblue" points="563.773,-59.2822 553.566,-62.1239 563.317,-66.2674 563.773,-59.2822"/>
</g>
<!-- Node5 -->
<g id="node5" class="node"><title>Node5</title>
<g id="a_node5"><a xlink:href="../../d9/d96/classapplication_1_1_main.html#a4e5ad4e3de8bbd8654120180a94e870d" target="_top" xlink:title="application.Main.start">
<polygon fill="white" stroke="black" points="766.5,-59.5 766.5,-78.5 885.5,-78.5 885.5,-59.5 766.5,-59.5"/>
<text text-anchor="middle" x="826" y="-66.5" font-family="Helvetica,sans-Serif" font-size="10.00">application.Main.start</text>
</a>
</g>
</g>
<!-- Node4&#45;&gt;Node5 -->
<g id="edge4" class="edge"><title>Node4&#45;&gt;Node5</title>
<path fill="none" stroke="midnightblue" d="M739.677,-69C748.642,-69 757.661,-69 766.302,-69"/>
<polygon fill="midnightblue" stroke="midnightblue" points="739.601,-65.5001 729.601,-69 739.6,-72.5001 739.601,-65.5001"/>
</g>
<!-- Node6 -->
<g id="node6" class="node"><title>Node6</title>
<g id="a_node6"><a xlink:href="../../d9/d96/classapplication_1_1_main.html#ad652e3294ffb6519b18d784d5831c76a" target="_top" xlink:title="application.Main.activate\lReturntoStart">
<polygon fill="white" stroke="black" points="922.5,-54 922.5,-84 1057.5,-84 1057.5,-54 922.5,-54"/>
<text text-anchor="start" x="930.5" y="-72" font-family="Helvetica,sans-Serif" font-size="10.00">application.Main.activate</text>
<text text-anchor="middle" x="990" y="-61" font-family="Helvetica,sans-Serif" font-size="10.00">ReturntoStart</text>
</a>
</g>
</g>
<!-- Node5&#45;&gt;Node6 -->
<g id="edge5" class="edge"><title>Node5&#45;&gt;Node6</title>
<path fill="none" stroke="midnightblue" d="M896.08,-69C904.81,-69 913.729,-69 922.419,-69"/>
<polygon fill="midnightblue" stroke="midnightblue" points="895.944,-65.5001 885.944,-69 895.944,-72.5001 895.944,-65.5001"/>
</g>
<!-- Node7 -->
<g id="node7" class="node"><title>Node7</title>
<g id="a_node7"><a xlink:href="../../d9/d96/classapplication_1_1_main.html#a4c5877fafc53c4fae488f1f30faf294b" target="_top" xlink:title="application.Main.createReturn\lToStartButton">
<polygon fill="white" stroke="black" points="1094,-54 1094,-84 1252,-84 1252,-54 1094,-54"/>
<text text-anchor="start" x="1102" y="-72" font-family="Helvetica,sans-Serif" font-size="10.00">application.Main.createReturn</text>
<text text-anchor="middle" x="1173" y="-61" font-family="Helvetica,sans-Serif" font-size="10.00">ToStartButton</text>
</a>
</g>
</g>
<!-- Node6&#45;&gt;Node7 -->
<g id="edge6" class="edge"><title>Node6&#45;&gt;Node7</title>
<path fill="none" stroke="midnightblue" d="M1067.7,-69C1076.36,-69 1085.19,-69 1093.87,-69"/>
<polygon fill="midnightblue" stroke="midnightblue" points="1067.63,-65.5001 1057.63,-69 1067.63,-72.5001 1067.63,-65.5001"/>
</g>
<!-- Node8 -->
<g id="node8" class="node"><title>Node8</title>
<g id="a_node8"><a xlink:href="../../d9/d96/classapplication_1_1_main.html#a2ddf30fb8360296e1ad3459fe6f920fb" target="_top" xlink:title="application.Main.populate\lGridPageModules">
<polygon fill="white" stroke="black" points="1288.5,-78 1288.5,-108 1427.5,-108 1427.5,-78 1288.5,-78"/>
<text text-anchor="start" x="1296.5" y="-96" font-family="Helvetica,sans-Serif" font-size="10.00">application.Main.populate</text>
<text text-anchor="middle" x="1358" y="-85" font-family="Helvetica,sans-Serif" font-size="10.00">GridPageModules</text>
</a>
</g>
</g>
<!-- Node7&#45;&gt;Node8 -->
<g id="edge7" class="edge"><title>Node7&#45;&gt;Node8</title>
<path fill="none" stroke="midnightblue" d="M1262.07,-80.5507C1270.91,-81.7089 1279.78,-82.8726 1288.37,-83.9987"/>
<polygon fill="midnightblue" stroke="midnightblue" points="1262.51,-77.0779 1252.14,-79.2478 1261.6,-84.0185 1262.51,-77.0779"/>
</g>
<!-- Node12 -->
<g id="node12" class="node"><title>Node12</title>
<g id="a_node12"><a xlink:href="../../d9/d96/classapplication_1_1_main.html#abcabe1a32eb7b5054cf34ca0def07531" target="_top" xlink:title="application.Main.populate\lErrorPageModules">
<polygon fill="white" stroke="black" points="1288.5,-29 1288.5,-59 1427.5,-59 1427.5,-29 1288.5,-29"/>
<text text-anchor="start" x="1296.5" y="-47" font-family="Helvetica,sans-Serif" font-size="10.00">application.Main.populate</text>
<text text-anchor="middle" x="1358" y="-36" font-family="Helvetica,sans-Serif" font-size="10.00">ErrorPageModules</text>
</a>
</g>
</g>
<!-- Node7&#45;&gt;Node12 -->
<g id="edge12" class="edge"><title>Node7&#45;&gt;Node12</title>
<path fill="none" stroke="midnightblue" d="M1262.07,-56.968C1270.91,-55.7616 1279.78,-54.5493 1288.37,-53.3763"/>
<polygon fill="midnightblue" stroke="midnightblue" points="1261.57,-53.5038 1252.14,-58.3252 1262.52,-60.4394 1261.57,-53.5038"/>
</g>
<!-- Node9 -->
<g id="node9" class="node"><title>Node9</title>
<g id="a_node9"><a xlink:href="../../d9/d96/classapplication_1_1_main.html#adc868cfca1990edad66af3dcb8cf4349" target="_top" xlink:title="application.Main.playGame">
<polygon fill="white" stroke="black" points="1464,-83.5 1464,-102.5 1610,-102.5 1610,-83.5 1464,-83.5"/>
<text text-anchor="middle" x="1537" y="-90.5" font-family="Helvetica,sans-Serif" font-size="10.00">application.Main.playGame</text>
</a>
</g>
</g>
<!-- Node8&#45;&gt;Node9 -->
<g id="edge8" class="edge"><title>Node8&#45;&gt;Node9</title>
<path fill="none" stroke="midnightblue" d="M1437.79,-93C1446.46,-93 1455.26,-93 1463.84,-93"/>
<polygon fill="midnightblue" stroke="midnightblue" points="1437.69,-89.5001 1427.69,-93 1437.69,-96.5001 1437.69,-89.5001"/>
</g>
<!-- Node10 -->
<g id="node10" class="node"><title>Node10</title>
<g id="a_node10"><a xlink:href="../../d9/d96/classapplication_1_1_main.html#ada0f47786d75e28e627d2621d75eaf5a" target="_top" xlink:title="application.Main.activate\lStartButton">
<polygon fill="white" stroke="black" points="1646.5,-78 1646.5,-108 1781.5,-108 1781.5,-78 1646.5,-78"/>
<text text-anchor="start" x="1654.5" y="-96" font-family="Helvetica,sans-Serif" font-size="10.00">application.Main.activate</text>
<text text-anchor="middle" x="1714" y="-85" font-family="Helvetica,sans-Serif" font-size="10.00">StartButton</text>
</a>
</g>
</g>
<!-- Node9&#45;&gt;Node10 -->
<g id="edge9" class="edge"><title>Node9&#45;&gt;Node10</title>
<path fill="none" stroke="midnightblue" d="M1620.35,-93C1629.05,-93 1637.82,-93 1646.31,-93"/>
<polygon fill="midnightblue" stroke="midnightblue" points="1620.19,-89.5001 1610.19,-93 1620.19,-96.5001 1620.19,-89.5001"/>
</g>
<!-- Node11 -->
<g id="node11" class="node"><title>Node11</title>
<g id="a_node11"><a xlink:href="../../d9/d96/classapplication_1_1_main.html#a64e6451d894979853890a235efe37db8" target="_top" xlink:title="application.Main.createStart\lGameButton">
<polygon fill="white" stroke="black" points="1818,-100 1818,-130 1970,-130 1970,-100 1818,-100"/>
<text text-anchor="start" x="1826" y="-118" font-family="Helvetica,sans-Serif" font-size="10.00">application.Main.createStart</text>
<text text-anchor="middle" x="1894" y="-107" font-family="Helvetica,sans-Serif" font-size="10.00">GameButton</text>
</a>
</g>
</g>
<!-- Node10&#45;&gt;Node11 -->
<g id="edge10" class="edge"><title>Node10&#45;&gt;Node11</title>
<path fill="none" stroke="midnightblue" d="M1791.65,-102.473C1800.34,-103.548 1809.2,-104.642 1817.87,-105.714"/>
<polygon fill="midnightblue" stroke="midnightblue" points="1791.89,-98.9764 1781.53,-101.223 1791.03,-105.924 1791.89,-98.9764"/>
</g>
<!-- Node11&#45;&gt;Node4 -->
<g id="edge11" class="edge"><title>Node11&#45;&gt;Node4</title>
<path fill="none" stroke="midnightblue" d="M1807.59,-123.267C1735.74,-129.507 1630.26,-137 1538,-137 989,-137 989,-137 989,-137 885.338,-137 767.013,-104.032 704.702,-84.0071"/>
<polygon fill="midnightblue" stroke="midnightblue" points="1808.29,-126.719 1817.94,-122.356 1807.67,-119.746 1808.29,-126.719"/>
</g>
<!-- Node13 -->
<g id="node13" class="node"><title>Node13</title>
<g id="a_node13"><a xlink:href="../../d9/d96/classapplication_1_1_main.html#a81e70f73d65beae34c459628791cc5d4" target="_top" xlink:title="application.Main.activate\lErrorPage">
<polygon fill="white" stroke="black" points="1469.5,-7 1469.5,-37 1604.5,-37 1604.5,-7 1469.5,-7"/>
<text text-anchor="start" x="1477.5" y="-25" font-family="Helvetica,sans-Serif" font-size="10.00">application.Main.activate</text>
<text text-anchor="middle" x="1537" y="-14" font-family="Helvetica,sans-Serif" font-size="10.00">ErrorPage</text>
</a>
</g>
</g>
<!-- Node12&#45;&gt;Node13 -->
<g id="edge13" class="edge"><title>Node12&#45;&gt;Node13</title>
<path fill="none" stroke="midnightblue" d="M1437.74,-34.2133C1448.3,-32.9 1459.06,-31.5634 1469.39,-30.2795"/>
<polygon fill="midnightblue" stroke="midnightblue" points="1437.18,-30.7559 1427.69,-35.4627 1438.04,-37.7025 1437.18,-30.7559"/>
</g>
<!-- Node13&#45;&gt;Node2 -->
<g id="edge14" class="edge"><title>Node13&#45;&gt;Node2</title>
<path fill="none" stroke="midnightblue" d="M1459.3,-14.6294C1386.08,-8.23585 1272.62,-0 1174,-0 659,-0 659,-0 659,-0 553.439,-1.42109e-14 431.335,-11.5966 357.699,-19.8636"/>
<polygon fill="midnightblue" stroke="midnightblue" points="1459.08,-18.1243 1469.35,-15.5183 1459.7,-11.1515 1459.08,-18.1243"/>
</g>
</g>
</svg>
