<?xml version="1.0" encoding="UTF-8" standalone="no"?>
<!DOCTYPE svg PUBLIC "-//W3C//DTD SVG 1.1//EN"
 "http://www.w3.org/Graphics/SVG/1.1/DTD/svg11.dtd">
<!-- Generated by graphviz version 2.36.0 (20140111.2315)
 -->
<!-- Title: Graphical Class Hierarchy Pages: 1 -->
<svg width="282pt" height="408pt"
 viewBox="0.00 0.00 282.00 408.00" xmlns="http://www.w3.org/2000/svg" xmlns:xlink="http://www.w3.org/1999/xlink">
<g id="graph0" class="graph" transform="scale(1 1) rotate(0) translate(4 404)">
<title>Graphical Class Hierarchy</title>
<polygon fill="white" stroke="none" points="-4,4 -4,-404 278,-404 278,4 -4,4"/>
<!-- Node1 -->
<g id="node1" class="node"><title>Node1</title>
<g id="a_node1"><a xlink:href="d7/dff/classapplication_1_1_cell.html" target="_top" xlink:title="application.Cell">
<polygon fill="white" stroke="black" points="0.5,-190.5 0.5,-209.5 89.5,-209.5 89.5,-190.5 0.5,-190.5"/>
<text text-anchor="middle" x="45" y="-197.5" font-family="Helvetica,sans-Serif" font-size="10.00">application.Cell</text>
</a>
</g>
</g>
<!-- Node2 -->
<g id="node2" class="node"><title>Node2</title>
<g id="a_node2"><a xlink:href="d0/ddc/classapplication_1_1_ant_cell.html" target="_top" xlink:title="application.AntCell">
<polygon fill="white" stroke="black" points="147.5,-380.5 147.5,-399.5 252.5,-399.5 252.5,-380.5 147.5,-380.5"/>
<text text-anchor="middle" x="200" y="-387.5" font-family="Helvetica,sans-Serif" font-size="10.00">application.AntCell</text>
</a>
</g>
</g>
<!-- Node1&#45;&gt;Node2 -->
<g id="edge1" class="edge"><title>Node1&#45;&gt;Node2</title>
<path fill="none" stroke="midnightblue" d="M49.6174,-220.072C57.1616,-255.959 78.0277,-331.09 126,-371 132.141,-376.109 139.5,-379.862 147.149,-382.615"/>
<polygon fill="midnightblue" stroke="midnightblue" points="52.98,-219.032 47.6186,-209.894 46.1112,-220.381 52.98,-219.032"/>
</g>
<!-- Node3 -->
<g id="node3" class="node"><title>Node3</title>
<g id="a_node3"><a xlink:href="d9/ddf/classapplication_1_1_ant_cell2.html" target="_top" xlink:title="application.AntCell2">
<polygon fill="white" stroke="black" points="144.5,-342.5 144.5,-361.5 255.5,-361.5 255.5,-342.5 144.5,-342.5"/>
<text text-anchor="middle" x="200" y="-349.5" font-family="Helvetica,sans-Serif" font-size="10.00">application.AntCell2</text>
</a>
</g>
</g>
<!-- Node1&#45;&gt;Node3 -->
<g id="edge2" class="edge"><title>Node1&#45;&gt;Node3</title>
<path fill="none" stroke="midnightblue" d="M52.2434,-219.276C62.7062,-248.453 86.5969,-303.543 126,-333 131.454,-337.077 137.705,-340.282 144.203,-342.801"/>
<polygon fill="midnightblue" stroke="midnightblue" points="55.5467,-218.119 48.9924,-209.794 48.9251,-220.389 55.5467,-218.119"/>
</g>
<!-- Node4 -->
<g id="node4" class="node"><title>Node4</title>
<g id="a_node4"><a xlink:href="db/d83/classapplication_1_1_fire_cell.html" target="_top" xlink:title="application.FireCell">
<polygon fill="white" stroke="black" points="147.5,-304.5 147.5,-323.5 252.5,-323.5 252.5,-304.5 147.5,-304.5"/>
<text text-anchor="middle" x="200" y="-311.5" font-family="Helvetica,sans-Serif" font-size="10.00">application.FireCell</text>
</a>
</g>
</g>
<!-- Node1&#45;&gt;Node4 -->
<g id="edge3" class="edge"><title>Node1&#45;&gt;Node4</title>
<path fill="none" stroke="midnightblue" d="M56.555,-218.391C69.9322,-240.024 95.0223,-275.459 126,-295 132.535,-299.122 139.935,-302.354 147.455,-304.886"/>
<polygon fill="midnightblue" stroke="midnightblue" points="59.5449,-216.571 51.4047,-209.79 53.5393,-220.168 59.5449,-216.571"/>
</g>
<!-- Node5 -->
<g id="node5" class="node"><title>Node5</title>
<g id="a_node5"><a xlink:href="d3/d02/classapplication_1_1_flood_cell.html" target="_top" xlink:title="application.FloodCell">
<polygon fill="white" stroke="black" points="143,-266.5 143,-285.5 257,-285.5 257,-266.5 143,-266.5"/>
<text text-anchor="middle" x="200" y="-273.5" font-family="Helvetica,sans-Serif" font-size="10.00">application.FloodCell</text>
</a>
</g>
</g>
<!-- Node1&#45;&gt;Node5 -->
<g id="edge4" class="edge"><title>Node1&#45;&gt;Node5</title>
<path fill="none" stroke="midnightblue" d="M64.5985,-216.262C80.0734,-229.02 103.184,-246.346 126,-257 134.069,-260.768 143.002,-263.874 151.77,-266.405"/>
<polygon fill="midnightblue" stroke="midnightblue" points="66.738,-213.488 56.8373,-209.716 62.2248,-218.839 66.738,-213.488"/>
</g>
<!-- Node6 -->
<g id="node6" class="node"><title>Node6</title>
<g id="a_node6"><a xlink:href="d7/d03/classapplication_1_1_game_of_life.html" target="_top" xlink:title="application.GameOfLife">
<polygon fill="white" stroke="black" points="136,-228.5 136,-247.5 264,-247.5 264,-228.5 136,-228.5"/>
<text text-anchor="middle" x="200" y="-235.5" font-family="Helvetica,sans-Serif" font-size="10.00">application.GameOfLife</text>
</a>
</g>
</g>
<!-- Node1&#45;&gt;Node6 -->
<g id="edge5" class="edge"><title>Node1&#45;&gt;Node6</title>
<path fill="none" stroke="midnightblue" d="M94.4768,-212.04C115.852,-217.349 140.613,-223.499 160.669,-228.48"/>
<polygon fill="midnightblue" stroke="midnightblue" points="95.1572,-208.603 84.6084,-209.589 93.4698,-215.396 95.1572,-208.603"/>
</g>
<!-- Node7 -->
<g id="node7" class="node"><title>Node7</title>
<g id="a_node7"><a xlink:href="d9/d3f/classapplication_1_1_game_of_life_cell.html" target="_top" xlink:title="application.GameOfLifeCell">
<polygon fill="white" stroke="black" points="127.5,-190.5 127.5,-209.5 272.5,-209.5 272.5,-190.5 127.5,-190.5"/>
<text text-anchor="middle" x="200" y="-197.5" font-family="Helvetica,sans-Serif" font-size="10.00">application.GameOfLifeCell</text>
</a>
</g>
</g>
<!-- Node1&#45;&gt;Node7 -->
<g id="edge6" class="edge"><title>Node1&#45;&gt;Node7</title>
<path fill="none" stroke="midnightblue" d="M100.021,-200C108.891,-200 118.203,-200 127.42,-200"/>
<polygon fill="midnightblue" stroke="midnightblue" points="99.8437,-196.5 89.8437,-200 99.8436,-203.5 99.8437,-196.5"/>
</g>
<!-- Node8 -->
<g id="node8" class="node"><title>Node8</title>
<g id="a_node8"><a xlink:href="db/d3b/classapplication_1_1_segregation.html" target="_top" xlink:title="application.Segregation">
<polygon fill="white" stroke="black" points="135,-152.5 135,-171.5 265,-171.5 265,-152.5 135,-152.5"/>
<text text-anchor="middle" x="200" y="-159.5" font-family="Helvetica,sans-Serif" font-size="10.00">application.Segregation</text>
</a>
</g>
</g>
<!-- Node1&#45;&gt;Node8 -->
<g id="edge7" class="edge"><title>Node1&#45;&gt;Node8</title>
<path fill="none" stroke="midnightblue" d="M94.4768,-187.96C115.852,-182.651 140.613,-176.501 160.669,-171.52"/>
<polygon fill="midnightblue" stroke="midnightblue" points="93.4698,-184.604 84.6084,-190.411 95.1572,-191.397 93.4698,-184.604"/>
</g>
<!-- Node9 -->
<g id="node9" class="node"><title>Node9</title>
<g id="a_node9"><a xlink:href="d4/d72/classapplication_1_1_segregation_cell.html" target="_top" xlink:title="application.SegregationCell">
<polygon fill="white" stroke="black" points="126.5,-114.5 126.5,-133.5 273.5,-133.5 273.5,-114.5 126.5,-114.5"/>
<text text-anchor="middle" x="200" y="-121.5" font-family="Helvetica,sans-Serif" font-size="10.00">application.SegregationCell</text>
</a>
</g>
</g>
<!-- Node1&#45;&gt;Node9 -->
<g id="edge8" class="edge"><title>Node1&#45;&gt;Node9</title>
<path fill="none" stroke="midnightblue" d="M64.5985,-183.738C80.0734,-170.98 103.184,-153.654 126,-143 134.069,-139.232 143.002,-136.126 151.77,-133.595"/>
<polygon fill="midnightblue" stroke="midnightblue" points="62.2248,-181.161 56.8373,-190.284 66.738,-186.512 62.2248,-181.161"/>
</g>
<!-- Node10 -->
<g id="node10" class="node"><title>Node10</title>
<g id="a_node10"><a xlink:href="d8/db1/classapplication_1_1_wa_tor_cell.html" target="_top" xlink:title="application.WaTorCell">
<polygon fill="white" stroke="black" points="142,-76.5 142,-95.5 258,-95.5 258,-76.5 142,-76.5"/>
<text text-anchor="middle" x="200" y="-83.5" font-family="Helvetica,sans-Serif" font-size="10.00">application.WaTorCell</text>
</a>
</g>
</g>
<!-- Node1&#45;&gt;Node10 -->
<g id="edge9" class="edge"><title>Node1&#45;&gt;Node10</title>
<path fill="none" stroke="midnightblue" d="M56.555,-181.609C69.9322,-159.976 95.0223,-124.541 126,-105 132.203,-101.087 139.185,-97.9772 146.309,-95.5058"/>
<polygon fill="midnightblue" stroke="midnightblue" points="53.5393,-179.832 51.4047,-190.21 59.5449,-183.429 53.5393,-179.832"/>
</g>
<!-- Node11 -->
<g id="node11" class="node"><title>Node11</title>
<g id="a_node11"><a xlink:href="d4/dd2/classapplication_1_1_wa_tor_cell2.html" target="_top" xlink:title="application.WaTorCell2">
<polygon fill="white" stroke="black" points="139,-38.5 139,-57.5 261,-57.5 261,-38.5 139,-38.5"/>
<text text-anchor="middle" x="200" y="-45.5" font-family="Helvetica,sans-Serif" font-size="10.00">application.WaTorCell2</text>
</a>
</g>
</g>
<!-- Node1&#45;&gt;Node11 -->
<g id="edge10" class="edge"><title>Node1&#45;&gt;Node11</title>
<path fill="none" stroke="midnightblue" d="M52.2434,-180.724C62.7062,-151.547 86.5969,-96.4568 126,-67 131.14,-63.1578 136.986,-60.0903 143.081,-57.6418"/>
<polygon fill="midnightblue" stroke="midnightblue" points="48.9251,-179.611 48.9924,-190.206 55.5467,-181.881 48.9251,-179.611"/>
</g>
<!-- Node12 -->
<g id="node12" class="node"><title>Node12</title>
<g id="a_node12"><a xlink:href="d2/d5a/classapplication_1_1_wa_tor_cell3.html" target="_top" xlink:title="application.WaTorCell3">
<polygon fill="white" stroke="black" points="139,-0.5 139,-19.5 261,-19.5 261,-0.5 139,-0.5"/>
<text text-anchor="middle" x="200" y="-7.5" font-family="Helvetica,sans-Serif" font-size="10.00">application.WaTorCell3</text>
</a>
</g>
</g>
<!-- Node1&#45;&gt;Node12 -->
<g id="edge11" class="edge"><title>Node1&#45;&gt;Node12</title>
<path fill="none" stroke="midnightblue" d="M49.6174,-179.928C57.1616,-144.041 78.0277,-68.9102 126,-29 130.631,-25.1473 135.955,-22.0657 141.573,-19.6024"/>
<polygon fill="midnightblue" stroke="midnightblue" points="46.1112,-179.619 47.6186,-190.106 52.98,-180.968 46.1112,-179.619"/>
</g>
</g>
</svg>
