<?xml version="1.0" encoding="UTF-8" standalone="no"?>
<!DOCTYPE svg PUBLIC "-//W3C//DTD SVG 1.1//EN"
 "http://www.w3.org/Graphics/SVG/1.1/DTD/svg11.dtd">
<!-- Generated by graphviz version 2.36.0 (20140111.2315)
 -->
<!-- Title: application.WaTorCell3.fishUpdate Pages: 1 -->
<svg width="920pt" height="61pt"
 viewBox="0.00 0.00 920.00 61.00" xmlns="http://www.w3.org/2000/svg" xmlns:xlink="http://www.w3.org/1999/xlink">
<g id="graph0" class="graph" transform="scale(1 1) rotate(0) translate(4 57)">
<title>application.WaTorCell3.fishUpdate</title>
<polygon fill="white" stroke="none" points="-4,4 -4,-57 916,-57 916,4 -4,4"/>
<!-- Node1 -->
<g id="node1" class="node"><title>Node1</title>
<polygon fill="#bfbfbf" stroke="black" points="0.5,-22 0.5,-52 141.5,-52 141.5,-22 0.5,-22"/>
<text text-anchor="start" x="8.5" y="-40" font-family="Helvetica,sans-Serif" font-size="10.00">application.WaTorCell3.fish</text>
<text text-anchor="middle" x="71" y="-29" font-family="Helvetica,sans-Serif" font-size="10.00">Update</text>
</g>
<!-- Node2 -->
<g id="node2" class="node"><title>Node2</title>
<g id="a_node2"><a xlink:href="../../d2/d5a/classapplication_1_1_wa_tor_cell3.html#abc610dbe7d298b1320283222b050c19d" target="_top" xlink:title="application.WaTorCell3.moveFish">
<polygon fill="white" stroke="black" points="178,-27.5 178,-46.5 348,-46.5 348,-27.5 178,-27.5"/>
<text text-anchor="middle" x="263" y="-34.5" font-family="Helvetica,sans-Serif" font-size="10.00">application.WaTorCell3.moveFish</text>
</a>
</g>
</g>
<!-- Node1&#45;&gt;Node2 -->
<g id="edge1" class="edge"><title>Node1&#45;&gt;Node2</title>
<path fill="none" stroke="midnightblue" d="M141.67,-37C150.12,-37 158.858,-37 167.589,-37"/>
<polygon fill="midnightblue" stroke="midnightblue" points="167.818,-40.5001 177.818,-37 167.818,-33.5001 167.818,-40.5001"/>
</g>
<!-- Node3 -->
<g id="node3" class="node"><title>Node3</title>
<g id="a_node3"><a xlink:href="../../d2/d5a/classapplication_1_1_wa_tor_cell3.html#a53fd6e1b041b835f0438363b72546a23" target="_top" xlink:title="application.WaTorCell3.random\lFinder">
<polygon fill="white" stroke="black" points="750,-23 750,-53 912,-53 912,-23 750,-23"/>
<text text-anchor="start" x="758" y="-41" font-family="Helvetica,sans-Serif" font-size="10.00">application.WaTorCell3.random</text>
<text text-anchor="middle" x="831" y="-30" font-family="Helvetica,sans-Serif" font-size="10.00">Finder</text>
</a>
</g>
</g>
<!-- Node2&#45;&gt;Node3 -->
<g id="edge2" class="edge"><title>Node2&#45;&gt;Node3</title>
<path fill="none" stroke="midnightblue" d="M348.245,-38.5814C360.246,-38.7551 372.436,-38.9036 384,-39 507.202,-40.0266 649.553,-39.3907 739.653,-38.7624"/>
<polygon fill="midnightblue" stroke="midnightblue" points="739.858,-42.2611 749.833,-38.6898 739.808,-35.2613 739.858,-42.2611"/>
</g>
<!-- Node4 -->
<g id="node4" class="node"><title>Node4</title>
<g id="a_node4"><a xlink:href="../../d2/d5a/classapplication_1_1_wa_tor_cell3.html#a8f391a3c42e1498c234d68556af06688" target="_top" xlink:title="application.WaTorCell3.fish\lCheck">
<polygon fill="white" stroke="black" points="384.5,-0 384.5,-30 525.5,-30 525.5,-0 384.5,-0"/>
<text text-anchor="start" x="392.5" y="-18" font-family="Helvetica,sans-Serif" font-size="10.00">application.WaTorCell3.fish</text>
<text text-anchor="middle" x="455" y="-7" font-family="Helvetica,sans-Serif" font-size="10.00">Check</text>
</a>
</g>
</g>
<!-- Node2&#45;&gt;Node4 -->
<g id="edge3" class="edge"><title>Node2&#45;&gt;Node4</title>
<path fill="none" stroke="midnightblue" d="M346.232,-27.4784C355.586,-26.3954 365.108,-25.2928 374.426,-24.2138"/>
<polygon fill="midnightblue" stroke="midnightblue" points="374.909,-27.6813 384.44,-23.0543 374.104,-20.7278 374.909,-27.6813"/>
</g>
<!-- Node5 -->
<g id="node5" class="node"><title>Node5</title>
<g id="a_node5"><a xlink:href="../../d2/d5a/classapplication_1_1_wa_tor_cell3.html#ac6469324e4692f54871cf1eb35fd0a41" target="_top" xlink:title="application.WaTorCell3.breed">
<polygon fill="white" stroke="black" points="562,-8.5 562,-27.5 714,-27.5 714,-8.5 562,-8.5"/>
<text text-anchor="middle" x="638" y="-15.5" font-family="Helvetica,sans-Serif" font-size="10.00">application.WaTorCell3.breed</text>
</a>
</g>
</g>
<!-- Node4&#45;&gt;Node5 -->
<g id="edge4" class="edge"><title>Node4&#45;&gt;Node5</title>
<path fill="none" stroke="midnightblue" d="M525.72,-16.1556C534.238,-16.2968 543.016,-16.4422 551.728,-16.5867"/>
<polygon fill="midnightblue" stroke="midnightblue" points="551.85,-20.0891 561.907,-16.7554 551.966,-13.09 551.85,-20.0891"/>
</g>
<!-- Node5&#45;&gt;Node3 -->
<g id="edge5" class="edge"><title>Node5&#45;&gt;Node3</title>
<path fill="none" stroke="midnightblue" d="M714.214,-25.8758C722.618,-26.7558 731.241,-27.6587 739.807,-28.5557"/>
<polygon fill="midnightblue" stroke="midnightblue" points="739.51,-32.0437 749.82,-29.6042 740.239,-25.0817 739.51,-32.0437"/>
</g>
</g>
</svg>
