<?xml version="1.0" encoding="UTF-8" standalone="no"?>
<!DOCTYPE svg PUBLIC "-//W3C//DTD SVG 1.1//EN"
 "http://www.w3.org/Graphics/SVG/1.1/DTD/svg11.dtd">
<!-- Generated by graphviz version 2.36.0 (20140111.2315)
 -->
<!-- Title: application.WaTorCell3.fishCheck Pages: 1 -->
<svg width="940pt" height="38pt"
 viewBox="0.00 0.00 940.00 38.00" xmlns="http://www.w3.org/2000/svg" xmlns:xlink="http://www.w3.org/1999/xlink">
<g id="graph0" class="graph" transform="scale(1 1) rotate(0) translate(4 34)">
<title>application.WaTorCell3.fishCheck</title>
<polygon fill="white" stroke="none" points="-4,4 -4,-34 936,-34 936,4 -4,4"/>
<!-- Node1 -->
<g id="node1" class="node"><title>Node1</title>
<polygon fill="#bfbfbf" stroke="black" points="0.5,-0 0.5,-30 141.5,-30 141.5,-0 0.5,-0"/>
<text text-anchor="start" x="8.5" y="-18" font-family="Helvetica,sans-Serif" font-size="10.00">application.WaTorCell3.fish</text>
<text text-anchor="middle" x="71" y="-7" font-family="Helvetica,sans-Serif" font-size="10.00">Check</text>
</g>
<!-- Node2 -->
<g id="node2" class="node"><title>Node2</title>
<g id="a_node2"><a xlink:href="../../d2/d5a/classapplication_1_1_wa_tor_cell3.html#abc610dbe7d298b1320283222b050c19d" target="_top" xlink:title="application.WaTorCell3.moveFish">
<polygon fill="white" stroke="black" points="178,-5.5 178,-24.5 348,-24.5 348,-5.5 178,-5.5"/>
<text text-anchor="middle" x="263" y="-12.5" font-family="Helvetica,sans-Serif" font-size="10.00">application.WaTorCell3.moveFish</text>
</a>
</g>
</g>
<!-- Node1&#45;&gt;Node2 -->
<g id="edge1" class="edge"><title>Node1&#45;&gt;Node2</title>
<path fill="none" stroke="midnightblue" d="M151.704,-15C160.334,-15 169.137,-15 177.818,-15"/>
<polygon fill="midnightblue" stroke="midnightblue" points="151.67,-11.5001 141.67,-15 151.67,-18.5001 151.67,-11.5001"/>
</g>
<!-- Node3 -->
<g id="node3" class="node"><title>Node3</title>
<g id="a_node3"><a xlink:href="../../d2/d5a/classapplication_1_1_wa_tor_cell3.html#aa0909d104db3a4f6b7e3e8fe5e6c8ca4" target="_top" xlink:title="application.WaTorCell3.fish\lUpdate">
<polygon fill="white" stroke="black" points="384.5,-0 384.5,-30 525.5,-30 525.5,-0 384.5,-0"/>
<text text-anchor="start" x="392.5" y="-18" font-family="Helvetica,sans-Serif" font-size="10.00">application.WaTorCell3.fish</text>
<text text-anchor="middle" x="455" y="-7" font-family="Helvetica,sans-Serif" font-size="10.00">Update</text>
</a>
</g>
</g>
<!-- Node2&#45;&gt;Node3 -->
<g id="edge2" class="edge"><title>Node2&#45;&gt;Node3</title>
<path fill="none" stroke="midnightblue" d="M358.423,-15C367.177,-15 375.939,-15 384.409,-15"/>
<polygon fill="midnightblue" stroke="midnightblue" points="358.167,-11.5001 348.167,-15 358.166,-18.5001 358.167,-11.5001"/>
</g>
<!-- Node4 -->
<g id="node4" class="node"><title>Node4</title>
<g id="a_node4"><a xlink:href="../../d2/d5a/classapplication_1_1_wa_tor_cell3.html#ab8b97147f1807a931d5f829aeffdb607" target="_top" xlink:title="application.WaTorCell3.update\lThisCell">
<polygon fill="white" stroke="black" points="562,-0 562,-30 720,-30 720,-0 562,-0"/>
<text text-anchor="start" x="570" y="-18" font-family="Helvetica,sans-Serif" font-size="10.00">application.WaTorCell3.update</text>
<text text-anchor="middle" x="641" y="-7" font-family="Helvetica,sans-Serif" font-size="10.00">ThisCell</text>
</a>
</g>
</g>
<!-- Node3&#45;&gt;Node4 -->
<g id="edge3" class="edge"><title>Node3&#45;&gt;Node4</title>
<path fill="none" stroke="midnightblue" d="M535.629,-15C544.278,-15 553.076,-15 561.709,-15"/>
<polygon fill="midnightblue" stroke="midnightblue" points="535.563,-11.5001 525.563,-15 535.562,-18.5001 535.563,-11.5001"/>
</g>
<!-- Node5 -->
<g id="node5" class="node"><title>Node5</title>
<g id="a_node5"><a xlink:href="../../d2/d5a/classapplication_1_1_wa_tor_cell3.html#a26aff9621026adea9241bbb4c560d006" target="_top" xlink:title="application.WaTorCell3.updateCell">
<polygon fill="white" stroke="black" points="756,-5.5 756,-24.5 932,-24.5 932,-5.5 756,-5.5"/>
<text text-anchor="middle" x="844" y="-12.5" font-family="Helvetica,sans-Serif" font-size="10.00">application.WaTorCell3.updateCell</text>
</a>
</g>
</g>
<!-- Node4&#45;&gt;Node5 -->
<g id="edge4" class="edge"><title>Node4&#45;&gt;Node5</title>
<path fill="none" stroke="midnightblue" d="M730.509,-15C738.949,-15 747.504,-15 755.93,-15"/>
<polygon fill="midnightblue" stroke="midnightblue" points="730.287,-11.5001 720.287,-15 730.287,-18.5001 730.287,-11.5001"/>
</g>
</g>
</svg>
