<?xml version="1.0" encoding="UTF-8" standalone="no"?>
<!DOCTYPE svg PUBLIC "-//W3C//DTD SVG 1.1//EN"
 "http://www.w3.org/Graphics/SVG/1.1/DTD/svg11.dtd">
<!-- Generated by graphviz version 2.36.0 (20140111.2315)
 -->
<!-- Title: application.WaTorCell3.sharkUpdate Pages: 1 -->
<svg width="928pt" height="121pt"
 viewBox="0.00 0.00 928.00 121.00" xmlns="http://www.w3.org/2000/svg" xmlns:xlink="http://www.w3.org/1999/xlink">
<g id="graph0" class="graph" transform="scale(1 1) rotate(0) translate(4 117)">
<title>application.WaTorCell3.sharkUpdate</title>
<polygon fill="white" stroke="none" points="-4,4 -4,-117 924,-117 924,4 -4,4"/>
<!-- Node1 -->
<g id="node1" class="node"><title>Node1</title>
<polygon fill="#bfbfbf" stroke="black" points="0.5,-22 0.5,-52 151.5,-52 151.5,-22 0.5,-22"/>
<text text-anchor="start" x="8.5" y="-40" font-family="Helvetica,sans-Serif" font-size="10.00">application.WaTorCell3.shark</text>
<text text-anchor="middle" x="76" y="-29" font-family="Helvetica,sans-Serif" font-size="10.00">Update</text>
</g>
<!-- Node2 -->
<g id="node2" class="node"><title>Node2</title>
<g id="a_node2"><a xlink:href="../../d2/d5a/classapplication_1_1_wa_tor_cell3.html#ad9941a6f4851767d1f1a65d3617af0e5" target="_top" xlink:title="application.WaTorCell3.eatFish">
<polygon fill="white" stroke="black" points="188,-49.5 188,-68.5 346,-68.5 346,-49.5 188,-49.5"/>
<text text-anchor="middle" x="267" y="-56.5" font-family="Helvetica,sans-Serif" font-size="10.00">application.WaTorCell3.eatFish</text>
</a>
</g>
</g>
<!-- Node1&#45;&gt;Node2 -->
<g id="edge1" class="edge"><title>Node1&#45;&gt;Node2</title>
<path fill="none" stroke="midnightblue" d="M151.698,-45.695C160.226,-46.6877 168.98,-47.7067 177.664,-48.7175"/>
<polygon fill="midnightblue" stroke="midnightblue" points="177.471,-52.2186 187.809,-49.8984 178.281,-45.2656 177.471,-52.2186"/>
</g>
<!-- Node7 -->
<g id="node7" class="node"><title>Node7</title>
<g id="a_node7"><a xlink:href="../../d2/d5a/classapplication_1_1_wa_tor_cell3.html#a7696114537273b506c74615dd880d871" target="_top" xlink:title="application.WaTorCell3.move\lShark">
<polygon fill="white" stroke="black" points="191,-0 191,-30 343,-30 343,-0 191,-0"/>
<text text-anchor="start" x="199" y="-18" font-family="Helvetica,sans-Serif" font-size="10.00">application.WaTorCell3.move</text>
<text text-anchor="middle" x="267" y="-7" font-family="Helvetica,sans-Serif" font-size="10.00">Shark</text>
</a>
</g>
</g>
<!-- Node1&#45;&gt;Node7 -->
<g id="edge6" class="edge"><title>Node1&#45;&gt;Node7</title>
<path fill="none" stroke="midnightblue" d="M151.698,-28.305C161.27,-27.1908 171.127,-26.0435 180.85,-24.9117"/>
<polygon fill="midnightblue" stroke="midnightblue" points="181.388,-28.3727 190.916,-23.7399 180.579,-21.4197 181.388,-28.3727"/>
</g>
<!-- Node3 -->
<g id="node3" class="node"><title>Node3</title>
<g id="a_node3"><a xlink:href="../../d2/d5a/classapplication_1_1_wa_tor_cell3.html#aee9f1c8b745509933289f2dd3903f1b5" target="_top" xlink:title="application.WaTorCell3.shark\lCheck">
<polygon fill="white" stroke="black" points="382.5,-44 382.5,-74 533.5,-74 533.5,-44 382.5,-44"/>
<text text-anchor="start" x="390.5" y="-62" font-family="Helvetica,sans-Serif" font-size="10.00">application.WaTorCell3.shark</text>
<text text-anchor="middle" x="458" y="-51" font-family="Helvetica,sans-Serif" font-size="10.00">Check</text>
</a>
</g>
</g>
<!-- Node2&#45;&gt;Node3 -->
<g id="edge2" class="edge"><title>Node2&#45;&gt;Node3</title>
<path fill="none" stroke="midnightblue" d="M346.238,-59C354.851,-59 363.65,-59 372.336,-59"/>
<polygon fill="midnightblue" stroke="midnightblue" points="372.464,-62.5001 382.464,-59 372.464,-55.5001 372.464,-62.5001"/>
</g>
<!-- Node4 -->
<g id="node4" class="node"><title>Node4</title>
<g id="a_node4"><a xlink:href="../../d2/d5a/classapplication_1_1_wa_tor_cell3.html#ac6469324e4692f54871cf1eb35fd0a41" target="_top" xlink:title="application.WaTorCell3.breed">
<polygon fill="white" stroke="black" points="570,-93.5 570,-112.5 722,-112.5 722,-93.5 570,-93.5"/>
<text text-anchor="middle" x="646" y="-100.5" font-family="Helvetica,sans-Serif" font-size="10.00">application.WaTorCell3.breed</text>
</a>
</g>
</g>
<!-- Node3&#45;&gt;Node4 -->
<g id="edge3" class="edge"><title>Node3&#45;&gt;Node4</title>
<path fill="none" stroke="midnightblue" d="M522.49,-74.0192C546.127,-79.6108 572.602,-85.8735 594.875,-91.1426"/>
<polygon fill="midnightblue" stroke="midnightblue" points="594.251,-94.5914 604.788,-93.4876 595.863,-87.7795 594.251,-94.5914"/>
</g>
<!-- Node6 -->
<g id="node6" class="node"><title>Node6</title>
<g id="a_node6"><a xlink:href="../../d2/d5a/classapplication_1_1_wa_tor_cell3.html#ae84770f2a6eb1dec28902327dbc607c5" target="_top" xlink:title="application.WaTorCell3.kill\lShark">
<polygon fill="white" stroke="black" points="577.5,-44 577.5,-74 714.5,-74 714.5,-44 577.5,-44"/>
<text text-anchor="start" x="585.5" y="-62" font-family="Helvetica,sans-Serif" font-size="10.00">application.WaTorCell3.kill</text>
<text text-anchor="middle" x="646" y="-51" font-family="Helvetica,sans-Serif" font-size="10.00">Shark</text>
</a>
</g>
</g>
<!-- Node3&#45;&gt;Node6 -->
<g id="edge5" class="edge"><title>Node3&#45;&gt;Node6</title>
<path fill="none" stroke="midnightblue" d="M533.582,-59C544.647,-59 556.075,-59 567.204,-59"/>
<polygon fill="midnightblue" stroke="midnightblue" points="567.322,-62.5001 577.322,-59 567.321,-55.5001 567.322,-62.5001"/>
</g>
<!-- Node5 -->
<g id="node5" class="node"><title>Node5</title>
<g id="a_node5"><a xlink:href="../../d2/d5a/classapplication_1_1_wa_tor_cell3.html#a53fd6e1b041b835f0438363b72546a23" target="_top" xlink:title="application.WaTorCell3.random\lFinder">
<polygon fill="white" stroke="black" points="758,-44 758,-74 920,-74 920,-44 758,-44"/>
<text text-anchor="start" x="766" y="-62" font-family="Helvetica,sans-Serif" font-size="10.00">application.WaTorCell3.random</text>
<text text-anchor="middle" x="839" y="-51" font-family="Helvetica,sans-Serif" font-size="10.00">Finder</text>
</a>
</g>
</g>
<!-- Node4&#45;&gt;Node5 -->
<g id="edge4" class="edge"><title>Node4&#45;&gt;Node5</title>
<path fill="none" stroke="midnightblue" d="M688.444,-93.4527C710.141,-88.4545 737.387,-82.1778 762.66,-76.3558"/>
<polygon fill="midnightblue" stroke="midnightblue" points="763.644,-79.721 772.603,-74.0654 762.072,-72.8996 763.644,-79.721"/>
</g>
<!-- Node7&#45;&gt;Node3 -->
<g id="edge8" class="edge"><title>Node7&#45;&gt;Node3</title>
<path fill="none" stroke="midnightblue" d="M332.514,-30.0192C348.543,-33.7508 365.856,-37.7814 382.328,-41.616"/>
<polygon fill="midnightblue" stroke="midnightblue" points="381.922,-45.1152 392.456,-43.9738 383.51,-38.2975 381.922,-45.1152"/>
</g>
<!-- Node7&#45;&gt;Node5 -->
<g id="edge7" class="edge"><title>Node7&#45;&gt;Node5</title>
<path fill="none" stroke="midnightblue" d="M343.042,-14.2387C433.337,-14.2211 589.362,-17.0573 722,-34 737.003,-35.9164 752.942,-38.7899 768.045,-41.9137"/>
<polygon fill="midnightblue" stroke="midnightblue" points="767.322,-45.3381 777.831,-43.9952 768.778,-38.4913 767.322,-45.3381"/>
</g>
</g>
</svg>
