<?xml version="1.0" encoding="UTF-8" standalone="no"?>
<!DOCTYPE svg PUBLIC "-//W3C//DTD SVG 1.1//EN"
 "http://www.w3.org/Graphics/SVG/1.1/DTD/svg11.dtd">
<!-- Generated by graphviz version 2.36.0 (20140111.2315)
 -->
<!-- Title: application.WaTorCell3.randomFinder Pages: 1 -->
<svg width="1346pt" height="144pt"
 viewBox="0.00 0.00 1346.00 143.78" xmlns="http://www.w3.org/2000/svg" xmlns:xlink="http://www.w3.org/1999/xlink">
<g id="graph0" class="graph" transform="scale(1 1) rotate(0) translate(4 139.783)">
<title>application.WaTorCell3.randomFinder</title>
<polygon fill="white" stroke="none" points="-4,4 -4,-139.783 1342,-139.783 1342,4 -4,4"/>
<!-- Node1 -->
<g id="node1" class="node"><title>Node1</title>
<polygon fill="#bfbfbf" stroke="black" points="0,-68 0,-98 162,-98 162,-68 0,-68"/>
<text text-anchor="start" x="8" y="-86" font-family="Helvetica,sans-Serif" font-size="10.00">application.WaTorCell3.random</text>
<text text-anchor="middle" x="81" y="-75" font-family="Helvetica,sans-Serif" font-size="10.00">Finder</text>
</g>
<!-- Node2 -->
<g id="node2" class="node"><title>Node2</title>
<g id="a_node2"><a xlink:href="../../d2/d5a/classapplication_1_1_wa_tor_cell3.html#ac6469324e4692f54871cf1eb35fd0a41" target="_top" xlink:title="application.WaTorCell3.breed">
<polygon fill="white" stroke="black" points="198,-73.5 198,-92.5 350,-92.5 350,-73.5 198,-73.5"/>
<text text-anchor="middle" x="274" y="-80.5" font-family="Helvetica,sans-Serif" font-size="10.00">application.WaTorCell3.breed</text>
</a>
</g>
</g>
<!-- Node1&#45;&gt;Node2 -->
<g id="edge1" class="edge"><title>Node1&#45;&gt;Node2</title>
<path fill="none" stroke="midnightblue" d="M172.223,-83C180.822,-83 189.479,-83 197.912,-83"/>
<polygon fill="midnightblue" stroke="midnightblue" points="172.171,-79.5001 162.171,-83 172.171,-86.5001 172.171,-79.5001"/>
</g>
<!-- Node4 -->
<g id="node4" class="node"><title>Node4</title>
<g id="a_node4"><a xlink:href="../../d2/d5a/classapplication_1_1_wa_tor_cell3.html#abc610dbe7d298b1320283222b050c19d" target="_top" xlink:title="application.WaTorCell3.moveFish">
<polygon fill="white" stroke="black" points="574,-98.5 574,-117.5 744,-117.5 744,-98.5 574,-98.5"/>
<text text-anchor="middle" x="659" y="-105.5" font-family="Helvetica,sans-Serif" font-size="10.00">application.WaTorCell3.moveFish</text>
</a>
</g>
</g>
<!-- Node1&#45;&gt;Node4 -->
<g id="edge13" class="edge"><title>Node1&#45;&gt;Node4</title>
<path fill="none" stroke="midnightblue" d="M154.864,-100.107C244.851,-119.094 402.631,-145.404 538,-132 565.802,-129.247 596.705,-122.99 620.187,-117.555"/>
<polygon fill="midnightblue" stroke="midnightblue" points="155.545,-96.6741 145.034,-98.0056 154.081,-103.519 155.545,-96.6741"/>
</g>
<!-- Node11 -->
<g id="node11" class="node"><title>Node11</title>
<g id="a_node11"><a xlink:href="../../d2/d5a/classapplication_1_1_wa_tor_cell3.html#a7696114537273b506c74615dd880d871" target="_top" xlink:title="application.WaTorCell3.move\lShark">
<polygon fill="white" stroke="black" points="583,-0 583,-30 735,-30 735,-0 583,-0"/>
<text text-anchor="start" x="591" y="-18" font-family="Helvetica,sans-Serif" font-size="10.00">application.WaTorCell3.move</text>
<text text-anchor="middle" x="659" y="-7" font-family="Helvetica,sans-Serif" font-size="10.00">Shark</text>
</a>
</g>
</g>
<!-- Node1&#45;&gt;Node11 -->
<g id="edge14" class="edge"><title>Node1&#45;&gt;Node11</title>
<path fill="none" stroke="midnightblue" d="M172.06,-68.2115C180.825,-66.7834 189.584,-65.3608 198,-64 281.528,-50.4949 301.936,-43.6241 386,-34 452.312,-26.4081 528.091,-21.4153 582.793,-18.4617"/>
<polygon fill="midnightblue" stroke="midnightblue" points="171.485,-64.7589 162.179,-69.8231 172.612,-71.6676 171.485,-64.7589"/>
</g>
<!-- Node3 -->
<g id="node3" class="node"><title>Node3</title>
<g id="a_node3"><a xlink:href="../../d2/d5a/classapplication_1_1_wa_tor_cell3.html#a8f391a3c42e1498c234d68556af06688" target="_top" xlink:title="application.WaTorCell3.fish\lCheck">
<polygon fill="white" stroke="black" points="391.5,-93 391.5,-123 532.5,-123 532.5,-93 391.5,-93"/>
<text text-anchor="start" x="399.5" y="-111" font-family="Helvetica,sans-Serif" font-size="10.00">application.WaTorCell3.fish</text>
<text text-anchor="middle" x="462" y="-100" font-family="Helvetica,sans-Serif" font-size="10.00">Check</text>
</a>
</g>
</g>
<!-- Node2&#45;&gt;Node3 -->
<g id="edge2" class="edge"><title>Node2&#45;&gt;Node3</title>
<path fill="none" stroke="midnightblue" d="M356.072,-93.8967C367.802,-95.4733 379.789,-97.0845 391.27,-98.6277"/>
<polygon fill="midnightblue" stroke="midnightblue" points="356.226,-90.3861 345.849,-92.5227 355.294,-97.3237 356.226,-90.3861"/>
</g>
<!-- Node8 -->
<g id="node8" class="node"><title>Node8</title>
<g id="a_node8"><a xlink:href="../../d2/d5a/classapplication_1_1_wa_tor_cell3.html#aee9f1c8b745509933289f2dd3903f1b5" target="_top" xlink:title="application.WaTorCell3.shark\lCheck">
<polygon fill="white" stroke="black" points="386.5,-44 386.5,-74 537.5,-74 537.5,-44 386.5,-44"/>
<text text-anchor="start" x="394.5" y="-62" font-family="Helvetica,sans-Serif" font-size="10.00">application.WaTorCell3.shark</text>
<text text-anchor="middle" x="462" y="-51" font-family="Helvetica,sans-Serif" font-size="10.00">Check</text>
</a>
</g>
</g>
<!-- Node2&#45;&gt;Node8 -->
<g id="edge7" class="edge"><title>Node2&#45;&gt;Node8</title>
<path fill="none" stroke="midnightblue" d="M358.723,-72.1971C367.947,-71.0068 377.294,-69.8007 386.396,-68.6263"/>
<polygon fill="midnightblue" stroke="midnightblue" points="358.249,-68.7291 348.779,-73.4801 359.145,-75.6715 358.249,-68.7291"/>
</g>
<!-- Node3&#45;&gt;Node4 -->
<g id="edge3" class="edge"><title>Node3&#45;&gt;Node4</title>
<path fill="none" stroke="midnightblue" d="M542.707,-108C552.948,-108 563.461,-108 573.771,-108"/>
<polygon fill="midnightblue" stroke="midnightblue" points="542.574,-104.5 532.574,-108 542.574,-111.5 542.574,-104.5"/>
</g>
<!-- Node5 -->
<g id="node5" class="node"><title>Node5</title>
<g id="a_node5"><a xlink:href="../../d2/d5a/classapplication_1_1_wa_tor_cell3.html#aa0909d104db3a4f6b7e3e8fe5e6c8ca4" target="_top" xlink:title="application.WaTorCell3.fish\lUpdate">
<polygon fill="white" stroke="black" points="785.5,-93 785.5,-123 926.5,-123 926.5,-93 785.5,-93"/>
<text text-anchor="start" x="793.5" y="-111" font-family="Helvetica,sans-Serif" font-size="10.00">application.WaTorCell3.fish</text>
<text text-anchor="middle" x="856" y="-100" font-family="Helvetica,sans-Serif" font-size="10.00">Update</text>
</a>
</g>
</g>
<!-- Node4&#45;&gt;Node5 -->
<g id="edge4" class="edge"><title>Node4&#45;&gt;Node5</title>
<path fill="none" stroke="midnightblue" d="M754.121,-108C764.593,-108 775.117,-108 785.209,-108"/>
<polygon fill="midnightblue" stroke="midnightblue" points="754.112,-104.5 744.112,-108 754.112,-111.5 754.112,-104.5"/>
</g>
<!-- Node6 -->
<g id="node6" class="node"><title>Node6</title>
<g id="a_node6"><a xlink:href="../../d2/d5a/classapplication_1_1_wa_tor_cell3.html#ab8b97147f1807a931d5f829aeffdb607" target="_top" xlink:title="application.WaTorCell3.update\lThisCell">
<polygon fill="white" stroke="black" points="968,-68 968,-98 1126,-98 1126,-68 968,-68"/>
<text text-anchor="start" x="976" y="-86" font-family="Helvetica,sans-Serif" font-size="10.00">application.WaTorCell3.update</text>
<text text-anchor="middle" x="1047" y="-75" font-family="Helvetica,sans-Serif" font-size="10.00">ThisCell</text>
</a>
</g>
</g>
<!-- Node5&#45;&gt;Node6 -->
<g id="edge5" class="edge"><title>Node5&#45;&gt;Node6</title>
<path fill="none" stroke="midnightblue" d="M936.793,-97.4453C947.114,-96.0801 957.675,-94.6832 967.967,-93.3218"/>
<polygon fill="midnightblue" stroke="midnightblue" points="936.026,-94.0162 926.571,-98.7974 936.944,-100.956 936.026,-94.0162"/>
</g>
<!-- Node7 -->
<g id="node7" class="node"><title>Node7</title>
<g id="a_node7"><a xlink:href="../../d2/d5a/classapplication_1_1_wa_tor_cell3.html#a26aff9621026adea9241bbb4c560d006" target="_top" xlink:title="application.WaTorCell3.updateCell">
<polygon fill="white" stroke="black" points="1162,-73.5 1162,-92.5 1338,-92.5 1338,-73.5 1162,-73.5"/>
<text text-anchor="middle" x="1250" y="-80.5" font-family="Helvetica,sans-Serif" font-size="10.00">application.WaTorCell3.updateCell</text>
</a>
</g>
</g>
<!-- Node6&#45;&gt;Node7 -->
<g id="edge6" class="edge"><title>Node6&#45;&gt;Node7</title>
<path fill="none" stroke="midnightblue" d="M1136.51,-83C1144.95,-83 1153.5,-83 1161.93,-83"/>
<polygon fill="midnightblue" stroke="midnightblue" points="1136.29,-79.5001 1126.29,-83 1136.29,-86.5001 1136.29,-79.5001"/>
</g>
<!-- Node9 -->
<g id="node9" class="node"><title>Node9</title>
<g id="a_node9"><a xlink:href="../../d2/d5a/classapplication_1_1_wa_tor_cell3.html#ad9941a6f4851767d1f1a65d3617af0e5" target="_top" xlink:title="application.WaTorCell3.eatFish">
<polygon fill="white" stroke="black" points="580,-49.5 580,-68.5 738,-68.5 738,-49.5 580,-49.5"/>
<text text-anchor="middle" x="659" y="-56.5" font-family="Helvetica,sans-Serif" font-size="10.00">application.WaTorCell3.eatFish</text>
</a>
</g>
</g>
<!-- Node8&#45;&gt;Node9 -->
<g id="edge8" class="edge"><title>Node8&#45;&gt;Node9</title>
<path fill="none" stroke="midnightblue" d="M547.731,-59C558.429,-59 569.336,-59 579.924,-59"/>
<polygon fill="midnightblue" stroke="midnightblue" points="547.556,-55.5001 537.556,-59 547.556,-62.5001 547.556,-55.5001"/>
</g>
<!-- Node8&#45;&gt;Node11 -->
<g id="edge11" class="edge"><title>Node8&#45;&gt;Node11</title>
<path fill="none" stroke="midnightblue" d="M539.531,-41.7316C556.667,-37.8648 574.711,-33.7934 591.407,-30.0262"/>
<polygon fill="midnightblue" stroke="midnightblue" points="538.547,-38.3654 529.563,-43.9808 540.088,-45.1938 538.547,-38.3654"/>
</g>
<!-- Node10 -->
<g id="node10" class="node"><title>Node10</title>
<g id="a_node10"><a xlink:href="../../d2/d5a/classapplication_1_1_wa_tor_cell3.html#aa045b3db2f2bde779f2d809c6f0614b9" target="_top" xlink:title="application.WaTorCell3.shark\lUpdate">
<polygon fill="white" stroke="black" points="780.5,-44 780.5,-74 931.5,-74 931.5,-44 780.5,-44"/>
<text text-anchor="start" x="788.5" y="-62" font-family="Helvetica,sans-Serif" font-size="10.00">application.WaTorCell3.shark</text>
<text text-anchor="middle" x="856" y="-51" font-family="Helvetica,sans-Serif" font-size="10.00">Update</text>
</a>
</g>
</g>
<!-- Node9&#45;&gt;Node10 -->
<g id="edge9" class="edge"><title>Node9&#45;&gt;Node10</title>
<path fill="none" stroke="midnightblue" d="M748.354,-59C759.02,-59 769.833,-59 780.277,-59"/>
<polygon fill="midnightblue" stroke="midnightblue" points="748.19,-55.5001 738.19,-59 748.19,-62.5001 748.19,-55.5001"/>
</g>
<!-- Node10&#45;&gt;Node6 -->
<g id="edge10" class="edge"><title>Node10&#45;&gt;Node6</title>
<path fill="none" stroke="midnightblue" d="M941.795,-69.7677C950.455,-70.8673 959.225,-71.9809 967.809,-73.071"/>
<polygon fill="midnightblue" stroke="midnightblue" points="942.059,-66.2731 931.698,-68.4854 941.177,-73.2174 942.059,-66.2731"/>
</g>
<!-- Node11&#45;&gt;Node10 -->
<g id="edge12" class="edge"><title>Node11&#45;&gt;Node10</title>
<path fill="none" stroke="midnightblue" d="M736.531,-32.2684C753.667,-36.1352 771.711,-40.2066 788.407,-43.9738"/>
<polygon fill="midnightblue" stroke="midnightblue" points="737.088,-28.8062 726.563,-30.0192 735.547,-35.6346 737.088,-28.8062"/>
</g>
</g>
</svg>
