<?xml version="1.0" encoding="UTF-8" standalone="no"?>
<!DOCTYPE svg PUBLIC "-//W3C//DTD SVG 1.1//EN"
 "http://www.w3.org/Graphics/SVG/1.1/DTD/svg11.dtd">
<!-- Generated by graphviz version 2.36.0 (20140111.2315)
 -->
<!-- Title: application.WaTorCell3.moveFish Pages: 1 -->
<svg width="742pt" height="62pt"
 viewBox="0.00 0.00 742.00 62.00" xmlns="http://www.w3.org/2000/svg" xmlns:xlink="http://www.w3.org/1999/xlink">
<g id="graph0" class="graph" transform="scale(1 1) rotate(0) translate(4 58)">
<title>application.WaTorCell3.moveFish</title>
<polygon fill="white" stroke="none" points="-4,4 -4,-58 738,-58 738,4 -4,4"/>
<!-- Node1 -->
<g id="node1" class="node"><title>Node1</title>
<polygon fill="#bfbfbf" stroke="black" points="0,-7.5 0,-26.5 170,-26.5 170,-7.5 0,-7.5"/>
<text text-anchor="middle" x="85" y="-14.5" font-family="Helvetica,sans-Serif" font-size="10.00">application.WaTorCell3.moveFish</text>
</g>
<!-- Node2 -->
<g id="node2" class="node"><title>Node2</title>
<g id="a_node2"><a xlink:href="../../d2/d5a/classapplication_1_1_wa_tor_cell3.html#a8f391a3c42e1498c234d68556af06688" target="_top" xlink:title="application.WaTorCell3.fish\lCheck">
<polygon fill="white" stroke="black" points="206.5,-24 206.5,-54 347.5,-54 347.5,-24 206.5,-24"/>
<text text-anchor="start" x="214.5" y="-42" font-family="Helvetica,sans-Serif" font-size="10.00">application.WaTorCell3.fish</text>
<text text-anchor="middle" x="277" y="-31" font-family="Helvetica,sans-Serif" font-size="10.00">Check</text>
</a>
</g>
</g>
<!-- Node1&#45;&gt;Node2 -->
<g id="edge1" class="edge"><title>Node1&#45;&gt;Node2</title>
<path fill="none" stroke="midnightblue" d="M168.232,-26.5216C177.586,-27.6046 187.108,-28.7072 196.426,-29.7862"/>
<polygon fill="midnightblue" stroke="midnightblue" points="196.104,-33.2722 206.44,-30.9457 196.909,-26.3187 196.104,-33.2722"/>
</g>
<!-- Node4 -->
<g id="node4" class="node"><title>Node4</title>
<g id="a_node4"><a xlink:href="../../d2/d5a/classapplication_1_1_wa_tor_cell3.html#a53fd6e1b041b835f0438363b72546a23" target="_top" xlink:title="application.WaTorCell3.random\lFinder">
<polygon fill="white" stroke="black" points="572,-0 572,-30 734,-30 734,-0 572,-0"/>
<text text-anchor="start" x="580" y="-18" font-family="Helvetica,sans-Serif" font-size="10.00">application.WaTorCell3.random</text>
<text text-anchor="middle" x="653" y="-7" font-family="Helvetica,sans-Serif" font-size="10.00">Finder</text>
</a>
</g>
</g>
<!-- Node1&#45;&gt;Node4 -->
<g id="edge4" class="edge"><title>Node1&#45;&gt;Node4</title>
<path fill="none" stroke="midnightblue" d="M170.243,-14.6279C182.244,-14.3674 194.435,-14.1445 206,-14 329.196,-12.4603 471.549,-13.2209 561.65,-14.0172"/>
<polygon fill="midnightblue" stroke="midnightblue" points="561.8,-17.5186 571.831,-14.1093 561.863,-10.5189 561.8,-17.5186"/>
</g>
<!-- Node3 -->
<g id="node3" class="node"><title>Node3</title>
<g id="a_node3"><a xlink:href="../../d2/d5a/classapplication_1_1_wa_tor_cell3.html#ac6469324e4692f54871cf1eb35fd0a41" target="_top" xlink:title="application.WaTorCell3.breed">
<polygon fill="white" stroke="black" points="384,-26.5 384,-45.5 536,-45.5 536,-26.5 384,-26.5"/>
<text text-anchor="middle" x="460" y="-33.5" font-family="Helvetica,sans-Serif" font-size="10.00">application.WaTorCell3.breed</text>
</a>
</g>
</g>
<!-- Node2&#45;&gt;Node3 -->
<g id="edge2" class="edge"><title>Node2&#45;&gt;Node3</title>
<path fill="none" stroke="midnightblue" d="M347.72,-37.8444C356.238,-37.7032 365.016,-37.5578 373.728,-37.4133"/>
<polygon fill="midnightblue" stroke="midnightblue" points="373.966,-40.91 383.907,-37.2446 373.85,-33.9109 373.966,-40.91"/>
</g>
<!-- Node3&#45;&gt;Node4 -->
<g id="edge3" class="edge"><title>Node3&#45;&gt;Node4</title>
<path fill="none" stroke="midnightblue" d="M536.214,-27.7304C544.618,-26.8064 553.241,-25.8583 561.807,-24.9165"/>
<polygon fill="midnightblue" stroke="midnightblue" points="562.263,-28.3876 571.82,-23.8156 561.498,-21.4295 562.263,-28.3876"/>
</g>
</g>
</svg>
