<?xml version="1.0" encoding="UTF-8" standalone="no"?>
<!DOCTYPE svg PUBLIC "-//W3C//DTD SVG 1.1//EN"
 "http://www.w3.org/Graphics/SVG/1.1/DTD/svg11.dtd">
<!-- Generated by graphviz version 2.36.0 (20140111.2315)
 -->
<!-- Title: application.WaTorCell3.eatFish Pages: 1 -->
<svg width="760pt" height="38pt"
 viewBox="0.00 0.00 760.00 38.00" xmlns="http://www.w3.org/2000/svg" xmlns:xlink="http://www.w3.org/1999/xlink">
<g id="graph0" class="graph" transform="scale(1 1) rotate(0) translate(4 34)">
<title>application.WaTorCell3.eatFish</title>
<polygon fill="white" stroke="none" points="-4,4 -4,-34 756,-34 756,4 -4,4"/>
<!-- Node1 -->
<g id="node1" class="node"><title>Node1</title>
<polygon fill="#bfbfbf" stroke="black" points="0,-5.5 0,-24.5 158,-24.5 158,-5.5 0,-5.5"/>
<text text-anchor="middle" x="79" y="-12.5" font-family="Helvetica,sans-Serif" font-size="10.00">application.WaTorCell3.eatFish</text>
</g>
<!-- Node2 -->
<g id="node2" class="node"><title>Node2</title>
<g id="a_node2"><a xlink:href="../../d2/d5a/classapplication_1_1_wa_tor_cell3.html#aa045b3db2f2bde779f2d809c6f0614b9" target="_top" xlink:title="application.WaTorCell3.shark\lUpdate">
<polygon fill="white" stroke="black" points="194.5,-0 194.5,-30 345.5,-30 345.5,-0 194.5,-0"/>
<text text-anchor="start" x="202.5" y="-18" font-family="Helvetica,sans-Serif" font-size="10.00">application.WaTorCell3.shark</text>
<text text-anchor="middle" x="270" y="-7" font-family="Helvetica,sans-Serif" font-size="10.00">Update</text>
</a>
</g>
</g>
<!-- Node1&#45;&gt;Node2 -->
<g id="edge1" class="edge"><title>Node1&#45;&gt;Node2</title>
<path fill="none" stroke="midnightblue" d="M168.416,-15C177.129,-15 185.911,-15 194.464,-15"/>
<polygon fill="midnightblue" stroke="midnightblue" points="168.238,-11.5001 158.238,-15 168.238,-18.5001 168.238,-11.5001"/>
</g>
<!-- Node3 -->
<g id="node3" class="node"><title>Node3</title>
<g id="a_node3"><a xlink:href="../../d2/d5a/classapplication_1_1_wa_tor_cell3.html#ab8b97147f1807a931d5f829aeffdb607" target="_top" xlink:title="application.WaTorCell3.update\lThisCell">
<polygon fill="white" stroke="black" points="382,-0 382,-30 540,-30 540,-0 382,-0"/>
<text text-anchor="start" x="390" y="-18" font-family="Helvetica,sans-Serif" font-size="10.00">application.WaTorCell3.update</text>
<text text-anchor="middle" x="461" y="-7" font-family="Helvetica,sans-Serif" font-size="10.00">ThisCell</text>
</a>
</g>
</g>
<!-- Node2&#45;&gt;Node3 -->
<g id="edge2" class="edge"><title>Node2&#45;&gt;Node3</title>
<path fill="none" stroke="midnightblue" d="M355.795,-15C364.455,-15 373.225,-15 381.809,-15"/>
<polygon fill="midnightblue" stroke="midnightblue" points="355.698,-11.5001 345.698,-15 355.698,-18.5001 355.698,-11.5001"/>
</g>
<!-- Node4 -->
<g id="node4" class="node"><title>Node4</title>
<g id="a_node4"><a xlink:href="../../d2/d5a/classapplication_1_1_wa_tor_cell3.html#a26aff9621026adea9241bbb4c560d006" target="_top" xlink:title="application.WaTorCell3.updateCell">
<polygon fill="white" stroke="black" points="576,-5.5 576,-24.5 752,-24.5 752,-5.5 576,-5.5"/>
<text text-anchor="middle" x="664" y="-12.5" font-family="Helvetica,sans-Serif" font-size="10.00">application.WaTorCell3.updateCell</text>
</a>
</g>
</g>
<!-- Node3&#45;&gt;Node4 -->
<g id="edge3" class="edge"><title>Node3&#45;&gt;Node4</title>
<path fill="none" stroke="midnightblue" d="M550.509,-15C558.949,-15 567.504,-15 575.93,-15"/>
<polygon fill="midnightblue" stroke="midnightblue" points="550.287,-11.5001 540.287,-15 550.287,-18.5001 550.287,-11.5001"/>
</g>
</g>
</svg>
