<?xml version="1.0" encoding="UTF-8" standalone="no"?>
<!DOCTYPE svg PUBLIC "-//W3C//DTD SVG 1.1//EN"
 "http://www.w3.org/Graphics/SVG/1.1/DTD/svg11.dtd">
<!-- Generated by graphviz version 2.36.0 (20140111.2315)
 -->
<!-- Title: application.WaTorCell3.updateThisCell Pages: 1 -->
<svg width="1134pt" height="148pt"
 viewBox="0.00 0.00 1134.00 148.36" xmlns="http://www.w3.org/2000/svg" xmlns:xlink="http://www.w3.org/1999/xlink">
<g id="graph0" class="graph" transform="scale(1 1) rotate(0) translate(4 144.363)">
<title>application.WaTorCell3.updateThisCell</title>
<polygon fill="white" stroke="none" points="-4,4 -4,-144.363 1130,-144.363 1130,4 -4,4"/>
<!-- Node1 -->
<g id="node1" class="node"><title>Node1</title>
<polygon fill="#bfbfbf" stroke="black" points="0,-68 0,-98 158,-98 158,-68 0,-68"/>
<text text-anchor="start" x="8" y="-86" font-family="Helvetica,sans-Serif" font-size="10.00">application.WaTorCell3.update</text>
<text text-anchor="middle" x="79" y="-75" font-family="Helvetica,sans-Serif" font-size="10.00">ThisCell</text>
</g>
<!-- Node2 -->
<g id="node2" class="node"><title>Node2</title>
<g id="a_node2"><a xlink:href="../../d2/d5a/classapplication_1_1_wa_tor_cell3.html#aa0909d104db3a4f6b7e3e8fe5e6c8ca4" target="_top" xlink:title="application.WaTorCell3.fish\lUpdate">
<polygon fill="white" stroke="black" points="199.5,-93 199.5,-123 340.5,-123 340.5,-93 199.5,-93"/>
<text text-anchor="start" x="207.5" y="-111" font-family="Helvetica,sans-Serif" font-size="10.00">application.WaTorCell3.fish</text>
<text text-anchor="middle" x="270" y="-100" font-family="Helvetica,sans-Serif" font-size="10.00">Update</text>
</a>
</g>
</g>
<!-- Node1&#45;&gt;Node2 -->
<g id="edge1" class="edge"><title>Node1&#45;&gt;Node2</title>
<path fill="none" stroke="midnightblue" d="M158.238,-93.3489C168.444,-94.6989 178.911,-96.0835 189.143,-97.4369"/>
<polygon fill="midnightblue" stroke="midnightblue" points="188.906,-100.936 199.279,-98.7776 189.824,-93.9964 188.906,-100.936"/>
</g>
<!-- Node7 -->
<g id="node7" class="node"><title>Node7</title>
<g id="a_node7"><a xlink:href="../../d2/d5a/classapplication_1_1_wa_tor_cell3.html#aa045b3db2f2bde779f2d809c6f0614b9" target="_top" xlink:title="application.WaTorCell3.shark\lUpdate">
<polygon fill="white" stroke="black" points="194.5,-44 194.5,-74 345.5,-74 345.5,-44 194.5,-44"/>
<text text-anchor="start" x="202.5" y="-62" font-family="Helvetica,sans-Serif" font-size="10.00">application.WaTorCell3.shark</text>
<text text-anchor="middle" x="270" y="-51" font-family="Helvetica,sans-Serif" font-size="10.00">Update</text>
</a>
</g>
</g>
<!-- Node1&#45;&gt;Node7 -->
<g id="edge7" class="edge"><title>Node1&#45;&gt;Node7</title>
<path fill="none" stroke="midnightblue" d="M158.238,-73.065C166.851,-71.9713 175.65,-70.854 184.336,-69.751"/>
<polygon fill="midnightblue" stroke="midnightblue" points="184.985,-73.1968 194.464,-68.4648 184.103,-66.2525 184.985,-73.1968"/>
</g>
<!-- Node3 -->
<g id="node3" class="node"><title>Node3</title>
<g id="a_node3"><a xlink:href="../../d2/d5a/classapplication_1_1_wa_tor_cell3.html#abc610dbe7d298b1320283222b050c19d" target="_top" xlink:title="application.WaTorCell3.moveFish">
<polygon fill="white" stroke="black" points="382,-98.5 382,-117.5 552,-117.5 552,-98.5 382,-98.5"/>
<text text-anchor="middle" x="467" y="-105.5" font-family="Helvetica,sans-Serif" font-size="10.00">application.WaTorCell3.moveFish</text>
</a>
</g>
</g>
<!-- Node2&#45;&gt;Node3 -->
<g id="edge2" class="edge"><title>Node2&#45;&gt;Node3</title>
<path fill="none" stroke="midnightblue" d="M340.574,-108C350.686,-108 361.236,-108 371.736,-108"/>
<polygon fill="midnightblue" stroke="midnightblue" points="371.771,-111.5 381.771,-108 371.771,-104.5 371.771,-111.5"/>
</g>
<!-- Node4 -->
<g id="node4" class="node"><title>Node4</title>
<g id="a_node4"><a xlink:href="../../d2/d5a/classapplication_1_1_wa_tor_cell3.html#a8f391a3c42e1498c234d68556af06688" target="_top" xlink:title="application.WaTorCell3.fish\lCheck">
<polygon fill="white" stroke="black" points="593.5,-93 593.5,-123 734.5,-123 734.5,-93 593.5,-93"/>
<text text-anchor="start" x="601.5" y="-111" font-family="Helvetica,sans-Serif" font-size="10.00">application.WaTorCell3.fish</text>
<text text-anchor="middle" x="664" y="-100" font-family="Helvetica,sans-Serif" font-size="10.00">Check</text>
</a>
</g>
</g>
<!-- Node3&#45;&gt;Node4 -->
<g id="edge3" class="edge"><title>Node3&#45;&gt;Node4</title>
<path fill="none" stroke="midnightblue" d="M552.112,-108C562.395,-108 572.879,-108 583.097,-108"/>
<polygon fill="midnightblue" stroke="midnightblue" points="583.209,-111.5 593.209,-108 583.209,-104.5 583.209,-111.5"/>
</g>
<!-- Node6 -->
<g id="node6" class="node"><title>Node6</title>
<g id="a_node6"><a xlink:href="../../d2/d5a/classapplication_1_1_wa_tor_cell3.html#a53fd6e1b041b835f0438363b72546a23" target="_top" xlink:title="application.WaTorCell3.random\lFinder">
<polygon fill="white" stroke="black" points="964,-90 964,-120 1126,-120 1126,-90 964,-90"/>
<text text-anchor="start" x="972" y="-108" font-family="Helvetica,sans-Serif" font-size="10.00">application.WaTorCell3.random</text>
<text text-anchor="middle" x="1045" y="-97" font-family="Helvetica,sans-Serif" font-size="10.00">Finder</text>
</a>
</g>
</g>
<!-- Node3&#45;&gt;Node6 -->
<g id="edge6" class="edge"><title>Node3&#45;&gt;Node6</title>
<path fill="none" stroke="midnightblue" d="M505.813,-117.555C529.295,-122.99 560.198,-129.247 588,-132 738.417,-146.894 777.639,-139.457 928,-124 936.481,-123.128 945.283,-122.035 954.076,-120.816"/>
<polygon fill="midnightblue" stroke="midnightblue" points="954.582,-124.279 963.981,-119.391 953.585,-117.35 954.582,-124.279"/>
</g>
<!-- Node5 -->
<g id="node5" class="node"><title>Node5</title>
<g id="a_node5"><a xlink:href="../../d2/d5a/classapplication_1_1_wa_tor_cell3.html#ac6469324e4692f54871cf1eb35fd0a41" target="_top" xlink:title="application.WaTorCell3.breed">
<polygon fill="white" stroke="black" points="776,-95.5 776,-114.5 928,-114.5 928,-95.5 776,-95.5"/>
<text text-anchor="middle" x="852" y="-102.5" font-family="Helvetica,sans-Serif" font-size="10.00">application.WaTorCell3.breed</text>
</a>
</g>
</g>
<!-- Node4&#45;&gt;Node5 -->
<g id="edge4" class="edge"><title>Node4&#45;&gt;Node5</title>
<path fill="none" stroke="midnightblue" d="M734.524,-106.879C744.768,-106.713 755.418,-106.542 765.932,-106.372"/>
<polygon fill="midnightblue" stroke="midnightblue" points="766.01,-109.871 775.952,-106.21 765.897,-102.872 766.01,-109.871"/>
</g>
<!-- Node5&#45;&gt;Node6 -->
<g id="edge5" class="edge"><title>Node5&#45;&gt;Node6</title>
<path fill="none" stroke="midnightblue" d="M928.214,-105C936.618,-105 945.241,-105 953.807,-105"/>
<polygon fill="midnightblue" stroke="midnightblue" points="953.82,-108.5 963.82,-105 953.82,-101.5 953.82,-108.5"/>
</g>
<!-- Node8 -->
<g id="node8" class="node"><title>Node8</title>
<g id="a_node8"><a xlink:href="../../d2/d5a/classapplication_1_1_wa_tor_cell3.html#ad9941a6f4851767d1f1a65d3617af0e5" target="_top" xlink:title="application.WaTorCell3.eatFish">
<polygon fill="white" stroke="black" points="388,-49.5 388,-68.5 546,-68.5 546,-49.5 388,-49.5"/>
<text text-anchor="middle" x="467" y="-56.5" font-family="Helvetica,sans-Serif" font-size="10.00">application.WaTorCell3.eatFish</text>
</a>
</g>
</g>
<!-- Node7&#45;&gt;Node8 -->
<g id="edge8" class="edge"><title>Node7&#45;&gt;Node8</title>
<path fill="none" stroke="midnightblue" d="M345.556,-59C356.067,-59 366.954,-59 377.692,-59"/>
<polygon fill="midnightblue" stroke="midnightblue" points="377.924,-62.5001 387.924,-59 377.924,-55.5001 377.924,-62.5001"/>
</g>
<!-- Node11 -->
<g id="node11" class="node"><title>Node11</title>
<g id="a_node11"><a xlink:href="../../d2/d5a/classapplication_1_1_wa_tor_cell3.html#a7696114537273b506c74615dd880d871" target="_top" xlink:title="application.WaTorCell3.move\lShark">
<polygon fill="white" stroke="black" points="391,-0 391,-30 543,-30 543,-0 391,-0"/>
<text text-anchor="start" x="399" y="-18" font-family="Helvetica,sans-Serif" font-size="10.00">application.WaTorCell3.move</text>
<text text-anchor="middle" x="467" y="-7" font-family="Helvetica,sans-Serif" font-size="10.00">Shark</text>
</a>
</g>
</g>
<!-- Node7&#45;&gt;Node11 -->
<g id="edge12" class="edge"><title>Node7&#45;&gt;Node11</title>
<path fill="none" stroke="midnightblue" d="M337.563,-43.9808C354.256,-40.214 372.3,-36.1426 389.438,-32.2756"/>
<polygon fill="midnightblue" stroke="midnightblue" points="390.422,-35.6415 399.407,-30.0262 388.881,-28.8132 390.422,-35.6415"/>
</g>
<!-- Node9 -->
<g id="node9" class="node"><title>Node9</title>
<g id="a_node9"><a xlink:href="../../d2/d5a/classapplication_1_1_wa_tor_cell3.html#aee9f1c8b745509933289f2dd3903f1b5" target="_top" xlink:title="application.WaTorCell3.shark\lCheck">
<polygon fill="white" stroke="black" points="588.5,-44 588.5,-74 739.5,-74 739.5,-44 588.5,-44"/>
<text text-anchor="start" x="596.5" y="-62" font-family="Helvetica,sans-Serif" font-size="10.00">application.WaTorCell3.shark</text>
<text text-anchor="middle" x="664" y="-51" font-family="Helvetica,sans-Serif" font-size="10.00">Check</text>
</a>
</g>
</g>
<!-- Node8&#45;&gt;Node9 -->
<g id="edge9" class="edge"><title>Node8&#45;&gt;Node9</title>
<path fill="none" stroke="midnightblue" d="M546.19,-59C556.709,-59 567.54,-59 578.167,-59"/>
<polygon fill="midnightblue" stroke="midnightblue" points="578.277,-62.5001 588.277,-59 578.277,-55.5001 578.277,-62.5001"/>
</g>
<!-- Node9&#45;&gt;Node5 -->
<g id="edge10" class="edge"><title>Node9&#45;&gt;Node5</title>
<path fill="none" stroke="midnightblue" d="M725.903,-74.0621C750.841,-80.2295 779.288,-87.2647 802.747,-93.0665"/>
<polygon fill="midnightblue" stroke="midnightblue" points="801.923,-96.4682 812.471,-95.4714 803.604,-89.6729 801.923,-96.4682"/>
</g>
<!-- Node10 -->
<g id="node10" class="node"><title>Node10</title>
<g id="a_node10"><a xlink:href="../../d2/d5a/classapplication_1_1_wa_tor_cell3.html#ae84770f2a6eb1dec28902327dbc607c5" target="_top" xlink:title="application.WaTorCell3.kill\lShark">
<polygon fill="white" stroke="black" points="783.5,-44 783.5,-74 920.5,-74 920.5,-44 783.5,-44"/>
<text text-anchor="start" x="791.5" y="-62" font-family="Helvetica,sans-Serif" font-size="10.00">application.WaTorCell3.kill</text>
<text text-anchor="middle" x="852" y="-51" font-family="Helvetica,sans-Serif" font-size="10.00">Shark</text>
</a>
</g>
</g>
<!-- Node9&#45;&gt;Node10 -->
<g id="edge11" class="edge"><title>Node9&#45;&gt;Node10</title>
<path fill="none" stroke="midnightblue" d="M739.582,-59C750.647,-59 762.075,-59 773.204,-59"/>
<polygon fill="midnightblue" stroke="midnightblue" points="773.322,-62.5001 783.322,-59 773.321,-55.5001 773.322,-62.5001"/>
</g>
<!-- Node11&#45;&gt;Node6 -->
<g id="edge13" class="edge"><title>Node11&#45;&gt;Node6</title>
<path fill="none" stroke="midnightblue" d="M543.213,-6.73884C635.921,0.888887 797.236,5.7725 928,-34 961.852,-44.2963 995.821,-66.8672 1018.17,-83.8142"/>
<polygon fill="midnightblue" stroke="midnightblue" points="1016.09,-86.634 1026.14,-89.9965 1020.38,-81.1025 1016.09,-86.634"/>
</g>
<!-- Node11&#45;&gt;Node9 -->
<g id="edge14" class="edge"><title>Node11&#45;&gt;Node9</title>
<path fill="none" stroke="midnightblue" d="M534.563,-30.0192C551.256,-33.786 569.3,-37.8574 586.438,-41.7244"/>
<polygon fill="midnightblue" stroke="midnightblue" points="585.881,-45.1868 596.407,-43.9738 587.422,-38.3585 585.881,-45.1868"/>
</g>
</g>
</svg>
