<?xml version="1.0" encoding="UTF-8" standalone="no"?>
<!DOCTYPE svg PUBLIC "-//W3C//DTD SVG 1.1//EN"
 "http://www.w3.org/Graphics/SVG/1.1/DTD/svg11.dtd">
<!-- Generated by graphviz version 2.36.0 (20140111.2315)
 -->
<!-- Title: application.WaTorCell3.updateCell Pages: 1 -->
<svg width="1346pt" height="151pt"
 viewBox="0.00 0.00 1346.00 150.64" xmlns="http://www.w3.org/2000/svg" xmlns:xlink="http://www.w3.org/1999/xlink">
<g id="graph0" class="graph" transform="scale(1 1) rotate(0) translate(4 146.645)">
<title>application.WaTorCell3.updateCell</title>
<polygon fill="white" stroke="none" points="-4,4 -4,-146.645 1342,-146.645 1342,4 -4,4"/>
<!-- Node1 -->
<g id="node1" class="node"><title>Node1</title>
<polygon fill="#bfbfbf" stroke="black" points="0,-48.1449 0,-67.1449 176,-67.1449 176,-48.1449 0,-48.1449"/>
<text text-anchor="middle" x="88" y="-55.1449" font-family="Helvetica,sans-Serif" font-size="10.00">application.WaTorCell3.updateCell</text>
</g>
<!-- Node2 -->
<g id="node2" class="node"><title>Node2</title>
<g id="a_node2"><a xlink:href="../../d2/d5a/classapplication_1_1_wa_tor_cell3.html#ab8b97147f1807a931d5f829aeffdb607" target="_top" xlink:title="application.WaTorCell3.update\lThisCell">
<polygon fill="white" stroke="black" points="212,-42.6449 212,-72.6449 370,-72.6449 370,-42.6449 212,-42.6449"/>
<text text-anchor="start" x="220" y="-60.6449" font-family="Helvetica,sans-Serif" font-size="10.00">application.WaTorCell3.update</text>
<text text-anchor="middle" x="291" y="-49.6449" font-family="Helvetica,sans-Serif" font-size="10.00">ThisCell</text>
</a>
</g>
</g>
<!-- Node1&#45;&gt;Node2 -->
<g id="edge1" class="edge"><title>Node1&#45;&gt;Node2</title>
<path fill="none" stroke="midnightblue" d="M176.285,-57.6449C184.721,-57.6449 193.283,-57.6449 201.728,-57.6449"/>
<polygon fill="midnightblue" stroke="midnightblue" points="201.956,-61.145 211.955,-57.6449 201.955,-54.145 201.956,-61.145"/>
</g>
<!-- Node3 -->
<g id="node3" class="node"><title>Node3</title>
<g id="a_node3"><a xlink:href="../../d2/d5a/classapplication_1_1_wa_tor_cell3.html#aa045b3db2f2bde779f2d809c6f0614b9" target="_top" xlink:title="application.WaTorCell3.shark\lUpdate">
<polygon fill="white" stroke="black" points="406.5,-67.6449 406.5,-97.6449 557.5,-97.6449 557.5,-67.6449 406.5,-67.6449"/>
<text text-anchor="start" x="414.5" y="-85.6449" font-family="Helvetica,sans-Serif" font-size="10.00">application.WaTorCell3.shark</text>
<text text-anchor="middle" x="482" y="-74.6449" font-family="Helvetica,sans-Serif" font-size="10.00">Update</text>
</a>
</g>
</g>
<!-- Node2&#45;&gt;Node3 -->
<g id="edge2" class="edge"><title>Node2&#45;&gt;Node3</title>
<path fill="none" stroke="midnightblue" d="M370.238,-67.9938C378.851,-69.1331 387.65,-70.2969 396.336,-71.446"/>
<polygon fill="midnightblue" stroke="midnightblue" points="396.092,-74.944 406.464,-72.7856 397.01,-68.0045 396.092,-74.944"/>
</g>
<!-- Node10 -->
<g id="node10" class="node"><title>Node10</title>
<g id="a_node10"><a xlink:href="../../d2/d5a/classapplication_1_1_wa_tor_cell3.html#aa0909d104db3a4f6b7e3e8fe5e6c8ca4" target="_top" xlink:title="application.WaTorCell3.fish\lUpdate">
<polygon fill="white" stroke="black" points="411.5,-18.6449 411.5,-48.6449 552.5,-48.6449 552.5,-18.6449 411.5,-18.6449"/>
<text text-anchor="start" x="419.5" y="-36.6449" font-family="Helvetica,sans-Serif" font-size="10.00">application.WaTorCell3.fish</text>
<text text-anchor="middle" x="482" y="-25.6449" font-family="Helvetica,sans-Serif" font-size="10.00">Update</text>
</a>
</g>
</g>
<!-- Node2&#45;&gt;Node10 -->
<g id="edge11" class="edge"><title>Node2&#45;&gt;Node10</title>
<path fill="none" stroke="midnightblue" d="M370.238,-47.7099C380.444,-46.4139 390.911,-45.0847 401.143,-43.7854"/>
<polygon fill="midnightblue" stroke="midnightblue" points="401.799,-47.2303 411.279,-42.4984 400.917,-40.286 401.799,-47.2303"/>
</g>
<!-- Node4 -->
<g id="node4" class="node"><title>Node4</title>
<g id="a_node4"><a xlink:href="../../d2/d5a/classapplication_1_1_wa_tor_cell3.html#ad9941a6f4851767d1f1a65d3617af0e5" target="_top" xlink:title="application.WaTorCell3.eatFish">
<polygon fill="white" stroke="black" points="600,-73.1449 600,-92.1449 758,-92.1449 758,-73.1449 600,-73.1449"/>
<text text-anchor="middle" x="679" y="-80.1449" font-family="Helvetica,sans-Serif" font-size="10.00">application.WaTorCell3.eatFish</text>
</a>
</g>
</g>
<!-- Node3&#45;&gt;Node4 -->
<g id="edge3" class="edge"><title>Node3&#45;&gt;Node4</title>
<path fill="none" stroke="midnightblue" d="M557.556,-82.6449C568.067,-82.6449 578.954,-82.6449 589.692,-82.6449"/>
<polygon fill="midnightblue" stroke="midnightblue" points="589.924,-86.145 599.924,-82.6449 589.924,-79.145 589.924,-86.145"/>
</g>
<!-- Node9 -->
<g id="node9" class="node"><title>Node9</title>
<g id="a_node9"><a xlink:href="../../d2/d5a/classapplication_1_1_wa_tor_cell3.html#a7696114537273b506c74615dd880d871" target="_top" xlink:title="application.WaTorCell3.move\lShark">
<polygon fill="white" stroke="black" points="603,-111.645 603,-141.645 755,-141.645 755,-111.645 603,-111.645"/>
<text text-anchor="start" x="611" y="-129.645" font-family="Helvetica,sans-Serif" font-size="10.00">application.WaTorCell3.move</text>
<text text-anchor="middle" x="679" y="-118.645" font-family="Helvetica,sans-Serif" font-size="10.00">Shark</text>
</a>
</g>
</g>
<!-- Node3&#45;&gt;Node9 -->
<g id="edge8" class="edge"><title>Node3&#45;&gt;Node9</title>
<path fill="none" stroke="midnightblue" d="M549.563,-97.6641C566.256,-101.431 584.3,-105.502 601.438,-109.369"/>
<polygon fill="midnightblue" stroke="midnightblue" points="600.881,-112.832 611.407,-111.619 602.422,-106.003 600.881,-112.832"/>
</g>
<!-- Node5 -->
<g id="node5" class="node"><title>Node5</title>
<g id="a_node5"><a xlink:href="../../d2/d5a/classapplication_1_1_wa_tor_cell3.html#aee9f1c8b745509933289f2dd3903f1b5" target="_top" xlink:title="application.WaTorCell3.shark\lCheck">
<polygon fill="white" stroke="black" points="800.5,-67.6449 800.5,-97.6449 951.5,-97.6449 951.5,-67.6449 800.5,-67.6449"/>
<text text-anchor="start" x="808.5" y="-85.6449" font-family="Helvetica,sans-Serif" font-size="10.00">application.WaTorCell3.shark</text>
<text text-anchor="middle" x="876" y="-74.6449" font-family="Helvetica,sans-Serif" font-size="10.00">Check</text>
</a>
</g>
</g>
<!-- Node4&#45;&gt;Node5 -->
<g id="edge4" class="edge"><title>Node4&#45;&gt;Node5</title>
<path fill="none" stroke="midnightblue" d="M758.19,-82.6449C768.709,-82.6449 779.54,-82.6449 790.167,-82.6449"/>
<polygon fill="midnightblue" stroke="midnightblue" points="790.277,-86.145 800.277,-82.6449 790.277,-79.145 790.277,-86.145"/>
</g>
<!-- Node6 -->
<g id="node6" class="node"><title>Node6</title>
<g id="a_node6"><a xlink:href="../../d2/d5a/classapplication_1_1_wa_tor_cell3.html#ac6469324e4692f54871cf1eb35fd0a41" target="_top" xlink:title="application.WaTorCell3.breed">
<polygon fill="white" stroke="black" points="988,-26.1449 988,-45.1449 1140,-45.1449 1140,-26.1449 988,-26.1449"/>
<text text-anchor="middle" x="1064" y="-33.1449" font-family="Helvetica,sans-Serif" font-size="10.00">application.WaTorCell3.breed</text>
</a>
</g>
</g>
<!-- Node5&#45;&gt;Node6 -->
<g id="edge5" class="edge"><title>Node5&#45;&gt;Node6</title>
<path fill="none" stroke="midnightblue" d="M936.363,-67.6445C961.852,-61.2037 991.238,-53.7783 1015.28,-47.7027"/>
<polygon fill="midnightblue" stroke="midnightblue" points="1016.39,-51.0316 1025.23,-45.1883 1014.68,-44.2449 1016.39,-51.0316"/>
</g>
<!-- Node8 -->
<g id="node8" class="node"><title>Node8</title>
<g id="a_node8"><a xlink:href="../../d2/d5a/classapplication_1_1_wa_tor_cell3.html#ae84770f2a6eb1dec28902327dbc607c5" target="_top" xlink:title="application.WaTorCell3.kill\lShark">
<polygon fill="white" stroke="black" points="995.5,-67.6449 995.5,-97.6449 1132.5,-97.6449 1132.5,-67.6449 995.5,-67.6449"/>
<text text-anchor="start" x="1003.5" y="-85.6449" font-family="Helvetica,sans-Serif" font-size="10.00">application.WaTorCell3.kill</text>
<text text-anchor="middle" x="1064" y="-74.6449" font-family="Helvetica,sans-Serif" font-size="10.00">Shark</text>
</a>
</g>
</g>
<!-- Node5&#45;&gt;Node8 -->
<g id="edge7" class="edge"><title>Node5&#45;&gt;Node8</title>
<path fill="none" stroke="midnightblue" d="M951.582,-82.6449C962.647,-82.6449 974.075,-82.6449 985.204,-82.6449"/>
<polygon fill="midnightblue" stroke="midnightblue" points="985.322,-86.145 995.322,-82.6449 985.321,-79.145 985.322,-86.145"/>
</g>
<!-- Node7 -->
<g id="node7" class="node"><title>Node7</title>
<g id="a_node7"><a xlink:href="../../d2/d5a/classapplication_1_1_wa_tor_cell3.html#a53fd6e1b041b835f0438363b72546a23" target="_top" xlink:title="application.WaTorCell3.random\lFinder">
<polygon fill="white" stroke="black" points="1176,-20.6449 1176,-50.6449 1338,-50.6449 1338,-20.6449 1176,-20.6449"/>
<text text-anchor="start" x="1184" y="-38.6449" font-family="Helvetica,sans-Serif" font-size="10.00">application.WaTorCell3.random</text>
<text text-anchor="middle" x="1257" y="-27.6449" font-family="Helvetica,sans-Serif" font-size="10.00">Finder</text>
</a>
</g>
</g>
<!-- Node6&#45;&gt;Node7 -->
<g id="edge6" class="edge"><title>Node6&#45;&gt;Node7</title>
<path fill="none" stroke="midnightblue" d="M1140.21,-35.6449C1148.62,-35.6449 1157.24,-35.6449 1165.81,-35.6449"/>
<polygon fill="midnightblue" stroke="midnightblue" points="1165.82,-39.145 1175.82,-35.6449 1165.82,-32.145 1165.82,-39.145"/>
</g>
<!-- Node9&#45;&gt;Node5 -->
<g id="edge10" class="edge"><title>Node9&#45;&gt;Node5</title>
<path fill="none" stroke="midnightblue" d="M746.563,-111.626C763.256,-107.859 781.3,-103.787 798.438,-99.9204"/>
<polygon fill="midnightblue" stroke="midnightblue" points="799.422,-103.286 808.407,-97.6711 797.881,-96.458 799.422,-103.286"/>
</g>
<!-- Node9&#45;&gt;Node7 -->
<g id="edge9" class="edge"><title>Node9&#45;&gt;Node7</title>
<path fill="none" stroke="midnightblue" d="M755.224,-134.697C847.941,-142.077 1009.27,-146.563 1140,-106.645 1173.64,-96.373 1207.41,-74.0138 1229.77,-57.113"/>
<polygon fill="midnightblue" stroke="midnightblue" points="1231.98,-59.8248 1237.75,-50.9394 1227.7,-54.2868 1231.98,-59.8248"/>
</g>
<!-- Node11 -->
<g id="node11" class="node"><title>Node11</title>
<g id="a_node11"><a xlink:href="../../d2/d5a/classapplication_1_1_wa_tor_cell3.html#abc610dbe7d298b1320283222b050c19d" target="_top" xlink:title="application.WaTorCell3.moveFish">
<polygon fill="white" stroke="black" points="594,-24.1449 594,-43.1449 764,-43.1449 764,-24.1449 594,-24.1449"/>
<text text-anchor="middle" x="679" y="-31.1449" font-family="Helvetica,sans-Serif" font-size="10.00">application.WaTorCell3.moveFish</text>
</a>
</g>
</g>
<!-- Node10&#45;&gt;Node11 -->
<g id="edge12" class="edge"><title>Node10&#45;&gt;Node11</title>
<path fill="none" stroke="midnightblue" d="M552.574,-33.6449C562.686,-33.6449 573.236,-33.6449 583.736,-33.6449"/>
<polygon fill="midnightblue" stroke="midnightblue" points="583.771,-37.145 593.771,-33.6449 583.771,-30.145 583.771,-37.145"/>
</g>
<!-- Node11&#45;&gt;Node7 -->
<g id="edge15" class="edge"><title>Node11&#45;&gt;Node7</title>
<path fill="none" stroke="midnightblue" d="M715.93,-24.1431C739.614,-18.3813 771.422,-11.5901 800,-8.64486 950.357,6.85093 989.639,-1.1879 1140,-16.6449 1148.48,-17.5167 1157.28,-18.61 1166.08,-19.8292"/>
<polygon fill="midnightblue" stroke="midnightblue" points="1165.58,-23.2945 1175.98,-21.2542 1166.58,-16.3659 1165.58,-23.2945"/>
</g>
<!-- Node12 -->
<g id="node12" class="node"><title>Node12</title>
<g id="a_node12"><a xlink:href="../../d2/d5a/classapplication_1_1_wa_tor_cell3.html#a8f391a3c42e1498c234d68556af06688" target="_top" xlink:title="application.WaTorCell3.fish\lCheck">
<polygon fill="white" stroke="black" points="805.5,-18.6449 805.5,-48.6449 946.5,-48.6449 946.5,-18.6449 805.5,-18.6449"/>
<text text-anchor="start" x="813.5" y="-36.6449" font-family="Helvetica,sans-Serif" font-size="10.00">application.WaTorCell3.fish</text>
<text text-anchor="middle" x="876" y="-25.6449" font-family="Helvetica,sans-Serif" font-size="10.00">Check</text>
</a>
</g>
</g>
<!-- Node11&#45;&gt;Node12 -->
<g id="edge13" class="edge"><title>Node11&#45;&gt;Node12</title>
<path fill="none" stroke="midnightblue" d="M764.112,-33.6449C774.395,-33.6449 784.879,-33.6449 795.097,-33.6449"/>
<polygon fill="midnightblue" stroke="midnightblue" points="795.209,-37.145 805.209,-33.6449 795.209,-30.145 795.209,-37.145"/>
</g>
<!-- Node12&#45;&gt;Node6 -->
<g id="edge14" class="edge"><title>Node12&#45;&gt;Node6</title>
<path fill="none" stroke="midnightblue" d="M946.524,-34.3924C956.768,-34.5026 967.418,-34.6171 977.932,-34.7301"/>
<polygon fill="midnightblue" stroke="midnightblue" points="977.915,-38.2301 987.952,-34.8379 977.991,-31.2305 977.915,-38.2301"/>
</g>
</g>
</svg>
