<?xml version="1.0" encoding="UTF-8" standalone="no"?>
<!DOCTYPE svg PUBLIC "-//W3C//DTD SVG 1.1//EN"
 "http://www.w3.org/Graphics/SVG/1.1/DTD/svg11.dtd">
<!-- Generated by graphviz version 2.36.0 (20140111.2315)
 -->
<!-- Title: application.WaTorCell3.moveShark Pages: 1 -->
<!--zoomable 99 -->
<svg id="main" version="1.1" xmlns="http://www.w3.org/2000/svg" xmlns:xlink="http://www.w3.org/1999/xlink" xml:space="preserve" onload="init(evt)">
<style type="text/css"><![CDATA[
.edge:hover path { stroke: red; }
.edge:hover polygon { stroke: red; fill: red; }
]]></style>
<script type="text/javascript"><![CDATA[
var edges = document.getElementsByTagName('g');
if (edges && edges.length) {
  for (var i=0;i<edges.length;i++) {
    if (edges[i].id.substr(0,4)=='edge') {
      edges[i].setAttribute('class','edge');
    }
  }
}
]]></script>
        <defs>
                <circle id="rim" cx="0" cy="0" r="7"/>
                <circle id="rim2" cx="0" cy="0" r="3.5"/>
                <g id="zoomPlus">
                        <use xlink:href="#rim" fill="#404040">
                                <set attributeName="fill" to="#808080" begin="zoomplus.mouseover" end="zoomplus.mouseout"/>
                        </use>
                        <path d="M-4,0h8M0,-4v8" fill="none" stroke="white" stroke-width="1.5" pointer-events="none"/>
                </g>
                <g id="zoomMin">
                        <use xlink:href="#rim" fill="#404040">
                                <set attributeName="fill" to="#808080" begin="zoomminus.mouseover" end="zoomminus.mouseout"/>
                        </use>
                        <path d="M-4,0h8" fill="none" stroke="white" stroke-width="1.5" pointer-events="none"/>
                </g>
                <g id="dirArrow">
                        <path fill="none" stroke="white" stroke-width="1.5" d="M0,-3.0v7 M-2.5,-0.5L0,-3.0L2.5,-0.5"/>
                </g>
               <g id="resetDef">
                       <use xlink:href="#rim2" fill="#404040">
                               <set attributeName="fill" to="#808080" begin="reset.mouseover" end="reset.mouseout"/>
                       </use>
               </g>
        </defs>

<script type="text/javascript">
var viewWidth = 734;
var viewHeight = 99;
var sectionId = 'dynsection-13';
</script>
<script xlink:href="../../svgpan.js"/>
<svg id="graph" class="graph">
<g id="viewport">
<title>application.WaTorCell3.moveShark</title>
<polygon fill="white" stroke="none" points="-4,4 -4,-95 730,-95 730,4 -4,4"/>
<!-- Node1 -->
<g id="node1" class="node"><title>Node1</title>
<polygon fill="#bfbfbf" stroke="black" points="0,-61 0,-91 152,-91 152,-61 0,-61"/>
<text text-anchor="start" x="8" y="-79" font-family="Helvetica,sans-Serif" font-size="10.00">application.WaTorCell3.move</text>
<text text-anchor="middle" x="76" y="-68" font-family="Helvetica,sans-Serif" font-size="10.00">Shark</text>
</g>
<!-- Node2 -->
<g id="node2" class="node"><title>Node2</title>
<g id="a_node2"><a xlink:href="../../d2/d5a/classapplication_1_1_wa_tor_cell3.html#a53fd6e1b041b835f0438363b72546a23" target="_top" xlink:title="application.WaTorCell3.random\lFinder">
<polygon fill="white" stroke="black" points="564,-39 564,-69 726,-69 726,-39 564,-39"/>
<text text-anchor="start" x="572" y="-57" font-family="Helvetica,sans-Serif" font-size="10.00">application.WaTorCell3.random</text>
<text text-anchor="middle" x="645" y="-46" font-family="Helvetica,sans-Serif" font-size="10.00">Finder</text>
</a>
</g>
</g>
<!-- Node1&#45;&gt;Node2 -->
<g id="edge1" class="edge"><title>Node1&#45;&gt;Node2</title>
<path fill="none" stroke="midnightblue" d="M152.25,-81.2048C241.979,-86.2872 396.362,-91.475 528,-78 542.628,-76.5026 558.133,-73.9695 572.885,-71.096"/>
<polygon fill="midnightblue" stroke="midnightblue" points="573.849,-74.4721 582.958,-69.0609 572.463,-67.6108 573.849,-74.4721"/>
</g>
<!-- Node3 -->
<g id="node3" class="node"><title>Node3</title>
<g id="a_node3"><a xlink:href="../../d2/d5a/classapplication_1_1_wa_tor_cell3.html#aee9f1c8b745509933289f2dd3903f1b5" target="_top" xlink:title="application.WaTorCell3.shark\lCheck">
<polygon fill="white" stroke="black" points="188.5,-39 188.5,-69 339.5,-69 339.5,-39 188.5,-39"/>
<text text-anchor="start" x="196.5" y="-57" font-family="Helvetica,sans-Serif" font-size="10.00">application.WaTorCell3.shark</text>
<text text-anchor="middle" x="264" y="-46" font-family="Helvetica,sans-Serif" font-size="10.00">Check</text>
</a>
</g>
</g>
<!-- Node1&#45;&gt;Node3 -->
<g id="edge2" class="edge"><title>Node1&#45;&gt;Node3</title>
<path fill="none" stroke="midnightblue" d="M152.117,-67.1152C160.668,-66.1037 169.429,-65.0675 178.095,-64.0425"/>
<polygon fill="midnightblue" stroke="midnightblue" points="178.688,-67.4969 188.207,-62.8465 177.865,-60.5454 178.688,-67.4969"/>
</g>
<!-- Node4 -->
<g id="node4" class="node"><title>Node4</title>
<g id="a_node4"><a xlink:href="../../d2/d5a/classapplication_1_1_wa_tor_cell3.html#ae84770f2a6eb1dec28902327dbc607c5" target="_top" xlink:title="application.WaTorCell3.kill\lShark">
<polygon fill="white" stroke="black" points="383.5,-39 383.5,-69 520.5,-69 520.5,-39 383.5,-39"/>
<text text-anchor="start" x="391.5" y="-57" font-family="Helvetica,sans-Serif" font-size="10.00">application.WaTorCell3.kill</text>
<text text-anchor="middle" x="452" y="-46" font-family="Helvetica,sans-Serif" font-size="10.00">Shark</text>
</a>
</g>
</g>
<!-- Node3&#45;&gt;Node4 -->
<g id="edge3" class="edge"><title>Node3&#45;&gt;Node4</title>
<path fill="none" stroke="midnightblue" d="M339.582,-54C350.647,-54 362.075,-54 373.204,-54"/>
<polygon fill="midnightblue" stroke="midnightblue" points="373.322,-57.5001 383.322,-54 373.321,-50.5001 373.322,-57.5001"/>
</g>
<!-- Node5 -->
<g id="node5" class="node"><title>Node5</title>
<g id="a_node5"><a xlink:href="../../d2/d5a/classapplication_1_1_wa_tor_cell3.html#ac6469324e4692f54871cf1eb35fd0a41" target="_top" xlink:title="application.WaTorCell3.breed">
<polygon fill="white" stroke="black" points="376,-0.5 376,-19.5 528,-19.5 528,-0.5 376,-0.5"/>
<text text-anchor="middle" x="452" y="-7.5" font-family="Helvetica,sans-Serif" font-size="10.00">application.WaTorCell3.breed</text>
</a>
</g>
</g>
<!-- Node3&#45;&gt;Node5 -->
<g id="edge4" class="edge"><title>Node3&#45;&gt;Node5</title>
<path fill="none" stroke="midnightblue" d="M328.49,-38.9808C352.127,-33.3892 378.602,-27.1265 400.875,-21.8574"/>
<polygon fill="midnightblue" stroke="midnightblue" points="401.863,-25.2205 410.788,-19.5124 400.251,-18.4086 401.863,-25.2205"/>
</g>
<!-- Node5&#45;&gt;Node2 -->
<g id="edge5" class="edge"><title>Node5&#45;&gt;Node2</title>
<path fill="none" stroke="midnightblue" d="M494.444,-19.5473C516.141,-24.5455 543.387,-30.8222 568.66,-36.6442"/>
<polygon fill="midnightblue" stroke="midnightblue" points="568.072,-40.1004 578.603,-38.9346 569.644,-33.279 568.072,-40.1004"/>
</g>
</g>
</svg>
        <g id="navigator" transform="translate(0 0)" fill="#404254">
                <rect fill="#f2f5e9" fill-opacity="0.5" stroke="#606060" stroke-width=".5" x="0" y="0" width="60" height="60"/>
                <use id="zoomplus" xlink:href="#zoomPlus" x="17" y="9" onmousedown="handleZoom(evt,'in')"/>
                <use id="zoomminus" xlink:href="#zoomMin" x="42" y="9" onmousedown="handleZoom(evt,'out')"/>
                <use id="reset" xlink:href="#resetDef" x="30" y="36" onmousedown="handleReset()"/>
                <g id="arrowUp" xlink:href="#dirArrow" transform="translate(30 24)" onmousedown="handlePan(0,-1)">
                  <use xlink:href="#rim" fill="#404040">
                        <set attributeName="fill" to="#808080" begin="arrowUp.mouseover" end="arrowUp.mouseout"/>
                  </use>
                  <path fill="none" stroke="white" stroke-width="1.5" d="M0,-3.0v7 M-2.5,-0.5L0,-3.0L2.5,-0.5"/>
                </g>
                <g id="arrowRight" xlink:href="#dirArrow" transform="rotate(90) translate(36 -43)" onmousedown="handlePan(1,0)">
                  <use xlink:href="#rim" fill="#404040">
                        <set attributeName="fill" to="#808080" begin="arrowRight.mouseover" end="arrowRight.mouseout"/>
                  </use>
                  <path fill="none" stroke="white" stroke-width="1.5" d="M0,-3.0v7 M-2.5,-0.5L0,-3.0L2.5,-0.5"/>
                </g>
                <g id="arrowDown" xlink:href="#dirArrow" transform="rotate(180) translate(-30 -48)" onmousedown="handlePan(0,1)">
                  <use xlink:href="#rim" fill="#404040">
                        <set attributeName="fill" to="#808080" begin="arrowDown.mouseover" end="arrowDown.mouseout"/>
                  </use>
                  <path fill="none" stroke="white" stroke-width="1.5" d="M0,-3.0v7 M-2.5,-0.5L0,-3.0L2.5,-0.5"/>
                </g>
                <g id="arrowLeft" xlink:href="#dirArrow" transform="rotate(270) translate(-36 17)" onmousedown="handlePan(-1,0)">
                  <use xlink:href="#rim" fill="#404040">
                        <set attributeName="fill" to="#808080" begin="arrowLeft.mouseover" end="arrowLeft.mouseout"/>
                  </use>
                  <path fill="none" stroke="white" stroke-width="1.5" d="M0,-3.0v7 M-2.5,-0.5L0,-3.0L2.5,-0.5"/>
                </g>
        </g>
        <svg viewBox="0 0 15 15" width="100%" height="30px" preserveAspectRatio="xMaxYMin meet">
         <g id="arrow_out" transform="scale(0.3 0.3)">
          <a xlink:href="classapplication_1_1_wa_tor_cell3_a7696114537273b506c74615dd880d871_cgraph_org.svg" target="_base">
           <rect id="button" ry="5" rx="5" y="6" x="6" height="38" width="38"
                fill="#f2f5e9" fill-opacity="0.5" stroke="#606060" stroke-width="1.0"/>
           <path id="arrow"
             d="M 11.500037,31.436501 C 11.940474,20.09759 22.043105,11.32322 32.158766,21.979434 L 37.068811,17.246167 C 37.068811,17.246167 37.088388,32 37.088388,32 L 22.160133,31.978069 C 22.160133,31.978069 26.997745,27.140456 26.997745,27.140456 C 18.528582,18.264221 13.291696,25.230495 11.500037,31.436501 z"
             style="fill:#404040;"/>
          </a>
         </g>
        </svg>
</svg>
