<?xml version="1.0" encoding="UTF-8" standalone="no"?>
<!DOCTYPE svg PUBLIC "-//W3C//DTD SVG 1.1//EN"
 "http://www.w3.org/Graphics/SVG/1.1/DTD/svg11.dtd">
<!-- Generated by graphviz version 2.36.0 (20140111.2315)
 -->
<!-- Title: application.WaTorCell3.eatFish Pages: 1 -->
<svg width="740pt" height="82pt"
 viewBox="0.00 0.00 740.00 82.00" xmlns="http://www.w3.org/2000/svg" xmlns:xlink="http://www.w3.org/1999/xlink">
<g id="graph0" class="graph" transform="scale(1 1) rotate(0) translate(4 78)">
<title>application.WaTorCell3.eatFish</title>
<polygon fill="white" stroke="none" points="-4,4 -4,-78 736,-78 736,4 -4,4"/>
<!-- Node1 -->
<g id="node1" class="node"><title>Node1</title>
<polygon fill="#bfbfbf" stroke="black" points="0,-27.5 0,-46.5 158,-46.5 158,-27.5 0,-27.5"/>
<text text-anchor="middle" x="79" y="-34.5" font-family="Helvetica,sans-Serif" font-size="10.00">application.WaTorCell3.eatFish</text>
</g>
<!-- Node2 -->
<g id="node2" class="node"><title>Node2</title>
<g id="a_node2"><a xlink:href="../../d2/d5a/classapplication_1_1_wa_tor_cell3.html#aee9f1c8b745509933289f2dd3903f1b5" target="_top" xlink:title="application.WaTorCell3.shark\lCheck">
<polygon fill="white" stroke="black" points="194.5,-22 194.5,-52 345.5,-52 345.5,-22 194.5,-22"/>
<text text-anchor="start" x="202.5" y="-40" font-family="Helvetica,sans-Serif" font-size="10.00">application.WaTorCell3.shark</text>
<text text-anchor="middle" x="270" y="-29" font-family="Helvetica,sans-Serif" font-size="10.00">Check</text>
</a>
</g>
</g>
<!-- Node1&#45;&gt;Node2 -->
<g id="edge1" class="edge"><title>Node1&#45;&gt;Node2</title>
<path fill="none" stroke="midnightblue" d="M158.238,-37C166.851,-37 175.65,-37 184.336,-37"/>
<polygon fill="midnightblue" stroke="midnightblue" points="184.464,-40.5001 194.464,-37 184.464,-33.5001 184.464,-40.5001"/>
</g>
<!-- Node3 -->
<g id="node3" class="node"><title>Node3</title>
<g id="a_node3"><a xlink:href="../../d2/d5a/classapplication_1_1_wa_tor_cell3.html#ae84770f2a6eb1dec28902327dbc607c5" target="_top" xlink:title="application.WaTorCell3.kill\lShark">
<polygon fill="white" stroke="black" points="389.5,-44 389.5,-74 526.5,-74 526.5,-44 389.5,-44"/>
<text text-anchor="start" x="397.5" y="-62" font-family="Helvetica,sans-Serif" font-size="10.00">application.WaTorCell3.kill</text>
<text text-anchor="middle" x="458" y="-51" font-family="Helvetica,sans-Serif" font-size="10.00">Shark</text>
</a>
</g>
</g>
<!-- Node2&#45;&gt;Node3 -->
<g id="edge2" class="edge"><title>Node2&#45;&gt;Node3</title>
<path fill="none" stroke="midnightblue" d="M345.582,-45.8215C356.647,-47.1303 368.075,-48.4819 379.204,-49.7983"/>
<polygon fill="midnightblue" stroke="midnightblue" points="378.98,-53.2961 389.322,-50.995 379.802,-46.3446 378.98,-53.2961"/>
</g>
<!-- Node4 -->
<g id="node4" class="node"><title>Node4</title>
<g id="a_node4"><a xlink:href="../../d2/d5a/classapplication_1_1_wa_tor_cell3.html#ac6469324e4692f54871cf1eb35fd0a41" target="_top" xlink:title="application.WaTorCell3.breed">
<polygon fill="white" stroke="black" points="382,-5.5 382,-24.5 534,-24.5 534,-5.5 382,-5.5"/>
<text text-anchor="middle" x="458" y="-12.5" font-family="Helvetica,sans-Serif" font-size="10.00">application.WaTorCell3.breed</text>
</a>
</g>
</g>
<!-- Node2&#45;&gt;Node4 -->
<g id="edge3" class="edge"><title>Node2&#45;&gt;Node4</title>
<path fill="none" stroke="midnightblue" d="M345.582,-28.1785C354.153,-27.1647 362.943,-26.1251 371.642,-25.0961"/>
<polygon fill="midnightblue" stroke="midnightblue" points="372.275,-28.5457 381.795,-23.8952 371.453,-21.5942 372.275,-28.5457"/>
</g>
<!-- Node5 -->
<g id="node5" class="node"><title>Node5</title>
<g id="a_node5"><a xlink:href="../../d2/d5a/classapplication_1_1_wa_tor_cell3.html#a53fd6e1b041b835f0438363b72546a23" target="_top" xlink:title="application.WaTorCell3.random\lFinder">
<polygon fill="white" stroke="black" points="570,-0 570,-30 732,-30 732,-0 570,-0"/>
<text text-anchor="start" x="578" y="-18" font-family="Helvetica,sans-Serif" font-size="10.00">application.WaTorCell3.random</text>
<text text-anchor="middle" x="651" y="-7" font-family="Helvetica,sans-Serif" font-size="10.00">Finder</text>
</a>
</g>
</g>
<!-- Node4&#45;&gt;Node5 -->
<g id="edge4" class="edge"><title>Node4&#45;&gt;Node5</title>
<path fill="none" stroke="midnightblue" d="M534.214,-15C542.618,-15 551.241,-15 559.807,-15"/>
<polygon fill="midnightblue" stroke="midnightblue" points="559.82,-18.5001 569.82,-15 559.82,-11.5001 559.82,-18.5001"/>
</g>
</g>
</svg>
