<?xml version="1.0" encoding="UTF-8" standalone="no"?>
<!DOCTYPE svg PUBLIC "-//W3C//DTD SVG 1.1//EN"
 "http://www.w3.org/Graphics/SVG/1.1/DTD/svg11.dtd">
<!-- Generated by graphviz version 2.36.0 (20140111.2315)
 -->
<!-- Title: application.WaTorCell3.killShark Pages: 1 -->
<svg width="1122pt" height="77pt"
 viewBox="0.00 0.00 1122.00 77.00" xmlns="http://www.w3.org/2000/svg" xmlns:xlink="http://www.w3.org/1999/xlink">
<g id="graph0" class="graph" transform="scale(1 1) rotate(0) translate(4 73)">
<title>application.WaTorCell3.killShark</title>
<polygon fill="white" stroke="none" points="-4,4 -4,-73 1118,-73 1118,4 -4,4"/>
<!-- Node1 -->
<g id="node1" class="node"><title>Node1</title>
<polygon fill="#bfbfbf" stroke="black" points="0.5,-22 0.5,-52 137.5,-52 137.5,-22 0.5,-22"/>
<text text-anchor="start" x="8.5" y="-40" font-family="Helvetica,sans-Serif" font-size="10.00">application.WaTorCell3.kill</text>
<text text-anchor="middle" x="69" y="-29" font-family="Helvetica,sans-Serif" font-size="10.00">Shark</text>
</g>
<!-- Node2 -->
<g id="node2" class="node"><title>Node2</title>
<g id="a_node2"><a xlink:href="../../d2/d5a/classapplication_1_1_wa_tor_cell3.html#aee9f1c8b745509933289f2dd3903f1b5" target="_top" xlink:title="application.WaTorCell3.shark\lCheck">
<polygon fill="white" stroke="black" points="174.5,-22 174.5,-52 325.5,-52 325.5,-22 174.5,-22"/>
<text text-anchor="start" x="182.5" y="-40" font-family="Helvetica,sans-Serif" font-size="10.00">application.WaTorCell3.shark</text>
<text text-anchor="middle" x="250" y="-29" font-family="Helvetica,sans-Serif" font-size="10.00">Check</text>
</a>
</g>
</g>
<!-- Node1&#45;&gt;Node2 -->
<g id="edge1" class="edge"><title>Node1&#45;&gt;Node2</title>
<path fill="none" stroke="midnightblue" d="M147.891,-37C156.673,-37 165.606,-37 174.346,-37"/>
<polygon fill="midnightblue" stroke="midnightblue" points="147.672,-33.5001 137.672,-37 147.672,-40.5001 147.672,-33.5001"/>
</g>
<!-- Node3 -->
<g id="node3" class="node"><title>Node3</title>
<g id="a_node3"><a xlink:href="../../d2/d5a/classapplication_1_1_wa_tor_cell3.html#ad9941a6f4851767d1f1a65d3617af0e5" target="_top" xlink:title="application.WaTorCell3.eatFish">
<polygon fill="white" stroke="black" points="362,-49.5 362,-68.5 520,-68.5 520,-49.5 362,-49.5"/>
<text text-anchor="middle" x="441" y="-56.5" font-family="Helvetica,sans-Serif" font-size="10.00">application.WaTorCell3.eatFish</text>
</a>
</g>
</g>
<!-- Node2&#45;&gt;Node3 -->
<g id="edge2" class="edge"><title>Node2&#45;&gt;Node3</title>
<path fill="none" stroke="midnightblue" d="M335.795,-46.8704C344.455,-47.8784 353.225,-48.8992 361.809,-49.8984"/>
<polygon fill="midnightblue" stroke="midnightblue" points="336.035,-43.3748 325.698,-45.695 335.226,-50.3278 336.035,-43.3748"/>
</g>
<!-- Node7 -->
<g id="node7" class="node"><title>Node7</title>
<g id="a_node7"><a xlink:href="../../d2/d5a/classapplication_1_1_wa_tor_cell3.html#a7696114537273b506c74615dd880d871" target="_top" xlink:title="application.WaTorCell3.move\lShark">
<polygon fill="white" stroke="black" points="365,-0 365,-30 517,-30 517,-0 365,-0"/>
<text text-anchor="start" x="373" y="-18" font-family="Helvetica,sans-Serif" font-size="10.00">application.WaTorCell3.move</text>
<text text-anchor="middle" x="441" y="-7" font-family="Helvetica,sans-Serif" font-size="10.00">Shark</text>
</a>
</g>
</g>
<!-- Node2&#45;&gt;Node7 -->
<g id="edge6" class="edge"><title>Node2&#45;&gt;Node7</title>
<path fill="none" stroke="midnightblue" d="M335.759,-27.1339C345.478,-26.0026 355.336,-24.8551 364.916,-23.7399"/>
<polygon fill="midnightblue" stroke="midnightblue" points="335.226,-23.6722 325.698,-28.305 336.035,-30.6252 335.226,-23.6722"/>
</g>
<!-- Node4 -->
<g id="node4" class="node"><title>Node4</title>
<g id="a_node4"><a xlink:href="../../d2/d5a/classapplication_1_1_wa_tor_cell3.html#aa045b3db2f2bde779f2d809c6f0614b9" target="_top" xlink:title="application.WaTorCell3.shark\lUpdate">
<polygon fill="white" stroke="black" points="556.5,-22 556.5,-52 707.5,-52 707.5,-22 556.5,-22"/>
<text text-anchor="start" x="564.5" y="-40" font-family="Helvetica,sans-Serif" font-size="10.00">application.WaTorCell3.shark</text>
<text text-anchor="middle" x="632" y="-29" font-family="Helvetica,sans-Serif" font-size="10.00">Update</text>
</a>
</g>
</g>
<!-- Node3&#45;&gt;Node4 -->
<g id="edge3" class="edge"><title>Node3&#45;&gt;Node4</title>
<path fill="none" stroke="midnightblue" d="M530.416,-48.7082C539.129,-47.694 547.911,-46.6717 556.464,-45.6761"/>
<polygon fill="midnightblue" stroke="midnightblue" points="529.766,-45.2601 520.238,-49.893 530.575,-52.2132 529.766,-45.2601"/>
</g>
<!-- Node5 -->
<g id="node5" class="node"><title>Node5</title>
<g id="a_node5"><a xlink:href="../../d2/d5a/classapplication_1_1_wa_tor_cell3.html#ab8b97147f1807a931d5f829aeffdb607" target="_top" xlink:title="application.WaTorCell3.update\lThisCell">
<polygon fill="white" stroke="black" points="744,-22 744,-52 902,-52 902,-22 744,-22"/>
<text text-anchor="start" x="752" y="-40" font-family="Helvetica,sans-Serif" font-size="10.00">application.WaTorCell3.update</text>
<text text-anchor="middle" x="823" y="-29" font-family="Helvetica,sans-Serif" font-size="10.00">ThisCell</text>
</a>
</g>
</g>
<!-- Node4&#45;&gt;Node5 -->
<g id="edge4" class="edge"><title>Node4&#45;&gt;Node5</title>
<path fill="none" stroke="midnightblue" d="M717.795,-37C726.455,-37 735.225,-37 743.809,-37"/>
<polygon fill="midnightblue" stroke="midnightblue" points="717.698,-33.5001 707.698,-37 717.698,-40.5001 717.698,-33.5001"/>
</g>
<!-- Node6 -->
<g id="node6" class="node"><title>Node6</title>
<g id="a_node6"><a xlink:href="../../d2/d5a/classapplication_1_1_wa_tor_cell3.html#a26aff9621026adea9241bbb4c560d006" target="_top" xlink:title="application.WaTorCell3.updateCell">
<polygon fill="white" stroke="black" points="938,-27.5 938,-46.5 1114,-46.5 1114,-27.5 938,-27.5"/>
<text text-anchor="middle" x="1026" y="-34.5" font-family="Helvetica,sans-Serif" font-size="10.00">application.WaTorCell3.updateCell</text>
</a>
</g>
</g>
<!-- Node5&#45;&gt;Node6 -->
<g id="edge5" class="edge"><title>Node5&#45;&gt;Node6</title>
<path fill="none" stroke="midnightblue" d="M912.509,-37C920.949,-37 929.504,-37 937.93,-37"/>
<polygon fill="midnightblue" stroke="midnightblue" points="912.287,-33.5001 902.287,-37 912.287,-40.5001 912.287,-33.5001"/>
</g>
<!-- Node7&#45;&gt;Node4 -->
<g id="edge7" class="edge"><title>Node7&#45;&gt;Node4</title>
<path fill="none" stroke="midnightblue" d="M527.275,-24.9262C536.966,-26.0542 546.787,-27.1975 556.327,-28.3079"/>
<polygon fill="midnightblue" stroke="midnightblue" points="527.579,-21.438 517.241,-23.7582 526.769,-28.391 527.579,-21.438"/>
</g>
</g>
</svg>
