<?xml version="1.0" encoding="UTF-8" standalone="no"?>
<!DOCTYPE svg PUBLIC "-//W3C//DTD SVG 1.1//EN"
 "http://www.w3.org/Graphics/SVG/1.1/DTD/svg11.dtd">
<!-- Generated by graphviz version 2.36.0 (20140111.2315)
 -->
<!-- Title: application.AntCell Pages: 1 -->
<svg width="392pt" height="196pt"
 viewBox="0.00 0.00 392.00 196.00" xmlns="http://www.w3.org/2000/svg" xmlns:xlink="http://www.w3.org/1999/xlink">
<g id="graph0" class="graph" transform="scale(1 1) rotate(0) translate(4 192)">
<title>application.AntCell</title>
<polygon fill="white" stroke="none" points="-4,4 -4,-192 388,-192 388,4 -4,4"/>
<!-- Node1 -->
<g id="node1" class="node"><title>Node1</title>
<polygon fill="#bfbfbf" stroke="black" points="212.5,-0.5 212.5,-19.5 317.5,-19.5 317.5,-0.5 212.5,-0.5"/>
<text text-anchor="middle" x="265" y="-7.5" font-family="Helvetica,sans-Serif" font-size="10.00">application.AntCell</text>
</g>
<!-- Node2 -->
<g id="node2" class="node"><title>Node2</title>
<g id="a_node2"><a xlink:href="../../d7/dff/classapplication_1_1_cell.html" target="_top" xlink:title="application.Cell">
<polygon fill="white" stroke="black" points="81.5,-78.5 81.5,-97.5 170.5,-97.5 170.5,-78.5 81.5,-78.5"/>
<text text-anchor="middle" x="126" y="-85.5" font-family="Helvetica,sans-Serif" font-size="10.00">application.Cell</text>
</a>
</g>
</g>
<!-- Node2&#45;&gt;Node1 -->
<g id="edge1" class="edge"><title>Node2&#45;&gt;Node1</title>
<path fill="none" stroke="midnightblue" d="M150.597,-73.5515C179.058,-57.9897 225.089,-32.8217 249.169,-19.6557"/>
<polygon fill="midnightblue" stroke="midnightblue" points="148.77,-70.5612 141.675,-78.4296 152.128,-76.7031 148.77,-70.5612"/>
</g>
<!-- Node2&#45;&gt;Node2 -->
<g id="edge4" class="edge"><title>Node2&#45;&gt;Node2</title>
<path fill="none" stroke="#9a32cd" stroke-dasharray="5,2" d="M180.516,-93.5332C185.126,-92.3493 188,-90.5049 188,-88 188,-83.9922 180.644,-81.6752 170.586,-81.049"/>
<polygon fill="#9a32cd" stroke="#9a32cd" points="179.991,-90.0726 170.586,-94.951 180.98,-97.0023 179.991,-90.0726"/>
<text text-anchor="middle" x="204.5" y="-85.5" font-family="Helvetica,sans-Serif" font-size="10.00"> Matrix</text>
</g>
<!-- Node3 -->
<g id="node3" class="node"><title>Node3</title>
<polygon fill="white" stroke="#bfbfbf" points="-0.5,-157 -0.5,-187 142.5,-187 142.5,-157 -0.5,-157"/>
<text text-anchor="start" x="7.5" y="-175" font-family="Helvetica,sans-Serif" font-size="10.00">Map&lt; Integer, application.</text>
<text text-anchor="middle" x="71" y="-164" font-family="Helvetica,sans-Serif" font-size="10.00">Cell &gt;</text>
</g>
<!-- Node3&#45;&gt;Node2 -->
<g id="edge2" class="edge"><title>Node3&#45;&gt;Node2</title>
<path fill="none" stroke="#9a32cd" stroke-dasharray="5,2" d="M86.4209,-148.009C97.6721,-131.234 112.29,-109.44 120.237,-97.5915"/>
<polygon fill="#9a32cd" stroke="#9a32cd" points="83.2439,-146.462 80.5803,-156.717 89.0574,-150.361 83.2439,-146.462"/>
<text text-anchor="middle" x="132.5" y="-124.5" font-family="Helvetica,sans-Serif" font-size="10.00"> neighbors</text>
</g>
<!-- Node4 -->
<g id="node4" class="node"><title>Node4</title>
<polygon fill="white" stroke="#bfbfbf" points="161,-162.5 161,-181.5 201,-181.5 201,-162.5 161,-162.5"/>
<text text-anchor="middle" x="181" y="-169.5" font-family="Helvetica,sans-Serif" font-size="10.00">Paint</text>
</g>
<!-- Node4&#45;&gt;Node2 -->
<g id="edge3" class="edge"><title>Node4&#45;&gt;Node2</title>
<path fill="none" stroke="#9a32cd" stroke-dasharray="5,2" d="M176.155,-152.458C172.615,-141.197 167.02,-126.935 159,-116 153.747,-108.837 146.167,-102.457 139.597,-97.6992"/>
<polygon fill="#9a32cd" stroke="#9a32cd" points="172.808,-153.482 178.932,-162.128 179.536,-151.55 172.808,-153.482"/>
<text text-anchor="middle" x="204.5" y="-130" font-family="Helvetica,sans-Serif" font-size="10.00"> currentState</text>
<text text-anchor="middle" x="204.5" y="-119" font-family="Helvetica,sans-Serif" font-size="10.00">updatedState</text>
</g>
<!-- Node5 -->
<g id="node5" class="node"><title>Node5</title>
<polygon fill="white" stroke="#bfbfbf" points="240,-78.5 240,-97.5 384,-97.5 384,-78.5 240,-78.5"/>
<text text-anchor="middle" x="312" y="-85.5" font-family="Helvetica,sans-Serif" font-size="10.00">List&lt; application.AntCell &gt;</text>
</g>
<!-- Node5&#45;&gt;Node1 -->
<g id="edge5" class="edge"><title>Node5&#45;&gt;Node1</title>
<path fill="none" stroke="#9a32cd" stroke-dasharray="5,2" d="M301.218,-69.5654C291.56,-53.9486 277.801,-31.7002 270.329,-19.6165"/>
<polygon fill="#9a32cd" stroke="#9a32cd" points="298.372,-71.6177 306.609,-78.2818 304.326,-67.9359 298.372,-71.6177"/>
<text text-anchor="middle" x="336" y="-52" font-family="Helvetica,sans-Serif" font-size="10.00"> pheromoneList</text>
<text text-anchor="middle" x="336" y="-41" font-family="Helvetica,sans-Serif" font-size="10.00">moveForwardList</text>
</g>
</g>
</svg>
