<?xml version="1.0" encoding="UTF-8" standalone="no"?>
<!DOCTYPE svg PUBLIC "-//W3C//DTD SVG 1.1//EN"
 "http://www.w3.org/Graphics/SVG/1.1/DTD/svg11.dtd">
<!-- Generated by graphviz version 2.36.0 (20140111.2315)
 -->
<!-- Title: application.FireCell Pages: 1 -->
<svg width="376pt" height="186pt"
 viewBox="0.00 0.00 376.00 186.00" xmlns="http://www.w3.org/2000/svg" xmlns:xlink="http://www.w3.org/1999/xlink">
<g id="graph0" class="graph" transform="scale(1 1) rotate(0) translate(4 182)">
<title>application.FireCell</title>
<polygon fill="white" stroke="none" points="-4,4 -4,-182 372,-182 372,4 -4,4"/>
<!-- Node1 -->
<g id="node1" class="node"><title>Node1</title>
<polygon fill="#bfbfbf" stroke="black" points="206.5,-0.5 206.5,-19.5 311.5,-19.5 311.5,-0.5 206.5,-0.5"/>
<text text-anchor="middle" x="259" y="-7.5" font-family="Helvetica,sans-Serif" font-size="10.00">application.FireCell</text>
</g>
<!-- Node2 -->
<g id="node2" class="node"><title>Node2</title>
<g id="a_node2"><a xlink:href="../../d7/dff/classapplication_1_1_cell.html" target="_top" xlink:title="application.Cell">
<polygon fill="white" stroke="black" points="81.5,-68.5 81.5,-87.5 170.5,-87.5 170.5,-68.5 81.5,-68.5"/>
<text text-anchor="middle" x="126" y="-75.5" font-family="Helvetica,sans-Serif" font-size="10.00">application.Cell</text>
</a>
</g>
</g>
<!-- Node2&#45;&gt;Node1 -->
<g id="edge1" class="edge"><title>Node2&#45;&gt;Node1</title>
<path fill="none" stroke="midnightblue" d="M152.475,-63.8621C178.95,-50.7239 218.905,-30.8969 241.608,-19.6305"/>
<polygon fill="midnightblue" stroke="midnightblue" points="150.789,-60.7912 143.387,-68.3717 153.901,-67.0616 150.789,-60.7912"/>
</g>
<!-- Node2&#45;&gt;Node2 -->
<g id="edge4" class="edge"><title>Node2&#45;&gt;Node2</title>
<path fill="none" stroke="#9a32cd" stroke-dasharray="5,2" d="M180.516,-82.9508C185.126,-81.8915 188,-80.2412 188,-78 188,-74.4141 180.644,-72.3409 170.586,-71.7806"/>
<polygon fill="#9a32cd" stroke="#9a32cd" points="180.062,-79.4803 170.586,-84.2194 180.949,-86.4238 180.062,-79.4803"/>
<text text-anchor="middle" x="204.5" y="-75.5" font-family="Helvetica,sans-Serif" font-size="10.00"> Matrix</text>
</g>
<!-- Node3 -->
<g id="node3" class="node"><title>Node3</title>
<polygon fill="white" stroke="#bfbfbf" points="-0.5,-147 -0.5,-177 142.5,-177 142.5,-147 -0.5,-147"/>
<text text-anchor="start" x="7.5" y="-165" font-family="Helvetica,sans-Serif" font-size="10.00">Map&lt; Integer, application.</text>
<text text-anchor="middle" x="71" y="-154" font-family="Helvetica,sans-Serif" font-size="10.00">Cell &gt;</text>
</g>
<!-- Node3&#45;&gt;Node2 -->
<g id="edge2" class="edge"><title>Node3&#45;&gt;Node2</title>
<path fill="none" stroke="#9a32cd" stroke-dasharray="5,2" d="M86.4209,-138.009C97.6721,-121.234 112.29,-99.4404 120.237,-87.5915"/>
<polygon fill="#9a32cd" stroke="#9a32cd" points="83.2439,-136.462 80.5803,-146.717 89.0574,-140.361 83.2439,-136.462"/>
<text text-anchor="middle" x="132.5" y="-114.5" font-family="Helvetica,sans-Serif" font-size="10.00"> neighbors</text>
</g>
<!-- Node4 -->
<g id="node4" class="node"><title>Node4</title>
<polygon fill="white" stroke="#bfbfbf" points="161,-152.5 161,-171.5 201,-171.5 201,-152.5 161,-152.5"/>
<text text-anchor="middle" x="181" y="-159.5" font-family="Helvetica,sans-Serif" font-size="10.00">Paint</text>
</g>
<!-- Node4&#45;&gt;Node2 -->
<g id="edge3" class="edge"><title>Node4&#45;&gt;Node2</title>
<path fill="none" stroke="#9a32cd" stroke-dasharray="5,2" d="M176.155,-142.458C172.615,-131.197 167.02,-116.935 159,-106 153.747,-98.837 146.167,-92.4567 139.597,-87.6992"/>
<polygon fill="#9a32cd" stroke="#9a32cd" points="172.808,-143.482 178.932,-152.128 179.536,-141.55 172.808,-143.482"/>
<text text-anchor="middle" x="204.5" y="-120" font-family="Helvetica,sans-Serif" font-size="10.00"> currentState</text>
<text text-anchor="middle" x="204.5" y="-109" font-family="Helvetica,sans-Serif" font-size="10.00">updatedState</text>
</g>
<!-- Node5 -->
<g id="node5" class="node"><title>Node5</title>
<polygon fill="white" stroke="#bfbfbf" points="240,-68.5 240,-87.5 368,-87.5 368,-68.5 240,-68.5"/>
<text text-anchor="middle" x="304" y="-75.5" font-family="Helvetica,sans-Serif" font-size="10.00">List&lt; application.Cell &gt;</text>
</g>
<!-- Node5&#45;&gt;Node1 -->
<g id="edge5" class="edge"><title>Node5&#45;&gt;Node1</title>
<path fill="none" stroke="#9a32cd" stroke-dasharray="5,2" d="M292.367,-59.9377C283.622,-47.112 271.995,-30.0591 265.028,-19.8411"/>
<polygon fill="#9a32cd" stroke="#9a32cd" points="289.592,-62.0811 298.117,-68.3717 295.375,-58.1377 289.592,-62.0811"/>
<text text-anchor="middle" x="319.5" y="-41.5" font-family="Helvetica,sans-Serif" font-size="10.00"> fireNeighbors</text>
</g>
</g>
</svg>
