<?xml version="1.0" encoding="UTF-8" standalone="no"?>
<!DOCTYPE svg PUBLIC "-//W3C//DTD SVG 1.1//EN"
 "http://www.w3.org/Graphics/SVG/1.1/DTD/svg11.dtd">
<!-- Generated by graphviz version 2.36.0 (20140111.2315)
 -->
<!-- Title: application.Grid Pages: 1 -->
<svg width="294pt" height="186pt"
 viewBox="0.00 0.00 294.00 186.00" xmlns="http://www.w3.org/2000/svg" xmlns:xlink="http://www.w3.org/1999/xlink">
<g id="graph0" class="graph" transform="scale(1 1) rotate(0) translate(4 182)">
<title>application.Grid</title>
<polygon fill="white" stroke="none" points="-4,4 -4,-182 290,-182 290,4 -4,4"/>
<!-- Node1 -->
<g id="node1" class="node"><title>Node1</title>
<polygon fill="#bfbfbf" stroke="black" points="180.5,-0.5 180.5,-19.5 271.5,-19.5 271.5,-0.5 180.5,-0.5"/>
<text text-anchor="middle" x="226" y="-7.5" font-family="Helvetica,sans-Serif" font-size="10.00">application.Grid</text>
</g>
<!-- Node2 -->
<g id="node2" class="node"><title>Node2</title>
<g id="a_node2"><a xlink:href="../../d7/dff/classapplication_1_1_cell.html" target="_top" xlink:title="application.Cell">
<polygon fill="white" stroke="black" points="81.5,-68.5 81.5,-87.5 170.5,-87.5 170.5,-68.5 81.5,-68.5"/>
<text text-anchor="middle" x="126" y="-75.5" font-family="Helvetica,sans-Serif" font-size="10.00">application.Cell</text>
</a>
</g>
</g>
<!-- Node2&#45;&gt;Node1 -->
<g id="edge1" class="edge"><title>Node2&#45;&gt;Node1</title>
<path fill="none" stroke="#9a32cd" stroke-dasharray="5,2" d="M147.498,-62.8113C167.384,-49.6863 196.302,-30.6004 212.924,-19.6305"/>
<polygon fill="#9a32cd" stroke="#9a32cd" points="145.491,-59.942 139.073,-68.3717 149.347,-65.7843 145.491,-59.942"/>
<text text-anchor="middle" x="209.5" y="-41.5" font-family="Helvetica,sans-Serif" font-size="10.00"> cellMatrix</text>
</g>
<!-- Node2&#45;&gt;Node2 -->
<g id="edge4" class="edge"><title>Node2&#45;&gt;Node2</title>
<path fill="none" stroke="#9a32cd" stroke-dasharray="5,2" d="M180.516,-82.9508C185.126,-81.8915 188,-80.2412 188,-78 188,-74.4141 180.644,-72.3409 170.586,-71.7806"/>
<polygon fill="#9a32cd" stroke="#9a32cd" points="180.062,-79.4803 170.586,-84.2194 180.949,-86.4238 180.062,-79.4803"/>
<text text-anchor="middle" x="204.5" y="-75.5" font-family="Helvetica,sans-Serif" font-size="10.00"> Matrix</text>
</g>
<!-- Node3 -->
<g id="node3" class="node"><title>Node3</title>
<polygon fill="white" stroke="#bfbfbf" points="-0.5,-147 -0.5,-177 142.5,-177 142.5,-147 -0.5,-147"/>
<text text-anchor="start" x="7.5" y="-165" font-family="Helvetica,sans-Serif" font-size="10.00">Map&lt; Integer, application.</text>
<text text-anchor="middle" x="71" y="-154" font-family="Helvetica,sans-Serif" font-size="10.00">Cell &gt;</text>
</g>
<!-- Node3&#45;&gt;Node2 -->
<g id="edge2" class="edge"><title>Node3&#45;&gt;Node2</title>
<path fill="none" stroke="#9a32cd" stroke-dasharray="5,2" d="M86.4209,-138.009C97.6721,-121.234 112.29,-99.4404 120.237,-87.5915"/>
<polygon fill="#9a32cd" stroke="#9a32cd" points="83.2439,-136.462 80.5803,-146.717 89.0574,-140.361 83.2439,-136.462"/>
<text text-anchor="middle" x="132.5" y="-114.5" font-family="Helvetica,sans-Serif" font-size="10.00"> neighbors</text>
</g>
<!-- Node4 -->
<g id="node4" class="node"><title>Node4</title>
<polygon fill="white" stroke="#bfbfbf" points="161,-152.5 161,-171.5 201,-171.5 201,-152.5 161,-152.5"/>
<text text-anchor="middle" x="181" y="-159.5" font-family="Helvetica,sans-Serif" font-size="10.00">Paint</text>
</g>
<!-- Node4&#45;&gt;Node2 -->
<g id="edge3" class="edge"><title>Node4&#45;&gt;Node2</title>
<path fill="none" stroke="#9a32cd" stroke-dasharray="5,2" d="M176.155,-142.458C172.615,-131.197 167.02,-116.935 159,-106 153.747,-98.837 146.167,-92.4567 139.597,-87.6992"/>
<polygon fill="#9a32cd" stroke="#9a32cd" points="172.808,-143.482 178.932,-152.128 179.536,-141.55 172.808,-143.482"/>
<text text-anchor="middle" x="204.5" y="-120" font-family="Helvetica,sans-Serif" font-size="10.00"> currentState</text>
<text text-anchor="middle" x="204.5" y="-109" font-family="Helvetica,sans-Serif" font-size="10.00">updatedState</text>
</g>
<!-- Node5 -->
<g id="node5" class="node"><title>Node5</title>
<polygon fill="white" stroke="#bfbfbf" points="240,-68.5 240,-87.5 286,-87.5 286,-68.5 240,-68.5"/>
<text text-anchor="middle" x="263" y="-75.5" font-family="Helvetica,sans-Serif" font-size="10.00">Group</text>
</g>
<!-- Node5&#45;&gt;Node1 -->
<g id="edge5" class="edge"><title>Node5&#45;&gt;Node1</title>
<path fill="none" stroke="#9a32cd" stroke-dasharray="5,2" d="M253.225,-59.563C246.059,-46.7815 236.629,-29.9599 230.956,-19.8411"/>
<polygon fill="#9a32cd" stroke="#9a32cd" points="250.22,-61.3604 258.163,-68.3717 256.326,-57.9373 250.22,-61.3604"/>
<text text-anchor="middle" x="259.5" y="-41.5" font-family="Helvetica,sans-Serif" font-size="10.00"> root</text>
</g>
</g>
</svg>
