<?xml version="1.0" encoding="UTF-8" standalone="no"?>
<!DOCTYPE svg PUBLIC "-//W3C//DTD SVG 1.1//EN"
 "http://www.w3.org/Graphics/SVG/1.1/DTD/svg11.dtd">
<!-- Generated by graphviz version 2.36.0 (20140111.2315)
 -->
<!-- Title: application.CellXMLReader Pages: 1 -->
<svg width="557pt" height="96pt"
 viewBox="0.00 0.00 557.00 96.00" xmlns="http://www.w3.org/2000/svg" xmlns:xlink="http://www.w3.org/1999/xlink">
<g id="graph0" class="graph" transform="scale(1 1) rotate(0) translate(4 92)">
<title>application.CellXMLReader</title>
<polygon fill="white" stroke="none" points="-4,4 -4,-92 553,-92 553,4 -4,4"/>
<!-- Node1 -->
<g id="node1" class="node"><title>Node1</title>
<polygon fill="#bfbfbf" stroke="black" points="195.5,-0.5 195.5,-19.5 336.5,-19.5 336.5,-0.5 195.5,-0.5"/>
<text text-anchor="middle" x="266" y="-7.5" font-family="Helvetica,sans-Serif" font-size="10.00">application.CellXMLReader</text>
</g>
<!-- Node2 -->
<g id="node2" class="node"><title>Node2</title>
<polygon fill="white" stroke="#bfbfbf" points="0,-68.5 0,-87.5 106,-87.5 106,-68.5 0,-68.5"/>
<text text-anchor="middle" x="53" y="-75.5" font-family="Helvetica,sans-Serif" font-size="10.00">ArrayList&lt; Color &gt;</text>
</g>
<!-- Node2&#45;&gt;Node1 -->
<g id="edge1" class="edge"><title>Node2&#45;&gt;Node1</title>
<path fill="none" stroke="#9a32cd" stroke-dasharray="5,2" d="M76.1701,-63.5626C91.5609,-55.1444 112.459,-44.665 132,-38 155.921,-29.8412 183.13,-23.7979 206.752,-19.522"/>
<polygon fill="#9a32cd" stroke="#9a32cd" points="74.3826,-60.552 67.3601,-68.4852 77.797,-66.6628 74.3826,-60.552"/>
<text text-anchor="middle" x="156.5" y="-41.5" font-family="Helvetica,sans-Serif" font-size="10.00"> myColors</text>
</g>
<!-- Node3 -->
<g id="node3" class="node"><title>Node3</title>
<polygon fill="white" stroke="#bfbfbf" points="124.5,-68.5 124.5,-87.5 183.5,-87.5 183.5,-68.5 124.5,-68.5"/>
<text text-anchor="middle" x="154" y="-75.5" font-family="Helvetica,sans-Serif" font-size="10.00">NodeList</text>
</g>
<!-- Node3&#45;&gt;Node1 -->
<g id="edge2" class="edge"><title>Node3&#45;&gt;Node1</title>
<path fill="none" stroke="#9a32cd" stroke-dasharray="5,2" d="M170.209,-61.482C178.87,-53.744 189.994,-44.6448 201,-38 213.344,-30.5475 228.118,-24.2287 240.46,-19.582"/>
<polygon fill="#9a32cd" stroke="#9a32cd" points="167.727,-59.0095 162.744,-68.3593 172.47,-64.1578 167.727,-59.0095"/>
<text text-anchor="middle" x="231.5" y="-41.5" font-family="Helvetica,sans-Serif" font-size="10.00"> myNodeList</text>
</g>
<!-- Node4 -->
<g id="node4" class="node"><title>Node4</title>
<polygon fill="white" stroke="#bfbfbf" points="202,-68.5 202,-87.5 330,-87.5 330,-68.5 202,-68.5"/>
<text text-anchor="middle" x="266" y="-75.5" font-family="Helvetica,sans-Serif" font-size="10.00">List&lt; application.Cell &gt;</text>
</g>
<!-- Node4&#45;&gt;Node1 -->
<g id="edge3" class="edge"><title>Node4&#45;&gt;Node1</title>
<path fill="none" stroke="#9a32cd" stroke-dasharray="5,2" d="M266,-58.0413C266,-45.4724 266,-29.5631 266,-19.8411"/>
<polygon fill="#9a32cd" stroke="#9a32cd" points="262.5,-58.3716 266,-68.3717 269.5,-58.3717 262.5,-58.3716"/>
<text text-anchor="middle" x="292" y="-41.5" font-family="Helvetica,sans-Serif" font-size="10.00"> myCellList</text>
</g>
<!-- Node5 -->
<g id="node5" class="node"><title>Node5</title>
<polygon fill="white" stroke="#bfbfbf" points="348.5,-68.5 348.5,-87.5 463.5,-87.5 463.5,-68.5 348.5,-68.5"/>
<text text-anchor="middle" x="406" y="-75.5" font-family="Helvetica,sans-Serif" font-size="10.00">ArrayList&lt; Integer &gt;</text>
</g>
<!-- Node5&#45;&gt;Node1 -->
<g id="edge4" class="edge"><title>Node5&#45;&gt;Node1</title>
<path fill="none" stroke="#9a32cd" stroke-dasharray="5,2" d="M378.498,-64.0346C350.632,-50.898 308.31,-30.9463 284.307,-19.6305"/>
<polygon fill="#9a32cd" stroke="#9a32cd" points="377.16,-67.2732 387.697,-68.3717 380.145,-60.9416 377.16,-67.2732"/>
<text text-anchor="middle" x="393.5" y="-41.5" font-family="Helvetica,sans-Serif" font-size="10.00"> myWaTorVariables</text>
</g>
<!-- Node6 -->
<g id="node6" class="node"><title>Node6</title>
<polygon fill="white" stroke="#bfbfbf" points="482.5,-68.5 482.5,-87.5 549.5,-87.5 549.5,-68.5 482.5,-68.5"/>
<text text-anchor="middle" x="516" y="-75.5" font-family="Helvetica,sans-Serif" font-size="10.00">Document</text>
</g>
<!-- Node6&#45;&gt;Node1 -->
<g id="edge5" class="edge"><title>Node6&#45;&gt;Node1</title>
<path fill="none" stroke="#9a32cd" stroke-dasharray="5,2" d="M494.361,-63.1249C480.043,-54.5783 460.554,-44.1202 442,-38 408.239,-26.8635 369.294,-20.2839 336.635,-16.4144"/>
<polygon fill="#9a32cd" stroke="#9a32cd" points="492.607,-66.155 502.961,-68.4004 496.267,-60.1881 492.607,-66.155"/>
<text text-anchor="middle" x="504.5" y="-41.5" font-family="Helvetica,sans-Serif" font-size="10.00"> myDocument</text>
</g>
</g>
</svg>
