<?xml version="1.0" encoding="UTF-8" standalone="no"?>
<!DOCTYPE svg PUBLIC "-//W3C//DTD SVG 1.1//EN"
 "http://www.w3.org/Graphics/SVG/1.1/DTD/svg11.dtd">
<!-- Generated by graphviz version 2.36.0 (20140111.2315)
 -->
<!-- Title: application.Main.createResumeButton Pages: 1 -->
<svg width="2306pt" height="96pt"
 viewBox="0.00 0.00 2306.00 96.00" xmlns="http://www.w3.org/2000/svg" xmlns:xlink="http://www.w3.org/1999/xlink">
<g id="graph0" class="graph" transform="scale(1 1) rotate(0) translate(4 92)">
<title>application.Main.createResumeButton</title>
<polygon fill="white" stroke="none" points="-4,4 -4,-92 2302,-92 2302,4 -4,4"/>
<!-- Node1 -->
<g id="node1" class="node"><title>Node1</title>
<polygon fill="#bfbfbf" stroke="black" points="0,-5 0,-35 166,-35 166,-5 0,-5"/>
<text text-anchor="start" x="8" y="-23" font-family="Helvetica,sans-Serif" font-size="10.00">application.Main.createResume</text>
<text text-anchor="middle" x="83" y="-12" font-family="Helvetica,sans-Serif" font-size="10.00">Button</text>
</g>
<!-- Node2 -->
<g id="node2" class="node"><title>Node2</title>
<g id="a_node2"><a xlink:href="../../d9/d96/classapplication_1_1_main.html#a2ddf30fb8360296e1ad3459fe6f920fb" target="_top" xlink:title="application.Main.populate\lGridPageModules">
<polygon fill="white" stroke="black" points="202.5,-5 202.5,-35 341.5,-35 341.5,-5 202.5,-5"/>
<text text-anchor="start" x="210.5" y="-23" font-family="Helvetica,sans-Serif" font-size="10.00">application.Main.populate</text>
<text text-anchor="middle" x="272" y="-12" font-family="Helvetica,sans-Serif" font-size="10.00">GridPageModules</text>
</a>
</g>
</g>
<!-- Node1&#45;&gt;Node2 -->
<g id="edge1" class="edge"><title>Node1&#45;&gt;Node2</title>
<path fill="none" stroke="midnightblue" d="M176.045,-20C184.945,-20 193.863,-20 202.476,-20"/>
<polygon fill="midnightblue" stroke="midnightblue" points="176.021,-16.5001 166.021,-20 176.021,-23.5001 176.021,-16.5001"/>
</g>
<!-- Node3 -->
<g id="node3" class="node"><title>Node3</title>
<g id="a_node3"><a xlink:href="../../d9/d96/classapplication_1_1_main.html#adc868cfca1990edad66af3dcb8cf4349" target="_top" xlink:title="application.Main.playGame">
<polygon fill="white" stroke="black" points="378,-31.5 378,-50.5 524,-50.5 524,-31.5 378,-31.5"/>
<text text-anchor="middle" x="451" y="-38.5" font-family="Helvetica,sans-Serif" font-size="10.00">application.Main.playGame</text>
</a>
</g>
</g>
<!-- Node2&#45;&gt;Node3 -->
<g id="edge2" class="edge"><title>Node2&#45;&gt;Node3</title>
<path fill="none" stroke="midnightblue" d="M351.787,-29.3477C360.459,-30.3765 369.256,-31.4202 377.841,-32.4387"/>
<polygon fill="midnightblue" stroke="midnightblue" points="352.029,-25.8518 341.686,-28.1492 351.204,-32.8031 352.029,-25.8518"/>
</g>
<!-- Node4 -->
<g id="node4" class="node"><title>Node4</title>
<g id="a_node4"><a xlink:href="../../d9/d96/classapplication_1_1_main.html#ada0f47786d75e28e627d2621d75eaf5a" target="_top" xlink:title="application.Main.activate\lStartButton">
<polygon fill="white" stroke="black" points="560.5,-29 560.5,-59 695.5,-59 695.5,-29 560.5,-29"/>
<text text-anchor="start" x="568.5" y="-47" font-family="Helvetica,sans-Serif" font-size="10.00">application.Main.activate</text>
<text text-anchor="middle" x="628" y="-36" font-family="Helvetica,sans-Serif" font-size="10.00">StartButton</text>
</a>
</g>
</g>
<!-- Node3&#45;&gt;Node4 -->
<g id="edge3" class="edge"><title>Node3&#45;&gt;Node4</title>
<path fill="none" stroke="midnightblue" d="M534.351,-42.4117C543.052,-42.5609 551.82,-42.7112 560.312,-42.8568"/>
<polygon fill="midnightblue" stroke="midnightblue" points="534.248,-38.9095 524.19,-42.2375 534.128,-45.9085 534.248,-38.9095"/>
</g>
<!-- Node5 -->
<g id="node5" class="node"><title>Node5</title>
<g id="a_node5"><a xlink:href="../../d9/d96/classapplication_1_1_main.html#a64e6451d894979853890a235efe37db8" target="_top" xlink:title="application.Main.createStart\lGameButton">
<polygon fill="white" stroke="black" points="732,-29 732,-59 884,-59 884,-29 732,-29"/>
<text text-anchor="start" x="740" y="-47" font-family="Helvetica,sans-Serif" font-size="10.00">application.Main.createStart</text>
<text text-anchor="middle" x="808" y="-36" font-family="Helvetica,sans-Serif" font-size="10.00">GameButton</text>
</a>
</g>
</g>
<!-- Node4&#45;&gt;Node5 -->
<g id="edge4" class="edge"><title>Node4&#45;&gt;Node5</title>
<path fill="none" stroke="midnightblue" d="M705.646,-44C714.341,-44 723.196,-44 731.871,-44"/>
<polygon fill="midnightblue" stroke="midnightblue" points="705.534,-40.5001 695.534,-44 705.534,-47.5001 705.534,-40.5001"/>
</g>
<!-- Node6 -->
<g id="node6" class="node"><title>Node6</title>
<g id="a_node6"><a xlink:href="../../d9/d96/classapplication_1_1_main.html#a5fee6c1b05965eca9205a99e3245a5fb" target="_top" xlink:title="application.Main.populate\lStartPageModules">
<polygon fill="white" stroke="black" points="920.5,-29 920.5,-59 1059.5,-59 1059.5,-29 920.5,-29"/>
<text text-anchor="start" x="928.5" y="-47" font-family="Helvetica,sans-Serif" font-size="10.00">application.Main.populate</text>
<text text-anchor="middle" x="990" y="-36" font-family="Helvetica,sans-Serif" font-size="10.00">StartPageModules</text>
</a>
</g>
</g>
<!-- Node5&#45;&gt;Node6 -->
<g id="edge5" class="edge"><title>Node5&#45;&gt;Node6</title>
<path fill="none" stroke="midnightblue" d="M894.274,-44C903.039,-44 911.864,-44 920.415,-44"/>
<polygon fill="midnightblue" stroke="midnightblue" points="894.033,-40.5001 884.033,-44 894.033,-47.5001 894.033,-40.5001"/>
</g>
<!-- Node7 -->
<g id="node7" class="node"><title>Node7</title>
<g id="a_node7"><a xlink:href="../../d9/d96/classapplication_1_1_main.html#a4e5ad4e3de8bbd8654120180a94e870d" target="_top" xlink:title="application.Main.start">
<polygon fill="white" stroke="black" points="1096.5,-34.5 1096.5,-53.5 1215.5,-53.5 1215.5,-34.5 1096.5,-34.5"/>
<text text-anchor="middle" x="1156" y="-41.5" font-family="Helvetica,sans-Serif" font-size="10.00">application.Main.start</text>
</a>
</g>
</g>
<!-- Node6&#45;&gt;Node7 -->
<g id="edge6" class="edge"><title>Node6&#45;&gt;Node7</title>
<path fill="none" stroke="midnightblue" d="M1069.68,-44C1078.64,-44 1087.66,-44 1096.3,-44"/>
<polygon fill="midnightblue" stroke="midnightblue" points="1069.6,-40.5001 1059.6,-44 1069.6,-47.5001 1069.6,-40.5001"/>
</g>
<!-- Node8 -->
<g id="node8" class="node"><title>Node8</title>
<g id="a_node8"><a xlink:href="../../d9/d96/classapplication_1_1_main.html#ad652e3294ffb6519b18d784d5831c76a" target="_top" xlink:title="application.Main.activate\lReturntoStart">
<polygon fill="white" stroke="black" points="1252.5,-29 1252.5,-59 1387.5,-59 1387.5,-29 1252.5,-29"/>
<text text-anchor="start" x="1260.5" y="-47" font-family="Helvetica,sans-Serif" font-size="10.00">application.Main.activate</text>
<text text-anchor="middle" x="1320" y="-36" font-family="Helvetica,sans-Serif" font-size="10.00">ReturntoStart</text>
</a>
</g>
</g>
<!-- Node7&#45;&gt;Node8 -->
<g id="edge7" class="edge"><title>Node7&#45;&gt;Node8</title>
<path fill="none" stroke="midnightblue" d="M1226.08,-44C1234.81,-44 1243.73,-44 1252.42,-44"/>
<polygon fill="midnightblue" stroke="midnightblue" points="1225.94,-40.5001 1215.94,-44 1225.94,-47.5001 1225.94,-40.5001"/>
</g>
<!-- Node9 -->
<g id="node9" class="node"><title>Node9</title>
<g id="a_node9"><a xlink:href="../../d9/d96/classapplication_1_1_main.html#a4c5877fafc53c4fae488f1f30faf294b" target="_top" xlink:title="application.Main.createReturn\lToStartButton">
<polygon fill="white" stroke="black" points="1424,-29 1424,-59 1582,-59 1582,-29 1424,-29"/>
<text text-anchor="start" x="1432" y="-47" font-family="Helvetica,sans-Serif" font-size="10.00">application.Main.createReturn</text>
<text text-anchor="middle" x="1503" y="-36" font-family="Helvetica,sans-Serif" font-size="10.00">ToStartButton</text>
</a>
</g>
</g>
<!-- Node8&#45;&gt;Node9 -->
<g id="edge8" class="edge"><title>Node8&#45;&gt;Node9</title>
<path fill="none" stroke="midnightblue" d="M1397.7,-44C1406.36,-44 1415.19,-44 1423.87,-44"/>
<polygon fill="midnightblue" stroke="midnightblue" points="1397.63,-40.5001 1387.63,-44 1397.63,-47.5001 1397.63,-40.5001"/>
</g>
<!-- Node9&#45;&gt;Node2 -->
<g id="edge9" class="edge"><title>Node9&#45;&gt;Node2</title>
<path fill="none" stroke="midnightblue" d="M1430.64,-26.8172C1416.57,-23.8641 1401.87,-21.0812 1388,-19 1286.13,-3.71043 1260.01,-0 1157,-0 627,-0 627,-0 627,-0 527.74,-0 413.074,-7.93505 341.792,-13.8088"/>
<polygon fill="midnightblue" stroke="midnightblue" points="1430.24,-30.3112 1440.75,-28.99 1431.71,-23.4673 1430.24,-30.3112"/>
</g>
<!-- Node10 -->
<g id="node10" class="node"><title>Node10</title>
<g id="a_node10"><a xlink:href="../../d9/d96/classapplication_1_1_main.html#abcabe1a32eb7b5054cf34ca0def07531" target="_top" xlink:title="application.Main.populate\lErrorPageModules">
<polygon fill="white" stroke="black" points="1618.5,-29 1618.5,-59 1757.5,-59 1757.5,-29 1618.5,-29"/>
<text text-anchor="start" x="1626.5" y="-47" font-family="Helvetica,sans-Serif" font-size="10.00">application.Main.populate</text>
<text text-anchor="middle" x="1688" y="-36" font-family="Helvetica,sans-Serif" font-size="10.00">ErrorPageModules</text>
</a>
</g>
</g>
<!-- Node9&#45;&gt;Node10 -->
<g id="edge10" class="edge"><title>Node9&#45;&gt;Node10</title>
<path fill="none" stroke="midnightblue" d="M1592.36,-44C1601.1,-44 1609.87,-44 1618.37,-44"/>
<polygon fill="midnightblue" stroke="midnightblue" points="1592.14,-40.5001 1582.14,-44 1592.14,-47.5001 1592.14,-40.5001"/>
</g>
<!-- Node11 -->
<g id="node11" class="node"><title>Node11</title>
<g id="a_node11"><a xlink:href="../../d9/d96/classapplication_1_1_main.html#a81e70f73d65beae34c459628791cc5d4" target="_top" xlink:title="application.Main.activate\lErrorPage">
<polygon fill="white" stroke="black" points="1794.5,-29 1794.5,-59 1929.5,-59 1929.5,-29 1794.5,-29"/>
<text text-anchor="start" x="1802.5" y="-47" font-family="Helvetica,sans-Serif" font-size="10.00">application.Main.activate</text>
<text text-anchor="middle" x="1862" y="-36" font-family="Helvetica,sans-Serif" font-size="10.00">ErrorPage</text>
</a>
</g>
</g>
<!-- Node10&#45;&gt;Node11 -->
<g id="edge11" class="edge"><title>Node10&#45;&gt;Node11</title>
<path fill="none" stroke="midnightblue" d="M1768.15,-44C1776.88,-44 1785.7,-44 1794.25,-44"/>
<polygon fill="midnightblue" stroke="midnightblue" points="1767.97,-40.5001 1757.97,-44 1767.97,-47.5001 1767.97,-40.5001"/>
</g>
<!-- Node12 -->
<g id="node12" class="node"><title>Node12</title>
<g id="a_node12"><a xlink:href="../../d9/d96/classapplication_1_1_main.html#aef0593911aa3cbc594ac75bbb8d6a2b0" target="_top" xlink:title="application.Main.activate\lImportXMLButton">
<polygon fill="white" stroke="black" points="1966.5,-29 1966.5,-59 2101.5,-59 2101.5,-29 1966.5,-29"/>
<text text-anchor="start" x="1974.5" y="-47" font-family="Helvetica,sans-Serif" font-size="10.00">application.Main.activate</text>
<text text-anchor="middle" x="2034" y="-36" font-family="Helvetica,sans-Serif" font-size="10.00">ImportXMLButton</text>
</a>
</g>
</g>
<!-- Node11&#45;&gt;Node12 -->
<g id="edge12" class="edge"><title>Node11&#45;&gt;Node12</title>
<path fill="none" stroke="midnightblue" d="M1939.72,-44C1948.65,-44 1957.71,-44 1966.49,-44"/>
<polygon fill="midnightblue" stroke="midnightblue" points="1939.7,-40.5001 1929.7,-44 1939.7,-47.5001 1939.7,-40.5001"/>
</g>
<!-- Node13 -->
<g id="node13" class="node"><title>Node13</title>
<g id="a_node13"><a xlink:href="../../d9/d96/classapplication_1_1_main.html#a18021492af2e457d39edcbd16dc0d3c8" target="_top" xlink:title="application.Main.createImport\lXMLButton">
<polygon fill="white" stroke="black" points="2138.5,-51 2138.5,-81 2297.5,-81 2297.5,-51 2138.5,-51"/>
<text text-anchor="start" x="2146.5" y="-69" font-family="Helvetica,sans-Serif" font-size="10.00">application.Main.createImport</text>
<text text-anchor="middle" x="2218" y="-58" font-family="Helvetica,sans-Serif" font-size="10.00">XMLButton</text>
</a>
</g>
</g>
<!-- Node12&#45;&gt;Node13 -->
<g id="edge13" class="edge"><title>Node12&#45;&gt;Node13</title>
<path fill="none" stroke="midnightblue" d="M2111.87,-53.2923C2120.59,-54.3465 2129.49,-55.4221 2138.24,-56.4792"/>
<polygon fill="midnightblue" stroke="midnightblue" points="2112.08,-49.7925 2101.74,-52.0671 2111.24,-56.7419 2112.08,-49.7925"/>
</g>
<!-- Node13&#45;&gt;Node6 -->
<g id="edge14" class="edge"><title>Node13&#45;&gt;Node6</title>
<path fill="none" stroke="midnightblue" d="M2128.03,-74.5964C2056.5,-80.7676 1953.38,-88 1863,-88 1319,-88 1319,-88 1319,-88 1228.8,-88 1125.87,-71.451 1059.75,-58.6514"/>
<polygon fill="midnightblue" stroke="midnightblue" points="2128.69,-78.0519 2138.35,-73.6945 2128.08,-71.0785 2128.69,-78.0519"/>
</g>
</g>
</svg>
