<?xml version="1.0" encoding="UTF-8" standalone="no"?>
<!DOCTYPE svg PUBLIC "-//W3C//DTD SVG 1.1//EN"
 "http://www.w3.org/Graphics/SVG/1.1/DTD/svg11.dtd">
<!-- Generated by graphviz version 2.36.0 (20140111.2315)
 -->
<!-- Title: application.Main.start Pages: 1 -->
<svg width="1396pt" height="116pt"
 viewBox="0.00 0.00 1396.00 116.00" xmlns="http://www.w3.org/2000/svg" xmlns:xlink="http://www.w3.org/1999/xlink">
<g id="graph0" class="graph" transform="scale(1 1) rotate(0) translate(4 112)">
<title>application.Main.start</title>
<polygon fill="white" stroke="none" points="-4,4 -4,-112 1392,-112 1392,4 -4,4"/>
<!-- Node1 -->
<g id="node1" class="node"><title>Node1</title>
<polygon fill="#bfbfbf" stroke="black" points="0.5,-12.5 0.5,-31.5 119.5,-31.5 119.5,-12.5 0.5,-12.5"/>
<text text-anchor="middle" x="60" y="-19.5" font-family="Helvetica,sans-Serif" font-size="10.00">application.Main.start</text>
</g>
<!-- Node2 -->
<g id="node2" class="node"><title>Node2</title>
<g id="a_node2"><a xlink:href="../../d9/d96/classapplication_1_1_main.html#ad652e3294ffb6519b18d784d5831c76a" target="_top" xlink:title="application.Main.activate\lReturntoStart">
<polygon fill="white" stroke="black" points="156.5,-29 156.5,-59 291.5,-59 291.5,-29 156.5,-29"/>
<text text-anchor="start" x="164.5" y="-47" font-family="Helvetica,sans-Serif" font-size="10.00">application.Main.activate</text>
<text text-anchor="middle" x="224" y="-36" font-family="Helvetica,sans-Serif" font-size="10.00">ReturntoStart</text>
</a>
</g>
</g>
<!-- Node1&#45;&gt;Node2 -->
<g id="edge1" class="edge"><title>Node1&#45;&gt;Node2</title>
<path fill="none" stroke="midnightblue" d="M130.08,-31.3813C138.81,-32.5668 147.729,-33.778 156.419,-34.9581"/>
<polygon fill="midnightblue" stroke="midnightblue" points="130.324,-27.8823 119.944,-30.0047 129.382,-34.8187 130.324,-27.8823"/>
</g>
<!-- Node3 -->
<g id="node3" class="node"><title>Node3</title>
<g id="a_node3"><a xlink:href="../../d9/d96/classapplication_1_1_main.html#a4c5877fafc53c4fae488f1f30faf294b" target="_top" xlink:title="application.Main.createReturn\lToStartButton">
<polygon fill="white" stroke="black" points="328,-29 328,-59 486,-59 486,-29 328,-29"/>
<text text-anchor="start" x="336" y="-47" font-family="Helvetica,sans-Serif" font-size="10.00">application.Main.createReturn</text>
<text text-anchor="middle" x="407" y="-36" font-family="Helvetica,sans-Serif" font-size="10.00">ToStartButton</text>
</a>
</g>
</g>
<!-- Node2&#45;&gt;Node3 -->
<g id="edge2" class="edge"><title>Node2&#45;&gt;Node3</title>
<path fill="none" stroke="midnightblue" d="M301.696,-44C310.358,-44 319.193,-44 327.873,-44"/>
<polygon fill="midnightblue" stroke="midnightblue" points="301.627,-40.5001 291.627,-44 301.627,-47.5001 301.627,-40.5001"/>
</g>
<!-- Node4 -->
<g id="node4" class="node"><title>Node4</title>
<g id="a_node4"><a xlink:href="../../d9/d96/classapplication_1_1_main.html#abcabe1a32eb7b5054cf34ca0def07531" target="_top" xlink:title="application.Main.populate\lErrorPageModules">
<polygon fill="white" stroke="black" points="522.5,-78 522.5,-108 661.5,-108 661.5,-78 522.5,-78"/>
<text text-anchor="start" x="530.5" y="-96" font-family="Helvetica,sans-Serif" font-size="10.00">application.Main.populate</text>
<text text-anchor="middle" x="592" y="-85" font-family="Helvetica,sans-Serif" font-size="10.00">ErrorPageModules</text>
</a>
</g>
</g>
<!-- Node3&#45;&gt;Node4 -->
<g id="edge3" class="edge"><title>Node3&#45;&gt;Node4</title>
<path fill="none" stroke="midnightblue" d="M474.285,-61.7485C494.119,-67.0591 515.667,-72.8288 534.787,-77.9484"/>
<polygon fill="midnightblue" stroke="midnightblue" points="474.964,-58.3071 464.399,-59.1014 473.154,-65.0689 474.964,-58.3071"/>
</g>
<!-- Node9 -->
<g id="node9" class="node"><title>Node9</title>
<g id="a_node9"><a xlink:href="../../d9/d96/classapplication_1_1_main.html#a2ddf30fb8360296e1ad3459fe6f920fb" target="_top" xlink:title="application.Main.populate\lGridPageModules">
<polygon fill="white" stroke="black" points="522.5,-29 522.5,-59 661.5,-59 661.5,-29 522.5,-29"/>
<text text-anchor="start" x="530.5" y="-47" font-family="Helvetica,sans-Serif" font-size="10.00">application.Main.populate</text>
<text text-anchor="middle" x="592" y="-36" font-family="Helvetica,sans-Serif" font-size="10.00">GridPageModules</text>
</a>
</g>
</g>
<!-- Node3&#45;&gt;Node9 -->
<g id="edge9" class="edge"><title>Node3&#45;&gt;Node9</title>
<path fill="none" stroke="midnightblue" d="M496.359,-44C505.096,-44 513.871,-44 522.365,-44"/>
<polygon fill="midnightblue" stroke="midnightblue" points="496.139,-40.5001 486.139,-44 496.139,-47.5001 496.139,-40.5001"/>
</g>
<!-- Node5 -->
<g id="node5" class="node"><title>Node5</title>
<g id="a_node5"><a xlink:href="../../d9/d96/classapplication_1_1_main.html#a81e70f73d65beae34c459628791cc5d4" target="_top" xlink:title="application.Main.activate\lErrorPage">
<polygon fill="white" stroke="black" points="703.5,-78 703.5,-108 838.5,-108 838.5,-78 703.5,-78"/>
<text text-anchor="start" x="711.5" y="-96" font-family="Helvetica,sans-Serif" font-size="10.00">application.Main.activate</text>
<text text-anchor="middle" x="771" y="-85" font-family="Helvetica,sans-Serif" font-size="10.00">ErrorPage</text>
</a>
</g>
</g>
<!-- Node4&#45;&gt;Node5 -->
<g id="edge4" class="edge"><title>Node4&#45;&gt;Node5</title>
<path fill="none" stroke="midnightblue" d="M671.739,-93C682.305,-93 693.058,-93 703.388,-93"/>
<polygon fill="midnightblue" stroke="midnightblue" points="671.686,-89.5001 661.686,-93 671.686,-96.5001 671.686,-89.5001"/>
</g>
<!-- Node6 -->
<g id="node6" class="node"><title>Node6</title>
<g id="a_node6"><a xlink:href="../../d9/d96/classapplication_1_1_main.html#aef0593911aa3cbc594ac75bbb8d6a2b0" target="_top" xlink:title="application.Main.activate\lImportXMLButton">
<polygon fill="white" stroke="black" points="880.5,-78 880.5,-108 1015.5,-108 1015.5,-78 880.5,-78"/>
<text text-anchor="start" x="888.5" y="-96" font-family="Helvetica,sans-Serif" font-size="10.00">application.Main.activate</text>
<text text-anchor="middle" x="948" y="-85" font-family="Helvetica,sans-Serif" font-size="10.00">ImportXMLButton</text>
</a>
</g>
</g>
<!-- Node5&#45;&gt;Node6 -->
<g id="edge5" class="edge"><title>Node5&#45;&gt;Node6</title>
<path fill="none" stroke="midnightblue" d="M848.66,-93C859.18,-93 869.913,-93 880.236,-93"/>
<polygon fill="midnightblue" stroke="midnightblue" points="848.659,-89.5001 838.659,-93 848.659,-96.5001 848.659,-89.5001"/>
</g>
<!-- Node7 -->
<g id="node7" class="node"><title>Node7</title>
<g id="a_node7"><a xlink:href="../../d9/d96/classapplication_1_1_main.html#a18021492af2e457d39edcbd16dc0d3c8" target="_top" xlink:title="application.Main.createImport\lXMLButton">
<polygon fill="white" stroke="black" points="1052.5,-78 1052.5,-108 1211.5,-108 1211.5,-78 1052.5,-78"/>
<text text-anchor="start" x="1060.5" y="-96" font-family="Helvetica,sans-Serif" font-size="10.00">application.Main.createImport</text>
<text text-anchor="middle" x="1132" y="-85" font-family="Helvetica,sans-Serif" font-size="10.00">XMLButton</text>
</a>
</g>
</g>
<!-- Node6&#45;&gt;Node7 -->
<g id="edge6" class="edge"><title>Node6&#45;&gt;Node7</title>
<path fill="none" stroke="midnightblue" d="M1025.87,-93C1034.59,-93 1043.49,-93 1052.24,-93"/>
<polygon fill="midnightblue" stroke="midnightblue" points="1025.74,-89.5001 1015.74,-93 1025.74,-96.5001 1025.74,-89.5001"/>
</g>
<!-- Node8 -->
<g id="node8" class="node"><title>Node8</title>
<g id="a_node8"><a xlink:href="../../d9/d96/classapplication_1_1_main.html#a5fee6c1b05965eca9205a99e3245a5fb" target="_top" xlink:title="application.Main.populate\lStartPageModules">
<polygon fill="white" stroke="black" points="1248.5,-29 1248.5,-59 1387.5,-59 1387.5,-29 1248.5,-29"/>
<text text-anchor="start" x="1256.5" y="-47" font-family="Helvetica,sans-Serif" font-size="10.00">application.Main.populate</text>
<text text-anchor="middle" x="1318" y="-36" font-family="Helvetica,sans-Serif" font-size="10.00">StartPageModules</text>
</a>
</g>
</g>
<!-- Node7&#45;&gt;Node8 -->
<g id="edge7" class="edge"><title>Node7&#45;&gt;Node8</title>
<path fill="none" stroke="midnightblue" d="M1199.18,-75.3771C1219.31,-70.0163 1241.23,-64.1775 1260.65,-59.0062"/>
<polygon fill="midnightblue" stroke="midnightblue" points="1198.22,-72.0098 1189.46,-77.9654 1200.02,-78.7741 1198.22,-72.0098"/>
</g>
<!-- Node8&#45;&gt;Node1 -->
<g id="edge8" class="edge"><title>Node8&#45;&gt;Node1</title>
<path fill="none" stroke="midnightblue" d="M1251.41,-26.6642C1238.43,-23.7196 1224.84,-20.979 1212,-19 1096.17,-1.1473 1066.19,-1.42109e-14 949,-0 406,-0 406,-0 406,-0 305.171,-0 188.101,-9.47461 119.53,-15.9884"/>
<polygon fill="midnightblue" stroke="midnightblue" points="1250.67,-30.0851 1261.2,-28.9465 1252.26,-23.2678 1250.67,-30.0851"/>
</g>
<!-- Node10 -->
<g id="node10" class="node"><title>Node10</title>
<g id="a_node10"><a xlink:href="../../d9/d96/classapplication_1_1_main.html#adc868cfca1990edad66af3dcb8cf4349" target="_top" xlink:title="application.Main.playGame">
<polygon fill="white" stroke="black" points="698,-34.5 698,-53.5 844,-53.5 844,-34.5 698,-34.5"/>
<text text-anchor="middle" x="771" y="-41.5" font-family="Helvetica,sans-Serif" font-size="10.00">application.Main.playGame</text>
</a>
</g>
</g>
<!-- Node9&#45;&gt;Node10 -->
<g id="edge10" class="edge"><title>Node9&#45;&gt;Node10</title>
<path fill="none" stroke="midnightblue" d="M671.787,-44C680.459,-44 689.256,-44 697.841,-44"/>
<polygon fill="midnightblue" stroke="midnightblue" points="671.686,-40.5001 661.686,-44 671.686,-47.5001 671.686,-40.5001"/>
</g>
<!-- Node11 -->
<g id="node11" class="node"><title>Node11</title>
<g id="a_node11"><a xlink:href="../../d9/d96/classapplication_1_1_main.html#ada0f47786d75e28e627d2621d75eaf5a" target="_top" xlink:title="application.Main.activate\lStartButton">
<polygon fill="white" stroke="black" points="880.5,-29 880.5,-59 1015.5,-59 1015.5,-29 880.5,-29"/>
<text text-anchor="start" x="888.5" y="-47" font-family="Helvetica,sans-Serif" font-size="10.00">application.Main.activate</text>
<text text-anchor="middle" x="948" y="-36" font-family="Helvetica,sans-Serif" font-size="10.00">StartButton</text>
</a>
</g>
</g>
<!-- Node10&#45;&gt;Node11 -->
<g id="edge11" class="edge"><title>Node10&#45;&gt;Node11</title>
<path fill="none" stroke="midnightblue" d="M854.351,-44C863.052,-44 871.82,-44 880.312,-44"/>
<polygon fill="midnightblue" stroke="midnightblue" points="854.19,-40.5001 844.19,-44 854.19,-47.5001 854.19,-40.5001"/>
</g>
<!-- Node12 -->
<g id="node12" class="node"><title>Node12</title>
<g id="a_node12"><a xlink:href="../../d9/d96/classapplication_1_1_main.html#a64e6451d894979853890a235efe37db8" target="_top" xlink:title="application.Main.createStart\lGameButton">
<polygon fill="white" stroke="black" points="1056,-29 1056,-59 1208,-59 1208,-29 1056,-29"/>
<text text-anchor="start" x="1064" y="-47" font-family="Helvetica,sans-Serif" font-size="10.00">application.Main.createStart</text>
<text text-anchor="middle" x="1132" y="-36" font-family="Helvetica,sans-Serif" font-size="10.00">GameButton</text>
</a>
</g>
</g>
<!-- Node11&#45;&gt;Node12 -->
<g id="edge12" class="edge"><title>Node11&#45;&gt;Node12</title>
<path fill="none" stroke="midnightblue" d="M1025.98,-44C1035.91,-44 1046.07,-44 1055.97,-44"/>
<polygon fill="midnightblue" stroke="midnightblue" points="1025.74,-40.5001 1015.74,-44 1025.74,-47.5001 1025.74,-40.5001"/>
</g>
<!-- Node12&#45;&gt;Node8 -->
<g id="edge13" class="edge"><title>Node12&#45;&gt;Node8</title>
<path fill="none" stroke="midnightblue" d="M1218.17,-44C1228.28,-44 1238.51,-44 1248.35,-44"/>
<polygon fill="midnightblue" stroke="midnightblue" points="1218.11,-40.5001 1208.11,-44 1218.11,-47.5001 1218.11,-40.5001"/>
</g>
</g>
</svg>
