<?xml version="1.0" encoding="UTF-8" standalone="no"?>
<!DOCTYPE svg PUBLIC "-//W3C//DTD SVG 1.1//EN"
 "http://www.w3.org/Graphics/SVG/1.1/DTD/svg11.dtd">
<!-- Generated by graphviz version 2.36.0 (20140111.2315)
 -->
<!-- Title: application.Main.activatePauseAnimationButton Pages: 1 -->
<svg width="2468pt" height="96pt"
 viewBox="0.00 0.00 2468.00 96.00" xmlns="http://www.w3.org/2000/svg" xmlns:xlink="http://www.w3.org/1999/xlink">
<g id="graph0" class="graph" transform="scale(1 1) rotate(0) translate(4 92)">
<title>application.Main.activatePauseAnimationButton</title>
<polygon fill="white" stroke="none" points="-4,4 -4,-92 2464,-92 2464,4 -4,4"/>
<!-- Node1 -->
<g id="node1" class="node"><title>Node1</title>
<polygon fill="#bfbfbf" stroke="black" points="0.5,-5 0.5,-35 135.5,-35 135.5,-5 0.5,-5"/>
<text text-anchor="start" x="8.5" y="-23" font-family="Helvetica,sans-Serif" font-size="10.00">application.Main.activate</text>
<text text-anchor="middle" x="68" y="-12" font-family="Helvetica,sans-Serif" font-size="10.00">PauseAnimationButton</text>
</g>
<!-- Node2 -->
<g id="node2" class="node"><title>Node2</title>
<g id="a_node2"><a xlink:href="../../d9/d96/classapplication_1_1_main.html#ac07fa289b74f3cc215c91e40cc6b7d51" target="_top" xlink:title="application.Main.createPause\lButton">
<polygon fill="white" stroke="black" points="172,-5 172,-35 328,-35 328,-5 172,-5"/>
<text text-anchor="start" x="180" y="-23" font-family="Helvetica,sans-Serif" font-size="10.00">application.Main.createPause</text>
<text text-anchor="middle" x="250" y="-12" font-family="Helvetica,sans-Serif" font-size="10.00">Button</text>
</a>
</g>
</g>
<!-- Node1&#45;&gt;Node2 -->
<g id="edge1" class="edge"><title>Node1&#45;&gt;Node2</title>
<path fill="none" stroke="midnightblue" d="M145.603,-20C154.28,-20 163.128,-20 171.813,-20"/>
<polygon fill="midnightblue" stroke="midnightblue" points="145.514,-16.5001 135.514,-20 145.514,-23.5001 145.514,-16.5001"/>
</g>
<!-- Node3 -->
<g id="node3" class="node"><title>Node3</title>
<g id="a_node3"><a xlink:href="../../d9/d96/classapplication_1_1_main.html#a2ddf30fb8360296e1ad3459fe6f920fb" target="_top" xlink:title="application.Main.populate\lGridPageModules">
<polygon fill="white" stroke="black" points="364.5,-5 364.5,-35 503.5,-35 503.5,-5 364.5,-5"/>
<text text-anchor="start" x="372.5" y="-23" font-family="Helvetica,sans-Serif" font-size="10.00">application.Main.populate</text>
<text text-anchor="middle" x="434" y="-12" font-family="Helvetica,sans-Serif" font-size="10.00">GridPageModules</text>
</a>
</g>
</g>
<!-- Node2&#45;&gt;Node3 -->
<g id="edge2" class="edge"><title>Node2&#45;&gt;Node3</title>
<path fill="none" stroke="midnightblue" d="M338.38,-20C347.098,-20 355.861,-20 364.348,-20"/>
<polygon fill="midnightblue" stroke="midnightblue" points="338.184,-16.5001 328.184,-20 338.184,-23.5001 338.184,-16.5001"/>
</g>
<!-- Node4 -->
<g id="node4" class="node"><title>Node4</title>
<g id="a_node4"><a xlink:href="../../d9/d96/classapplication_1_1_main.html#adc868cfca1990edad66af3dcb8cf4349" target="_top" xlink:title="application.Main.playGame">
<polygon fill="white" stroke="black" points="540,-31.5 540,-50.5 686,-50.5 686,-31.5 540,-31.5"/>
<text text-anchor="middle" x="613" y="-38.5" font-family="Helvetica,sans-Serif" font-size="10.00">application.Main.playGame</text>
</a>
</g>
</g>
<!-- Node3&#45;&gt;Node4 -->
<g id="edge3" class="edge"><title>Node3&#45;&gt;Node4</title>
<path fill="none" stroke="midnightblue" d="M513.787,-29.3477C522.459,-30.3765 531.256,-31.4202 539.841,-32.4387"/>
<polygon fill="midnightblue" stroke="midnightblue" points="514.029,-25.8518 503.686,-28.1492 513.204,-32.8031 514.029,-25.8518"/>
</g>
<!-- Node5 -->
<g id="node5" class="node"><title>Node5</title>
<g id="a_node5"><a xlink:href="../../d9/d96/classapplication_1_1_main.html#ada0f47786d75e28e627d2621d75eaf5a" target="_top" xlink:title="application.Main.activate\lStartButton">
<polygon fill="white" stroke="black" points="722.5,-29 722.5,-59 857.5,-59 857.5,-29 722.5,-29"/>
<text text-anchor="start" x="730.5" y="-47" font-family="Helvetica,sans-Serif" font-size="10.00">application.Main.activate</text>
<text text-anchor="middle" x="790" y="-36" font-family="Helvetica,sans-Serif" font-size="10.00">StartButton</text>
</a>
</g>
</g>
<!-- Node4&#45;&gt;Node5 -->
<g id="edge4" class="edge"><title>Node4&#45;&gt;Node5</title>
<path fill="none" stroke="midnightblue" d="M696.351,-42.4117C705.052,-42.5609 713.82,-42.7112 722.312,-42.8568"/>
<polygon fill="midnightblue" stroke="midnightblue" points="696.248,-38.9095 686.19,-42.2375 696.128,-45.9085 696.248,-38.9095"/>
</g>
<!-- Node6 -->
<g id="node6" class="node"><title>Node6</title>
<g id="a_node6"><a xlink:href="../../d9/d96/classapplication_1_1_main.html#a64e6451d894979853890a235efe37db8" target="_top" xlink:title="application.Main.createStart\lGameButton">
<polygon fill="white" stroke="black" points="894,-29 894,-59 1046,-59 1046,-29 894,-29"/>
<text text-anchor="start" x="902" y="-47" font-family="Helvetica,sans-Serif" font-size="10.00">application.Main.createStart</text>
<text text-anchor="middle" x="970" y="-36" font-family="Helvetica,sans-Serif" font-size="10.00">GameButton</text>
</a>
</g>
</g>
<!-- Node5&#45;&gt;Node6 -->
<g id="edge5" class="edge"><title>Node5&#45;&gt;Node6</title>
<path fill="none" stroke="midnightblue" d="M867.646,-44C876.341,-44 885.196,-44 893.871,-44"/>
<polygon fill="midnightblue" stroke="midnightblue" points="867.534,-40.5001 857.534,-44 867.534,-47.5001 867.534,-40.5001"/>
</g>
<!-- Node7 -->
<g id="node7" class="node"><title>Node7</title>
<g id="a_node7"><a xlink:href="../../d9/d96/classapplication_1_1_main.html#a5fee6c1b05965eca9205a99e3245a5fb" target="_top" xlink:title="application.Main.populate\lStartPageModules">
<polygon fill="white" stroke="black" points="1082.5,-29 1082.5,-59 1221.5,-59 1221.5,-29 1082.5,-29"/>
<text text-anchor="start" x="1090.5" y="-47" font-family="Helvetica,sans-Serif" font-size="10.00">application.Main.populate</text>
<text text-anchor="middle" x="1152" y="-36" font-family="Helvetica,sans-Serif" font-size="10.00">StartPageModules</text>
</a>
</g>
</g>
<!-- Node6&#45;&gt;Node7 -->
<g id="edge6" class="edge"><title>Node6&#45;&gt;Node7</title>
<path fill="none" stroke="midnightblue" d="M1056.27,-44C1065.04,-44 1073.86,-44 1082.41,-44"/>
<polygon fill="midnightblue" stroke="midnightblue" points="1056.03,-40.5001 1046.03,-44 1056.03,-47.5001 1056.03,-40.5001"/>
</g>
<!-- Node8 -->
<g id="node8" class="node"><title>Node8</title>
<g id="a_node8"><a xlink:href="../../d9/d96/classapplication_1_1_main.html#a4e5ad4e3de8bbd8654120180a94e870d" target="_top" xlink:title="application.Main.start">
<polygon fill="white" stroke="black" points="1258.5,-34.5 1258.5,-53.5 1377.5,-53.5 1377.5,-34.5 1258.5,-34.5"/>
<text text-anchor="middle" x="1318" y="-41.5" font-family="Helvetica,sans-Serif" font-size="10.00">application.Main.start</text>
</a>
</g>
</g>
<!-- Node7&#45;&gt;Node8 -->
<g id="edge7" class="edge"><title>Node7&#45;&gt;Node8</title>
<path fill="none" stroke="midnightblue" d="M1231.68,-44C1240.64,-44 1249.66,-44 1258.3,-44"/>
<polygon fill="midnightblue" stroke="midnightblue" points="1231.6,-40.5001 1221.6,-44 1231.6,-47.5001 1231.6,-40.5001"/>
</g>
<!-- Node9 -->
<g id="node9" class="node"><title>Node9</title>
<g id="a_node9"><a xlink:href="../../d9/d96/classapplication_1_1_main.html#ad652e3294ffb6519b18d784d5831c76a" target="_top" xlink:title="application.Main.activate\lReturntoStart">
<polygon fill="white" stroke="black" points="1414.5,-29 1414.5,-59 1549.5,-59 1549.5,-29 1414.5,-29"/>
<text text-anchor="start" x="1422.5" y="-47" font-family="Helvetica,sans-Serif" font-size="10.00">application.Main.activate</text>
<text text-anchor="middle" x="1482" y="-36" font-family="Helvetica,sans-Serif" font-size="10.00">ReturntoStart</text>
</a>
</g>
</g>
<!-- Node8&#45;&gt;Node9 -->
<g id="edge8" class="edge"><title>Node8&#45;&gt;Node9</title>
<path fill="none" stroke="midnightblue" d="M1388.08,-44C1396.81,-44 1405.73,-44 1414.42,-44"/>
<polygon fill="midnightblue" stroke="midnightblue" points="1387.94,-40.5001 1377.94,-44 1387.94,-47.5001 1387.94,-40.5001"/>
</g>
<!-- Node10 -->
<g id="node10" class="node"><title>Node10</title>
<g id="a_node10"><a xlink:href="../../d9/d96/classapplication_1_1_main.html#a4c5877fafc53c4fae488f1f30faf294b" target="_top" xlink:title="application.Main.createReturn\lToStartButton">
<polygon fill="white" stroke="black" points="1586,-29 1586,-59 1744,-59 1744,-29 1586,-29"/>
<text text-anchor="start" x="1594" y="-47" font-family="Helvetica,sans-Serif" font-size="10.00">application.Main.createReturn</text>
<text text-anchor="middle" x="1665" y="-36" font-family="Helvetica,sans-Serif" font-size="10.00">ToStartButton</text>
</a>
</g>
</g>
<!-- Node9&#45;&gt;Node10 -->
<g id="edge9" class="edge"><title>Node9&#45;&gt;Node10</title>
<path fill="none" stroke="midnightblue" d="M1559.7,-44C1568.36,-44 1577.19,-44 1585.87,-44"/>
<polygon fill="midnightblue" stroke="midnightblue" points="1559.63,-40.5001 1549.63,-44 1559.63,-47.5001 1559.63,-40.5001"/>
</g>
<!-- Node10&#45;&gt;Node3 -->
<g id="edge10" class="edge"><title>Node10&#45;&gt;Node3</title>
<path fill="none" stroke="midnightblue" d="M1592.64,-26.8172C1578.57,-23.8641 1563.87,-21.0812 1550,-19 1448.13,-3.71043 1422.01,-0 1319,-0 789,-0 789,-0 789,-0 689.74,-0 575.074,-7.93505 503.792,-13.8088"/>
<polygon fill="midnightblue" stroke="midnightblue" points="1592.24,-30.3112 1602.75,-28.99 1593.71,-23.4673 1592.24,-30.3112"/>
</g>
<!-- Node11 -->
<g id="node11" class="node"><title>Node11</title>
<g id="a_node11"><a xlink:href="../../d9/d96/classapplication_1_1_main.html#abcabe1a32eb7b5054cf34ca0def07531" target="_top" xlink:title="application.Main.populate\lErrorPageModules">
<polygon fill="white" stroke="black" points="1780.5,-29 1780.5,-59 1919.5,-59 1919.5,-29 1780.5,-29"/>
<text text-anchor="start" x="1788.5" y="-47" font-family="Helvetica,sans-Serif" font-size="10.00">application.Main.populate</text>
<text text-anchor="middle" x="1850" y="-36" font-family="Helvetica,sans-Serif" font-size="10.00">ErrorPageModules</text>
</a>
</g>
</g>
<!-- Node10&#45;&gt;Node11 -->
<g id="edge11" class="edge"><title>Node10&#45;&gt;Node11</title>
<path fill="none" stroke="midnightblue" d="M1754.36,-44C1763.1,-44 1771.87,-44 1780.37,-44"/>
<polygon fill="midnightblue" stroke="midnightblue" points="1754.14,-40.5001 1744.14,-44 1754.14,-47.5001 1754.14,-40.5001"/>
</g>
<!-- Node12 -->
<g id="node12" class="node"><title>Node12</title>
<g id="a_node12"><a xlink:href="../../d9/d96/classapplication_1_1_main.html#a81e70f73d65beae34c459628791cc5d4" target="_top" xlink:title="application.Main.activate\lErrorPage">
<polygon fill="white" stroke="black" points="1956.5,-29 1956.5,-59 2091.5,-59 2091.5,-29 1956.5,-29"/>
<text text-anchor="start" x="1964.5" y="-47" font-family="Helvetica,sans-Serif" font-size="10.00">application.Main.activate</text>
<text text-anchor="middle" x="2024" y="-36" font-family="Helvetica,sans-Serif" font-size="10.00">ErrorPage</text>
</a>
</g>
</g>
<!-- Node11&#45;&gt;Node12 -->
<g id="edge12" class="edge"><title>Node11&#45;&gt;Node12</title>
<path fill="none" stroke="midnightblue" d="M1930.15,-44C1938.88,-44 1947.7,-44 1956.25,-44"/>
<polygon fill="midnightblue" stroke="midnightblue" points="1929.97,-40.5001 1919.97,-44 1929.97,-47.5001 1929.97,-40.5001"/>
</g>
<!-- Node13 -->
<g id="node13" class="node"><title>Node13</title>
<g id="a_node13"><a xlink:href="../../d9/d96/classapplication_1_1_main.html#aef0593911aa3cbc594ac75bbb8d6a2b0" target="_top" xlink:title="application.Main.activate\lImportXMLButton">
<polygon fill="white" stroke="black" points="2128.5,-29 2128.5,-59 2263.5,-59 2263.5,-29 2128.5,-29"/>
<text text-anchor="start" x="2136.5" y="-47" font-family="Helvetica,sans-Serif" font-size="10.00">application.Main.activate</text>
<text text-anchor="middle" x="2196" y="-36" font-family="Helvetica,sans-Serif" font-size="10.00">ImportXMLButton</text>
</a>
</g>
</g>
<!-- Node12&#45;&gt;Node13 -->
<g id="edge13" class="edge"><title>Node12&#45;&gt;Node13</title>
<path fill="none" stroke="midnightblue" d="M2101.72,-44C2110.65,-44 2119.71,-44 2128.49,-44"/>
<polygon fill="midnightblue" stroke="midnightblue" points="2101.7,-40.5001 2091.7,-44 2101.7,-47.5001 2101.7,-40.5001"/>
</g>
<!-- Node14 -->
<g id="node14" class="node"><title>Node14</title>
<g id="a_node14"><a xlink:href="../../d9/d96/classapplication_1_1_main.html#a18021492af2e457d39edcbd16dc0d3c8" target="_top" xlink:title="application.Main.createImport\lXMLButton">
<polygon fill="white" stroke="black" points="2300.5,-51 2300.5,-81 2459.5,-81 2459.5,-51 2300.5,-51"/>
<text text-anchor="start" x="2308.5" y="-69" font-family="Helvetica,sans-Serif" font-size="10.00">application.Main.createImport</text>
<text text-anchor="middle" x="2380" y="-58" font-family="Helvetica,sans-Serif" font-size="10.00">XMLButton</text>
</a>
</g>
</g>
<!-- Node13&#45;&gt;Node14 -->
<g id="edge14" class="edge"><title>Node13&#45;&gt;Node14</title>
<path fill="none" stroke="midnightblue" d="M2273.87,-53.2923C2282.59,-54.3465 2291.49,-55.4221 2300.24,-56.4792"/>
<polygon fill="midnightblue" stroke="midnightblue" points="2274.08,-49.7925 2263.74,-52.0671 2273.24,-56.7419 2274.08,-49.7925"/>
</g>
<!-- Node14&#45;&gt;Node7 -->
<g id="edge15" class="edge"><title>Node14&#45;&gt;Node7</title>
<path fill="none" stroke="midnightblue" d="M2290.03,-74.5964C2218.5,-80.7676 2115.38,-88 2025,-88 1481,-88 1481,-88 1481,-88 1390.8,-88 1287.87,-71.451 1221.75,-58.6514"/>
<polygon fill="midnightblue" stroke="midnightblue" points="2290.69,-78.0519 2300.35,-73.6945 2290.08,-71.0785 2290.69,-78.0519"/>
</g>
</g>
</svg>
