<?xml version="1.0" encoding="UTF-8" standalone="no"?>
<!DOCTYPE svg PUBLIC "-//W3C//DTD SVG 1.1//EN"
 "http://www.w3.org/Graphics/SVG/1.1/DTD/svg11.dtd">
<!-- Generated by graphviz version 2.36.0 (20140111.2315)
 -->
<!-- Title: application.Main.activateStepThroughFrame Pages: 1 -->
<svg width="2462pt" height="96pt"
 viewBox="0.00 0.00 2462.00 96.00" xmlns="http://www.w3.org/2000/svg" xmlns:xlink="http://www.w3.org/1999/xlink">
<g id="graph0" class="graph" transform="scale(1 1) rotate(0) translate(4 92)">
<title>application.Main.activateStepThroughFrame</title>
<polygon fill="white" stroke="none" points="-4,4 -4,-92 2458,-92 2458,4 -4,4"/>
<!-- Node1 -->
<g id="node1" class="node"><title>Node1</title>
<polygon fill="#bfbfbf" stroke="black" points="0.5,-5 0.5,-35 135.5,-35 135.5,-5 0.5,-5"/>
<text text-anchor="start" x="8.5" y="-23" font-family="Helvetica,sans-Serif" font-size="10.00">application.Main.activate</text>
<text text-anchor="middle" x="68" y="-12" font-family="Helvetica,sans-Serif" font-size="10.00">StepThroughFrame</text>
</g>
<!-- Node2 -->
<g id="node2" class="node"><title>Node2</title>
<g id="a_node2"><a xlink:href="../../d9/d96/classapplication_1_1_main.html#a17e3960f589de0ae82b734128978d480" target="_top" xlink:title="application.Main.createStep\lThroughButton">
<polygon fill="white" stroke="black" points="172,-5 172,-35 322,-35 322,-5 172,-5"/>
<text text-anchor="start" x="180" y="-23" font-family="Helvetica,sans-Serif" font-size="10.00">application.Main.createStep</text>
<text text-anchor="middle" x="247" y="-12" font-family="Helvetica,sans-Serif" font-size="10.00">ThroughButton</text>
</a>
</g>
</g>
<!-- Node1&#45;&gt;Node2 -->
<g id="edge1" class="edge"><title>Node1&#45;&gt;Node2</title>
<path fill="none" stroke="midnightblue" d="M145.78,-20C154.476,-20 163.325,-20 171.984,-20"/>
<polygon fill="midnightblue" stroke="midnightblue" points="145.664,-16.5001 135.664,-20 145.664,-23.5001 145.664,-16.5001"/>
</g>
<!-- Node3 -->
<g id="node3" class="node"><title>Node3</title>
<g id="a_node3"><a xlink:href="../../d9/d96/classapplication_1_1_main.html#a2ddf30fb8360296e1ad3459fe6f920fb" target="_top" xlink:title="application.Main.populate\lGridPageModules">
<polygon fill="white" stroke="black" points="358.5,-5 358.5,-35 497.5,-35 497.5,-5 358.5,-5"/>
<text text-anchor="start" x="366.5" y="-23" font-family="Helvetica,sans-Serif" font-size="10.00">application.Main.populate</text>
<text text-anchor="middle" x="428" y="-12" font-family="Helvetica,sans-Serif" font-size="10.00">GridPageModules</text>
</a>
</g>
</g>
<!-- Node2&#45;&gt;Node3 -->
<g id="edge2" class="edge"><title>Node2&#45;&gt;Node3</title>
<path fill="none" stroke="midnightblue" d="M332.313,-20C341.057,-20 349.868,-20 358.409,-20"/>
<polygon fill="midnightblue" stroke="midnightblue" points="332.098,-16.5001 322.098,-20 332.098,-23.5001 332.098,-16.5001"/>
</g>
<!-- Node4 -->
<g id="node4" class="node"><title>Node4</title>
<g id="a_node4"><a xlink:href="../../d9/d96/classapplication_1_1_main.html#adc868cfca1990edad66af3dcb8cf4349" target="_top" xlink:title="application.Main.playGame">
<polygon fill="white" stroke="black" points="534,-31.5 534,-50.5 680,-50.5 680,-31.5 534,-31.5"/>
<text text-anchor="middle" x="607" y="-38.5" font-family="Helvetica,sans-Serif" font-size="10.00">application.Main.playGame</text>
</a>
</g>
</g>
<!-- Node3&#45;&gt;Node4 -->
<g id="edge3" class="edge"><title>Node3&#45;&gt;Node4</title>
<path fill="none" stroke="midnightblue" d="M507.787,-29.3477C516.459,-30.3765 525.256,-31.4202 533.841,-32.4387"/>
<polygon fill="midnightblue" stroke="midnightblue" points="508.029,-25.8518 497.686,-28.1492 507.204,-32.8031 508.029,-25.8518"/>
</g>
<!-- Node5 -->
<g id="node5" class="node"><title>Node5</title>
<g id="a_node5"><a xlink:href="../../d9/d96/classapplication_1_1_main.html#ada0f47786d75e28e627d2621d75eaf5a" target="_top" xlink:title="application.Main.activate\lStartButton">
<polygon fill="white" stroke="black" points="716.5,-29 716.5,-59 851.5,-59 851.5,-29 716.5,-29"/>
<text text-anchor="start" x="724.5" y="-47" font-family="Helvetica,sans-Serif" font-size="10.00">application.Main.activate</text>
<text text-anchor="middle" x="784" y="-36" font-family="Helvetica,sans-Serif" font-size="10.00">StartButton</text>
</a>
</g>
</g>
<!-- Node4&#45;&gt;Node5 -->
<g id="edge4" class="edge"><title>Node4&#45;&gt;Node5</title>
<path fill="none" stroke="midnightblue" d="M690.351,-42.4117C699.052,-42.5609 707.82,-42.7112 716.312,-42.8568"/>
<polygon fill="midnightblue" stroke="midnightblue" points="690.248,-38.9095 680.19,-42.2375 690.128,-45.9085 690.248,-38.9095"/>
</g>
<!-- Node6 -->
<g id="node6" class="node"><title>Node6</title>
<g id="a_node6"><a xlink:href="../../d9/d96/classapplication_1_1_main.html#a64e6451d894979853890a235efe37db8" target="_top" xlink:title="application.Main.createStart\lGameButton">
<polygon fill="white" stroke="black" points="888,-29 888,-59 1040,-59 1040,-29 888,-29"/>
<text text-anchor="start" x="896" y="-47" font-family="Helvetica,sans-Serif" font-size="10.00">application.Main.createStart</text>
<text text-anchor="middle" x="964" y="-36" font-family="Helvetica,sans-Serif" font-size="10.00">GameButton</text>
</a>
</g>
</g>
<!-- Node5&#45;&gt;Node6 -->
<g id="edge5" class="edge"><title>Node5&#45;&gt;Node6</title>
<path fill="none" stroke="midnightblue" d="M861.646,-44C870.341,-44 879.196,-44 887.871,-44"/>
<polygon fill="midnightblue" stroke="midnightblue" points="861.534,-40.5001 851.534,-44 861.534,-47.5001 861.534,-40.5001"/>
</g>
<!-- Node7 -->
<g id="node7" class="node"><title>Node7</title>
<g id="a_node7"><a xlink:href="../../d9/d96/classapplication_1_1_main.html#a5fee6c1b05965eca9205a99e3245a5fb" target="_top" xlink:title="application.Main.populate\lStartPageModules">
<polygon fill="white" stroke="black" points="1076.5,-29 1076.5,-59 1215.5,-59 1215.5,-29 1076.5,-29"/>
<text text-anchor="start" x="1084.5" y="-47" font-family="Helvetica,sans-Serif" font-size="10.00">application.Main.populate</text>
<text text-anchor="middle" x="1146" y="-36" font-family="Helvetica,sans-Serif" font-size="10.00">StartPageModules</text>
</a>
</g>
</g>
<!-- Node6&#45;&gt;Node7 -->
<g id="edge6" class="edge"><title>Node6&#45;&gt;Node7</title>
<path fill="none" stroke="midnightblue" d="M1050.27,-44C1059.04,-44 1067.86,-44 1076.41,-44"/>
<polygon fill="midnightblue" stroke="midnightblue" points="1050.03,-40.5001 1040.03,-44 1050.03,-47.5001 1050.03,-40.5001"/>
</g>
<!-- Node8 -->
<g id="node8" class="node"><title>Node8</title>
<g id="a_node8"><a xlink:href="../../d9/d96/classapplication_1_1_main.html#a4e5ad4e3de8bbd8654120180a94e870d" target="_top" xlink:title="application.Main.start">
<polygon fill="white" stroke="black" points="1252.5,-34.5 1252.5,-53.5 1371.5,-53.5 1371.5,-34.5 1252.5,-34.5"/>
<text text-anchor="middle" x="1312" y="-41.5" font-family="Helvetica,sans-Serif" font-size="10.00">application.Main.start</text>
</a>
</g>
</g>
<!-- Node7&#45;&gt;Node8 -->
<g id="edge7" class="edge"><title>Node7&#45;&gt;Node8</title>
<path fill="none" stroke="midnightblue" d="M1225.68,-44C1234.64,-44 1243.66,-44 1252.3,-44"/>
<polygon fill="midnightblue" stroke="midnightblue" points="1225.6,-40.5001 1215.6,-44 1225.6,-47.5001 1225.6,-40.5001"/>
</g>
<!-- Node9 -->
<g id="node9" class="node"><title>Node9</title>
<g id="a_node9"><a xlink:href="../../d9/d96/classapplication_1_1_main.html#ad652e3294ffb6519b18d784d5831c76a" target="_top" xlink:title="application.Main.activate\lReturntoStart">
<polygon fill="white" stroke="black" points="1408.5,-29 1408.5,-59 1543.5,-59 1543.5,-29 1408.5,-29"/>
<text text-anchor="start" x="1416.5" y="-47" font-family="Helvetica,sans-Serif" font-size="10.00">application.Main.activate</text>
<text text-anchor="middle" x="1476" y="-36" font-family="Helvetica,sans-Serif" font-size="10.00">ReturntoStart</text>
</a>
</g>
</g>
<!-- Node8&#45;&gt;Node9 -->
<g id="edge8" class="edge"><title>Node8&#45;&gt;Node9</title>
<path fill="none" stroke="midnightblue" d="M1382.08,-44C1390.81,-44 1399.73,-44 1408.42,-44"/>
<polygon fill="midnightblue" stroke="midnightblue" points="1381.94,-40.5001 1371.94,-44 1381.94,-47.5001 1381.94,-40.5001"/>
</g>
<!-- Node10 -->
<g id="node10" class="node"><title>Node10</title>
<g id="a_node10"><a xlink:href="../../d9/d96/classapplication_1_1_main.html#a4c5877fafc53c4fae488f1f30faf294b" target="_top" xlink:title="application.Main.createReturn\lToStartButton">
<polygon fill="white" stroke="black" points="1580,-29 1580,-59 1738,-59 1738,-29 1580,-29"/>
<text text-anchor="start" x="1588" y="-47" font-family="Helvetica,sans-Serif" font-size="10.00">application.Main.createReturn</text>
<text text-anchor="middle" x="1659" y="-36" font-family="Helvetica,sans-Serif" font-size="10.00">ToStartButton</text>
</a>
</g>
</g>
<!-- Node9&#45;&gt;Node10 -->
<g id="edge9" class="edge"><title>Node9&#45;&gt;Node10</title>
<path fill="none" stroke="midnightblue" d="M1553.7,-44C1562.36,-44 1571.19,-44 1579.87,-44"/>
<polygon fill="midnightblue" stroke="midnightblue" points="1553.63,-40.5001 1543.63,-44 1553.63,-47.5001 1553.63,-40.5001"/>
</g>
<!-- Node10&#45;&gt;Node3 -->
<g id="edge10" class="edge"><title>Node10&#45;&gt;Node3</title>
<path fill="none" stroke="midnightblue" d="M1586.64,-26.8172C1572.57,-23.8641 1557.87,-21.0812 1544,-19 1442.13,-3.71043 1416.01,-0 1313,-0 783,-0 783,-0 783,-0 683.74,-0 569.074,-7.93505 497.792,-13.8088"/>
<polygon fill="midnightblue" stroke="midnightblue" points="1586.24,-30.3112 1596.75,-28.99 1587.71,-23.4673 1586.24,-30.3112"/>
</g>
<!-- Node11 -->
<g id="node11" class="node"><title>Node11</title>
<g id="a_node11"><a xlink:href="../../d9/d96/classapplication_1_1_main.html#abcabe1a32eb7b5054cf34ca0def07531" target="_top" xlink:title="application.Main.populate\lErrorPageModules">
<polygon fill="white" stroke="black" points="1774.5,-29 1774.5,-59 1913.5,-59 1913.5,-29 1774.5,-29"/>
<text text-anchor="start" x="1782.5" y="-47" font-family="Helvetica,sans-Serif" font-size="10.00">application.Main.populate</text>
<text text-anchor="middle" x="1844" y="-36" font-family="Helvetica,sans-Serif" font-size="10.00">ErrorPageModules</text>
</a>
</g>
</g>
<!-- Node10&#45;&gt;Node11 -->
<g id="edge11" class="edge"><title>Node10&#45;&gt;Node11</title>
<path fill="none" stroke="midnightblue" d="M1748.36,-44C1757.1,-44 1765.87,-44 1774.37,-44"/>
<polygon fill="midnightblue" stroke="midnightblue" points="1748.14,-40.5001 1738.14,-44 1748.14,-47.5001 1748.14,-40.5001"/>
</g>
<!-- Node12 -->
<g id="node12" class="node"><title>Node12</title>
<g id="a_node12"><a xlink:href="../../d9/d96/classapplication_1_1_main.html#a81e70f73d65beae34c459628791cc5d4" target="_top" xlink:title="application.Main.activate\lErrorPage">
<polygon fill="white" stroke="black" points="1950.5,-29 1950.5,-59 2085.5,-59 2085.5,-29 1950.5,-29"/>
<text text-anchor="start" x="1958.5" y="-47" font-family="Helvetica,sans-Serif" font-size="10.00">application.Main.activate</text>
<text text-anchor="middle" x="2018" y="-36" font-family="Helvetica,sans-Serif" font-size="10.00">ErrorPage</text>
</a>
</g>
</g>
<!-- Node11&#45;&gt;Node12 -->
<g id="edge12" class="edge"><title>Node11&#45;&gt;Node12</title>
<path fill="none" stroke="midnightblue" d="M1924.15,-44C1932.88,-44 1941.7,-44 1950.25,-44"/>
<polygon fill="midnightblue" stroke="midnightblue" points="1923.97,-40.5001 1913.97,-44 1923.97,-47.5001 1923.97,-40.5001"/>
</g>
<!-- Node13 -->
<g id="node13" class="node"><title>Node13</title>
<g id="a_node13"><a xlink:href="../../d9/d96/classapplication_1_1_main.html#aef0593911aa3cbc594ac75bbb8d6a2b0" target="_top" xlink:title="application.Main.activate\lImportXMLButton">
<polygon fill="white" stroke="black" points="2122.5,-29 2122.5,-59 2257.5,-59 2257.5,-29 2122.5,-29"/>
<text text-anchor="start" x="2130.5" y="-47" font-family="Helvetica,sans-Serif" font-size="10.00">application.Main.activate</text>
<text text-anchor="middle" x="2190" y="-36" font-family="Helvetica,sans-Serif" font-size="10.00">ImportXMLButton</text>
</a>
</g>
</g>
<!-- Node12&#45;&gt;Node13 -->
<g id="edge13" class="edge"><title>Node12&#45;&gt;Node13</title>
<path fill="none" stroke="midnightblue" d="M2095.72,-44C2104.65,-44 2113.71,-44 2122.49,-44"/>
<polygon fill="midnightblue" stroke="midnightblue" points="2095.7,-40.5001 2085.7,-44 2095.7,-47.5001 2095.7,-40.5001"/>
</g>
<!-- Node14 -->
<g id="node14" class="node"><title>Node14</title>
<g id="a_node14"><a xlink:href="../../d9/d96/classapplication_1_1_main.html#a18021492af2e457d39edcbd16dc0d3c8" target="_top" xlink:title="application.Main.createImport\lXMLButton">
<polygon fill="white" stroke="black" points="2294.5,-51 2294.5,-81 2453.5,-81 2453.5,-51 2294.5,-51"/>
<text text-anchor="start" x="2302.5" y="-69" font-family="Helvetica,sans-Serif" font-size="10.00">application.Main.createImport</text>
<text text-anchor="middle" x="2374" y="-58" font-family="Helvetica,sans-Serif" font-size="10.00">XMLButton</text>
</a>
</g>
</g>
<!-- Node13&#45;&gt;Node14 -->
<g id="edge14" class="edge"><title>Node13&#45;&gt;Node14</title>
<path fill="none" stroke="midnightblue" d="M2267.87,-53.2923C2276.59,-54.3465 2285.49,-55.4221 2294.24,-56.4792"/>
<polygon fill="midnightblue" stroke="midnightblue" points="2268.08,-49.7925 2257.74,-52.0671 2267.24,-56.7419 2268.08,-49.7925"/>
</g>
<!-- Node14&#45;&gt;Node7 -->
<g id="edge15" class="edge"><title>Node14&#45;&gt;Node7</title>
<path fill="none" stroke="midnightblue" d="M2284.03,-74.5964C2212.5,-80.7676 2109.38,-88 2019,-88 1475,-88 1475,-88 1475,-88 1384.8,-88 1281.87,-71.451 1215.75,-58.6514"/>
<polygon fill="midnightblue" stroke="midnightblue" points="2284.69,-78.0519 2294.35,-73.6945 2284.08,-71.0785 2284.69,-78.0519"/>
</g>
</g>
</svg>
