<?xml version="1.0" encoding="UTF-8" standalone="no"?>
<!DOCTYPE svg PUBLIC "-//W3C//DTD SVG 1.1//EN"
 "http://www.w3.org/Graphics/SVG/1.1/DTD/svg11.dtd">
<!-- Generated by graphviz version 2.36.0 (20140111.2315)
 -->
<!-- Title: application.Main.createResumeButton Pages: 1 -->
<svg width="370pt" height="77pt"
 viewBox="0.00 0.00 370.00 77.00" xmlns="http://www.w3.org/2000/svg" xmlns:xlink="http://www.w3.org/1999/xlink">
<g id="graph0" class="graph" transform="scale(1 1) rotate(0) translate(4 73)">
<title>application.Main.createResumeButton</title>
<polygon fill="white" stroke="none" points="-4,4 -4,-73 366,-73 366,4 -4,4"/>
<!-- Node1 -->
<g id="node1" class="node"><title>Node1</title>
<polygon fill="#bfbfbf" stroke="black" points="0,-17 0,-47 166,-47 166,-17 0,-17"/>
<text text-anchor="start" x="8" y="-35" font-family="Helvetica,sans-Serif" font-size="10.00">application.Main.createResume</text>
<text text-anchor="middle" x="83" y="-24" font-family="Helvetica,sans-Serif" font-size="10.00">Button</text>
</g>
<!-- Node2 -->
<g id="node2" class="node"><title>Node2</title>
<g id="a_node2"><a xlink:href="../../d9/d96/classapplication_1_1_main.html#ad2658dbd327a06d35bd000a30ef5ce2f" target="_top" xlink:title="application.Main.activate\lResumeAnimationButton">
<polygon fill="white" stroke="black" points="214,-39 214,-69 350,-69 350,-39 214,-39"/>
<text text-anchor="start" x="222" y="-57" font-family="Helvetica,sans-Serif" font-size="10.00">application.Main.activate</text>
<text text-anchor="middle" x="282" y="-46" font-family="Helvetica,sans-Serif" font-size="10.00">ResumeAnimationButton</text>
</a>
</g>
</g>
<!-- Node1&#45;&gt;Node2 -->
<g id="edge1" class="edge"><title>Node1&#45;&gt;Node2</title>
<path fill="none" stroke="midnightblue" d="M166.119,-41.1707C178.574,-42.5615 191.388,-43.9926 203.735,-45.3714"/>
<polygon fill="midnightblue" stroke="midnightblue" points="203.651,-48.8837 213.978,-46.5153 204.428,-41.927 203.651,-48.8837"/>
</g>
<!-- Node3 -->
<g id="node3" class="node"><title>Node3</title>
<g id="a_node3"><a xlink:href="../../d9/d96/classapplication_1_1_main.html#a2a2b201e08149dcf815a49c57974b0e5" target="_top" xlink:title="application.Main.createButton">
<polygon fill="white" stroke="black" points="202,-0.5 202,-19.5 362,-19.5 362,-0.5 202,-0.5"/>
<text text-anchor="middle" x="282" y="-7.5" font-family="Helvetica,sans-Serif" font-size="10.00">application.Main.createButton</text>
</a>
</g>
</g>
<!-- Node1&#45;&gt;Node3 -->
<g id="edge2" class="edge"><title>Node1&#45;&gt;Node3</title>
<path fill="none" stroke="midnightblue" d="M166.119,-22.8293C174.618,-21.8802 183.284,-20.9124 191.855,-19.9553"/>
<polygon fill="midnightblue" stroke="midnightblue" points="192.307,-23.4266 201.857,-18.8383 191.53,-16.4699 192.307,-23.4266"/>
</g>
</g>
</svg>
