<?xml version="1.0" encoding="UTF-8" standalone="no"?>
<!DOCTYPE svg PUBLIC "-//W3C//DTD SVG 1.1//EN"
 "http://www.w3.org/Graphics/SVG/1.1/DTD/svg11.dtd">
<!-- Generated by graphviz version 2.36.0 (20140111.2315)
 -->
<!-- Title: application.Main.activateStartButton Pages: 1 -->
<svg width="1756pt" height="145pt"
 viewBox="0.00 0.00 1756.00 145.00" xmlns="http://www.w3.org/2000/svg" xmlns:xlink="http://www.w3.org/1999/xlink">
<g id="graph0" class="graph" transform="scale(1 1) rotate(0) translate(4 141)">
<title>application.Main.activateStartButton</title>
<polygon fill="white" stroke="none" points="-4,4 -4,-141 1752,-141 1752,4 -4,4"/>
<!-- Node1 -->
<g id="node1" class="node"><title>Node1</title>
<polygon fill="#bfbfbf" stroke="black" points="0.5,-13 0.5,-43 135.5,-43 135.5,-13 0.5,-13"/>
<text text-anchor="start" x="8.5" y="-31" font-family="Helvetica,sans-Serif" font-size="10.00">application.Main.activate</text>
<text text-anchor="middle" x="68" y="-20" font-family="Helvetica,sans-Serif" font-size="10.00">StartButton</text>
</g>
<!-- Node2 -->
<g id="node2" class="node"><title>Node2</title>
<g id="a_node2"><a xlink:href="../../d9/d96/classapplication_1_1_main.html#a64e6451d894979853890a235efe37db8" target="_top" xlink:title="application.Main.createStart\lGameButton">
<polygon fill="white" stroke="black" points="172,-41 172,-71 324,-71 324,-41 172,-41"/>
<text text-anchor="start" x="180" y="-59" font-family="Helvetica,sans-Serif" font-size="10.00">application.Main.createStart</text>
<text text-anchor="middle" x="248" y="-48" font-family="Helvetica,sans-Serif" font-size="10.00">GameButton</text>
</a>
</g>
</g>
<!-- Node1&#45;&gt;Node2 -->
<g id="edge1" class="edge"><title>Node1&#45;&gt;Node2</title>
<path fill="none" stroke="midnightblue" d="M145.646,-40.0567C154.341,-41.4244 163.196,-42.8173 171.871,-44.1819"/>
<polygon fill="midnightblue" stroke="midnightblue" points="145.956,-36.5625 135.534,-38.466 144.868,-43.4775 145.956,-36.5625"/>
</g>
<!-- Node3 -->
<g id="node3" class="node"><title>Node3</title>
<g id="a_node3"><a xlink:href="../../d9/d96/classapplication_1_1_main.html#a5fee6c1b05965eca9205a99e3245a5fb" target="_top" xlink:title="application.Main.populate\lStartPageModules">
<polygon fill="white" stroke="black" points="360.5,-65 360.5,-95 499.5,-95 499.5,-65 360.5,-65"/>
<text text-anchor="start" x="368.5" y="-83" font-family="Helvetica,sans-Serif" font-size="10.00">application.Main.populate</text>
<text text-anchor="middle" x="430" y="-72" font-family="Helvetica,sans-Serif" font-size="10.00">StartPageModules</text>
</a>
</g>
</g>
<!-- Node2&#45;&gt;Node3 -->
<g id="edge2" class="edge"><title>Node2&#45;&gt;Node3</title>
<path fill="none" stroke="midnightblue" d="M333.989,-67.3318C342.847,-68.513 351.771,-69.7028 360.415,-70.8553"/>
<polygon fill="midnightblue" stroke="midnightblue" points="334.408,-63.8568 324.033,-66.0044 333.482,-70.7954 334.408,-63.8568"/>
</g>
<!-- Node4 -->
<g id="node4" class="node"><title>Node4</title>
<g id="a_node4"><a xlink:href="../../d9/d96/classapplication_1_1_main.html#a4e5ad4e3de8bbd8654120180a94e870d" target="_top" xlink:title="application.Main.start">
<polygon fill="white" stroke="black" points="536.5,-70.5 536.5,-89.5 655.5,-89.5 655.5,-70.5 536.5,-70.5"/>
<text text-anchor="middle" x="596" y="-77.5" font-family="Helvetica,sans-Serif" font-size="10.00">application.Main.start</text>
</a>
</g>
</g>
<!-- Node3&#45;&gt;Node4 -->
<g id="edge3" class="edge"><title>Node3&#45;&gt;Node4</title>
<path fill="none" stroke="midnightblue" d="M509.677,-80C518.642,-80 527.661,-80 536.302,-80"/>
<polygon fill="midnightblue" stroke="midnightblue" points="509.601,-76.5001 499.601,-80 509.6,-83.5001 509.601,-76.5001"/>
</g>
<!-- Node5 -->
<g id="node5" class="node"><title>Node5</title>
<g id="a_node5"><a xlink:href="../../d9/d96/classapplication_1_1_main.html#ad652e3294ffb6519b18d784d5831c76a" target="_top" xlink:title="application.Main.activate\lReturntoStart">
<polygon fill="white" stroke="black" points="692.5,-65 692.5,-95 827.5,-95 827.5,-65 692.5,-65"/>
<text text-anchor="start" x="700.5" y="-83" font-family="Helvetica,sans-Serif" font-size="10.00">application.Main.activate</text>
<text text-anchor="middle" x="760" y="-72" font-family="Helvetica,sans-Serif" font-size="10.00">ReturntoStart</text>
</a>
</g>
</g>
<!-- Node4&#45;&gt;Node5 -->
<g id="edge4" class="edge"><title>Node4&#45;&gt;Node5</title>
<path fill="none" stroke="midnightblue" d="M666.08,-80C674.81,-80 683.729,-80 692.419,-80"/>
<polygon fill="midnightblue" stroke="midnightblue" points="665.944,-76.5001 655.944,-80 665.944,-83.5001 665.944,-76.5001"/>
</g>
<!-- Node6 -->
<g id="node6" class="node"><title>Node6</title>
<g id="a_node6"><a xlink:href="../../d9/d96/classapplication_1_1_main.html#a4c5877fafc53c4fae488f1f30faf294b" target="_top" xlink:title="application.Main.createReturn\lToStartButton">
<polygon fill="white" stroke="black" points="864,-65 864,-95 1022,-95 1022,-65 864,-65"/>
<text text-anchor="start" x="872" y="-83" font-family="Helvetica,sans-Serif" font-size="10.00">application.Main.createReturn</text>
<text text-anchor="middle" x="943" y="-72" font-family="Helvetica,sans-Serif" font-size="10.00">ToStartButton</text>
</a>
</g>
</g>
<!-- Node5&#45;&gt;Node6 -->
<g id="edge5" class="edge"><title>Node5&#45;&gt;Node6</title>
<path fill="none" stroke="midnightblue" d="M837.696,-80C846.358,-80 855.193,-80 863.873,-80"/>
<polygon fill="midnightblue" stroke="midnightblue" points="837.627,-76.5001 827.627,-80 837.627,-83.5001 837.627,-76.5001"/>
</g>
<!-- Node7 -->
<g id="node7" class="node"><title>Node7</title>
<g id="a_node7"><a xlink:href="../../d9/d96/classapplication_1_1_main.html#a2ddf30fb8360296e1ad3459fe6f920fb" target="_top" xlink:title="application.Main.populate\lGridPageModules">
<polygon fill="white" stroke="black" points="1058.5,-29 1058.5,-59 1197.5,-59 1197.5,-29 1058.5,-29"/>
<text text-anchor="start" x="1066.5" y="-47" font-family="Helvetica,sans-Serif" font-size="10.00">application.Main.populate</text>
<text text-anchor="middle" x="1128" y="-36" font-family="Helvetica,sans-Serif" font-size="10.00">GridPageModules</text>
</a>
</g>
</g>
<!-- Node6&#45;&gt;Node7 -->
<g id="edge6" class="edge"><title>Node6&#45;&gt;Node7</title>
<path fill="none" stroke="midnightblue" d="M1030.13,-63.0562C1039.62,-61.1888 1049.19,-59.3061 1058.43,-57.489"/>
<polygon fill="midnightblue" stroke="midnightblue" points="1029.42,-59.629 1020.28,-64.9934 1030.77,-66.4973 1029.42,-59.629"/>
</g>
<!-- Node9 -->
<g id="node9" class="node"><title>Node9</title>
<g id="a_node9"><a xlink:href="../../d9/d96/classapplication_1_1_main.html#abcabe1a32eb7b5054cf34ca0def07531" target="_top" xlink:title="application.Main.populate\lErrorPageModules">
<polygon fill="white" stroke="black" points="1058.5,-78 1058.5,-108 1197.5,-108 1197.5,-78 1058.5,-78"/>
<text text-anchor="start" x="1066.5" y="-96" font-family="Helvetica,sans-Serif" font-size="10.00">application.Main.populate</text>
<text text-anchor="middle" x="1128" y="-85" font-family="Helvetica,sans-Serif" font-size="10.00">ErrorPageModules</text>
</a>
</g>
</g>
<!-- Node6&#45;&gt;Node9 -->
<g id="edge9" class="edge"><title>Node6&#45;&gt;Node9</title>
<path fill="none" stroke="midnightblue" d="M1032.36,-86.2769C1041.1,-86.8975 1049.87,-87.5209 1058.37,-88.1243"/>
<polygon fill="midnightblue" stroke="midnightblue" points="1032.36,-82.7684 1022.14,-85.5509 1031.87,-89.7508 1032.36,-82.7684"/>
</g>
<!-- Node8 -->
<g id="node8" class="node"><title>Node8</title>
<g id="a_node8"><a xlink:href="../../d9/d96/classapplication_1_1_main.html#adc868cfca1990edad66af3dcb8cf4349" target="_top" xlink:title="application.Main.playGame">
<polygon fill="white" stroke="black" points="1234,-12.5 1234,-31.5 1380,-31.5 1380,-12.5 1234,-12.5"/>
<text text-anchor="middle" x="1307" y="-19.5" font-family="Helvetica,sans-Serif" font-size="10.00">application.Main.playGame</text>
</a>
</g>
</g>
<!-- Node7&#45;&gt;Node8 -->
<g id="edge7" class="edge"><title>Node7&#45;&gt;Node8</title>
<path fill="none" stroke="midnightblue" d="M1207.79,-34.2072C1216.46,-33.1294 1225.26,-32.036 1233.84,-30.9689"/>
<polygon fill="midnightblue" stroke="midnightblue" points="1207.18,-30.7559 1197.69,-35.4627 1208.04,-37.7025 1207.18,-30.7559"/>
</g>
<!-- Node8&#45;&gt;Node1 -->
<g id="edge8" class="edge"><title>Node8&#45;&gt;Node1</title>
<path fill="none" stroke="midnightblue" d="M1223.87,-14.1584C1150.55,-7.839 1040.22,-0 944,-0 429,-0 429,-0 429,-0 326.347,-0 207.724,-11.4562 135.561,-19.7127"/>
<polygon fill="midnightblue" stroke="midnightblue" points="1223.69,-17.6566 1233.96,-15.0391 1224.3,-10.6831 1223.69,-17.6566"/>
</g>
<!-- Node10 -->
<g id="node10" class="node"><title>Node10</title>
<g id="a_node10"><a xlink:href="../../d9/d96/classapplication_1_1_main.html#a81e70f73d65beae34c459628791cc5d4" target="_top" xlink:title="application.Main.activate\lErrorPage">
<polygon fill="white" stroke="black" points="1239.5,-78 1239.5,-108 1374.5,-108 1374.5,-78 1239.5,-78"/>
<text text-anchor="start" x="1247.5" y="-96" font-family="Helvetica,sans-Serif" font-size="10.00">application.Main.activate</text>
<text text-anchor="middle" x="1307" y="-85" font-family="Helvetica,sans-Serif" font-size="10.00">ErrorPage</text>
</a>
</g>
</g>
<!-- Node9&#45;&gt;Node10 -->
<g id="edge10" class="edge"><title>Node9&#45;&gt;Node10</title>
<path fill="none" stroke="midnightblue" d="M1207.74,-93C1218.3,-93 1229.06,-93 1239.39,-93"/>
<polygon fill="midnightblue" stroke="midnightblue" points="1207.69,-89.5001 1197.69,-93 1207.69,-96.5001 1207.69,-89.5001"/>
</g>
<!-- Node11 -->
<g id="node11" class="node"><title>Node11</title>
<g id="a_node11"><a xlink:href="../../d9/d96/classapplication_1_1_main.html#aef0593911aa3cbc594ac75bbb8d6a2b0" target="_top" xlink:title="application.Main.activate\lImportXMLButton">
<polygon fill="white" stroke="black" points="1416.5,-78 1416.5,-108 1551.5,-108 1551.5,-78 1416.5,-78"/>
<text text-anchor="start" x="1424.5" y="-96" font-family="Helvetica,sans-Serif" font-size="10.00">application.Main.activate</text>
<text text-anchor="middle" x="1484" y="-85" font-family="Helvetica,sans-Serif" font-size="10.00">ImportXMLButton</text>
</a>
</g>
</g>
<!-- Node10&#45;&gt;Node11 -->
<g id="edge11" class="edge"><title>Node10&#45;&gt;Node11</title>
<path fill="none" stroke="midnightblue" d="M1384.66,-93C1395.18,-93 1405.91,-93 1416.24,-93"/>
<polygon fill="midnightblue" stroke="midnightblue" points="1384.66,-89.5001 1374.66,-93 1384.66,-96.5001 1384.66,-89.5001"/>
</g>
<!-- Node12 -->
<g id="node12" class="node"><title>Node12</title>
<g id="a_node12"><a xlink:href="../../d9/d96/classapplication_1_1_main.html#a18021492af2e457d39edcbd16dc0d3c8" target="_top" xlink:title="application.Main.createImport\lXMLButton">
<polygon fill="white" stroke="black" points="1588.5,-100 1588.5,-130 1747.5,-130 1747.5,-100 1588.5,-100"/>
<text text-anchor="start" x="1596.5" y="-118" font-family="Helvetica,sans-Serif" font-size="10.00">application.Main.createImport</text>
<text text-anchor="middle" x="1668" y="-107" font-family="Helvetica,sans-Serif" font-size="10.00">XMLButton</text>
</a>
</g>
</g>
<!-- Node11&#45;&gt;Node12 -->
<g id="edge12" class="edge"><title>Node11&#45;&gt;Node12</title>
<path fill="none" stroke="midnightblue" d="M1561.87,-102.292C1570.59,-103.346 1579.49,-104.422 1588.24,-105.479"/>
<polygon fill="midnightblue" stroke="midnightblue" points="1562.08,-98.7925 1551.74,-101.067 1561.24,-105.742 1562.08,-98.7925"/>
</g>
<!-- Node12&#45;&gt;Node3 -->
<g id="edge13" class="edge"><title>Node12&#45;&gt;Node3</title>
<path fill="none" stroke="midnightblue" d="M1578.28,-123.468C1505.68,-129.667 1400.29,-137 1308,-137 759,-137 759,-137 759,-137 660.888,-137 548.673,-111.938 484.197,-95.0506"/>
<polygon fill="midnightblue" stroke="midnightblue" points="1578.64,-126.95 1588.3,-122.602 1578.03,-119.976 1578.64,-126.95"/>
</g>
</g>
</svg>
