<?xml version="1.0" encoding="UTF-8" standalone="no"?>
<!DOCTYPE svg PUBLIC "-//W3C//DTD SVG 1.1//EN"
 "http://www.w3.org/Graphics/SVG/1.1/DTD/svg11.dtd">
<!-- Generated by graphviz version 2.36.0 (20140111.2315)
 -->
<!-- Title: application.Main.setSliderEventListener Pages: 1 -->
<svg width="560pt" height="38pt"
 viewBox="0.00 0.00 560.00 38.00" xmlns="http://www.w3.org/2000/svg" xmlns:xlink="http://www.w3.org/1999/xlink">
<g id="graph0" class="graph" transform="scale(1 1) rotate(0) translate(4 34)">
<title>application.Main.setSliderEventListener</title>
<polygon fill="white" stroke="none" points="-4,4 -4,-34 556,-34 556,4 -4,4"/>
<!-- Node1 -->
<g id="node1" class="node"><title>Node1</title>
<polygon fill="#bfbfbf" stroke="black" points="0.5,-0 0.5,-30 139.5,-30 139.5,-0 0.5,-0"/>
<text text-anchor="start" x="8.5" y="-18" font-family="Helvetica,sans-Serif" font-size="10.00">application.Main.setSlider</text>
<text text-anchor="middle" x="70" y="-7" font-family="Helvetica,sans-Serif" font-size="10.00">EventListener</text>
</g>
<!-- Node2 -->
<g id="node2" class="node"><title>Node2</title>
<g id="a_node2"><a xlink:href="../../d9/d96/classapplication_1_1_main.html#a6c520e9c63fdccaf896d7a635e3f84e8" target="_top" xlink:title="application.Main.runGameLoop">
<polygon fill="white" stroke="black" points="176.5,-5.5 176.5,-24.5 341.5,-24.5 341.5,-5.5 176.5,-5.5"/>
<text text-anchor="middle" x="259" y="-12.5" font-family="Helvetica,sans-Serif" font-size="10.00">application.Main.runGameLoop</text>
</a>
</g>
</g>
<!-- Node1&#45;&gt;Node2 -->
<g id="edge1" class="edge"><title>Node1&#45;&gt;Node2</title>
<path fill="none" stroke="midnightblue" d="M139.57,-15C148.28,-15 157.3,-15 166.299,-15"/>
<polygon fill="midnightblue" stroke="midnightblue" points="166.432,-18.5001 176.432,-15 166.432,-11.5001 166.432,-18.5001"/>
</g>
<!-- Node3 -->
<g id="node3" class="node"><title>Node3</title>
<g id="a_node3"><a xlink:href="../../d9/d5e/classapplication_1_1_application_loop.html#ab6a0753dda3f3b164bbc402cbbbd7187" target="_top" xlink:title="application.ApplicationLoop.start">
<polygon fill="white" stroke="black" points="378.5,-5.5 378.5,-24.5 551.5,-24.5 551.5,-5.5 378.5,-5.5"/>
<text text-anchor="middle" x="465" y="-12.5" font-family="Helvetica,sans-Serif" font-size="10.00">application.ApplicationLoop.start</text>
</a>
</g>
</g>
<!-- Node2&#45;&gt;Node3 -->
<g id="edge2" class="edge"><title>Node2&#45;&gt;Node3</title>
<path fill="none" stroke="midnightblue" d="M341.506,-15C350.295,-15 359.296,-15 368.233,-15"/>
<polygon fill="midnightblue" stroke="midnightblue" points="368.281,-18.5001 378.281,-15 368.281,-11.5001 368.281,-18.5001"/>
</g>
</g>
</svg>
