<?xml version="1.0" encoding="UTF-8" standalone="no"?>
<!DOCTYPE svg PUBLIC "-//W3C//DTD SVG 1.1//EN"
 "http://www.w3.org/Graphics/SVG/1.1/DTD/svg11.dtd">
<!-- Generated by graphviz version 2.36.0 (20140111.2315)
 -->
<!-- Title: application.Main.activateExitAppButton Pages: 1 -->
<!--zoomable 193 -->
<svg id="main" version="1.1" xmlns="http://www.w3.org/2000/svg" xmlns:xlink="http://www.w3.org/1999/xlink" xml:space="preserve" onload="init(evt)">
<style type="text/css"><![CDATA[
.edge:hover path { stroke: red; }
.edge:hover polygon { stroke: red; fill: red; }
]]></style>
<script type="text/javascript"><![CDATA[
var edges = document.getElementsByTagName('g');
if (edges && edges.length) {
  for (var i=0;i<edges.length;i++) {
    if (edges[i].id.substr(0,4)=='edge') {
      edges[i].setAttribute('class','edge');
    }
  }
}
]]></script>
        <defs>
                <circle id="rim" cx="0" cy="0" r="7"/>
                <circle id="rim2" cx="0" cy="0" r="3.5"/>
                <g id="zoomPlus">
                        <use xlink:href="#rim" fill="#404040">
                                <set attributeName="fill" to="#808080" begin="zoomplus.mouseover" end="zoomplus.mouseout"/>
                        </use>
                        <path d="M-4,0h8M0,-4v8" fill="none" stroke="white" stroke-width="1.5" pointer-events="none"/>
                </g>
                <g id="zoomMin">
                        <use xlink:href="#rim" fill="#404040">
                                <set attributeName="fill" to="#808080" begin="zoomminus.mouseover" end="zoomminus.mouseout"/>
                        </use>
                        <path d="M-4,0h8" fill="none" stroke="white" stroke-width="1.5" pointer-events="none"/>
                </g>
                <g id="dirArrow">
                        <path fill="none" stroke="white" stroke-width="1.5" d="M0,-3.0v7 M-2.5,-0.5L0,-3.0L2.5,-0.5"/>
                </g>
               <g id="resetDef">
                       <use xlink:href="#rim2" fill="#404040">
                               <set attributeName="fill" to="#808080" begin="reset.mouseover" end="reset.mouseout"/>
                       </use>
               </g>
        </defs>

<script type="text/javascript">
var viewWidth = 1750;
var viewHeight = 193;
var sectionId = 'dynsection-4';
</script>
<script xlink:href="../../svgpan.js"/>
<svg id="graph" class="graph">
<g id="viewport">
<title>application.Main.activateExitAppButton</title>
<polygon fill="white" stroke="none" points="-4,4 -4,-189 1746,-189 1746,4 -4,4"/>
<!-- Node1 -->
<g id="node1" class="node"><title>Node1</title>
<polygon fill="#bfbfbf" stroke="black" points="0.5,-67 0.5,-97 135.5,-97 135.5,-67 0.5,-67"/>
<text text-anchor="start" x="8.5" y="-85" font-family="Helvetica,sans-Serif" font-size="10.00">application.Main.activate</text>
<text text-anchor="middle" x="68" y="-74" font-family="Helvetica,sans-Serif" font-size="10.00">ExitAppButton</text>
</g>
<!-- Node2 -->
<g id="node2" class="node"><title>Node2</title>
<g id="a_node2"><a xlink:href="../../d9/d96/classapplication_1_1_main.html#ab76c73fb61a4961ceff4e8ec3480b847" target="_top" xlink:title="application.Main.createExit\lButton">
<polygon fill="white" stroke="black" points="172.5,-67 172.5,-97 317.5,-97 317.5,-67 172.5,-67"/>
<text text-anchor="start" x="180.5" y="-85" font-family="Helvetica,sans-Serif" font-size="10.00">application.Main.createExit</text>
<text text-anchor="middle" x="245" y="-74" font-family="Helvetica,sans-Serif" font-size="10.00">Button</text>
</a>
</g>
</g>
<!-- Node1&#45;&gt;Node2 -->
<g id="edge1" class="edge"><title>Node1&#45;&gt;Node2</title>
<path fill="none" stroke="midnightblue" d="M145.875,-82C154.652,-82 163.574,-82 172.28,-82"/>
<polygon fill="midnightblue" stroke="midnightblue" points="145.659,-78.5001 135.659,-82 145.659,-85.5001 145.659,-78.5001"/>
</g>
<!-- Node3 -->
<g id="node3" class="node"><title>Node3</title>
<g id="a_node3"><a xlink:href="../../d9/d96/classapplication_1_1_main.html#a5fee6c1b05965eca9205a99e3245a5fb" target="_top" xlink:title="application.Main.populate\lStartPageModules">
<polygon fill="white" stroke="black" points="354.5,-67 354.5,-97 493.5,-97 493.5,-67 354.5,-67"/>
<text text-anchor="start" x="362.5" y="-85" font-family="Helvetica,sans-Serif" font-size="10.00">application.Main.populate</text>
<text text-anchor="middle" x="424" y="-74" font-family="Helvetica,sans-Serif" font-size="10.00">StartPageModules</text>
</a>
</g>
</g>
<!-- Node2&#45;&gt;Node3 -->
<g id="edge2" class="edge"><title>Node2&#45;&gt;Node3</title>
<path fill="none" stroke="midnightblue" d="M328.007,-82C336.806,-82 345.692,-82 354.313,-82"/>
<polygon fill="midnightblue" stroke="midnightblue" points="327.738,-78.5001 317.738,-82 327.737,-85.5001 327.738,-78.5001"/>
</g>
<!-- Node7 -->
<g id="node7" class="node"><title>Node7</title>
<g id="a_node7"><a xlink:href="../../d9/d96/classapplication_1_1_main.html#a2ddf30fb8360296e1ad3459fe6f920fb" target="_top" xlink:title="application.Main.populate\lGridPageModules">
<polygon fill="white" stroke="black" points="1052.5,-155 1052.5,-185 1191.5,-185 1191.5,-155 1052.5,-155"/>
<text text-anchor="start" x="1060.5" y="-173" font-family="Helvetica,sans-Serif" font-size="10.00">application.Main.populate</text>
<text text-anchor="middle" x="1122" y="-162" font-family="Helvetica,sans-Serif" font-size="10.00">GridPageModules</text>
</a>
</g>
</g>
<!-- Node2&#45;&gt;Node7 -->
<g id="edge16" class="edge"><title>Node2&#45;&gt;Node7</title>
<path fill="none" stroke="midnightblue" d="M291.333,-100.719C356.151,-125.747 479.586,-167 589,-167 589,-167 589,-167 755,-167 858.576,-167 978.635,-168.216 1052.2,-169.1"/>
<polygon fill="midnightblue" stroke="midnightblue" points="292.412,-97.3828 281.824,-97.0006 289.863,-103.902 292.412,-97.3828"/>
</g>
<!-- Node11 -->
<g id="node11" class="node"><title>Node11</title>
<g id="a_node11"><a xlink:href="../../d9/d96/classapplication_1_1_main.html#abcabe1a32eb7b5054cf34ca0def07531" target="_top" xlink:title="application.Main.populate\lErrorPageModules">
<polygon fill="white" stroke="black" points="1052.5,-67 1052.5,-97 1191.5,-97 1191.5,-67 1052.5,-67"/>
<text text-anchor="start" x="1060.5" y="-85" font-family="Helvetica,sans-Serif" font-size="10.00">application.Main.populate</text>
<text text-anchor="middle" x="1122" y="-74" font-family="Helvetica,sans-Serif" font-size="10.00">ErrorPageModules</text>
</a>
</g>
</g>
<!-- Node2&#45;&gt;Node11 -->
<g id="edge17" class="edge"><title>Node2&#45;&gt;Node11</title>
<path fill="none" stroke="midnightblue" d="M292.962,-63.3593C358.26,-39.1632 480.679,-0 589,-0 589,-0 589,-0 755,-0 876.117,-0 1014.44,-43.2872 1081.04,-66.9599"/>
<polygon fill="midnightblue" stroke="midnightblue" points="291.5,-60.1696 283.367,-66.9599 293.96,-66.7233 291.5,-60.1696"/>
</g>
<!-- Node4 -->
<g id="node4" class="node"><title>Node4</title>
<g id="a_node4"><a xlink:href="../../d9/d96/classapplication_1_1_main.html#a4e5ad4e3de8bbd8654120180a94e870d" target="_top" xlink:title="application.Main.start">
<polygon fill="white" stroke="black" points="530.5,-72.5 530.5,-91.5 649.5,-91.5 649.5,-72.5 530.5,-72.5"/>
<text text-anchor="middle" x="590" y="-79.5" font-family="Helvetica,sans-Serif" font-size="10.00">application.Main.start</text>
</a>
</g>
</g>
<!-- Node3&#45;&gt;Node4 -->
<g id="edge3" class="edge"><title>Node3&#45;&gt;Node4</title>
<path fill="none" stroke="midnightblue" d="M503.677,-82C512.642,-82 521.661,-82 530.302,-82"/>
<polygon fill="midnightblue" stroke="midnightblue" points="503.601,-78.5001 493.601,-82 503.6,-85.5001 503.601,-78.5001"/>
</g>
<!-- Node5 -->
<g id="node5" class="node"><title>Node5</title>
<g id="a_node5"><a xlink:href="../../d9/d96/classapplication_1_1_main.html#ad652e3294ffb6519b18d784d5831c76a" target="_top" xlink:title="application.Main.activate\lReturntoStart">
<polygon fill="white" stroke="black" points="686.5,-67 686.5,-97 821.5,-97 821.5,-67 686.5,-67"/>
<text text-anchor="start" x="694.5" y="-85" font-family="Helvetica,sans-Serif" font-size="10.00">application.Main.activate</text>
<text text-anchor="middle" x="754" y="-74" font-family="Helvetica,sans-Serif" font-size="10.00">ReturntoStart</text>
</a>
</g>
</g>
<!-- Node4&#45;&gt;Node5 -->
<g id="edge4" class="edge"><title>Node4&#45;&gt;Node5</title>
<path fill="none" stroke="midnightblue" d="M660.08,-82C668.81,-82 677.729,-82 686.419,-82"/>
<polygon fill="midnightblue" stroke="midnightblue" points="659.944,-78.5001 649.944,-82 659.944,-85.5001 659.944,-78.5001"/>
</g>
<!-- Node6 -->
<g id="node6" class="node"><title>Node6</title>
<g id="a_node6"><a xlink:href="../../d9/d96/classapplication_1_1_main.html#a4c5877fafc53c4fae488f1f30faf294b" target="_top" xlink:title="application.Main.createReturn\lToStartButton">
<polygon fill="white" stroke="black" points="858,-67 858,-97 1016,-97 1016,-67 858,-67"/>
<text text-anchor="start" x="866" y="-85" font-family="Helvetica,sans-Serif" font-size="10.00">application.Main.createReturn</text>
<text text-anchor="middle" x="937" y="-74" font-family="Helvetica,sans-Serif" font-size="10.00">ToStartButton</text>
</a>
</g>
</g>
<!-- Node5&#45;&gt;Node6 -->
<g id="edge5" class="edge"><title>Node5&#45;&gt;Node6</title>
<path fill="none" stroke="midnightblue" d="M831.696,-82C840.358,-82 849.193,-82 857.873,-82"/>
<polygon fill="midnightblue" stroke="midnightblue" points="831.627,-78.5001 821.627,-82 831.627,-85.5001 831.627,-78.5001"/>
</g>
<!-- Node6&#45;&gt;Node7 -->
<g id="edge6" class="edge"><title>Node6&#45;&gt;Node7</title>
<path fill="none" stroke="midnightblue" d="M978.531,-101.49C1012.04,-117.606 1058.95,-140.162 1089.65,-154.923"/>
<polygon fill="midnightblue" stroke="midnightblue" points="979.988,-98.3073 969.459,-97.1277 976.954,-104.616 979.988,-98.3073"/>
</g>
<!-- Node6&#45;&gt;Node11 -->
<g id="edge11" class="edge"><title>Node6&#45;&gt;Node11</title>
<path fill="none" stroke="midnightblue" d="M1026.36,-82C1035.1,-82 1043.87,-82 1052.37,-82"/>
<polygon fill="midnightblue" stroke="midnightblue" points="1026.14,-78.5001 1016.14,-82 1026.14,-85.5001 1026.14,-78.5001"/>
</g>
<!-- Node8 -->
<g id="node8" class="node"><title>Node8</title>
<g id="a_node8"><a xlink:href="../../d9/d96/classapplication_1_1_main.html#adc868cfca1990edad66af3dcb8cf4349" target="_top" xlink:title="application.Main.playGame">
<polygon fill="white" stroke="black" points="1228,-160.5 1228,-179.5 1374,-179.5 1374,-160.5 1228,-160.5"/>
<text text-anchor="middle" x="1301" y="-167.5" font-family="Helvetica,sans-Serif" font-size="10.00">application.Main.playGame</text>
</a>
</g>
</g>
<!-- Node7&#45;&gt;Node8 -->
<g id="edge7" class="edge"><title>Node7&#45;&gt;Node8</title>
<path fill="none" stroke="midnightblue" d="M1201.79,-170C1210.46,-170 1219.26,-170 1227.84,-170"/>
<polygon fill="midnightblue" stroke="midnightblue" points="1201.69,-166.5 1191.69,-170 1201.69,-173.5 1201.69,-166.5"/>
</g>
<!-- Node9 -->
<g id="node9" class="node"><title>Node9</title>
<g id="a_node9"><a xlink:href="../../d9/d96/classapplication_1_1_main.html#ada0f47786d75e28e627d2621d75eaf5a" target="_top" xlink:title="application.Main.activate\lStartButton">
<polygon fill="white" stroke="black" points="1410.5,-155 1410.5,-185 1545.5,-185 1545.5,-155 1410.5,-155"/>
<text text-anchor="start" x="1418.5" y="-173" font-family="Helvetica,sans-Serif" font-size="10.00">application.Main.activate</text>
<text text-anchor="middle" x="1478" y="-162" font-family="Helvetica,sans-Serif" font-size="10.00">StartButton</text>
</a>
</g>
</g>
<!-- Node8&#45;&gt;Node9 -->
<g id="edge8" class="edge"><title>Node8&#45;&gt;Node9</title>
<path fill="none" stroke="midnightblue" d="M1384.35,-170C1393.05,-170 1401.82,-170 1410.31,-170"/>
<polygon fill="midnightblue" stroke="midnightblue" points="1384.19,-166.5 1374.19,-170 1384.19,-173.5 1384.19,-166.5"/>
</g>
<!-- Node10 -->
<g id="node10" class="node"><title>Node10</title>
<g id="a_node10"><a xlink:href="../../d9/d96/classapplication_1_1_main.html#a64e6451d894979853890a235efe37db8" target="_top" xlink:title="application.Main.createStart\lGameButton">
<polygon fill="white" stroke="black" points="1586,-123 1586,-153 1738,-153 1738,-123 1586,-123"/>
<text text-anchor="start" x="1594" y="-141" font-family="Helvetica,sans-Serif" font-size="10.00">application.Main.createStart</text>
<text text-anchor="middle" x="1662" y="-130" font-family="Helvetica,sans-Serif" font-size="10.00">GameButton</text>
</a>
</g>
</g>
<!-- Node9&#45;&gt;Node10 -->
<g id="edge9" class="edge"><title>Node9&#45;&gt;Node10</title>
<path fill="none" stroke="midnightblue" d="M1555.67,-156.52C1565.7,-154.756 1575.97,-152.951 1585.97,-151.192"/>
<polygon fill="midnightblue" stroke="midnightblue" points="1554.98,-153.087 1545.74,-158.266 1556.19,-159.981 1554.98,-153.087"/>
</g>
<!-- Node10&#45;&gt;Node3 -->
<g id="edge10" class="edge"><title>Node10&#45;&gt;Node3</title>
<path fill="none" stroke="midnightblue" d="M1575.7,-133.544C1502.98,-130.13 1395.66,-126 1302,-126 753,-126 753,-126 753,-126 662.796,-126 559.868,-109.451 493.749,-96.6514"/>
<polygon fill="midnightblue" stroke="midnightblue" points="1575.58,-137.042 1585.73,-134.021 1575.91,-130.05 1575.58,-137.042"/>
</g>
<!-- Node12 -->
<g id="node12" class="node"><title>Node12</title>
<g id="a_node12"><a xlink:href="../../d9/d96/classapplication_1_1_main.html#a81e70f73d65beae34c459628791cc5d4" target="_top" xlink:title="application.Main.activate\lErrorPage">
<polygon fill="white" stroke="black" points="1233.5,-67 1233.5,-97 1368.5,-97 1368.5,-67 1233.5,-67"/>
<text text-anchor="start" x="1241.5" y="-85" font-family="Helvetica,sans-Serif" font-size="10.00">application.Main.activate</text>
<text text-anchor="middle" x="1301" y="-74" font-family="Helvetica,sans-Serif" font-size="10.00">ErrorPage</text>
</a>
</g>
</g>
<!-- Node11&#45;&gt;Node12 -->
<g id="edge12" class="edge"><title>Node11&#45;&gt;Node12</title>
<path fill="none" stroke="midnightblue" d="M1201.74,-82C1212.3,-82 1223.06,-82 1233.39,-82"/>
<polygon fill="midnightblue" stroke="midnightblue" points="1201.69,-78.5001 1191.69,-82 1201.69,-85.5001 1201.69,-78.5001"/>
</g>
<!-- Node13 -->
<g id="node13" class="node"><title>Node13</title>
<g id="a_node13"><a xlink:href="../../d9/d96/classapplication_1_1_main.html#aef0593911aa3cbc594ac75bbb8d6a2b0" target="_top" xlink:title="application.Main.activate\lImportXMLButton">
<polygon fill="white" stroke="black" points="1410.5,-67 1410.5,-97 1545.5,-97 1545.5,-67 1410.5,-67"/>
<text text-anchor="start" x="1418.5" y="-85" font-family="Helvetica,sans-Serif" font-size="10.00">application.Main.activate</text>
<text text-anchor="middle" x="1478" y="-74" font-family="Helvetica,sans-Serif" font-size="10.00">ImportXMLButton</text>
</a>
</g>
</g>
<!-- Node12&#45;&gt;Node13 -->
<g id="edge13" class="edge"><title>Node12&#45;&gt;Node13</title>
<path fill="none" stroke="midnightblue" d="M1378.66,-82C1389.18,-82 1399.91,-82 1410.24,-82"/>
<polygon fill="midnightblue" stroke="midnightblue" points="1378.66,-78.5001 1368.66,-82 1378.66,-85.5001 1378.66,-78.5001"/>
</g>
<!-- Node14 -->
<g id="node14" class="node"><title>Node14</title>
<g id="a_node14"><a xlink:href="../../d9/d96/classapplication_1_1_main.html#a18021492af2e457d39edcbd16dc0d3c8" target="_top" xlink:title="application.Main.createImport\lXMLButton">
<polygon fill="white" stroke="black" points="1582.5,-55 1582.5,-85 1741.5,-85 1741.5,-55 1582.5,-55"/>
<text text-anchor="start" x="1590.5" y="-73" font-family="Helvetica,sans-Serif" font-size="10.00">application.Main.createImport</text>
<text text-anchor="middle" x="1662" y="-62" font-family="Helvetica,sans-Serif" font-size="10.00">XMLButton</text>
</a>
</g>
</g>
<!-- Node13&#45;&gt;Node14 -->
<g id="edge14" class="edge"><title>Node13&#45;&gt;Node14</title>
<path fill="none" stroke="midnightblue" d="M1555.87,-76.9315C1564.59,-76.3565 1573.49,-75.7698 1582.24,-75.1932"/>
<polygon fill="midnightblue" stroke="midnightblue" points="1555.48,-73.4494 1545.74,-77.5998 1555.95,-80.4342 1555.48,-73.4494"/>
</g>
<!-- Node14&#45;&gt;Node3 -->
<g id="edge15" class="edge"><title>Node14&#45;&gt;Node3</title>
<path fill="none" stroke="midnightblue" d="M1572.38,-57.6826C1499.84,-48.6662 1394.48,-38 1302,-38 753,-38 753,-38 753,-38 662.796,-38 559.868,-54.549 493.749,-67.3486"/>
<polygon fill="midnightblue" stroke="midnightblue" points="1572.03,-61.1666 1582.39,-58.9426 1572.91,-54.2214 1572.03,-61.1666"/>
</g>
</g>
</svg>
        <g id="navigator" transform="translate(0 0)" fill="#404254">
                <rect fill="#f2f5e9" fill-opacity="0.5" stroke="#606060" stroke-width=".5" x="0" y="0" width="60" height="60"/>
                <use id="zoomplus" xlink:href="#zoomPlus" x="17" y="9" onmousedown="handleZoom(evt,'in')"/>
                <use id="zoomminus" xlink:href="#zoomMin" x="42" y="9" onmousedown="handleZoom(evt,'out')"/>
                <use id="reset" xlink:href="#resetDef" x="30" y="36" onmousedown="handleReset()"/>
                <g id="arrowUp" xlink:href="#dirArrow" transform="translate(30 24)" onmousedown="handlePan(0,-1)">
                  <use xlink:href="#rim" fill="#404040">
                        <set attributeName="fill" to="#808080" begin="arrowUp.mouseover" end="arrowUp.mouseout"/>
                  </use>
                  <path fill="none" stroke="white" stroke-width="1.5" d="M0,-3.0v7 M-2.5,-0.5L0,-3.0L2.5,-0.5"/>
                </g>
                <g id="arrowRight" xlink:href="#dirArrow" transform="rotate(90) translate(36 -43)" onmousedown="handlePan(1,0)">
                  <use xlink:href="#rim" fill="#404040">
                        <set attributeName="fill" to="#808080" begin="arrowRight.mouseover" end="arrowRight.mouseout"/>
                  </use>
                  <path fill="none" stroke="white" stroke-width="1.5" d="M0,-3.0v7 M-2.5,-0.5L0,-3.0L2.5,-0.5"/>
                </g>
                <g id="arrowDown" xlink:href="#dirArrow" transform="rotate(180) translate(-30 -48)" onmousedown="handlePan(0,1)">
                  <use xlink:href="#rim" fill="#404040">
                        <set attributeName="fill" to="#808080" begin="arrowDown.mouseover" end="arrowDown.mouseout"/>
                  </use>
                  <path fill="none" stroke="white" stroke-width="1.5" d="M0,-3.0v7 M-2.5,-0.5L0,-3.0L2.5,-0.5"/>
                </g>
                <g id="arrowLeft" xlink:href="#dirArrow" transform="rotate(270) translate(-36 17)" onmousedown="handlePan(-1,0)">
                  <use xlink:href="#rim" fill="#404040">
                        <set attributeName="fill" to="#808080" begin="arrowLeft.mouseover" end="arrowLeft.mouseout"/>
                  </use>
                  <path fill="none" stroke="white" stroke-width="1.5" d="M0,-3.0v7 M-2.5,-0.5L0,-3.0L2.5,-0.5"/>
                </g>
        </g>
        <svg viewBox="0 0 15 15" width="100%" height="30px" preserveAspectRatio="xMaxYMin meet">
         <g id="arrow_out" transform="scale(0.3 0.3)">
          <a xlink:href="classapplication_1_1_main_a8c60a425d03bb92fd75e05f3033a09a7_icgraph_org.svg" target="_base">
           <rect id="button" ry="5" rx="5" y="6" x="6" height="38" width="38"
                fill="#f2f5e9" fill-opacity="0.5" stroke="#606060" stroke-width="1.0"/>
           <path id="arrow"
             d="M 11.500037,31.436501 C 11.940474,20.09759 22.043105,11.32322 32.158766,21.979434 L 37.068811,17.246167 C 37.068811,17.246167 37.088388,32 37.088388,32 L 22.160133,31.978069 C 22.160133,31.978069 26.997745,27.140456 26.997745,27.140456 C 18.528582,18.264221 13.291696,25.230495 11.500037,31.436501 z"
             style="fill:#404040;"/>
          </a>
         </g>
        </svg>
</svg>
