<?xml version="1.0" encoding="UTF-8" standalone="no"?>
<!DOCTYPE svg PUBLIC "-//W3C//DTD SVG 1.1//EN"
 "http://www.w3.org/Graphics/SVG/1.1/DTD/svg11.dtd">
<!-- Generated by graphviz version 2.36.0 (20140111.2315)
 -->
<!-- Title: application.Main.createLabel Pages: 1 -->
<!--zoomable 197 -->
<svg id="main" version="1.1" xmlns="http://www.w3.org/2000/svg" xmlns:xlink="http://www.w3.org/1999/xlink" xml:space="preserve" onload="init(evt)">
<style type="text/css"><![CDATA[
.edge:hover path { stroke: red; }
.edge:hover polygon { stroke: red; fill: red; }
]]></style>
<script type="text/javascript"><![CDATA[
var edges = document.getElementsByTagName('g');
if (edges && edges.length) {
  for (var i=0;i<edges.length;i++) {
    if (edges[i].id.substr(0,4)=='edge') {
      edges[i].setAttribute('class','edge');
    }
  }
}
]]></script>
        <defs>
                <circle id="rim" cx="0" cy="0" r="7"/>
                <circle id="rim2" cx="0" cy="0" r="3.5"/>
                <g id="zoomPlus">
                        <use xlink:href="#rim" fill="#404040">
                                <set attributeName="fill" to="#808080" begin="zoomplus.mouseover" end="zoomplus.mouseout"/>
                        </use>
                        <path d="M-4,0h8M0,-4v8" fill="none" stroke="white" stroke-width="1.5" pointer-events="none"/>
                </g>
                <g id="zoomMin">
                        <use xlink:href="#rim" fill="#404040">
                                <set attributeName="fill" to="#808080" begin="zoomminus.mouseover" end="zoomminus.mouseout"/>
                        </use>
                        <path d="M-4,0h8" fill="none" stroke="white" stroke-width="1.5" pointer-events="none"/>
                </g>
                <g id="dirArrow">
                        <path fill="none" stroke="white" stroke-width="1.5" d="M0,-3.0v7 M-2.5,-0.5L0,-3.0L2.5,-0.5"/>
                </g>
               <g id="resetDef">
                       <use xlink:href="#rim2" fill="#404040">
                               <set attributeName="fill" to="#808080" begin="reset.mouseover" end="reset.mouseout"/>
                       </use>
               </g>
        </defs>

<script type="text/javascript">
var viewWidth = 2532;
var viewHeight = 197;
var sectionId = 'dynsection-24';
</script>
<script xlink:href="../../svgpan.js"/>
<svg id="graph" class="graph">
<g id="viewport">
<title>application.Main.createLabel</title>
<polygon fill="white" stroke="none" points="-4,4 -4,-193 2528,-193 2528,4 -4,4"/>
<!-- Node1 -->
<g id="node1" class="node"><title>Node1</title>
<polygon fill="#bfbfbf" stroke="black" points="0.5,-73.5 0.5,-92.5 153.5,-92.5 153.5,-73.5 0.5,-73.5"/>
<text text-anchor="middle" x="77" y="-80.5" font-family="Helvetica,sans-Serif" font-size="10.00">application.Main.createLabel</text>
</g>
<!-- Node2 -->
<g id="node2" class="node"><title>Node2</title>
<g id="a_node2"><a xlink:href="../../d9/d96/classapplication_1_1_main.html#a7f3e4f502bb30a1123943c11cd45ca64" target="_top" xlink:title="application.Main.createError\lMessage">
<polygon fill="white" stroke="black" points="190.5,-91 190.5,-121 341.5,-121 341.5,-91 190.5,-91"/>
<text text-anchor="start" x="198.5" y="-109" font-family="Helvetica,sans-Serif" font-size="10.00">application.Main.createError</text>
<text text-anchor="middle" x="266" y="-98" font-family="Helvetica,sans-Serif" font-size="10.00">Message</text>
</a>
</g>
</g>
<!-- Node1&#45;&gt;Node2 -->
<g id="edge1" class="edge"><title>Node1&#45;&gt;Node2</title>
<path fill="none" stroke="midnightblue" d="M163.576,-93.5254C172.535,-94.6273 181.591,-95.7411 190.413,-96.8261"/>
<polygon fill="midnightblue" stroke="midnightblue" points="163.874,-90.0357 153.521,-92.2887 163.019,-96.9833 163.874,-90.0357"/>
</g>
<!-- Node15 -->
<g id="node15" class="node"><title>Node15</title>
<g id="a_node15"><a xlink:href="../../d9/d96/classapplication_1_1_main.html#a80481e639727a226d31e49db4edda932" target="_top" xlink:title="application.Main.createName\lLabel">
<polygon fill="white" stroke="black" points="570.5,-0 570.5,-30 727.5,-30 727.5,-0 570.5,-0"/>
<text text-anchor="start" x="578.5" y="-18" font-family="Helvetica,sans-Serif" font-size="10.00">application.Main.createName</text>
<text text-anchor="middle" x="649" y="-7" font-family="Helvetica,sans-Serif" font-size="10.00">Label</text>
</a>
</g>
</g>
<!-- Node1&#45;&gt;Node15 -->
<g id="edge16" class="edge"><title>Node1&#45;&gt;Node15</title>
<path fill="none" stroke="midnightblue" d="M110.669,-69.7863C132.702,-61.4807 162.639,-51.3565 190,-46 321.786,-20.2002 478.508,-14.9332 570.246,-14.3468"/>
<polygon fill="midnightblue" stroke="midnightblue" points="109.216,-66.5949 101.139,-73.4508 111.729,-73.1285 109.216,-66.5949"/>
</g>
<!-- Node16 -->
<g id="node16" class="node"><title>Node16</title>
<g id="a_node16"><a xlink:href="../../d9/d96/classapplication_1_1_main.html#a65ca5d86fc034db71cc266600133e7da" target="_top" xlink:title="application.Main.createSlider\lLabel">
<polygon fill="white" stroke="black" points="378.5,-157 378.5,-187 533.5,-187 533.5,-157 378.5,-157"/>
<text text-anchor="start" x="386.5" y="-175" font-family="Helvetica,sans-Serif" font-size="10.00">application.Main.createSlider</text>
<text text-anchor="middle" x="456" y="-164" font-family="Helvetica,sans-Serif" font-size="10.00">Label</text>
</a>
</g>
</g>
<!-- Node1&#45;&gt;Node16 -->
<g id="edge18" class="edge"><title>Node1&#45;&gt;Node16</title>
<path fill="none" stroke="midnightblue" d="M106.105,-97.0226C128.357,-107.573 160.495,-121.604 190,-130 252.163,-147.691 324.788,-158.543 378.273,-164.772"/>
<polygon fill="midnightblue" stroke="midnightblue" points="107.445,-93.7832 96.9169,-92.5971 104.408,-100.09 107.445,-93.7832"/>
</g>
<!-- Node17 -->
<g id="node17" class="node"><title>Node17</title>
<g id="a_node17"><a xlink:href="../../d9/d96/classapplication_1_1_main.html#af3623490416bce971d1b168120292339" target="_top" xlink:title="application.Main.createTitle\lLabel">
<polygon fill="white" stroke="black" points="764.5,-43 764.5,-73 911.5,-73 911.5,-43 764.5,-43"/>
<text text-anchor="start" x="772.5" y="-61" font-family="Helvetica,sans-Serif" font-size="10.00">application.Main.createTitle</text>
<text text-anchor="middle" x="838" y="-50" font-family="Helvetica,sans-Serif" font-size="10.00">Label</text>
</a>
</g>
</g>
<!-- Node1&#45;&gt;Node17 -->
<g id="edge20" class="edge"><title>Node1&#45;&gt;Node17</title>
<path fill="none" stroke="midnightblue" d="M163.67,-80.1782C314.18,-75.2207 623.435,-65.0344 764.264,-60.3958"/>
<polygon fill="midnightblue" stroke="midnightblue" points="163.43,-76.6841 153.551,-80.5115 163.661,-83.6803 163.43,-76.6841"/>
</g>
<!-- Node3 -->
<g id="node3" class="node"><title>Node3</title>
<g id="a_node3"><a xlink:href="../../d9/d96/classapplication_1_1_main.html#abcabe1a32eb7b5054cf34ca0def07531" target="_top" xlink:title="application.Main.populate\lErrorPageModules">
<polygon fill="white" stroke="black" points="386.5,-92 386.5,-122 525.5,-122 525.5,-92 386.5,-92"/>
<text text-anchor="start" x="394.5" y="-110" font-family="Helvetica,sans-Serif" font-size="10.00">application.Main.populate</text>
<text text-anchor="middle" x="456" y="-99" font-family="Helvetica,sans-Serif" font-size="10.00">ErrorPageModules</text>
</a>
</g>
</g>
<!-- Node2&#45;&gt;Node3 -->
<g id="edge2" class="edge"><title>Node2&#45;&gt;Node3</title>
<path fill="none" stroke="midnightblue" d="M351.691,-106.45C363.282,-106.512 375.064,-106.575 386.321,-106.635"/>
<polygon fill="midnightblue" stroke="midnightblue" points="351.591,-102.95 341.573,-106.397 351.554,-109.95 351.591,-102.95"/>
</g>
<!-- Node4 -->
<g id="node4" class="node"><title>Node4</title>
<g id="a_node4"><a xlink:href="../../d9/d96/classapplication_1_1_main.html#a81e70f73d65beae34c459628791cc5d4" target="_top" xlink:title="application.Main.activate\lErrorPage">
<polygon fill="white" stroke="black" points="581.5,-92 581.5,-122 716.5,-122 716.5,-92 581.5,-92"/>
<text text-anchor="start" x="589.5" y="-110" font-family="Helvetica,sans-Serif" font-size="10.00">application.Main.activate</text>
<text text-anchor="middle" x="649" y="-99" font-family="Helvetica,sans-Serif" font-size="10.00">ErrorPage</text>
</a>
</g>
</g>
<!-- Node3&#45;&gt;Node4 -->
<g id="edge3" class="edge"><title>Node3&#45;&gt;Node4</title>
<path fill="none" stroke="midnightblue" d="M535.98,-107C551.008,-107 566.599,-107 581.202,-107"/>
<polygon fill="midnightblue" stroke="midnightblue" points="535.686,-103.5 525.686,-107 535.686,-110.5 535.686,-103.5"/>
</g>
<!-- Node5 -->
<g id="node5" class="node"><title>Node5</title>
<g id="a_node5"><a xlink:href="../../d9/d96/classapplication_1_1_main.html#aef0593911aa3cbc594ac75bbb8d6a2b0" target="_top" xlink:title="application.Main.activate\lImportXMLButton">
<polygon fill="white" stroke="black" points="770.5,-92 770.5,-122 905.5,-122 905.5,-92 770.5,-92"/>
<text text-anchor="start" x="778.5" y="-110" font-family="Helvetica,sans-Serif" font-size="10.00">application.Main.activate</text>
<text text-anchor="middle" x="838" y="-99" font-family="Helvetica,sans-Serif" font-size="10.00">ImportXMLButton</text>
</a>
</g>
</g>
<!-- Node4&#45;&gt;Node5 -->
<g id="edge4" class="edge"><title>Node4&#45;&gt;Node5</title>
<path fill="none" stroke="midnightblue" d="M727.056,-107C741.409,-107 756.296,-107 770.306,-107"/>
<polygon fill="midnightblue" stroke="midnightblue" points="726.719,-103.5 716.719,-107 726.719,-110.5 726.719,-103.5"/>
</g>
<!-- Node6 -->
<g id="node6" class="node"><title>Node6</title>
<g id="a_node6"><a xlink:href="../../d9/d96/classapplication_1_1_main.html#a18021492af2e457d39edcbd16dc0d3c8" target="_top" xlink:title="application.Main.createImport\lXMLButton">
<polygon fill="white" stroke="black" points="948.5,-91 948.5,-121 1107.5,-121 1107.5,-91 948.5,-91"/>
<text text-anchor="start" x="956.5" y="-109" font-family="Helvetica,sans-Serif" font-size="10.00">application.Main.createImport</text>
<text text-anchor="middle" x="1028" y="-98" font-family="Helvetica,sans-Serif" font-size="10.00">XMLButton</text>
</a>
</g>
</g>
<!-- Node5&#45;&gt;Node6 -->
<g id="edge5" class="edge"><title>Node5&#45;&gt;Node6</title>
<path fill="none" stroke="midnightblue" d="M915.734,-106.592C926.479,-106.535 937.536,-106.476 948.317,-106.419"/>
<polygon fill="midnightblue" stroke="midnightblue" points="915.528,-103.093 905.546,-106.646 915.565,-110.093 915.528,-103.093"/>
</g>
<!-- Node7 -->
<g id="node7" class="node"><title>Node7</title>
<g id="a_node7"><a xlink:href="../../d9/d96/classapplication_1_1_main.html#a5fee6c1b05965eca9205a99e3245a5fb" target="_top" xlink:title="application.Main.populate\lStartPageModules">
<polygon fill="white" stroke="black" points="1144.5,-48 1144.5,-78 1283.5,-78 1283.5,-48 1144.5,-48"/>
<text text-anchor="start" x="1152.5" y="-66" font-family="Helvetica,sans-Serif" font-size="10.00">application.Main.populate</text>
<text text-anchor="middle" x="1214" y="-55" font-family="Helvetica,sans-Serif" font-size="10.00">StartPageModules</text>
</a>
</g>
</g>
<!-- Node6&#45;&gt;Node7 -->
<g id="edge6" class="edge"><title>Node6&#45;&gt;Node7</title>
<path fill="none" stroke="midnightblue" d="M1103.15,-88.6713C1118.23,-85.1471 1133.98,-81.4674 1148.68,-78.0308"/>
<polygon fill="midnightblue" stroke="midnightblue" points="1102.3,-85.2768 1093.35,-90.9607 1103.89,-92.0931 1102.3,-85.2768"/>
</g>
<!-- Node8 -->
<g id="node8" class="node"><title>Node8</title>
<g id="a_node8"><a xlink:href="../../d9/d96/classapplication_1_1_main.html#a4e5ad4e3de8bbd8654120180a94e870d" target="_top" xlink:title="application.Main.start">
<polygon fill="white" stroke="black" points="1320.5,-94.5 1320.5,-113.5 1439.5,-113.5 1439.5,-94.5 1320.5,-94.5"/>
<text text-anchor="middle" x="1380" y="-101.5" font-family="Helvetica,sans-Serif" font-size="10.00">application.Main.start</text>
</a>
</g>
</g>
<!-- Node7&#45;&gt;Node8 -->
<g id="edge7" class="edge"><title>Node7&#45;&gt;Node8</title>
<path fill="none" stroke="midnightblue" d="M1285.03,-80.5082C1304.16,-85.2889 1324.17,-90.2914 1340.78,-94.4455"/>
<polygon fill="midnightblue" stroke="midnightblue" points="1285.69,-77.064 1275.14,-78.0341 1283.99,-83.855 1285.69,-77.064"/>
</g>
<!-- Node9 -->
<g id="node9" class="node"><title>Node9</title>
<g id="a_node9"><a xlink:href="../../d9/d96/classapplication_1_1_main.html#ad652e3294ffb6519b18d784d5831c76a" target="_top" xlink:title="application.Main.activate\lReturntoStart">
<polygon fill="white" stroke="black" points="1476.5,-92 1476.5,-122 1611.5,-122 1611.5,-92 1476.5,-92"/>
<text text-anchor="start" x="1484.5" y="-110" font-family="Helvetica,sans-Serif" font-size="10.00">application.Main.activate</text>
<text text-anchor="middle" x="1544" y="-99" font-family="Helvetica,sans-Serif" font-size="10.00">ReturntoStart</text>
</a>
</g>
</g>
<!-- Node8&#45;&gt;Node9 -->
<g id="edge8" class="edge"><title>Node8&#45;&gt;Node9</title>
<path fill="none" stroke="midnightblue" d="M1450.08,-105.279C1458.81,-105.441 1467.73,-105.606 1476.42,-105.767"/>
<polygon fill="midnightblue" stroke="midnightblue" points="1450.01,-101.777 1439.94,-105.092 1449.88,-108.776 1450.01,-101.777"/>
</g>
<!-- Node10 -->
<g id="node10" class="node"><title>Node10</title>
<g id="a_node10"><a xlink:href="../../d9/d96/classapplication_1_1_main.html#a4c5877fafc53c4fae488f1f30faf294b" target="_top" xlink:title="application.Main.createReturn\lToStartButton">
<polygon fill="white" stroke="black" points="1648,-125 1648,-155 1806,-155 1806,-125 1648,-125"/>
<text text-anchor="start" x="1656" y="-143" font-family="Helvetica,sans-Serif" font-size="10.00">application.Main.createReturn</text>
<text text-anchor="middle" x="1727" y="-132" font-family="Helvetica,sans-Serif" font-size="10.00">ToStartButton</text>
</a>
</g>
</g>
<!-- Node9&#45;&gt;Node10 -->
<g id="edge9" class="edge"><title>Node9&#45;&gt;Node10</title>
<path fill="none" stroke="midnightblue" d="M1621.7,-120.983C1630.36,-122.562 1639.19,-124.173 1647.87,-125.756"/>
<polygon fill="midnightblue" stroke="midnightblue" points="1622.09,-117.498 1611.63,-119.147 1620.84,-124.384 1622.09,-117.498"/>
</g>
<!-- Node10&#45;&gt;Node3 -->
<g id="edge15" class="edge"><title>Node10&#45;&gt;Node3</title>
<path fill="none" stroke="midnightblue" d="M1637.86,-144.358C1568.17,-147.431 1468.39,-151 1381,-151 837,-151 837,-151 837,-151 718.001,-151 687.801,-147.844 570,-131 553.819,-128.686 536.488,-125.413 520.379,-122.026"/>
<polygon fill="midnightblue" stroke="midnightblue" points="1638.09,-147.852 1647.92,-143.909 1637.78,-140.859 1638.09,-147.852"/>
</g>
<!-- Node11 -->
<g id="node11" class="node"><title>Node11</title>
<g id="a_node11"><a xlink:href="../../d9/d96/classapplication_1_1_main.html#a2ddf30fb8360296e1ad3459fe6f920fb" target="_top" xlink:title="application.Main.populate\lGridPageModules">
<polygon fill="white" stroke="black" points="1842.5,-125 1842.5,-155 1981.5,-155 1981.5,-125 1842.5,-125"/>
<text text-anchor="start" x="1850.5" y="-143" font-family="Helvetica,sans-Serif" font-size="10.00">application.Main.populate</text>
<text text-anchor="middle" x="1912" y="-132" font-family="Helvetica,sans-Serif" font-size="10.00">GridPageModules</text>
</a>
</g>
</g>
<!-- Node10&#45;&gt;Node11 -->
<g id="edge10" class="edge"><title>Node10&#45;&gt;Node11</title>
<path fill="none" stroke="midnightblue" d="M1816.36,-140C1825.1,-140 1833.87,-140 1842.37,-140"/>
<polygon fill="midnightblue" stroke="midnightblue" points="1816.14,-136.5 1806.14,-140 1816.14,-143.5 1816.14,-136.5"/>
</g>
<!-- Node12 -->
<g id="node12" class="node"><title>Node12</title>
<g id="a_node12"><a xlink:href="../../d9/d96/classapplication_1_1_main.html#adc868cfca1990edad66af3dcb8cf4349" target="_top" xlink:title="application.Main.playGame">
<polygon fill="white" stroke="black" points="2018,-111.5 2018,-130.5 2164,-130.5 2164,-111.5 2018,-111.5"/>
<text text-anchor="middle" x="2091" y="-118.5" font-family="Helvetica,sans-Serif" font-size="10.00">application.Main.playGame</text>
</a>
</g>
</g>
<!-- Node11&#45;&gt;Node12 -->
<g id="edge11" class="edge"><title>Node11&#45;&gt;Node12</title>
<path fill="none" stroke="midnightblue" d="M1991.79,-131.543C2000.46,-130.612 2009.26,-129.667 2017.84,-128.746"/>
<polygon fill="midnightblue" stroke="midnightblue" points="1991.26,-128.079 1981.69,-132.627 1992,-135.04 1991.26,-128.079"/>
</g>
<!-- Node13 -->
<g id="node13" class="node"><title>Node13</title>
<g id="a_node13"><a xlink:href="../../d9/d96/classapplication_1_1_main.html#ada0f47786d75e28e627d2621d75eaf5a" target="_top" xlink:title="application.Main.activate\lStartButton">
<polygon fill="white" stroke="black" points="2200.5,-97 2200.5,-127 2335.5,-127 2335.5,-97 2200.5,-97"/>
<text text-anchor="start" x="2208.5" y="-115" font-family="Helvetica,sans-Serif" font-size="10.00">application.Main.activate</text>
<text text-anchor="middle" x="2268" y="-104" font-family="Helvetica,sans-Serif" font-size="10.00">StartButton</text>
</a>
</g>
</g>
<!-- Node12&#45;&gt;Node13 -->
<g id="edge12" class="edge"><title>Node12&#45;&gt;Node13</title>
<path fill="none" stroke="midnightblue" d="M2174.35,-116.765C2183.05,-116.317 2191.82,-115.866 2200.31,-115.43"/>
<polygon fill="midnightblue" stroke="midnightblue" points="2174,-113.278 2164.19,-117.287 2174.36,-120.269 2174,-113.278"/>
</g>
<!-- Node14 -->
<g id="node14" class="node"><title>Node14</title>
<g id="a_node14"><a xlink:href="../../d9/d96/classapplication_1_1_main.html#a64e6451d894979853890a235efe37db8" target="_top" xlink:title="application.Main.createStart\lGameButton">
<polygon fill="white" stroke="black" points="2372,-72 2372,-102 2524,-102 2524,-72 2372,-72"/>
<text text-anchor="start" x="2380" y="-90" font-family="Helvetica,sans-Serif" font-size="10.00">application.Main.createStart</text>
<text text-anchor="middle" x="2448" y="-79" font-family="Helvetica,sans-Serif" font-size="10.00">GameButton</text>
</a>
</g>
</g>
<!-- Node13&#45;&gt;Node14 -->
<g id="edge13" class="edge"><title>Node13&#45;&gt;Node14</title>
<path fill="none" stroke="midnightblue" d="M2345.65,-101.235C2354.34,-100.014 2363.2,-98.7702 2371.87,-97.5519"/>
<polygon fill="midnightblue" stroke="midnightblue" points="2344.95,-97.7985 2335.53,-102.655 2345.92,-104.73 2344.95,-97.7985"/>
</g>
<!-- Node14&#45;&gt;Node7 -->
<g id="edge14" class="edge"><title>Node14&#45;&gt;Node7</title>
<path fill="none" stroke="midnightblue" d="M2361.61,-77.9817C2289.77,-71.1742 2184.29,-63 2092,-63 1543,-63 1543,-63 1543,-63 1453.45,-63 1350.16,-63 1283.79,-63"/>
<polygon fill="midnightblue" stroke="midnightblue" points="2361.67,-81.5035 2371.96,-78.975 2362.34,-74.5355 2361.67,-81.5035"/>
</g>
<!-- Node15&#45;&gt;Node7 -->
<g id="edge17" class="edge"><title>Node15&#45;&gt;Node7</title>
<path fill="none" stroke="midnightblue" d="M737.702,-20.3495C788.618,-23.6242 853.967,-28.1156 912,-33 991.805,-39.7167 1083.34,-49.077 1144.32,-55.5477"/>
<polygon fill="midnightblue" stroke="midnightblue" points="737.921,-16.8565 727.718,-19.7111 737.474,-23.8422 737.921,-16.8565"/>
</g>
<!-- Node16&#45;&gt;Node11 -->
<g id="edge19" class="edge"><title>Node16&#45;&gt;Node11</title>
<path fill="none" stroke="midnightblue" d="M543.872,-178.098C620.861,-182.975 736.353,-189 837,-189 837,-189 837,-189 1545,-189 1661.53,-189 1690.96,-182.577 1806,-164 1820.77,-161.615 1836.56,-158.377 1851.29,-155.052"/>
<polygon fill="midnightblue" stroke="midnightblue" points="543.943,-174.596 533.74,-177.449 543.495,-181.581 543.943,-174.596"/>
</g>
<!-- Node17&#45;&gt;Node7 -->
<g id="edge21" class="edge"><title>Node17&#45;&gt;Node7</title>
<path fill="none" stroke="midnightblue" d="M921.641,-59.1048C988.531,-59.9991 1081.63,-61.2437 1144.43,-62.0833"/>
<polygon fill="midnightblue" stroke="midnightblue" points="921.6,-55.6041 911.554,-58.97 921.507,-62.6034 921.6,-55.6041"/>
</g>
</g>
</svg>
        <g id="navigator" transform="translate(0 0)" fill="#404254">
                <rect fill="#f2f5e9" fill-opacity="0.5" stroke="#606060" stroke-width=".5" x="0" y="0" width="60" height="60"/>
                <use id="zoomplus" xlink:href="#zoomPlus" x="17" y="9" onmousedown="handleZoom(evt,'in')"/>
                <use id="zoomminus" xlink:href="#zoomMin" x="42" y="9" onmousedown="handleZoom(evt,'out')"/>
                <use id="reset" xlink:href="#resetDef" x="30" y="36" onmousedown="handleReset()"/>
                <g id="arrowUp" xlink:href="#dirArrow" transform="translate(30 24)" onmousedown="handlePan(0,-1)">
                  <use xlink:href="#rim" fill="#404040">
                        <set attributeName="fill" to="#808080" begin="arrowUp.mouseover" end="arrowUp.mouseout"/>
                  </use>
                  <path fill="none" stroke="white" stroke-width="1.5" d="M0,-3.0v7 M-2.5,-0.5L0,-3.0L2.5,-0.5"/>
                </g>
                <g id="arrowRight" xlink:href="#dirArrow" transform="rotate(90) translate(36 -43)" onmousedown="handlePan(1,0)">
                  <use xlink:href="#rim" fill="#404040">
                        <set attributeName="fill" to="#808080" begin="arrowRight.mouseover" end="arrowRight.mouseout"/>
                  </use>
                  <path fill="none" stroke="white" stroke-width="1.5" d="M0,-3.0v7 M-2.5,-0.5L0,-3.0L2.5,-0.5"/>
                </g>
                <g id="arrowDown" xlink:href="#dirArrow" transform="rotate(180) translate(-30 -48)" onmousedown="handlePan(0,1)">
                  <use xlink:href="#rim" fill="#404040">
                        <set attributeName="fill" to="#808080" begin="arrowDown.mouseover" end="arrowDown.mouseout"/>
                  </use>
                  <path fill="none" stroke="white" stroke-width="1.5" d="M0,-3.0v7 M-2.5,-0.5L0,-3.0L2.5,-0.5"/>
                </g>
                <g id="arrowLeft" xlink:href="#dirArrow" transform="rotate(270) translate(-36 17)" onmousedown="handlePan(-1,0)">
                  <use xlink:href="#rim" fill="#404040">
                        <set attributeName="fill" to="#808080" begin="arrowLeft.mouseover" end="arrowLeft.mouseout"/>
                  </use>
                  <path fill="none" stroke="white" stroke-width="1.5" d="M0,-3.0v7 M-2.5,-0.5L0,-3.0L2.5,-0.5"/>
                </g>
        </g>
        <svg viewBox="0 0 15 15" width="100%" height="30px" preserveAspectRatio="xMaxYMin meet">
         <g id="arrow_out" transform="scale(0.3 0.3)">
          <a xlink:href="classapplication_1_1_main_a9dbf9922fba1be1803a8b3031068eca4_icgraph_org.svg" target="_base">
           <rect id="button" ry="5" rx="5" y="6" x="6" height="38" width="38"
                fill="#f2f5e9" fill-opacity="0.5" stroke="#606060" stroke-width="1.0"/>
           <path id="arrow"
             d="M 11.500037,31.436501 C 11.940474,20.09759 22.043105,11.32322 32.158766,21.979434 L 37.068811,17.246167 C 37.068811,17.246167 37.088388,32 37.088388,32 L 22.160133,31.978069 C 22.160133,31.978069 26.997745,27.140456 26.997745,27.140456 C 18.528582,18.264221 13.291696,25.230495 11.500037,31.436501 z"
             style="fill:#404040;"/>
          </a>
         </g>
        </svg>
</svg>
