<?xml version="1.0" encoding="UTF-8" standalone="no"?>
<!DOCTYPE svg PUBLIC "-//W3C//DTD SVG 1.1//EN"
 "http://www.w3.org/Graphics/SVG/1.1/DTD/svg11.dtd">
<!-- Generated by graphviz version 2.36.0 (20140111.2315)
 -->
<!-- Title: application.Main.activateResumeAnimationButton Pages: 1 -->
<svg width="2478pt" height="96pt"
 viewBox="0.00 0.00 2478.00 96.00" xmlns="http://www.w3.org/2000/svg" xmlns:xlink="http://www.w3.org/1999/xlink">
<g id="graph0" class="graph" transform="scale(1 1) rotate(0) translate(4 92)">
<title>application.Main.activateResumeAnimationButton</title>
<polygon fill="white" stroke="none" points="-4,4 -4,-92 2474,-92 2474,4 -4,4"/>
<!-- Node1 -->
<g id="node1" class="node"><title>Node1</title>
<polygon fill="#bfbfbf" stroke="black" points="0,-5 0,-35 136,-35 136,-5 0,-5"/>
<text text-anchor="start" x="8" y="-23" font-family="Helvetica,sans-Serif" font-size="10.00">application.Main.activate</text>
<text text-anchor="middle" x="68" y="-12" font-family="Helvetica,sans-Serif" font-size="10.00">ResumeAnimationButton</text>
</g>
<!-- Node2 -->
<g id="node2" class="node"><title>Node2</title>
<g id="a_node2"><a xlink:href="../../d9/d96/classapplication_1_1_main.html#a728043cf75c818dd15d50b189fcb317d" target="_top" xlink:title="application.Main.createResume\lButton">
<polygon fill="white" stroke="black" points="172,-5 172,-35 338,-35 338,-5 172,-5"/>
<text text-anchor="start" x="180" y="-23" font-family="Helvetica,sans-Serif" font-size="10.00">application.Main.createResume</text>
<text text-anchor="middle" x="255" y="-12" font-family="Helvetica,sans-Serif" font-size="10.00">Button</text>
</a>
</g>
</g>
<!-- Node1&#45;&gt;Node2 -->
<g id="edge1" class="edge"><title>Node1&#45;&gt;Node2</title>
<path fill="none" stroke="midnightblue" d="M146.219,-20C154.642,-20 163.239,-20 171.72,-20"/>
<polygon fill="midnightblue" stroke="midnightblue" points="146.051,-16.5001 136.051,-20 146.051,-23.5001 146.051,-16.5001"/>
</g>
<!-- Node3 -->
<g id="node3" class="node"><title>Node3</title>
<g id="a_node3"><a xlink:href="../../d9/d96/classapplication_1_1_main.html#a2ddf30fb8360296e1ad3459fe6f920fb" target="_top" xlink:title="application.Main.populate\lGridPageModules">
<polygon fill="white" stroke="black" points="374.5,-5 374.5,-35 513.5,-35 513.5,-5 374.5,-5"/>
<text text-anchor="start" x="382.5" y="-23" font-family="Helvetica,sans-Serif" font-size="10.00">application.Main.populate</text>
<text text-anchor="middle" x="444" y="-12" font-family="Helvetica,sans-Serif" font-size="10.00">GridPageModules</text>
</a>
</g>
</g>
<!-- Node2&#45;&gt;Node3 -->
<g id="edge2" class="edge"><title>Node2&#45;&gt;Node3</title>
<path fill="none" stroke="midnightblue" d="M348.045,-20C356.945,-20 365.863,-20 374.476,-20"/>
<polygon fill="midnightblue" stroke="midnightblue" points="348.021,-16.5001 338.021,-20 348.021,-23.5001 348.021,-16.5001"/>
</g>
<!-- Node4 -->
<g id="node4" class="node"><title>Node4</title>
<g id="a_node4"><a xlink:href="../../d9/d96/classapplication_1_1_main.html#adc868cfca1990edad66af3dcb8cf4349" target="_top" xlink:title="application.Main.playGame">
<polygon fill="white" stroke="black" points="550,-31.5 550,-50.5 696,-50.5 696,-31.5 550,-31.5"/>
<text text-anchor="middle" x="623" y="-38.5" font-family="Helvetica,sans-Serif" font-size="10.00">application.Main.playGame</text>
</a>
</g>
</g>
<!-- Node3&#45;&gt;Node4 -->
<g id="edge3" class="edge"><title>Node3&#45;&gt;Node4</title>
<path fill="none" stroke="midnightblue" d="M523.787,-29.3477C532.459,-30.3765 541.256,-31.4202 549.841,-32.4387"/>
<polygon fill="midnightblue" stroke="midnightblue" points="524.029,-25.8518 513.686,-28.1492 523.204,-32.8031 524.029,-25.8518"/>
</g>
<!-- Node5 -->
<g id="node5" class="node"><title>Node5</title>
<g id="a_node5"><a xlink:href="../../d9/d96/classapplication_1_1_main.html#ada0f47786d75e28e627d2621d75eaf5a" target="_top" xlink:title="application.Main.activate\lStartButton">
<polygon fill="white" stroke="black" points="732.5,-29 732.5,-59 867.5,-59 867.5,-29 732.5,-29"/>
<text text-anchor="start" x="740.5" y="-47" font-family="Helvetica,sans-Serif" font-size="10.00">application.Main.activate</text>
<text text-anchor="middle" x="800" y="-36" font-family="Helvetica,sans-Serif" font-size="10.00">StartButton</text>
</a>
</g>
</g>
<!-- Node4&#45;&gt;Node5 -->
<g id="edge4" class="edge"><title>Node4&#45;&gt;Node5</title>
<path fill="none" stroke="midnightblue" d="M706.351,-42.4117C715.052,-42.5609 723.82,-42.7112 732.312,-42.8568"/>
<polygon fill="midnightblue" stroke="midnightblue" points="706.248,-38.9095 696.19,-42.2375 706.128,-45.9085 706.248,-38.9095"/>
</g>
<!-- Node6 -->
<g id="node6" class="node"><title>Node6</title>
<g id="a_node6"><a xlink:href="../../d9/d96/classapplication_1_1_main.html#a64e6451d894979853890a235efe37db8" target="_top" xlink:title="application.Main.createStart\lGameButton">
<polygon fill="white" stroke="black" points="904,-29 904,-59 1056,-59 1056,-29 904,-29"/>
<text text-anchor="start" x="912" y="-47" font-family="Helvetica,sans-Serif" font-size="10.00">application.Main.createStart</text>
<text text-anchor="middle" x="980" y="-36" font-family="Helvetica,sans-Serif" font-size="10.00">GameButton</text>
</a>
</g>
</g>
<!-- Node5&#45;&gt;Node6 -->
<g id="edge5" class="edge"><title>Node5&#45;&gt;Node6</title>
<path fill="none" stroke="midnightblue" d="M877.646,-44C886.341,-44 895.196,-44 903.871,-44"/>
<polygon fill="midnightblue" stroke="midnightblue" points="877.534,-40.5001 867.534,-44 877.534,-47.5001 877.534,-40.5001"/>
</g>
<!-- Node7 -->
<g id="node7" class="node"><title>Node7</title>
<g id="a_node7"><a xlink:href="../../d9/d96/classapplication_1_1_main.html#a5fee6c1b05965eca9205a99e3245a5fb" target="_top" xlink:title="application.Main.populate\lStartPageModules">
<polygon fill="white" stroke="black" points="1092.5,-29 1092.5,-59 1231.5,-59 1231.5,-29 1092.5,-29"/>
<text text-anchor="start" x="1100.5" y="-47" font-family="Helvetica,sans-Serif" font-size="10.00">application.Main.populate</text>
<text text-anchor="middle" x="1162" y="-36" font-family="Helvetica,sans-Serif" font-size="10.00">StartPageModules</text>
</a>
</g>
</g>
<!-- Node6&#45;&gt;Node7 -->
<g id="edge6" class="edge"><title>Node6&#45;&gt;Node7</title>
<path fill="none" stroke="midnightblue" d="M1066.27,-44C1075.04,-44 1083.86,-44 1092.41,-44"/>
<polygon fill="midnightblue" stroke="midnightblue" points="1066.03,-40.5001 1056.03,-44 1066.03,-47.5001 1066.03,-40.5001"/>
</g>
<!-- Node8 -->
<g id="node8" class="node"><title>Node8</title>
<g id="a_node8"><a xlink:href="../../d9/d96/classapplication_1_1_main.html#a4e5ad4e3de8bbd8654120180a94e870d" target="_top" xlink:title="application.Main.start">
<polygon fill="white" stroke="black" points="1268.5,-34.5 1268.5,-53.5 1387.5,-53.5 1387.5,-34.5 1268.5,-34.5"/>
<text text-anchor="middle" x="1328" y="-41.5" font-family="Helvetica,sans-Serif" font-size="10.00">application.Main.start</text>
</a>
</g>
</g>
<!-- Node7&#45;&gt;Node8 -->
<g id="edge7" class="edge"><title>Node7&#45;&gt;Node8</title>
<path fill="none" stroke="midnightblue" d="M1241.68,-44C1250.64,-44 1259.66,-44 1268.3,-44"/>
<polygon fill="midnightblue" stroke="midnightblue" points="1241.6,-40.5001 1231.6,-44 1241.6,-47.5001 1241.6,-40.5001"/>
</g>
<!-- Node9 -->
<g id="node9" class="node"><title>Node9</title>
<g id="a_node9"><a xlink:href="../../d9/d96/classapplication_1_1_main.html#ad652e3294ffb6519b18d784d5831c76a" target="_top" xlink:title="application.Main.activate\lReturntoStart">
<polygon fill="white" stroke="black" points="1424.5,-29 1424.5,-59 1559.5,-59 1559.5,-29 1424.5,-29"/>
<text text-anchor="start" x="1432.5" y="-47" font-family="Helvetica,sans-Serif" font-size="10.00">application.Main.activate</text>
<text text-anchor="middle" x="1492" y="-36" font-family="Helvetica,sans-Serif" font-size="10.00">ReturntoStart</text>
</a>
</g>
</g>
<!-- Node8&#45;&gt;Node9 -->
<g id="edge8" class="edge"><title>Node8&#45;&gt;Node9</title>
<path fill="none" stroke="midnightblue" d="M1398.08,-44C1406.81,-44 1415.73,-44 1424.42,-44"/>
<polygon fill="midnightblue" stroke="midnightblue" points="1397.94,-40.5001 1387.94,-44 1397.94,-47.5001 1397.94,-40.5001"/>
</g>
<!-- Node10 -->
<g id="node10" class="node"><title>Node10</title>
<g id="a_node10"><a xlink:href="../../d9/d96/classapplication_1_1_main.html#a4c5877fafc53c4fae488f1f30faf294b" target="_top" xlink:title="application.Main.createReturn\lToStartButton">
<polygon fill="white" stroke="black" points="1596,-29 1596,-59 1754,-59 1754,-29 1596,-29"/>
<text text-anchor="start" x="1604" y="-47" font-family="Helvetica,sans-Serif" font-size="10.00">application.Main.createReturn</text>
<text text-anchor="middle" x="1675" y="-36" font-family="Helvetica,sans-Serif" font-size="10.00">ToStartButton</text>
</a>
</g>
</g>
<!-- Node9&#45;&gt;Node10 -->
<g id="edge9" class="edge"><title>Node9&#45;&gt;Node10</title>
<path fill="none" stroke="midnightblue" d="M1569.7,-44C1578.36,-44 1587.19,-44 1595.87,-44"/>
<polygon fill="midnightblue" stroke="midnightblue" points="1569.63,-40.5001 1559.63,-44 1569.63,-47.5001 1569.63,-40.5001"/>
</g>
<!-- Node10&#45;&gt;Node3 -->
<g id="edge10" class="edge"><title>Node10&#45;&gt;Node3</title>
<path fill="none" stroke="midnightblue" d="M1602.64,-26.8172C1588.57,-23.8641 1573.87,-21.0812 1560,-19 1458.13,-3.71043 1432.01,-0 1329,-0 799,-0 799,-0 799,-0 699.74,-0 585.074,-7.93505 513.792,-13.8088"/>
<polygon fill="midnightblue" stroke="midnightblue" points="1602.24,-30.3112 1612.75,-28.99 1603.71,-23.4673 1602.24,-30.3112"/>
</g>
<!-- Node11 -->
<g id="node11" class="node"><title>Node11</title>
<g id="a_node11"><a xlink:href="../../d9/d96/classapplication_1_1_main.html#abcabe1a32eb7b5054cf34ca0def07531" target="_top" xlink:title="application.Main.populate\lErrorPageModules">
<polygon fill="white" stroke="black" points="1790.5,-29 1790.5,-59 1929.5,-59 1929.5,-29 1790.5,-29"/>
<text text-anchor="start" x="1798.5" y="-47" font-family="Helvetica,sans-Serif" font-size="10.00">application.Main.populate</text>
<text text-anchor="middle" x="1860" y="-36" font-family="Helvetica,sans-Serif" font-size="10.00">ErrorPageModules</text>
</a>
</g>
</g>
<!-- Node10&#45;&gt;Node11 -->
<g id="edge11" class="edge"><title>Node10&#45;&gt;Node11</title>
<path fill="none" stroke="midnightblue" d="M1764.36,-44C1773.1,-44 1781.87,-44 1790.37,-44"/>
<polygon fill="midnightblue" stroke="midnightblue" points="1764.14,-40.5001 1754.14,-44 1764.14,-47.5001 1764.14,-40.5001"/>
</g>
<!-- Node12 -->
<g id="node12" class="node"><title>Node12</title>
<g id="a_node12"><a xlink:href="../../d9/d96/classapplication_1_1_main.html#a81e70f73d65beae34c459628791cc5d4" target="_top" xlink:title="application.Main.activate\lErrorPage">
<polygon fill="white" stroke="black" points="1966.5,-29 1966.5,-59 2101.5,-59 2101.5,-29 1966.5,-29"/>
<text text-anchor="start" x="1974.5" y="-47" font-family="Helvetica,sans-Serif" font-size="10.00">application.Main.activate</text>
<text text-anchor="middle" x="2034" y="-36" font-family="Helvetica,sans-Serif" font-size="10.00">ErrorPage</text>
</a>
</g>
</g>
<!-- Node11&#45;&gt;Node12 -->
<g id="edge12" class="edge"><title>Node11&#45;&gt;Node12</title>
<path fill="none" stroke="midnightblue" d="M1940.15,-44C1948.88,-44 1957.7,-44 1966.25,-44"/>
<polygon fill="midnightblue" stroke="midnightblue" points="1939.97,-40.5001 1929.97,-44 1939.97,-47.5001 1939.97,-40.5001"/>
</g>
<!-- Node13 -->
<g id="node13" class="node"><title>Node13</title>
<g id="a_node13"><a xlink:href="../../d9/d96/classapplication_1_1_main.html#aef0593911aa3cbc594ac75bbb8d6a2b0" target="_top" xlink:title="application.Main.activate\lImportXMLButton">
<polygon fill="white" stroke="black" points="2138.5,-29 2138.5,-59 2273.5,-59 2273.5,-29 2138.5,-29"/>
<text text-anchor="start" x="2146.5" y="-47" font-family="Helvetica,sans-Serif" font-size="10.00">application.Main.activate</text>
<text text-anchor="middle" x="2206" y="-36" font-family="Helvetica,sans-Serif" font-size="10.00">ImportXMLButton</text>
</a>
</g>
</g>
<!-- Node12&#45;&gt;Node13 -->
<g id="edge13" class="edge"><title>Node12&#45;&gt;Node13</title>
<path fill="none" stroke="midnightblue" d="M2111.72,-44C2120.65,-44 2129.71,-44 2138.49,-44"/>
<polygon fill="midnightblue" stroke="midnightblue" points="2111.7,-40.5001 2101.7,-44 2111.7,-47.5001 2111.7,-40.5001"/>
</g>
<!-- Node14 -->
<g id="node14" class="node"><title>Node14</title>
<g id="a_node14"><a xlink:href="../../d9/d96/classapplication_1_1_main.html#a18021492af2e457d39edcbd16dc0d3c8" target="_top" xlink:title="application.Main.createImport\lXMLButton">
<polygon fill="white" stroke="black" points="2310.5,-51 2310.5,-81 2469.5,-81 2469.5,-51 2310.5,-51"/>
<text text-anchor="start" x="2318.5" y="-69" font-family="Helvetica,sans-Serif" font-size="10.00">application.Main.createImport</text>
<text text-anchor="middle" x="2390" y="-58" font-family="Helvetica,sans-Serif" font-size="10.00">XMLButton</text>
</a>
</g>
</g>
<!-- Node13&#45;&gt;Node14 -->
<g id="edge14" class="edge"><title>Node13&#45;&gt;Node14</title>
<path fill="none" stroke="midnightblue" d="M2283.87,-53.2923C2292.59,-54.3465 2301.49,-55.4221 2310.24,-56.4792"/>
<polygon fill="midnightblue" stroke="midnightblue" points="2284.08,-49.7925 2273.74,-52.0671 2283.24,-56.7419 2284.08,-49.7925"/>
</g>
<!-- Node14&#45;&gt;Node7 -->
<g id="edge15" class="edge"><title>Node14&#45;&gt;Node7</title>
<path fill="none" stroke="midnightblue" d="M2300.03,-74.5964C2228.5,-80.7676 2125.38,-88 2035,-88 1491,-88 1491,-88 1491,-88 1400.8,-88 1297.87,-71.451 1231.75,-58.6514"/>
<polygon fill="midnightblue" stroke="midnightblue" points="2300.69,-78.0519 2310.35,-73.6945 2300.08,-71.0785 2300.69,-78.0519"/>
</g>
</g>
</svg>
