<?xml version="1.0" encoding="UTF-8" standalone="no"?>
<!DOCTYPE svg PUBLIC "-//W3C//DTD SVG 1.1//EN"
 "http://www.w3.org/Graphics/SVG/1.1/DTD/svg11.dtd">
<!-- Generated by graphviz version 2.36.0 (20140111.2315)
 -->
<!-- Title: application.Main.runGameLoop Pages: 1 -->
<svg width="2154pt" height="182pt"
 viewBox="0.00 0.00 2154.00 182.00" xmlns="http://www.w3.org/2000/svg" xmlns:xlink="http://www.w3.org/1999/xlink">
<g id="graph0" class="graph" transform="scale(1 1) rotate(0) translate(4 178)">
<title>application.Main.runGameLoop</title>
<polygon fill="white" stroke="none" points="-4,4 -4,-178 2150,-178 2150,4 -4,4"/>
<!-- Node1 -->
<g id="node1" class="node"><title>Node1</title>
<polygon fill="#bfbfbf" stroke="black" points="0.5,-57.5 0.5,-76.5 165.5,-76.5 165.5,-57.5 0.5,-57.5"/>
<text text-anchor="middle" x="83" y="-64.5" font-family="Helvetica,sans-Serif" font-size="10.00">application.Main.runGameLoop</text>
</g>
<!-- Node2 -->
<g id="node2" class="node"><title>Node2</title>
<g id="a_node2"><a xlink:href="../../d9/d96/classapplication_1_1_main.html#adc868cfca1990edad66af3dcb8cf4349" target="_top" xlink:title="application.Main.playGame">
<polygon fill="white" stroke="black" points="202,-79.5 202,-98.5 348,-98.5 348,-79.5 202,-79.5"/>
<text text-anchor="middle" x="275" y="-86.5" font-family="Helvetica,sans-Serif" font-size="10.00">application.Main.playGame</text>
</a>
</g>
</g>
<!-- Node1&#45;&gt;Node2 -->
<g id="edge1" class="edge"><title>Node1&#45;&gt;Node2</title>
<path fill="none" stroke="midnightblue" d="M175.63,-77.6098C184.472,-78.6336 193.353,-79.6619 201.966,-80.6592"/>
<polygon fill="midnightblue" stroke="midnightblue" points="176.016,-74.1312 165.68,-76.4577 175.211,-81.0847 176.016,-74.1312"/>
</g>
<!-- Node14 -->
<g id="node14" class="node"><title>Node14</title>
<g id="a_node14"><a xlink:href="../../d9/d96/classapplication_1_1_main.html#a42869215e52dd2b2709898935eaa713f" target="_top" xlink:title="application.Main.setSlider\lEventListener">
<polygon fill="white" stroke="black" points="205.5,-30 205.5,-60 344.5,-60 344.5,-30 205.5,-30"/>
<text text-anchor="start" x="213.5" y="-48" font-family="Helvetica,sans-Serif" font-size="10.00">application.Main.setSlider</text>
<text text-anchor="middle" x="275" y="-37" font-family="Helvetica,sans-Serif" font-size="10.00">EventListener</text>
</a>
</g>
</g>
<!-- Node1&#45;&gt;Node14 -->
<g id="edge15" class="edge"><title>Node1&#45;&gt;Node14</title>
<path fill="none" stroke="midnightblue" d="M175.922,-56.3564C185.783,-55.2146 195.689,-54.0676 205.213,-52.9649"/>
<polygon fill="midnightblue" stroke="midnightblue" points="175.211,-52.9153 165.68,-57.5423 176.016,-59.8688 175.211,-52.9153"/>
</g>
<!-- Node3 -->
<g id="node3" class="node"><title>Node3</title>
<g id="a_node3"><a xlink:href="../../d9/d96/classapplication_1_1_main.html#ada0f47786d75e28e627d2621d75eaf5a" target="_top" xlink:title="application.Main.activate\lStartButton">
<polygon fill="white" stroke="black" points="394.5,-115 394.5,-145 529.5,-145 529.5,-115 394.5,-115"/>
<text text-anchor="start" x="402.5" y="-133" font-family="Helvetica,sans-Serif" font-size="10.00">application.Main.activate</text>
<text text-anchor="middle" x="462" y="-122" font-family="Helvetica,sans-Serif" font-size="10.00">StartButton</text>
</a>
</g>
</g>
<!-- Node2&#45;&gt;Node3 -->
<g id="edge2" class="edge"><title>Node2&#45;&gt;Node3</title>
<path fill="none" stroke="midnightblue" d="M328.948,-100.734C349.339,-105.254 372.89,-110.473 394.407,-115.242"/>
<polygon fill="midnightblue" stroke="midnightblue" points="329.428,-97.256 318.908,-98.5093 327.914,-104.09 329.428,-97.256"/>
</g>
<!-- Node4 -->
<g id="node4" class="node"><title>Node4</title>
<g id="a_node4"><a xlink:href="../../d9/d96/classapplication_1_1_main.html#a64e6451d894979853890a235efe37db8" target="_top" xlink:title="application.Main.createStart\lGameButton">
<polygon fill="white" stroke="black" points="578,-115 578,-145 730,-145 730,-115 578,-115"/>
<text text-anchor="start" x="586" y="-133" font-family="Helvetica,sans-Serif" font-size="10.00">application.Main.createStart</text>
<text text-anchor="middle" x="654" y="-122" font-family="Helvetica,sans-Serif" font-size="10.00">GameButton</text>
</a>
</g>
</g>
<!-- Node3&#45;&gt;Node4 -->
<g id="edge3" class="edge"><title>Node3&#45;&gt;Node4</title>
<path fill="none" stroke="midnightblue" d="M540.034,-130C552.455,-130 565.301,-130 577.68,-130"/>
<polygon fill="midnightblue" stroke="midnightblue" points="539.72,-126.5 529.72,-130 539.72,-133.5 539.72,-126.5"/>
</g>
<!-- Node5 -->
<g id="node5" class="node"><title>Node5</title>
<g id="a_node5"><a xlink:href="../../d9/d96/classapplication_1_1_main.html#a5fee6c1b05965eca9205a99e3245a5fb" target="_top" xlink:title="application.Main.populate\lStartPageModules">
<polygon fill="white" stroke="black" points="768.5,-115 768.5,-145 907.5,-145 907.5,-115 768.5,-115"/>
<text text-anchor="start" x="776.5" y="-133" font-family="Helvetica,sans-Serif" font-size="10.00">application.Main.populate</text>
<text text-anchor="middle" x="838" y="-122" font-family="Helvetica,sans-Serif" font-size="10.00">StartPageModules</text>
</a>
</g>
</g>
<!-- Node4&#45;&gt;Node5 -->
<g id="edge4" class="edge"><title>Node4&#45;&gt;Node5</title>
<path fill="none" stroke="midnightblue" d="M740.213,-130C749.602,-130 759.073,-130 768.224,-130"/>
<polygon fill="midnightblue" stroke="midnightblue" points="740.077,-126.5 730.077,-130 740.077,-133.5 740.077,-126.5"/>
</g>
<!-- Node6 -->
<g id="node6" class="node"><title>Node6</title>
<g id="a_node6"><a xlink:href="../../d9/d96/classapplication_1_1_main.html#a4e5ad4e3de8bbd8654120180a94e870d" target="_top" xlink:title="application.Main.start">
<polygon fill="white" stroke="black" points="944.5,-120.5 944.5,-139.5 1063.5,-139.5 1063.5,-120.5 944.5,-120.5"/>
<text text-anchor="middle" x="1004" y="-127.5" font-family="Helvetica,sans-Serif" font-size="10.00">application.Main.start</text>
</a>
</g>
</g>
<!-- Node5&#45;&gt;Node6 -->
<g id="edge5" class="edge"><title>Node5&#45;&gt;Node6</title>
<path fill="none" stroke="midnightblue" d="M917.677,-130C926.642,-130 935.661,-130 944.302,-130"/>
<polygon fill="midnightblue" stroke="midnightblue" points="917.601,-126.5 907.601,-130 917.6,-133.5 917.601,-126.5"/>
</g>
<!-- Node7 -->
<g id="node7" class="node"><title>Node7</title>
<g id="a_node7"><a xlink:href="../../d9/d96/classapplication_1_1_main.html#ad652e3294ffb6519b18d784d5831c76a" target="_top" xlink:title="application.Main.activate\lReturntoStart">
<polygon fill="white" stroke="black" points="1100.5,-115 1100.5,-145 1235.5,-145 1235.5,-115 1100.5,-115"/>
<text text-anchor="start" x="1108.5" y="-133" font-family="Helvetica,sans-Serif" font-size="10.00">application.Main.activate</text>
<text text-anchor="middle" x="1168" y="-122" font-family="Helvetica,sans-Serif" font-size="10.00">ReturntoStart</text>
</a>
</g>
</g>
<!-- Node6&#45;&gt;Node7 -->
<g id="edge6" class="edge"><title>Node6&#45;&gt;Node7</title>
<path fill="none" stroke="midnightblue" d="M1074.08,-130C1082.81,-130 1091.73,-130 1100.42,-130"/>
<polygon fill="midnightblue" stroke="midnightblue" points="1073.94,-126.5 1063.94,-130 1073.94,-133.5 1073.94,-126.5"/>
</g>
<!-- Node8 -->
<g id="node8" class="node"><title>Node8</title>
<g id="a_node8"><a xlink:href="../../d9/d96/classapplication_1_1_main.html#a4c5877fafc53c4fae488f1f30faf294b" target="_top" xlink:title="application.Main.createReturn\lToStartButton">
<polygon fill="white" stroke="black" points="1272,-115 1272,-145 1430,-145 1430,-115 1272,-115"/>
<text text-anchor="start" x="1280" y="-133" font-family="Helvetica,sans-Serif" font-size="10.00">application.Main.createReturn</text>
<text text-anchor="middle" x="1351" y="-122" font-family="Helvetica,sans-Serif" font-size="10.00">ToStartButton</text>
</a>
</g>
</g>
<!-- Node7&#45;&gt;Node8 -->
<g id="edge7" class="edge"><title>Node7&#45;&gt;Node8</title>
<path fill="none" stroke="midnightblue" d="M1245.7,-130C1254.36,-130 1263.19,-130 1271.87,-130"/>
<polygon fill="midnightblue" stroke="midnightblue" points="1245.63,-126.5 1235.63,-130 1245.63,-133.5 1245.63,-126.5"/>
</g>
<!-- Node9 -->
<g id="node9" class="node"><title>Node9</title>
<g id="a_node9"><a xlink:href="../../d9/d96/classapplication_1_1_main.html#abcabe1a32eb7b5054cf34ca0def07531" target="_top" xlink:title="application.Main.populate\lErrorPageModules">
<polygon fill="white" stroke="black" points="1466.5,-115 1466.5,-145 1605.5,-145 1605.5,-115 1466.5,-115"/>
<text text-anchor="start" x="1474.5" y="-133" font-family="Helvetica,sans-Serif" font-size="10.00">application.Main.populate</text>
<text text-anchor="middle" x="1536" y="-122" font-family="Helvetica,sans-Serif" font-size="10.00">ErrorPageModules</text>
</a>
</g>
</g>
<!-- Node8&#45;&gt;Node9 -->
<g id="edge8" class="edge"><title>Node8&#45;&gt;Node9</title>
<path fill="none" stroke="midnightblue" d="M1440.36,-130C1449.1,-130 1457.87,-130 1466.37,-130"/>
<polygon fill="midnightblue" stroke="midnightblue" points="1440.14,-126.5 1430.14,-130 1440.14,-133.5 1440.14,-126.5"/>
</g>
<!-- Node13 -->
<g id="node13" class="node"><title>Node13</title>
<g id="a_node13"><a xlink:href="../../d9/d96/classapplication_1_1_main.html#a2ddf30fb8360296e1ad3459fe6f920fb" target="_top" xlink:title="application.Main.populate\lGridPageModules">
<polygon fill="white" stroke="black" points="1466.5,-66 1466.5,-96 1605.5,-96 1605.5,-66 1466.5,-66"/>
<text text-anchor="start" x="1474.5" y="-84" font-family="Helvetica,sans-Serif" font-size="10.00">application.Main.populate</text>
<text text-anchor="middle" x="1536" y="-73" font-family="Helvetica,sans-Serif" font-size="10.00">GridPageModules</text>
</a>
</g>
</g>
<!-- Node8&#45;&gt;Node13 -->
<g id="edge13" class="edge"><title>Node8&#45;&gt;Node13</title>
<path fill="none" stroke="midnightblue" d="M1418.29,-112.252C1438.12,-106.941 1459.67,-101.171 1478.79,-96.0516"/>
<polygon fill="midnightblue" stroke="midnightblue" points="1417.15,-108.931 1408.4,-114.899 1418.96,-115.693 1417.15,-108.931"/>
</g>
<!-- Node10 -->
<g id="node10" class="node"><title>Node10</title>
<g id="a_node10"><a xlink:href="../../d9/d96/classapplication_1_1_main.html#a81e70f73d65beae34c459628791cc5d4" target="_top" xlink:title="application.Main.activate\lErrorPage">
<polygon fill="white" stroke="black" points="1642.5,-115 1642.5,-145 1777.5,-145 1777.5,-115 1642.5,-115"/>
<text text-anchor="start" x="1650.5" y="-133" font-family="Helvetica,sans-Serif" font-size="10.00">application.Main.activate</text>
<text text-anchor="middle" x="1710" y="-122" font-family="Helvetica,sans-Serif" font-size="10.00">ErrorPage</text>
</a>
</g>
</g>
<!-- Node9&#45;&gt;Node10 -->
<g id="edge9" class="edge"><title>Node9&#45;&gt;Node10</title>
<path fill="none" stroke="midnightblue" d="M1616.15,-130C1624.88,-130 1633.7,-130 1642.25,-130"/>
<polygon fill="midnightblue" stroke="midnightblue" points="1615.97,-126.5 1605.97,-130 1615.97,-133.5 1615.97,-126.5"/>
</g>
<!-- Node11 -->
<g id="node11" class="node"><title>Node11</title>
<g id="a_node11"><a xlink:href="../../d9/d96/classapplication_1_1_main.html#aef0593911aa3cbc594ac75bbb8d6a2b0" target="_top" xlink:title="application.Main.activate\lImportXMLButton">
<polygon fill="white" stroke="black" points="1814.5,-115 1814.5,-145 1949.5,-145 1949.5,-115 1814.5,-115"/>
<text text-anchor="start" x="1822.5" y="-133" font-family="Helvetica,sans-Serif" font-size="10.00">application.Main.activate</text>
<text text-anchor="middle" x="1882" y="-122" font-family="Helvetica,sans-Serif" font-size="10.00">ImportXMLButton</text>
</a>
</g>
</g>
<!-- Node10&#45;&gt;Node11 -->
<g id="edge10" class="edge"><title>Node10&#45;&gt;Node11</title>
<path fill="none" stroke="midnightblue" d="M1787.72,-130C1796.65,-130 1805.71,-130 1814.49,-130"/>
<polygon fill="midnightblue" stroke="midnightblue" points="1787.7,-126.5 1777.7,-130 1787.7,-133.5 1787.7,-126.5"/>
</g>
<!-- Node12 -->
<g id="node12" class="node"><title>Node12</title>
<g id="a_node12"><a xlink:href="../../d9/d96/classapplication_1_1_main.html#a18021492af2e457d39edcbd16dc0d3c8" target="_top" xlink:title="application.Main.createImport\lXMLButton">
<polygon fill="white" stroke="black" points="1986.5,-137 1986.5,-167 2145.5,-167 2145.5,-137 1986.5,-137"/>
<text text-anchor="start" x="1994.5" y="-155" font-family="Helvetica,sans-Serif" font-size="10.00">application.Main.createImport</text>
<text text-anchor="middle" x="2066" y="-144" font-family="Helvetica,sans-Serif" font-size="10.00">XMLButton</text>
</a>
</g>
</g>
<!-- Node11&#45;&gt;Node12 -->
<g id="edge11" class="edge"><title>Node11&#45;&gt;Node12</title>
<path fill="none" stroke="midnightblue" d="M1959.87,-139.292C1968.59,-140.346 1977.49,-141.422 1986.24,-142.479"/>
<polygon fill="midnightblue" stroke="midnightblue" points="1960.08,-135.793 1949.74,-138.067 1959.24,-142.742 1960.08,-135.793"/>
</g>
<!-- Node12&#45;&gt;Node5 -->
<g id="edge12" class="edge"><title>Node12&#45;&gt;Node5</title>
<path fill="none" stroke="midnightblue" d="M1976.03,-160.596C1904.5,-166.768 1801.38,-174 1711,-174 1167,-174 1167,-174 1167,-174 1076.8,-174 973.868,-157.451 907.749,-144.651"/>
<polygon fill="midnightblue" stroke="midnightblue" points="1976.69,-164.052 1986.35,-159.695 1976.08,-157.078 1976.69,-164.052"/>
</g>
<!-- Node13&#45;&gt;Node2 -->
<g id="edge14" class="edge"><title>Node13&#45;&gt;Node2</title>
<path fill="none" stroke="midnightblue" d="M1456.01,-82.7018C1381.89,-84.151 1267.93,-86 1169,-86 653,-86 653,-86 653,-86 546.965,-86 424.161,-87.2014 348.272,-88.0836"/>
<polygon fill="midnightblue" stroke="midnightblue" points="1456.27,-86.1974 1466.2,-82.5002 1456.13,-79.1988 1456.27,-86.1974"/>
</g>
<!-- Node15 -->
<g id="node15" class="node"><title>Node15</title>
<g id="a_node15"><a xlink:href="../../d9/d96/classapplication_1_1_main.html#a70093ccc8a1ea3876f646690a254eba6" target="_top" xlink:title="application.Main.createSlider">
<polygon fill="white" stroke="black" points="384.5,-35.5 384.5,-54.5 539.5,-54.5 539.5,-35.5 384.5,-35.5"/>
<text text-anchor="middle" x="462" y="-42.5" font-family="Helvetica,sans-Serif" font-size="10.00">application.Main.createSlider</text>
</a>
</g>
</g>
<!-- Node14&#45;&gt;Node15 -->
<g id="edge16" class="edge"><title>Node14&#45;&gt;Node15</title>
<path fill="none" stroke="midnightblue" d="M354.76,-45C364.578,-45 374.607,-45 384.392,-45"/>
<polygon fill="midnightblue" stroke="midnightblue" points="354.624,-41.5001 344.624,-45 354.624,-48.5001 354.624,-41.5001"/>
</g>
<!-- Node15&#45;&gt;Node13 -->
<g id="edge18" class="edge"><title>Node15&#45;&gt;Node13</title>
<path fill="none" stroke="midnightblue" d="M550.085,-46.0936C625.883,-46.951 738.705,-48 837,-48 837,-48 837,-48 1169,-48 1272.99,-48 1392.94,-61.3786 1466.36,-71.0989"/>
<polygon fill="midnightblue" stroke="midnightblue" points="549.68,-42.5888 539.641,-45.974 549.6,-49.5884 549.68,-42.5888"/>
</g>
<!-- Node16 -->
<g id="node16" class="node"><title>Node16</title>
<g id="a_node16"><a xlink:href="../../d9/d96/classapplication_1_1_main.html#a1f5094dad31bc45ef126f701738cbe46" target="_top" xlink:title="application.Main.createSlider">
<polygon fill="white" stroke="black" points="576.5,-0.5 576.5,-19.5 731.5,-19.5 731.5,-0.5 576.5,-0.5"/>
<text text-anchor="middle" x="654" y="-7.5" font-family="Helvetica,sans-Serif" font-size="10.00">application.Main.createSlider</text>
</a>
</g>
</g>
<!-- Node15&#45;&gt;Node16 -->
<g id="edge17" class="edge"><title>Node15&#45;&gt;Node16</title>
<path fill="none" stroke="midnightblue" d="M524.687,-33.6366C549.455,-29.0741 577.682,-23.8744 601.343,-19.5158"/>
<polygon fill="midnightblue" stroke="midnightblue" points="523.868,-30.2285 514.667,-35.4823 525.136,-37.1127 523.868,-30.2285"/>
</g>
</g>
</svg>
