<?xml version="1.0" encoding="UTF-8" standalone="no"?>
<!DOCTYPE svg PUBLIC "-//W3C//DTD SVG 1.1//EN"
 "http://www.w3.org/Graphics/SVG/1.1/DTD/svg11.dtd">
<!-- Generated by graphviz version 2.36.0 (20140111.2315)
 -->
<!-- Title: application.Main.createGameGraph Pages: 1 -->
<svg width="394pt" height="87pt"
 viewBox="0.00 0.00 394.00 87.00" xmlns="http://www.w3.org/2000/svg" xmlns:xlink="http://www.w3.org/1999/xlink">
<g id="graph0" class="graph" transform="scale(1 1) rotate(0) translate(4 83)">
<title>application.Main.createGameGraph</title>
<polygon fill="white" stroke="none" points="-4,4 -4,-83 390,-83 390,4 -4,4"/>
<!-- Node1 -->
<g id="node1" class="node"><title>Node1</title>
<polygon fill="#bfbfbf" stroke="black" points="0.5,-24 0.5,-54 157.5,-54 157.5,-24 0.5,-24"/>
<text text-anchor="start" x="8.5" y="-42" font-family="Helvetica,sans-Serif" font-size="10.00">application.Main.createGame</text>
<text text-anchor="middle" x="79" y="-31" font-family="Helvetica,sans-Serif" font-size="10.00">Graph</text>
</g>
<!-- Node2 -->
<g id="node2" class="node"><title>Node2</title>
<g id="a_node2"><a xlink:href="../../d9/d96/classapplication_1_1_main.html#a4e89aec891d20476fcf64cbd87cf9b7c" target="_top" xlink:title="application.Main.createLine\lChart">
<polygon fill="white" stroke="black" points="216.5,-49 216.5,-79 363.5,-79 363.5,-49 216.5,-49"/>
<text text-anchor="start" x="224.5" y="-67" font-family="Helvetica,sans-Serif" font-size="10.00">application.Main.createLine</text>
<text text-anchor="middle" x="290" y="-56" font-family="Helvetica,sans-Serif" font-size="10.00">Chart</text>
</a>
</g>
</g>
<!-- Node1&#45;&gt;Node2 -->
<g id="edge1" class="edge"><title>Node1&#45;&gt;Node2</title>
<path fill="none" stroke="midnightblue" d="M157.527,-48.2736C173.497,-50.1838 190.369,-52.202 206.507,-54.1324"/>
<polygon fill="midnightblue" stroke="midnightblue" points="206.101,-57.6087 216.446,-55.3213 206.933,-50.6583 206.101,-57.6087"/>
</g>
<!-- Node3 -->
<g id="node3" class="node"><title>Node3</title>
<g id="a_node3"><a xlink:href="../../d9/d5e/classapplication_1_1_application_loop.html#aa1ce24f074fa282aac174e8ecd2a2e60" target="_top" xlink:title="application.ApplicationLoop.populate\lLineChart">
<polygon fill="white" stroke="black" points="194,-0 194,-30 386,-30 386,-0 194,-0"/>
<text text-anchor="start" x="202" y="-18" font-family="Helvetica,sans-Serif" font-size="10.00">application.ApplicationLoop.populate</text>
<text text-anchor="middle" x="290" y="-7" font-family="Helvetica,sans-Serif" font-size="10.00">LineChart</text>
</a>
</g>
</g>
<!-- Node1&#45;&gt;Node3 -->
<g id="edge2" class="edge"><title>Node1&#45;&gt;Node3</title>
<path fill="none" stroke="midnightblue" d="M157.527,-30.0974C166.136,-29.1088 175.008,-28.09 183.885,-27.0706"/>
<polygon fill="midnightblue" stroke="midnightblue" points="184.362,-30.539 193.897,-25.9209 183.563,-23.5847 184.362,-30.539"/>
</g>
</g>
</svg>
