<?xml version="1.0" encoding="UTF-8" standalone="no"?>
<!DOCTYPE svg PUBLIC "-//W3C//DTD SVG 1.1//EN"
 "http://www.w3.org/Graphics/SVG/1.1/DTD/svg11.dtd">
<!-- Generated by graphviz version 2.36.0 (20140111.2315)
 -->
<!-- Title: application.Main.createSlider Pages: 1 -->
<svg width="944pt" height="38pt"
 viewBox="0.00 0.00 944.00 38.00" xmlns="http://www.w3.org/2000/svg" xmlns:xlink="http://www.w3.org/1999/xlink">
<g id="graph0" class="graph" transform="scale(1 1) rotate(0) translate(4 34)">
<title>application.Main.createSlider</title>
<polygon fill="white" stroke="none" points="-4,4 -4,-34 940,-34 940,4 -4,4"/>
<!-- Node1 -->
<g id="node1" class="node"><title>Node1</title>
<polygon fill="#bfbfbf" stroke="black" points="0.5,-5.5 0.5,-24.5 155.5,-24.5 155.5,-5.5 0.5,-5.5"/>
<text text-anchor="middle" x="78" y="-12.5" font-family="Helvetica,sans-Serif" font-size="10.00">application.Main.createSlider</text>
</g>
<!-- Node2 -->
<g id="node2" class="node"><title>Node2</title>
<g id="a_node2"><a xlink:href="../../d9/d96/classapplication_1_1_main.html#a70093ccc8a1ea3876f646690a254eba6" target="_top" xlink:title="application.Main.createSlider">
<polygon fill="white" stroke="black" points="192.5,-5.5 192.5,-24.5 347.5,-24.5 347.5,-5.5 192.5,-5.5"/>
<text text-anchor="middle" x="270" y="-12.5" font-family="Helvetica,sans-Serif" font-size="10.00">application.Main.createSlider</text>
</a>
</g>
</g>
<!-- Node1&#45;&gt;Node2 -->
<g id="edge1" class="edge"><title>Node1&#45;&gt;Node2</title>
<path fill="none" stroke="midnightblue" d="M155.733,-15C164.394,-15 173.265,-15 182.044,-15"/>
<polygon fill="midnightblue" stroke="midnightblue" points="182.29,-18.5001 192.29,-15 182.29,-11.5001 182.29,-18.5001"/>
</g>
<!-- Node3 -->
<g id="node3" class="node"><title>Node3</title>
<g id="a_node3"><a xlink:href="../../d9/d96/classapplication_1_1_main.html#a42869215e52dd2b2709898935eaa713f" target="_top" xlink:title="application.Main.setSlider\lEventListener">
<polygon fill="white" stroke="black" points="384.5,-0 384.5,-30 523.5,-30 523.5,-0 384.5,-0"/>
<text text-anchor="start" x="392.5" y="-18" font-family="Helvetica,sans-Serif" font-size="10.00">application.Main.setSlider</text>
<text text-anchor="middle" x="454" y="-7" font-family="Helvetica,sans-Serif" font-size="10.00">EventListener</text>
</a>
</g>
</g>
<!-- Node2&#45;&gt;Node3 -->
<g id="edge2" class="edge"><title>Node2&#45;&gt;Node3</title>
<path fill="none" stroke="midnightblue" d="M347.657,-15C356.385,-15 365.294,-15 374.051,-15"/>
<polygon fill="midnightblue" stroke="midnightblue" points="374.241,-18.5001 384.241,-15 374.241,-11.5001 374.241,-18.5001"/>
</g>
<!-- Node4 -->
<g id="node4" class="node"><title>Node4</title>
<g id="a_node4"><a xlink:href="../../d9/d96/classapplication_1_1_main.html#a6c520e9c63fdccaf896d7a635e3f84e8" target="_top" xlink:title="application.Main.runGameLoop">
<polygon fill="white" stroke="black" points="560.5,-5.5 560.5,-24.5 725.5,-24.5 725.5,-5.5 560.5,-5.5"/>
<text text-anchor="middle" x="643" y="-12.5" font-family="Helvetica,sans-Serif" font-size="10.00">application.Main.runGameLoop</text>
</a>
</g>
</g>
<!-- Node3&#45;&gt;Node4 -->
<g id="edge3" class="edge"><title>Node3&#45;&gt;Node4</title>
<path fill="none" stroke="midnightblue" d="M523.57,-15C532.28,-15 541.3,-15 550.299,-15"/>
<polygon fill="midnightblue" stroke="midnightblue" points="550.432,-18.5001 560.432,-15 550.432,-11.5001 550.432,-18.5001"/>
</g>
<!-- Node5 -->
<g id="node5" class="node"><title>Node5</title>
<g id="a_node5"><a xlink:href="../../d9/d5e/classapplication_1_1_application_loop.html#ab6a0753dda3f3b164bbc402cbbbd7187" target="_top" xlink:title="application.ApplicationLoop.start">
<polygon fill="white" stroke="black" points="762.5,-5.5 762.5,-24.5 935.5,-24.5 935.5,-5.5 762.5,-5.5"/>
<text text-anchor="middle" x="849" y="-12.5" font-family="Helvetica,sans-Serif" font-size="10.00">application.ApplicationLoop.start</text>
</a>
</g>
</g>
<!-- Node4&#45;&gt;Node5 -->
<g id="edge4" class="edge"><title>Node4&#45;&gt;Node5</title>
<path fill="none" stroke="midnightblue" d="M725.506,-15C734.295,-15 743.296,-15 752.233,-15"/>
<polygon fill="midnightblue" stroke="midnightblue" points="752.281,-18.5001 762.281,-15 752.281,-11.5001 752.281,-18.5001"/>
</g>
</g>
</svg>
