<?xml version="1.0" encoding="UTF-8" standalone="no"?>
<!DOCTYPE svg PUBLIC "-//W3C//DTD SVG 1.1//EN"
 "http://www.w3.org/Graphics/SVG/1.1/DTD/svg11.dtd">
<!-- Generated by graphviz version 2.36.0 (20140111.2315)
 -->
<!-- Title: application.Main.createGameGraph Pages: 1 -->
<svg width="2298pt" height="96pt"
 viewBox="0.00 0.00 2298.00 96.00" xmlns="http://www.w3.org/2000/svg" xmlns:xlink="http://www.w3.org/1999/xlink">
<g id="graph0" class="graph" transform="scale(1 1) rotate(0) translate(4 92)">
<title>application.Main.createGameGraph</title>
<polygon fill="white" stroke="none" points="-4,4 -4,-92 2294,-92 2294,4 -4,4"/>
<!-- Node1 -->
<g id="node1" class="node"><title>Node1</title>
<polygon fill="#bfbfbf" stroke="black" points="0.5,-5 0.5,-35 157.5,-35 157.5,-5 0.5,-5"/>
<text text-anchor="start" x="8.5" y="-23" font-family="Helvetica,sans-Serif" font-size="10.00">application.Main.createGame</text>
<text text-anchor="middle" x="79" y="-12" font-family="Helvetica,sans-Serif" font-size="10.00">Graph</text>
</g>
<!-- Node2 -->
<g id="node2" class="node"><title>Node2</title>
<g id="a_node2"><a xlink:href="../../d9/d96/classapplication_1_1_main.html#a2ddf30fb8360296e1ad3459fe6f920fb" target="_top" xlink:title="application.Main.populate\lGridPageModules">
<polygon fill="white" stroke="black" points="194.5,-5 194.5,-35 333.5,-35 333.5,-5 194.5,-5"/>
<text text-anchor="start" x="202.5" y="-23" font-family="Helvetica,sans-Serif" font-size="10.00">application.Main.populate</text>
<text text-anchor="middle" x="264" y="-12" font-family="Helvetica,sans-Serif" font-size="10.00">GridPageModules</text>
</a>
</g>
</g>
<!-- Node1&#45;&gt;Node2 -->
<g id="edge1" class="edge"><title>Node1&#45;&gt;Node2</title>
<path fill="none" stroke="midnightblue" d="M167.655,-20C176.587,-20 185.568,-20 194.258,-20"/>
<polygon fill="midnightblue" stroke="midnightblue" points="167.609,-16.5001 157.608,-20 167.608,-23.5001 167.609,-16.5001"/>
</g>
<!-- Node3 -->
<g id="node3" class="node"><title>Node3</title>
<g id="a_node3"><a xlink:href="../../d9/d96/classapplication_1_1_main.html#adc868cfca1990edad66af3dcb8cf4349" target="_top" xlink:title="application.Main.playGame">
<polygon fill="white" stroke="black" points="370,-31.5 370,-50.5 516,-50.5 516,-31.5 370,-31.5"/>
<text text-anchor="middle" x="443" y="-38.5" font-family="Helvetica,sans-Serif" font-size="10.00">application.Main.playGame</text>
</a>
</g>
</g>
<!-- Node2&#45;&gt;Node3 -->
<g id="edge2" class="edge"><title>Node2&#45;&gt;Node3</title>
<path fill="none" stroke="midnightblue" d="M343.787,-29.3477C352.459,-30.3765 361.256,-31.4202 369.841,-32.4387"/>
<polygon fill="midnightblue" stroke="midnightblue" points="344.029,-25.8518 333.686,-28.1492 343.204,-32.8031 344.029,-25.8518"/>
</g>
<!-- Node4 -->
<g id="node4" class="node"><title>Node4</title>
<g id="a_node4"><a xlink:href="../../d9/d96/classapplication_1_1_main.html#ada0f47786d75e28e627d2621d75eaf5a" target="_top" xlink:title="application.Main.activate\lStartButton">
<polygon fill="white" stroke="black" points="552.5,-29 552.5,-59 687.5,-59 687.5,-29 552.5,-29"/>
<text text-anchor="start" x="560.5" y="-47" font-family="Helvetica,sans-Serif" font-size="10.00">application.Main.activate</text>
<text text-anchor="middle" x="620" y="-36" font-family="Helvetica,sans-Serif" font-size="10.00">StartButton</text>
</a>
</g>
</g>
<!-- Node3&#45;&gt;Node4 -->
<g id="edge3" class="edge"><title>Node3&#45;&gt;Node4</title>
<path fill="none" stroke="midnightblue" d="M526.351,-42.4117C535.052,-42.5609 543.82,-42.7112 552.312,-42.8568"/>
<polygon fill="midnightblue" stroke="midnightblue" points="526.248,-38.9095 516.19,-42.2375 526.128,-45.9085 526.248,-38.9095"/>
</g>
<!-- Node5 -->
<g id="node5" class="node"><title>Node5</title>
<g id="a_node5"><a xlink:href="../../d9/d96/classapplication_1_1_main.html#a64e6451d894979853890a235efe37db8" target="_top" xlink:title="application.Main.createStart\lGameButton">
<polygon fill="white" stroke="black" points="724,-29 724,-59 876,-59 876,-29 724,-29"/>
<text text-anchor="start" x="732" y="-47" font-family="Helvetica,sans-Serif" font-size="10.00">application.Main.createStart</text>
<text text-anchor="middle" x="800" y="-36" font-family="Helvetica,sans-Serif" font-size="10.00">GameButton</text>
</a>
</g>
</g>
<!-- Node4&#45;&gt;Node5 -->
<g id="edge4" class="edge"><title>Node4&#45;&gt;Node5</title>
<path fill="none" stroke="midnightblue" d="M697.646,-44C706.341,-44 715.196,-44 723.871,-44"/>
<polygon fill="midnightblue" stroke="midnightblue" points="697.534,-40.5001 687.534,-44 697.534,-47.5001 697.534,-40.5001"/>
</g>
<!-- Node6 -->
<g id="node6" class="node"><title>Node6</title>
<g id="a_node6"><a xlink:href="../../d9/d96/classapplication_1_1_main.html#a5fee6c1b05965eca9205a99e3245a5fb" target="_top" xlink:title="application.Main.populate\lStartPageModules">
<polygon fill="white" stroke="black" points="912.5,-29 912.5,-59 1051.5,-59 1051.5,-29 912.5,-29"/>
<text text-anchor="start" x="920.5" y="-47" font-family="Helvetica,sans-Serif" font-size="10.00">application.Main.populate</text>
<text text-anchor="middle" x="982" y="-36" font-family="Helvetica,sans-Serif" font-size="10.00">StartPageModules</text>
</a>
</g>
</g>
<!-- Node5&#45;&gt;Node6 -->
<g id="edge5" class="edge"><title>Node5&#45;&gt;Node6</title>
<path fill="none" stroke="midnightblue" d="M886.274,-44C895.039,-44 903.864,-44 912.415,-44"/>
<polygon fill="midnightblue" stroke="midnightblue" points="886.033,-40.5001 876.033,-44 886.033,-47.5001 886.033,-40.5001"/>
</g>
<!-- Node7 -->
<g id="node7" class="node"><title>Node7</title>
<g id="a_node7"><a xlink:href="../../d9/d96/classapplication_1_1_main.html#a4e5ad4e3de8bbd8654120180a94e870d" target="_top" xlink:title="application.Main.start">
<polygon fill="white" stroke="black" points="1088.5,-34.5 1088.5,-53.5 1207.5,-53.5 1207.5,-34.5 1088.5,-34.5"/>
<text text-anchor="middle" x="1148" y="-41.5" font-family="Helvetica,sans-Serif" font-size="10.00">application.Main.start</text>
</a>
</g>
</g>
<!-- Node6&#45;&gt;Node7 -->
<g id="edge6" class="edge"><title>Node6&#45;&gt;Node7</title>
<path fill="none" stroke="midnightblue" d="M1061.68,-44C1070.64,-44 1079.66,-44 1088.3,-44"/>
<polygon fill="midnightblue" stroke="midnightblue" points="1061.6,-40.5001 1051.6,-44 1061.6,-47.5001 1061.6,-40.5001"/>
</g>
<!-- Node8 -->
<g id="node8" class="node"><title>Node8</title>
<g id="a_node8"><a xlink:href="../../d9/d96/classapplication_1_1_main.html#ad652e3294ffb6519b18d784d5831c76a" target="_top" xlink:title="application.Main.activate\lReturntoStart">
<polygon fill="white" stroke="black" points="1244.5,-29 1244.5,-59 1379.5,-59 1379.5,-29 1244.5,-29"/>
<text text-anchor="start" x="1252.5" y="-47" font-family="Helvetica,sans-Serif" font-size="10.00">application.Main.activate</text>
<text text-anchor="middle" x="1312" y="-36" font-family="Helvetica,sans-Serif" font-size="10.00">ReturntoStart</text>
</a>
</g>
</g>
<!-- Node7&#45;&gt;Node8 -->
<g id="edge7" class="edge"><title>Node7&#45;&gt;Node8</title>
<path fill="none" stroke="midnightblue" d="M1218.08,-44C1226.81,-44 1235.73,-44 1244.42,-44"/>
<polygon fill="midnightblue" stroke="midnightblue" points="1217.94,-40.5001 1207.94,-44 1217.94,-47.5001 1217.94,-40.5001"/>
</g>
<!-- Node9 -->
<g id="node9" class="node"><title>Node9</title>
<g id="a_node9"><a xlink:href="../../d9/d96/classapplication_1_1_main.html#a4c5877fafc53c4fae488f1f30faf294b" target="_top" xlink:title="application.Main.createReturn\lToStartButton">
<polygon fill="white" stroke="black" points="1416,-29 1416,-59 1574,-59 1574,-29 1416,-29"/>
<text text-anchor="start" x="1424" y="-47" font-family="Helvetica,sans-Serif" font-size="10.00">application.Main.createReturn</text>
<text text-anchor="middle" x="1495" y="-36" font-family="Helvetica,sans-Serif" font-size="10.00">ToStartButton</text>
</a>
</g>
</g>
<!-- Node8&#45;&gt;Node9 -->
<g id="edge8" class="edge"><title>Node8&#45;&gt;Node9</title>
<path fill="none" stroke="midnightblue" d="M1389.7,-44C1398.36,-44 1407.19,-44 1415.87,-44"/>
<polygon fill="midnightblue" stroke="midnightblue" points="1389.63,-40.5001 1379.63,-44 1389.63,-47.5001 1389.63,-40.5001"/>
</g>
<!-- Node9&#45;&gt;Node2 -->
<g id="edge9" class="edge"><title>Node9&#45;&gt;Node2</title>
<path fill="none" stroke="midnightblue" d="M1422.64,-26.8172C1408.57,-23.8641 1393.87,-21.0812 1380,-19 1278.13,-3.71043 1252.01,-0 1149,-0 619,-0 619,-0 619,-0 519.74,-0 405.074,-7.93505 333.792,-13.8088"/>
<polygon fill="midnightblue" stroke="midnightblue" points="1422.24,-30.3112 1432.75,-28.99 1423.71,-23.4673 1422.24,-30.3112"/>
</g>
<!-- Node10 -->
<g id="node10" class="node"><title>Node10</title>
<g id="a_node10"><a xlink:href="../../d9/d96/classapplication_1_1_main.html#abcabe1a32eb7b5054cf34ca0def07531" target="_top" xlink:title="application.Main.populate\lErrorPageModules">
<polygon fill="white" stroke="black" points="1610.5,-29 1610.5,-59 1749.5,-59 1749.5,-29 1610.5,-29"/>
<text text-anchor="start" x="1618.5" y="-47" font-family="Helvetica,sans-Serif" font-size="10.00">application.Main.populate</text>
<text text-anchor="middle" x="1680" y="-36" font-family="Helvetica,sans-Serif" font-size="10.00">ErrorPageModules</text>
</a>
</g>
</g>
<!-- Node9&#45;&gt;Node10 -->
<g id="edge10" class="edge"><title>Node9&#45;&gt;Node10</title>
<path fill="none" stroke="midnightblue" d="M1584.36,-44C1593.1,-44 1601.87,-44 1610.37,-44"/>
<polygon fill="midnightblue" stroke="midnightblue" points="1584.14,-40.5001 1574.14,-44 1584.14,-47.5001 1584.14,-40.5001"/>
</g>
<!-- Node11 -->
<g id="node11" class="node"><title>Node11</title>
<g id="a_node11"><a xlink:href="../../d9/d96/classapplication_1_1_main.html#a81e70f73d65beae34c459628791cc5d4" target="_top" xlink:title="application.Main.activate\lErrorPage">
<polygon fill="white" stroke="black" points="1786.5,-29 1786.5,-59 1921.5,-59 1921.5,-29 1786.5,-29"/>
<text text-anchor="start" x="1794.5" y="-47" font-family="Helvetica,sans-Serif" font-size="10.00">application.Main.activate</text>
<text text-anchor="middle" x="1854" y="-36" font-family="Helvetica,sans-Serif" font-size="10.00">ErrorPage</text>
</a>
</g>
</g>
<!-- Node10&#45;&gt;Node11 -->
<g id="edge11" class="edge"><title>Node10&#45;&gt;Node11</title>
<path fill="none" stroke="midnightblue" d="M1760.15,-44C1768.88,-44 1777.7,-44 1786.25,-44"/>
<polygon fill="midnightblue" stroke="midnightblue" points="1759.97,-40.5001 1749.97,-44 1759.97,-47.5001 1759.97,-40.5001"/>
</g>
<!-- Node12 -->
<g id="node12" class="node"><title>Node12</title>
<g id="a_node12"><a xlink:href="../../d9/d96/classapplication_1_1_main.html#aef0593911aa3cbc594ac75bbb8d6a2b0" target="_top" xlink:title="application.Main.activate\lImportXMLButton">
<polygon fill="white" stroke="black" points="1958.5,-29 1958.5,-59 2093.5,-59 2093.5,-29 1958.5,-29"/>
<text text-anchor="start" x="1966.5" y="-47" font-family="Helvetica,sans-Serif" font-size="10.00">application.Main.activate</text>
<text text-anchor="middle" x="2026" y="-36" font-family="Helvetica,sans-Serif" font-size="10.00">ImportXMLButton</text>
</a>
</g>
</g>
<!-- Node11&#45;&gt;Node12 -->
<g id="edge12" class="edge"><title>Node11&#45;&gt;Node12</title>
<path fill="none" stroke="midnightblue" d="M1931.72,-44C1940.65,-44 1949.71,-44 1958.49,-44"/>
<polygon fill="midnightblue" stroke="midnightblue" points="1931.7,-40.5001 1921.7,-44 1931.7,-47.5001 1931.7,-40.5001"/>
</g>
<!-- Node13 -->
<g id="node13" class="node"><title>Node13</title>
<g id="a_node13"><a xlink:href="../../d9/d96/classapplication_1_1_main.html#a18021492af2e457d39edcbd16dc0d3c8" target="_top" xlink:title="application.Main.createImport\lXMLButton">
<polygon fill="white" stroke="black" points="2130.5,-51 2130.5,-81 2289.5,-81 2289.5,-51 2130.5,-51"/>
<text text-anchor="start" x="2138.5" y="-69" font-family="Helvetica,sans-Serif" font-size="10.00">application.Main.createImport</text>
<text text-anchor="middle" x="2210" y="-58" font-family="Helvetica,sans-Serif" font-size="10.00">XMLButton</text>
</a>
</g>
</g>
<!-- Node12&#45;&gt;Node13 -->
<g id="edge13" class="edge"><title>Node12&#45;&gt;Node13</title>
<path fill="none" stroke="midnightblue" d="M2103.87,-53.2923C2112.59,-54.3465 2121.49,-55.4221 2130.24,-56.4792"/>
<polygon fill="midnightblue" stroke="midnightblue" points="2104.08,-49.7925 2093.74,-52.0671 2103.24,-56.7419 2104.08,-49.7925"/>
</g>
<!-- Node13&#45;&gt;Node6 -->
<g id="edge14" class="edge"><title>Node13&#45;&gt;Node6</title>
<path fill="none" stroke="midnightblue" d="M2120.03,-74.5964C2048.5,-80.7676 1945.38,-88 1855,-88 1311,-88 1311,-88 1311,-88 1220.8,-88 1117.87,-71.451 1051.75,-58.6514"/>
<polygon fill="midnightblue" stroke="midnightblue" points="2120.69,-78.0519 2130.35,-73.6945 2120.08,-71.0785 2120.69,-78.0519"/>
</g>
</g>
</svg>
