<?xml version="1.0" encoding="UTF-8" standalone="no"?>
<!DOCTYPE svg PUBLIC "-//W3C//DTD SVG 1.1//EN"
 "http://www.w3.org/Graphics/SVG/1.1/DTD/svg11.dtd">
<!-- Generated by graphviz version 2.36.0 (20140111.2315)
 -->
<!-- Title: application.Main.populateStage Pages: 1 -->
<svg width="2104pt" height="160pt"
 viewBox="0.00 0.00 2104.00 160.00" xmlns="http://www.w3.org/2000/svg" xmlns:xlink="http://www.w3.org/1999/xlink">
<g id="graph0" class="graph" transform="scale(1 1) rotate(0) translate(4 156)">
<title>application.Main.populateStage</title>
<polygon fill="white" stroke="none" points="-4,4 -4,-156 2100,-156 2100,4 -4,4"/>
<!-- Node1 -->
<g id="node1" class="node"><title>Node1</title>
<polygon fill="#bfbfbf" stroke="black" points="0.5,-34 0.5,-64 139.5,-64 139.5,-34 0.5,-34"/>
<text text-anchor="start" x="8.5" y="-52" font-family="Helvetica,sans-Serif" font-size="10.00">application.Main.populate</text>
<text text-anchor="middle" x="70" y="-41" font-family="Helvetica,sans-Serif" font-size="10.00">Stage</text>
</g>
<!-- Node2 -->
<g id="node2" class="node"><title>Node2</title>
<g id="a_node2"><a xlink:href="../../d9/d96/classapplication_1_1_main.html#a81e70f73d65beae34c459628791cc5d4" target="_top" xlink:title="application.Main.activate\lErrorPage">
<polygon fill="white" stroke="black" points="176.5,-78 176.5,-108 311.5,-108 311.5,-78 176.5,-78"/>
<text text-anchor="start" x="184.5" y="-96" font-family="Helvetica,sans-Serif" font-size="10.00">application.Main.activate</text>
<text text-anchor="middle" x="244" y="-85" font-family="Helvetica,sans-Serif" font-size="10.00">ErrorPage</text>
</a>
</g>
</g>
<!-- Node1&#45;&gt;Node2 -->
<g id="edge1" class="edge"><title>Node1&#45;&gt;Node2</title>
<path fill="none" stroke="midnightblue" d="M139.777,-66.5941C154.511,-70.3632 169.948,-74.3122 184.261,-77.9738"/>
<polygon fill="midnightblue" stroke="midnightblue" points="140.267,-63.1068 129.712,-64.0192 138.532,-69.8885 140.267,-63.1068"/>
</g>
<!-- Node6 -->
<g id="node6" class="node"><title>Node6</title>
<g id="a_node6"><a xlink:href="../../d9/d96/classapplication_1_1_main.html#a4e5ad4e3de8bbd8654120180a94e870d" target="_top" xlink:title="application.Main.start">
<polygon fill="white" stroke="black" points="892.5,-39.5 892.5,-58.5 1011.5,-58.5 1011.5,-39.5 892.5,-39.5"/>
<text text-anchor="middle" x="952" y="-46.5" font-family="Helvetica,sans-Serif" font-size="10.00">application.Main.start</text>
</a>
</g>
</g>
<!-- Node1&#45;&gt;Node6 -->
<g id="edge16" class="edge"><title>Node1&#45;&gt;Node6</title>
<path fill="none" stroke="midnightblue" d="M149.559,-49C219.284,-49 323.924,-49 415,-49 415,-49 415,-49 601,-49 703.539,-49 822.976,-49 892.478,-49"/>
<polygon fill="midnightblue" stroke="midnightblue" points="149.531,-45.5001 139.531,-49 149.531,-52.5001 149.531,-45.5001"/>
</g>
<!-- Node11 -->
<g id="node11" class="node"><title>Node11</title>
<g id="a_node11"><a xlink:href="../../d9/d96/classapplication_1_1_main.html#adc868cfca1990edad66af3dcb8cf4349" target="_top" xlink:title="application.Main.playGame">
<polygon fill="white" stroke="black" points="1590,-34.5 1590,-53.5 1736,-53.5 1736,-34.5 1590,-34.5"/>
<text text-anchor="middle" x="1663" y="-41.5" font-family="Helvetica,sans-Serif" font-size="10.00">application.Main.playGame</text>
</a>
</g>
</g>
<!-- Node1&#45;&gt;Node11 -->
<g id="edge15" class="edge"><title>Node1&#45;&gt;Node11</title>
<path fill="none" stroke="midnightblue" d="M146.843,-31.9084C216.254,-17.7707 321.998,-0 415,-0 415,-0 415,-0 1300,-0 1413.2,-0 1442.09,-1.96326 1554,-19 1578.54,-22.7364 1605.78,-29.0552 1626.75,-34.4051"/>
<polygon fill="midnightblue" stroke="midnightblue" points="145.958,-28.5171 136.871,-33.9654 147.372,-35.3728 145.958,-28.5171"/>
</g>
<!-- Node3 -->
<g id="node3" class="node"><title>Node3</title>
<g id="a_node3"><a xlink:href="../../d9/d96/classapplication_1_1_main.html#aef0593911aa3cbc594ac75bbb8d6a2b0" target="_top" xlink:title="application.Main.activate\lImportXMLButton">
<polygon fill="white" stroke="black" points="348.5,-122 348.5,-152 483.5,-152 483.5,-122 348.5,-122"/>
<text text-anchor="start" x="356.5" y="-140" font-family="Helvetica,sans-Serif" font-size="10.00">application.Main.activate</text>
<text text-anchor="middle" x="416" y="-129" font-family="Helvetica,sans-Serif" font-size="10.00">ImportXMLButton</text>
</a>
</g>
</g>
<!-- Node2&#45;&gt;Node3 -->
<g id="edge2" class="edge"><title>Node2&#45;&gt;Node3</title>
<path fill="none" stroke="midnightblue" d="M312.977,-110.594C327.54,-114.363 342.797,-118.312 356.944,-121.974"/>
<polygon fill="midnightblue" stroke="midnightblue" points="313.587,-107.137 303.029,-108.019 311.833,-113.913 313.587,-107.137"/>
</g>
<!-- Node4 -->
<g id="node4" class="node"><title>Node4</title>
<g id="a_node4"><a xlink:href="../../d9/d96/classapplication_1_1_main.html#a18021492af2e457d39edcbd16dc0d3c8" target="_top" xlink:title="application.Main.createImport\lXMLButton">
<polygon fill="white" stroke="black" points="520.5,-122 520.5,-152 679.5,-152 679.5,-122 520.5,-122"/>
<text text-anchor="start" x="528.5" y="-140" font-family="Helvetica,sans-Serif" font-size="10.00">application.Main.createImport</text>
<text text-anchor="middle" x="600" y="-129" font-family="Helvetica,sans-Serif" font-size="10.00">XMLButton</text>
</a>
</g>
</g>
<!-- Node3&#45;&gt;Node4 -->
<g id="edge3" class="edge"><title>Node3&#45;&gt;Node4</title>
<path fill="none" stroke="midnightblue" d="M493.873,-137C502.594,-137 511.492,-137 520.237,-137"/>
<polygon fill="midnightblue" stroke="midnightblue" points="493.737,-133.5 483.737,-137 493.737,-140.5 493.737,-133.5"/>
</g>
<!-- Node5 -->
<g id="node5" class="node"><title>Node5</title>
<g id="a_node5"><a xlink:href="../../d9/d96/classapplication_1_1_main.html#a5fee6c1b05965eca9205a99e3245a5fb" target="_top" xlink:title="application.Main.populate\lStartPageModules">
<polygon fill="white" stroke="black" points="716.5,-122 716.5,-152 855.5,-152 855.5,-122 716.5,-122"/>
<text text-anchor="start" x="724.5" y="-140" font-family="Helvetica,sans-Serif" font-size="10.00">application.Main.populate</text>
<text text-anchor="middle" x="786" y="-129" font-family="Helvetica,sans-Serif" font-size="10.00">StartPageModules</text>
</a>
</g>
</g>
<!-- Node4&#45;&gt;Node5 -->
<g id="edge4" class="edge"><title>Node4&#45;&gt;Node5</title>
<path fill="none" stroke="midnightblue" d="M689.636,-137C698.587,-137 707.581,-137 716.278,-137"/>
<polygon fill="midnightblue" stroke="midnightblue" points="689.566,-133.5 679.566,-137 689.566,-140.5 689.566,-133.5"/>
</g>
<!-- Node5&#45;&gt;Node6 -->
<g id="edge5" class="edge"><title>Node5&#45;&gt;Node6</title>
<path fill="none" stroke="midnightblue" d="M824.384,-116.941C858.471,-98.6495 907.349,-72.4226 933.275,-58.511"/>
<polygon fill="midnightblue" stroke="midnightblue" points="822.349,-114.06 815.193,-121.872 825.659,-120.228 822.349,-114.06"/>
</g>
<!-- Node7 -->
<g id="node7" class="node"><title>Node7</title>
<g id="a_node7"><a xlink:href="../../d9/d96/classapplication_1_1_main.html#ad652e3294ffb6519b18d784d5831c76a" target="_top" xlink:title="application.Main.activate\lReturntoStart">
<polygon fill="white" stroke="black" points="1048.5,-34 1048.5,-64 1183.5,-64 1183.5,-34 1048.5,-34"/>
<text text-anchor="start" x="1056.5" y="-52" font-family="Helvetica,sans-Serif" font-size="10.00">application.Main.activate</text>
<text text-anchor="middle" x="1116" y="-41" font-family="Helvetica,sans-Serif" font-size="10.00">ReturntoStart</text>
</a>
</g>
</g>
<!-- Node6&#45;&gt;Node7 -->
<g id="edge6" class="edge"><title>Node6&#45;&gt;Node7</title>
<path fill="none" stroke="midnightblue" d="M1022.08,-49C1030.81,-49 1039.73,-49 1048.42,-49"/>
<polygon fill="midnightblue" stroke="midnightblue" points="1021.94,-45.5001 1011.94,-49 1021.94,-52.5001 1021.94,-45.5001"/>
</g>
<!-- Node8 -->
<g id="node8" class="node"><title>Node8</title>
<g id="a_node8"><a xlink:href="../../d9/d96/classapplication_1_1_main.html#a4c5877fafc53c4fae488f1f30faf294b" target="_top" xlink:title="application.Main.createReturn\lToStartButton">
<polygon fill="white" stroke="black" points="1220,-34 1220,-64 1378,-64 1378,-34 1220,-34"/>
<text text-anchor="start" x="1228" y="-52" font-family="Helvetica,sans-Serif" font-size="10.00">application.Main.createReturn</text>
<text text-anchor="middle" x="1299" y="-41" font-family="Helvetica,sans-Serif" font-size="10.00">ToStartButton</text>
</a>
</g>
</g>
<!-- Node7&#45;&gt;Node8 -->
<g id="edge7" class="edge"><title>Node7&#45;&gt;Node8</title>
<path fill="none" stroke="midnightblue" d="M1193.7,-49C1202.36,-49 1211.19,-49 1219.87,-49"/>
<polygon fill="midnightblue" stroke="midnightblue" points="1193.63,-45.5001 1183.63,-49 1193.63,-52.5001 1193.63,-45.5001"/>
</g>
<!-- Node9 -->
<g id="node9" class="node"><title>Node9</title>
<g id="a_node9"><a xlink:href="../../d9/d96/classapplication_1_1_main.html#abcabe1a32eb7b5054cf34ca0def07531" target="_top" xlink:title="application.Main.populate\lErrorPageModules">
<polygon fill="white" stroke="black" points="1414.5,-78 1414.5,-108 1553.5,-108 1553.5,-78 1414.5,-78"/>
<text text-anchor="start" x="1422.5" y="-96" font-family="Helvetica,sans-Serif" font-size="10.00">application.Main.populate</text>
<text text-anchor="middle" x="1484" y="-85" font-family="Helvetica,sans-Serif" font-size="10.00">ErrorPageModules</text>
</a>
</g>
</g>
<!-- Node8&#45;&gt;Node9 -->
<g id="edge8" class="edge"><title>Node8&#45;&gt;Node9</title>
<path fill="none" stroke="midnightblue" d="M1372.27,-66.3769C1388.22,-70.2112 1404.98,-74.2418 1420.5,-77.9738"/>
<polygon fill="midnightblue" stroke="midnightblue" points="1373.01,-62.954 1362.47,-64.0192 1371.37,-69.7601 1373.01,-62.954"/>
</g>
<!-- Node10 -->
<g id="node10" class="node"><title>Node10</title>
<g id="a_node10"><a xlink:href="../../d9/d96/classapplication_1_1_main.html#a2ddf30fb8360296e1ad3459fe6f920fb" target="_top" xlink:title="application.Main.populate\lGridPageModules">
<polygon fill="white" stroke="black" points="1414.5,-29 1414.5,-59 1553.5,-59 1553.5,-29 1414.5,-29"/>
<text text-anchor="start" x="1422.5" y="-47" font-family="Helvetica,sans-Serif" font-size="10.00">application.Main.populate</text>
<text text-anchor="middle" x="1484" y="-36" font-family="Helvetica,sans-Serif" font-size="10.00">GridPageModules</text>
</a>
</g>
</g>
<!-- Node8&#45;&gt;Node10 -->
<g id="edge10" class="edge"><title>Node8&#45;&gt;Node10</title>
<path fill="none" stroke="midnightblue" d="M1388.36,-46.5858C1397.1,-46.3471 1405.87,-46.1073 1414.37,-45.8753"/>
<polygon fill="midnightblue" stroke="midnightblue" points="1388.04,-43.0931 1378.14,-46.865 1388.23,-50.0905 1388.04,-43.0931"/>
</g>
<!-- Node9&#45;&gt;Node2 -->
<g id="edge9" class="edge"><title>Node9&#45;&gt;Node2</title>
<path fill="none" stroke="midnightblue" d="M1404.01,-93C1329.88,-93 1215.92,-93 1117,-93 599,-93 599,-93 599,-93 498.823,-93 382.7,-93 311.55,-93"/>
<polygon fill="midnightblue" stroke="midnightblue" points="1404.19,-96.5001 1414.19,-93 1404.19,-89.5001 1404.19,-96.5001"/>
</g>
<!-- Node10&#45;&gt;Node11 -->
<g id="edge11" class="edge"><title>Node10&#45;&gt;Node11</title>
<path fill="none" stroke="midnightblue" d="M1563.79,-44C1572.46,-44 1581.26,-44 1589.84,-44"/>
<polygon fill="midnightblue" stroke="midnightblue" points="1563.69,-40.5001 1553.69,-44 1563.69,-47.5001 1563.69,-40.5001"/>
</g>
<!-- Node12 -->
<g id="node12" class="node"><title>Node12</title>
<g id="a_node12"><a xlink:href="../../d9/d96/classapplication_1_1_main.html#ada0f47786d75e28e627d2621d75eaf5a" target="_top" xlink:title="application.Main.activate\lStartButton">
<polygon fill="white" stroke="black" points="1772.5,-54 1772.5,-84 1907.5,-84 1907.5,-54 1772.5,-54"/>
<text text-anchor="start" x="1780.5" y="-72" font-family="Helvetica,sans-Serif" font-size="10.00">application.Main.activate</text>
<text text-anchor="middle" x="1840" y="-61" font-family="Helvetica,sans-Serif" font-size="10.00">StartButton</text>
</a>
</g>
</g>
<!-- Node11&#45;&gt;Node12 -->
<g id="edge12" class="edge"><title>Node11&#45;&gt;Node12</title>
<path fill="none" stroke="midnightblue" d="M1740.66,-54.9515C1751.18,-56.4543 1761.91,-57.9875 1772.24,-59.4623"/>
<polygon fill="midnightblue" stroke="midnightblue" points="1741.05,-51.4722 1730.66,-53.5227 1740.06,-58.4019 1741.05,-51.4722"/>
</g>
<!-- Node13 -->
<g id="node13" class="node"><title>Node13</title>
<g id="a_node13"><a xlink:href="../../d9/d96/classapplication_1_1_main.html#a64e6451d894979853890a235efe37db8" target="_top" xlink:title="application.Main.createStart\lGameButton">
<polygon fill="white" stroke="black" points="1944,-88 1944,-118 2096,-118 2096,-88 1944,-88"/>
<text text-anchor="start" x="1952" y="-106" font-family="Helvetica,sans-Serif" font-size="10.00">application.Main.createStart</text>
<text text-anchor="middle" x="2020" y="-95" font-family="Helvetica,sans-Serif" font-size="10.00">GameButton</text>
</a>
</g>
</g>
<!-- Node12&#45;&gt;Node13 -->
<g id="edge13" class="edge"><title>Node12&#45;&gt;Node13</title>
<path fill="none" stroke="midnightblue" d="M1917.36,-83.5862C1926.15,-85.2643 1935.1,-86.9745 1943.87,-88.6495"/>
<polygon fill="midnightblue" stroke="midnightblue" points="1918.01,-80.1471 1907.53,-81.7087 1916.7,-87.0228 1918.01,-80.1471"/>
</g>
<!-- Node13&#45;&gt;Node5 -->
<g id="edge14" class="edge"><title>Node13&#45;&gt;Node5</title>
<path fill="none" stroke="midnightblue" d="M1933.38,-115.822C1861.61,-125.457 1756.35,-137 1664,-137 1115,-137 1115,-137 1115,-137 1025.45,-137 922.159,-137 855.792,-137"/>
<polygon fill="midnightblue" stroke="midnightblue" points="1934.28,-119.232 1943.72,-114.416 1933.33,-112.296 1934.28,-119.232"/>
</g>
</g>
</svg>
