<?xml version="1.0" encoding="UTF-8" standalone="no"?>
<!DOCTYPE svg PUBLIC "-//W3C//DTD SVG 1.1//EN"
 "http://www.w3.org/Graphics/SVG/1.1/DTD/svg11.dtd">
<!-- Generated by graphviz version 2.36.0 (20140111.2315)
 -->
<!-- Title: application.Main.createButton Pages: 1 -->
<!--zoomable 421 -->
<svg id="main" version="1.1" xmlns="http://www.w3.org/2000/svg" xmlns:xlink="http://www.w3.org/1999/xlink" xml:space="preserve" onload="init(evt)">
<style type="text/css"><![CDATA[
.edge:hover path { stroke: red; }
.edge:hover polygon { stroke: red; fill: red; }
]]></style>
<script type="text/javascript"><![CDATA[
var edges = document.getElementsByTagName('g');
if (edges && edges.length) {
  for (var i=0;i<edges.length;i++) {
    if (edges[i].id.substr(0,4)=='edge') {
      edges[i].setAttribute('class','edge');
    }
  }
}
]]></script>
        <defs>
                <circle id="rim" cx="0" cy="0" r="7"/>
                <circle id="rim2" cx="0" cy="0" r="3.5"/>
                <g id="zoomPlus">
                        <use xlink:href="#rim" fill="#404040">
                                <set attributeName="fill" to="#808080" begin="zoomplus.mouseover" end="zoomplus.mouseout"/>
                        </use>
                        <path d="M-4,0h8M0,-4v8" fill="none" stroke="white" stroke-width="1.5" pointer-events="none"/>
                </g>
                <g id="zoomMin">
                        <use xlink:href="#rim" fill="#404040">
                                <set attributeName="fill" to="#808080" begin="zoomminus.mouseover" end="zoomminus.mouseout"/>
                        </use>
                        <path d="M-4,0h8" fill="none" stroke="white" stroke-width="1.5" pointer-events="none"/>
                </g>
                <g id="dirArrow">
                        <path fill="none" stroke="white" stroke-width="1.5" d="M0,-3.0v7 M-2.5,-0.5L0,-3.0L2.5,-0.5"/>
                </g>
               <g id="resetDef">
                       <use xlink:href="#rim2" fill="#404040">
                               <set attributeName="fill" to="#808080" begin="reset.mouseover" end="reset.mouseout"/>
                       </use>
               </g>
        </defs>

<script type="text/javascript">
var viewWidth = 1850;
var viewHeight = 421;
var sectionId = 'dynsection-15';
</script>
<script xlink:href="../../svgpan.js"/>
<svg id="graph" class="graph">
<g id="viewport">
<title>application.Main.createButton</title>
<polygon fill="white" stroke="none" points="-4,4 -4,-417.041 1846,-417.041 1846,4 -4,4"/>
<!-- Node1 -->
<g id="node1" class="node"><title>Node1</title>
<polygon fill="#bfbfbf" stroke="black" points="0,-119.541 0,-138.541 160,-138.541 160,-119.541 0,-119.541"/>
<text text-anchor="middle" x="80" y="-126.541" font-family="Helvetica,sans-Serif" font-size="10.00">application.Main.createButton</text>
</g>
<!-- Node2 -->
<g id="node2" class="node"><title>Node2</title>
<g id="a_node2"><a xlink:href="../../d9/d96/classapplication_1_1_main.html#ab76c73fb61a4961ceff4e8ec3480b847" target="_top" xlink:title="application.Main.createExit\lButton">
<polygon fill="white" stroke="black" points="196.5,-196.041 196.5,-226.041 341.5,-226.041 341.5,-196.041 196.5,-196.041"/>
<text text-anchor="start" x="204.5" y="-214.041" font-family="Helvetica,sans-Serif" font-size="10.00">application.Main.createExit</text>
<text text-anchor="middle" x="269" y="-203.041" font-family="Helvetica,sans-Serif" font-size="10.00">Button</text>
</a>
</g>
</g>
<!-- Node1&#45;&gt;Node2 -->
<g id="edge1" class="edge"><title>Node1&#45;&gt;Node2</title>
<path fill="none" stroke="midnightblue" d="M112.139,-142.696C145.685,-157.406 198.915,-180.747 233.655,-195.981"/>
<polygon fill="midnightblue" stroke="midnightblue" points="113.381,-139.418 102.817,-138.608 110.57,-145.829 113.381,-139.418"/>
</g>
<!-- Node6 -->
<g id="node6" class="node"><title>Node6</title>
<g id="a_node6"><a xlink:href="../../d9/d96/classapplication_1_1_main.html#a4c5877fafc53c4fae488f1f30faf294b" target="_top" xlink:title="application.Main.createReturn\lToStartButton">
<polygon fill="white" stroke="black" points="958,-297.041 958,-327.041 1116,-327.041 1116,-297.041 958,-297.041"/>
<text text-anchor="start" x="966" y="-315.041" font-family="Helvetica,sans-Serif" font-size="10.00">application.Main.createReturn</text>
<text text-anchor="middle" x="1037" y="-304.041" font-family="Helvetica,sans-Serif" font-size="10.00">ToStartButton</text>
</a>
</g>
</g>
<!-- Node1&#45;&gt;Node6 -->
<g id="edge23" class="edge"><title>Node1&#45;&gt;Node6</title>
<path fill="none" stroke="midnightblue" d="M94.7517,-146.827C114.426,-170.924 153.011,-213.411 196,-235.041 450.444,-363.061 803.137,-340.998 957.911,-323.009"/>
<polygon fill="midnightblue" stroke="midnightblue" points="97.3605,-144.485 88.3859,-138.854 91.8901,-148.852 97.3605,-144.485"/>
</g>
<!-- Node10 -->
<g id="node10" class="node"><title>Node10</title>
<g id="a_node10"><a xlink:href="../../d9/d96/classapplication_1_1_main.html#a64e6451d894979853890a235efe37db8" target="_top" xlink:title="application.Main.createStart\lGameButton">
<polygon fill="white" stroke="black" points="1686,-117.041 1686,-147.041 1838,-147.041 1838,-117.041 1686,-117.041"/>
<text text-anchor="start" x="1694" y="-135.041" font-family="Helvetica,sans-Serif" font-size="10.00">application.Main.createStart</text>
<text text-anchor="middle" x="1762" y="-124.041" font-family="Helvetica,sans-Serif" font-size="10.00">GameButton</text>
</a>
</g>
</g>
<!-- Node1&#45;&gt;Node10 -->
<g id="edge24" class="edge"><title>Node1&#45;&gt;Node10</title>
<path fill="none" stroke="midnightblue" d="M98.3034,-112.36C119.517,-92.9316 157.424,-61.4161 196,-45.0408 303.547,0.612518 338.164,-0.0408346 455,-0.0408346 455,-0.0408346 455,-0.0408346 1402,-0.0408346 1536.14,-0.0408346 1682.11,-82.2266 1737.72,-116.899"/>
<polygon fill="midnightblue" stroke="midnightblue" points="95.6926,-110.009 90.7757,-119.394 100.472,-115.124 95.6926,-110.009"/>
</g>
<!-- Node14 -->
<g id="node14" class="node"><title>Node14</title>
<g id="a_node14"><a xlink:href="../../d9/d96/classapplication_1_1_main.html#a18021492af2e457d39edcbd16dc0d3c8" target="_top" xlink:title="application.Main.createImport\lXMLButton">
<polygon fill="white" stroke="black" points="1682.5,-325.041 1682.5,-355.041 1841.5,-355.041 1841.5,-325.041 1682.5,-325.041"/>
<text text-anchor="start" x="1690.5" y="-343.041" font-family="Helvetica,sans-Serif" font-size="10.00">application.Main.createImport</text>
<text text-anchor="middle" x="1762" y="-332.041" font-family="Helvetica,sans-Serif" font-size="10.00">XMLButton</text>
</a>
</g>
</g>
<!-- Node1&#45;&gt;Node14 -->
<g id="edge18" class="edge"><title>Node1&#45;&gt;Node14</title>
<path fill="none" stroke="midnightblue" d="M92.4187,-147.333C133.186,-210.123 278.578,-413.041 455,-413.041 455,-413.041 455,-413.041 1402,-413.041 1517.28,-413.041 1649.28,-376.448 1716.54,-355.078"/>
<polygon fill="midnightblue" stroke="midnightblue" points="95.3111,-145.359 86.9775,-138.817 89.4124,-149.128 95.3111,-145.359"/>
</g>
<!-- Node15 -->
<g id="node15" class="node"><title>Node15</title>
<g id="a_node15"><a xlink:href="../../d9/d96/classapplication_1_1_main.html#ac07fa289b74f3cc215c91e40cc6b7d51" target="_top" xlink:title="application.Main.createPause\lButton">
<polygon fill="white" stroke="black" points="378,-29.0408 378,-59.0408 534,-59.0408 534,-29.0408 378,-29.0408"/>
<text text-anchor="start" x="386" y="-47.0408" font-family="Helvetica,sans-Serif" font-size="10.00">application.Main.createPause</text>
<text text-anchor="middle" x="456" y="-36.0408" font-family="Helvetica,sans-Serif" font-size="10.00">Button</text>
</a>
</g>
</g>
<!-- Node1&#45;&gt;Node15 -->
<g id="edge19" class="edge"><title>Node1&#45;&gt;Node15</title>
<path fill="none" stroke="midnightblue" d="M105.625,-114.301C128.288,-101.468 163.252,-83.4829 196,-74.0408 255.587,-56.8605 325.573,-49.4767 377.762,-46.3244"/>
<polygon fill="midnightblue" stroke="midnightblue" points="103.621,-111.417 96.7076,-119.446 107.119,-117.48 103.621,-111.417"/>
</g>
<!-- Node16 -->
<g id="node16" class="node"><title>Node16</title>
<g id="a_node16"><a xlink:href="../../d9/d96/classapplication_1_1_main.html#a728043cf75c818dd15d50b189fcb317d" target="_top" xlink:title="application.Main.createResume\lButton">
<polygon fill="white" stroke="black" points="570,-114.041 570,-144.041 736,-144.041 736,-114.041 570,-114.041"/>
<text text-anchor="start" x="578" y="-132.041" font-family="Helvetica,sans-Serif" font-size="10.00">application.Main.createResume</text>
<text text-anchor="middle" x="653" y="-121.041" font-family="Helvetica,sans-Serif" font-size="10.00">Button</text>
</a>
</g>
</g>
<!-- Node1&#45;&gt;Node16 -->
<g id="edge21" class="edge"><title>Node1&#45;&gt;Node16</title>
<path fill="none" stroke="midnightblue" d="M170.125,-129.041C279.604,-129.041 463.818,-129.041 569.953,-129.041"/>
<polygon fill="midnightblue" stroke="midnightblue" points="170.095,-125.541 160.095,-129.041 170.095,-132.541 170.095,-125.541"/>
</g>
<!-- Node17 -->
<g id="node17" class="node"><title>Node17</title>
<g id="a_node17"><a xlink:href="../../d9/d96/classapplication_1_1_main.html#a17e3960f589de0ae82b734128978d480" target="_top" xlink:title="application.Main.createStep\lThroughButton">
<polygon fill="white" stroke="black" points="772,-73.0408 772,-103.041 922,-103.041 922,-73.0408 772,-73.0408"/>
<text text-anchor="start" x="780" y="-91.0408" font-family="Helvetica,sans-Serif" font-size="10.00">application.Main.createStep</text>
<text text-anchor="middle" x="847" y="-80.0408" font-family="Helvetica,sans-Serif" font-size="10.00">ThroughButton</text>
</a>
</g>
</g>
<!-- Node1&#45;&gt;Node17 -->
<g id="edge25" class="edge"><title>Node1&#45;&gt;Node17</title>
<path fill="none" stroke="midnightblue" d="M170.61,-124.238C323.141,-116.063 630.411,-99.5953 771.764,-92.0195"/>
<polygon fill="midnightblue" stroke="midnightblue" points="170.143,-120.758 160.345,-124.788 170.518,-127.748 170.143,-120.758"/>
</g>
<!-- Node3 -->
<g id="node3" class="node"><title>Node3</title>
<g id="a_node3"><a xlink:href="../../d9/d96/classapplication_1_1_main.html#a5fee6c1b05965eca9205a99e3245a5fb" target="_top" xlink:title="application.Main.populate\lStartPageModules">
<polygon fill="white" stroke="black" points="386.5,-218.041 386.5,-248.041 525.5,-248.041 525.5,-218.041 386.5,-218.041"/>
<text text-anchor="start" x="394.5" y="-236.041" font-family="Helvetica,sans-Serif" font-size="10.00">application.Main.populate</text>
<text text-anchor="middle" x="456" y="-225.041" font-family="Helvetica,sans-Serif" font-size="10.00">StartPageModules</text>
</a>
</g>
</g>
<!-- Node2&#45;&gt;Node3 -->
<g id="edge2" class="edge"><title>Node2&#45;&gt;Node3</title>
<path fill="none" stroke="midnightblue" d="M351.644,-220.75C363.246,-222.13 375.079,-223.537 386.399,-224.883"/>
<polygon fill="midnightblue" stroke="midnightblue" points="351.869,-217.252 341.526,-219.547 351.043,-224.203 351.869,-217.252"/>
</g>
<!-- Node7 -->
<g id="node7" class="node"><title>Node7</title>
<g id="a_node7"><a xlink:href="../../d9/d96/classapplication_1_1_main.html#a2ddf30fb8360296e1ad3459fe6f920fb" target="_top" xlink:title="application.Main.populate\lGridPageModules">
<polygon fill="white" stroke="black" points="1152.5,-117.041 1152.5,-147.041 1291.5,-147.041 1291.5,-117.041 1152.5,-117.041"/>
<text text-anchor="start" x="1160.5" y="-135.041" font-family="Helvetica,sans-Serif" font-size="10.00">application.Main.populate</text>
<text text-anchor="middle" x="1222" y="-124.041" font-family="Helvetica,sans-Serif" font-size="10.00">GridPageModules</text>
</a>
</g>
</g>
<!-- Node2&#45;&gt;Node7 -->
<g id="edge16" class="edge"><title>Node2&#45;&gt;Node7</title>
<path fill="none" stroke="midnightblue" d="M351.74,-198.175C428.929,-187.151 548.034,-173.041 652,-173.041 652,-173.041 652,-173.041 848,-173.041 954.678,-173.041 1077.5,-156.266 1152.16,-144.176"/>
<polygon fill="midnightblue" stroke="midnightblue" points="350.999,-194.746 341.602,-199.64 352,-201.674 350.999,-194.746"/>
</g>
<!-- Node11 -->
<g id="node11" class="node"><title>Node11</title>
<g id="a_node11"><a xlink:href="../../d9/d96/classapplication_1_1_main.html#abcabe1a32eb7b5054cf34ca0def07531" target="_top" xlink:title="application.Main.populate\lErrorPageModules">
<polygon fill="white" stroke="black" points="1152.5,-325.041 1152.5,-355.041 1291.5,-355.041 1291.5,-325.041 1152.5,-325.041"/>
<text text-anchor="start" x="1160.5" y="-343.041" font-family="Helvetica,sans-Serif" font-size="10.00">application.Main.populate</text>
<text text-anchor="middle" x="1222" y="-332.041" font-family="Helvetica,sans-Serif" font-size="10.00">ErrorPageModules</text>
</a>
</g>
</g>
<!-- Node2&#45;&gt;Node11 -->
<g id="edge17" class="edge"><title>Node2&#45;&gt;Node11</title>
<path fill="none" stroke="midnightblue" d="M311.472,-230.464C331.326,-239.306 355.603,-249.463 378,-257.041 624.434,-340.423 698.119,-324.029 958,-336.041 1023.92,-339.087 1099.21,-339.969 1152.3,-340.159"/>
<polygon fill="midnightblue" stroke="midnightblue" points="312.663,-227.162 302.108,-226.246 309.788,-233.544 312.663,-227.162"/>
</g>
<!-- Node4 -->
<g id="node4" class="node"><title>Node4</title>
<g id="a_node4"><a xlink:href="../../d9/d96/classapplication_1_1_main.html#a4e5ad4e3de8bbd8654120180a94e870d" target="_top" xlink:title="application.Main.start">
<polygon fill="white" stroke="black" points="593.5,-277.541 593.5,-296.541 712.5,-296.541 712.5,-277.541 593.5,-277.541"/>
<text text-anchor="middle" x="653" y="-284.541" font-family="Helvetica,sans-Serif" font-size="10.00">application.Main.start</text>
</a>
</g>
</g>
<!-- Node3&#45;&gt;Node4 -->
<g id="edge3" class="edge"><title>Node3&#45;&gt;Node4</title>
<path fill="none" stroke="midnightblue" d="M521.104,-250.793C553.264,-259.699 590.939,-270.132 617.59,-277.512"/>
<polygon fill="midnightblue" stroke="midnightblue" points="521.89,-247.379 511.318,-248.083 520.022,-254.125 521.89,-247.379"/>
</g>
<!-- Node5 -->
<g id="node5" class="node"><title>Node5</title>
<g id="a_node5"><a xlink:href="../../d9/d96/classapplication_1_1_main.html#ad652e3294ffb6519b18d784d5831c76a" target="_top" xlink:title="application.Main.activate\lReturntoStart">
<polygon fill="white" stroke="black" points="779.5,-278.041 779.5,-308.041 914.5,-308.041 914.5,-278.041 779.5,-278.041"/>
<text text-anchor="start" x="787.5" y="-296.041" font-family="Helvetica,sans-Serif" font-size="10.00">application.Main.activate</text>
<text text-anchor="middle" x="847" y="-285.041" font-family="Helvetica,sans-Serif" font-size="10.00">ReturntoStart</text>
</a>
</g>
</g>
<!-- Node4&#45;&gt;Node5 -->
<g id="edge4" class="edge"><title>Node4&#45;&gt;Node5</title>
<path fill="none" stroke="midnightblue" d="M722.712,-289.188C741.13,-289.764 761.009,-290.385 779.315,-290.957"/>
<polygon fill="midnightblue" stroke="midnightblue" points="722.754,-285.688 712.65,-288.874 722.535,-292.684 722.754,-285.688"/>
</g>
<!-- Node5&#45;&gt;Node6 -->
<g id="edge5" class="edge"><title>Node5&#45;&gt;Node6</title>
<path fill="none" stroke="midnightblue" d="M924.554,-300.778C935.572,-301.891 946.922,-303.038 957.969,-304.155"/>
<polygon fill="midnightblue" stroke="midnightblue" points="924.848,-297.29 914.546,-299.766 924.144,-304.254 924.848,-297.29"/>
</g>
<!-- Node6&#45;&gt;Node7 -->
<g id="edge6" class="edge"><title>Node6&#45;&gt;Node7</title>
<path fill="none" stroke="midnightblue" d="M1060.77,-289.645C1098.59,-252.443 1173.39,-178.868 1205.63,-147.162"/>
<polygon fill="midnightblue" stroke="midnightblue" points="1057.96,-287.496 1053.29,-297.004 1062.87,-292.487 1057.96,-287.496"/>
</g>
<!-- Node6&#45;&gt;Node11 -->
<g id="edge11" class="edge"><title>Node6&#45;&gt;Node11</title>
<path fill="none" stroke="midnightblue" d="M1126.07,-325.517C1134.91,-326.868 1143.78,-328.226 1152.37,-329.539"/>
<polygon fill="midnightblue" stroke="midnightblue" points="1126.55,-322.049 1116.14,-323.997 1125.49,-328.969 1126.55,-322.049"/>
</g>
<!-- Node8 -->
<g id="node8" class="node"><title>Node8</title>
<g id="a_node8"><a xlink:href="../../d9/d96/classapplication_1_1_main.html#adc868cfca1990edad66af3dcb8cf4349" target="_top" xlink:title="application.Main.playGame">
<polygon fill="white" stroke="black" points="1328,-122.541 1328,-141.541 1474,-141.541 1474,-122.541 1328,-122.541"/>
<text text-anchor="middle" x="1401" y="-129.541" font-family="Helvetica,sans-Serif" font-size="10.00">application.Main.playGame</text>
</a>
</g>
</g>
<!-- Node7&#45;&gt;Node8 -->
<g id="edge7" class="edge"><title>Node7&#45;&gt;Node8</title>
<path fill="none" stroke="midnightblue" d="M1301.79,-132.041C1310.46,-132.041 1319.26,-132.041 1327.84,-132.041"/>
<polygon fill="midnightblue" stroke="midnightblue" points="1301.69,-128.541 1291.69,-132.041 1301.69,-135.541 1301.69,-128.541"/>
</g>
<!-- Node9 -->
<g id="node9" class="node"><title>Node9</title>
<g id="a_node9"><a xlink:href="../../d9/d96/classapplication_1_1_main.html#ada0f47786d75e28e627d2621d75eaf5a" target="_top" xlink:title="application.Main.activate\lStartButton">
<polygon fill="white" stroke="black" points="1510.5,-117.041 1510.5,-147.041 1645.5,-147.041 1645.5,-117.041 1510.5,-117.041"/>
<text text-anchor="start" x="1518.5" y="-135.041" font-family="Helvetica,sans-Serif" font-size="10.00">application.Main.activate</text>
<text text-anchor="middle" x="1578" y="-124.041" font-family="Helvetica,sans-Serif" font-size="10.00">StartButton</text>
</a>
</g>
</g>
<!-- Node8&#45;&gt;Node9 -->
<g id="edge8" class="edge"><title>Node8&#45;&gt;Node9</title>
<path fill="none" stroke="midnightblue" d="M1484.35,-132.041C1493.05,-132.041 1501.82,-132.041 1510.31,-132.041"/>
<polygon fill="midnightblue" stroke="midnightblue" points="1484.19,-128.541 1474.19,-132.041 1484.19,-135.541 1484.19,-128.541"/>
</g>
<!-- Node9&#45;&gt;Node10 -->
<g id="edge9" class="edge"><title>Node9&#45;&gt;Node10</title>
<path fill="none" stroke="midnightblue" d="M1655.98,-132.041C1665.91,-132.041 1676.07,-132.041 1685.97,-132.041"/>
<polygon fill="midnightblue" stroke="midnightblue" points="1655.74,-128.541 1645.74,-132.041 1655.74,-135.541 1655.74,-128.541"/>
</g>
<!-- Node10&#45;&gt;Node3 -->
<g id="edge10" class="edge"><title>Node10&#45;&gt;Node3</title>
<path fill="none" stroke="midnightblue" d="M1710.47,-150.423C1641.67,-173.764 1514.22,-211.041 1402,-211.041 846,-211.041 846,-211.041 846,-211.041 733.713,-211.041 603.485,-220.291 525.797,-226.795"/>
<polygon fill="midnightblue" stroke="midnightblue" points="1711.86,-153.644 1720.18,-147.086 1709.59,-147.024 1711.86,-153.644"/>
</g>
<!-- Node12 -->
<g id="node12" class="node"><title>Node12</title>
<g id="a_node12"><a xlink:href="../../d9/d96/classapplication_1_1_main.html#a81e70f73d65beae34c459628791cc5d4" target="_top" xlink:title="application.Main.activate\lErrorPage">
<polygon fill="white" stroke="black" points="1333.5,-325.041 1333.5,-355.041 1468.5,-355.041 1468.5,-325.041 1333.5,-325.041"/>
<text text-anchor="start" x="1341.5" y="-343.041" font-family="Helvetica,sans-Serif" font-size="10.00">application.Main.activate</text>
<text text-anchor="middle" x="1401" y="-332.041" font-family="Helvetica,sans-Serif" font-size="10.00">ErrorPage</text>
</a>
</g>
</g>
<!-- Node11&#45;&gt;Node12 -->
<g id="edge12" class="edge"><title>Node11&#45;&gt;Node12</title>
<path fill="none" stroke="midnightblue" d="M1301.74,-340.041C1312.3,-340.041 1323.06,-340.041 1333.39,-340.041"/>
<polygon fill="midnightblue" stroke="midnightblue" points="1301.69,-336.541 1291.69,-340.041 1301.69,-343.541 1301.69,-336.541"/>
</g>
<!-- Node13 -->
<g id="node13" class="node"><title>Node13</title>
<g id="a_node13"><a xlink:href="../../d9/d96/classapplication_1_1_main.html#aef0593911aa3cbc594ac75bbb8d6a2b0" target="_top" xlink:title="application.Main.activate\lImportXMLButton">
<polygon fill="white" stroke="black" points="1510.5,-325.041 1510.5,-355.041 1645.5,-355.041 1645.5,-325.041 1510.5,-325.041"/>
<text text-anchor="start" x="1518.5" y="-343.041" font-family="Helvetica,sans-Serif" font-size="10.00">application.Main.activate</text>
<text text-anchor="middle" x="1578" y="-332.041" font-family="Helvetica,sans-Serif" font-size="10.00">ImportXMLButton</text>
</a>
</g>
</g>
<!-- Node12&#45;&gt;Node13 -->
<g id="edge13" class="edge"><title>Node12&#45;&gt;Node13</title>
<path fill="none" stroke="midnightblue" d="M1478.66,-340.041C1489.18,-340.041 1499.91,-340.041 1510.24,-340.041"/>
<polygon fill="midnightblue" stroke="midnightblue" points="1478.66,-336.541 1468.66,-340.041 1478.66,-343.541 1478.66,-336.541"/>
</g>
<!-- Node13&#45;&gt;Node14 -->
<g id="edge14" class="edge"><title>Node13&#45;&gt;Node14</title>
<path fill="none" stroke="midnightblue" d="M1655.87,-340.041C1664.59,-340.041 1673.49,-340.041 1682.24,-340.041"/>
<polygon fill="midnightblue" stroke="midnightblue" points="1655.74,-336.541 1645.74,-340.041 1655.74,-343.541 1655.74,-336.541"/>
</g>
<!-- Node14&#45;&gt;Node3 -->
<g id="edge15" class="edge"><title>Node14&#45;&gt;Node3</title>
<path fill="none" stroke="midnightblue" d="M1716.69,-321.227C1649.79,-294.578 1518.44,-249.041 1402,-249.041 846,-249.041 846,-249.041 846,-249.041 733.798,-249.041 603.544,-242.313 525.828,-237.583"/>
<polygon fill="midnightblue" stroke="midnightblue" points="1715.5,-324.521 1726.08,-325.014 1718.11,-318.029 1715.5,-324.521"/>
</g>
<!-- Node15&#45;&gt;Node7 -->
<g id="edge20" class="edge"><title>Node15&#45;&gt;Node7</title>
<path fill="none" stroke="midnightblue" d="M544.314,-41.8873C671.932,-40.7872 915.97,-46.4709 1116,-97.0408 1137.61,-102.504 1161.19,-110.202 1180.53,-116.989"/>
<polygon fill="midnightblue" stroke="midnightblue" points="544.168,-38.3885 534.205,-41.9908 544.24,-45.3881 544.168,-38.3885"/>
</g>
<!-- Node16&#45;&gt;Node7 -->
<g id="edge22" class="edge"><title>Node16&#45;&gt;Node7</title>
<path fill="none" stroke="midnightblue" d="M746.222,-129.529C859.905,-130.13 1050.49,-131.139 1152.18,-131.677"/>
<polygon fill="midnightblue" stroke="midnightblue" points="746.162,-126.029 736.144,-129.475 746.125,-133.028 746.162,-126.029"/>
</g>
<!-- Node17&#45;&gt;Node7 -->
<g id="edge26" class="edge"><title>Node17&#45;&gt;Node7</title>
<path fill="none" stroke="midnightblue" d="M932.272,-97.014C985.084,-102.751 1054.55,-110.506 1116,-118.041 1127.77,-119.485 1140.28,-121.09 1152.4,-122.683"/>
<polygon fill="midnightblue" stroke="midnightblue" points="932.594,-93.5285 922.276,-95.9304 931.84,-100.488 932.594,-93.5285"/>
</g>
</g>
</svg>
        <g id="navigator" transform="translate(0 0)" fill="#404254">
                <rect fill="#f2f5e9" fill-opacity="0.5" stroke="#606060" stroke-width=".5" x="0" y="0" width="60" height="60"/>
                <use id="zoomplus" xlink:href="#zoomPlus" x="17" y="9" onmousedown="handleZoom(evt,'in')"/>
                <use id="zoomminus" xlink:href="#zoomMin" x="42" y="9" onmousedown="handleZoom(evt,'out')"/>
                <use id="reset" xlink:href="#resetDef" x="30" y="36" onmousedown="handleReset()"/>
                <g id="arrowUp" xlink:href="#dirArrow" transform="translate(30 24)" onmousedown="handlePan(0,-1)">
                  <use xlink:href="#rim" fill="#404040">
                        <set attributeName="fill" to="#808080" begin="arrowUp.mouseover" end="arrowUp.mouseout"/>
                  </use>
                  <path fill="none" stroke="white" stroke-width="1.5" d="M0,-3.0v7 M-2.5,-0.5L0,-3.0L2.5,-0.5"/>
                </g>
                <g id="arrowRight" xlink:href="#dirArrow" transform="rotate(90) translate(36 -43)" onmousedown="handlePan(1,0)">
                  <use xlink:href="#rim" fill="#404040">
                        <set attributeName="fill" to="#808080" begin="arrowRight.mouseover" end="arrowRight.mouseout"/>
                  </use>
                  <path fill="none" stroke="white" stroke-width="1.5" d="M0,-3.0v7 M-2.5,-0.5L0,-3.0L2.5,-0.5"/>
                </g>
                <g id="arrowDown" xlink:href="#dirArrow" transform="rotate(180) translate(-30 -48)" onmousedown="handlePan(0,1)">
                  <use xlink:href="#rim" fill="#404040">
                        <set attributeName="fill" to="#808080" begin="arrowDown.mouseover" end="arrowDown.mouseout"/>
                  </use>
                  <path fill="none" stroke="white" stroke-width="1.5" d="M0,-3.0v7 M-2.5,-0.5L0,-3.0L2.5,-0.5"/>
                </g>
                <g id="arrowLeft" xlink:href="#dirArrow" transform="rotate(270) translate(-36 17)" onmousedown="handlePan(-1,0)">
                  <use xlink:href="#rim" fill="#404040">
                        <set attributeName="fill" to="#808080" begin="arrowLeft.mouseover" end="arrowLeft.mouseout"/>
                  </use>
                  <path fill="none" stroke="white" stroke-width="1.5" d="M0,-3.0v7 M-2.5,-0.5L0,-3.0L2.5,-0.5"/>
                </g>
        </g>
        <svg viewBox="0 0 15 15" width="100%" height="30px" preserveAspectRatio="xMaxYMin meet">
         <g id="arrow_out" transform="scale(0.3 0.3)">
          <a xlink:href="classapplication_1_1_main_a2a2b201e08149dcf815a49c57974b0e5_icgraph_org.svg" target="_base">
           <rect id="button" ry="5" rx="5" y="6" x="6" height="38" width="38"
                fill="#f2f5e9" fill-opacity="0.5" stroke="#606060" stroke-width="1.0"/>
           <path id="arrow"
             d="M 11.500037,31.436501 C 11.940474,20.09759 22.043105,11.32322 32.158766,21.979434 L 37.068811,17.246167 C 37.068811,17.246167 37.088388,32 37.088388,32 L 22.160133,31.978069 C 22.160133,31.978069 26.997745,27.140456 26.997745,27.140456 C 18.528582,18.264221 13.291696,25.230495 11.500037,31.436501 z"
             style="fill:#404040;"/>
          </a>
         </g>
        </svg>
</svg>
