<?xml version="1.0" encoding="UTF-8" standalone="no"?>
<!DOCTYPE svg PUBLIC "-//W3C//DTD SVG 1.1//EN"
 "http://www.w3.org/Graphics/SVG/1.1/DTD/svg11.dtd">
<!-- Generated by graphviz version 2.36.0 (20140111.2315)
 -->
<!-- Title: application.Main.createExitButton Pages: 1 -->
<svg width="350pt" height="77pt"
 viewBox="0.00 0.00 350.00 77.00" xmlns="http://www.w3.org/2000/svg" xmlns:xlink="http://www.w3.org/1999/xlink">
<g id="graph0" class="graph" transform="scale(1 1) rotate(0) translate(4 73)">
<title>application.Main.createExitButton</title>
<polygon fill="white" stroke="none" points="-4,4 -4,-73 346,-73 346,4 -4,4"/>
<!-- Node1 -->
<g id="node1" class="node"><title>Node1</title>
<polygon fill="#bfbfbf" stroke="black" points="0.5,-17 0.5,-47 145.5,-47 145.5,-17 0.5,-17"/>
<text text-anchor="start" x="8.5" y="-35" font-family="Helvetica,sans-Serif" font-size="10.00">application.Main.createExit</text>
<text text-anchor="middle" x="73" y="-24" font-family="Helvetica,sans-Serif" font-size="10.00">Button</text>
</g>
<!-- Node2 -->
<g id="node2" class="node"><title>Node2</title>
<g id="a_node2"><a xlink:href="../../d9/d96/classapplication_1_1_main.html#a8c60a425d03bb92fd75e05f3033a09a7" target="_top" xlink:title="application.Main.activate\lExitAppButton">
<polygon fill="white" stroke="black" points="194.5,-39 194.5,-69 329.5,-69 329.5,-39 194.5,-39"/>
<text text-anchor="start" x="202.5" y="-57" font-family="Helvetica,sans-Serif" font-size="10.00">application.Main.activate</text>
<text text-anchor="middle" x="262" y="-46" font-family="Helvetica,sans-Serif" font-size="10.00">ExitAppButton</text>
</a>
</g>
</g>
<!-- Node1&#45;&gt;Node2 -->
<g id="edge1" class="edge"><title>Node1&#45;&gt;Node2</title>
<path fill="none" stroke="midnightblue" d="M145.764,-40.4429C158.361,-41.9249 171.516,-43.4724 184.242,-44.9697"/>
<polygon fill="midnightblue" stroke="midnightblue" points="183.998,-48.465 194.338,-46.1575 184.816,-41.5129 183.998,-48.465"/>
</g>
<!-- Node3 -->
<g id="node3" class="node"><title>Node3</title>
<g id="a_node3"><a xlink:href="../../d9/d96/classapplication_1_1_main.html#a2a2b201e08149dcf815a49c57974b0e5" target="_top" xlink:title="application.Main.createButton">
<polygon fill="white" stroke="black" points="182,-0.5 182,-19.5 342,-19.5 342,-0.5 182,-0.5"/>
<text text-anchor="middle" x="262" y="-7.5" font-family="Helvetica,sans-Serif" font-size="10.00">application.Main.createButton</text>
</a>
</g>
</g>
<!-- Node1&#45;&gt;Node3 -->
<g id="edge2" class="edge"><title>Node1&#45;&gt;Node3</title>
<path fill="none" stroke="midnightblue" d="M145.764,-23.5571C154.278,-22.5556 163.046,-21.524 171.764,-20.4983"/>
<polygon fill="midnightblue" stroke="midnightblue" points="172.435,-23.9436 181.958,-19.2991 171.617,-16.9916 172.435,-23.9436"/>
</g>
</g>
</svg>
