<?xml version="1.0" encoding="UTF-8" standalone="no"?>
<!DOCTYPE svg PUBLIC "-//W3C//DTD SVG 1.1//EN"
 "http://www.w3.org/Graphics/SVG/1.1/DTD/svg11.dtd">
<!-- Generated by graphviz version 2.36.0 (20140111.2315)
 -->
<!-- Title: application.Main.createReturnToStartButton Pages: 1 -->
<svg width="1396pt" height="116pt"
 viewBox="0.00 0.00 1396.00 116.00" xmlns="http://www.w3.org/2000/svg" xmlns:xlink="http://www.w3.org/1999/xlink">
<g id="graph0" class="graph" transform="scale(1 1) rotate(0) translate(4 112)">
<title>application.Main.createReturnToStartButton</title>
<polygon fill="white" stroke="none" points="-4,4 -4,-112 1392,-112 1392,4 -4,4"/>
<!-- Node1 -->
<g id="node1" class="node"><title>Node1</title>
<polygon fill="#bfbfbf" stroke="black" points="0,-29 0,-59 158,-59 158,-29 0,-29"/>
<text text-anchor="start" x="8" y="-47" font-family="Helvetica,sans-Serif" font-size="10.00">application.Main.createReturn</text>
<text text-anchor="middle" x="79" y="-36" font-family="Helvetica,sans-Serif" font-size="10.00">ToStartButton</text>
</g>
<!-- Node2 -->
<g id="node2" class="node"><title>Node2</title>
<g id="a_node2"><a xlink:href="../../d9/d96/classapplication_1_1_main.html#abcabe1a32eb7b5054cf34ca0def07531" target="_top" xlink:title="application.Main.populate\lErrorPageModules">
<polygon fill="white" stroke="black" points="194.5,-78 194.5,-108 333.5,-108 333.5,-78 194.5,-78"/>
<text text-anchor="start" x="202.5" y="-96" font-family="Helvetica,sans-Serif" font-size="10.00">application.Main.populate</text>
<text text-anchor="middle" x="264" y="-85" font-family="Helvetica,sans-Serif" font-size="10.00">ErrorPageModules</text>
</a>
</g>
</g>
<!-- Node1&#45;&gt;Node2 -->
<g id="edge1" class="edge"><title>Node1&#45;&gt;Node2</title>
<path fill="none" stroke="midnightblue" d="M146.285,-61.7485C166.119,-67.0591 187.667,-72.8288 206.787,-77.9484"/>
<polygon fill="midnightblue" stroke="midnightblue" points="146.964,-58.3071 136.399,-59.1014 145.154,-65.0689 146.964,-58.3071"/>
</g>
<!-- Node9 -->
<g id="node9" class="node"><title>Node9</title>
<g id="a_node9"><a xlink:href="../../d9/d96/classapplication_1_1_main.html#a2ddf30fb8360296e1ad3459fe6f920fb" target="_top" xlink:title="application.Main.populate\lGridPageModules">
<polygon fill="white" stroke="black" points="194.5,-29 194.5,-59 333.5,-59 333.5,-29 194.5,-29"/>
<text text-anchor="start" x="202.5" y="-47" font-family="Helvetica,sans-Serif" font-size="10.00">application.Main.populate</text>
<text text-anchor="middle" x="264" y="-36" font-family="Helvetica,sans-Serif" font-size="10.00">GridPageModules</text>
</a>
</g>
</g>
<!-- Node1&#45;&gt;Node9 -->
<g id="edge9" class="edge"><title>Node1&#45;&gt;Node9</title>
<path fill="none" stroke="midnightblue" d="M168.359,-44C177.096,-44 185.871,-44 194.365,-44"/>
<polygon fill="midnightblue" stroke="midnightblue" points="168.139,-40.5001 158.139,-44 168.139,-47.5001 168.139,-40.5001"/>
</g>
<!-- Node3 -->
<g id="node3" class="node"><title>Node3</title>
<g id="a_node3"><a xlink:href="../../d9/d96/classapplication_1_1_main.html#a81e70f73d65beae34c459628791cc5d4" target="_top" xlink:title="application.Main.activate\lErrorPage">
<polygon fill="white" stroke="black" points="375.5,-78 375.5,-108 510.5,-108 510.5,-78 375.5,-78"/>
<text text-anchor="start" x="383.5" y="-96" font-family="Helvetica,sans-Serif" font-size="10.00">application.Main.activate</text>
<text text-anchor="middle" x="443" y="-85" font-family="Helvetica,sans-Serif" font-size="10.00">ErrorPage</text>
</a>
</g>
</g>
<!-- Node2&#45;&gt;Node3 -->
<g id="edge2" class="edge"><title>Node2&#45;&gt;Node3</title>
<path fill="none" stroke="midnightblue" d="M343.739,-93C354.305,-93 365.058,-93 375.388,-93"/>
<polygon fill="midnightblue" stroke="midnightblue" points="343.686,-89.5001 333.686,-93 343.686,-96.5001 343.686,-89.5001"/>
</g>
<!-- Node4 -->
<g id="node4" class="node"><title>Node4</title>
<g id="a_node4"><a xlink:href="../../d9/d96/classapplication_1_1_main.html#aef0593911aa3cbc594ac75bbb8d6a2b0" target="_top" xlink:title="application.Main.activate\lImportXMLButton">
<polygon fill="white" stroke="black" points="552.5,-78 552.5,-108 687.5,-108 687.5,-78 552.5,-78"/>
<text text-anchor="start" x="560.5" y="-96" font-family="Helvetica,sans-Serif" font-size="10.00">application.Main.activate</text>
<text text-anchor="middle" x="620" y="-85" font-family="Helvetica,sans-Serif" font-size="10.00">ImportXMLButton</text>
</a>
</g>
</g>
<!-- Node3&#45;&gt;Node4 -->
<g id="edge3" class="edge"><title>Node3&#45;&gt;Node4</title>
<path fill="none" stroke="midnightblue" d="M520.66,-93C531.18,-93 541.913,-93 552.236,-93"/>
<polygon fill="midnightblue" stroke="midnightblue" points="520.659,-89.5001 510.659,-93 520.659,-96.5001 520.659,-89.5001"/>
</g>
<!-- Node5 -->
<g id="node5" class="node"><title>Node5</title>
<g id="a_node5"><a xlink:href="../../d9/d96/classapplication_1_1_main.html#a18021492af2e457d39edcbd16dc0d3c8" target="_top" xlink:title="application.Main.createImport\lXMLButton">
<polygon fill="white" stroke="black" points="724.5,-78 724.5,-108 883.5,-108 883.5,-78 724.5,-78"/>
<text text-anchor="start" x="732.5" y="-96" font-family="Helvetica,sans-Serif" font-size="10.00">application.Main.createImport</text>
<text text-anchor="middle" x="804" y="-85" font-family="Helvetica,sans-Serif" font-size="10.00">XMLButton</text>
</a>
</g>
</g>
<!-- Node4&#45;&gt;Node5 -->
<g id="edge4" class="edge"><title>Node4&#45;&gt;Node5</title>
<path fill="none" stroke="midnightblue" d="M697.873,-93C706.594,-93 715.492,-93 724.237,-93"/>
<polygon fill="midnightblue" stroke="midnightblue" points="697.737,-89.5001 687.737,-93 697.737,-96.5001 697.737,-89.5001"/>
</g>
<!-- Node6 -->
<g id="node6" class="node"><title>Node6</title>
<g id="a_node6"><a xlink:href="../../d9/d96/classapplication_1_1_main.html#a5fee6c1b05965eca9205a99e3245a5fb" target="_top" xlink:title="application.Main.populate\lStartPageModules">
<polygon fill="white" stroke="black" points="920.5,-29 920.5,-59 1059.5,-59 1059.5,-29 920.5,-29"/>
<text text-anchor="start" x="928.5" y="-47" font-family="Helvetica,sans-Serif" font-size="10.00">application.Main.populate</text>
<text text-anchor="middle" x="990" y="-36" font-family="Helvetica,sans-Serif" font-size="10.00">StartPageModules</text>
</a>
</g>
</g>
<!-- Node5&#45;&gt;Node6 -->
<g id="edge5" class="edge"><title>Node5&#45;&gt;Node6</title>
<path fill="none" stroke="midnightblue" d="M871.176,-75.3771C891.306,-70.0163 913.232,-64.1775 932.65,-59.0062"/>
<polygon fill="midnightblue" stroke="midnightblue" points="870.219,-72.0098 861.457,-77.9654 872.02,-78.7741 870.219,-72.0098"/>
</g>
<!-- Node7 -->
<g id="node7" class="node"><title>Node7</title>
<g id="a_node7"><a xlink:href="../../d9/d96/classapplication_1_1_main.html#a4e5ad4e3de8bbd8654120180a94e870d" target="_top" xlink:title="application.Main.start">
<polygon fill="white" stroke="black" points="1096.5,-31.5 1096.5,-50.5 1215.5,-50.5 1215.5,-31.5 1096.5,-31.5"/>
<text text-anchor="middle" x="1156" y="-38.5" font-family="Helvetica,sans-Serif" font-size="10.00">application.Main.start</text>
</a>
</g>
</g>
<!-- Node6&#45;&gt;Node7 -->
<g id="edge6" class="edge"><title>Node6&#45;&gt;Node7</title>
<path fill="none" stroke="midnightblue" d="M1069.68,-42.5608C1078.64,-42.3968 1087.66,-42.2318 1096.3,-42.0737"/>
<polygon fill="midnightblue" stroke="midnightblue" points="1069.53,-39.0627 1059.6,-42.7451 1069.66,-46.0615 1069.53,-39.0627"/>
</g>
<!-- Node8 -->
<g id="node8" class="node"><title>Node8</title>
<g id="a_node8"><a xlink:href="../../d9/d96/classapplication_1_1_main.html#ad652e3294ffb6519b18d784d5831c76a" target="_top" xlink:title="application.Main.activate\lReturntoStart">
<polygon fill="white" stroke="black" points="1252.5,-5 1252.5,-35 1387.5,-35 1387.5,-5 1252.5,-5"/>
<text text-anchor="start" x="1260.5" y="-23" font-family="Helvetica,sans-Serif" font-size="10.00">application.Main.activate</text>
<text text-anchor="middle" x="1320" y="-12" font-family="Helvetica,sans-Serif" font-size="10.00">ReturntoStart</text>
</a>
</g>
</g>
<!-- Node7&#45;&gt;Node8 -->
<g id="edge7" class="edge"><title>Node7&#45;&gt;Node8</title>
<path fill="none" stroke="midnightblue" d="M1226.08,-32.0451C1234.81,-30.9135 1243.73,-29.7573 1252.42,-28.6309"/>
<polygon fill="midnightblue" stroke="midnightblue" points="1225.41,-28.6025 1215.94,-33.3591 1226.31,-35.5444 1225.41,-28.6025"/>
</g>
<!-- Node8&#45;&gt;Node1 -->
<g id="edge8" class="edge"><title>Node8&#45;&gt;Node1</title>
<path fill="none" stroke="midnightblue" d="M1242.52,-12.6931C1176.09,-6.98011 1077.28,-0 991,-0 442,-0 442,-0 442,-0 331.455,-0 303.366,-2.89884 194,-19 176.66,-21.5528 158.023,-25.2347 140.945,-28.9913"/>
<polygon fill="midnightblue" stroke="midnightblue" points="1242.22,-16.1802 1252.48,-13.5618 1242.82,-9.20667 1242.22,-16.1802"/>
</g>
<!-- Node10 -->
<g id="node10" class="node"><title>Node10</title>
<g id="a_node10"><a xlink:href="../../d9/d96/classapplication_1_1_main.html#adc868cfca1990edad66af3dcb8cf4349" target="_top" xlink:title="application.Main.playGame">
<polygon fill="white" stroke="black" points="370,-34.5 370,-53.5 516,-53.5 516,-34.5 370,-34.5"/>
<text text-anchor="middle" x="443" y="-41.5" font-family="Helvetica,sans-Serif" font-size="10.00">application.Main.playGame</text>
</a>
</g>
</g>
<!-- Node9&#45;&gt;Node10 -->
<g id="edge10" class="edge"><title>Node9&#45;&gt;Node10</title>
<path fill="none" stroke="midnightblue" d="M343.787,-44C352.459,-44 361.256,-44 369.841,-44"/>
<polygon fill="midnightblue" stroke="midnightblue" points="343.686,-40.5001 333.686,-44 343.686,-47.5001 343.686,-40.5001"/>
</g>
<!-- Node11 -->
<g id="node11" class="node"><title>Node11</title>
<g id="a_node11"><a xlink:href="../../d9/d96/classapplication_1_1_main.html#ada0f47786d75e28e627d2621d75eaf5a" target="_top" xlink:title="application.Main.activate\lStartButton">
<polygon fill="white" stroke="black" points="552.5,-29 552.5,-59 687.5,-59 687.5,-29 552.5,-29"/>
<text text-anchor="start" x="560.5" y="-47" font-family="Helvetica,sans-Serif" font-size="10.00">application.Main.activate</text>
<text text-anchor="middle" x="620" y="-36" font-family="Helvetica,sans-Serif" font-size="10.00">StartButton</text>
</a>
</g>
</g>
<!-- Node10&#45;&gt;Node11 -->
<g id="edge11" class="edge"><title>Node10&#45;&gt;Node11</title>
<path fill="none" stroke="midnightblue" d="M526.351,-44C535.052,-44 543.82,-44 552.312,-44"/>
<polygon fill="midnightblue" stroke="midnightblue" points="526.19,-40.5001 516.19,-44 526.19,-47.5001 526.19,-40.5001"/>
</g>
<!-- Node12 -->
<g id="node12" class="node"><title>Node12</title>
<g id="a_node12"><a xlink:href="../../d9/d96/classapplication_1_1_main.html#a64e6451d894979853890a235efe37db8" target="_top" xlink:title="application.Main.createStart\lGameButton">
<polygon fill="white" stroke="black" points="728,-29 728,-59 880,-59 880,-29 728,-29"/>
<text text-anchor="start" x="736" y="-47" font-family="Helvetica,sans-Serif" font-size="10.00">application.Main.createStart</text>
<text text-anchor="middle" x="804" y="-36" font-family="Helvetica,sans-Serif" font-size="10.00">GameButton</text>
</a>
</g>
</g>
<!-- Node11&#45;&gt;Node12 -->
<g id="edge12" class="edge"><title>Node11&#45;&gt;Node12</title>
<path fill="none" stroke="midnightblue" d="M697.982,-44C707.913,-44 718.072,-44 727.97,-44"/>
<polygon fill="midnightblue" stroke="midnightblue" points="697.737,-40.5001 687.737,-44 697.737,-47.5001 697.737,-40.5001"/>
</g>
<!-- Node12&#45;&gt;Node6 -->
<g id="edge13" class="edge"><title>Node12&#45;&gt;Node6</title>
<path fill="none" stroke="midnightblue" d="M890.165,-44C900.281,-44 910.507,-44 920.351,-44"/>
<polygon fill="midnightblue" stroke="midnightblue" points="890.105,-40.5001 880.105,-44 890.105,-47.5001 890.105,-40.5001"/>
</g>
</g>
</svg>
