<?xml version="1.0" encoding="UTF-8" standalone="no"?>
<!DOCTYPE svg PUBLIC "-//W3C//DTD SVG 1.1//EN"
 "http://www.w3.org/Graphics/SVG/1.1/DTD/svg11.dtd">
<!-- Generated by graphviz version 2.36.0 (20140111.2315)
 -->
<!-- Title: application.Main.createPauseButton Pages: 1 -->
<svg width="360pt" height="77pt"
 viewBox="0.00 0.00 360.00 77.00" xmlns="http://www.w3.org/2000/svg" xmlns:xlink="http://www.w3.org/1999/xlink">
<g id="graph0" class="graph" transform="scale(1 1) rotate(0) translate(4 73)">
<title>application.Main.createPauseButton</title>
<polygon fill="white" stroke="none" points="-4,4 -4,-73 356,-73 356,4 -4,4"/>
<!-- Node1 -->
<g id="node1" class="node"><title>Node1</title>
<polygon fill="#bfbfbf" stroke="black" points="0,-17 0,-47 156,-47 156,-17 0,-17"/>
<text text-anchor="start" x="8" y="-35" font-family="Helvetica,sans-Serif" font-size="10.00">application.Main.createPause</text>
<text text-anchor="middle" x="78" y="-24" font-family="Helvetica,sans-Serif" font-size="10.00">Button</text>
</g>
<!-- Node2 -->
<g id="node2" class="node"><title>Node2</title>
<g id="a_node2"><a xlink:href="../../d9/d96/classapplication_1_1_main.html#a402c514a10325d4a687bd85df5d50c7b" target="_top" xlink:title="application.Main.activate\lPauseAnimationButton">
<polygon fill="white" stroke="black" points="204.5,-39 204.5,-69 339.5,-69 339.5,-39 204.5,-39"/>
<text text-anchor="start" x="212.5" y="-57" font-family="Helvetica,sans-Serif" font-size="10.00">application.Main.activate</text>
<text text-anchor="middle" x="272" y="-46" font-family="Helvetica,sans-Serif" font-size="10.00">PauseAnimationButton</text>
</a>
</g>
</g>
<!-- Node1&#45;&gt;Node2 -->
<g id="edge1" class="edge"><title>Node1&#45;&gt;Node2</title>
<path fill="none" stroke="midnightblue" d="M156.264,-40.8531C168.844,-42.2946 181.87,-43.7872 194.434,-45.2268"/>
<polygon fill="midnightblue" stroke="midnightblue" points="194.059,-48.7066 204.392,-46.3679 194.856,-41.7522 194.059,-48.7066"/>
</g>
<!-- Node3 -->
<g id="node3" class="node"><title>Node3</title>
<g id="a_node3"><a xlink:href="../../d9/d96/classapplication_1_1_main.html#a2a2b201e08149dcf815a49c57974b0e5" target="_top" xlink:title="application.Main.createButton">
<polygon fill="white" stroke="black" points="192,-0.5 192,-19.5 352,-19.5 352,-0.5 192,-0.5"/>
<text text-anchor="middle" x="272" y="-7.5" font-family="Helvetica,sans-Serif" font-size="10.00">application.Main.createButton</text>
</a>
</g>
</g>
<!-- Node1&#45;&gt;Node3 -->
<g id="edge2" class="edge"><title>Node1&#45;&gt;Node3</title>
<path fill="none" stroke="midnightblue" d="M156.264,-23.1469C164.652,-22.1857 173.239,-21.2018 181.755,-20.226"/>
<polygon fill="midnightblue" stroke="midnightblue" points="182.166,-23.7019 191.702,-19.0862 181.369,-16.7474 182.166,-23.7019"/>
</g>
</g>
</svg>
