<?xml version="1.0" encoding="UTF-8" standalone="no"?>
<!DOCTYPE svg PUBLIC "-//W3C//DTD SVG 1.1//EN"
 "http://www.w3.org/Graphics/SVG/1.1/DTD/svg11.dtd">
<!-- Generated by graphviz version 2.36.0 (20140111.2315)
 -->
<!-- Title: application.Main.createExitButton Pages: 1 -->
<svg width="2286pt" height="134pt"
 viewBox="0.00 0.00 2286.00 134.00" xmlns="http://www.w3.org/2000/svg" xmlns:xlink="http://www.w3.org/1999/xlink">
<g id="graph0" class="graph" transform="scale(1 1) rotate(0) translate(4 130)">
<title>application.Main.createExitButton</title>
<polygon fill="white" stroke="none" points="-4,4 -4,-130 2282,-130 2282,4 -4,4"/>
<!-- Node1 -->
<g id="node1" class="node"><title>Node1</title>
<polygon fill="#bfbfbf" stroke="black" points="0.5,-48 0.5,-78 145.5,-78 145.5,-48 0.5,-48"/>
<text text-anchor="start" x="8.5" y="-66" font-family="Helvetica,sans-Serif" font-size="10.00">application.Main.createExit</text>
<text text-anchor="middle" x="73" y="-55" font-family="Helvetica,sans-Serif" font-size="10.00">Button</text>
</g>
<!-- Node2 -->
<g id="node2" class="node"><title>Node2</title>
<g id="a_node2"><a xlink:href="../../d9/d96/classapplication_1_1_main.html#abcabe1a32eb7b5054cf34ca0def07531" target="_top" xlink:title="application.Main.populate\lErrorPageModules">
<polygon fill="white" stroke="black" points="182.5,-48 182.5,-78 321.5,-78 321.5,-48 182.5,-48"/>
<text text-anchor="start" x="190.5" y="-66" font-family="Helvetica,sans-Serif" font-size="10.00">application.Main.populate</text>
<text text-anchor="middle" x="252" y="-55" font-family="Helvetica,sans-Serif" font-size="10.00">ErrorPageModules</text>
</a>
</g>
</g>
<!-- Node1&#45;&gt;Node2 -->
<g id="edge1" class="edge"><title>Node1&#45;&gt;Node2</title>
<path fill="none" stroke="midnightblue" d="M156.007,-63C164.806,-63 173.692,-63 182.313,-63"/>
<polygon fill="midnightblue" stroke="midnightblue" points="155.738,-59.5001 145.738,-63 155.737,-66.5001 155.738,-59.5001"/>
</g>
<!-- Node6 -->
<g id="node6" class="node"><title>Node6</title>
<g id="a_node6"><a xlink:href="../../d9/d96/classapplication_1_1_main.html#a5fee6c1b05965eca9205a99e3245a5fb" target="_top" xlink:title="application.Main.populate\lStartPageModules">
<polygon fill="white" stroke="black" points="898.5,-5 898.5,-35 1037.5,-35 1037.5,-5 898.5,-5"/>
<text text-anchor="start" x="906.5" y="-23" font-family="Helvetica,sans-Serif" font-size="10.00">application.Main.populate</text>
<text text-anchor="middle" x="968" y="-12" font-family="Helvetica,sans-Serif" font-size="10.00">StartPageModules</text>
</a>
</g>
</g>
<!-- Node1&#45;&gt;Node6 -->
<g id="edge16" class="edge"><title>Node1&#45;&gt;Node6</title>
<path fill="none" stroke="midnightblue" d="M134.836,-45.303C204.364,-26.6683 321.881,-0 425,-0 425,-0 425,-0 599,-0 703.453,-0 824.336,-8.13311 898.219,-14.0264"/>
<polygon fill="midnightblue" stroke="midnightblue" points="133.667,-41.9934 124.933,-47.99 135.5,-48.7491 133.667,-41.9934"/>
</g>
<!-- Node10 -->
<g id="node10" class="node"><title>Node10</title>
<g id="a_node10"><a xlink:href="../../d9/d96/classapplication_1_1_main.html#a2ddf30fb8360296e1ad3459fe6f920fb" target="_top" xlink:title="application.Main.populate\lGridPageModules">
<polygon fill="white" stroke="black" points="1596.5,-62 1596.5,-92 1735.5,-92 1735.5,-62 1596.5,-62"/>
<text text-anchor="start" x="1604.5" y="-80" font-family="Helvetica,sans-Serif" font-size="10.00">application.Main.populate</text>
<text text-anchor="middle" x="1666" y="-69" font-family="Helvetica,sans-Serif" font-size="10.00">GridPageModules</text>
</a>
</g>
</g>
<!-- Node1&#45;&gt;Node10 -->
<g id="edge15" class="edge"><title>Node1&#45;&gt;Node10</title>
<path fill="none" stroke="midnightblue" d="M134.836,-80.697C204.364,-99.3317 321.881,-126 425,-126 425,-126 425,-126 1299,-126 1415.53,-126 1444.96,-119.577 1560,-101 1574.77,-98.6152 1590.56,-95.3771 1605.29,-92.052"/>
<polygon fill="midnightblue" stroke="midnightblue" points="135.5,-77.2509 124.933,-78.01 133.667,-84.0066 135.5,-77.2509"/>
</g>
<!-- Node3 -->
<g id="node3" class="node"><title>Node3</title>
<g id="a_node3"><a xlink:href="../../d9/d96/classapplication_1_1_main.html#a81e70f73d65beae34c459628791cc5d4" target="_top" xlink:title="application.Main.activate\lErrorPage">
<polygon fill="white" stroke="black" points="358.5,-29 358.5,-59 493.5,-59 493.5,-29 358.5,-29"/>
<text text-anchor="start" x="366.5" y="-47" font-family="Helvetica,sans-Serif" font-size="10.00">application.Main.activate</text>
<text text-anchor="middle" x="426" y="-36" font-family="Helvetica,sans-Serif" font-size="10.00">ErrorPage</text>
</a>
</g>
</g>
<!-- Node2&#45;&gt;Node3 -->
<g id="edge2" class="edge"><title>Node2&#45;&gt;Node3</title>
<path fill="none" stroke="midnightblue" d="M332.149,-54.2568C340.877,-53.2927 349.699,-52.3181 358.254,-51.3731"/>
<polygon fill="midnightblue" stroke="midnightblue" points="331.523,-50.8046 321.968,-55.3815 332.292,-57.7622 331.523,-50.8046"/>
</g>
<!-- Node4 -->
<g id="node4" class="node"><title>Node4</title>
<g id="a_node4"><a xlink:href="../../d9/d96/classapplication_1_1_main.html#aef0593911aa3cbc594ac75bbb8d6a2b0" target="_top" xlink:title="application.Main.activate\lImportXMLButton">
<polygon fill="white" stroke="black" points="530.5,-29 530.5,-59 665.5,-59 665.5,-29 530.5,-29"/>
<text text-anchor="start" x="538.5" y="-47" font-family="Helvetica,sans-Serif" font-size="10.00">application.Main.activate</text>
<text text-anchor="middle" x="598" y="-36" font-family="Helvetica,sans-Serif" font-size="10.00">ImportXMLButton</text>
</a>
</g>
</g>
<!-- Node3&#45;&gt;Node4 -->
<g id="edge3" class="edge"><title>Node3&#45;&gt;Node4</title>
<path fill="none" stroke="midnightblue" d="M503.715,-44C512.651,-44 521.71,-44 530.492,-44"/>
<polygon fill="midnightblue" stroke="midnightblue" points="503.701,-40.5001 493.701,-44 503.701,-47.5001 503.701,-40.5001"/>
</g>
<!-- Node5 -->
<g id="node5" class="node"><title>Node5</title>
<g id="a_node5"><a xlink:href="../../d9/d96/classapplication_1_1_main.html#a18021492af2e457d39edcbd16dc0d3c8" target="_top" xlink:title="application.Main.createImport\lXMLButton">
<polygon fill="white" stroke="black" points="702.5,-29 702.5,-59 861.5,-59 861.5,-29 702.5,-29"/>
<text text-anchor="start" x="710.5" y="-47" font-family="Helvetica,sans-Serif" font-size="10.00">application.Main.createImport</text>
<text text-anchor="middle" x="782" y="-36" font-family="Helvetica,sans-Serif" font-size="10.00">XMLButton</text>
</a>
</g>
</g>
<!-- Node4&#45;&gt;Node5 -->
<g id="edge4" class="edge"><title>Node4&#45;&gt;Node5</title>
<path fill="none" stroke="midnightblue" d="M675.873,-44C684.594,-44 693.492,-44 702.237,-44"/>
<polygon fill="midnightblue" stroke="midnightblue" points="675.737,-40.5001 665.737,-44 675.737,-47.5001 675.737,-40.5001"/>
</g>
<!-- Node5&#45;&gt;Node6 -->
<g id="edge5" class="edge"><title>Node5&#45;&gt;Node6</title>
<path fill="none" stroke="midnightblue" d="M871.636,-32.4387C880.587,-31.2712 889.581,-30.0981 898.278,-28.9638"/>
<polygon fill="midnightblue" stroke="midnightblue" points="871.03,-28.9881 861.566,-33.7522 871.935,-35.9293 871.03,-28.9881"/>
</g>
<!-- Node7 -->
<g id="node7" class="node"><title>Node7</title>
<g id="a_node7"><a xlink:href="../../d9/d96/classapplication_1_1_main.html#a4e5ad4e3de8bbd8654120180a94e870d" target="_top" xlink:title="application.Main.start">
<polygon fill="white" stroke="black" points="1074.5,-31.5 1074.5,-50.5 1193.5,-50.5 1193.5,-31.5 1074.5,-31.5"/>
<text text-anchor="middle" x="1134" y="-38.5" font-family="Helvetica,sans-Serif" font-size="10.00">application.Main.start</text>
</a>
</g>
</g>
<!-- Node6&#45;&gt;Node7 -->
<g id="edge6" class="edge"><title>Node6&#45;&gt;Node7</title>
<path fill="none" stroke="midnightblue" d="M1047.68,-30.0745C1056.64,-31.2225 1065.66,-32.3773 1074.3,-33.4839"/>
<polygon fill="midnightblue" stroke="midnightblue" points="1047.96,-26.5828 1037.6,-28.7842 1047.07,-33.5261 1047.96,-26.5828"/>
</g>
<!-- Node8 -->
<g id="node8" class="node"><title>Node8</title>
<g id="a_node8"><a xlink:href="../../d9/d96/classapplication_1_1_main.html#ad652e3294ffb6519b18d784d5831c76a" target="_top" xlink:title="application.Main.activate\lReturntoStart">
<polygon fill="white" stroke="black" points="1230.5,-29 1230.5,-59 1365.5,-59 1365.5,-29 1230.5,-29"/>
<text text-anchor="start" x="1238.5" y="-47" font-family="Helvetica,sans-Serif" font-size="10.00">application.Main.activate</text>
<text text-anchor="middle" x="1298" y="-36" font-family="Helvetica,sans-Serif" font-size="10.00">ReturntoStart</text>
</a>
</g>
</g>
<!-- Node7&#45;&gt;Node8 -->
<g id="edge7" class="edge"><title>Node7&#45;&gt;Node8</title>
<path fill="none" stroke="midnightblue" d="M1204.08,-42.2793C1212.81,-42.4409 1221.73,-42.6061 1230.42,-42.767"/>
<polygon fill="midnightblue" stroke="midnightblue" points="1204.01,-38.7774 1193.94,-42.0916 1203.88,-45.7762 1204.01,-38.7774"/>
</g>
<!-- Node9 -->
<g id="node9" class="node"><title>Node9</title>
<g id="a_node9"><a xlink:href="../../d9/d96/classapplication_1_1_main.html#a4c5877fafc53c4fae488f1f30faf294b" target="_top" xlink:title="application.Main.createReturn\lToStartButton">
<polygon fill="white" stroke="black" points="1402,-62 1402,-92 1560,-92 1560,-62 1402,-62"/>
<text text-anchor="start" x="1410" y="-80" font-family="Helvetica,sans-Serif" font-size="10.00">application.Main.createReturn</text>
<text text-anchor="middle" x="1481" y="-69" font-family="Helvetica,sans-Serif" font-size="10.00">ToStartButton</text>
</a>
</g>
</g>
<!-- Node8&#45;&gt;Node9 -->
<g id="edge8" class="edge"><title>Node8&#45;&gt;Node9</title>
<path fill="none" stroke="midnightblue" d="M1375.7,-57.9832C1384.36,-59.5625 1393.19,-61.1732 1401.87,-62.7558"/>
<polygon fill="midnightblue" stroke="midnightblue" points="1376.09,-54.4979 1365.63,-56.1474 1374.84,-61.3844 1376.09,-54.4979"/>
</g>
<!-- Node9&#45;&gt;Node2 -->
<g id="edge14" class="edge"><title>Node9&#45;&gt;Node2</title>
<path fill="none" stroke="midnightblue" d="M1391.86,-81.3584C1322.17,-84.4306 1222.39,-88 1135,-88 597,-88 597,-88 597,-88 501.342,-88 391.114,-78.2649 321.75,-70.9445"/>
<polygon fill="midnightblue" stroke="midnightblue" points="1392.09,-84.8519 1401.92,-80.9092 1391.78,-77.8588 1392.09,-84.8519"/>
</g>
<!-- Node9&#45;&gt;Node10 -->
<g id="edge9" class="edge"><title>Node9&#45;&gt;Node10</title>
<path fill="none" stroke="midnightblue" d="M1570.36,-77C1579.1,-77 1587.87,-77 1596.37,-77"/>
<polygon fill="midnightblue" stroke="midnightblue" points="1570.14,-73.5001 1560.14,-77 1570.14,-80.5001 1570.14,-73.5001"/>
</g>
<!-- Node11 -->
<g id="node11" class="node"><title>Node11</title>
<g id="a_node11"><a xlink:href="../../d9/d96/classapplication_1_1_main.html#adc868cfca1990edad66af3dcb8cf4349" target="_top" xlink:title="application.Main.playGame">
<polygon fill="white" stroke="black" points="1772,-48.5 1772,-67.5 1918,-67.5 1918,-48.5 1772,-48.5"/>
<text text-anchor="middle" x="1845" y="-55.5" font-family="Helvetica,sans-Serif" font-size="10.00">application.Main.playGame</text>
</a>
</g>
</g>
<!-- Node10&#45;&gt;Node11 -->
<g id="edge10" class="edge"><title>Node10&#45;&gt;Node11</title>
<path fill="none" stroke="midnightblue" d="M1745.79,-68.5426C1754.46,-67.6118 1763.26,-66.6674 1771.84,-65.7459"/>
<polygon fill="midnightblue" stroke="midnightblue" points="1745.26,-65.0795 1735.69,-69.6269 1746,-72.0395 1745.26,-65.0795"/>
</g>
<!-- Node12 -->
<g id="node12" class="node"><title>Node12</title>
<g id="a_node12"><a xlink:href="../../d9/d96/classapplication_1_1_main.html#ada0f47786d75e28e627d2621d75eaf5a" target="_top" xlink:title="application.Main.activate\lStartButton">
<polygon fill="white" stroke="black" points="1954.5,-34 1954.5,-64 2089.5,-64 2089.5,-34 1954.5,-34"/>
<text text-anchor="start" x="1962.5" y="-52" font-family="Helvetica,sans-Serif" font-size="10.00">application.Main.activate</text>
<text text-anchor="middle" x="2022" y="-41" font-family="Helvetica,sans-Serif" font-size="10.00">StartButton</text>
</a>
</g>
</g>
<!-- Node11&#45;&gt;Node12 -->
<g id="edge11" class="edge"><title>Node11&#45;&gt;Node12</title>
<path fill="none" stroke="midnightblue" d="M1928.35,-53.7648C1937.05,-53.3173 1945.82,-52.8664 1954.31,-52.4297"/>
<polygon fill="midnightblue" stroke="midnightblue" points="1928,-50.2783 1918.19,-54.2874 1928.36,-57.2691 1928,-50.2783"/>
</g>
<!-- Node13 -->
<g id="node13" class="node"><title>Node13</title>
<g id="a_node13"><a xlink:href="../../d9/d96/classapplication_1_1_main.html#a64e6451d894979853890a235efe37db8" target="_top" xlink:title="application.Main.createStart\lGameButton">
<polygon fill="white" stroke="black" points="2126,-9 2126,-39 2278,-39 2278,-9 2126,-9"/>
<text text-anchor="start" x="2134" y="-27" font-family="Helvetica,sans-Serif" font-size="10.00">application.Main.createStart</text>
<text text-anchor="middle" x="2202" y="-16" font-family="Helvetica,sans-Serif" font-size="10.00">GameButton</text>
</a>
</g>
</g>
<!-- Node12&#45;&gt;Node13 -->
<g id="edge12" class="edge"><title>Node12&#45;&gt;Node13</title>
<path fill="none" stroke="midnightblue" d="M2099.65,-38.2351C2108.34,-37.0139 2117.2,-35.7702 2125.87,-34.5519"/>
<polygon fill="midnightblue" stroke="midnightblue" points="2098.95,-34.7985 2089.53,-39.6554 2099.92,-41.7304 2098.95,-34.7985"/>
</g>
<!-- Node13&#45;&gt;Node6 -->
<g id="edge13" class="edge"><title>Node13&#45;&gt;Node6</title>
<path fill="none" stroke="midnightblue" d="M2115.61,-14.9817C2043.77,-8.17422 1938.29,-0 1846,-0 1297,-0 1297,-0 1297,-0 1207.29,-0 1104.03,-7.54625 1037.72,-13.3681"/>
<polygon fill="midnightblue" stroke="midnightblue" points="2115.67,-18.5035 2125.96,-15.975 2116.34,-11.5355 2115.67,-18.5035"/>
</g>
</g>
</svg>
