<?xml version="1.0" encoding="UTF-8" standalone="no"?>
<!DOCTYPE svg PUBLIC "-//W3C//DTD SVG 1.1//EN"
 "http://www.w3.org/Graphics/SVG/1.1/DTD/svg11.dtd">
<!-- Generated by graphviz version 2.36.0 (20140111.2315)
 -->
<!-- Title: application.Main.populateErrorPageModules Pages: 1 -->
<svg width="2104pt" height="96pt"
 viewBox="0.00 0.00 2104.00 96.00" xmlns="http://www.w3.org/2000/svg" xmlns:xlink="http://www.w3.org/1999/xlink">
<g id="graph0" class="graph" transform="scale(1 1) rotate(0) translate(4 92)">
<title>application.Main.populateErrorPageModules</title>
<polygon fill="white" stroke="none" points="-4,4 -4,-92 2100,-92 2100,4 -4,4"/>
<!-- Node1 -->
<g id="node1" class="node"><title>Node1</title>
<polygon fill="#bfbfbf" stroke="black" points="0.5,-7 0.5,-37 139.5,-37 139.5,-7 0.5,-7"/>
<text text-anchor="start" x="8.5" y="-25" font-family="Helvetica,sans-Serif" font-size="10.00">application.Main.populate</text>
<text text-anchor="middle" x="70" y="-14" font-family="Helvetica,sans-Serif" font-size="10.00">ErrorPageModules</text>
</g>
<!-- Node2 -->
<g id="node2" class="node"><title>Node2</title>
<g id="a_node2"><a xlink:href="../../d9/d96/classapplication_1_1_main.html#a81e70f73d65beae34c459628791cc5d4" target="_top" xlink:title="application.Main.activate\lErrorPage">
<polygon fill="white" stroke="black" points="176.5,-29 176.5,-59 311.5,-59 311.5,-29 176.5,-29"/>
<text text-anchor="start" x="184.5" y="-47" font-family="Helvetica,sans-Serif" font-size="10.00">application.Main.activate</text>
<text text-anchor="middle" x="244" y="-36" font-family="Helvetica,sans-Serif" font-size="10.00">ErrorPage</text>
</a>
</g>
</g>
<!-- Node1&#45;&gt;Node2 -->
<g id="edge1" class="edge"><title>Node1&#45;&gt;Node2</title>
<path fill="none" stroke="midnightblue" d="M150.149,-32.1237C158.877,-33.24 167.699,-34.3685 176.254,-35.4627"/>
<polygon fill="midnightblue" stroke="midnightblue" points="150.331,-28.6186 139.968,-30.8215 149.443,-35.562 150.331,-28.6186"/>
</g>
<!-- Node3 -->
<g id="node3" class="node"><title>Node3</title>
<g id="a_node3"><a xlink:href="../../d9/d96/classapplication_1_1_main.html#aef0593911aa3cbc594ac75bbb8d6a2b0" target="_top" xlink:title="application.Main.activate\lImportXMLButton">
<polygon fill="white" stroke="black" points="348.5,-29 348.5,-59 483.5,-59 483.5,-29 348.5,-29"/>
<text text-anchor="start" x="356.5" y="-47" font-family="Helvetica,sans-Serif" font-size="10.00">application.Main.activate</text>
<text text-anchor="middle" x="416" y="-36" font-family="Helvetica,sans-Serif" font-size="10.00">ImportXMLButton</text>
</a>
</g>
</g>
<!-- Node2&#45;&gt;Node3 -->
<g id="edge2" class="edge"><title>Node2&#45;&gt;Node3</title>
<path fill="none" stroke="midnightblue" d="M321.715,-44C330.651,-44 339.71,-44 348.492,-44"/>
<polygon fill="midnightblue" stroke="midnightblue" points="321.701,-40.5001 311.701,-44 321.701,-47.5001 321.701,-40.5001"/>
</g>
<!-- Node4 -->
<g id="node4" class="node"><title>Node4</title>
<g id="a_node4"><a xlink:href="../../d9/d96/classapplication_1_1_main.html#a18021492af2e457d39edcbd16dc0d3c8" target="_top" xlink:title="application.Main.createImport\lXMLButton">
<polygon fill="white" stroke="black" points="520.5,-29 520.5,-59 679.5,-59 679.5,-29 520.5,-29"/>
<text text-anchor="start" x="528.5" y="-47" font-family="Helvetica,sans-Serif" font-size="10.00">application.Main.createImport</text>
<text text-anchor="middle" x="600" y="-36" font-family="Helvetica,sans-Serif" font-size="10.00">XMLButton</text>
</a>
</g>
</g>
<!-- Node3&#45;&gt;Node4 -->
<g id="edge3" class="edge"><title>Node3&#45;&gt;Node4</title>
<path fill="none" stroke="midnightblue" d="M493.873,-44C502.594,-44 511.492,-44 520.237,-44"/>
<polygon fill="midnightblue" stroke="midnightblue" points="493.737,-40.5001 483.737,-44 493.737,-47.5001 493.737,-40.5001"/>
</g>
<!-- Node5 -->
<g id="node5" class="node"><title>Node5</title>
<g id="a_node5"><a xlink:href="../../d9/d96/classapplication_1_1_main.html#a5fee6c1b05965eca9205a99e3245a5fb" target="_top" xlink:title="application.Main.populate\lStartPageModules">
<polygon fill="white" stroke="black" points="716.5,-29 716.5,-59 855.5,-59 855.5,-29 716.5,-29"/>
<text text-anchor="start" x="724.5" y="-47" font-family="Helvetica,sans-Serif" font-size="10.00">application.Main.populate</text>
<text text-anchor="middle" x="786" y="-36" font-family="Helvetica,sans-Serif" font-size="10.00">StartPageModules</text>
</a>
</g>
</g>
<!-- Node4&#45;&gt;Node5 -->
<g id="edge4" class="edge"><title>Node4&#45;&gt;Node5</title>
<path fill="none" stroke="midnightblue" d="M689.636,-44C698.587,-44 707.581,-44 716.278,-44"/>
<polygon fill="midnightblue" stroke="midnightblue" points="689.566,-40.5001 679.566,-44 689.566,-47.5001 689.566,-40.5001"/>
</g>
<!-- Node6 -->
<g id="node6" class="node"><title>Node6</title>
<g id="a_node6"><a xlink:href="../../d9/d96/classapplication_1_1_main.html#a4e5ad4e3de8bbd8654120180a94e870d" target="_top" xlink:title="application.Main.start">
<polygon fill="white" stroke="black" points="892.5,-34.5 892.5,-53.5 1011.5,-53.5 1011.5,-34.5 892.5,-34.5"/>
<text text-anchor="middle" x="952" y="-41.5" font-family="Helvetica,sans-Serif" font-size="10.00">application.Main.start</text>
</a>
</g>
</g>
<!-- Node5&#45;&gt;Node6 -->
<g id="edge5" class="edge"><title>Node5&#45;&gt;Node6</title>
<path fill="none" stroke="midnightblue" d="M865.677,-44C874.642,-44 883.661,-44 892.302,-44"/>
<polygon fill="midnightblue" stroke="midnightblue" points="865.601,-40.5001 855.601,-44 865.6,-47.5001 865.601,-40.5001"/>
</g>
<!-- Node7 -->
<g id="node7" class="node"><title>Node7</title>
<g id="a_node7"><a xlink:href="../../d9/d96/classapplication_1_1_main.html#ad652e3294ffb6519b18d784d5831c76a" target="_top" xlink:title="application.Main.activate\lReturntoStart">
<polygon fill="white" stroke="black" points="1048.5,-29 1048.5,-59 1183.5,-59 1183.5,-29 1048.5,-29"/>
<text text-anchor="start" x="1056.5" y="-47" font-family="Helvetica,sans-Serif" font-size="10.00">application.Main.activate</text>
<text text-anchor="middle" x="1116" y="-36" font-family="Helvetica,sans-Serif" font-size="10.00">ReturntoStart</text>
</a>
</g>
</g>
<!-- Node6&#45;&gt;Node7 -->
<g id="edge6" class="edge"><title>Node6&#45;&gt;Node7</title>
<path fill="none" stroke="midnightblue" d="M1022.08,-44C1030.81,-44 1039.73,-44 1048.42,-44"/>
<polygon fill="midnightblue" stroke="midnightblue" points="1021.94,-40.5001 1011.94,-44 1021.94,-47.5001 1021.94,-40.5001"/>
</g>
<!-- Node8 -->
<g id="node8" class="node"><title>Node8</title>
<g id="a_node8"><a xlink:href="../../d9/d96/classapplication_1_1_main.html#a4c5877fafc53c4fae488f1f30faf294b" target="_top" xlink:title="application.Main.createReturn\lToStartButton">
<polygon fill="white" stroke="black" points="1220,-29 1220,-59 1378,-59 1378,-29 1220,-29"/>
<text text-anchor="start" x="1228" y="-47" font-family="Helvetica,sans-Serif" font-size="10.00">application.Main.createReturn</text>
<text text-anchor="middle" x="1299" y="-36" font-family="Helvetica,sans-Serif" font-size="10.00">ToStartButton</text>
</a>
</g>
</g>
<!-- Node7&#45;&gt;Node8 -->
<g id="edge7" class="edge"><title>Node7&#45;&gt;Node8</title>
<path fill="none" stroke="midnightblue" d="M1193.7,-44C1202.36,-44 1211.19,-44 1219.87,-44"/>
<polygon fill="midnightblue" stroke="midnightblue" points="1193.63,-40.5001 1183.63,-44 1193.63,-47.5001 1193.63,-40.5001"/>
</g>
<!-- Node8&#45;&gt;Node1 -->
<g id="edge8" class="edge"><title>Node8&#45;&gt;Node1</title>
<path fill="none" stroke="midnightblue" d="M1226.64,-26.8172C1212.57,-23.8641 1197.87,-21.0812 1184,-19 1082.13,-3.71043 1056.01,-0 953,-0 415,-0 415,-0 415,-0 319.399,-0 209.157,-8.56692 139.774,-15.0088"/>
<polygon fill="midnightblue" stroke="midnightblue" points="1226.24,-30.3112 1236.75,-28.99 1227.71,-23.4673 1226.24,-30.3112"/>
</g>
<!-- Node9 -->
<g id="node9" class="node"><title>Node9</title>
<g id="a_node9"><a xlink:href="../../d9/d96/classapplication_1_1_main.html#a2ddf30fb8360296e1ad3459fe6f920fb" target="_top" xlink:title="application.Main.populate\lGridPageModules">
<polygon fill="white" stroke="black" points="1414.5,-29 1414.5,-59 1553.5,-59 1553.5,-29 1414.5,-29"/>
<text text-anchor="start" x="1422.5" y="-47" font-family="Helvetica,sans-Serif" font-size="10.00">application.Main.populate</text>
<text text-anchor="middle" x="1484" y="-36" font-family="Helvetica,sans-Serif" font-size="10.00">GridPageModules</text>
</a>
</g>
</g>
<!-- Node8&#45;&gt;Node9 -->
<g id="edge9" class="edge"><title>Node8&#45;&gt;Node9</title>
<path fill="none" stroke="midnightblue" d="M1388.36,-44C1397.1,-44 1405.87,-44 1414.37,-44"/>
<polygon fill="midnightblue" stroke="midnightblue" points="1388.14,-40.5001 1378.14,-44 1388.14,-47.5001 1388.14,-40.5001"/>
</g>
<!-- Node10 -->
<g id="node10" class="node"><title>Node10</title>
<g id="a_node10"><a xlink:href="../../d9/d96/classapplication_1_1_main.html#adc868cfca1990edad66af3dcb8cf4349" target="_top" xlink:title="application.Main.playGame">
<polygon fill="white" stroke="black" points="1590,-34.5 1590,-53.5 1736,-53.5 1736,-34.5 1590,-34.5"/>
<text text-anchor="middle" x="1663" y="-41.5" font-family="Helvetica,sans-Serif" font-size="10.00">application.Main.playGame</text>
</a>
</g>
</g>
<!-- Node9&#45;&gt;Node10 -->
<g id="edge10" class="edge"><title>Node9&#45;&gt;Node10</title>
<path fill="none" stroke="midnightblue" d="M1563.79,-44C1572.46,-44 1581.26,-44 1589.84,-44"/>
<polygon fill="midnightblue" stroke="midnightblue" points="1563.69,-40.5001 1553.69,-44 1563.69,-47.5001 1563.69,-40.5001"/>
</g>
<!-- Node11 -->
<g id="node11" class="node"><title>Node11</title>
<g id="a_node11"><a xlink:href="../../d9/d96/classapplication_1_1_main.html#ada0f47786d75e28e627d2621d75eaf5a" target="_top" xlink:title="application.Main.activate\lStartButton">
<polygon fill="white" stroke="black" points="1772.5,-29 1772.5,-59 1907.5,-59 1907.5,-29 1772.5,-29"/>
<text text-anchor="start" x="1780.5" y="-47" font-family="Helvetica,sans-Serif" font-size="10.00">application.Main.activate</text>
<text text-anchor="middle" x="1840" y="-36" font-family="Helvetica,sans-Serif" font-size="10.00">StartButton</text>
</a>
</g>
</g>
<!-- Node10&#45;&gt;Node11 -->
<g id="edge11" class="edge"><title>Node10&#45;&gt;Node11</title>
<path fill="none" stroke="midnightblue" d="M1746.35,-44C1755.05,-44 1763.82,-44 1772.31,-44"/>
<polygon fill="midnightblue" stroke="midnightblue" points="1746.19,-40.5001 1736.19,-44 1746.19,-47.5001 1746.19,-40.5001"/>
</g>
<!-- Node12 -->
<g id="node12" class="node"><title>Node12</title>
<g id="a_node12"><a xlink:href="../../d9/d96/classapplication_1_1_main.html#a64e6451d894979853890a235efe37db8" target="_top" xlink:title="application.Main.createStart\lGameButton">
<polygon fill="white" stroke="black" points="1944,-51 1944,-81 2096,-81 2096,-51 1944,-51"/>
<text text-anchor="start" x="1952" y="-69" font-family="Helvetica,sans-Serif" font-size="10.00">application.Main.createStart</text>
<text text-anchor="middle" x="2020" y="-58" font-family="Helvetica,sans-Serif" font-size="10.00">GameButton</text>
</a>
</g>
</g>
<!-- Node11&#45;&gt;Node12 -->
<g id="edge12" class="edge"><title>Node11&#45;&gt;Node12</title>
<path fill="none" stroke="midnightblue" d="M1917.65,-53.4731C1926.34,-54.5478 1935.2,-55.6422 1943.87,-56.7144"/>
<polygon fill="midnightblue" stroke="midnightblue" points="1917.89,-49.9764 1907.53,-52.2233 1917.03,-56.9236 1917.89,-49.9764"/>
</g>
<!-- Node12&#45;&gt;Node5 -->
<g id="edge13" class="edge"><title>Node12&#45;&gt;Node5</title>
<path fill="none" stroke="midnightblue" d="M1933.59,-74.2668C1861.74,-80.507 1756.26,-88 1664,-88 1115,-88 1115,-88 1115,-88 1024.8,-88 921.868,-71.451 855.749,-58.6514"/>
<polygon fill="midnightblue" stroke="midnightblue" points="1934.29,-77.7192 1943.94,-73.3563 1933.67,-70.7461 1934.29,-77.7192"/>
</g>
</g>
</svg>
