<?xml version="1.0" encoding="UTF-8" standalone="no"?>
<!DOCTYPE svg PUBLIC "-//W3C//DTD SVG 1.1//EN"
 "http://www.w3.org/Graphics/SVG/1.1/DTD/svg11.dtd">
<!-- Generated by graphviz version 2.36.0 (20140111.2315)
 -->
<!-- Title: application.Main.createSlider Pages: 1 -->
<svg width="2312pt" height="96pt"
 viewBox="0.00 0.00 2312.00 96.00" xmlns="http://www.w3.org/2000/svg" xmlns:xlink="http://www.w3.org/1999/xlink">
<g id="graph0" class="graph" transform="scale(1 1) rotate(0) translate(4 92)">
<title>application.Main.createSlider</title>
<polygon fill="white" stroke="none" points="-4,4 -4,-92 2308,-92 2308,4 -4,4"/>
<!-- Node1 -->
<g id="node1" class="node"><title>Node1</title>
<polygon fill="#bfbfbf" stroke="black" points="0.5,-32.5 0.5,-51.5 155.5,-51.5 155.5,-32.5 0.5,-32.5"/>
<text text-anchor="middle" x="78" y="-39.5" font-family="Helvetica,sans-Serif" font-size="10.00">application.Main.createSlider</text>
</g>
<!-- Node2 -->
<g id="node2" class="node"><title>Node2</title>
<g id="a_node2"><a xlink:href="../../d9/d96/classapplication_1_1_main.html#a1f5094dad31bc45ef126f701738cbe46" target="_top" xlink:title="application.Main.createSlider">
<polygon fill="white" stroke="black" points="192.5,-54.5 192.5,-73.5 347.5,-73.5 347.5,-54.5 192.5,-54.5"/>
<text text-anchor="middle" x="270" y="-61.5" font-family="Helvetica,sans-Serif" font-size="10.00">application.Main.createSlider</text>
</a>
</g>
</g>
<!-- Node1&#45;&gt;Node2 -->
<g id="edge1" class="edge"><title>Node1&#45;&gt;Node2</title>
<path fill="none" stroke="midnightblue" d="M165.692,-52.038C174.565,-53.0654 183.535,-54.1041 192.29,-55.1178"/>
<polygon fill="midnightblue" stroke="midnightblue" points="166.069,-48.5584 155.733,-50.8848 165.264,-55.5119 166.069,-48.5584"/>
</g>
<!-- Node3 -->
<g id="node3" class="node"><title>Node3</title>
<g id="a_node3"><a xlink:href="../../d9/d96/classapplication_1_1_main.html#a2ddf30fb8360296e1ad3459fe6f920fb" target="_top" xlink:title="application.Main.populate\lGridPageModules">
<polygon fill="white" stroke="black" points="200.5,-5 200.5,-35 339.5,-35 339.5,-5 200.5,-5"/>
<text text-anchor="start" x="208.5" y="-23" font-family="Helvetica,sans-Serif" font-size="10.00">application.Main.populate</text>
<text text-anchor="middle" x="270" y="-12" font-family="Helvetica,sans-Serif" font-size="10.00">GridPageModules</text>
</a>
</g>
</g>
<!-- Node1&#45;&gt;Node3 -->
<g id="edge2" class="edge"><title>Node1&#45;&gt;Node3</title>
<path fill="none" stroke="midnightblue" d="M165.819,-31.9472C177.365,-30.6104 189.072,-29.2548 200.254,-27.9601"/>
<polygon fill="midnightblue" stroke="midnightblue" points="165.264,-28.4881 155.733,-33.1152 166.069,-35.4416 165.264,-28.4881"/>
</g>
<!-- Node4 -->
<g id="node4" class="node"><title>Node4</title>
<g id="a_node4"><a xlink:href="../../d9/d96/classapplication_1_1_main.html#adc868cfca1990edad66af3dcb8cf4349" target="_top" xlink:title="application.Main.playGame">
<polygon fill="white" stroke="black" points="384,-31.5 384,-50.5 530,-50.5 530,-31.5 384,-31.5"/>
<text text-anchor="middle" x="457" y="-38.5" font-family="Helvetica,sans-Serif" font-size="10.00">application.Main.playGame</text>
</a>
</g>
</g>
<!-- Node3&#45;&gt;Node4 -->
<g id="edge3" class="edge"><title>Node3&#45;&gt;Node4</title>
<path fill="none" stroke="midnightblue" d="M349.863,-28.9521C361.118,-30.2297 372.649,-31.5385 383.768,-32.8007"/>
<polygon fill="midnightblue" stroke="midnightblue" points="349.955,-25.4401 339.624,-27.7898 349.166,-32.3954 349.955,-25.4401"/>
</g>
<!-- Node5 -->
<g id="node5" class="node"><title>Node5</title>
<g id="a_node5"><a xlink:href="../../d9/d96/classapplication_1_1_main.html#ada0f47786d75e28e627d2621d75eaf5a" target="_top" xlink:title="application.Main.activate\lStartButton">
<polygon fill="white" stroke="black" points="566.5,-29 566.5,-59 701.5,-59 701.5,-29 566.5,-29"/>
<text text-anchor="start" x="574.5" y="-47" font-family="Helvetica,sans-Serif" font-size="10.00">application.Main.activate</text>
<text text-anchor="middle" x="634" y="-36" font-family="Helvetica,sans-Serif" font-size="10.00">StartButton</text>
</a>
</g>
</g>
<!-- Node4&#45;&gt;Node5 -->
<g id="edge4" class="edge"><title>Node4&#45;&gt;Node5</title>
<path fill="none" stroke="midnightblue" d="M540.351,-42.4117C549.052,-42.5609 557.82,-42.7112 566.312,-42.8568"/>
<polygon fill="midnightblue" stroke="midnightblue" points="540.248,-38.9095 530.19,-42.2375 540.128,-45.9085 540.248,-38.9095"/>
</g>
<!-- Node6 -->
<g id="node6" class="node"><title>Node6</title>
<g id="a_node6"><a xlink:href="../../d9/d96/classapplication_1_1_main.html#a64e6451d894979853890a235efe37db8" target="_top" xlink:title="application.Main.createStart\lGameButton">
<polygon fill="white" stroke="black" points="738,-29 738,-59 890,-59 890,-29 738,-29"/>
<text text-anchor="start" x="746" y="-47" font-family="Helvetica,sans-Serif" font-size="10.00">application.Main.createStart</text>
<text text-anchor="middle" x="814" y="-36" font-family="Helvetica,sans-Serif" font-size="10.00">GameButton</text>
</a>
</g>
</g>
<!-- Node5&#45;&gt;Node6 -->
<g id="edge5" class="edge"><title>Node5&#45;&gt;Node6</title>
<path fill="none" stroke="midnightblue" d="M711.646,-44C720.341,-44 729.196,-44 737.871,-44"/>
<polygon fill="midnightblue" stroke="midnightblue" points="711.534,-40.5001 701.534,-44 711.534,-47.5001 711.534,-40.5001"/>
</g>
<!-- Node7 -->
<g id="node7" class="node"><title>Node7</title>
<g id="a_node7"><a xlink:href="../../d9/d96/classapplication_1_1_main.html#a5fee6c1b05965eca9205a99e3245a5fb" target="_top" xlink:title="application.Main.populate\lStartPageModules">
<polygon fill="white" stroke="black" points="926.5,-29 926.5,-59 1065.5,-59 1065.5,-29 926.5,-29"/>
<text text-anchor="start" x="934.5" y="-47" font-family="Helvetica,sans-Serif" font-size="10.00">application.Main.populate</text>
<text text-anchor="middle" x="996" y="-36" font-family="Helvetica,sans-Serif" font-size="10.00">StartPageModules</text>
</a>
</g>
</g>
<!-- Node6&#45;&gt;Node7 -->
<g id="edge6" class="edge"><title>Node6&#45;&gt;Node7</title>
<path fill="none" stroke="midnightblue" d="M900.274,-44C909.039,-44 917.864,-44 926.415,-44"/>
<polygon fill="midnightblue" stroke="midnightblue" points="900.033,-40.5001 890.033,-44 900.033,-47.5001 900.033,-40.5001"/>
</g>
<!-- Node8 -->
<g id="node8" class="node"><title>Node8</title>
<g id="a_node8"><a xlink:href="../../d9/d96/classapplication_1_1_main.html#a4e5ad4e3de8bbd8654120180a94e870d" target="_top" xlink:title="application.Main.start">
<polygon fill="white" stroke="black" points="1102.5,-34.5 1102.5,-53.5 1221.5,-53.5 1221.5,-34.5 1102.5,-34.5"/>
<text text-anchor="middle" x="1162" y="-41.5" font-family="Helvetica,sans-Serif" font-size="10.00">application.Main.start</text>
</a>
</g>
</g>
<!-- Node7&#45;&gt;Node8 -->
<g id="edge7" class="edge"><title>Node7&#45;&gt;Node8</title>
<path fill="none" stroke="midnightblue" d="M1075.68,-44C1084.64,-44 1093.66,-44 1102.3,-44"/>
<polygon fill="midnightblue" stroke="midnightblue" points="1075.6,-40.5001 1065.6,-44 1075.6,-47.5001 1075.6,-40.5001"/>
</g>
<!-- Node9 -->
<g id="node9" class="node"><title>Node9</title>
<g id="a_node9"><a xlink:href="../../d9/d96/classapplication_1_1_main.html#ad652e3294ffb6519b18d784d5831c76a" target="_top" xlink:title="application.Main.activate\lReturntoStart">
<polygon fill="white" stroke="black" points="1258.5,-29 1258.5,-59 1393.5,-59 1393.5,-29 1258.5,-29"/>
<text text-anchor="start" x="1266.5" y="-47" font-family="Helvetica,sans-Serif" font-size="10.00">application.Main.activate</text>
<text text-anchor="middle" x="1326" y="-36" font-family="Helvetica,sans-Serif" font-size="10.00">ReturntoStart</text>
</a>
</g>
</g>
<!-- Node8&#45;&gt;Node9 -->
<g id="edge8" class="edge"><title>Node8&#45;&gt;Node9</title>
<path fill="none" stroke="midnightblue" d="M1232.08,-44C1240.81,-44 1249.73,-44 1258.42,-44"/>
<polygon fill="midnightblue" stroke="midnightblue" points="1231.94,-40.5001 1221.94,-44 1231.94,-47.5001 1231.94,-40.5001"/>
</g>
<!-- Node10 -->
<g id="node10" class="node"><title>Node10</title>
<g id="a_node10"><a xlink:href="../../d9/d96/classapplication_1_1_main.html#a4c5877fafc53c4fae488f1f30faf294b" target="_top" xlink:title="application.Main.createReturn\lToStartButton">
<polygon fill="white" stroke="black" points="1430,-29 1430,-59 1588,-59 1588,-29 1430,-29"/>
<text text-anchor="start" x="1438" y="-47" font-family="Helvetica,sans-Serif" font-size="10.00">application.Main.createReturn</text>
<text text-anchor="middle" x="1509" y="-36" font-family="Helvetica,sans-Serif" font-size="10.00">ToStartButton</text>
</a>
</g>
</g>
<!-- Node9&#45;&gt;Node10 -->
<g id="edge9" class="edge"><title>Node9&#45;&gt;Node10</title>
<path fill="none" stroke="midnightblue" d="M1403.7,-44C1412.36,-44 1421.19,-44 1429.87,-44"/>
<polygon fill="midnightblue" stroke="midnightblue" points="1403.63,-40.5001 1393.63,-44 1403.63,-47.5001 1403.63,-40.5001"/>
</g>
<!-- Node10&#45;&gt;Node3 -->
<g id="edge15" class="edge"><title>Node10&#45;&gt;Node3</title>
<path fill="none" stroke="midnightblue" d="M1436.64,-26.8172C1422.57,-23.8641 1407.87,-21.0812 1394,-19 1292.13,-3.71043 1266.01,-0 1163,-0 633,-0 633,-0 633,-0 530.718,-0 412.426,-8.05855 339.662,-13.9451"/>
<polygon fill="midnightblue" stroke="midnightblue" points="1436.24,-30.3112 1446.75,-28.99 1437.71,-23.4673 1436.24,-30.3112"/>
</g>
<!-- Node11 -->
<g id="node11" class="node"><title>Node11</title>
<g id="a_node11"><a xlink:href="../../d9/d96/classapplication_1_1_main.html#abcabe1a32eb7b5054cf34ca0def07531" target="_top" xlink:title="application.Main.populate\lErrorPageModules">
<polygon fill="white" stroke="black" points="1624.5,-29 1624.5,-59 1763.5,-59 1763.5,-29 1624.5,-29"/>
<text text-anchor="start" x="1632.5" y="-47" font-family="Helvetica,sans-Serif" font-size="10.00">application.Main.populate</text>
<text text-anchor="middle" x="1694" y="-36" font-family="Helvetica,sans-Serif" font-size="10.00">ErrorPageModules</text>
</a>
</g>
</g>
<!-- Node10&#45;&gt;Node11 -->
<g id="edge10" class="edge"><title>Node10&#45;&gt;Node11</title>
<path fill="none" stroke="midnightblue" d="M1598.36,-44C1607.1,-44 1615.87,-44 1624.37,-44"/>
<polygon fill="midnightblue" stroke="midnightblue" points="1598.14,-40.5001 1588.14,-44 1598.14,-47.5001 1598.14,-40.5001"/>
</g>
<!-- Node12 -->
<g id="node12" class="node"><title>Node12</title>
<g id="a_node12"><a xlink:href="../../d9/d96/classapplication_1_1_main.html#a81e70f73d65beae34c459628791cc5d4" target="_top" xlink:title="application.Main.activate\lErrorPage">
<polygon fill="white" stroke="black" points="1800.5,-29 1800.5,-59 1935.5,-59 1935.5,-29 1800.5,-29"/>
<text text-anchor="start" x="1808.5" y="-47" font-family="Helvetica,sans-Serif" font-size="10.00">application.Main.activate</text>
<text text-anchor="middle" x="1868" y="-36" font-family="Helvetica,sans-Serif" font-size="10.00">ErrorPage</text>
</a>
</g>
</g>
<!-- Node11&#45;&gt;Node12 -->
<g id="edge11" class="edge"><title>Node11&#45;&gt;Node12</title>
<path fill="none" stroke="midnightblue" d="M1774.15,-44C1782.88,-44 1791.7,-44 1800.25,-44"/>
<polygon fill="midnightblue" stroke="midnightblue" points="1773.97,-40.5001 1763.97,-44 1773.97,-47.5001 1773.97,-40.5001"/>
</g>
<!-- Node13 -->
<g id="node13" class="node"><title>Node13</title>
<g id="a_node13"><a xlink:href="../../d9/d96/classapplication_1_1_main.html#aef0593911aa3cbc594ac75bbb8d6a2b0" target="_top" xlink:title="application.Main.activate\lImportXMLButton">
<polygon fill="white" stroke="black" points="1972.5,-29 1972.5,-59 2107.5,-59 2107.5,-29 1972.5,-29"/>
<text text-anchor="start" x="1980.5" y="-47" font-family="Helvetica,sans-Serif" font-size="10.00">application.Main.activate</text>
<text text-anchor="middle" x="2040" y="-36" font-family="Helvetica,sans-Serif" font-size="10.00">ImportXMLButton</text>
</a>
</g>
</g>
<!-- Node12&#45;&gt;Node13 -->
<g id="edge12" class="edge"><title>Node12&#45;&gt;Node13</title>
<path fill="none" stroke="midnightblue" d="M1945.72,-44C1954.65,-44 1963.71,-44 1972.49,-44"/>
<polygon fill="midnightblue" stroke="midnightblue" points="1945.7,-40.5001 1935.7,-44 1945.7,-47.5001 1945.7,-40.5001"/>
</g>
<!-- Node14 -->
<g id="node14" class="node"><title>Node14</title>
<g id="a_node14"><a xlink:href="../../d9/d96/classapplication_1_1_main.html#a18021492af2e457d39edcbd16dc0d3c8" target="_top" xlink:title="application.Main.createImport\lXMLButton">
<polygon fill="white" stroke="black" points="2144.5,-51 2144.5,-81 2303.5,-81 2303.5,-51 2144.5,-51"/>
<text text-anchor="start" x="2152.5" y="-69" font-family="Helvetica,sans-Serif" font-size="10.00">application.Main.createImport</text>
<text text-anchor="middle" x="2224" y="-58" font-family="Helvetica,sans-Serif" font-size="10.00">XMLButton</text>
</a>
</g>
</g>
<!-- Node13&#45;&gt;Node14 -->
<g id="edge13" class="edge"><title>Node13&#45;&gt;Node14</title>
<path fill="none" stroke="midnightblue" d="M2117.87,-53.2923C2126.59,-54.3465 2135.49,-55.4221 2144.24,-56.4792"/>
<polygon fill="midnightblue" stroke="midnightblue" points="2118.08,-49.7925 2107.74,-52.0671 2117.24,-56.7419 2118.08,-49.7925"/>
</g>
<!-- Node14&#45;&gt;Node7 -->
<g id="edge14" class="edge"><title>Node14&#45;&gt;Node7</title>
<path fill="none" stroke="midnightblue" d="M2134.03,-74.5964C2062.5,-80.7676 1959.38,-88 1869,-88 1325,-88 1325,-88 1325,-88 1234.8,-88 1131.87,-71.451 1065.75,-58.6514"/>
<polygon fill="midnightblue" stroke="midnightblue" points="2134.69,-78.0519 2144.35,-73.6945 2134.08,-71.0785 2134.69,-78.0519"/>
</g>
</g>
</svg>
