<?xml version="1.0" encoding="UTF-8" standalone="no"?>
<!DOCTYPE svg PUBLIC "-//W3C//DTD SVG 1.1//EN"
 "http://www.w3.org/Graphics/SVG/1.1/DTD/svg11.dtd">
<!-- Generated by graphviz version 2.36.0 (20140111.2315)
 -->
<!-- Title: application.Main.activateImportXMLButton Pages: 1 -->
<svg width="1756pt" height="145pt"
 viewBox="0.00 0.00 1756.00 145.00" xmlns="http://www.w3.org/2000/svg" xmlns:xlink="http://www.w3.org/1999/xlink">
<g id="graph0" class="graph" transform="scale(1 1) rotate(0) translate(4 141)">
<title>application.Main.activateImportXMLButton</title>
<polygon fill="white" stroke="none" points="-4,4 -4,-141 1752,-141 1752,4 -4,4"/>
<!-- Node1 -->
<g id="node1" class="node"><title>Node1</title>
<polygon fill="#bfbfbf" stroke="black" points="0.5,-13 0.5,-43 135.5,-43 135.5,-13 0.5,-13"/>
<text text-anchor="start" x="8.5" y="-31" font-family="Helvetica,sans-Serif" font-size="10.00">application.Main.activate</text>
<text text-anchor="middle" x="68" y="-20" font-family="Helvetica,sans-Serif" font-size="10.00">ImportXMLButton</text>
</g>
<!-- Node2 -->
<g id="node2" class="node"><title>Node2</title>
<g id="a_node2"><a xlink:href="../../d9/d96/classapplication_1_1_main.html#a18021492af2e457d39edcbd16dc0d3c8" target="_top" xlink:title="application.Main.createImport\lXMLButton">
<polygon fill="white" stroke="black" points="172.5,-42 172.5,-72 331.5,-72 331.5,-42 172.5,-42"/>
<text text-anchor="start" x="180.5" y="-60" font-family="Helvetica,sans-Serif" font-size="10.00">application.Main.createImport</text>
<text text-anchor="middle" x="252" y="-49" font-family="Helvetica,sans-Serif" font-size="10.00">XMLButton</text>
</a>
</g>
</g>
<!-- Node1&#45;&gt;Node2 -->
<g id="edge1" class="edge"><title>Node1&#45;&gt;Node2</title>
<path fill="none" stroke="midnightblue" d="M145.873,-40.249C154.594,-41.6386 163.492,-43.0564 172.237,-44.4498"/>
<polygon fill="midnightblue" stroke="midnightblue" points="146.163,-36.7511 135.737,-38.6339 145.061,-43.6639 146.163,-36.7511"/>
</g>
<!-- Node3 -->
<g id="node3" class="node"><title>Node3</title>
<g id="a_node3"><a xlink:href="../../d9/d96/classapplication_1_1_main.html#a5fee6c1b05965eca9205a99e3245a5fb" target="_top" xlink:title="application.Main.populate\lStartPageModules">
<polygon fill="white" stroke="black" points="368.5,-54 368.5,-84 507.5,-84 507.5,-54 368.5,-54"/>
<text text-anchor="start" x="376.5" y="-72" font-family="Helvetica,sans-Serif" font-size="10.00">application.Main.populate</text>
<text text-anchor="middle" x="438" y="-61" font-family="Helvetica,sans-Serif" font-size="10.00">StartPageModules</text>
</a>
</g>
</g>
<!-- Node2&#45;&gt;Node3 -->
<g id="edge2" class="edge"><title>Node2&#45;&gt;Node3</title>
<path fill="none" stroke="midnightblue" d="M341.636,-62.7806C350.587,-63.3644 359.581,-63.9509 368.278,-64.5181"/>
<polygon fill="midnightblue" stroke="midnightblue" points="341.773,-59.2822 331.566,-62.1239 341.317,-66.2674 341.773,-59.2822"/>
</g>
<!-- Node4 -->
<g id="node4" class="node"><title>Node4</title>
<g id="a_node4"><a xlink:href="../../d9/d96/classapplication_1_1_main.html#a4e5ad4e3de8bbd8654120180a94e870d" target="_top" xlink:title="application.Main.start">
<polygon fill="white" stroke="black" points="544.5,-59.5 544.5,-78.5 663.5,-78.5 663.5,-59.5 544.5,-59.5"/>
<text text-anchor="middle" x="604" y="-66.5" font-family="Helvetica,sans-Serif" font-size="10.00">application.Main.start</text>
</a>
</g>
</g>
<!-- Node3&#45;&gt;Node4 -->
<g id="edge3" class="edge"><title>Node3&#45;&gt;Node4</title>
<path fill="none" stroke="midnightblue" d="M517.677,-69C526.642,-69 535.661,-69 544.302,-69"/>
<polygon fill="midnightblue" stroke="midnightblue" points="517.601,-65.5001 507.601,-69 517.6,-72.5001 517.601,-65.5001"/>
</g>
<!-- Node5 -->
<g id="node5" class="node"><title>Node5</title>
<g id="a_node5"><a xlink:href="../../d9/d96/classapplication_1_1_main.html#ad652e3294ffb6519b18d784d5831c76a" target="_top" xlink:title="application.Main.activate\lReturntoStart">
<polygon fill="white" stroke="black" points="700.5,-54 700.5,-84 835.5,-84 835.5,-54 700.5,-54"/>
<text text-anchor="start" x="708.5" y="-72" font-family="Helvetica,sans-Serif" font-size="10.00">application.Main.activate</text>
<text text-anchor="middle" x="768" y="-61" font-family="Helvetica,sans-Serif" font-size="10.00">ReturntoStart</text>
</a>
</g>
</g>
<!-- Node4&#45;&gt;Node5 -->
<g id="edge4" class="edge"><title>Node4&#45;&gt;Node5</title>
<path fill="none" stroke="midnightblue" d="M674.08,-69C682.81,-69 691.729,-69 700.419,-69"/>
<polygon fill="midnightblue" stroke="midnightblue" points="673.944,-65.5001 663.944,-69 673.944,-72.5001 673.944,-65.5001"/>
</g>
<!-- Node6 -->
<g id="node6" class="node"><title>Node6</title>
<g id="a_node6"><a xlink:href="../../d9/d96/classapplication_1_1_main.html#a4c5877fafc53c4fae488f1f30faf294b" target="_top" xlink:title="application.Main.createReturn\lToStartButton">
<polygon fill="white" stroke="black" points="872,-54 872,-84 1030,-84 1030,-54 872,-54"/>
<text text-anchor="start" x="880" y="-72" font-family="Helvetica,sans-Serif" font-size="10.00">application.Main.createReturn</text>
<text text-anchor="middle" x="951" y="-61" font-family="Helvetica,sans-Serif" font-size="10.00">ToStartButton</text>
</a>
</g>
</g>
<!-- Node5&#45;&gt;Node6 -->
<g id="edge5" class="edge"><title>Node5&#45;&gt;Node6</title>
<path fill="none" stroke="midnightblue" d="M845.696,-69C854.358,-69 863.193,-69 871.873,-69"/>
<polygon fill="midnightblue" stroke="midnightblue" points="845.627,-65.5001 835.627,-69 845.627,-72.5001 845.627,-65.5001"/>
</g>
<!-- Node7 -->
<g id="node7" class="node"><title>Node7</title>
<g id="a_node7"><a xlink:href="../../d9/d96/classapplication_1_1_main.html#a2ddf30fb8360296e1ad3459fe6f920fb" target="_top" xlink:title="application.Main.populate\lGridPageModules">
<polygon fill="white" stroke="black" points="1066.5,-78 1066.5,-108 1205.5,-108 1205.5,-78 1066.5,-78"/>
<text text-anchor="start" x="1074.5" y="-96" font-family="Helvetica,sans-Serif" font-size="10.00">application.Main.populate</text>
<text text-anchor="middle" x="1136" y="-85" font-family="Helvetica,sans-Serif" font-size="10.00">GridPageModules</text>
</a>
</g>
</g>
<!-- Node6&#45;&gt;Node7 -->
<g id="edge6" class="edge"><title>Node6&#45;&gt;Node7</title>
<path fill="none" stroke="midnightblue" d="M1040.07,-80.5507C1048.91,-81.7089 1057.78,-82.8726 1066.37,-83.9987"/>
<polygon fill="midnightblue" stroke="midnightblue" points="1040.51,-77.0779 1030.14,-79.2478 1039.6,-84.0185 1040.51,-77.0779"/>
</g>
<!-- Node11 -->
<g id="node11" class="node"><title>Node11</title>
<g id="a_node11"><a xlink:href="../../d9/d96/classapplication_1_1_main.html#abcabe1a32eb7b5054cf34ca0def07531" target="_top" xlink:title="application.Main.populate\lErrorPageModules">
<polygon fill="white" stroke="black" points="1066.5,-29 1066.5,-59 1205.5,-59 1205.5,-29 1066.5,-29"/>
<text text-anchor="start" x="1074.5" y="-47" font-family="Helvetica,sans-Serif" font-size="10.00">application.Main.populate</text>
<text text-anchor="middle" x="1136" y="-36" font-family="Helvetica,sans-Serif" font-size="10.00">ErrorPageModules</text>
</a>
</g>
</g>
<!-- Node6&#45;&gt;Node11 -->
<g id="edge11" class="edge"><title>Node6&#45;&gt;Node11</title>
<path fill="none" stroke="midnightblue" d="M1040.07,-56.968C1048.91,-55.7616 1057.78,-54.5493 1066.37,-53.3763"/>
<polygon fill="midnightblue" stroke="midnightblue" points="1039.57,-53.5038 1030.14,-58.3252 1040.52,-60.4394 1039.57,-53.5038"/>
</g>
<!-- Node8 -->
<g id="node8" class="node"><title>Node8</title>
<g id="a_node8"><a xlink:href="../../d9/d96/classapplication_1_1_main.html#adc868cfca1990edad66af3dcb8cf4349" target="_top" xlink:title="application.Main.playGame">
<polygon fill="white" stroke="black" points="1242,-83.5 1242,-102.5 1388,-102.5 1388,-83.5 1242,-83.5"/>
<text text-anchor="middle" x="1315" y="-90.5" font-family="Helvetica,sans-Serif" font-size="10.00">application.Main.playGame</text>
</a>
</g>
</g>
<!-- Node7&#45;&gt;Node8 -->
<g id="edge7" class="edge"><title>Node7&#45;&gt;Node8</title>
<path fill="none" stroke="midnightblue" d="M1215.79,-93C1224.46,-93 1233.26,-93 1241.84,-93"/>
<polygon fill="midnightblue" stroke="midnightblue" points="1215.69,-89.5001 1205.69,-93 1215.69,-96.5001 1215.69,-89.5001"/>
</g>
<!-- Node9 -->
<g id="node9" class="node"><title>Node9</title>
<g id="a_node9"><a xlink:href="../../d9/d96/classapplication_1_1_main.html#ada0f47786d75e28e627d2621d75eaf5a" target="_top" xlink:title="application.Main.activate\lStartButton">
<polygon fill="white" stroke="black" points="1424.5,-78 1424.5,-108 1559.5,-108 1559.5,-78 1424.5,-78"/>
<text text-anchor="start" x="1432.5" y="-96" font-family="Helvetica,sans-Serif" font-size="10.00">application.Main.activate</text>
<text text-anchor="middle" x="1492" y="-85" font-family="Helvetica,sans-Serif" font-size="10.00">StartButton</text>
</a>
</g>
</g>
<!-- Node8&#45;&gt;Node9 -->
<g id="edge8" class="edge"><title>Node8&#45;&gt;Node9</title>
<path fill="none" stroke="midnightblue" d="M1398.35,-93C1407.05,-93 1415.82,-93 1424.31,-93"/>
<polygon fill="midnightblue" stroke="midnightblue" points="1398.19,-89.5001 1388.19,-93 1398.19,-96.5001 1398.19,-89.5001"/>
</g>
<!-- Node10 -->
<g id="node10" class="node"><title>Node10</title>
<g id="a_node10"><a xlink:href="../../d9/d96/classapplication_1_1_main.html#a64e6451d894979853890a235efe37db8" target="_top" xlink:title="application.Main.createStart\lGameButton">
<polygon fill="white" stroke="black" points="1596,-100 1596,-130 1748,-130 1748,-100 1596,-100"/>
<text text-anchor="start" x="1604" y="-118" font-family="Helvetica,sans-Serif" font-size="10.00">application.Main.createStart</text>
<text text-anchor="middle" x="1672" y="-107" font-family="Helvetica,sans-Serif" font-size="10.00">GameButton</text>
</a>
</g>
</g>
<!-- Node9&#45;&gt;Node10 -->
<g id="edge9" class="edge"><title>Node9&#45;&gt;Node10</title>
<path fill="none" stroke="midnightblue" d="M1569.65,-102.473C1578.34,-103.548 1587.2,-104.642 1595.87,-105.714"/>
<polygon fill="midnightblue" stroke="midnightblue" points="1569.89,-98.9764 1559.53,-101.223 1569.03,-105.924 1569.89,-98.9764"/>
</g>
<!-- Node10&#45;&gt;Node3 -->
<g id="edge10" class="edge"><title>Node10&#45;&gt;Node3</title>
<path fill="none" stroke="midnightblue" d="M1585.59,-123.267C1513.74,-129.507 1408.26,-137 1316,-137 767,-137 767,-137 767,-137 663.338,-137 545.013,-104.032 482.702,-84.0071"/>
<polygon fill="midnightblue" stroke="midnightblue" points="1586.29,-126.719 1595.94,-122.356 1585.67,-119.746 1586.29,-126.719"/>
</g>
<!-- Node12 -->
<g id="node12" class="node"><title>Node12</title>
<g id="a_node12"><a xlink:href="../../d9/d96/classapplication_1_1_main.html#a81e70f73d65beae34c459628791cc5d4" target="_top" xlink:title="application.Main.activate\lErrorPage">
<polygon fill="white" stroke="black" points="1247.5,-7 1247.5,-37 1382.5,-37 1382.5,-7 1247.5,-7"/>
<text text-anchor="start" x="1255.5" y="-25" font-family="Helvetica,sans-Serif" font-size="10.00">application.Main.activate</text>
<text text-anchor="middle" x="1315" y="-14" font-family="Helvetica,sans-Serif" font-size="10.00">ErrorPage</text>
</a>
</g>
</g>
<!-- Node11&#45;&gt;Node12 -->
<g id="edge12" class="edge"><title>Node11&#45;&gt;Node12</title>
<path fill="none" stroke="midnightblue" d="M1215.74,-34.2133C1226.3,-32.9 1237.06,-31.5634 1247.39,-30.2795"/>
<polygon fill="midnightblue" stroke="midnightblue" points="1215.18,-30.7559 1205.69,-35.4627 1216.04,-37.7025 1215.18,-30.7559"/>
</g>
<!-- Node12&#45;&gt;Node1 -->
<g id="edge13" class="edge"><title>Node12&#45;&gt;Node1</title>
<path fill="none" stroke="midnightblue" d="M1237.3,-14.6294C1164.08,-8.23585 1050.62,-0 952,-0 437,-0 437,-0 437,-0 331.439,-1.42109e-14 209.335,-11.5966 135.699,-19.8636"/>
<polygon fill="midnightblue" stroke="midnightblue" points="1237.08,-18.1243 1247.35,-15.5183 1237.7,-11.1515 1237.08,-18.1243"/>
</g>
</g>
</svg>
