<?xml version="1.0" encoding="UTF-8" standalone="no"?>
<!DOCTYPE svg PUBLIC "-//W3C//DTD SVG 1.1//EN"
 "http://www.w3.org/Graphics/SVG/1.1/DTD/svg11.dtd">
<!-- Generated by graphviz version 2.36.0 (20140111.2315)
 -->
<!-- Title: application.Main.activateStepThroughFrame Pages: 1 -->
<svg width="940pt" height="155pt"
 viewBox="0.00 0.00 940.00 155.00" xmlns="http://www.w3.org/2000/svg" xmlns:xlink="http://www.w3.org/1999/xlink">
<g id="graph0" class="graph" transform="scale(1 1) rotate(0) translate(4 151)">
<title>application.Main.activateStepThroughFrame</title>
<polygon fill="white" stroke="none" points="-4,4 -4,-151 936,-151 936,4 -4,4"/>
<!-- Node1 -->
<g id="node1" class="node"><title>Node1</title>
<polygon fill="#bfbfbf" stroke="black" points="0.5,-68 0.5,-98 135.5,-98 135.5,-68 0.5,-68"/>
<text text-anchor="start" x="8.5" y="-86" font-family="Helvetica,sans-Serif" font-size="10.00">application.Main.activate</text>
<text text-anchor="middle" x="68" y="-75" font-family="Helvetica,sans-Serif" font-size="10.00">StepThroughFrame</text>
</g>
<!-- Node2 -->
<g id="node2" class="node"><title>Node2</title>
<g id="a_node2"><a xlink:href="../../d9/d5e/classapplication_1_1_application_loop.html#a5750a9e01dbb29cdf3fa5aeec69b68d3" target="_top" xlink:title="application.ApplicationLoop.update\lGameLoop">
<polygon fill="white" stroke="black" points="172,-68 172,-98 356,-98 356,-68 172,-68"/>
<text text-anchor="start" x="180" y="-86" font-family="Helvetica,sans-Serif" font-size="10.00">application.ApplicationLoop.update</text>
<text text-anchor="middle" x="264" y="-75" font-family="Helvetica,sans-Serif" font-size="10.00">GameLoop</text>
</a>
</g>
</g>
<!-- Node1&#45;&gt;Node2 -->
<g id="edge1" class="edge"><title>Node1&#45;&gt;Node2</title>
<path fill="none" stroke="midnightblue" d="M135.764,-83C144.114,-83 152.797,-83 161.528,-83"/>
<polygon fill="midnightblue" stroke="midnightblue" points="161.783,-86.5001 171.783,-83 161.783,-79.5001 161.783,-86.5001"/>
</g>
<!-- Node3 -->
<g id="node3" class="node"><title>Node3</title>
<g id="a_node3"><a xlink:href="../../d9/d5e/classapplication_1_1_application_loop.html#a4ed391042db7dc3e62e9749f28c82f09" target="_top" xlink:title="application.ApplicationLoop.add\lPointsToLineChart">
<polygon fill="white" stroke="black" points="397,-117 397,-147 565,-147 565,-117 397,-117"/>
<text text-anchor="start" x="405" y="-135" font-family="Helvetica,sans-Serif" font-size="10.00">application.ApplicationLoop.add</text>
<text text-anchor="middle" x="481" y="-124" font-family="Helvetica,sans-Serif" font-size="10.00">PointsToLineChart</text>
</a>
</g>
</g>
<!-- Node2&#45;&gt;Node3 -->
<g id="edge2" class="edge"><title>Node2&#45;&gt;Node3</title>
<path fill="none" stroke="midnightblue" d="M330.968,-98.0346C354.185,-103.326 380.456,-109.313 404.404,-114.771"/>
<polygon fill="midnightblue" stroke="midnightblue" points="403.629,-118.184 414.157,-116.994 405.184,-111.359 403.629,-118.184"/>
</g>
<!-- Node4 -->
<g id="node4" class="node"><title>Node4</title>
<g id="a_node4"><a xlink:href="../../d9/d5e/classapplication_1_1_application_loop.html#a5e176f31f90e5c1ab7b09e68ac391d92" target="_top" xlink:title="application.ApplicationLoop.count\lNumberOfCertainColorSpaces">
<polygon fill="white" stroke="black" points="392.5,-68 392.5,-98 569.5,-98 569.5,-68 392.5,-68"/>
<text text-anchor="start" x="400.5" y="-86" font-family="Helvetica,sans-Serif" font-size="10.00">application.ApplicationLoop.count</text>
<text text-anchor="middle" x="481" y="-75" font-family="Helvetica,sans-Serif" font-size="10.00">NumberOfCertainColorSpaces</text>
</a>
</g>
</g>
<!-- Node2&#45;&gt;Node4 -->
<g id="edge3" class="edge"><title>Node2&#45;&gt;Node4</title>
<path fill="none" stroke="midnightblue" d="M356.179,-83C364.817,-83 373.598,-83 382.293,-83"/>
<polygon fill="midnightblue" stroke="midnightblue" points="382.447,-86.5001 392.447,-83 382.447,-79.5001 382.447,-86.5001"/>
</g>
<!-- Node5 -->
<g id="node5" class="node"><title>Node5</title>
<g id="a_node5"><a xlink:href="../../d3/d32/classapplication_1_1_grid.html#af59c90cc59f615f7eb538b683abe0d3e" target="_top" xlink:title="application.Grid.updateGrid">
<polygon fill="white" stroke="black" points="407.5,-29.5 407.5,-48.5 554.5,-48.5 554.5,-29.5 407.5,-29.5"/>
<text text-anchor="middle" x="481" y="-36.5" font-family="Helvetica,sans-Serif" font-size="10.00">application.Grid.updateGrid</text>
</a>
</g>
</g>
<!-- Node2&#45;&gt;Node5 -->
<g id="edge4" class="edge"><title>Node2&#45;&gt;Node5</title>
<path fill="none" stroke="midnightblue" d="M338.389,-67.9808C366.204,-62.2885 397.418,-55.9006 423.447,-50.5736"/>
<polygon fill="midnightblue" stroke="midnightblue" points="424.424,-53.9464 433.519,-48.5124 423.02,-47.0885 424.424,-53.9464"/>
</g>
<!-- Node6 -->
<g id="node6" class="node"><title>Node6</title>
<g id="a_node6"><a xlink:href="../../d3/d32/classapplication_1_1_grid.html#a74143390c54d93896daded8d752f992e" target="_top" xlink:title="application.Grid.repopulate\lGridPane">
<polygon fill="white" stroke="black" points="606,-49 606,-79 752,-79 752,-49 606,-49"/>
<text text-anchor="start" x="614" y="-67" font-family="Helvetica,sans-Serif" font-size="10.00">application.Grid.repopulate</text>
<text text-anchor="middle" x="679" y="-56" font-family="Helvetica,sans-Serif" font-size="10.00">GridPane</text>
</a>
</g>
</g>
<!-- Node5&#45;&gt;Node6 -->
<g id="edge5" class="edge"><title>Node5&#45;&gt;Node6</title>
<path fill="none" stroke="midnightblue" d="M554.705,-48.2736C567.987,-49.9678 581.936,-51.7469 595.479,-53.4744"/>
<polygon fill="midnightblue" stroke="midnightblue" points="595.377,-56.9896 605.739,-54.7831 596.263,-50.0459 595.377,-56.9896"/>
</g>
<!-- Node7 -->
<g id="node7" class="node"><title>Node7</title>
<g id="a_node7"><a xlink:href="../../d3/d32/classapplication_1_1_grid.html#a315db0ee4ce99fd922f84922a2acb74e" target="_top" xlink:title="application.Grid.updateCell\lMatrix">
<polygon fill="white" stroke="black" points="606.5,-0 606.5,-30 751.5,-30 751.5,-0 606.5,-0"/>
<text text-anchor="start" x="614.5" y="-18" font-family="Helvetica,sans-Serif" font-size="10.00">application.Grid.updateCell</text>
<text text-anchor="middle" x="679" y="-7" font-family="Helvetica,sans-Serif" font-size="10.00">Matrix</text>
</a>
</g>
</g>
<!-- Node5&#45;&gt;Node7 -->
<g id="edge6" class="edge"><title>Node5&#45;&gt;Node7</title>
<path fill="none" stroke="midnightblue" d="M554.705,-30.0974C568.293,-28.4335 582.578,-26.6844 596.413,-24.9902"/>
<polygon fill="midnightblue" stroke="midnightblue" points="596.891,-28.4579 606.392,-23.7684 596.041,-21.5098 596.891,-28.4579"/>
</g>
<!-- Node8 -->
<g id="node8" class="node"><title>Node8</title>
<g id="a_node8"><a xlink:href="../../d7/dff/classapplication_1_1_cell.html#a009926fa26199176d7e24f2a9fcec5bc" target="_top" xlink:title="application.Cell.updateCell">
<polygon fill="white" stroke="black" points="788.5,-5.5 788.5,-24.5 931.5,-24.5 931.5,-5.5 788.5,-5.5"/>
<text text-anchor="middle" x="860" y="-12.5" font-family="Helvetica,sans-Serif" font-size="10.00">application.Cell.updateCell</text>
</a>
</g>
</g>
<!-- Node7&#45;&gt;Node8 -->
<g id="edge7" class="edge"><title>Node7&#45;&gt;Node8</title>
<path fill="none" stroke="midnightblue" d="M751.517,-15C760.361,-15 769.45,-15 778.418,-15"/>
<polygon fill="midnightblue" stroke="midnightblue" points="778.472,-18.5001 788.472,-15 778.472,-11.5001 778.472,-18.5001"/>
</g>
</g>
</svg>
