<?xml version="1.0" encoding="UTF-8" standalone="no"?>
<!DOCTYPE svg PUBLIC "-//W3C//DTD SVG 1.1//EN"
 "http://www.w3.org/Graphics/SVG/1.1/DTD/svg11.dtd">
<!-- Generated by graphviz version 2.36.0 (20140111.2315)
 -->
<!-- Title: application.Main.createImportXMLButton Pages: 1 -->
<svg width="1584pt" height="145pt"
 viewBox="0.00 0.00 1584.00 145.00" xmlns="http://www.w3.org/2000/svg" xmlns:xlink="http://www.w3.org/1999/xlink">
<g id="graph0" class="graph" transform="scale(1 1) rotate(0) translate(4 141)">
<title>application.Main.createImportXMLButton</title>
<polygon fill="white" stroke="none" points="-4,4 -4,-141 1580,-141 1580,4 -4,4"/>
<!-- Node1 -->
<g id="node1" class="node"><title>Node1</title>
<polygon fill="#bfbfbf" stroke="black" points="0.5,-31 0.5,-61 159.5,-61 159.5,-31 0.5,-31"/>
<text text-anchor="start" x="8.5" y="-49" font-family="Helvetica,sans-Serif" font-size="10.00">application.Main.createImport</text>
<text text-anchor="middle" x="80" y="-38" font-family="Helvetica,sans-Serif" font-size="10.00">XMLButton</text>
</g>
<!-- Node2 -->
<g id="node2" class="node"><title>Node2</title>
<g id="a_node2"><a xlink:href="../../d9/d96/classapplication_1_1_main.html#a5fee6c1b05965eca9205a99e3245a5fb" target="_top" xlink:title="application.Main.populate\lStartPageModules">
<polygon fill="white" stroke="black" points="196.5,-55 196.5,-85 335.5,-85 335.5,-55 196.5,-55"/>
<text text-anchor="start" x="204.5" y="-73" font-family="Helvetica,sans-Serif" font-size="10.00">application.Main.populate</text>
<text text-anchor="middle" x="266" y="-62" font-family="Helvetica,sans-Serif" font-size="10.00">StartPageModules</text>
</a>
</g>
</g>
<!-- Node1&#45;&gt;Node2 -->
<g id="edge1" class="edge"><title>Node1&#45;&gt;Node2</title>
<path fill="none" stroke="midnightblue" d="M169.636,-57.5613C178.587,-58.7288 187.581,-59.9019 196.278,-61.0362"/>
<polygon fill="midnightblue" stroke="midnightblue" points="169.935,-54.0707 159.566,-56.2478 169.03,-61.0119 169.935,-54.0707"/>
</g>
<!-- Node3 -->
<g id="node3" class="node"><title>Node3</title>
<g id="a_node3"><a xlink:href="../../d9/d96/classapplication_1_1_main.html#a4e5ad4e3de8bbd8654120180a94e870d" target="_top" xlink:title="application.Main.start">
<polygon fill="white" stroke="black" points="372.5,-60.5 372.5,-79.5 491.5,-79.5 491.5,-60.5 372.5,-60.5"/>
<text text-anchor="middle" x="432" y="-67.5" font-family="Helvetica,sans-Serif" font-size="10.00">application.Main.start</text>
</a>
</g>
</g>
<!-- Node2&#45;&gt;Node3 -->
<g id="edge2" class="edge"><title>Node2&#45;&gt;Node3</title>
<path fill="none" stroke="midnightblue" d="M345.677,-70C354.642,-70 363.661,-70 372.302,-70"/>
<polygon fill="midnightblue" stroke="midnightblue" points="345.601,-66.5001 335.601,-70 345.6,-73.5001 345.601,-66.5001"/>
</g>
<!-- Node4 -->
<g id="node4" class="node"><title>Node4</title>
<g id="a_node4"><a xlink:href="../../d9/d96/classapplication_1_1_main.html#ad652e3294ffb6519b18d784d5831c76a" target="_top" xlink:title="application.Main.activate\lReturntoStart">
<polygon fill="white" stroke="black" points="528.5,-55 528.5,-85 663.5,-85 663.5,-55 528.5,-55"/>
<text text-anchor="start" x="536.5" y="-73" font-family="Helvetica,sans-Serif" font-size="10.00">application.Main.activate</text>
<text text-anchor="middle" x="596" y="-62" font-family="Helvetica,sans-Serif" font-size="10.00">ReturntoStart</text>
</a>
</g>
</g>
<!-- Node3&#45;&gt;Node4 -->
<g id="edge3" class="edge"><title>Node3&#45;&gt;Node4</title>
<path fill="none" stroke="midnightblue" d="M502.08,-70C510.81,-70 519.729,-70 528.419,-70"/>
<polygon fill="midnightblue" stroke="midnightblue" points="501.944,-66.5001 491.944,-70 501.944,-73.5001 501.944,-66.5001"/>
</g>
<!-- Node5 -->
<g id="node5" class="node"><title>Node5</title>
<g id="a_node5"><a xlink:href="../../d9/d96/classapplication_1_1_main.html#a4c5877fafc53c4fae488f1f30faf294b" target="_top" xlink:title="application.Main.createReturn\lToStartButton">
<polygon fill="white" stroke="black" points="700,-55 700,-85 858,-85 858,-55 700,-55"/>
<text text-anchor="start" x="708" y="-73" font-family="Helvetica,sans-Serif" font-size="10.00">application.Main.createReturn</text>
<text text-anchor="middle" x="779" y="-62" font-family="Helvetica,sans-Serif" font-size="10.00">ToStartButton</text>
</a>
</g>
</g>
<!-- Node4&#45;&gt;Node5 -->
<g id="edge4" class="edge"><title>Node4&#45;&gt;Node5</title>
<path fill="none" stroke="midnightblue" d="M673.696,-70C682.358,-70 691.193,-70 699.873,-70"/>
<polygon fill="midnightblue" stroke="midnightblue" points="673.627,-66.5001 663.627,-70 673.627,-73.5001 673.627,-66.5001"/>
</g>
<!-- Node6 -->
<g id="node6" class="node"><title>Node6</title>
<g id="a_node6"><a xlink:href="../../d9/d96/classapplication_1_1_main.html#a2ddf30fb8360296e1ad3459fe6f920fb" target="_top" xlink:title="application.Main.populate\lGridPageModules">
<polygon fill="white" stroke="black" points="894.5,-78 894.5,-108 1033.5,-108 1033.5,-78 894.5,-78"/>
<text text-anchor="start" x="902.5" y="-96" font-family="Helvetica,sans-Serif" font-size="10.00">application.Main.populate</text>
<text text-anchor="middle" x="964" y="-85" font-family="Helvetica,sans-Serif" font-size="10.00">GridPageModules</text>
</a>
</g>
</g>
<!-- Node5&#45;&gt;Node6 -->
<g id="edge5" class="edge"><title>Node5&#45;&gt;Node6</title>
<path fill="none" stroke="midnightblue" d="M868.074,-81.0694C876.905,-82.1793 885.779,-83.2946 894.365,-84.3738"/>
<polygon fill="midnightblue" stroke="midnightblue" points="868.498,-77.5952 858.139,-79.8208 867.625,-84.5406 868.498,-77.5952"/>
</g>
<!-- Node10 -->
<g id="node10" class="node"><title>Node10</title>
<g id="a_node10"><a xlink:href="../../d9/d96/classapplication_1_1_main.html#abcabe1a32eb7b5054cf34ca0def07531" target="_top" xlink:title="application.Main.populate\lErrorPageModules">
<polygon fill="white" stroke="black" points="894.5,-29 894.5,-59 1033.5,-59 1033.5,-29 894.5,-29"/>
<text text-anchor="start" x="902.5" y="-47" font-family="Helvetica,sans-Serif" font-size="10.00">application.Main.populate</text>
<text text-anchor="middle" x="964" y="-36" font-family="Helvetica,sans-Serif" font-size="10.00">ErrorPageModules</text>
</a>
</g>
</g>
<!-- Node5&#45;&gt;Node10 -->
<g id="edge10" class="edge"><title>Node5&#45;&gt;Node10</title>
<path fill="none" stroke="midnightblue" d="M868.074,-57.4867C876.905,-56.2321 885.779,-54.9713 894.365,-53.7514"/>
<polygon fill="midnightblue" stroke="midnightblue" points="867.548,-54.0263 858.139,-58.8982 868.532,-60.9567 867.548,-54.0263"/>
</g>
<!-- Node7 -->
<g id="node7" class="node"><title>Node7</title>
<g id="a_node7"><a xlink:href="../../d9/d96/classapplication_1_1_main.html#adc868cfca1990edad66af3dcb8cf4349" target="_top" xlink:title="application.Main.playGame">
<polygon fill="white" stroke="black" points="1070,-83.5 1070,-102.5 1216,-102.5 1216,-83.5 1070,-83.5"/>
<text text-anchor="middle" x="1143" y="-90.5" font-family="Helvetica,sans-Serif" font-size="10.00">application.Main.playGame</text>
</a>
</g>
</g>
<!-- Node6&#45;&gt;Node7 -->
<g id="edge6" class="edge"><title>Node6&#45;&gt;Node7</title>
<path fill="none" stroke="midnightblue" d="M1043.79,-93C1052.46,-93 1061.26,-93 1069.84,-93"/>
<polygon fill="midnightblue" stroke="midnightblue" points="1043.69,-89.5001 1033.69,-93 1043.69,-96.5001 1043.69,-89.5001"/>
</g>
<!-- Node8 -->
<g id="node8" class="node"><title>Node8</title>
<g id="a_node8"><a xlink:href="../../d9/d96/classapplication_1_1_main.html#ada0f47786d75e28e627d2621d75eaf5a" target="_top" xlink:title="application.Main.activate\lStartButton">
<polygon fill="white" stroke="black" points="1252.5,-78 1252.5,-108 1387.5,-108 1387.5,-78 1252.5,-78"/>
<text text-anchor="start" x="1260.5" y="-96" font-family="Helvetica,sans-Serif" font-size="10.00">application.Main.activate</text>
<text text-anchor="middle" x="1320" y="-85" font-family="Helvetica,sans-Serif" font-size="10.00">StartButton</text>
</a>
</g>
</g>
<!-- Node7&#45;&gt;Node8 -->
<g id="edge7" class="edge"><title>Node7&#45;&gt;Node8</title>
<path fill="none" stroke="midnightblue" d="M1226.35,-93C1235.05,-93 1243.82,-93 1252.31,-93"/>
<polygon fill="midnightblue" stroke="midnightblue" points="1226.19,-89.5001 1216.19,-93 1226.19,-96.5001 1226.19,-89.5001"/>
</g>
<!-- Node9 -->
<g id="node9" class="node"><title>Node9</title>
<g id="a_node9"><a xlink:href="../../d9/d96/classapplication_1_1_main.html#a64e6451d894979853890a235efe37db8" target="_top" xlink:title="application.Main.createStart\lGameButton">
<polygon fill="white" stroke="black" points="1424,-100 1424,-130 1576,-130 1576,-100 1424,-100"/>
<text text-anchor="start" x="1432" y="-118" font-family="Helvetica,sans-Serif" font-size="10.00">application.Main.createStart</text>
<text text-anchor="middle" x="1500" y="-107" font-family="Helvetica,sans-Serif" font-size="10.00">GameButton</text>
</a>
</g>
</g>
<!-- Node8&#45;&gt;Node9 -->
<g id="edge8" class="edge"><title>Node8&#45;&gt;Node9</title>
<path fill="none" stroke="midnightblue" d="M1397.65,-102.473C1406.34,-103.548 1415.2,-104.642 1423.87,-105.714"/>
<polygon fill="midnightblue" stroke="midnightblue" points="1397.89,-98.9764 1387.53,-101.223 1397.03,-105.924 1397.89,-98.9764"/>
</g>
<!-- Node9&#45;&gt;Node2 -->
<g id="edge9" class="edge"><title>Node9&#45;&gt;Node2</title>
<path fill="none" stroke="midnightblue" d="M1413.59,-123.267C1341.74,-129.507 1236.26,-137 1144,-137 595,-137 595,-137 595,-137 491.836,-137 374.047,-104.79 311.509,-85.0361"/>
<polygon fill="midnightblue" stroke="midnightblue" points="1414.29,-126.719 1423.94,-122.356 1413.67,-119.746 1414.29,-126.719"/>
</g>
<!-- Node11 -->
<g id="node11" class="node"><title>Node11</title>
<g id="a_node11"><a xlink:href="../../d9/d96/classapplication_1_1_main.html#a81e70f73d65beae34c459628791cc5d4" target="_top" xlink:title="application.Main.activate\lErrorPage">
<polygon fill="white" stroke="black" points="1075.5,-29 1075.5,-59 1210.5,-59 1210.5,-29 1075.5,-29"/>
<text text-anchor="start" x="1083.5" y="-47" font-family="Helvetica,sans-Serif" font-size="10.00">application.Main.activate</text>
<text text-anchor="middle" x="1143" y="-36" font-family="Helvetica,sans-Serif" font-size="10.00">ErrorPage</text>
</a>
</g>
</g>
<!-- Node10&#45;&gt;Node11 -->
<g id="edge11" class="edge"><title>Node10&#45;&gt;Node11</title>
<path fill="none" stroke="midnightblue" d="M1043.74,-44C1054.3,-44 1065.06,-44 1075.39,-44"/>
<polygon fill="midnightblue" stroke="midnightblue" points="1043.69,-40.5001 1033.69,-44 1043.69,-47.5001 1043.69,-40.5001"/>
</g>
<!-- Node12 -->
<g id="node12" class="node"><title>Node12</title>
<g id="a_node12"><a xlink:href="../../d9/d96/classapplication_1_1_main.html#aef0593911aa3cbc594ac75bbb8d6a2b0" target="_top" xlink:title="application.Main.activate\lImportXMLButton">
<polygon fill="white" stroke="black" points="1252.5,-7 1252.5,-37 1387.5,-37 1387.5,-7 1252.5,-7"/>
<text text-anchor="start" x="1260.5" y="-25" font-family="Helvetica,sans-Serif" font-size="10.00">application.Main.activate</text>
<text text-anchor="middle" x="1320" y="-14" font-family="Helvetica,sans-Serif" font-size="10.00">ImportXMLButton</text>
</a>
</g>
</g>
<!-- Node11&#45;&gt;Node12 -->
<g id="edge12" class="edge"><title>Node11&#45;&gt;Node12</title>
<path fill="none" stroke="midnightblue" d="M1220.66,-34.3627C1231.18,-33.0402 1241.91,-31.691 1252.24,-30.3931"/>
<polygon fill="midnightblue" stroke="midnightblue" points="1220.14,-30.8999 1210.66,-35.62 1221.02,-37.8452 1220.14,-30.8999"/>
</g>
<!-- Node12&#45;&gt;Node1 -->
<g id="edge13" class="edge"><title>Node12&#45;&gt;Node1</title>
<path fill="none" stroke="midnightblue" d="M1241.91,-14.4438C1170.26,-8.07764 1060.52,-0 965,-0 431,-0 431,-0 431,-0 334.167,-0 223.54,-17.5223 153.032,-30.9379"/>
<polygon fill="midnightblue" stroke="midnightblue" points="1241.93,-17.9592 1252.2,-15.3694 1242.55,-10.9874 1241.93,-17.9592"/>
</g>
</g>
</svg>
