<?xml version="1.0" encoding="UTF-8" standalone="no"?>
<!DOCTYPE svg PUBLIC "-//W3C//DTD SVG 1.1//EN"
 "http://www.w3.org/Graphics/SVG/1.1/DTD/svg11.dtd">
<!-- Generated by graphviz version 2.36.0 (20140111.2315)
 -->
<!-- Title: application.Main.createPauseButton Pages: 1 -->
<svg width="2296pt" height="96pt"
 viewBox="0.00 0.00 2296.00 96.00" xmlns="http://www.w3.org/2000/svg" xmlns:xlink="http://www.w3.org/1999/xlink">
<g id="graph0" class="graph" transform="scale(1 1) rotate(0) translate(4 92)">
<title>application.Main.createPauseButton</title>
<polygon fill="white" stroke="none" points="-4,4 -4,-92 2292,-92 2292,4 -4,4"/>
<!-- Node1 -->
<g id="node1" class="node"><title>Node1</title>
<polygon fill="#bfbfbf" stroke="black" points="0,-5 0,-35 156,-35 156,-5 0,-5"/>
<text text-anchor="start" x="8" y="-23" font-family="Helvetica,sans-Serif" font-size="10.00">application.Main.createPause</text>
<text text-anchor="middle" x="78" y="-12" font-family="Helvetica,sans-Serif" font-size="10.00">Button</text>
</g>
<!-- Node2 -->
<g id="node2" class="node"><title>Node2</title>
<g id="a_node2"><a xlink:href="../../d9/d96/classapplication_1_1_main.html#a2ddf30fb8360296e1ad3459fe6f920fb" target="_top" xlink:title="application.Main.populate\lGridPageModules">
<polygon fill="white" stroke="black" points="192.5,-5 192.5,-35 331.5,-35 331.5,-5 192.5,-5"/>
<text text-anchor="start" x="200.5" y="-23" font-family="Helvetica,sans-Serif" font-size="10.00">application.Main.populate</text>
<text text-anchor="middle" x="262" y="-12" font-family="Helvetica,sans-Serif" font-size="10.00">GridPageModules</text>
</a>
</g>
</g>
<!-- Node1&#45;&gt;Node2 -->
<g id="edge1" class="edge"><title>Node1&#45;&gt;Node2</title>
<path fill="none" stroke="midnightblue" d="M166.38,-20C175.098,-20 183.861,-20 192.348,-20"/>
<polygon fill="midnightblue" stroke="midnightblue" points="166.184,-16.5001 156.184,-20 166.184,-23.5001 166.184,-16.5001"/>
</g>
<!-- Node3 -->
<g id="node3" class="node"><title>Node3</title>
<g id="a_node3"><a xlink:href="../../d9/d96/classapplication_1_1_main.html#adc868cfca1990edad66af3dcb8cf4349" target="_top" xlink:title="application.Main.playGame">
<polygon fill="white" stroke="black" points="368,-31.5 368,-50.5 514,-50.5 514,-31.5 368,-31.5"/>
<text text-anchor="middle" x="441" y="-38.5" font-family="Helvetica,sans-Serif" font-size="10.00">application.Main.playGame</text>
</a>
</g>
</g>
<!-- Node2&#45;&gt;Node3 -->
<g id="edge2" class="edge"><title>Node2&#45;&gt;Node3</title>
<path fill="none" stroke="midnightblue" d="M341.787,-29.3477C350.459,-30.3765 359.256,-31.4202 367.841,-32.4387"/>
<polygon fill="midnightblue" stroke="midnightblue" points="342.029,-25.8518 331.686,-28.1492 341.204,-32.8031 342.029,-25.8518"/>
</g>
<!-- Node4 -->
<g id="node4" class="node"><title>Node4</title>
<g id="a_node4"><a xlink:href="../../d9/d96/classapplication_1_1_main.html#ada0f47786d75e28e627d2621d75eaf5a" target="_top" xlink:title="application.Main.activate\lStartButton">
<polygon fill="white" stroke="black" points="550.5,-29 550.5,-59 685.5,-59 685.5,-29 550.5,-29"/>
<text text-anchor="start" x="558.5" y="-47" font-family="Helvetica,sans-Serif" font-size="10.00">application.Main.activate</text>
<text text-anchor="middle" x="618" y="-36" font-family="Helvetica,sans-Serif" font-size="10.00">StartButton</text>
</a>
</g>
</g>
<!-- Node3&#45;&gt;Node4 -->
<g id="edge3" class="edge"><title>Node3&#45;&gt;Node4</title>
<path fill="none" stroke="midnightblue" d="M524.351,-42.4117C533.052,-42.5609 541.82,-42.7112 550.312,-42.8568"/>
<polygon fill="midnightblue" stroke="midnightblue" points="524.248,-38.9095 514.19,-42.2375 524.128,-45.9085 524.248,-38.9095"/>
</g>
<!-- Node5 -->
<g id="node5" class="node"><title>Node5</title>
<g id="a_node5"><a xlink:href="../../d9/d96/classapplication_1_1_main.html#a64e6451d894979853890a235efe37db8" target="_top" xlink:title="application.Main.createStart\lGameButton">
<polygon fill="white" stroke="black" points="722,-29 722,-59 874,-59 874,-29 722,-29"/>
<text text-anchor="start" x="730" y="-47" font-family="Helvetica,sans-Serif" font-size="10.00">application.Main.createStart</text>
<text text-anchor="middle" x="798" y="-36" font-family="Helvetica,sans-Serif" font-size="10.00">GameButton</text>
</a>
</g>
</g>
<!-- Node4&#45;&gt;Node5 -->
<g id="edge4" class="edge"><title>Node4&#45;&gt;Node5</title>
<path fill="none" stroke="midnightblue" d="M695.646,-44C704.341,-44 713.196,-44 721.871,-44"/>
<polygon fill="midnightblue" stroke="midnightblue" points="695.534,-40.5001 685.534,-44 695.534,-47.5001 695.534,-40.5001"/>
</g>
<!-- Node6 -->
<g id="node6" class="node"><title>Node6</title>
<g id="a_node6"><a xlink:href="../../d9/d96/classapplication_1_1_main.html#a5fee6c1b05965eca9205a99e3245a5fb" target="_top" xlink:title="application.Main.populate\lStartPageModules">
<polygon fill="white" stroke="black" points="910.5,-29 910.5,-59 1049.5,-59 1049.5,-29 910.5,-29"/>
<text text-anchor="start" x="918.5" y="-47" font-family="Helvetica,sans-Serif" font-size="10.00">application.Main.populate</text>
<text text-anchor="middle" x="980" y="-36" font-family="Helvetica,sans-Serif" font-size="10.00">StartPageModules</text>
</a>
</g>
</g>
<!-- Node5&#45;&gt;Node6 -->
<g id="edge5" class="edge"><title>Node5&#45;&gt;Node6</title>
<path fill="none" stroke="midnightblue" d="M884.274,-44C893.039,-44 901.864,-44 910.415,-44"/>
<polygon fill="midnightblue" stroke="midnightblue" points="884.033,-40.5001 874.033,-44 884.033,-47.5001 884.033,-40.5001"/>
</g>
<!-- Node7 -->
<g id="node7" class="node"><title>Node7</title>
<g id="a_node7"><a xlink:href="../../d9/d96/classapplication_1_1_main.html#a4e5ad4e3de8bbd8654120180a94e870d" target="_top" xlink:title="application.Main.start">
<polygon fill="white" stroke="black" points="1086.5,-34.5 1086.5,-53.5 1205.5,-53.5 1205.5,-34.5 1086.5,-34.5"/>
<text text-anchor="middle" x="1146" y="-41.5" font-family="Helvetica,sans-Serif" font-size="10.00">application.Main.start</text>
</a>
</g>
</g>
<!-- Node6&#45;&gt;Node7 -->
<g id="edge6" class="edge"><title>Node6&#45;&gt;Node7</title>
<path fill="none" stroke="midnightblue" d="M1059.68,-44C1068.64,-44 1077.66,-44 1086.3,-44"/>
<polygon fill="midnightblue" stroke="midnightblue" points="1059.6,-40.5001 1049.6,-44 1059.6,-47.5001 1059.6,-40.5001"/>
</g>
<!-- Node8 -->
<g id="node8" class="node"><title>Node8</title>
<g id="a_node8"><a xlink:href="../../d9/d96/classapplication_1_1_main.html#ad652e3294ffb6519b18d784d5831c76a" target="_top" xlink:title="application.Main.activate\lReturntoStart">
<polygon fill="white" stroke="black" points="1242.5,-29 1242.5,-59 1377.5,-59 1377.5,-29 1242.5,-29"/>
<text text-anchor="start" x="1250.5" y="-47" font-family="Helvetica,sans-Serif" font-size="10.00">application.Main.activate</text>
<text text-anchor="middle" x="1310" y="-36" font-family="Helvetica,sans-Serif" font-size="10.00">ReturntoStart</text>
</a>
</g>
</g>
<!-- Node7&#45;&gt;Node8 -->
<g id="edge7" class="edge"><title>Node7&#45;&gt;Node8</title>
<path fill="none" stroke="midnightblue" d="M1216.08,-44C1224.81,-44 1233.73,-44 1242.42,-44"/>
<polygon fill="midnightblue" stroke="midnightblue" points="1215.94,-40.5001 1205.94,-44 1215.94,-47.5001 1215.94,-40.5001"/>
</g>
<!-- Node9 -->
<g id="node9" class="node"><title>Node9</title>
<g id="a_node9"><a xlink:href="../../d9/d96/classapplication_1_1_main.html#a4c5877fafc53c4fae488f1f30faf294b" target="_top" xlink:title="application.Main.createReturn\lToStartButton">
<polygon fill="white" stroke="black" points="1414,-29 1414,-59 1572,-59 1572,-29 1414,-29"/>
<text text-anchor="start" x="1422" y="-47" font-family="Helvetica,sans-Serif" font-size="10.00">application.Main.createReturn</text>
<text text-anchor="middle" x="1493" y="-36" font-family="Helvetica,sans-Serif" font-size="10.00">ToStartButton</text>
</a>
</g>
</g>
<!-- Node8&#45;&gt;Node9 -->
<g id="edge8" class="edge"><title>Node8&#45;&gt;Node9</title>
<path fill="none" stroke="midnightblue" d="M1387.7,-44C1396.36,-44 1405.19,-44 1413.87,-44"/>
<polygon fill="midnightblue" stroke="midnightblue" points="1387.63,-40.5001 1377.63,-44 1387.63,-47.5001 1387.63,-40.5001"/>
</g>
<!-- Node9&#45;&gt;Node2 -->
<g id="edge9" class="edge"><title>Node9&#45;&gt;Node2</title>
<path fill="none" stroke="midnightblue" d="M1420.64,-26.8172C1406.57,-23.8641 1391.87,-21.0812 1378,-19 1276.13,-3.71043 1250.01,-0 1147,-0 617,-0 617,-0 617,-0 517.74,-0 403.074,-7.93505 331.792,-13.8088"/>
<polygon fill="midnightblue" stroke="midnightblue" points="1420.24,-30.3112 1430.75,-28.99 1421.71,-23.4673 1420.24,-30.3112"/>
</g>
<!-- Node10 -->
<g id="node10" class="node"><title>Node10</title>
<g id="a_node10"><a xlink:href="../../d9/d96/classapplication_1_1_main.html#abcabe1a32eb7b5054cf34ca0def07531" target="_top" xlink:title="application.Main.populate\lErrorPageModules">
<polygon fill="white" stroke="black" points="1608.5,-29 1608.5,-59 1747.5,-59 1747.5,-29 1608.5,-29"/>
<text text-anchor="start" x="1616.5" y="-47" font-family="Helvetica,sans-Serif" font-size="10.00">application.Main.populate</text>
<text text-anchor="middle" x="1678" y="-36" font-family="Helvetica,sans-Serif" font-size="10.00">ErrorPageModules</text>
</a>
</g>
</g>
<!-- Node9&#45;&gt;Node10 -->
<g id="edge10" class="edge"><title>Node9&#45;&gt;Node10</title>
<path fill="none" stroke="midnightblue" d="M1582.36,-44C1591.1,-44 1599.87,-44 1608.37,-44"/>
<polygon fill="midnightblue" stroke="midnightblue" points="1582.14,-40.5001 1572.14,-44 1582.14,-47.5001 1582.14,-40.5001"/>
</g>
<!-- Node11 -->
<g id="node11" class="node"><title>Node11</title>
<g id="a_node11"><a xlink:href="../../d9/d96/classapplication_1_1_main.html#a81e70f73d65beae34c459628791cc5d4" target="_top" xlink:title="application.Main.activate\lErrorPage">
<polygon fill="white" stroke="black" points="1784.5,-29 1784.5,-59 1919.5,-59 1919.5,-29 1784.5,-29"/>
<text text-anchor="start" x="1792.5" y="-47" font-family="Helvetica,sans-Serif" font-size="10.00">application.Main.activate</text>
<text text-anchor="middle" x="1852" y="-36" font-family="Helvetica,sans-Serif" font-size="10.00">ErrorPage</text>
</a>
</g>
</g>
<!-- Node10&#45;&gt;Node11 -->
<g id="edge11" class="edge"><title>Node10&#45;&gt;Node11</title>
<path fill="none" stroke="midnightblue" d="M1758.15,-44C1766.88,-44 1775.7,-44 1784.25,-44"/>
<polygon fill="midnightblue" stroke="midnightblue" points="1757.97,-40.5001 1747.97,-44 1757.97,-47.5001 1757.97,-40.5001"/>
</g>
<!-- Node12 -->
<g id="node12" class="node"><title>Node12</title>
<g id="a_node12"><a xlink:href="../../d9/d96/classapplication_1_1_main.html#aef0593911aa3cbc594ac75bbb8d6a2b0" target="_top" xlink:title="application.Main.activate\lImportXMLButton">
<polygon fill="white" stroke="black" points="1956.5,-29 1956.5,-59 2091.5,-59 2091.5,-29 1956.5,-29"/>
<text text-anchor="start" x="1964.5" y="-47" font-family="Helvetica,sans-Serif" font-size="10.00">application.Main.activate</text>
<text text-anchor="middle" x="2024" y="-36" font-family="Helvetica,sans-Serif" font-size="10.00">ImportXMLButton</text>
</a>
</g>
</g>
<!-- Node11&#45;&gt;Node12 -->
<g id="edge12" class="edge"><title>Node11&#45;&gt;Node12</title>
<path fill="none" stroke="midnightblue" d="M1929.72,-44C1938.65,-44 1947.71,-44 1956.49,-44"/>
<polygon fill="midnightblue" stroke="midnightblue" points="1929.7,-40.5001 1919.7,-44 1929.7,-47.5001 1929.7,-40.5001"/>
</g>
<!-- Node13 -->
<g id="node13" class="node"><title>Node13</title>
<g id="a_node13"><a xlink:href="../../d9/d96/classapplication_1_1_main.html#a18021492af2e457d39edcbd16dc0d3c8" target="_top" xlink:title="application.Main.createImport\lXMLButton">
<polygon fill="white" stroke="black" points="2128.5,-51 2128.5,-81 2287.5,-81 2287.5,-51 2128.5,-51"/>
<text text-anchor="start" x="2136.5" y="-69" font-family="Helvetica,sans-Serif" font-size="10.00">application.Main.createImport</text>
<text text-anchor="middle" x="2208" y="-58" font-family="Helvetica,sans-Serif" font-size="10.00">XMLButton</text>
</a>
</g>
</g>
<!-- Node12&#45;&gt;Node13 -->
<g id="edge13" class="edge"><title>Node12&#45;&gt;Node13</title>
<path fill="none" stroke="midnightblue" d="M2101.87,-53.2923C2110.59,-54.3465 2119.49,-55.4221 2128.24,-56.4792"/>
<polygon fill="midnightblue" stroke="midnightblue" points="2102.08,-49.7925 2091.74,-52.0671 2101.24,-56.7419 2102.08,-49.7925"/>
</g>
<!-- Node13&#45;&gt;Node6 -->
<g id="edge14" class="edge"><title>Node13&#45;&gt;Node6</title>
<path fill="none" stroke="midnightblue" d="M2118.03,-74.5964C2046.5,-80.7676 1943.38,-88 1853,-88 1309,-88 1309,-88 1309,-88 1218.8,-88 1115.87,-71.451 1049.75,-58.6514"/>
<polygon fill="midnightblue" stroke="midnightblue" points="2118.69,-78.0519 2128.35,-73.6945 2118.08,-71.0785 2118.69,-78.0519"/>
</g>
</g>
</svg>
