<?xml version="1.0" encoding="UTF-8" standalone="no"?>
<!DOCTYPE svg PUBLIC "-//W3C//DTD SVG 1.1//EN"
 "http://www.w3.org/Graphics/SVG/1.1/DTD/svg11.dtd">
<!-- Generated by graphviz version 2.36.0 (20140111.2315)
 -->
<!-- Title: application.Main.createStepThroughButton Pages: 1 -->
<svg width="1150pt" height="156pt"
 viewBox="0.00 0.00 1150.00 156.00" xmlns="http://www.w3.org/2000/svg" xmlns:xlink="http://www.w3.org/1999/xlink">
<g id="graph0" class="graph" transform="scale(1 1) rotate(0) translate(4 152)">
<title>application.Main.createStepThroughButton</title>
<polygon fill="white" stroke="none" points="-4,4 -4,-152 1146,-152 1146,4 -4,4"/>
<!-- Node1 -->
<g id="node1" class="node"><title>Node1</title>
<polygon fill="#bfbfbf" stroke="black" points="0,-47 0,-77 150,-77 150,-47 0,-47"/>
<text text-anchor="start" x="8" y="-65" font-family="Helvetica,sans-Serif" font-size="10.00">application.Main.createStep</text>
<text text-anchor="middle" x="75" y="-54" font-family="Helvetica,sans-Serif" font-size="10.00">ThroughButton</text>
</g>
<!-- Node2 -->
<g id="node2" class="node"><title>Node2</title>
<g id="a_node2"><a xlink:href="../../d9/d96/classapplication_1_1_main.html#a54922ba4610913cb11270dc424da1be6" target="_top" xlink:title="application.Main.activate\lStepThroughFrame">
<polygon fill="white" stroke="black" points="198.5,-69 198.5,-99 333.5,-99 333.5,-69 198.5,-69"/>
<text text-anchor="start" x="206.5" y="-87" font-family="Helvetica,sans-Serif" font-size="10.00">application.Main.activate</text>
<text text-anchor="middle" x="266" y="-76" font-family="Helvetica,sans-Serif" font-size="10.00">StepThroughFrame</text>
</a>
</g>
</g>
<!-- Node1&#45;&gt;Node2 -->
<g id="edge1" class="edge"><title>Node1&#45;&gt;Node2</title>
<path fill="none" stroke="midnightblue" d="M150.155,-70.6318C162.722,-72.0946 175.793,-73.6161 188.42,-75.086"/>
<polygon fill="midnightblue" stroke="midnightblue" points="188.097,-78.5718 198.434,-76.2516 188.906,-71.6188 188.097,-78.5718"/>
</g>
<!-- Node10 -->
<g id="node10" class="node"><title>Node10</title>
<g id="a_node10"><a xlink:href="../../d9/d96/classapplication_1_1_main.html#a2a2b201e08149dcf815a49c57974b0e5" target="_top" xlink:title="application.Main.createButton">
<polygon fill="white" stroke="black" points="186,-30.5 186,-49.5 346,-49.5 346,-30.5 186,-30.5"/>
<text text-anchor="middle" x="266" y="-37.5" font-family="Helvetica,sans-Serif" font-size="10.00">application.Main.createButton</text>
</a>
</g>
</g>
<!-- Node1&#45;&gt;Node10 -->
<g id="edge9" class="edge"><title>Node1&#45;&gt;Node10</title>
<path fill="none" stroke="midnightblue" d="M150.155,-53.3682C158.555,-52.3905 167.179,-51.3865 175.746,-50.3893"/>
<polygon fill="midnightblue" stroke="midnightblue" points="176.231,-53.8566 185.759,-49.2238 175.422,-46.9036 176.231,-53.8566"/>
</g>
<!-- Node3 -->
<g id="node3" class="node"><title>Node3</title>
<g id="a_node3"><a xlink:href="../../d9/d5e/classapplication_1_1_application_loop.html#a5750a9e01dbb29cdf3fa5aeec69b68d3" target="_top" xlink:title="application.ApplicationLoop.update\lGameLoop">
<polygon fill="white" stroke="black" points="382,-69 382,-99 566,-99 566,-69 382,-69"/>
<text text-anchor="start" x="390" y="-87" font-family="Helvetica,sans-Serif" font-size="10.00">application.ApplicationLoop.update</text>
<text text-anchor="middle" x="474" y="-76" font-family="Helvetica,sans-Serif" font-size="10.00">GameLoop</text>
</a>
</g>
</g>
<!-- Node2&#45;&gt;Node3 -->
<g id="edge2" class="edge"><title>Node2&#45;&gt;Node3</title>
<path fill="none" stroke="midnightblue" d="M333.598,-84C345.749,-84 358.675,-84 371.569,-84"/>
<polygon fill="midnightblue" stroke="midnightblue" points="371.887,-87.5001 381.887,-84 371.887,-80.5001 371.887,-87.5001"/>
</g>
<!-- Node4 -->
<g id="node4" class="node"><title>Node4</title>
<g id="a_node4"><a xlink:href="../../d9/d5e/classapplication_1_1_application_loop.html#a4ed391042db7dc3e62e9749f28c82f09" target="_top" xlink:title="application.ApplicationLoop.add\lPointsToLineChart">
<polygon fill="white" stroke="black" points="607,-118 607,-148 775,-148 775,-118 607,-118"/>
<text text-anchor="start" x="615" y="-136" font-family="Helvetica,sans-Serif" font-size="10.00">application.ApplicationLoop.add</text>
<text text-anchor="middle" x="691" y="-125" font-family="Helvetica,sans-Serif" font-size="10.00">PointsToLineChart</text>
</a>
</g>
</g>
<!-- Node3&#45;&gt;Node4 -->
<g id="edge3" class="edge"><title>Node3&#45;&gt;Node4</title>
<path fill="none" stroke="midnightblue" d="M540.968,-99.0346C564.185,-104.326 590.456,-110.313 614.404,-115.771"/>
<polygon fill="midnightblue" stroke="midnightblue" points="613.629,-119.184 624.157,-117.994 615.184,-112.359 613.629,-119.184"/>
</g>
<!-- Node5 -->
<g id="node5" class="node"><title>Node5</title>
<g id="a_node5"><a xlink:href="../../d9/d5e/classapplication_1_1_application_loop.html#a5e176f31f90e5c1ab7b09e68ac391d92" target="_top" xlink:title="application.ApplicationLoop.count\lNumberOfCertainColorSpaces">
<polygon fill="white" stroke="black" points="602.5,-69 602.5,-99 779.5,-99 779.5,-69 602.5,-69"/>
<text text-anchor="start" x="610.5" y="-87" font-family="Helvetica,sans-Serif" font-size="10.00">application.ApplicationLoop.count</text>
<text text-anchor="middle" x="691" y="-76" font-family="Helvetica,sans-Serif" font-size="10.00">NumberOfCertainColorSpaces</text>
</a>
</g>
</g>
<!-- Node3&#45;&gt;Node5 -->
<g id="edge4" class="edge"><title>Node3&#45;&gt;Node5</title>
<path fill="none" stroke="midnightblue" d="M566.179,-84C574.817,-84 583.598,-84 592.293,-84"/>
<polygon fill="midnightblue" stroke="midnightblue" points="592.447,-87.5001 602.447,-84 592.447,-80.5001 592.447,-87.5001"/>
</g>
<!-- Node6 -->
<g id="node6" class="node"><title>Node6</title>
<g id="a_node6"><a xlink:href="../../d3/d32/classapplication_1_1_grid.html#af59c90cc59f615f7eb538b683abe0d3e" target="_top" xlink:title="application.Grid.updateGrid">
<polygon fill="white" stroke="black" points="617.5,-30.5 617.5,-49.5 764.5,-49.5 764.5,-30.5 617.5,-30.5"/>
<text text-anchor="middle" x="691" y="-37.5" font-family="Helvetica,sans-Serif" font-size="10.00">application.Grid.updateGrid</text>
</a>
</g>
</g>
<!-- Node3&#45;&gt;Node6 -->
<g id="edge5" class="edge"><title>Node3&#45;&gt;Node6</title>
<path fill="none" stroke="midnightblue" d="M548.389,-68.9808C576.204,-63.2885 607.418,-56.9006 633.447,-51.5736"/>
<polygon fill="midnightblue" stroke="midnightblue" points="634.424,-54.9464 643.519,-49.5124 633.02,-48.0885 634.424,-54.9464"/>
</g>
<!-- Node7 -->
<g id="node7" class="node"><title>Node7</title>
<g id="a_node7"><a xlink:href="../../d3/d32/classapplication_1_1_grid.html#a74143390c54d93896daded8d752f992e" target="_top" xlink:title="application.Grid.repopulate\lGridPane">
<polygon fill="white" stroke="black" points="816,-50 816,-80 962,-80 962,-50 816,-50"/>
<text text-anchor="start" x="824" y="-68" font-family="Helvetica,sans-Serif" font-size="10.00">application.Grid.repopulate</text>
<text text-anchor="middle" x="889" y="-57" font-family="Helvetica,sans-Serif" font-size="10.00">GridPane</text>
</a>
</g>
</g>
<!-- Node6&#45;&gt;Node7 -->
<g id="edge6" class="edge"><title>Node6&#45;&gt;Node7</title>
<path fill="none" stroke="midnightblue" d="M764.705,-49.2736C777.987,-50.9678 791.936,-52.7469 805.479,-54.4744"/>
<polygon fill="midnightblue" stroke="midnightblue" points="805.377,-57.9896 815.739,-55.7831 806.263,-51.0459 805.377,-57.9896"/>
</g>
<!-- Node8 -->
<g id="node8" class="node"><title>Node8</title>
<g id="a_node8"><a xlink:href="../../d3/d32/classapplication_1_1_grid.html#a315db0ee4ce99fd922f84922a2acb74e" target="_top" xlink:title="application.Grid.updateCell\lMatrix">
<polygon fill="white" stroke="black" points="816.5,-1 816.5,-31 961.5,-31 961.5,-1 816.5,-1"/>
<text text-anchor="start" x="824.5" y="-19" font-family="Helvetica,sans-Serif" font-size="10.00">application.Grid.updateCell</text>
<text text-anchor="middle" x="889" y="-8" font-family="Helvetica,sans-Serif" font-size="10.00">Matrix</text>
</a>
</g>
</g>
<!-- Node6&#45;&gt;Node8 -->
<g id="edge7" class="edge"><title>Node6&#45;&gt;Node8</title>
<path fill="none" stroke="midnightblue" d="M764.705,-31.0974C778.293,-29.4335 792.578,-27.6844 806.413,-25.9902"/>
<polygon fill="midnightblue" stroke="midnightblue" points="806.891,-29.4579 816.392,-24.7684 806.041,-22.5098 806.891,-29.4579"/>
</g>
<!-- Node9 -->
<g id="node9" class="node"><title>Node9</title>
<g id="a_node9"><a xlink:href="../../d7/dff/classapplication_1_1_cell.html#a009926fa26199176d7e24f2a9fcec5bc" target="_top" xlink:title="application.Cell.updateCell">
<polygon fill="white" stroke="black" points="998.5,-6.5 998.5,-25.5 1141.5,-25.5 1141.5,-6.5 998.5,-6.5"/>
<text text-anchor="middle" x="1070" y="-13.5" font-family="Helvetica,sans-Serif" font-size="10.00">application.Cell.updateCell</text>
</a>
</g>
</g>
<!-- Node8&#45;&gt;Node9 -->
<g id="edge8" class="edge"><title>Node8&#45;&gt;Node9</title>
<path fill="none" stroke="midnightblue" d="M961.517,-16C970.361,-16 979.45,-16 988.418,-16"/>
<polygon fill="midnightblue" stroke="midnightblue" points="988.472,-19.5001 998.472,-16 988.472,-12.5001 988.472,-19.5001"/>
</g>
</g>
</svg>
