<?xml version="1.0" encoding="UTF-8" standalone="no"?>
<!DOCTYPE svg PUBLIC "-//W3C//DTD SVG 1.1//EN"
 "http://www.w3.org/Graphics/SVG/1.1/DTD/svg11.dtd">
<!-- Generated by graphviz version 2.36.0 (20140111.2315)
 -->
<!-- Title: application.Main.createStepThroughButton Pages: 1 -->
<svg width="2290pt" height="96pt"
 viewBox="0.00 0.00 2290.00 96.00" xmlns="http://www.w3.org/2000/svg" xmlns:xlink="http://www.w3.org/1999/xlink">
<g id="graph0" class="graph" transform="scale(1 1) rotate(0) translate(4 92)">
<title>application.Main.createStepThroughButton</title>
<polygon fill="white" stroke="none" points="-4,4 -4,-92 2286,-92 2286,4 -4,4"/>
<!-- Node1 -->
<g id="node1" class="node"><title>Node1</title>
<polygon fill="#bfbfbf" stroke="black" points="0,-5 0,-35 150,-35 150,-5 0,-5"/>
<text text-anchor="start" x="8" y="-23" font-family="Helvetica,sans-Serif" font-size="10.00">application.Main.createStep</text>
<text text-anchor="middle" x="75" y="-12" font-family="Helvetica,sans-Serif" font-size="10.00">ThroughButton</text>
</g>
<!-- Node2 -->
<g id="node2" class="node"><title>Node2</title>
<g id="a_node2"><a xlink:href="../../d9/d96/classapplication_1_1_main.html#a2ddf30fb8360296e1ad3459fe6f920fb" target="_top" xlink:title="application.Main.populate\lGridPageModules">
<polygon fill="white" stroke="black" points="186.5,-5 186.5,-35 325.5,-35 325.5,-5 186.5,-5"/>
<text text-anchor="start" x="194.5" y="-23" font-family="Helvetica,sans-Serif" font-size="10.00">application.Main.populate</text>
<text text-anchor="middle" x="256" y="-12" font-family="Helvetica,sans-Serif" font-size="10.00">GridPageModules</text>
</a>
</g>
</g>
<!-- Node1&#45;&gt;Node2 -->
<g id="edge1" class="edge"><title>Node1&#45;&gt;Node2</title>
<path fill="none" stroke="midnightblue" d="M160.313,-20C169.057,-20 177.868,-20 186.409,-20"/>
<polygon fill="midnightblue" stroke="midnightblue" points="160.098,-16.5001 150.098,-20 160.098,-23.5001 160.098,-16.5001"/>
</g>
<!-- Node3 -->
<g id="node3" class="node"><title>Node3</title>
<g id="a_node3"><a xlink:href="../../d9/d96/classapplication_1_1_main.html#adc868cfca1990edad66af3dcb8cf4349" target="_top" xlink:title="application.Main.playGame">
<polygon fill="white" stroke="black" points="362,-31.5 362,-50.5 508,-50.5 508,-31.5 362,-31.5"/>
<text text-anchor="middle" x="435" y="-38.5" font-family="Helvetica,sans-Serif" font-size="10.00">application.Main.playGame</text>
</a>
</g>
</g>
<!-- Node2&#45;&gt;Node3 -->
<g id="edge2" class="edge"><title>Node2&#45;&gt;Node3</title>
<path fill="none" stroke="midnightblue" d="M335.787,-29.3477C344.459,-30.3765 353.256,-31.4202 361.841,-32.4387"/>
<polygon fill="midnightblue" stroke="midnightblue" points="336.029,-25.8518 325.686,-28.1492 335.204,-32.8031 336.029,-25.8518"/>
</g>
<!-- Node4 -->
<g id="node4" class="node"><title>Node4</title>
<g id="a_node4"><a xlink:href="../../d9/d96/classapplication_1_1_main.html#ada0f47786d75e28e627d2621d75eaf5a" target="_top" xlink:title="application.Main.activate\lStartButton">
<polygon fill="white" stroke="black" points="544.5,-29 544.5,-59 679.5,-59 679.5,-29 544.5,-29"/>
<text text-anchor="start" x="552.5" y="-47" font-family="Helvetica,sans-Serif" font-size="10.00">application.Main.activate</text>
<text text-anchor="middle" x="612" y="-36" font-family="Helvetica,sans-Serif" font-size="10.00">StartButton</text>
</a>
</g>
</g>
<!-- Node3&#45;&gt;Node4 -->
<g id="edge3" class="edge"><title>Node3&#45;&gt;Node4</title>
<path fill="none" stroke="midnightblue" d="M518.351,-42.4117C527.052,-42.5609 535.82,-42.7112 544.312,-42.8568"/>
<polygon fill="midnightblue" stroke="midnightblue" points="518.248,-38.9095 508.19,-42.2375 518.128,-45.9085 518.248,-38.9095"/>
</g>
<!-- Node5 -->
<g id="node5" class="node"><title>Node5</title>
<g id="a_node5"><a xlink:href="../../d9/d96/classapplication_1_1_main.html#a64e6451d894979853890a235efe37db8" target="_top" xlink:title="application.Main.createStart\lGameButton">
<polygon fill="white" stroke="black" points="716,-29 716,-59 868,-59 868,-29 716,-29"/>
<text text-anchor="start" x="724" y="-47" font-family="Helvetica,sans-Serif" font-size="10.00">application.Main.createStart</text>
<text text-anchor="middle" x="792" y="-36" font-family="Helvetica,sans-Serif" font-size="10.00">GameButton</text>
</a>
</g>
</g>
<!-- Node4&#45;&gt;Node5 -->
<g id="edge4" class="edge"><title>Node4&#45;&gt;Node5</title>
<path fill="none" stroke="midnightblue" d="M689.646,-44C698.341,-44 707.196,-44 715.871,-44"/>
<polygon fill="midnightblue" stroke="midnightblue" points="689.534,-40.5001 679.534,-44 689.534,-47.5001 689.534,-40.5001"/>
</g>
<!-- Node6 -->
<g id="node6" class="node"><title>Node6</title>
<g id="a_node6"><a xlink:href="../../d9/d96/classapplication_1_1_main.html#a5fee6c1b05965eca9205a99e3245a5fb" target="_top" xlink:title="application.Main.populate\lStartPageModules">
<polygon fill="white" stroke="black" points="904.5,-29 904.5,-59 1043.5,-59 1043.5,-29 904.5,-29"/>
<text text-anchor="start" x="912.5" y="-47" font-family="Helvetica,sans-Serif" font-size="10.00">application.Main.populate</text>
<text text-anchor="middle" x="974" y="-36" font-family="Helvetica,sans-Serif" font-size="10.00">StartPageModules</text>
</a>
</g>
</g>
<!-- Node5&#45;&gt;Node6 -->
<g id="edge5" class="edge"><title>Node5&#45;&gt;Node6</title>
<path fill="none" stroke="midnightblue" d="M878.274,-44C887.039,-44 895.864,-44 904.415,-44"/>
<polygon fill="midnightblue" stroke="midnightblue" points="878.033,-40.5001 868.033,-44 878.033,-47.5001 878.033,-40.5001"/>
</g>
<!-- Node7 -->
<g id="node7" class="node"><title>Node7</title>
<g id="a_node7"><a xlink:href="../../d9/d96/classapplication_1_1_main.html#a4e5ad4e3de8bbd8654120180a94e870d" target="_top" xlink:title="application.Main.start">
<polygon fill="white" stroke="black" points="1080.5,-34.5 1080.5,-53.5 1199.5,-53.5 1199.5,-34.5 1080.5,-34.5"/>
<text text-anchor="middle" x="1140" y="-41.5" font-family="Helvetica,sans-Serif" font-size="10.00">application.Main.start</text>
</a>
</g>
</g>
<!-- Node6&#45;&gt;Node7 -->
<g id="edge6" class="edge"><title>Node6&#45;&gt;Node7</title>
<path fill="none" stroke="midnightblue" d="M1053.68,-44C1062.64,-44 1071.66,-44 1080.3,-44"/>
<polygon fill="midnightblue" stroke="midnightblue" points="1053.6,-40.5001 1043.6,-44 1053.6,-47.5001 1053.6,-40.5001"/>
</g>
<!-- Node8 -->
<g id="node8" class="node"><title>Node8</title>
<g id="a_node8"><a xlink:href="../../d9/d96/classapplication_1_1_main.html#ad652e3294ffb6519b18d784d5831c76a" target="_top" xlink:title="application.Main.activate\lReturntoStart">
<polygon fill="white" stroke="black" points="1236.5,-29 1236.5,-59 1371.5,-59 1371.5,-29 1236.5,-29"/>
<text text-anchor="start" x="1244.5" y="-47" font-family="Helvetica,sans-Serif" font-size="10.00">application.Main.activate</text>
<text text-anchor="middle" x="1304" y="-36" font-family="Helvetica,sans-Serif" font-size="10.00">ReturntoStart</text>
</a>
</g>
</g>
<!-- Node7&#45;&gt;Node8 -->
<g id="edge7" class="edge"><title>Node7&#45;&gt;Node8</title>
<path fill="none" stroke="midnightblue" d="M1210.08,-44C1218.81,-44 1227.73,-44 1236.42,-44"/>
<polygon fill="midnightblue" stroke="midnightblue" points="1209.94,-40.5001 1199.94,-44 1209.94,-47.5001 1209.94,-40.5001"/>
</g>
<!-- Node9 -->
<g id="node9" class="node"><title>Node9</title>
<g id="a_node9"><a xlink:href="../../d9/d96/classapplication_1_1_main.html#a4c5877fafc53c4fae488f1f30faf294b" target="_top" xlink:title="application.Main.createReturn\lToStartButton">
<polygon fill="white" stroke="black" points="1408,-29 1408,-59 1566,-59 1566,-29 1408,-29"/>
<text text-anchor="start" x="1416" y="-47" font-family="Helvetica,sans-Serif" font-size="10.00">application.Main.createReturn</text>
<text text-anchor="middle" x="1487" y="-36" font-family="Helvetica,sans-Serif" font-size="10.00">ToStartButton</text>
</a>
</g>
</g>
<!-- Node8&#45;&gt;Node9 -->
<g id="edge8" class="edge"><title>Node8&#45;&gt;Node9</title>
<path fill="none" stroke="midnightblue" d="M1381.7,-44C1390.36,-44 1399.19,-44 1407.87,-44"/>
<polygon fill="midnightblue" stroke="midnightblue" points="1381.63,-40.5001 1371.63,-44 1381.63,-47.5001 1381.63,-40.5001"/>
</g>
<!-- Node9&#45;&gt;Node2 -->
<g id="edge14" class="edge"><title>Node9&#45;&gt;Node2</title>
<path fill="none" stroke="midnightblue" d="M1414.64,-26.8172C1400.57,-23.8641 1385.87,-21.0812 1372,-19 1270.13,-3.71043 1244.01,-0 1141,-0 611,-0 611,-0 611,-0 511.74,-0 397.074,-7.93505 325.792,-13.8088"/>
<polygon fill="midnightblue" stroke="midnightblue" points="1414.24,-30.3112 1424.75,-28.99 1415.71,-23.4673 1414.24,-30.3112"/>
</g>
<!-- Node10 -->
<g id="node10" class="node"><title>Node10</title>
<g id="a_node10"><a xlink:href="../../d9/d96/classapplication_1_1_main.html#abcabe1a32eb7b5054cf34ca0def07531" target="_top" xlink:title="application.Main.populate\lErrorPageModules">
<polygon fill="white" stroke="black" points="1602.5,-29 1602.5,-59 1741.5,-59 1741.5,-29 1602.5,-29"/>
<text text-anchor="start" x="1610.5" y="-47" font-family="Helvetica,sans-Serif" font-size="10.00">application.Main.populate</text>
<text text-anchor="middle" x="1672" y="-36" font-family="Helvetica,sans-Serif" font-size="10.00">ErrorPageModules</text>
</a>
</g>
</g>
<!-- Node9&#45;&gt;Node10 -->
<g id="edge9" class="edge"><title>Node9&#45;&gt;Node10</title>
<path fill="none" stroke="midnightblue" d="M1576.36,-44C1585.1,-44 1593.87,-44 1602.37,-44"/>
<polygon fill="midnightblue" stroke="midnightblue" points="1576.14,-40.5001 1566.14,-44 1576.14,-47.5001 1576.14,-40.5001"/>
</g>
<!-- Node11 -->
<g id="node11" class="node"><title>Node11</title>
<g id="a_node11"><a xlink:href="../../d9/d96/classapplication_1_1_main.html#a81e70f73d65beae34c459628791cc5d4" target="_top" xlink:title="application.Main.activate\lErrorPage">
<polygon fill="white" stroke="black" points="1778.5,-29 1778.5,-59 1913.5,-59 1913.5,-29 1778.5,-29"/>
<text text-anchor="start" x="1786.5" y="-47" font-family="Helvetica,sans-Serif" font-size="10.00">application.Main.activate</text>
<text text-anchor="middle" x="1846" y="-36" font-family="Helvetica,sans-Serif" font-size="10.00">ErrorPage</text>
</a>
</g>
</g>
<!-- Node10&#45;&gt;Node11 -->
<g id="edge10" class="edge"><title>Node10&#45;&gt;Node11</title>
<path fill="none" stroke="midnightblue" d="M1752.15,-44C1760.88,-44 1769.7,-44 1778.25,-44"/>
<polygon fill="midnightblue" stroke="midnightblue" points="1751.97,-40.5001 1741.97,-44 1751.97,-47.5001 1751.97,-40.5001"/>
</g>
<!-- Node12 -->
<g id="node12" class="node"><title>Node12</title>
<g id="a_node12"><a xlink:href="../../d9/d96/classapplication_1_1_main.html#aef0593911aa3cbc594ac75bbb8d6a2b0" target="_top" xlink:title="application.Main.activate\lImportXMLButton">
<polygon fill="white" stroke="black" points="1950.5,-29 1950.5,-59 2085.5,-59 2085.5,-29 1950.5,-29"/>
<text text-anchor="start" x="1958.5" y="-47" font-family="Helvetica,sans-Serif" font-size="10.00">application.Main.activate</text>
<text text-anchor="middle" x="2018" y="-36" font-family="Helvetica,sans-Serif" font-size="10.00">ImportXMLButton</text>
</a>
</g>
</g>
<!-- Node11&#45;&gt;Node12 -->
<g id="edge11" class="edge"><title>Node11&#45;&gt;Node12</title>
<path fill="none" stroke="midnightblue" d="M1923.72,-44C1932.65,-44 1941.71,-44 1950.49,-44"/>
<polygon fill="midnightblue" stroke="midnightblue" points="1923.7,-40.5001 1913.7,-44 1923.7,-47.5001 1923.7,-40.5001"/>
</g>
<!-- Node13 -->
<g id="node13" class="node"><title>Node13</title>
<g id="a_node13"><a xlink:href="../../d9/d96/classapplication_1_1_main.html#a18021492af2e457d39edcbd16dc0d3c8" target="_top" xlink:title="application.Main.createImport\lXMLButton">
<polygon fill="white" stroke="black" points="2122.5,-51 2122.5,-81 2281.5,-81 2281.5,-51 2122.5,-51"/>
<text text-anchor="start" x="2130.5" y="-69" font-family="Helvetica,sans-Serif" font-size="10.00">application.Main.createImport</text>
<text text-anchor="middle" x="2202" y="-58" font-family="Helvetica,sans-Serif" font-size="10.00">XMLButton</text>
</a>
</g>
</g>
<!-- Node12&#45;&gt;Node13 -->
<g id="edge12" class="edge"><title>Node12&#45;&gt;Node13</title>
<path fill="none" stroke="midnightblue" d="M2095.87,-53.2923C2104.59,-54.3465 2113.49,-55.4221 2122.24,-56.4792"/>
<polygon fill="midnightblue" stroke="midnightblue" points="2096.08,-49.7925 2085.74,-52.0671 2095.24,-56.7419 2096.08,-49.7925"/>
</g>
<!-- Node13&#45;&gt;Node6 -->
<g id="edge13" class="edge"><title>Node13&#45;&gt;Node6</title>
<path fill="none" stroke="midnightblue" d="M2112.03,-74.5964C2040.5,-80.7676 1937.38,-88 1847,-88 1303,-88 1303,-88 1303,-88 1212.8,-88 1109.87,-71.451 1043.75,-58.6514"/>
<polygon fill="midnightblue" stroke="midnightblue" points="2112.69,-78.0519 2122.35,-73.6945 2112.08,-71.0785 2112.69,-78.0519"/>
</g>
</g>
</svg>
