<?xml version="1.0" encoding="UTF-8" standalone="no"?>
<!DOCTYPE svg PUBLIC "-//W3C//DTD SVG 1.1//EN"
 "http://www.w3.org/Graphics/SVG/1.1/DTD/svg11.dtd">
<!-- Generated by graphviz version 2.36.0 (20140111.2315)
 -->
<!-- Title: application.Main.populateStartPageModules Pages: 1 -->
<svg width="1396pt" height="145pt"
 viewBox="0.00 0.00 1396.00 145.00" xmlns="http://www.w3.org/2000/svg" xmlns:xlink="http://www.w3.org/1999/xlink">
<g id="graph0" class="graph" transform="scale(1 1) rotate(0) translate(4 141)">
<title>application.Main.populateStartPageModules</title>
<polygon fill="white" stroke="none" points="-4,4 -4,-141 1392,-141 1392,4 -4,4"/>
<!-- Node1 -->
<g id="node1" class="node"><title>Node1</title>
<polygon fill="#bfbfbf" stroke="black" points="0.5,-53 0.5,-83 139.5,-83 139.5,-53 0.5,-53"/>
<text text-anchor="start" x="8.5" y="-71" font-family="Helvetica,sans-Serif" font-size="10.00">application.Main.populate</text>
<text text-anchor="middle" x="70" y="-60" font-family="Helvetica,sans-Serif" font-size="10.00">StartPageModules</text>
</g>
<!-- Node2 -->
<g id="node2" class="node"><title>Node2</title>
<g id="a_node2"><a xlink:href="../../d9/d96/classapplication_1_1_main.html#a4e5ad4e3de8bbd8654120180a94e870d" target="_top" xlink:title="application.Main.start">
<polygon fill="white" stroke="black" points="176.5,-58.5 176.5,-77.5 295.5,-77.5 295.5,-58.5 176.5,-58.5"/>
<text text-anchor="middle" x="236" y="-65.5" font-family="Helvetica,sans-Serif" font-size="10.00">application.Main.start</text>
</a>
</g>
</g>
<!-- Node1&#45;&gt;Node2 -->
<g id="edge1" class="edge"><title>Node1&#45;&gt;Node2</title>
<path fill="none" stroke="midnightblue" d="M149.677,-68C158.642,-68 167.661,-68 176.302,-68"/>
<polygon fill="midnightblue" stroke="midnightblue" points="149.601,-64.5001 139.601,-68 149.6,-71.5001 149.601,-64.5001"/>
</g>
<!-- Node3 -->
<g id="node3" class="node"><title>Node3</title>
<g id="a_node3"><a xlink:href="../../d9/d96/classapplication_1_1_main.html#ad652e3294ffb6519b18d784d5831c76a" target="_top" xlink:title="application.Main.activate\lReturntoStart">
<polygon fill="white" stroke="black" points="332.5,-53 332.5,-83 467.5,-83 467.5,-53 332.5,-53"/>
<text text-anchor="start" x="340.5" y="-71" font-family="Helvetica,sans-Serif" font-size="10.00">application.Main.activate</text>
<text text-anchor="middle" x="400" y="-60" font-family="Helvetica,sans-Serif" font-size="10.00">ReturntoStart</text>
</a>
</g>
</g>
<!-- Node2&#45;&gt;Node3 -->
<g id="edge2" class="edge"><title>Node2&#45;&gt;Node3</title>
<path fill="none" stroke="midnightblue" d="M306.08,-68C314.81,-68 323.729,-68 332.419,-68"/>
<polygon fill="midnightblue" stroke="midnightblue" points="305.944,-64.5001 295.944,-68 305.944,-71.5001 305.944,-64.5001"/>
</g>
<!-- Node4 -->
<g id="node4" class="node"><title>Node4</title>
<g id="a_node4"><a xlink:href="../../d9/d96/classapplication_1_1_main.html#a4c5877fafc53c4fae488f1f30faf294b" target="_top" xlink:title="application.Main.createReturn\lToStartButton">
<polygon fill="white" stroke="black" points="504,-53 504,-83 662,-83 662,-53 504,-53"/>
<text text-anchor="start" x="512" y="-71" font-family="Helvetica,sans-Serif" font-size="10.00">application.Main.createReturn</text>
<text text-anchor="middle" x="583" y="-60" font-family="Helvetica,sans-Serif" font-size="10.00">ToStartButton</text>
</a>
</g>
</g>
<!-- Node3&#45;&gt;Node4 -->
<g id="edge3" class="edge"><title>Node3&#45;&gt;Node4</title>
<path fill="none" stroke="midnightblue" d="M477.696,-68C486.358,-68 495.193,-68 503.873,-68"/>
<polygon fill="midnightblue" stroke="midnightblue" points="477.627,-64.5001 467.627,-68 477.627,-71.5001 477.627,-64.5001"/>
</g>
<!-- Node5 -->
<g id="node5" class="node"><title>Node5</title>
<g id="a_node5"><a xlink:href="../../d9/d96/classapplication_1_1_main.html#abcabe1a32eb7b5054cf34ca0def07531" target="_top" xlink:title="application.Main.populate\lErrorPageModules">
<polygon fill="white" stroke="black" points="698.5,-78 698.5,-108 837.5,-108 837.5,-78 698.5,-78"/>
<text text-anchor="start" x="706.5" y="-96" font-family="Helvetica,sans-Serif" font-size="10.00">application.Main.populate</text>
<text text-anchor="middle" x="768" y="-85" font-family="Helvetica,sans-Serif" font-size="10.00">ErrorPageModules</text>
</a>
</g>
</g>
<!-- Node4&#45;&gt;Node5 -->
<g id="edge4" class="edge"><title>Node4&#45;&gt;Node5</title>
<path fill="none" stroke="midnightblue" d="M672.074,-80.032C680.905,-81.2384 689.779,-82.4507 698.365,-83.6237"/>
<polygon fill="midnightblue" stroke="midnightblue" points="672.521,-76.5606 662.139,-78.6748 671.573,-83.4962 672.521,-76.5606"/>
</g>
<!-- Node9 -->
<g id="node9" class="node"><title>Node9</title>
<g id="a_node9"><a xlink:href="../../d9/d96/classapplication_1_1_main.html#a2ddf30fb8360296e1ad3459fe6f920fb" target="_top" xlink:title="application.Main.populate\lGridPageModules">
<polygon fill="white" stroke="black" points="698.5,-29 698.5,-59 837.5,-59 837.5,-29 698.5,-29"/>
<text text-anchor="start" x="706.5" y="-47" font-family="Helvetica,sans-Serif" font-size="10.00">application.Main.populate</text>
<text text-anchor="middle" x="768" y="-36" font-family="Helvetica,sans-Serif" font-size="10.00">GridPageModules</text>
</a>
</g>
</g>
<!-- Node4&#45;&gt;Node9 -->
<g id="edge9" class="edge"><title>Node4&#45;&gt;Node9</title>
<path fill="none" stroke="midnightblue" d="M672.074,-56.4493C680.905,-55.2911 689.779,-54.1274 698.365,-53.0013"/>
<polygon fill="midnightblue" stroke="midnightblue" points="671.599,-52.9815 662.139,-57.7522 672.51,-59.9221 671.599,-52.9815"/>
</g>
<!-- Node6 -->
<g id="node6" class="node"><title>Node6</title>
<g id="a_node6"><a xlink:href="../../d9/d96/classapplication_1_1_main.html#a81e70f73d65beae34c459628791cc5d4" target="_top" xlink:title="application.Main.activate\lErrorPage">
<polygon fill="white" stroke="black" points="879.5,-78 879.5,-108 1014.5,-108 1014.5,-78 879.5,-78"/>
<text text-anchor="start" x="887.5" y="-96" font-family="Helvetica,sans-Serif" font-size="10.00">application.Main.activate</text>
<text text-anchor="middle" x="947" y="-85" font-family="Helvetica,sans-Serif" font-size="10.00">ErrorPage</text>
</a>
</g>
</g>
<!-- Node5&#45;&gt;Node6 -->
<g id="edge5" class="edge"><title>Node5&#45;&gt;Node6</title>
<path fill="none" stroke="midnightblue" d="M847.739,-93C858.305,-93 869.058,-93 879.388,-93"/>
<polygon fill="midnightblue" stroke="midnightblue" points="847.686,-89.5001 837.686,-93 847.686,-96.5001 847.686,-89.5001"/>
</g>
<!-- Node7 -->
<g id="node7" class="node"><title>Node7</title>
<g id="a_node7"><a xlink:href="../../d9/d96/classapplication_1_1_main.html#aef0593911aa3cbc594ac75bbb8d6a2b0" target="_top" xlink:title="application.Main.activate\lImportXMLButton">
<polygon fill="white" stroke="black" points="1056.5,-78 1056.5,-108 1191.5,-108 1191.5,-78 1056.5,-78"/>
<text text-anchor="start" x="1064.5" y="-96" font-family="Helvetica,sans-Serif" font-size="10.00">application.Main.activate</text>
<text text-anchor="middle" x="1124" y="-85" font-family="Helvetica,sans-Serif" font-size="10.00">ImportXMLButton</text>
</a>
</g>
</g>
<!-- Node6&#45;&gt;Node7 -->
<g id="edge6" class="edge"><title>Node6&#45;&gt;Node7</title>
<path fill="none" stroke="midnightblue" d="M1024.66,-93C1035.18,-93 1045.91,-93 1056.24,-93"/>
<polygon fill="midnightblue" stroke="midnightblue" points="1024.66,-89.5001 1014.66,-93 1024.66,-96.5001 1024.66,-89.5001"/>
</g>
<!-- Node8 -->
<g id="node8" class="node"><title>Node8</title>
<g id="a_node8"><a xlink:href="../../d9/d96/classapplication_1_1_main.html#a18021492af2e457d39edcbd16dc0d3c8" target="_top" xlink:title="application.Main.createImport\lXMLButton">
<polygon fill="white" stroke="black" points="1228.5,-89 1228.5,-119 1387.5,-119 1387.5,-89 1228.5,-89"/>
<text text-anchor="start" x="1236.5" y="-107" font-family="Helvetica,sans-Serif" font-size="10.00">application.Main.createImport</text>
<text text-anchor="middle" x="1308" y="-96" font-family="Helvetica,sans-Serif" font-size="10.00">XMLButton</text>
</a>
</g>
</g>
<!-- Node7&#45;&gt;Node8 -->
<g id="edge7" class="edge"><title>Node7&#45;&gt;Node8</title>
<path fill="none" stroke="midnightblue" d="M1201.87,-97.6462C1210.59,-98.1732 1219.49,-98.7111 1228.24,-99.2396"/>
<polygon fill="midnightblue" stroke="midnightblue" points="1201.93,-94.1433 1191.74,-97.0335 1201.51,-101.131 1201.93,-94.1433"/>
</g>
<!-- Node8&#45;&gt;Node1 -->
<g id="edge8" class="edge"><title>Node8&#45;&gt;Node1</title>
<path fill="none" stroke="midnightblue" d="M1218.39,-116.702C1145.86,-126 1040.51,-137 948,-137 399,-137 399,-137 399,-137 294.984,-137 176.311,-103.36 114.161,-83.0571"/>
<polygon fill="midnightblue" stroke="midnightblue" points="1218.94,-120.161 1228.4,-115.403 1218.04,-113.219 1218.94,-120.161"/>
</g>
<!-- Node10 -->
<g id="node10" class="node"><title>Node10</title>
<g id="a_node10"><a xlink:href="../../d9/d96/classapplication_1_1_main.html#adc868cfca1990edad66af3dcb8cf4349" target="_top" xlink:title="application.Main.playGame">
<polygon fill="white" stroke="black" points="874,-34.5 874,-53.5 1020,-53.5 1020,-34.5 874,-34.5"/>
<text text-anchor="middle" x="947" y="-41.5" font-family="Helvetica,sans-Serif" font-size="10.00">application.Main.playGame</text>
</a>
</g>
</g>
<!-- Node9&#45;&gt;Node10 -->
<g id="edge10" class="edge"><title>Node9&#45;&gt;Node10</title>
<path fill="none" stroke="midnightblue" d="M847.787,-44C856.459,-44 865.256,-44 873.841,-44"/>
<polygon fill="midnightblue" stroke="midnightblue" points="847.686,-40.5001 837.686,-44 847.686,-47.5001 847.686,-40.5001"/>
</g>
<!-- Node11 -->
<g id="node11" class="node"><title>Node11</title>
<g id="a_node11"><a xlink:href="../../d9/d96/classapplication_1_1_main.html#ada0f47786d75e28e627d2621d75eaf5a" target="_top" xlink:title="application.Main.activate\lStartButton">
<polygon fill="white" stroke="black" points="1056.5,-29 1056.5,-59 1191.5,-59 1191.5,-29 1056.5,-29"/>
<text text-anchor="start" x="1064.5" y="-47" font-family="Helvetica,sans-Serif" font-size="10.00">application.Main.activate</text>
<text text-anchor="middle" x="1124" y="-36" font-family="Helvetica,sans-Serif" font-size="10.00">StartButton</text>
</a>
</g>
</g>
<!-- Node10&#45;&gt;Node11 -->
<g id="edge11" class="edge"><title>Node10&#45;&gt;Node11</title>
<path fill="none" stroke="midnightblue" d="M1030.35,-44C1039.05,-44 1047.82,-44 1056.31,-44"/>
<polygon fill="midnightblue" stroke="midnightblue" points="1030.19,-40.5001 1020.19,-44 1030.19,-47.5001 1030.19,-40.5001"/>
</g>
<!-- Node12 -->
<g id="node12" class="node"><title>Node12</title>
<g id="a_node12"><a xlink:href="../../d9/d96/classapplication_1_1_main.html#a64e6451d894979853890a235efe37db8" target="_top" xlink:title="application.Main.createStart\lGameButton">
<polygon fill="white" stroke="black" points="1232,-18 1232,-48 1384,-48 1384,-18 1232,-18"/>
<text text-anchor="start" x="1240" y="-36" font-family="Helvetica,sans-Serif" font-size="10.00">application.Main.createStart</text>
<text text-anchor="middle" x="1308" y="-25" font-family="Helvetica,sans-Serif" font-size="10.00">GameButton</text>
</a>
</g>
</g>
<!-- Node11&#45;&gt;Node12 -->
<g id="edge12" class="edge"><title>Node11&#45;&gt;Node12</title>
<path fill="none" stroke="midnightblue" d="M1201.98,-39.3472C1211.91,-38.747 1222.07,-38.133 1231.97,-37.5348"/>
<polygon fill="midnightblue" stroke="midnightblue" points="1201.51,-35.8695 1191.74,-39.9665 1201.93,-42.8567 1201.51,-35.8695"/>
</g>
<!-- Node12&#45;&gt;Node1 -->
<g id="edge13" class="edge"><title>Node12&#45;&gt;Node1</title>
<path fill="none" stroke="midnightblue" d="M1221.88,-20.7469C1149.27,-11.3578 1042,-0 948,-0 399,-0 399,-0 399,-0 295.338,-0 177.013,-32.9677 114.702,-52.9929"/>
<polygon fill="midnightblue" stroke="midnightblue" points="1221.52,-24.2298 1231.89,-22.0573 1222.43,-17.289 1221.52,-24.2298"/>
</g>
</g>
</svg>
