<?xml version="1.0" encoding="UTF-8" standalone="no"?>
<!DOCTYPE svg PUBLIC "-//W3C//DTD SVG 1.1//EN"
 "http://www.w3.org/Graphics/SVG/1.1/DTD/svg11.dtd">
<!-- Generated by graphviz version 2.36.0 (20140111.2315)
 -->
<!-- Title: application.Main.playGame Pages: 1 -->
<svg width="1928pt" height="116pt"
 viewBox="0.00 0.00 1928.00 116.00" xmlns="http://www.w3.org/2000/svg" xmlns:xlink="http://www.w3.org/1999/xlink">
<g id="graph0" class="graph" transform="scale(1 1) rotate(0) translate(4 112)">
<title>application.Main.playGame</title>
<polygon fill="white" stroke="none" points="-4,4 -4,-112 1924,-112 1924,4 -4,4"/>
<!-- Node1 -->
<g id="node1" class="node"><title>Node1</title>
<polygon fill="#bfbfbf" stroke="black" points="0,-27.5 0,-46.5 146,-46.5 146,-27.5 0,-27.5"/>
<text text-anchor="middle" x="73" y="-34.5" font-family="Helvetica,sans-Serif" font-size="10.00">application.Main.playGame</text>
</g>
<!-- Node2 -->
<g id="node2" class="node"><title>Node2</title>
<g id="a_node2"><a xlink:href="../../d9/d96/classapplication_1_1_main.html#ada0f47786d75e28e627d2621d75eaf5a" target="_top" xlink:title="application.Main.activate\lStartButton">
<polygon fill="white" stroke="black" points="182.5,-45 182.5,-75 317.5,-75 317.5,-45 182.5,-45"/>
<text text-anchor="start" x="190.5" y="-63" font-family="Helvetica,sans-Serif" font-size="10.00">application.Main.activate</text>
<text text-anchor="middle" x="250" y="-52" font-family="Helvetica,sans-Serif" font-size="10.00">StartButton</text>
</a>
</g>
</g>
<!-- Node1&#45;&gt;Node2 -->
<g id="edge1" class="edge"><title>Node1&#45;&gt;Node2</title>
<path fill="none" stroke="midnightblue" d="M156.351,-47.8233C165.052,-48.9668 173.82,-50.1193 182.312,-51.2352"/>
<polygon fill="midnightblue" stroke="midnightblue" points="156.56,-44.3208 146.19,-46.4878 155.648,-51.2611 156.56,-44.3208"/>
</g>
<!-- Node3 -->
<g id="node3" class="node"><title>Node3</title>
<g id="a_node3"><a xlink:href="../../d9/d96/classapplication_1_1_main.html#a64e6451d894979853890a235efe37db8" target="_top" xlink:title="application.Main.createStart\lGameButton">
<polygon fill="white" stroke="black" points="354,-46 354,-76 506,-76 506,-46 354,-46"/>
<text text-anchor="start" x="362" y="-64" font-family="Helvetica,sans-Serif" font-size="10.00">application.Main.createStart</text>
<text text-anchor="middle" x="430" y="-53" font-family="Helvetica,sans-Serif" font-size="10.00">GameButton</text>
</a>
</g>
</g>
<!-- Node2&#45;&gt;Node3 -->
<g id="edge2" class="edge"><title>Node2&#45;&gt;Node3</title>
<path fill="none" stroke="midnightblue" d="M327.646,-60.4306C336.341,-60.4794 345.196,-60.5292 353.871,-60.5779"/>
<polygon fill="midnightblue" stroke="midnightblue" points="327.553,-56.9301 317.534,-60.3738 327.514,-63.93 327.553,-56.9301"/>
</g>
<!-- Node4 -->
<g id="node4" class="node"><title>Node4</title>
<g id="a_node4"><a xlink:href="../../d9/d96/classapplication_1_1_main.html#a5fee6c1b05965eca9205a99e3245a5fb" target="_top" xlink:title="application.Main.populate\lStartPageModules">
<polygon fill="white" stroke="black" points="542.5,-47 542.5,-77 681.5,-77 681.5,-47 542.5,-47"/>
<text text-anchor="start" x="550.5" y="-65" font-family="Helvetica,sans-Serif" font-size="10.00">application.Main.populate</text>
<text text-anchor="middle" x="612" y="-54" font-family="Helvetica,sans-Serif" font-size="10.00">StartPageModules</text>
</a>
</g>
</g>
<!-- Node3&#45;&gt;Node4 -->
<g id="edge3" class="edge"><title>Node3&#45;&gt;Node4</title>
<path fill="none" stroke="midnightblue" d="M516.274,-61.4737C525.039,-61.5224 533.864,-61.5715 542.415,-61.619"/>
<polygon fill="midnightblue" stroke="midnightblue" points="516.052,-57.9726 506.033,-61.4168 516.013,-64.9724 516.052,-57.9726"/>
</g>
<!-- Node5 -->
<g id="node5" class="node"><title>Node5</title>
<g id="a_node5"><a xlink:href="../../d9/d96/classapplication_1_1_main.html#a4e5ad4e3de8bbd8654120180a94e870d" target="_top" xlink:title="application.Main.start">
<polygon fill="white" stroke="black" points="718.5,-52.5 718.5,-71.5 837.5,-71.5 837.5,-52.5 718.5,-52.5"/>
<text text-anchor="middle" x="778" y="-59.5" font-family="Helvetica,sans-Serif" font-size="10.00">application.Main.start</text>
</a>
</g>
</g>
<!-- Node4&#45;&gt;Node5 -->
<g id="edge4" class="edge"><title>Node4&#45;&gt;Node5</title>
<path fill="none" stroke="midnightblue" d="M691.677,-62C700.642,-62 709.661,-62 718.302,-62"/>
<polygon fill="midnightblue" stroke="midnightblue" points="691.601,-58.5001 681.601,-62 691.6,-65.5001 691.601,-58.5001"/>
</g>
<!-- Node6 -->
<g id="node6" class="node"><title>Node6</title>
<g id="a_node6"><a xlink:href="../../d9/d96/classapplication_1_1_main.html#ad652e3294ffb6519b18d784d5831c76a" target="_top" xlink:title="application.Main.activate\lReturntoStart">
<polygon fill="white" stroke="black" points="874.5,-47 874.5,-77 1009.5,-77 1009.5,-47 874.5,-47"/>
<text text-anchor="start" x="882.5" y="-65" font-family="Helvetica,sans-Serif" font-size="10.00">application.Main.activate</text>
<text text-anchor="middle" x="942" y="-54" font-family="Helvetica,sans-Serif" font-size="10.00">ReturntoStart</text>
</a>
</g>
</g>
<!-- Node5&#45;&gt;Node6 -->
<g id="edge5" class="edge"><title>Node5&#45;&gt;Node6</title>
<path fill="none" stroke="midnightblue" d="M848.08,-62C856.81,-62 865.729,-62 874.419,-62"/>
<polygon fill="midnightblue" stroke="midnightblue" points="847.944,-58.5001 837.944,-62 847.944,-65.5001 847.944,-58.5001"/>
</g>
<!-- Node7 -->
<g id="node7" class="node"><title>Node7</title>
<g id="a_node7"><a xlink:href="../../d9/d96/classapplication_1_1_main.html#a4c5877fafc53c4fae488f1f30faf294b" target="_top" xlink:title="application.Main.createReturn\lToStartButton">
<polygon fill="white" stroke="black" points="1046,-47 1046,-77 1204,-77 1204,-47 1046,-47"/>
<text text-anchor="start" x="1054" y="-65" font-family="Helvetica,sans-Serif" font-size="10.00">application.Main.createReturn</text>
<text text-anchor="middle" x="1125" y="-54" font-family="Helvetica,sans-Serif" font-size="10.00">ToStartButton</text>
</a>
</g>
</g>
<!-- Node6&#45;&gt;Node7 -->
<g id="edge6" class="edge"><title>Node6&#45;&gt;Node7</title>
<path fill="none" stroke="midnightblue" d="M1019.7,-62C1028.36,-62 1037.19,-62 1045.87,-62"/>
<polygon fill="midnightblue" stroke="midnightblue" points="1019.63,-58.5001 1009.63,-62 1019.63,-65.5001 1019.63,-58.5001"/>
</g>
<!-- Node8 -->
<g id="node8" class="node"><title>Node8</title>
<g id="a_node8"><a xlink:href="../../d9/d96/classapplication_1_1_main.html#abcabe1a32eb7b5054cf34ca0def07531" target="_top" xlink:title="application.Main.populate\lErrorPageModules">
<polygon fill="white" stroke="black" points="1240.5,-49 1240.5,-79 1379.5,-79 1379.5,-49 1240.5,-49"/>
<text text-anchor="start" x="1248.5" y="-67" font-family="Helvetica,sans-Serif" font-size="10.00">application.Main.populate</text>
<text text-anchor="middle" x="1310" y="-56" font-family="Helvetica,sans-Serif" font-size="10.00">ErrorPageModules</text>
</a>
</g>
</g>
<!-- Node7&#45;&gt;Node8 -->
<g id="edge7" class="edge"><title>Node7&#45;&gt;Node8</title>
<path fill="none" stroke="midnightblue" d="M1214.36,-62.9657C1223.1,-63.0612 1231.87,-63.1571 1240.37,-63.2499"/>
<polygon fill="midnightblue" stroke="midnightblue" points="1214.18,-59.4636 1204.14,-62.854 1214.1,-66.4632 1214.18,-59.4636"/>
</g>
<!-- Node12 -->
<g id="node12" class="node"><title>Node12</title>
<g id="a_node12"><a xlink:href="../../d9/d96/classapplication_1_1_main.html#a2ddf30fb8360296e1ad3459fe6f920fb" target="_top" xlink:title="application.Main.populate\lGridPageModules">
<polygon fill="white" stroke="black" points="1240.5,-0 1240.5,-30 1379.5,-30 1379.5,-0 1240.5,-0"/>
<text text-anchor="start" x="1248.5" y="-18" font-family="Helvetica,sans-Serif" font-size="10.00">application.Main.populate</text>
<text text-anchor="middle" x="1310" y="-7" font-family="Helvetica,sans-Serif" font-size="10.00">GridPageModules</text>
</a>
</g>
</g>
<!-- Node7&#45;&gt;Node12 -->
<g id="edge12" class="edge"><title>Node7&#45;&gt;Node12</title>
<path fill="none" stroke="midnightblue" d="M1194.23,-44.4758C1212.74,-39.7227 1232.61,-34.6204 1250.52,-30.019"/>
<polygon fill="midnightblue" stroke="midnightblue" points="1193.22,-41.1221 1184.41,-46.9997 1194.96,-47.902 1193.22,-41.1221"/>
</g>
<!-- Node9 -->
<g id="node9" class="node"><title>Node9</title>
<g id="a_node9"><a xlink:href="../../d9/d96/classapplication_1_1_main.html#a81e70f73d65beae34c459628791cc5d4" target="_top" xlink:title="application.Main.activate\lErrorPage">
<polygon fill="white" stroke="black" points="1416.5,-49 1416.5,-79 1551.5,-79 1551.5,-49 1416.5,-49"/>
<text text-anchor="start" x="1424.5" y="-67" font-family="Helvetica,sans-Serif" font-size="10.00">application.Main.activate</text>
<text text-anchor="middle" x="1484" y="-56" font-family="Helvetica,sans-Serif" font-size="10.00">ErrorPage</text>
</a>
</g>
</g>
<!-- Node8&#45;&gt;Node9 -->
<g id="edge8" class="edge"><title>Node8&#45;&gt;Node9</title>
<path fill="none" stroke="midnightblue" d="M1390.15,-64C1398.88,-64 1407.7,-64 1416.25,-64"/>
<polygon fill="midnightblue" stroke="midnightblue" points="1389.97,-60.5001 1379.97,-64 1389.97,-67.5001 1389.97,-60.5001"/>
</g>
<!-- Node10 -->
<g id="node10" class="node"><title>Node10</title>
<g id="a_node10"><a xlink:href="../../d9/d96/classapplication_1_1_main.html#aef0593911aa3cbc594ac75bbb8d6a2b0" target="_top" xlink:title="application.Main.activate\lImportXMLButton">
<polygon fill="white" stroke="black" points="1588.5,-49 1588.5,-79 1723.5,-79 1723.5,-49 1588.5,-49"/>
<text text-anchor="start" x="1596.5" y="-67" font-family="Helvetica,sans-Serif" font-size="10.00">application.Main.activate</text>
<text text-anchor="middle" x="1656" y="-56" font-family="Helvetica,sans-Serif" font-size="10.00">ImportXMLButton</text>
</a>
</g>
</g>
<!-- Node9&#45;&gt;Node10 -->
<g id="edge9" class="edge"><title>Node9&#45;&gt;Node10</title>
<path fill="none" stroke="midnightblue" d="M1561.72,-64C1570.65,-64 1579.71,-64 1588.49,-64"/>
<polygon fill="midnightblue" stroke="midnightblue" points="1561.7,-60.5001 1551.7,-64 1561.7,-67.5001 1561.7,-60.5001"/>
</g>
<!-- Node11 -->
<g id="node11" class="node"><title>Node11</title>
<g id="a_node11"><a xlink:href="../../d9/d96/classapplication_1_1_main.html#a18021492af2e457d39edcbd16dc0d3c8" target="_top" xlink:title="application.Main.createImport\lXMLButton">
<polygon fill="white" stroke="black" points="1760.5,-71 1760.5,-101 1919.5,-101 1919.5,-71 1760.5,-71"/>
<text text-anchor="start" x="1768.5" y="-89" font-family="Helvetica,sans-Serif" font-size="10.00">application.Main.createImport</text>
<text text-anchor="middle" x="1840" y="-78" font-family="Helvetica,sans-Serif" font-size="10.00">XMLButton</text>
</a>
</g>
</g>
<!-- Node10&#45;&gt;Node11 -->
<g id="edge10" class="edge"><title>Node10&#45;&gt;Node11</title>
<path fill="none" stroke="midnightblue" d="M1733.87,-73.2923C1742.59,-74.3465 1751.49,-75.4221 1760.24,-76.4792"/>
<polygon fill="midnightblue" stroke="midnightblue" points="1734.08,-69.7925 1723.74,-72.0671 1733.24,-76.7419 1734.08,-69.7925"/>
</g>
<!-- Node11&#45;&gt;Node4 -->
<g id="edge11" class="edge"><title>Node11&#45;&gt;Node4</title>
<path fill="none" stroke="midnightblue" d="M1750.03,-94.5964C1678.5,-100.768 1575.38,-108 1485,-108 941,-108 941,-108 941,-108 850.147,-108 746.499,-90.4777 680.457,-77.0621"/>
<polygon fill="midnightblue" stroke="midnightblue" points="1750.69,-98.0519 1760.35,-93.6945 1750.08,-91.0785 1750.69,-98.0519"/>
</g>
<!-- Node12&#45;&gt;Node1 -->
<g id="edge13" class="edge"><title>Node12&#45;&gt;Node1</title>
<path fill="none" stroke="midnightblue" d="M1230.01,-15C1155.88,-15 1041.92,-15 943,-15 429,-15 429,-15 429,-15 330.972,-15 218.008,-23.46 146.328,-29.8876"/>
<polygon fill="midnightblue" stroke="midnightblue" points="1230.19,-18.5001 1240.19,-15 1230.19,-11.5001 1230.19,-18.5001"/>
</g>
</g>
</svg>
