<?xml version="1.0" encoding="UTF-8" standalone="no"?>
<!DOCTYPE svg PUBLIC "-//W3C//DTD SVG 1.1//EN"
 "http://www.w3.org/Graphics/SVG/1.1/DTD/svg11.dtd">
<!-- Generated by graphviz version 2.36.0 (20140111.2315)
 -->
<!-- Title: application.Main.activateErrorPage Pages: 1 -->
<svg width="1928pt" height="116pt"
 viewBox="0.00 0.00 1928.00 116.00" xmlns="http://www.w3.org/2000/svg" xmlns:xlink="http://www.w3.org/1999/xlink">
<g id="graph0" class="graph" transform="scale(1 1) rotate(0) translate(4 112)">
<title>application.Main.activateErrorPage</title>
<polygon fill="white" stroke="none" points="-4,4 -4,-112 1924,-112 1924,4 -4,4"/>
<!-- Node1 -->
<g id="node1" class="node"><title>Node1</title>
<polygon fill="#bfbfbf" stroke="black" points="0.5,-22 0.5,-52 135.5,-52 135.5,-22 0.5,-22"/>
<text text-anchor="start" x="8.5" y="-40" font-family="Helvetica,sans-Serif" font-size="10.00">application.Main.activate</text>
<text text-anchor="middle" x="68" y="-29" font-family="Helvetica,sans-Serif" font-size="10.00">ErrorPage</text>
</g>
<!-- Node2 -->
<g id="node2" class="node"><title>Node2</title>
<g id="a_node2"><a xlink:href="../../d9/d96/classapplication_1_1_main.html#aef0593911aa3cbc594ac75bbb8d6a2b0" target="_top" xlink:title="application.Main.activate\lImportXMLButton">
<polygon fill="white" stroke="black" points="172.5,-45 172.5,-75 307.5,-75 307.5,-45 172.5,-45"/>
<text text-anchor="start" x="180.5" y="-63" font-family="Helvetica,sans-Serif" font-size="10.00">application.Main.activate</text>
<text text-anchor="middle" x="240" y="-52" font-family="Helvetica,sans-Serif" font-size="10.00">ImportXMLButton</text>
</a>
</g>
</g>
<!-- Node1&#45;&gt;Node2 -->
<g id="edge1" class="edge"><title>Node1&#45;&gt;Node2</title>
<path fill="none" stroke="midnightblue" d="M145.715,-47.3791C154.651,-48.5881 163.71,-49.8137 172.492,-51.0018"/>
<polygon fill="midnightblue" stroke="midnightblue" points="146.08,-43.8966 135.701,-46.0242 145.141,-50.8334 146.08,-43.8966"/>
</g>
<!-- Node3 -->
<g id="node3" class="node"><title>Node3</title>
<g id="a_node3"><a xlink:href="../../d9/d96/classapplication_1_1_main.html#a18021492af2e457d39edcbd16dc0d3c8" target="_top" xlink:title="application.Main.createImport\lXMLButton">
<polygon fill="white" stroke="black" points="344.5,-46 344.5,-76 503.5,-76 503.5,-46 344.5,-46"/>
<text text-anchor="start" x="352.5" y="-64" font-family="Helvetica,sans-Serif" font-size="10.00">application.Main.createImport</text>
<text text-anchor="middle" x="424" y="-53" font-family="Helvetica,sans-Serif" font-size="10.00">XMLButton</text>
</a>
</g>
</g>
<!-- Node2&#45;&gt;Node3 -->
<g id="edge2" class="edge"><title>Node2&#45;&gt;Node3</title>
<path fill="none" stroke="midnightblue" d="M317.873,-60.4224C326.594,-60.4703 335.492,-60.5192 344.237,-60.5672"/>
<polygon fill="midnightblue" stroke="midnightblue" points="317.756,-56.9218 307.737,-60.3667 317.717,-63.9217 317.756,-56.9218"/>
</g>
<!-- Node4 -->
<g id="node4" class="node"><title>Node4</title>
<g id="a_node4"><a xlink:href="../../d9/d96/classapplication_1_1_main.html#a5fee6c1b05965eca9205a99e3245a5fb" target="_top" xlink:title="application.Main.populate\lStartPageModules">
<polygon fill="white" stroke="black" points="540.5,-47 540.5,-77 679.5,-77 679.5,-47 540.5,-47"/>
<text text-anchor="start" x="548.5" y="-65" font-family="Helvetica,sans-Serif" font-size="10.00">application.Main.populate</text>
<text text-anchor="middle" x="610" y="-54" font-family="Helvetica,sans-Serif" font-size="10.00">StartPageModules</text>
</a>
</g>
</g>
<!-- Node3&#45;&gt;Node4 -->
<g id="edge3" class="edge"><title>Node3&#45;&gt;Node4</title>
<path fill="none" stroke="midnightblue" d="M513.636,-61.4817C522.587,-61.5304 531.581,-61.5792 540.278,-61.6265"/>
<polygon fill="midnightblue" stroke="midnightblue" points="513.585,-57.9815 503.566,-61.427 513.547,-64.9814 513.585,-57.9815"/>
</g>
<!-- Node5 -->
<g id="node5" class="node"><title>Node5</title>
<g id="a_node5"><a xlink:href="../../d9/d96/classapplication_1_1_main.html#a4e5ad4e3de8bbd8654120180a94e870d" target="_top" xlink:title="application.Main.start">
<polygon fill="white" stroke="black" points="716.5,-52.5 716.5,-71.5 835.5,-71.5 835.5,-52.5 716.5,-52.5"/>
<text text-anchor="middle" x="776" y="-59.5" font-family="Helvetica,sans-Serif" font-size="10.00">application.Main.start</text>
</a>
</g>
</g>
<!-- Node4&#45;&gt;Node5 -->
<g id="edge4" class="edge"><title>Node4&#45;&gt;Node5</title>
<path fill="none" stroke="midnightblue" d="M689.677,-62C698.642,-62 707.661,-62 716.302,-62"/>
<polygon fill="midnightblue" stroke="midnightblue" points="689.601,-58.5001 679.601,-62 689.6,-65.5001 689.601,-58.5001"/>
</g>
<!-- Node6 -->
<g id="node6" class="node"><title>Node6</title>
<g id="a_node6"><a xlink:href="../../d9/d96/classapplication_1_1_main.html#ad652e3294ffb6519b18d784d5831c76a" target="_top" xlink:title="application.Main.activate\lReturntoStart">
<polygon fill="white" stroke="black" points="872.5,-47 872.5,-77 1007.5,-77 1007.5,-47 872.5,-47"/>
<text text-anchor="start" x="880.5" y="-65" font-family="Helvetica,sans-Serif" font-size="10.00">application.Main.activate</text>
<text text-anchor="middle" x="940" y="-54" font-family="Helvetica,sans-Serif" font-size="10.00">ReturntoStart</text>
</a>
</g>
</g>
<!-- Node5&#45;&gt;Node6 -->
<g id="edge5" class="edge"><title>Node5&#45;&gt;Node6</title>
<path fill="none" stroke="midnightblue" d="M846.08,-62C854.81,-62 863.729,-62 872.419,-62"/>
<polygon fill="midnightblue" stroke="midnightblue" points="845.944,-58.5001 835.944,-62 845.944,-65.5001 845.944,-58.5001"/>
</g>
<!-- Node7 -->
<g id="node7" class="node"><title>Node7</title>
<g id="a_node7"><a xlink:href="../../d9/d96/classapplication_1_1_main.html#a4c5877fafc53c4fae488f1f30faf294b" target="_top" xlink:title="application.Main.createReturn\lToStartButton">
<polygon fill="white" stroke="black" points="1044,-47 1044,-77 1202,-77 1202,-47 1044,-47"/>
<text text-anchor="start" x="1052" y="-65" font-family="Helvetica,sans-Serif" font-size="10.00">application.Main.createReturn</text>
<text text-anchor="middle" x="1123" y="-54" font-family="Helvetica,sans-Serif" font-size="10.00">ToStartButton</text>
</a>
</g>
</g>
<!-- Node6&#45;&gt;Node7 -->
<g id="edge6" class="edge"><title>Node6&#45;&gt;Node7</title>
<path fill="none" stroke="midnightblue" d="M1017.7,-62C1026.36,-62 1035.19,-62 1043.87,-62"/>
<polygon fill="midnightblue" stroke="midnightblue" points="1017.63,-58.5001 1007.63,-62 1017.63,-65.5001 1017.63,-58.5001"/>
</g>
<!-- Node8 -->
<g id="node8" class="node"><title>Node8</title>
<g id="a_node8"><a xlink:href="../../d9/d96/classapplication_1_1_main.html#a2ddf30fb8360296e1ad3459fe6f920fb" target="_top" xlink:title="application.Main.populate\lGridPageModules">
<polygon fill="white" stroke="black" points="1238.5,-49 1238.5,-79 1377.5,-79 1377.5,-49 1238.5,-49"/>
<text text-anchor="start" x="1246.5" y="-67" font-family="Helvetica,sans-Serif" font-size="10.00">application.Main.populate</text>
<text text-anchor="middle" x="1308" y="-56" font-family="Helvetica,sans-Serif" font-size="10.00">GridPageModules</text>
</a>
</g>
</g>
<!-- Node7&#45;&gt;Node8 -->
<g id="edge7" class="edge"><title>Node7&#45;&gt;Node8</title>
<path fill="none" stroke="midnightblue" d="M1212.36,-62.9657C1221.1,-63.0612 1229.87,-63.1571 1238.37,-63.2499"/>
<polygon fill="midnightblue" stroke="midnightblue" points="1212.18,-59.4636 1202.14,-62.854 1212.1,-66.4632 1212.18,-59.4636"/>
</g>
<!-- Node12 -->
<g id="node12" class="node"><title>Node12</title>
<g id="a_node12"><a xlink:href="../../d9/d96/classapplication_1_1_main.html#abcabe1a32eb7b5054cf34ca0def07531" target="_top" xlink:title="application.Main.populate\lErrorPageModules">
<polygon fill="white" stroke="black" points="1238.5,-0 1238.5,-30 1377.5,-30 1377.5,-0 1238.5,-0"/>
<text text-anchor="start" x="1246.5" y="-18" font-family="Helvetica,sans-Serif" font-size="10.00">application.Main.populate</text>
<text text-anchor="middle" x="1308" y="-7" font-family="Helvetica,sans-Serif" font-size="10.00">ErrorPageModules</text>
</a>
</g>
</g>
<!-- Node7&#45;&gt;Node12 -->
<g id="edge12" class="edge"><title>Node7&#45;&gt;Node12</title>
<path fill="none" stroke="midnightblue" d="M1192.23,-44.4758C1210.74,-39.7227 1230.61,-34.6204 1248.52,-30.019"/>
<polygon fill="midnightblue" stroke="midnightblue" points="1191.22,-41.1221 1182.41,-46.9997 1192.96,-47.902 1191.22,-41.1221"/>
</g>
<!-- Node9 -->
<g id="node9" class="node"><title>Node9</title>
<g id="a_node9"><a xlink:href="../../d9/d96/classapplication_1_1_main.html#adc868cfca1990edad66af3dcb8cf4349" target="_top" xlink:title="application.Main.playGame">
<polygon fill="white" stroke="black" points="1414,-54.5 1414,-73.5 1560,-73.5 1560,-54.5 1414,-54.5"/>
<text text-anchor="middle" x="1487" y="-61.5" font-family="Helvetica,sans-Serif" font-size="10.00">application.Main.playGame</text>
</a>
</g>
</g>
<!-- Node8&#45;&gt;Node9 -->
<g id="edge8" class="edge"><title>Node8&#45;&gt;Node9</title>
<path fill="none" stroke="midnightblue" d="M1387.79,-64C1396.46,-64 1405.26,-64 1413.84,-64"/>
<polygon fill="midnightblue" stroke="midnightblue" points="1387.69,-60.5001 1377.69,-64 1387.69,-67.5001 1387.69,-60.5001"/>
</g>
<!-- Node10 -->
<g id="node10" class="node"><title>Node10</title>
<g id="a_node10"><a xlink:href="../../d9/d96/classapplication_1_1_main.html#ada0f47786d75e28e627d2621d75eaf5a" target="_top" xlink:title="application.Main.activate\lStartButton">
<polygon fill="white" stroke="black" points="1596.5,-49 1596.5,-79 1731.5,-79 1731.5,-49 1596.5,-49"/>
<text text-anchor="start" x="1604.5" y="-67" font-family="Helvetica,sans-Serif" font-size="10.00">application.Main.activate</text>
<text text-anchor="middle" x="1664" y="-56" font-family="Helvetica,sans-Serif" font-size="10.00">StartButton</text>
</a>
</g>
</g>
<!-- Node9&#45;&gt;Node10 -->
<g id="edge9" class="edge"><title>Node9&#45;&gt;Node10</title>
<path fill="none" stroke="midnightblue" d="M1570.35,-64C1579.05,-64 1587.82,-64 1596.31,-64"/>
<polygon fill="midnightblue" stroke="midnightblue" points="1570.19,-60.5001 1560.19,-64 1570.19,-67.5001 1570.19,-60.5001"/>
</g>
<!-- Node11 -->
<g id="node11" class="node"><title>Node11</title>
<g id="a_node11"><a xlink:href="../../d9/d96/classapplication_1_1_main.html#a64e6451d894979853890a235efe37db8" target="_top" xlink:title="application.Main.createStart\lGameButton">
<polygon fill="white" stroke="black" points="1768,-71 1768,-101 1920,-101 1920,-71 1768,-71"/>
<text text-anchor="start" x="1776" y="-89" font-family="Helvetica,sans-Serif" font-size="10.00">application.Main.createStart</text>
<text text-anchor="middle" x="1844" y="-78" font-family="Helvetica,sans-Serif" font-size="10.00">GameButton</text>
</a>
</g>
</g>
<!-- Node10&#45;&gt;Node11 -->
<g id="edge10" class="edge"><title>Node10&#45;&gt;Node11</title>
<path fill="none" stroke="midnightblue" d="M1741.65,-73.4731C1750.34,-74.5478 1759.2,-75.6422 1767.87,-76.7144"/>
<polygon fill="midnightblue" stroke="midnightblue" points="1741.89,-69.9764 1731.53,-72.2233 1741.03,-76.9236 1741.89,-69.9764"/>
</g>
<!-- Node11&#45;&gt;Node4 -->
<g id="edge11" class="edge"><title>Node11&#45;&gt;Node4</title>
<path fill="none" stroke="midnightblue" d="M1757.59,-94.2668C1685.74,-100.507 1580.26,-108 1488,-108 939,-108 939,-108 939,-108 848.147,-108 744.499,-90.4777 678.457,-77.0621"/>
<polygon fill="midnightblue" stroke="midnightblue" points="1758.29,-97.7192 1767.94,-93.3563 1757.67,-90.7461 1758.29,-97.7192"/>
</g>
<!-- Node12&#45;&gt;Node1 -->
<g id="edge13" class="edge"><title>Node12&#45;&gt;Node1</title>
<path fill="none" stroke="midnightblue" d="M1228.01,-15C1153.88,-15 1039.92,-15 941,-15 423,-15 423,-15 423,-15 322.784,-15 206.915,-23.8917 135.8,-30.3694"/>
<polygon fill="midnightblue" stroke="midnightblue" points="1228.19,-18.5001 1238.19,-15 1228.19,-11.5001 1228.19,-18.5001"/>
</g>
</g>
</svg>
