<?xml version="1.0" encoding="UTF-8" standalone="no"?>
<!DOCTYPE svg PUBLIC "-//W3C//DTD SVG 1.1//EN"
 "http://www.w3.org/Graphics/SVG/1.1/DTD/svg11.dtd">
<!-- Generated by graphviz version 2.36.0 (20140111.2315)
 -->
<!-- Title: application.Main.activateReturntoStart Pages: 1 -->
<svg width="1396pt" height="116pt"
 viewBox="0.00 0.00 1396.00 116.00" xmlns="http://www.w3.org/2000/svg" xmlns:xlink="http://www.w3.org/1999/xlink">
<g id="graph0" class="graph" transform="scale(1 1) rotate(0) translate(4 112)">
<title>application.Main.activateReturntoStart</title>
<polygon fill="white" stroke="none" points="-4,4 -4,-112 1392,-112 1392,4 -4,4"/>
<!-- Node1 -->
<g id="node1" class="node"><title>Node1</title>
<polygon fill="#bfbfbf" stroke="black" points="0.5,-7 0.5,-37 135.5,-37 135.5,-7 0.5,-7"/>
<text text-anchor="start" x="8.5" y="-25" font-family="Helvetica,sans-Serif" font-size="10.00">application.Main.activate</text>
<text text-anchor="middle" x="68" y="-14" font-family="Helvetica,sans-Serif" font-size="10.00">ReturntoStart</text>
</g>
<!-- Node2 -->
<g id="node2" class="node"><title>Node2</title>
<g id="a_node2"><a xlink:href="../../d9/d96/classapplication_1_1_main.html#a4c5877fafc53c4fae488f1f30faf294b" target="_top" xlink:title="application.Main.createReturn\lToStartButton">
<polygon fill="white" stroke="black" points="172,-29 172,-59 330,-59 330,-29 172,-29"/>
<text text-anchor="start" x="180" y="-47" font-family="Helvetica,sans-Serif" font-size="10.00">application.Main.createReturn</text>
<text text-anchor="middle" x="251" y="-36" font-family="Helvetica,sans-Serif" font-size="10.00">ToStartButton</text>
</a>
</g>
</g>
<!-- Node1&#45;&gt;Node2 -->
<g id="edge1" class="edge"><title>Node1&#45;&gt;Node2</title>
<path fill="none" stroke="midnightblue" d="M145.696,-31.3222C154.358,-32.375 163.193,-33.4488 171.873,-34.5038"/>
<polygon fill="midnightblue" stroke="midnightblue" points="145.976,-27.8305 135.627,-30.0983 145.131,-34.7794 145.976,-27.8305"/>
</g>
<!-- Node3 -->
<g id="node3" class="node"><title>Node3</title>
<g id="a_node3"><a xlink:href="../../d9/d96/classapplication_1_1_main.html#a2ddf30fb8360296e1ad3459fe6f920fb" target="_top" xlink:title="application.Main.populate\lGridPageModules">
<polygon fill="white" stroke="black" points="366.5,-78 366.5,-108 505.5,-108 505.5,-78 366.5,-78"/>
<text text-anchor="start" x="374.5" y="-96" font-family="Helvetica,sans-Serif" font-size="10.00">application.Main.populate</text>
<text text-anchor="middle" x="436" y="-85" font-family="Helvetica,sans-Serif" font-size="10.00">GridPageModules</text>
</a>
</g>
</g>
<!-- Node2&#45;&gt;Node3 -->
<g id="edge2" class="edge"><title>Node2&#45;&gt;Node3</title>
<path fill="none" stroke="midnightblue" d="M318.285,-61.7485C338.119,-67.0591 359.667,-72.8288 378.787,-77.9484"/>
<polygon fill="midnightblue" stroke="midnightblue" points="318.964,-58.3071 308.399,-59.1014 317.154,-65.0689 318.964,-58.3071"/>
</g>
<!-- Node9 -->
<g id="node9" class="node"><title>Node9</title>
<g id="a_node9"><a xlink:href="../../d9/d96/classapplication_1_1_main.html#abcabe1a32eb7b5054cf34ca0def07531" target="_top" xlink:title="application.Main.populate\lErrorPageModules">
<polygon fill="white" stroke="black" points="366.5,-29 366.5,-59 505.5,-59 505.5,-29 366.5,-29"/>
<text text-anchor="start" x="374.5" y="-47" font-family="Helvetica,sans-Serif" font-size="10.00">application.Main.populate</text>
<text text-anchor="middle" x="436" y="-36" font-family="Helvetica,sans-Serif" font-size="10.00">ErrorPageModules</text>
</a>
</g>
</g>
<!-- Node2&#45;&gt;Node9 -->
<g id="edge9" class="edge"><title>Node2&#45;&gt;Node9</title>
<path fill="none" stroke="midnightblue" d="M340.359,-44C349.096,-44 357.871,-44 366.365,-44"/>
<polygon fill="midnightblue" stroke="midnightblue" points="340.139,-40.5001 330.139,-44 340.139,-47.5001 340.139,-40.5001"/>
</g>
<!-- Node4 -->
<g id="node4" class="node"><title>Node4</title>
<g id="a_node4"><a xlink:href="../../d9/d96/classapplication_1_1_main.html#adc868cfca1990edad66af3dcb8cf4349" target="_top" xlink:title="application.Main.playGame">
<polygon fill="white" stroke="black" points="542,-83.5 542,-102.5 688,-102.5 688,-83.5 542,-83.5"/>
<text text-anchor="middle" x="615" y="-90.5" font-family="Helvetica,sans-Serif" font-size="10.00">application.Main.playGame</text>
</a>
</g>
</g>
<!-- Node3&#45;&gt;Node4 -->
<g id="edge3" class="edge"><title>Node3&#45;&gt;Node4</title>
<path fill="none" stroke="midnightblue" d="M515.787,-93C524.459,-93 533.256,-93 541.841,-93"/>
<polygon fill="midnightblue" stroke="midnightblue" points="515.686,-89.5001 505.686,-93 515.686,-96.5001 515.686,-89.5001"/>
</g>
<!-- Node5 -->
<g id="node5" class="node"><title>Node5</title>
<g id="a_node5"><a xlink:href="../../d9/d96/classapplication_1_1_main.html#ada0f47786d75e28e627d2621d75eaf5a" target="_top" xlink:title="application.Main.activate\lStartButton">
<polygon fill="white" stroke="black" points="724.5,-78 724.5,-108 859.5,-108 859.5,-78 724.5,-78"/>
<text text-anchor="start" x="732.5" y="-96" font-family="Helvetica,sans-Serif" font-size="10.00">application.Main.activate</text>
<text text-anchor="middle" x="792" y="-85" font-family="Helvetica,sans-Serif" font-size="10.00">StartButton</text>
</a>
</g>
</g>
<!-- Node4&#45;&gt;Node5 -->
<g id="edge4" class="edge"><title>Node4&#45;&gt;Node5</title>
<path fill="none" stroke="midnightblue" d="M698.351,-93C707.052,-93 715.82,-93 724.312,-93"/>
<polygon fill="midnightblue" stroke="midnightblue" points="698.19,-89.5001 688.19,-93 698.19,-96.5001 698.19,-89.5001"/>
</g>
<!-- Node6 -->
<g id="node6" class="node"><title>Node6</title>
<g id="a_node6"><a xlink:href="../../d9/d96/classapplication_1_1_main.html#a64e6451d894979853890a235efe37db8" target="_top" xlink:title="application.Main.createStart\lGameButton">
<polygon fill="white" stroke="black" points="900,-78 900,-108 1052,-108 1052,-78 900,-78"/>
<text text-anchor="start" x="908" y="-96" font-family="Helvetica,sans-Serif" font-size="10.00">application.Main.createStart</text>
<text text-anchor="middle" x="976" y="-85" font-family="Helvetica,sans-Serif" font-size="10.00">GameButton</text>
</a>
</g>
</g>
<!-- Node5&#45;&gt;Node6 -->
<g id="edge5" class="edge"><title>Node5&#45;&gt;Node6</title>
<path fill="none" stroke="midnightblue" d="M869.982,-93C879.913,-93 890.072,-93 899.97,-93"/>
<polygon fill="midnightblue" stroke="midnightblue" points="869.737,-89.5001 859.737,-93 869.737,-96.5001 869.737,-89.5001"/>
</g>
<!-- Node7 -->
<g id="node7" class="node"><title>Node7</title>
<g id="a_node7"><a xlink:href="../../d9/d96/classapplication_1_1_main.html#a5fee6c1b05965eca9205a99e3245a5fb" target="_top" xlink:title="application.Main.populate\lStartPageModules">
<polygon fill="white" stroke="black" points="1092.5,-29 1092.5,-59 1231.5,-59 1231.5,-29 1092.5,-29"/>
<text text-anchor="start" x="1100.5" y="-47" font-family="Helvetica,sans-Serif" font-size="10.00">application.Main.populate</text>
<text text-anchor="middle" x="1162" y="-36" font-family="Helvetica,sans-Serif" font-size="10.00">StartPageModules</text>
</a>
</g>
</g>
<!-- Node6&#45;&gt;Node7 -->
<g id="edge6" class="edge"><title>Node6&#45;&gt;Node7</title>
<path fill="none" stroke="midnightblue" d="M1043.18,-75.3771C1063.31,-70.0163 1085.23,-64.1775 1104.65,-59.0062"/>
<polygon fill="midnightblue" stroke="midnightblue" points="1042.22,-72.0098 1033.46,-77.9654 1044.02,-78.7741 1042.22,-72.0098"/>
</g>
<!-- Node8 -->
<g id="node8" class="node"><title>Node8</title>
<g id="a_node8"><a xlink:href="../../d9/d96/classapplication_1_1_main.html#a4e5ad4e3de8bbd8654120180a94e870d" target="_top" xlink:title="application.Main.start">
<polygon fill="white" stroke="black" points="1268.5,-12.5 1268.5,-31.5 1387.5,-31.5 1387.5,-12.5 1268.5,-12.5"/>
<text text-anchor="middle" x="1328" y="-19.5" font-family="Helvetica,sans-Serif" font-size="10.00">application.Main.start</text>
</a>
</g>
</g>
<!-- Node7&#45;&gt;Node8 -->
<g id="edge7" class="edge"><title>Node7&#45;&gt;Node8</title>
<path fill="none" stroke="midnightblue" d="M1241.68,-33.4457C1250.64,-32.2431 1259.66,-31.0333 1268.3,-29.8741"/>
<polygon fill="midnightblue" stroke="midnightblue" points="1241.05,-29.9989 1231.6,-34.7975 1241.98,-36.9368 1241.05,-29.9989"/>
</g>
<!-- Node8&#45;&gt;Node1 -->
<g id="edge8" class="edge"><title>Node8&#45;&gt;Node1</title>
<path fill="none" stroke="midnightblue" d="M1258.15,-15.1117C1187.62,-8.65849 1074.78,-0 977,-0 435,-0 435,-0 435,-0 330.285,-0 209.022,-9.08395 135.714,-15.5775"/>
<polygon fill="midnightblue" stroke="midnightblue" points="1257.96,-18.6091 1268.24,-16.0465 1258.61,-11.6389 1257.96,-18.6091"/>
</g>
<!-- Node10 -->
<g id="node10" class="node"><title>Node10</title>
<g id="a_node10"><a xlink:href="../../d9/d96/classapplication_1_1_main.html#a81e70f73d65beae34c459628791cc5d4" target="_top" xlink:title="application.Main.activate\lErrorPage">
<polygon fill="white" stroke="black" points="547.5,-29 547.5,-59 682.5,-59 682.5,-29 547.5,-29"/>
<text text-anchor="start" x="555.5" y="-47" font-family="Helvetica,sans-Serif" font-size="10.00">application.Main.activate</text>
<text text-anchor="middle" x="615" y="-36" font-family="Helvetica,sans-Serif" font-size="10.00">ErrorPage</text>
</a>
</g>
</g>
<!-- Node9&#45;&gt;Node10 -->
<g id="edge10" class="edge"><title>Node9&#45;&gt;Node10</title>
<path fill="none" stroke="midnightblue" d="M515.739,-44C526.305,-44 537.058,-44 547.388,-44"/>
<polygon fill="midnightblue" stroke="midnightblue" points="515.686,-40.5001 505.686,-44 515.686,-47.5001 515.686,-40.5001"/>
</g>
<!-- Node11 -->
<g id="node11" class="node"><title>Node11</title>
<g id="a_node11"><a xlink:href="../../d9/d96/classapplication_1_1_main.html#aef0593911aa3cbc594ac75bbb8d6a2b0" target="_top" xlink:title="application.Main.activate\lImportXMLButton">
<polygon fill="white" stroke="black" points="724.5,-29 724.5,-59 859.5,-59 859.5,-29 724.5,-29"/>
<text text-anchor="start" x="732.5" y="-47" font-family="Helvetica,sans-Serif" font-size="10.00">application.Main.activate</text>
<text text-anchor="middle" x="792" y="-36" font-family="Helvetica,sans-Serif" font-size="10.00">ImportXMLButton</text>
</a>
</g>
</g>
<!-- Node10&#45;&gt;Node11 -->
<g id="edge11" class="edge"><title>Node10&#45;&gt;Node11</title>
<path fill="none" stroke="midnightblue" d="M692.66,-44C703.18,-44 713.913,-44 724.236,-44"/>
<polygon fill="midnightblue" stroke="midnightblue" points="692.659,-40.5001 682.659,-44 692.659,-47.5001 692.659,-40.5001"/>
</g>
<!-- Node12 -->
<g id="node12" class="node"><title>Node12</title>
<g id="a_node12"><a xlink:href="../../d9/d96/classapplication_1_1_main.html#a18021492af2e457d39edcbd16dc0d3c8" target="_top" xlink:title="application.Main.createImport\lXMLButton">
<polygon fill="white" stroke="black" points="896.5,-29 896.5,-59 1055.5,-59 1055.5,-29 896.5,-29"/>
<text text-anchor="start" x="904.5" y="-47" font-family="Helvetica,sans-Serif" font-size="10.00">application.Main.createImport</text>
<text text-anchor="middle" x="976" y="-36" font-family="Helvetica,sans-Serif" font-size="10.00">XMLButton</text>
</a>
</g>
</g>
<!-- Node11&#45;&gt;Node12 -->
<g id="edge12" class="edge"><title>Node11&#45;&gt;Node12</title>
<path fill="none" stroke="midnightblue" d="M869.873,-44C878.594,-44 887.492,-44 896.237,-44"/>
<polygon fill="midnightblue" stroke="midnightblue" points="869.737,-40.5001 859.737,-44 869.737,-47.5001 869.737,-40.5001"/>
</g>
<!-- Node12&#45;&gt;Node7 -->
<g id="edge13" class="edge"><title>Node12&#45;&gt;Node7</title>
<path fill="none" stroke="midnightblue" d="M1065.64,-44C1074.59,-44 1083.58,-44 1092.28,-44"/>
<polygon fill="midnightblue" stroke="midnightblue" points="1065.57,-40.5001 1055.57,-44 1065.57,-47.5001 1065.57,-40.5001"/>
</g>
</g>
</svg>
