<?xml version="1.0" encoding="UTF-8" standalone="no"?>
<!DOCTYPE svg PUBLIC "-//W3C//DTD SVG 1.1//EN"
 "http://www.w3.org/Graphics/SVG/1.1/DTD/svg11.dtd">
<!-- Generated by graphviz version 2.36.0 (20140111.2315)
 -->
<!-- Title: application.Main.createLineChart Pages: 1 -->
<svg width="2482pt" height="96pt"
 viewBox="0.00 0.00 2482.00 96.00" xmlns="http://www.w3.org/2000/svg" xmlns:xlink="http://www.w3.org/1999/xlink">
<g id="graph0" class="graph" transform="scale(1 1) rotate(0) translate(4 92)">
<title>application.Main.createLineChart</title>
<polygon fill="white" stroke="none" points="-4,4 -4,-92 2478,-92 2478,4 -4,4"/>
<!-- Node1 -->
<g id="node1" class="node"><title>Node1</title>
<polygon fill="#bfbfbf" stroke="black" points="0.5,-5 0.5,-35 147.5,-35 147.5,-5 0.5,-5"/>
<text text-anchor="start" x="8.5" y="-23" font-family="Helvetica,sans-Serif" font-size="10.00">application.Main.createLine</text>
<text text-anchor="middle" x="74" y="-12" font-family="Helvetica,sans-Serif" font-size="10.00">Chart</text>
</g>
<!-- Node2 -->
<g id="node2" class="node"><title>Node2</title>
<g id="a_node2"><a xlink:href="../../d9/d96/classapplication_1_1_main.html#aa4d46cb157b4be891c964b8edcc8a071" target="_top" xlink:title="application.Main.createGame\lGraph">
<polygon fill="white" stroke="black" points="184.5,-5 184.5,-35 341.5,-35 341.5,-5 184.5,-5"/>
<text text-anchor="start" x="192.5" y="-23" font-family="Helvetica,sans-Serif" font-size="10.00">application.Main.createGame</text>
<text text-anchor="middle" x="263" y="-12" font-family="Helvetica,sans-Serif" font-size="10.00">Graph</text>
</a>
</g>
</g>
<!-- Node1&#45;&gt;Node2 -->
<g id="edge1" class="edge"><title>Node1&#45;&gt;Node2</title>
<path fill="none" stroke="midnightblue" d="M157.798,-20C166.58,-20 175.489,-20 184.21,-20"/>
<polygon fill="midnightblue" stroke="midnightblue" points="157.567,-16.5001 147.567,-20 157.567,-23.5001 157.567,-16.5001"/>
</g>
<!-- Node3 -->
<g id="node3" class="node"><title>Node3</title>
<g id="a_node3"><a xlink:href="../../d9/d96/classapplication_1_1_main.html#a2ddf30fb8360296e1ad3459fe6f920fb" target="_top" xlink:title="application.Main.populate\lGridPageModules">
<polygon fill="white" stroke="black" points="378.5,-5 378.5,-35 517.5,-35 517.5,-5 378.5,-5"/>
<text text-anchor="start" x="386.5" y="-23" font-family="Helvetica,sans-Serif" font-size="10.00">application.Main.populate</text>
<text text-anchor="middle" x="448" y="-12" font-family="Helvetica,sans-Serif" font-size="10.00">GridPageModules</text>
</a>
</g>
</g>
<!-- Node2&#45;&gt;Node3 -->
<g id="edge2" class="edge"><title>Node2&#45;&gt;Node3</title>
<path fill="none" stroke="midnightblue" d="M351.655,-20C360.587,-20 369.568,-20 378.258,-20"/>
<polygon fill="midnightblue" stroke="midnightblue" points="351.609,-16.5001 341.608,-20 351.608,-23.5001 351.609,-16.5001"/>
</g>
<!-- Node4 -->
<g id="node4" class="node"><title>Node4</title>
<g id="a_node4"><a xlink:href="../../d9/d96/classapplication_1_1_main.html#adc868cfca1990edad66af3dcb8cf4349" target="_top" xlink:title="application.Main.playGame">
<polygon fill="white" stroke="black" points="554,-31.5 554,-50.5 700,-50.5 700,-31.5 554,-31.5"/>
<text text-anchor="middle" x="627" y="-38.5" font-family="Helvetica,sans-Serif" font-size="10.00">application.Main.playGame</text>
</a>
</g>
</g>
<!-- Node3&#45;&gt;Node4 -->
<g id="edge3" class="edge"><title>Node3&#45;&gt;Node4</title>
<path fill="none" stroke="midnightblue" d="M527.787,-29.3477C536.459,-30.3765 545.256,-31.4202 553.841,-32.4387"/>
<polygon fill="midnightblue" stroke="midnightblue" points="528.029,-25.8518 517.686,-28.1492 527.204,-32.8031 528.029,-25.8518"/>
</g>
<!-- Node5 -->
<g id="node5" class="node"><title>Node5</title>
<g id="a_node5"><a xlink:href="../../d9/d96/classapplication_1_1_main.html#ada0f47786d75e28e627d2621d75eaf5a" target="_top" xlink:title="application.Main.activate\lStartButton">
<polygon fill="white" stroke="black" points="736.5,-29 736.5,-59 871.5,-59 871.5,-29 736.5,-29"/>
<text text-anchor="start" x="744.5" y="-47" font-family="Helvetica,sans-Serif" font-size="10.00">application.Main.activate</text>
<text text-anchor="middle" x="804" y="-36" font-family="Helvetica,sans-Serif" font-size="10.00">StartButton</text>
</a>
</g>
</g>
<!-- Node4&#45;&gt;Node5 -->
<g id="edge4" class="edge"><title>Node4&#45;&gt;Node5</title>
<path fill="none" stroke="midnightblue" d="M710.351,-42.4117C719.052,-42.5609 727.82,-42.7112 736.312,-42.8568"/>
<polygon fill="midnightblue" stroke="midnightblue" points="710.248,-38.9095 700.19,-42.2375 710.128,-45.9085 710.248,-38.9095"/>
</g>
<!-- Node6 -->
<g id="node6" class="node"><title>Node6</title>
<g id="a_node6"><a xlink:href="../../d9/d96/classapplication_1_1_main.html#a64e6451d894979853890a235efe37db8" target="_top" xlink:title="application.Main.createStart\lGameButton">
<polygon fill="white" stroke="black" points="908,-29 908,-59 1060,-59 1060,-29 908,-29"/>
<text text-anchor="start" x="916" y="-47" font-family="Helvetica,sans-Serif" font-size="10.00">application.Main.createStart</text>
<text text-anchor="middle" x="984" y="-36" font-family="Helvetica,sans-Serif" font-size="10.00">GameButton</text>
</a>
</g>
</g>
<!-- Node5&#45;&gt;Node6 -->
<g id="edge5" class="edge"><title>Node5&#45;&gt;Node6</title>
<path fill="none" stroke="midnightblue" d="M881.646,-44C890.341,-44 899.196,-44 907.871,-44"/>
<polygon fill="midnightblue" stroke="midnightblue" points="881.534,-40.5001 871.534,-44 881.534,-47.5001 881.534,-40.5001"/>
</g>
<!-- Node7 -->
<g id="node7" class="node"><title>Node7</title>
<g id="a_node7"><a xlink:href="../../d9/d96/classapplication_1_1_main.html#a5fee6c1b05965eca9205a99e3245a5fb" target="_top" xlink:title="application.Main.populate\lStartPageModules">
<polygon fill="white" stroke="black" points="1096.5,-29 1096.5,-59 1235.5,-59 1235.5,-29 1096.5,-29"/>
<text text-anchor="start" x="1104.5" y="-47" font-family="Helvetica,sans-Serif" font-size="10.00">application.Main.populate</text>
<text text-anchor="middle" x="1166" y="-36" font-family="Helvetica,sans-Serif" font-size="10.00">StartPageModules</text>
</a>
</g>
</g>
<!-- Node6&#45;&gt;Node7 -->
<g id="edge6" class="edge"><title>Node6&#45;&gt;Node7</title>
<path fill="none" stroke="midnightblue" d="M1070.27,-44C1079.04,-44 1087.86,-44 1096.41,-44"/>
<polygon fill="midnightblue" stroke="midnightblue" points="1070.03,-40.5001 1060.03,-44 1070.03,-47.5001 1070.03,-40.5001"/>
</g>
<!-- Node8 -->
<g id="node8" class="node"><title>Node8</title>
<g id="a_node8"><a xlink:href="../../d9/d96/classapplication_1_1_main.html#a4e5ad4e3de8bbd8654120180a94e870d" target="_top" xlink:title="application.Main.start">
<polygon fill="white" stroke="black" points="1272.5,-34.5 1272.5,-53.5 1391.5,-53.5 1391.5,-34.5 1272.5,-34.5"/>
<text text-anchor="middle" x="1332" y="-41.5" font-family="Helvetica,sans-Serif" font-size="10.00">application.Main.start</text>
</a>
</g>
</g>
<!-- Node7&#45;&gt;Node8 -->
<g id="edge7" class="edge"><title>Node7&#45;&gt;Node8</title>
<path fill="none" stroke="midnightblue" d="M1245.68,-44C1254.64,-44 1263.66,-44 1272.3,-44"/>
<polygon fill="midnightblue" stroke="midnightblue" points="1245.6,-40.5001 1235.6,-44 1245.6,-47.5001 1245.6,-40.5001"/>
</g>
<!-- Node9 -->
<g id="node9" class="node"><title>Node9</title>
<g id="a_node9"><a xlink:href="../../d9/d96/classapplication_1_1_main.html#ad652e3294ffb6519b18d784d5831c76a" target="_top" xlink:title="application.Main.activate\lReturntoStart">
<polygon fill="white" stroke="black" points="1428.5,-29 1428.5,-59 1563.5,-59 1563.5,-29 1428.5,-29"/>
<text text-anchor="start" x="1436.5" y="-47" font-family="Helvetica,sans-Serif" font-size="10.00">application.Main.activate</text>
<text text-anchor="middle" x="1496" y="-36" font-family="Helvetica,sans-Serif" font-size="10.00">ReturntoStart</text>
</a>
</g>
</g>
<!-- Node8&#45;&gt;Node9 -->
<g id="edge8" class="edge"><title>Node8&#45;&gt;Node9</title>
<path fill="none" stroke="midnightblue" d="M1402.08,-44C1410.81,-44 1419.73,-44 1428.42,-44"/>
<polygon fill="midnightblue" stroke="midnightblue" points="1401.94,-40.5001 1391.94,-44 1401.94,-47.5001 1401.94,-40.5001"/>
</g>
<!-- Node10 -->
<g id="node10" class="node"><title>Node10</title>
<g id="a_node10"><a xlink:href="../../d9/d96/classapplication_1_1_main.html#a4c5877fafc53c4fae488f1f30faf294b" target="_top" xlink:title="application.Main.createReturn\lToStartButton">
<polygon fill="white" stroke="black" points="1600,-29 1600,-59 1758,-59 1758,-29 1600,-29"/>
<text text-anchor="start" x="1608" y="-47" font-family="Helvetica,sans-Serif" font-size="10.00">application.Main.createReturn</text>
<text text-anchor="middle" x="1679" y="-36" font-family="Helvetica,sans-Serif" font-size="10.00">ToStartButton</text>
</a>
</g>
</g>
<!-- Node9&#45;&gt;Node10 -->
<g id="edge9" class="edge"><title>Node9&#45;&gt;Node10</title>
<path fill="none" stroke="midnightblue" d="M1573.7,-44C1582.36,-44 1591.19,-44 1599.87,-44"/>
<polygon fill="midnightblue" stroke="midnightblue" points="1573.63,-40.5001 1563.63,-44 1573.63,-47.5001 1573.63,-40.5001"/>
</g>
<!-- Node10&#45;&gt;Node3 -->
<g id="edge10" class="edge"><title>Node10&#45;&gt;Node3</title>
<path fill="none" stroke="midnightblue" d="M1606.64,-26.8172C1592.57,-23.8641 1577.87,-21.0812 1564,-19 1462.13,-3.71043 1436.01,-0 1333,-0 803,-0 803,-0 803,-0 703.74,-0 589.074,-7.93505 517.792,-13.8088"/>
<polygon fill="midnightblue" stroke="midnightblue" points="1606.24,-30.3112 1616.75,-28.99 1607.71,-23.4673 1606.24,-30.3112"/>
</g>
<!-- Node11 -->
<g id="node11" class="node"><title>Node11</title>
<g id="a_node11"><a xlink:href="../../d9/d96/classapplication_1_1_main.html#abcabe1a32eb7b5054cf34ca0def07531" target="_top" xlink:title="application.Main.populate\lErrorPageModules">
<polygon fill="white" stroke="black" points="1794.5,-29 1794.5,-59 1933.5,-59 1933.5,-29 1794.5,-29"/>
<text text-anchor="start" x="1802.5" y="-47" font-family="Helvetica,sans-Serif" font-size="10.00">application.Main.populate</text>
<text text-anchor="middle" x="1864" y="-36" font-family="Helvetica,sans-Serif" font-size="10.00">ErrorPageModules</text>
</a>
</g>
</g>
<!-- Node10&#45;&gt;Node11 -->
<g id="edge11" class="edge"><title>Node10&#45;&gt;Node11</title>
<path fill="none" stroke="midnightblue" d="M1768.36,-44C1777.1,-44 1785.87,-44 1794.37,-44"/>
<polygon fill="midnightblue" stroke="midnightblue" points="1768.14,-40.5001 1758.14,-44 1768.14,-47.5001 1768.14,-40.5001"/>
</g>
<!-- Node12 -->
<g id="node12" class="node"><title>Node12</title>
<g id="a_node12"><a xlink:href="../../d9/d96/classapplication_1_1_main.html#a81e70f73d65beae34c459628791cc5d4" target="_top" xlink:title="application.Main.activate\lErrorPage">
<polygon fill="white" stroke="black" points="1970.5,-29 1970.5,-59 2105.5,-59 2105.5,-29 1970.5,-29"/>
<text text-anchor="start" x="1978.5" y="-47" font-family="Helvetica,sans-Serif" font-size="10.00">application.Main.activate</text>
<text text-anchor="middle" x="2038" y="-36" font-family="Helvetica,sans-Serif" font-size="10.00">ErrorPage</text>
</a>
</g>
</g>
<!-- Node11&#45;&gt;Node12 -->
<g id="edge12" class="edge"><title>Node11&#45;&gt;Node12</title>
<path fill="none" stroke="midnightblue" d="M1944.15,-44C1952.88,-44 1961.7,-44 1970.25,-44"/>
<polygon fill="midnightblue" stroke="midnightblue" points="1943.97,-40.5001 1933.97,-44 1943.97,-47.5001 1943.97,-40.5001"/>
</g>
<!-- Node13 -->
<g id="node13" class="node"><title>Node13</title>
<g id="a_node13"><a xlink:href="../../d9/d96/classapplication_1_1_main.html#aef0593911aa3cbc594ac75bbb8d6a2b0" target="_top" xlink:title="application.Main.activate\lImportXMLButton">
<polygon fill="white" stroke="black" points="2142.5,-29 2142.5,-59 2277.5,-59 2277.5,-29 2142.5,-29"/>
<text text-anchor="start" x="2150.5" y="-47" font-family="Helvetica,sans-Serif" font-size="10.00">application.Main.activate</text>
<text text-anchor="middle" x="2210" y="-36" font-family="Helvetica,sans-Serif" font-size="10.00">ImportXMLButton</text>
</a>
</g>
</g>
<!-- Node12&#45;&gt;Node13 -->
<g id="edge13" class="edge"><title>Node12&#45;&gt;Node13</title>
<path fill="none" stroke="midnightblue" d="M2115.72,-44C2124.65,-44 2133.71,-44 2142.49,-44"/>
<polygon fill="midnightblue" stroke="midnightblue" points="2115.7,-40.5001 2105.7,-44 2115.7,-47.5001 2115.7,-40.5001"/>
</g>
<!-- Node14 -->
<g id="node14" class="node"><title>Node14</title>
<g id="a_node14"><a xlink:href="../../d9/d96/classapplication_1_1_main.html#a18021492af2e457d39edcbd16dc0d3c8" target="_top" xlink:title="application.Main.createImport\lXMLButton">
<polygon fill="white" stroke="black" points="2314.5,-51 2314.5,-81 2473.5,-81 2473.5,-51 2314.5,-51"/>
<text text-anchor="start" x="2322.5" y="-69" font-family="Helvetica,sans-Serif" font-size="10.00">application.Main.createImport</text>
<text text-anchor="middle" x="2394" y="-58" font-family="Helvetica,sans-Serif" font-size="10.00">XMLButton</text>
</a>
</g>
</g>
<!-- Node13&#45;&gt;Node14 -->
<g id="edge14" class="edge"><title>Node13&#45;&gt;Node14</title>
<path fill="none" stroke="midnightblue" d="M2287.87,-53.2923C2296.59,-54.3465 2305.49,-55.4221 2314.24,-56.4792"/>
<polygon fill="midnightblue" stroke="midnightblue" points="2288.08,-49.7925 2277.74,-52.0671 2287.24,-56.7419 2288.08,-49.7925"/>
</g>
<!-- Node14&#45;&gt;Node7 -->
<g id="edge15" class="edge"><title>Node14&#45;&gt;Node7</title>
<path fill="none" stroke="midnightblue" d="M2304.03,-74.5964C2232.5,-80.7676 2129.38,-88 2039,-88 1495,-88 1495,-88 1495,-88 1404.8,-88 1301.87,-71.451 1235.75,-58.6514"/>
<polygon fill="midnightblue" stroke="midnightblue" points="2304.69,-78.0519 2314.35,-73.6945 2304.08,-71.0785 2304.69,-78.0519"/>
</g>
</g>
</svg>
