<?xml version="1.0" encoding="UTF-8" standalone="no"?>
<!DOCTYPE svg PUBLIC "-//W3C//DTD SVG 1.1//EN"
 "http://www.w3.org/Graphics/SVG/1.1/DTD/svg11.dtd">
<!-- Generated by graphviz version 2.36.0 (20140111.2315)
 -->
<!-- Title: application.GameOfLifeCell.updateCell Pages: 1 -->
<svg width="406pt" height="87pt"
 viewBox="0.00 0.00 406.00 87.00" xmlns="http://www.w3.org/2000/svg" xmlns:xlink="http://www.w3.org/1999/xlink">
<g id="graph0" class="graph" transform="scale(1 1) rotate(0) translate(4 83)">
<title>application.GameOfLifeCell.updateCell</title>
<polygon fill="white" stroke="none" points="-4,4 -4,-83 402,-83 402,4 -4,4"/>
<!-- Node1 -->
<g id="node1" class="node"><title>Node1</title>
<polygon fill="#bfbfbf" stroke="black" points="0.5,-29.5 0.5,-48.5 199.5,-48.5 199.5,-29.5 0.5,-29.5"/>
<text text-anchor="middle" x="100" y="-36.5" font-family="Helvetica,sans-Serif" font-size="10.00">application.GameOfLifeCell.updateCell</text>
</g>
<!-- Node2 -->
<g id="node2" class="node"><title>Node2</title>
<g id="a_node2"><a xlink:href="../../d7/dff/classapplication_1_1_cell.html#adee02d15440cb198751d122a9d7a5f10" target="_top" xlink:title="application.Cell.findWanted\lNeighbors">
<polygon fill="white" stroke="black" points="245,-49 245,-79 389,-79 389,-49 245,-49"/>
<text text-anchor="start" x="253" y="-67" font-family="Helvetica,sans-Serif" font-size="10.00">application.Cell.findWanted</text>
<text text-anchor="middle" x="317" y="-56" font-family="Helvetica,sans-Serif" font-size="10.00">Neighbors</text>
</a>
</g>
</g>
<!-- Node1&#45;&gt;Node2 -->
<g id="edge1" class="edge"><title>Node1&#45;&gt;Node2</title>
<path fill="none" stroke="midnightblue" d="M182.896,-48.5227C199.799,-50.4882 217.598,-52.558 234.488,-54.5218"/>
<polygon fill="midnightblue" stroke="midnightblue" points="234.533,-58.0505 244.87,-55.7291 235.341,-51.0974 234.533,-58.0505"/>
</g>
<!-- Node3 -->
<g id="node3" class="node"><title>Node3</title>
<g id="a_node3"><a xlink:href="../../d9/d3f/classapplication_1_1_game_of_life_cell.html#a1e69e3a583a586defdace8bcc1406684" target="_top" xlink:title="application.GameOfLifeCell.life\lUpdate">
<polygon fill="white" stroke="black" points="236.5,-0 236.5,-30 397.5,-30 397.5,-0 236.5,-0"/>
<text text-anchor="start" x="244.5" y="-18" font-family="Helvetica,sans-Serif" font-size="10.00">application.GameOfLifeCell.life</text>
<text text-anchor="middle" x="317" y="-7" font-family="Helvetica,sans-Serif" font-size="10.00">Update</text>
</a>
</g>
</g>
<!-- Node1&#45;&gt;Node3 -->
<g id="edge2" class="edge"><title>Node1&#45;&gt;Node3</title>
<path fill="none" stroke="midnightblue" d="M186.282,-29.4801C199.455,-28.0096 213.094,-26.4872 226.359,-25.0064"/>
<polygon fill="midnightblue" stroke="midnightblue" points="226.866,-28.4716 236.416,-23.8838 226.09,-21.5148 226.866,-28.4716"/>
</g>
</g>
</svg>
