<?xml version="1.0" encoding="UTF-8" standalone="no"?>
<!DOCTYPE svg PUBLIC "-//W3C//DTD SVG 1.1//EN"
 "http://www.w3.org/Graphics/SVG/1.1/DTD/svg11.dtd">
<!-- Generated by graphviz version 2.36.0 (20140111.2315)
 -->
<!-- Title: application.WaTorCell.updateCell Pages: 1 -->
<svg width="1304pt" height="249pt"
 viewBox="0.00 0.00 1304.00 248.82" xmlns="http://www.w3.org/2000/svg" xmlns:xlink="http://www.w3.org/1999/xlink">
<g id="graph0" class="graph" transform="scale(1 1) rotate(0) translate(4 244.823)">
<title>application.WaTorCell.updateCell</title>
<polygon fill="white" stroke="none" points="-4,4 -4,-244.823 1300,-244.823 1300,4 -4,4"/>
<!-- Node1 -->
<g id="node1" class="node"><title>Node1</title>
<polygon fill="#bfbfbf" stroke="black" points="0,-118.75 0,-137.75 170,-137.75 170,-118.75 0,-118.75"/>
<text text-anchor="middle" x="85" y="-125.75" font-family="Helvetica,sans-Serif" font-size="10.00">application.WaTorCell.updateCell</text>
</g>
<!-- Node2 -->
<g id="node2" class="node"><title>Node2</title>
<g id="a_node2"><a xlink:href="../../d8/db1/classapplication_1_1_wa_tor_cell.html#ad9630281a27495d016b877f1531709a8" target="_top" xlink:title="application.WaTorCell.update\lThisCell">
<polygon fill="white" stroke="black" points="206,-113.25 206,-143.25 358,-143.25 358,-113.25 206,-113.25"/>
<text text-anchor="start" x="214" y="-131.25" font-family="Helvetica,sans-Serif" font-size="10.00">application.WaTorCell.update</text>
<text text-anchor="middle" x="282" y="-120.25" font-family="Helvetica,sans-Serif" font-size="10.00">ThisCell</text>
</a>
</g>
</g>
<!-- Node1&#45;&gt;Node2 -->
<g id="edge1" class="edge"><title>Node1&#45;&gt;Node2</title>
<path fill="none" stroke="midnightblue" d="M170.112,-128.25C178.54,-128.25 187.104,-128.25 195.545,-128.25"/>
<polygon fill="midnightblue" stroke="midnightblue" points="195.763,-131.75 205.763,-128.25 195.763,-124.75 195.763,-131.75"/>
</g>
<!-- Node3 -->
<g id="node3" class="node"><title>Node3</title>
<g id="a_node3"><a xlink:href="../../d8/db1/classapplication_1_1_wa_tor_cell.html#a7b55e124dba81e37f00da7a6c09783de" target="_top" xlink:title="application.WaTorCell.shark\lUpdate">
<polygon fill="white" stroke="black" points="394.5,-146.25 394.5,-176.25 539.5,-176.25 539.5,-146.25 394.5,-146.25"/>
<text text-anchor="start" x="402.5" y="-164.25" font-family="Helvetica,sans-Serif" font-size="10.00">application.WaTorCell.shark</text>
<text text-anchor="middle" x="467" y="-153.25" font-family="Helvetica,sans-Serif" font-size="10.00">Update</text>
</a>
</g>
</g>
<!-- Node2&#45;&gt;Node3 -->
<g id="edge2" class="edge"><title>Node2&#45;&gt;Node3</title>
<path fill="none" stroke="midnightblue" d="M358.225,-141.815C366.799,-143.361 375.569,-144.943 384.223,-146.503"/>
<polygon fill="midnightblue" stroke="midnightblue" points="383.846,-149.992 394.308,-148.322 385.088,-143.103 383.846,-149.992"/>
</g>
<!-- Node11 -->
<g id="node11" class="node"><title>Node11</title>
<g id="a_node11"><a xlink:href="../../d8/db1/classapplication_1_1_wa_tor_cell.html#ae1d4ff7071ac748d11f706f5c519b41d" target="_top" xlink:title="application.WaTorCell.fish\lUpdate">
<polygon fill="white" stroke="black" points="399.5,-81.2499 399.5,-111.25 534.5,-111.25 534.5,-81.2499 399.5,-81.2499"/>
<text text-anchor="start" x="407.5" y="-99.2499" font-family="Helvetica,sans-Serif" font-size="10.00">application.WaTorCell.fish</text>
<text text-anchor="middle" x="467" y="-88.2499" font-family="Helvetica,sans-Serif" font-size="10.00">Update</text>
</a>
</g>
</g>
<!-- Node2&#45;&gt;Node11 -->
<g id="edge14" class="edge"><title>Node2&#45;&gt;Node11</title>
<path fill="none" stroke="midnightblue" d="M358.225,-115.096C368.429,-113.312 378.911,-111.479 389.142,-109.69"/>
<polygon fill="midnightblue" stroke="midnightblue" points="390.023,-113.089 399.27,-107.918 388.817,-106.193 390.023,-113.089"/>
</g>
<!-- Node4 -->
<g id="node4" class="node"><title>Node4</title>
<g id="a_node4"><a xlink:href="../../d8/db1/classapplication_1_1_wa_tor_cell.html#acd6f36e1b67026af41aab1234ee5e58a" target="_top" xlink:title="application.WaTorCell.eatFish">
<polygon fill="white" stroke="black" points="582,-129.75 582,-148.75 734,-148.75 734,-129.75 582,-129.75"/>
<text text-anchor="middle" x="658" y="-136.75" font-family="Helvetica,sans-Serif" font-size="10.00">application.WaTorCell.eatFish</text>
</a>
</g>
</g>
<!-- Node3&#45;&gt;Node4 -->
<g id="edge3" class="edge"><title>Node3&#45;&gt;Node4</title>
<path fill="none" stroke="midnightblue" d="M539.722,-152.901C550.168,-151.685 561.009,-150.423 571.692,-149.18"/>
<polygon fill="midnightblue" stroke="midnightblue" points="572.339,-152.628 581.867,-147.996 571.53,-145.675 572.339,-152.628"/>
</g>
<!-- Node7 -->
<g id="node7" class="node"><title>Node7</title>
<g id="a_node7"><a xlink:href="../../d7/dff/classapplication_1_1_cell.html#adee02d15440cb198751d122a9d7a5f10" target="_top" xlink:title="application.Cell.findWanted\lNeighbors">
<polygon fill="white" stroke="black" points="1146,-149.25 1146,-179.25 1290,-179.25 1290,-149.25 1146,-149.25"/>
<text text-anchor="start" x="1154" y="-167.25" font-family="Helvetica,sans-Serif" font-size="10.00">application.Cell.findWanted</text>
<text text-anchor="middle" x="1218" y="-156.25" font-family="Helvetica,sans-Serif" font-size="10.00">Neighbors</text>
</a>
</g>
</g>
<!-- Node3&#45;&gt;Node7 -->
<g id="edge9" class="edge"><title>Node3&#45;&gt;Node7</title>
<path fill="none" stroke="midnightblue" d="M494.983,-176.321C516.256,-187.305 547.061,-201.268 576,-207.25 805.809,-254.751 873.269,-249.052 1104,-206.25 1128.63,-201.682 1154.92,-192.206 1175.95,-183.41"/>
<polygon fill="midnightblue" stroke="midnightblue" points="1177.4,-186.595 1185.21,-179.436 1174.64,-180.162 1177.4,-186.595"/>
</g>
<!-- Node10 -->
<g id="node10" class="node"><title>Node10</title>
<g id="a_node10"><a xlink:href="../../d8/db1/classapplication_1_1_wa_tor_cell.html#ac24a6ce0cc2bfac6ffec59cc1deaf13f" target="_top" xlink:title="application.WaTorCell.move\lShark">
<polygon fill="white" stroke="black" points="585,-168.25 585,-198.25 731,-198.25 731,-168.25 585,-168.25"/>
<text text-anchor="start" x="593" y="-186.25" font-family="Helvetica,sans-Serif" font-size="10.00">application.WaTorCell.move</text>
<text text-anchor="middle" x="658" y="-175.25" font-family="Helvetica,sans-Serif" font-size="10.00">Shark</text>
</a>
</g>
</g>
<!-- Node3&#45;&gt;Node10 -->
<g id="edge10" class="edge"><title>Node3&#45;&gt;Node10</title>
<path fill="none" stroke="midnightblue" d="M539.722,-169.599C551.111,-170.924 562.968,-172.304 574.578,-173.656"/>
<polygon fill="midnightblue" stroke="midnightblue" points="574.362,-177.154 584.7,-174.834 575.171,-170.201 574.362,-177.154"/>
</g>
<!-- Node5 -->
<g id="node5" class="node"><title>Node5</title>
<g id="a_node5"><a xlink:href="../../d8/db1/classapplication_1_1_wa_tor_cell.html#a307b646f55543b979ac5b5d99b204d44" target="_top" xlink:title="application.WaTorCell.shark\lCheck">
<polygon fill="white" stroke="black" points="776.5,-149.25 776.5,-179.25 921.5,-179.25 921.5,-149.25 776.5,-149.25"/>
<text text-anchor="start" x="784.5" y="-167.25" font-family="Helvetica,sans-Serif" font-size="10.00">application.WaTorCell.shark</text>
<text text-anchor="middle" x="849" y="-156.25" font-family="Helvetica,sans-Serif" font-size="10.00">Check</text>
</a>
</g>
</g>
<!-- Node4&#45;&gt;Node5 -->
<g id="edge4" class="edge"><title>Node4&#45;&gt;Node5</title>
<path fill="none" stroke="midnightblue" d="M730.992,-148.773C742.449,-150.288 754.375,-151.866 766.041,-153.409"/>
<polygon fill="midnightblue" stroke="midnightblue" points="765.836,-156.912 776.208,-154.754 766.754,-149.972 765.836,-156.912"/>
</g>
<!-- Node6 -->
<g id="node6" class="node"><title>Node6</title>
<g id="a_node6"><a xlink:href="../../d8/db1/classapplication_1_1_wa_tor_cell.html#a9c94858de4179a7d43d023568a0a7a42" target="_top" xlink:title="application.WaTorCell.breed">
<polygon fill="white" stroke="black" points="958,-72.7499 958,-91.7499 1104,-91.7499 1104,-72.7499 958,-72.7499"/>
<text text-anchor="middle" x="1031" y="-79.7499" font-family="Helvetica,sans-Serif" font-size="10.00">application.WaTorCell.breed</text>
</a>
</g>
</g>
<!-- Node5&#45;&gt;Node6 -->
<g id="edge5" class="edge"><title>Node5&#45;&gt;Node6</title>
<path fill="none" stroke="midnightblue" d="M883.015,-149.21C916.311,-134.042 967.284,-110.821 999.611,-96.0937"/>
<polygon fill="midnightblue" stroke="midnightblue" points="1001.36,-99.1451 1009,-91.8143 998.454,-92.775 1001.36,-99.1451"/>
</g>
<!-- Node9 -->
<g id="node9" class="node"><title>Node9</title>
<g id="a_node9"><a xlink:href="../../d8/db1/classapplication_1_1_wa_tor_cell.html#a4b8b03a02d13912f0d2c263f192ea135" target="_top" xlink:title="application.WaTorCell.kill\lShark">
<polygon fill="white" stroke="black" points="965.5,-149.25 965.5,-179.25 1096.5,-179.25 1096.5,-149.25 965.5,-149.25"/>
<text text-anchor="start" x="973.5" y="-167.25" font-family="Helvetica,sans-Serif" font-size="10.00">application.WaTorCell.kill</text>
<text text-anchor="middle" x="1031" y="-156.25" font-family="Helvetica,sans-Serif" font-size="10.00">Shark</text>
</a>
</g>
</g>
<!-- Node5&#45;&gt;Node9 -->
<g id="edge8" class="edge"><title>Node5&#45;&gt;Node9</title>
<path fill="none" stroke="midnightblue" d="M921.658,-164.25C932.692,-164.25 944.11,-164.25 955.21,-164.25"/>
<polygon fill="midnightblue" stroke="midnightblue" points="955.295,-167.75 965.295,-164.25 955.295,-160.75 955.295,-167.75"/>
</g>
<!-- Node6&#45;&gt;Node7 -->
<g id="edge6" class="edge"><title>Node6&#45;&gt;Node7</title>
<path fill="none" stroke="midnightblue" d="M1064.29,-91.8531C1076.84,-95.8871 1091.25,-100.888 1104,-106.25 1130.68,-117.467 1159.71,-132.428 1181.66,-144.345"/>
<polygon fill="midnightblue" stroke="midnightblue" points="1180.15,-147.512 1190.61,-149.246 1183.52,-141.373 1180.15,-147.512"/>
</g>
<!-- Node8 -->
<g id="node8" class="node"><title>Node8</title>
<g id="a_node8"><a xlink:href="../../d8/db1/classapplication_1_1_wa_tor_cell.html#adf784ae30166eff30f6eaf804eb46c21" target="_top" xlink:title="application.WaTorCell.random\lFinder">
<polygon fill="white" stroke="black" points="1140,-29.2499 1140,-59.2499 1296,-59.2499 1296,-29.2499 1140,-29.2499"/>
<text text-anchor="start" x="1148" y="-47.2499" font-family="Helvetica,sans-Serif" font-size="10.00">application.WaTorCell.random</text>
<text text-anchor="middle" x="1218" y="-36.2499" font-family="Helvetica,sans-Serif" font-size="10.00">Finder</text>
</a>
</g>
</g>
<!-- Node6&#45;&gt;Node8 -->
<g id="edge7" class="edge"><title>Node6&#45;&gt;Node8</title>
<path fill="none" stroke="midnightblue" d="M1078.68,-72.6609C1095.46,-69.2159 1114.92,-65.2186 1133.85,-61.3297"/>
<polygon fill="midnightblue" stroke="midnightblue" points="1134.59,-64.75 1143.68,-59.3095 1133.18,-57.8932 1134.59,-64.75"/>
</g>
<!-- Node10&#45;&gt;Node5 -->
<g id="edge13" class="edge"><title>Node10&#45;&gt;Node5</title>
<path fill="none" stroke="midnightblue" d="M731.262,-175.986C742.707,-174.835 754.614,-173.638 766.257,-172.467"/>
<polygon fill="midnightblue" stroke="midnightblue" points="766.803,-175.93 776.403,-171.447 766.103,-168.965 766.803,-175.93"/>
</g>
<!-- Node10&#45;&gt;Node7 -->
<g id="edge11" class="edge"><title>Node10&#45;&gt;Node7</title>
<path fill="none" stroke="midnightblue" d="M731.304,-189.182C819.548,-195.243 973.181,-201.989 1104,-188.25 1118.26,-186.752 1133.37,-184.219 1147.74,-181.345"/>
<polygon fill="midnightblue" stroke="midnightblue" points="1148.47,-184.768 1157.56,-179.31 1147.05,-177.914 1148.47,-184.768"/>
</g>
<!-- Node10&#45;&gt;Node8 -->
<g id="edge12" class="edge"><title>Node10&#45;&gt;Node8</title>
<path fill="none" stroke="midnightblue" d="M712.658,-168.236C721.883,-165.216 731.297,-161.853 740,-158.25 756.716,-151.33 759.636,-146.966 776,-139.25 855.287,-101.866 872.739,-83.6093 958,-63.2499 1014.1,-49.8529 1078.82,-45.101 1129.52,-43.6992"/>
<polygon fill="midnightblue" stroke="midnightblue" points="1129.88,-47.1918 1139.8,-43.4555 1129.72,-40.1938 1129.88,-47.1918"/>
</g>
<!-- Node12 -->
<g id="node12" class="node"><title>Node12</title>
<g id="a_node12"><a xlink:href="../../d8/db1/classapplication_1_1_wa_tor_cell.html#afd6d9d7c8196264c6db8b07ac589b8d7" target="_top" xlink:title="application.WaTorCell.moveFish">
<polygon fill="white" stroke="black" points="576,-57.7499 576,-76.7499 740,-76.7499 740,-57.7499 576,-57.7499"/>
<text text-anchor="middle" x="658" y="-64.7499" font-family="Helvetica,sans-Serif" font-size="10.00">application.WaTorCell.moveFish</text>
</a>
</g>
</g>
<!-- Node11&#45;&gt;Node12 -->
<g id="edge15" class="edge"><title>Node11&#45;&gt;Node12</title>
<path fill="none" stroke="midnightblue" d="M534.634,-86.0256C550.916,-83.5273 568.411,-80.843 584.934,-78.3077"/>
<polygon fill="midnightblue" stroke="midnightblue" points="585.723,-81.7276 595.077,-76.7514 584.661,-74.8086 585.723,-81.7276"/>
</g>
<!-- Node12&#45;&gt;Node7 -->
<g id="edge16" class="edge"><title>Node12&#45;&gt;Node7</title>
<path fill="none" stroke="midnightblue" d="M725.554,-76.8014C812.738,-89.5919 970.251,-113.656 1104,-139.25 1116.3,-141.604 1129.31,-144.294 1141.96,-147.016"/>
<polygon fill="midnightblue" stroke="midnightblue" points="1141.48,-150.495 1152,-149.201 1142.97,-143.655 1141.48,-150.495"/>
</g>
<!-- Node12&#45;&gt;Node8 -->
<g id="edge19" class="edge"><title>Node12&#45;&gt;Node8</title>
<path fill="none" stroke="midnightblue" d="M674.134,-57.6447C695.734,-44.5624 737.106,-21.7925 776,-13.2499 904.485,14.9702 1058.6,-8.49255 1146.44,-27.0832"/>
<polygon fill="midnightblue" stroke="midnightblue" points="1145.78,-30.5216 1156.29,-29.2077 1147.25,-23.6789 1145.78,-30.5216"/>
</g>
<!-- Node13 -->
<g id="node13" class="node"><title>Node13</title>
<g id="a_node13"><a xlink:href="../../d8/db1/classapplication_1_1_wa_tor_cell.html#a1a6ef599bf7ba202e69ba2cea6562346" target="_top" xlink:title="application.WaTorCell.fish\lCheck">
<polygon fill="white" stroke="black" points="781.5,-23.2499 781.5,-53.2499 916.5,-53.2499 916.5,-23.2499 781.5,-23.2499"/>
<text text-anchor="start" x="789.5" y="-41.2499" font-family="Helvetica,sans-Serif" font-size="10.00">application.WaTorCell.fish</text>
<text text-anchor="middle" x="849" y="-30.2499" font-family="Helvetica,sans-Serif" font-size="10.00">Check</text>
</a>
</g>
</g>
<!-- Node12&#45;&gt;Node13 -->
<g id="edge17" class="edge"><title>Node12&#45;&gt;Node13</title>
<path fill="none" stroke="midnightblue" d="M721.147,-57.7141C737.096,-55.2669 754.443,-52.6053 771.041,-50.0584"/>
<polygon fill="midnightblue" stroke="midnightblue" points="771.907,-53.4666 781.26,-48.4904 770.845,-46.5476 771.907,-53.4666"/>
</g>
<!-- Node13&#45;&gt;Node6 -->
<g id="edge18" class="edge"><title>Node13&#45;&gt;Node6</title>
<path fill="none" stroke="midnightblue" d="M911.442,-53.2692C934.214,-58.8355 959.706,-65.067 981.201,-70.3212"/>
<polygon fill="midnightblue" stroke="midnightblue" points="980.54,-73.7628 991.086,-72.7375 982.203,-66.963 980.54,-73.7628"/>
</g>
</g>
</svg>
