<?xml version="1.0" encoding="UTF-8" standalone="no"?>
<!DOCTYPE svg PUBLIC "-//W3C//DTD SVG 1.1//EN"
 "http://www.w3.org/Graphics/SVG/1.1/DTD/svg11.dtd">
<!-- Generated by graphviz version 2.36.0 (20140111.2315)
 -->
<!-- Title: application.WaTorCell.moveShark Pages: 1 -->
<svg width="710pt" height="118pt"
 viewBox="0.00 0.00 710.00 117.51" xmlns="http://www.w3.org/2000/svg" xmlns:xlink="http://www.w3.org/1999/xlink">
<g id="graph0" class="graph" transform="scale(1 1) rotate(0) translate(4 113.508)">
<title>application.WaTorCell.moveShark</title>
<polygon fill="white" stroke="none" points="-4,4 -4,-113.508 706,-113.508 706,4 -4,4"/>
<!-- Node1 -->
<g id="node1" class="node"><title>Node1</title>
<polygon fill="#bfbfbf" stroke="black" points="0,-35.5077 0,-65.5077 146,-65.5077 146,-35.5077 0,-35.5077"/>
<text text-anchor="start" x="8" y="-53.5077" font-family="Helvetica,sans-Serif" font-size="10.00">application.WaTorCell.move</text>
<text text-anchor="middle" x="73" y="-42.5077" font-family="Helvetica,sans-Serif" font-size="10.00">Shark</text>
</g>
<!-- Node2 -->
<g id="node2" class="node"><title>Node2</title>
<g id="a_node2"><a xlink:href="../../d7/dff/classapplication_1_1_cell.html#adee02d15440cb198751d122a9d7a5f10" target="_top" xlink:title="application.Cell.findWanted\lNeighbors">
<polygon fill="white" stroke="black" points="552,-79.5077 552,-109.508 696,-109.508 696,-79.5077 552,-79.5077"/>
<text text-anchor="start" x="560" y="-97.5077" font-family="Helvetica,sans-Serif" font-size="10.00">application.Cell.findWanted</text>
<text text-anchor="middle" x="624" y="-86.5077" font-family="Helvetica,sans-Serif" font-size="10.00">Neighbors</text>
</a>
</g>
</g>
<!-- Node1&#45;&gt;Node2 -->
<g id="edge1" class="edge"><title>Node1&#45;&gt;Node2</title>
<path fill="none" stroke="midnightblue" d="M136.309,-65.57C151.217,-68.8361 167.125,-72.0451 182,-74.5077 262.283,-87.7984 282.746,-90.0566 364,-94.5077 423.331,-97.7579 490.422,-97.6526 541.452,-96.79"/>
<polygon fill="midnightblue" stroke="midnightblue" points="541.828,-100.284 551.762,-96.6018 541.7,-93.285 541.828,-100.284"/>
</g>
<!-- Node3 -->
<g id="node3" class="node"><title>Node3</title>
<g id="a_node3"><a xlink:href="../../d8/db1/classapplication_1_1_wa_tor_cell.html#adf784ae30166eff30f6eaf804eb46c21" target="_top" xlink:title="application.WaTorCell.random\lFinder">
<polygon fill="white" stroke="black" points="546,-11.5077 546,-41.5077 702,-41.5077 702,-11.5077 546,-11.5077"/>
<text text-anchor="start" x="554" y="-29.5077" font-family="Helvetica,sans-Serif" font-size="10.00">application.WaTorCell.random</text>
<text text-anchor="middle" x="624" y="-18.5077" font-family="Helvetica,sans-Serif" font-size="10.00">Finder</text>
</a>
</g>
</g>
<!-- Node1&#45;&gt;Node3 -->
<g id="edge2" class="edge"><title>Node1&#45;&gt;Node3</title>
<path fill="none" stroke="midnightblue" d="M132.872,-35.4935C148.742,-31.8265 165.96,-28.1909 182,-25.5077 326.021,-1.41567 364.538,6.26579 510,-6.50772 519.353,-7.32908 529.093,-8.52586 538.759,-9.93198"/>
<polygon fill="midnightblue" stroke="midnightblue" points="538.372,-13.4134 548.786,-11.4661 539.431,-6.49395 538.372,-13.4134"/>
</g>
<!-- Node4 -->
<g id="node4" class="node"><title>Node4</title>
<g id="a_node4"><a xlink:href="../../d8/db1/classapplication_1_1_wa_tor_cell.html#a307b646f55543b979ac5b5d99b204d44" target="_top" xlink:title="application.WaTorCell.shark\lCheck">
<polygon fill="white" stroke="black" points="182.5,-35.5077 182.5,-65.5077 327.5,-65.5077 327.5,-35.5077 182.5,-35.5077"/>
<text text-anchor="start" x="190.5" y="-53.5077" font-family="Helvetica,sans-Serif" font-size="10.00">application.WaTorCell.shark</text>
<text text-anchor="middle" x="255" y="-42.5077" font-family="Helvetica,sans-Serif" font-size="10.00">Check</text>
</a>
</g>
</g>
<!-- Node1&#45;&gt;Node4 -->
<g id="edge3" class="edge"><title>Node1&#45;&gt;Node4</title>
<path fill="none" stroke="midnightblue" d="M146.176,-50.5077C154.752,-50.5077 163.554,-50.5077 172.251,-50.5077"/>
<polygon fill="midnightblue" stroke="midnightblue" points="172.395,-54.0078 182.395,-50.5077 172.395,-47.0078 172.395,-54.0078"/>
</g>
<!-- Node5 -->
<g id="node5" class="node"><title>Node5</title>
<g id="a_node5"><a xlink:href="../../d8/db1/classapplication_1_1_wa_tor_cell.html#a4b8b03a02d13912f0d2c263f192ea135" target="_top" xlink:title="application.WaTorCell.kill\lShark">
<polygon fill="white" stroke="black" points="371.5,-16.5077 371.5,-46.5077 502.5,-46.5077 502.5,-16.5077 371.5,-16.5077"/>
<text text-anchor="start" x="379.5" y="-34.5077" font-family="Helvetica,sans-Serif" font-size="10.00">application.WaTorCell.kill</text>
<text text-anchor="middle" x="437" y="-23.5077" font-family="Helvetica,sans-Serif" font-size="10.00">Shark</text>
</a>
</g>
</g>
<!-- Node4&#45;&gt;Node5 -->
<g id="edge4" class="edge"><title>Node4&#45;&gt;Node5</title>
<path fill="none" stroke="midnightblue" d="M327.658,-42.9438C338.692,-41.7791 350.11,-40.5739 361.21,-39.4022"/>
<polygon fill="midnightblue" stroke="midnightblue" points="361.718,-42.8682 371.295,-38.3377 360.983,-35.9068 361.718,-42.8682"/>
</g>
<!-- Node6 -->
<g id="node6" class="node"><title>Node6</title>
<g id="a_node6"><a xlink:href="../../d8/db1/classapplication_1_1_wa_tor_cell.html#a9c94858de4179a7d43d023568a0a7a42" target="_top" xlink:title="application.WaTorCell.breed">
<polygon fill="white" stroke="black" points="364,-66.0077 364,-85.0077 510,-85.0077 510,-66.0077 364,-66.0077"/>
<text text-anchor="middle" x="437" y="-73.0077" font-family="Helvetica,sans-Serif" font-size="10.00">application.WaTorCell.breed</text>
</a>
</g>
</g>
<!-- Node4&#45;&gt;Node6 -->
<g id="edge5" class="edge"><title>Node4&#45;&gt;Node6</title>
<path fill="none" stroke="midnightblue" d="M327.658,-60.4602C337.408,-61.8144 347.459,-63.2103 357.324,-64.5806"/>
<polygon fill="midnightblue" stroke="midnightblue" points="357.132,-68.0874 367.519,-65.9964 358.095,-61.1539 357.132,-68.0874"/>
</g>
<!-- Node6&#45;&gt;Node2 -->
<g id="edge6" class="edge"><title>Node6&#45;&gt;Node2</title>
<path fill="none" stroke="midnightblue" d="M510.056,-82.908C520.435,-83.974 531.176,-85.0771 541.719,-86.16"/>
<polygon fill="midnightblue" stroke="midnightblue" points="541.444,-89.65 551.749,-87.1901 542.159,-82.6866 541.444,-89.65"/>
</g>
<!-- Node6&#45;&gt;Node3 -->
<g id="edge7" class="edge"><title>Node6&#45;&gt;Node3</title>
<path fill="none" stroke="midnightblue" d="M474.109,-65.9437C497.531,-59.7401 528.752,-51.4706 556.555,-44.1067"/>
<polygon fill="midnightblue" stroke="midnightblue" points="557.457,-47.4885 566.228,-41.5447 555.665,-40.7218 557.457,-47.4885"/>
</g>
</g>
</svg>
