<?xml version="1.0" encoding="UTF-8" standalone="no"?>
<!DOCTYPE svg PUBLIC "-//W3C//DTD SVG 1.1//EN"
 "http://www.w3.org/Graphics/SVG/1.1/DTD/svg11.dtd">
<!-- Generated by graphviz version 2.36.0 (20140111.2315)
 -->
<!-- Title: application.WaTorCell.fishUpdate Pages: 1 -->
<!--zoomable 97 -->
<svg id="main" version="1.1" xmlns="http://www.w3.org/2000/svg" xmlns:xlink="http://www.w3.org/1999/xlink" xml:space="preserve" onload="init(evt)">
<style type="text/css"><![CDATA[
.edge:hover path { stroke: red; }
.edge:hover polygon { stroke: red; fill: red; }
]]></style>
<script type="text/javascript"><![CDATA[
var edges = document.getElementsByTagName('g');
if (edges && edges.length) {
  for (var i=0;i<edges.length;i++) {
    if (edges[i].id.substr(0,4)=='edge') {
      edges[i].setAttribute('class','edge');
    }
  }
}
]]></script>
        <defs>
                <circle id="rim" cx="0" cy="0" r="7"/>
                <circle id="rim2" cx="0" cy="0" r="3.5"/>
                <g id="zoomPlus">
                        <use xlink:href="#rim" fill="#404040">
                                <set attributeName="fill" to="#808080" begin="zoomplus.mouseover" end="zoomplus.mouseout"/>
                        </use>
                        <path d="M-4,0h8M0,-4v8" fill="none" stroke="white" stroke-width="1.5" pointer-events="none"/>
                </g>
                <g id="zoomMin">
                        <use xlink:href="#rim" fill="#404040">
                                <set attributeName="fill" to="#808080" begin="zoomminus.mouseover" end="zoomminus.mouseout"/>
                        </use>
                        <path d="M-4,0h8" fill="none" stroke="white" stroke-width="1.5" pointer-events="none"/>
                </g>
                <g id="dirArrow">
                        <path fill="none" stroke="white" stroke-width="1.5" d="M0,-3.0v7 M-2.5,-0.5L0,-3.0L2.5,-0.5"/>
                </g>
               <g id="resetDef">
                       <use xlink:href="#rim2" fill="#404040">
                               <set attributeName="fill" to="#808080" begin="reset.mouseover" end="reset.mouseout"/>
                       </use>
               </g>
        </defs>

<script type="text/javascript">
var viewWidth = 890;
var viewHeight = 97;
var sectionId = 'dynsection-8';
</script>
<script xlink:href="../../svgpan.js"/>
<svg id="graph" class="graph">
<g id="viewport">
<title>application.WaTorCell.fishUpdate</title>
<polygon fill="white" stroke="none" points="-4,4 -4,-93 886,-93 886,4 -4,4"/>
<!-- Node1 -->
<g id="node1" class="node"><title>Node1</title>
<polygon fill="#bfbfbf" stroke="black" points="0.5,-25 0.5,-55 135.5,-55 135.5,-25 0.5,-25"/>
<text text-anchor="start" x="8.5" y="-43" font-family="Helvetica,sans-Serif" font-size="10.00">application.WaTorCell.fish</text>
<text text-anchor="middle" x="68" y="-32" font-family="Helvetica,sans-Serif" font-size="10.00">Update</text>
</g>
<!-- Node2 -->
<g id="node2" class="node"><title>Node2</title>
<g id="a_node2"><a xlink:href="../../d8/db1/classapplication_1_1_wa_tor_cell.html#afd6d9d7c8196264c6db8b07ac589b8d7" target="_top" xlink:title="application.WaTorCell.moveFish">
<polygon fill="white" stroke="black" points="172,-30.5 172,-49.5 336,-49.5 336,-30.5 172,-30.5"/>
<text text-anchor="middle" x="254" y="-37.5" font-family="Helvetica,sans-Serif" font-size="10.00">application.WaTorCell.moveFish</text>
</a>
</g>
</g>
<!-- Node1&#45;&gt;Node2 -->
<g id="edge1" class="edge"><title>Node1&#45;&gt;Node2</title>
<path fill="none" stroke="midnightblue" d="M135.688,-40C144.115,-40 152.85,-40 161.577,-40"/>
<polygon fill="midnightblue" stroke="midnightblue" points="161.8,-43.5001 171.8,-40 161.8,-36.5001 161.8,-43.5001"/>
</g>
<!-- Node3 -->
<g id="node3" class="node"><title>Node3</title>
<g id="a_node3"><a xlink:href="../../d7/dff/classapplication_1_1_cell.html#adee02d15440cb198751d122a9d7a5f10" target="_top" xlink:title="application.Cell.findWanted\lNeighbors">
<polygon fill="white" stroke="black" points="732,-59 732,-89 876,-89 876,-59 732,-59"/>
<text text-anchor="start" x="740" y="-77" font-family="Helvetica,sans-Serif" font-size="10.00">application.Cell.findWanted</text>
<text text-anchor="middle" x="804" y="-66" font-family="Helvetica,sans-Serif" font-size="10.00">Neighbors</text>
</a>
</g>
</g>
<!-- Node2&#45;&gt;Node3 -->
<g id="edge2" class="edge"><title>Node2&#45;&gt;Node3</title>
<path fill="none" stroke="midnightblue" d="M292.663,-49.5145C315.462,-54.8253 345.215,-60.9669 372,-64 493.258,-77.7313 634.887,-78.0282 721.752,-76.4334"/>
<polygon fill="midnightblue" stroke="midnightblue" points="721.879,-79.9317 731.808,-76.2358 721.741,-72.933 721.879,-79.9317"/>
</g>
<!-- Node4 -->
<g id="node4" class="node"><title>Node4</title>
<g id="a_node4"><a xlink:href="../../d8/db1/classapplication_1_1_wa_tor_cell.html#adf784ae30166eff30f6eaf804eb46c21" target="_top" xlink:title="application.WaTorCell.random\lFinder">
<polygon fill="white" stroke="black" points="726,-0 726,-30 882,-30 882,-0 726,-0"/>
<text text-anchor="start" x="734" y="-18" font-family="Helvetica,sans-Serif" font-size="10.00">application.WaTorCell.random</text>
<text text-anchor="middle" x="804" y="-7" font-family="Helvetica,sans-Serif" font-size="10.00">Finder</text>
</a>
</g>
</g>
<!-- Node2&#45;&gt;Node4 -->
<g id="edge3" class="edge"><title>Node2&#45;&gt;Node4</title>
<path fill="none" stroke="midnightblue" d="M290.017,-30.4988C313.103,-24.7372 344.114,-17.946 372,-15 490.462,-2.48506 628.263,-5.53526 715.54,-9.63154"/>
<polygon fill="midnightblue" stroke="midnightblue" points="715.507,-13.134 725.665,-10.1221 715.846,-6.14217 715.507,-13.134"/>
</g>
<!-- Node5 -->
<g id="node5" class="node"><title>Node5</title>
<g id="a_node5"><a xlink:href="../../d8/db1/classapplication_1_1_wa_tor_cell.html#a1a6ef599bf7ba202e69ba2cea6562346" target="_top" xlink:title="application.WaTorCell.fish\lCheck">
<polygon fill="white" stroke="black" points="372.5,-25 372.5,-55 507.5,-55 507.5,-25 372.5,-25"/>
<text text-anchor="start" x="380.5" y="-43" font-family="Helvetica,sans-Serif" font-size="10.00">application.WaTorCell.fish</text>
<text text-anchor="middle" x="440" y="-32" font-family="Helvetica,sans-Serif" font-size="10.00">Check</text>
</a>
</g>
</g>
<!-- Node2&#45;&gt;Node5 -->
<g id="edge4" class="edge"><title>Node2&#45;&gt;Node5</title>
<path fill="none" stroke="midnightblue" d="M336.241,-40C344.796,-40 353.477,-40 361.983,-40"/>
<polygon fill="midnightblue" stroke="midnightblue" points="362.251,-43.5001 372.251,-40 362.251,-36.5001 362.251,-43.5001"/>
</g>
<!-- Node6 -->
<g id="node6" class="node"><title>Node6</title>
<g id="a_node6"><a xlink:href="../../d8/db1/classapplication_1_1_wa_tor_cell.html#a9c94858de4179a7d43d023568a0a7a42" target="_top" xlink:title="application.WaTorCell.breed">
<polygon fill="white" stroke="black" points="544,-30.5 544,-49.5 690,-49.5 690,-30.5 544,-30.5"/>
<text text-anchor="middle" x="617" y="-37.5" font-family="Helvetica,sans-Serif" font-size="10.00">application.WaTorCell.breed</text>
</a>
</g>
</g>
<!-- Node5&#45;&gt;Node6 -->
<g id="edge5" class="edge"><title>Node5&#45;&gt;Node6</title>
<path fill="none" stroke="midnightblue" d="M507.659,-40C516.199,-40 525.019,-40 533.769,-40"/>
<polygon fill="midnightblue" stroke="midnightblue" points="533.987,-43.5001 543.987,-40 533.987,-36.5001 533.987,-43.5001"/>
</g>
<!-- Node6&#45;&gt;Node3 -->
<g id="edge6" class="edge"><title>Node6&#45;&gt;Node3</title>
<path fill="none" stroke="midnightblue" d="M670.025,-49.5614C686.017,-52.5004 704.019,-55.8088 721.49,-59.0198"/>
<polygon fill="midnightblue" stroke="midnightblue" points="721.228,-62.5303 731.696,-60.8956 722.494,-55.6456 721.228,-62.5303"/>
</g>
<!-- Node6&#45;&gt;Node4 -->
<g id="edge7" class="edge"><title>Node6&#45;&gt;Node4</title>
<path fill="none" stroke="midnightblue" d="M688.468,-30.4773C697.467,-29.2612 706.761,-28.0053 715.982,-26.7592"/>
<polygon fill="midnightblue" stroke="midnightblue" points="716.5,-30.221 725.942,-25.4133 715.563,-23.2841 716.5,-30.221"/>
</g>
</g>
</svg>
        <g id="navigator" transform="translate(0 0)" fill="#404254">
                <rect fill="#f2f5e9" fill-opacity="0.5" stroke="#606060" stroke-width=".5" x="0" y="0" width="60" height="60"/>
                <use id="zoomplus" xlink:href="#zoomPlus" x="17" y="9" onmousedown="handleZoom(evt,'in')"/>
                <use id="zoomminus" xlink:href="#zoomMin" x="42" y="9" onmousedown="handleZoom(evt,'out')"/>
                <use id="reset" xlink:href="#resetDef" x="30" y="36" onmousedown="handleReset()"/>
                <g id="arrowUp" xlink:href="#dirArrow" transform="translate(30 24)" onmousedown="handlePan(0,-1)">
                  <use xlink:href="#rim" fill="#404040">
                        <set attributeName="fill" to="#808080" begin="arrowUp.mouseover" end="arrowUp.mouseout"/>
                  </use>
                  <path fill="none" stroke="white" stroke-width="1.5" d="M0,-3.0v7 M-2.5,-0.5L0,-3.0L2.5,-0.5"/>
                </g>
                <g id="arrowRight" xlink:href="#dirArrow" transform="rotate(90) translate(36 -43)" onmousedown="handlePan(1,0)">
                  <use xlink:href="#rim" fill="#404040">
                        <set attributeName="fill" to="#808080" begin="arrowRight.mouseover" end="arrowRight.mouseout"/>
                  </use>
                  <path fill="none" stroke="white" stroke-width="1.5" d="M0,-3.0v7 M-2.5,-0.5L0,-3.0L2.5,-0.5"/>
                </g>
                <g id="arrowDown" xlink:href="#dirArrow" transform="rotate(180) translate(-30 -48)" onmousedown="handlePan(0,1)">
                  <use xlink:href="#rim" fill="#404040">
                        <set attributeName="fill" to="#808080" begin="arrowDown.mouseover" end="arrowDown.mouseout"/>
                  </use>
                  <path fill="none" stroke="white" stroke-width="1.5" d="M0,-3.0v7 M-2.5,-0.5L0,-3.0L2.5,-0.5"/>
                </g>
                <g id="arrowLeft" xlink:href="#dirArrow" transform="rotate(270) translate(-36 17)" onmousedown="handlePan(-1,0)">
                  <use xlink:href="#rim" fill="#404040">
                        <set attributeName="fill" to="#808080" begin="arrowLeft.mouseover" end="arrowLeft.mouseout"/>
                  </use>
                  <path fill="none" stroke="white" stroke-width="1.5" d="M0,-3.0v7 M-2.5,-0.5L0,-3.0L2.5,-0.5"/>
                </g>
        </g>
        <svg viewBox="0 0 15 15" width="100%" height="30px" preserveAspectRatio="xMaxYMin meet">
         <g id="arrow_out" transform="scale(0.3 0.3)">
          <a xlink:href="classapplication_1_1_wa_tor_cell_ae1d4ff7071ac748d11f706f5c519b41d_cgraph_org.svg" target="_base">
           <rect id="button" ry="5" rx="5" y="6" x="6" height="38" width="38"
                fill="#f2f5e9" fill-opacity="0.5" stroke="#606060" stroke-width="1.0"/>
           <path id="arrow"
             d="M 11.500037,31.436501 C 11.940474,20.09759 22.043105,11.32322 32.158766,21.979434 L 37.068811,17.246167 C 37.068811,17.246167 37.088388,32 37.088388,32 L 22.160133,31.978069 C 22.160133,31.978069 26.997745,27.140456 26.997745,27.140456 C 18.528582,18.264221 13.291696,25.230495 11.500037,31.436501 z"
             style="fill:#404040;"/>
          </a>
         </g>
        </svg>
</svg>
