<?xml version="1.0" encoding="UTF-8" standalone="no"?>
<!DOCTYPE svg PUBLIC "-//W3C//DTD SVG 1.1//EN"
 "http://www.w3.org/Graphics/SVG/1.1/DTD/svg11.dtd">
<!-- Generated by graphviz version 2.36.0 (20140111.2315)
 -->
<!-- Title: application.WaTorCell.sharkUpdate Pages: 1 -->
<svg width="898pt" height="164pt"
 viewBox="0.00 0.00 898.00 164.45" xmlns="http://www.w3.org/2000/svg" xmlns:xlink="http://www.w3.org/1999/xlink">
<g id="graph0" class="graph" transform="scale(1 1) rotate(0) translate(4 160.455)">
<title>application.WaTorCell.sharkUpdate</title>
<polygon fill="white" stroke="none" points="-4,4 -4,-160.455 894,-160.455 894,4 -4,4"/>
<!-- Node1 -->
<g id="node1" class="node"><title>Node1</title>
<polygon fill="#bfbfbf" stroke="black" points="0.5,-21.024 0.5,-51.024 145.5,-51.024 145.5,-21.024 0.5,-21.024"/>
<text text-anchor="start" x="8.5" y="-39.024" font-family="Helvetica,sans-Serif" font-size="10.00">application.WaTorCell.shark</text>
<text text-anchor="middle" x="73" y="-28.024" font-family="Helvetica,sans-Serif" font-size="10.00">Update</text>
</g>
<!-- Node2 -->
<g id="node2" class="node"><title>Node2</title>
<g id="a_node2"><a xlink:href="../../d8/db1/classapplication_1_1_wa_tor_cell.html#acd6f36e1b67026af41aab1234ee5e58a" target="_top" xlink:title="application.WaTorCell.eatFish">
<polygon fill="white" stroke="black" points="182,-70.524 182,-89.524 334,-89.524 334,-70.524 182,-70.524"/>
<text text-anchor="middle" x="258" y="-77.524" font-family="Helvetica,sans-Serif" font-size="10.00">application.WaTorCell.eatFish</text>
</a>
</g>
</g>
<!-- Node1&#45;&gt;Node2 -->
<g id="edge1" class="edge"><title>Node1&#45;&gt;Node2</title>
<path fill="none" stroke="midnightblue" d="M136.466,-51.0432C159.722,-56.6348 185.769,-62.8975 207.684,-68.1666"/>
<polygon fill="midnightblue" stroke="midnightblue" points="206.896,-71.5768 217.437,-70.5116 208.532,-64.7707 206.896,-71.5768"/>
</g>
<!-- Node5 -->
<g id="node5" class="node"><title>Node5</title>
<g id="a_node5"><a xlink:href="../../d7/dff/classapplication_1_1_cell.html#adee02d15440cb198751d122a9d7a5f10" target="_top" xlink:title="application.Cell.findWanted\lNeighbors">
<polygon fill="white" stroke="black" points="740,-15.024 740,-45.024 884,-45.024 884,-15.024 740,-15.024"/>
<text text-anchor="start" x="748" y="-33.024" font-family="Helvetica,sans-Serif" font-size="10.00">application.Cell.findWanted</text>
<text text-anchor="middle" x="812" y="-22.024" font-family="Helvetica,sans-Serif" font-size="10.00">Neighbors</text>
</a>
</g>
</g>
<!-- Node1&#45;&gt;Node5 -->
<g id="edge7" class="edge"><title>Node1&#45;&gt;Node5</title>
<path fill="none" stroke="midnightblue" d="M127.968,-20.9954C145.101,-16.9101 164.217,-13.0553 182,-11.024 377.649,11.3251 609.61,-7.21633 729.759,-20.1466"/>
<polygon fill="midnightblue" stroke="midnightblue" points="729.655,-23.6559 739.976,-21.2617 730.414,-16.6972 729.655,-23.6559"/>
</g>
<!-- Node8 -->
<g id="node8" class="node"><title>Node8</title>
<g id="a_node8"><a xlink:href="../../d8/db1/classapplication_1_1_wa_tor_cell.html#ac24a6ce0cc2bfac6ffec59cc1deaf13f" target="_top" xlink:title="application.WaTorCell.move\lShark">
<polygon fill="white" stroke="black" points="185,-21.024 185,-51.024 331,-51.024 331,-21.024 185,-21.024"/>
<text text-anchor="start" x="193" y="-39.024" font-family="Helvetica,sans-Serif" font-size="10.00">application.WaTorCell.move</text>
<text text-anchor="middle" x="258" y="-28.024" font-family="Helvetica,sans-Serif" font-size="10.00">Shark</text>
</a>
</g>
</g>
<!-- Node1&#45;&gt;Node8 -->
<g id="edge8" class="edge"><title>Node1&#45;&gt;Node8</title>
<path fill="none" stroke="midnightblue" d="M145.539,-36.024C155.137,-36.024 165.042,-36.024 174.806,-36.024"/>
<polygon fill="midnightblue" stroke="midnightblue" points="174.909,-39.5241 184.909,-36.024 174.909,-32.5241 174.909,-39.5241"/>
</g>
<!-- Node3 -->
<g id="node3" class="node"><title>Node3</title>
<g id="a_node3"><a xlink:href="../../d8/db1/classapplication_1_1_wa_tor_cell.html#a307b646f55543b979ac5b5d99b204d44" target="_top" xlink:title="application.WaTorCell.shark\lCheck">
<polygon fill="white" stroke="black" points="370.5,-62.024 370.5,-92.024 515.5,-92.024 515.5,-62.024 370.5,-62.024"/>
<text text-anchor="start" x="378.5" y="-80.024" font-family="Helvetica,sans-Serif" font-size="10.00">application.WaTorCell.shark</text>
<text text-anchor="middle" x="443" y="-69.024" font-family="Helvetica,sans-Serif" font-size="10.00">Check</text>
</a>
</g>
</g>
<!-- Node2&#45;&gt;Node3 -->
<g id="edge2" class="edge"><title>Node2&#45;&gt;Node3</title>
<path fill="none" stroke="midnightblue" d="M334.225,-78.7908C342.799,-78.6502 351.569,-78.5065 360.223,-78.3646"/>
<polygon fill="midnightblue" stroke="midnightblue" points="360.367,-81.8628 370.308,-78.1993 360.252,-74.8637 360.367,-81.8628"/>
</g>
<!-- Node4 -->
<g id="node4" class="node"><title>Node4</title>
<g id="a_node4"><a xlink:href="../../d8/db1/classapplication_1_1_wa_tor_cell.html#a9c94858de4179a7d43d023568a0a7a42" target="_top" xlink:title="application.WaTorCell.breed">
<polygon fill="white" stroke="black" points="552,-108.524 552,-127.524 698,-127.524 698,-108.524 552,-108.524"/>
<text text-anchor="middle" x="625" y="-115.524" font-family="Helvetica,sans-Serif" font-size="10.00">application.WaTorCell.breed</text>
</a>
</g>
</g>
<!-- Node3&#45;&gt;Node4 -->
<g id="edge3" class="edge"><title>Node3&#45;&gt;Node4</title>
<path fill="none" stroke="midnightblue" d="M510.003,-92.0581C530.509,-96.7289 552.809,-101.808 572.202,-106.226"/>
<polygon fill="midnightblue" stroke="midnightblue" points="571.526,-109.661 582.054,-108.47 573.081,-102.836 571.526,-109.661"/>
</g>
<!-- Node7 -->
<g id="node7" class="node"><title>Node7</title>
<g id="a_node7"><a xlink:href="../../d8/db1/classapplication_1_1_wa_tor_cell.html#a4b8b03a02d13912f0d2c263f192ea135" target="_top" xlink:title="application.WaTorCell.kill\lShark">
<polygon fill="white" stroke="black" points="559.5,-59.024 559.5,-89.024 690.5,-89.024 690.5,-59.024 559.5,-59.024"/>
<text text-anchor="start" x="567.5" y="-77.024" font-family="Helvetica,sans-Serif" font-size="10.00">application.WaTorCell.kill</text>
<text text-anchor="middle" x="625" y="-66.024" font-family="Helvetica,sans-Serif" font-size="10.00">Shark</text>
</a>
</g>
</g>
<!-- Node3&#45;&gt;Node7 -->
<g id="edge6" class="edge"><title>Node3&#45;&gt;Node7</title>
<path fill="none" stroke="midnightblue" d="M515.658,-75.8297C526.692,-75.6458 538.11,-75.4555 549.21,-75.2705"/>
<polygon fill="midnightblue" stroke="midnightblue" points="549.355,-78.7687 559.295,-75.1024 549.238,-71.7696 549.355,-78.7687"/>
</g>
<!-- Node4&#45;&gt;Node5 -->
<g id="edge4" class="edge"><title>Node4&#45;&gt;Node5</title>
<path fill="none" stroke="midnightblue" d="M667.782,-108.479C677.86,-105.617 688.466,-102.126 698,-98.024 727.893,-85.1615 759.425,-65.6204 781.562,-50.7816"/>
<polygon fill="midnightblue" stroke="midnightblue" points="783.55,-53.6623 789.855,-45.1476 779.616,-47.8722 783.55,-53.6623"/>
</g>
<!-- Node6 -->
<g id="node6" class="node"><title>Node6</title>
<g id="a_node6"><a xlink:href="../../d8/db1/classapplication_1_1_wa_tor_cell.html#adf784ae30166eff30f6eaf804eb46c21" target="_top" xlink:title="application.WaTorCell.random\lFinder">
<polygon fill="white" stroke="black" points="734,-122.024 734,-152.024 890,-152.024 890,-122.024 734,-122.024"/>
<text text-anchor="start" x="742" y="-140.024" font-family="Helvetica,sans-Serif" font-size="10.00">application.WaTorCell.random</text>
<text text-anchor="middle" x="812" y="-129.024" font-family="Helvetica,sans-Serif" font-size="10.00">Finder</text>
</a>
</g>
</g>
<!-- Node4&#45;&gt;Node6 -->
<g id="edge5" class="edge"><title>Node4&#45;&gt;Node6</title>
<path fill="none" stroke="midnightblue" d="M698.056,-125.424C706.514,-126.293 715.213,-127.186 723.85,-128.073"/>
<polygon fill="midnightblue" stroke="midnightblue" points="723.636,-131.57 733.942,-129.11 724.351,-124.606 723.636,-131.57"/>
</g>
<!-- Node8&#45;&gt;Node3 -->
<g id="edge11" class="edge"><title>Node8&#45;&gt;Node3</title>
<path fill="none" stroke="midnightblue" d="M326.103,-51.0581C338.784,-53.8991 352.139,-56.8913 365.094,-59.7937"/>
<polygon fill="midnightblue" stroke="midnightblue" points="364.381,-63.2207 374.905,-61.9917 365.912,-56.3901 364.381,-63.2207"/>
</g>
<!-- Node8&#45;&gt;Node5 -->
<g id="edge9" class="edge"><title>Node8&#45;&gt;Node5</title>
<path fill="none" stroke="midnightblue" d="M331.164,-35.2396C433.932,-34.1226 621.887,-32.0796 729.532,-30.9095"/>
<polygon fill="midnightblue" stroke="midnightblue" points="729.731,-34.4076 739.693,-30.7991 729.655,-27.4081 729.731,-34.4076"/>
</g>
<!-- Node8&#45;&gt;Node6 -->
<g id="edge10" class="edge"><title>Node8&#45;&gt;Node6</title>
<path fill="none" stroke="midnightblue" d="M314.991,-51.0646C321.645,-53.8893 328.144,-57.1887 334,-61.024 354.008,-74.1287 349.204,-89.2098 370,-101.024 479.715,-163.353 630.202,-160.516 723.965,-150.48"/>
<polygon fill="midnightblue" stroke="midnightblue" points="724.436,-153.949 733.984,-149.357 723.656,-146.992 724.436,-153.949"/>
</g>
</g>
</svg>
