<?xml version="1.0" encoding="UTF-8" standalone="no"?>
<!DOCTYPE svg PUBLIC "-//W3C//DTD SVG 1.1//EN"
 "http://www.w3.org/Graphics/SVG/1.1/DTD/svg11.dtd">
<!-- Generated by graphviz version 2.36.0 (20140111.2315)
 -->
<!-- Title: application.WaTorCell.fishCheck Pages: 1 -->
<svg width="910pt" height="38pt"
 viewBox="0.00 0.00 910.00 38.00" xmlns="http://www.w3.org/2000/svg" xmlns:xlink="http://www.w3.org/1999/xlink">
<g id="graph0" class="graph" transform="scale(1 1) rotate(0) translate(4 34)">
<title>application.WaTorCell.fishCheck</title>
<polygon fill="white" stroke="none" points="-4,4 -4,-34 906,-34 906,4 -4,4"/>
<!-- Node1 -->
<g id="node1" class="node"><title>Node1</title>
<polygon fill="#bfbfbf" stroke="black" points="0.5,-0 0.5,-30 135.5,-30 135.5,-0 0.5,-0"/>
<text text-anchor="start" x="8.5" y="-18" font-family="Helvetica,sans-Serif" font-size="10.00">application.WaTorCell.fish</text>
<text text-anchor="middle" x="68" y="-7" font-family="Helvetica,sans-Serif" font-size="10.00">Check</text>
</g>
<!-- Node2 -->
<g id="node2" class="node"><title>Node2</title>
<g id="a_node2"><a xlink:href="../../d8/db1/classapplication_1_1_wa_tor_cell.html#afd6d9d7c8196264c6db8b07ac589b8d7" target="_top" xlink:title="application.WaTorCell.moveFish">
<polygon fill="white" stroke="black" points="172,-5.5 172,-24.5 336,-24.5 336,-5.5 172,-5.5"/>
<text text-anchor="middle" x="254" y="-12.5" font-family="Helvetica,sans-Serif" font-size="10.00">application.WaTorCell.moveFish</text>
</a>
</g>
</g>
<!-- Node1&#45;&gt;Node2 -->
<g id="edge1" class="edge"><title>Node1&#45;&gt;Node2</title>
<path fill="none" stroke="midnightblue" d="M145.703,-15C154.323,-15 163.126,-15 171.8,-15"/>
<polygon fill="midnightblue" stroke="midnightblue" points="145.688,-11.5001 135.688,-15 145.688,-18.5001 145.688,-11.5001"/>
</g>
<!-- Node3 -->
<g id="node3" class="node"><title>Node3</title>
<g id="a_node3"><a xlink:href="../../d8/db1/classapplication_1_1_wa_tor_cell.html#ae1d4ff7071ac748d11f706f5c519b41d" target="_top" xlink:title="application.WaTorCell.fish\lUpdate">
<polygon fill="white" stroke="black" points="372.5,-0 372.5,-30 507.5,-30 507.5,-0 372.5,-0"/>
<text text-anchor="start" x="380.5" y="-18" font-family="Helvetica,sans-Serif" font-size="10.00">application.WaTorCell.fish</text>
<text text-anchor="middle" x="440" y="-7" font-family="Helvetica,sans-Serif" font-size="10.00">Update</text>
</a>
</g>
</g>
<!-- Node2&#45;&gt;Node3 -->
<g id="edge2" class="edge"><title>Node2&#45;&gt;Node3</title>
<path fill="none" stroke="midnightblue" d="M346.435,-15C355.137,-15 363.846,-15 372.251,-15"/>
<polygon fill="midnightblue" stroke="midnightblue" points="346.241,-11.5001 336.241,-15 346.241,-18.5001 346.241,-11.5001"/>
</g>
<!-- Node4 -->
<g id="node4" class="node"><title>Node4</title>
<g id="a_node4"><a xlink:href="../../d8/db1/classapplication_1_1_wa_tor_cell.html#ad9630281a27495d016b877f1531709a8" target="_top" xlink:title="application.WaTorCell.update\lThisCell">
<polygon fill="white" stroke="black" points="544,-0 544,-30 696,-30 696,-0 544,-0"/>
<text text-anchor="start" x="552" y="-18" font-family="Helvetica,sans-Serif" font-size="10.00">application.WaTorCell.update</text>
<text text-anchor="middle" x="620" y="-7" font-family="Helvetica,sans-Serif" font-size="10.00">ThisCell</text>
</a>
</g>
</g>
<!-- Node3&#45;&gt;Node4 -->
<g id="edge3" class="edge"><title>Node3&#45;&gt;Node4</title>
<path fill="none" stroke="midnightblue" d="M517.646,-15C526.341,-15 535.196,-15 543.871,-15"/>
<polygon fill="midnightblue" stroke="midnightblue" points="517.534,-11.5001 507.534,-15 517.534,-18.5001 517.534,-11.5001"/>
</g>
<!-- Node5 -->
<g id="node5" class="node"><title>Node5</title>
<g id="a_node5"><a xlink:href="../../d8/db1/classapplication_1_1_wa_tor_cell.html#af362ec2495254143a63af649dd9754db" target="_top" xlink:title="application.WaTorCell.updateCell">
<polygon fill="white" stroke="black" points="732,-5.5 732,-24.5 902,-24.5 902,-5.5 732,-5.5"/>
<text text-anchor="middle" x="817" y="-12.5" font-family="Helvetica,sans-Serif" font-size="10.00">application.WaTorCell.updateCell</text>
</a>
</g>
</g>
<!-- Node4&#45;&gt;Node5 -->
<g id="edge4" class="edge"><title>Node4&#45;&gt;Node5</title>
<path fill="none" stroke="midnightblue" d="M706.351,-15C714.809,-15 723.39,-15 731.836,-15"/>
<polygon fill="midnightblue" stroke="midnightblue" points="706.113,-11.5001 696.113,-15 706.113,-18.5001 706.113,-11.5001"/>
</g>
</g>
</svg>
