<?xml version="1.0" encoding="UTF-8" standalone="no"?>
<!DOCTYPE svg PUBLIC "-//W3C//DTD SVG 1.1//EN"
 "http://www.w3.org/Graphics/SVG/1.1/DTD/svg11.dtd">
<!-- Generated by graphviz version 2.36.0 (20140111.2315)
 -->
<!-- Title: application.WaTorCell.updateThisCell Pages: 1 -->
<!--zoomable 210 -->
<svg id="main" version="1.1" xmlns="http://www.w3.org/2000/svg" xmlns:xlink="http://www.w3.org/1999/xlink" xml:space="preserve" onload="init(evt)">
<style type="text/css"><![CDATA[
.edge:hover path { stroke: red; }
.edge:hover polygon { stroke: red; fill: red; }
]]></style>
<script type="text/javascript"><![CDATA[
var edges = document.getElementsByTagName('g');
if (edges && edges.length) {
  for (var i=0;i<edges.length;i++) {
    if (edges[i].id.substr(0,4)=='edge') {
      edges[i].setAttribute('class','edge');
    }
  }
}
]]></script>
        <defs>
                <circle id="rim" cx="0" cy="0" r="7"/>
                <circle id="rim2" cx="0" cy="0" r="3.5"/>
                <g id="zoomPlus">
                        <use xlink:href="#rim" fill="#404040">
                                <set attributeName="fill" to="#808080" begin="zoomplus.mouseover" end="zoomplus.mouseout"/>
                        </use>
                        <path d="M-4,0h8M0,-4v8" fill="none" stroke="white" stroke-width="1.5" pointer-events="none"/>
                </g>
                <g id="zoomMin">
                        <use xlink:href="#rim" fill="#404040">
                                <set attributeName="fill" to="#808080" begin="zoomminus.mouseover" end="zoomminus.mouseout"/>
                        </use>
                        <path d="M-4,0h8" fill="none" stroke="white" stroke-width="1.5" pointer-events="none"/>
                </g>
                <g id="dirArrow">
                        <path fill="none" stroke="white" stroke-width="1.5" d="M0,-3.0v7 M-2.5,-0.5L0,-3.0L2.5,-0.5"/>
                </g>
               <g id="resetDef">
                       <use xlink:href="#rim2" fill="#404040">
                               <set attributeName="fill" to="#808080" begin="reset.mouseover" end="reset.mouseout"/>
                       </use>
               </g>
        </defs>

<script type="text/javascript">
var viewWidth = 1098;
var viewHeight = 210;
var sectionId = 'dynsection-21';
</script>
<script xlink:href="../../svgpan.js"/>
<svg id="graph" class="graph">
<g id="viewport">
<title>application.WaTorCell.updateThisCell</title>
<polygon fill="white" stroke="none" points="-4,4 -4,-205.922 1094,-205.922 1094,4 -4,4"/>
<!-- Node1 -->
<g id="node1" class="node"><title>Node1</title>
<polygon fill="#bfbfbf" stroke="black" points="0,-73.3049 0,-103.305 152,-103.305 152,-73.3049 0,-73.3049"/>
<text text-anchor="start" x="8" y="-91.3049" font-family="Helvetica,sans-Serif" font-size="10.00">application.WaTorCell.update</text>
<text text-anchor="middle" x="76" y="-80.3049" font-family="Helvetica,sans-Serif" font-size="10.00">ThisCell</text>
</g>
<!-- Node2 -->
<g id="node2" class="node"><title>Node2</title>
<g id="a_node2"><a xlink:href="../../d8/db1/classapplication_1_1_wa_tor_cell.html#ae1d4ff7071ac748d11f706f5c519b41d" target="_top" xlink:title="application.WaTorCell.fish\lUpdate">
<polygon fill="white" stroke="black" points="193.5,-113.305 193.5,-143.305 328.5,-143.305 328.5,-113.305 193.5,-113.305"/>
<text text-anchor="start" x="201.5" y="-131.305" font-family="Helvetica,sans-Serif" font-size="10.00">application.WaTorCell.fish</text>
<text text-anchor="middle" x="261" y="-120.305" font-family="Helvetica,sans-Serif" font-size="10.00">Update</text>
</a>
</g>
</g>
<!-- Node1&#45;&gt;Node2 -->
<g id="edge1" class="edge"><title>Node1&#45;&gt;Node2</title>
<path fill="none" stroke="midnightblue" d="M145.663,-103.313C157.987,-106.007 170.902,-108.83 183.432,-111.569"/>
<polygon fill="midnightblue" stroke="midnightblue" points="182.864,-115.027 193.381,-113.743 184.359,-108.189 182.864,-115.027"/>
</g>
<!-- Node8 -->
<g id="node8" class="node"><title>Node8</title>
<g id="a_node8"><a xlink:href="../../d8/db1/classapplication_1_1_wa_tor_cell.html#a7b55e124dba81e37f00da7a6c09783de" target="_top" xlink:title="application.WaTorCell.shark\lUpdate">
<polygon fill="white" stroke="black" points="188.5,-34.3049 188.5,-64.3049 333.5,-64.3049 333.5,-34.3049 188.5,-34.3049"/>
<text text-anchor="start" x="196.5" y="-52.3049" font-family="Helvetica,sans-Serif" font-size="10.00">application.WaTorCell.shark</text>
<text text-anchor="middle" x="261" y="-41.3049" font-family="Helvetica,sans-Serif" font-size="10.00">Update</text>
</a>
</g>
</g>
<!-- Node1&#45;&gt;Node8 -->
<g id="edge9" class="edge"><title>Node1&#45;&gt;Node8</title>
<path fill="none" stroke="midnightblue" d="M147.491,-73.2823C158.052,-71.0315 169.008,-68.6967 179.753,-66.4066"/>
<polygon fill="midnightblue" stroke="midnightblue" points="180.495,-69.8273 189.545,-64.3198 179.036,-62.9811 180.495,-69.8273"/>
</g>
<!-- Node3 -->
<g id="node3" class="node"><title>Node3</title>
<g id="a_node3"><a xlink:href="../../d8/db1/classapplication_1_1_wa_tor_cell.html#afd6d9d7c8196264c6db8b07ac589b8d7" target="_top" xlink:title="application.WaTorCell.moveFish">
<polygon fill="white" stroke="black" points="370,-134.805 370,-153.805 534,-153.805 534,-134.805 370,-134.805"/>
<text text-anchor="middle" x="452" y="-141.805" font-family="Helvetica,sans-Serif" font-size="10.00">application.WaTorCell.moveFish</text>
</a>
</g>
</g>
<!-- Node2&#45;&gt;Node3 -->
<g id="edge2" class="edge"><title>Node2&#45;&gt;Node3</title>
<path fill="none" stroke="midnightblue" d="M328.634,-133.946C338.702,-134.798 349.232,-135.69 359.71,-136.577"/>
<polygon fill="midnightblue" stroke="midnightblue" points="359.464,-140.068 369.723,-137.424 360.054,-133.093 359.464,-140.068"/>
</g>
<!-- Node4 -->
<g id="node4" class="node"><title>Node4</title>
<g id="a_node4"><a xlink:href="../../d7/dff/classapplication_1_1_cell.html#adee02d15440cb198751d122a9d7a5f10" target="_top" xlink:title="application.Cell.findWanted\lNeighbors">
<polygon fill="white" stroke="black" points="940,-38.3049 940,-68.3049 1084,-68.3049 1084,-38.3049 940,-38.3049"/>
<text text-anchor="start" x="948" y="-56.3049" font-family="Helvetica,sans-Serif" font-size="10.00">application.Cell.findWanted</text>
<text text-anchor="middle" x="1012" y="-45.3049" font-family="Helvetica,sans-Serif" font-size="10.00">Neighbors</text>
</a>
</g>
</g>
<!-- Node3&#45;&gt;Node4 -->
<g id="edge3" class="edge"><title>Node3&#45;&gt;Node4</title>
<path fill="none" stroke="midnightblue" d="M534.051,-139.716C643.161,-133.013 831.299,-119.452 898,-102.305 924.339,-95.5338 952.396,-83.3969 973.965,-72.8968"/>
<polygon fill="midnightblue" stroke="midnightblue" points="975.688,-75.9488 983.087,-68.3655 972.574,-69.6797 975.688,-75.9488"/>
</g>
<!-- Node5 -->
<g id="node5" class="node"><title>Node5</title>
<g id="a_node5"><a xlink:href="../../d8/db1/classapplication_1_1_wa_tor_cell.html#a1a6ef599bf7ba202e69ba2cea6562346" target="_top" xlink:title="application.WaTorCell.fish\lCheck">
<polygon fill="white" stroke="black" points="575.5,-151.305 575.5,-181.305 710.5,-181.305 710.5,-151.305 575.5,-151.305"/>
<text text-anchor="start" x="583.5" y="-169.305" font-family="Helvetica,sans-Serif" font-size="10.00">application.WaTorCell.fish</text>
<text text-anchor="middle" x="643" y="-158.305" font-family="Helvetica,sans-Serif" font-size="10.00">Check</text>
</a>
</g>
</g>
<!-- Node3&#45;&gt;Node5 -->
<g id="edge4" class="edge"><title>Node3&#45;&gt;Node5</title>
<path fill="none" stroke="midnightblue" d="M534.25,-153.763C544.53,-154.959 555.024,-156.181 565.231,-157.369"/>
<polygon fill="midnightblue" stroke="midnightblue" points="564.986,-160.864 575.324,-158.544 565.796,-153.911 564.986,-160.864"/>
</g>
<!-- Node7 -->
<g id="node7" class="node"><title>Node7</title>
<g id="a_node7"><a xlink:href="../../d8/db1/classapplication_1_1_wa_tor_cell.html#adf784ae30166eff30f6eaf804eb46c21" target="_top" xlink:title="application.WaTorCell.random\lFinder">
<polygon fill="white" stroke="black" points="934,-145.305 934,-175.305 1090,-175.305 1090,-145.305 934,-145.305"/>
<text text-anchor="start" x="942" y="-163.305" font-family="Helvetica,sans-Serif" font-size="10.00">application.WaTorCell.random</text>
<text text-anchor="middle" x="1012" y="-152.305" font-family="Helvetica,sans-Serif" font-size="10.00">Finder</text>
</a>
</g>
</g>
<!-- Node3&#45;&gt;Node7 -->
<g id="edge8" class="edge"><title>Node3&#45;&gt;Node7</title>
<path fill="none" stroke="midnightblue" d="M471.002,-153.853C493.446,-165.165 533.33,-183.355 570,-190.305 695.96,-214.177 845.328,-194.116 933.91,-177.296"/>
<polygon fill="midnightblue" stroke="midnightblue" points="934.723,-180.703 943.876,-175.368 933.394,-173.831 934.723,-180.703"/>
</g>
<!-- Node6 -->
<g id="node6" class="node"><title>Node6</title>
<g id="a_node6"><a xlink:href="../../d8/db1/classapplication_1_1_wa_tor_cell.html#a9c94858de4179a7d43d023568a0a7a42" target="_top" xlink:title="application.WaTorCell.breed">
<polygon fill="white" stroke="black" points="752,-150.805 752,-169.805 898,-169.805 898,-150.805 752,-150.805"/>
<text text-anchor="middle" x="825" y="-157.805" font-family="Helvetica,sans-Serif" font-size="10.00">application.WaTorCell.breed</text>
</a>
</g>
</g>
<!-- Node5&#45;&gt;Node6 -->
<g id="edge5" class="edge"><title>Node5&#45;&gt;Node6</title>
<path fill="none" stroke="midnightblue" d="M710.514,-164.088C720.579,-163.752 731.065,-163.403 741.419,-163.058"/>
<polygon fill="midnightblue" stroke="midnightblue" points="741.831,-166.546 751.709,-162.715 741.598,-159.55 741.831,-166.546"/>
</g>
<!-- Node6&#45;&gt;Node4 -->
<g id="edge6" class="edge"><title>Node6&#45;&gt;Node4</title>
<path fill="none" stroke="midnightblue" d="M862.055,-150.713C873.833,-146.948 886.767,-142.119 898,-136.305 930.778,-119.339 964.37,-93.3527 986.312,-74.9837"/>
<polygon fill="midnightblue" stroke="midnightblue" points="988.767,-77.4911 994.125,-68.3513 984.237,-72.1545 988.767,-77.4911"/>
</g>
<!-- Node6&#45;&gt;Node7 -->
<g id="edge7" class="edge"><title>Node6&#45;&gt;Node7</title>
<path fill="none" stroke="midnightblue" d="M898.056,-160.305C906.514,-160.305 915.213,-160.305 923.85,-160.305"/>
<polygon fill="midnightblue" stroke="midnightblue" points="923.942,-163.805 933.942,-160.305 923.941,-156.805 923.942,-163.805"/>
</g>
<!-- Node8&#45;&gt;Node4 -->
<g id="edge14" class="edge"><title>Node8&#45;&gt;Node4</title>
<path fill="none" stroke="midnightblue" d="M293.784,-34.2245C314.873,-25.0558 343.455,-14.1999 370,-9.30488 427.991,1.38867 842.964,3.46803 898,-7.30488 924.256,-12.4442 952.111,-23.7102 973.596,-33.806"/>
<polygon fill="midnightblue" stroke="midnightblue" points="972.161,-37 982.689,-38.1875 975.2,-30.6938 972.161,-37"/>
</g>
<!-- Node9 -->
<g id="node9" class="node"><title>Node9</title>
<g id="a_node9"><a xlink:href="../../d8/db1/classapplication_1_1_wa_tor_cell.html#acd6f36e1b67026af41aab1234ee5e58a" target="_top" xlink:title="application.WaTorCell.eatFish">
<polygon fill="white" stroke="black" points="376,-68.8049 376,-87.8049 528,-87.8049 528,-68.8049 376,-68.8049"/>
<text text-anchor="middle" x="452" y="-75.8049" font-family="Helvetica,sans-Serif" font-size="10.00">application.WaTorCell.eatFish</text>
</a>
</g>
</g>
<!-- Node8&#45;&gt;Node9 -->
<g id="edge10" class="edge"><title>Node8&#45;&gt;Node9</title>
<path fill="none" stroke="midnightblue" d="M333.722,-60.3099C348.486,-62.5752 364.038,-64.9615 378.817,-67.2292"/>
<polygon fill="midnightblue" stroke="midnightblue" points="378.492,-70.7201 388.907,-68.7774 379.553,-63.8011 378.492,-70.7201"/>
</g>
<!-- Node12 -->
<g id="node12" class="node"><title>Node12</title>
<g id="a_node12"><a xlink:href="../../d8/db1/classapplication_1_1_wa_tor_cell.html#ac24a6ce0cc2bfac6ffec59cc1deaf13f" target="_top" xlink:title="application.WaTorCell.move\lShark">
<polygon fill="white" stroke="black" points="379,-19.3049 379,-49.3049 525,-49.3049 525,-19.3049 379,-19.3049"/>
<text text-anchor="start" x="387" y="-37.3049" font-family="Helvetica,sans-Serif" font-size="10.00">application.WaTorCell.move</text>
<text text-anchor="middle" x="452" y="-26.3049" font-family="Helvetica,sans-Serif" font-size="10.00">Shark</text>
</a>
</g>
</g>
<!-- Node8&#45;&gt;Node12 -->
<g id="edge15" class="edge"><title>Node8&#45;&gt;Node12</title>
<path fill="none" stroke="midnightblue" d="M333.722,-43.6126C345.111,-42.7088 356.968,-41.7677 368.578,-40.8463"/>
<polygon fill="midnightblue" stroke="midnightblue" points="369.008,-44.3233 378.7,-40.043 368.454,-37.3452 369.008,-44.3233"/>
</g>
<!-- Node10 -->
<g id="node10" class="node"><title>Node10</title>
<g id="a_node10"><a xlink:href="../../d8/db1/classapplication_1_1_wa_tor_cell.html#a307b646f55543b979ac5b5d99b204d44" target="_top" xlink:title="application.WaTorCell.shark\lCheck">
<polygon fill="white" stroke="black" points="570.5,-63.3049 570.5,-93.3049 715.5,-93.3049 715.5,-63.3049 570.5,-63.3049"/>
<text text-anchor="start" x="578.5" y="-81.3049" font-family="Helvetica,sans-Serif" font-size="10.00">application.WaTorCell.shark</text>
<text text-anchor="middle" x="643" y="-70.3049" font-family="Helvetica,sans-Serif" font-size="10.00">Check</text>
</a>
</g>
</g>
<!-- Node9&#45;&gt;Node10 -->
<g id="edge11" class="edge"><title>Node9&#45;&gt;Node10</title>
<path fill="none" stroke="midnightblue" d="M528.241,-78.3049C538.772,-78.3049 549.637,-78.3049 560.281,-78.3049"/>
<polygon fill="midnightblue" stroke="midnightblue" points="560.401,-81.805 570.401,-78.3049 560.401,-74.805 560.401,-81.805"/>
</g>
<!-- Node10&#45;&gt;Node6 -->
<g id="edge12" class="edge"><title>Node10&#45;&gt;Node6</title>
<path fill="none" stroke="midnightblue" d="M677.015,-93.3449C710.311,-108.513 761.284,-131.734 793.611,-146.461"/>
<polygon fill="midnightblue" stroke="midnightblue" points="792.454,-149.78 803.005,-150.74 795.356,-143.41 792.454,-149.78"/>
</g>
<!-- Node11 -->
<g id="node11" class="node"><title>Node11</title>
<g id="a_node11"><a xlink:href="../../d8/db1/classapplication_1_1_wa_tor_cell.html#a4b8b03a02d13912f0d2c263f192ea135" target="_top" xlink:title="application.WaTorCell.kill\lShark">
<polygon fill="white" stroke="black" points="759.5,-63.3049 759.5,-93.3049 890.5,-93.3049 890.5,-63.3049 759.5,-63.3049"/>
<text text-anchor="start" x="767.5" y="-81.3049" font-family="Helvetica,sans-Serif" font-size="10.00">application.WaTorCell.kill</text>
<text text-anchor="middle" x="825" y="-70.3049" font-family="Helvetica,sans-Serif" font-size="10.00">Shark</text>
</a>
</g>
</g>
<!-- Node10&#45;&gt;Node11 -->
<g id="edge13" class="edge"><title>Node10&#45;&gt;Node11</title>
<path fill="none" stroke="midnightblue" d="M715.658,-78.3049C726.692,-78.3049 738.11,-78.3049 749.21,-78.3049"/>
<polygon fill="midnightblue" stroke="midnightblue" points="749.295,-81.805 759.295,-78.3049 749.295,-74.805 749.295,-81.805"/>
</g>
<!-- Node12&#45;&gt;Node4 -->
<g id="edge16" class="edge"><title>Node12&#45;&gt;Node4</title>
<path fill="none" stroke="midnightblue" d="M525.1,-24.4188C613.465,-14.0508 767.539,-1.64504 898,-20.3049 918.76,-23.2742 941.033,-29.1652 960.271,-35.1585"/>
<polygon fill="midnightblue" stroke="midnightblue" points="959.439,-38.5672 970.03,-38.287 961.575,-31.9013 959.439,-38.5672"/>
</g>
<!-- Node12&#45;&gt;Node7 -->
<g id="edge17" class="edge"><title>Node12&#45;&gt;Node7</title>
<path fill="none" stroke="midnightblue" d="M525.023,-31.3309C633.444,-27.8671 832.842,-25.7256 898,-53.3049 919.719,-62.4978 964.37,-108.917 990.573,-137.512"/>
<polygon fill="midnightblue" stroke="midnightblue" points="988.121,-140.018 997.44,-145.059 993.299,-135.307 988.121,-140.018"/>
</g>
<!-- Node12&#45;&gt;Node10 -->
<g id="edge18" class="edge"><title>Node12&#45;&gt;Node10</title>
<path fill="none" stroke="midnightblue" d="M517.514,-49.3241C533.543,-53.0557 550.856,-57.0862 567.328,-60.9208"/>
<polygon fill="midnightblue" stroke="midnightblue" points="566.922,-64.42 577.456,-63.2787 568.51,-57.6024 566.922,-64.42"/>
</g>
</g>
</svg>
        <g id="navigator" transform="translate(0 0)" fill="#404254">
                <rect fill="#f2f5e9" fill-opacity="0.5" stroke="#606060" stroke-width=".5" x="0" y="0" width="60" height="60"/>
                <use id="zoomplus" xlink:href="#zoomPlus" x="17" y="9" onmousedown="handleZoom(evt,'in')"/>
                <use id="zoomminus" xlink:href="#zoomMin" x="42" y="9" onmousedown="handleZoom(evt,'out')"/>
                <use id="reset" xlink:href="#resetDef" x="30" y="36" onmousedown="handleReset()"/>
                <g id="arrowUp" xlink:href="#dirArrow" transform="translate(30 24)" onmousedown="handlePan(0,-1)">
                  <use xlink:href="#rim" fill="#404040">
                        <set attributeName="fill" to="#808080" begin="arrowUp.mouseover" end="arrowUp.mouseout"/>
                  </use>
                  <path fill="none" stroke="white" stroke-width="1.5" d="M0,-3.0v7 M-2.5,-0.5L0,-3.0L2.5,-0.5"/>
                </g>
                <g id="arrowRight" xlink:href="#dirArrow" transform="rotate(90) translate(36 -43)" onmousedown="handlePan(1,0)">
                  <use xlink:href="#rim" fill="#404040">
                        <set attributeName="fill" to="#808080" begin="arrowRight.mouseover" end="arrowRight.mouseout"/>
                  </use>
                  <path fill="none" stroke="white" stroke-width="1.5" d="M0,-3.0v7 M-2.5,-0.5L0,-3.0L2.5,-0.5"/>
                </g>
                <g id="arrowDown" xlink:href="#dirArrow" transform="rotate(180) translate(-30 -48)" onmousedown="handlePan(0,1)">
                  <use xlink:href="#rim" fill="#404040">
                        <set attributeName="fill" to="#808080" begin="arrowDown.mouseover" end="arrowDown.mouseout"/>
                  </use>
                  <path fill="none" stroke="white" stroke-width="1.5" d="M0,-3.0v7 M-2.5,-0.5L0,-3.0L2.5,-0.5"/>
                </g>
                <g id="arrowLeft" xlink:href="#dirArrow" transform="rotate(270) translate(-36 17)" onmousedown="handlePan(-1,0)">
                  <use xlink:href="#rim" fill="#404040">
                        <set attributeName="fill" to="#808080" begin="arrowLeft.mouseover" end="arrowLeft.mouseout"/>
                  </use>
                  <path fill="none" stroke="white" stroke-width="1.5" d="M0,-3.0v7 M-2.5,-0.5L0,-3.0L2.5,-0.5"/>
                </g>
        </g>
        <svg viewBox="0 0 15 15" width="100%" height="30px" preserveAspectRatio="xMaxYMin meet">
         <g id="arrow_out" transform="scale(0.3 0.3)">
          <a xlink:href="classapplication_1_1_wa_tor_cell_ad9630281a27495d016b877f1531709a8_cgraph_org.svg" target="_base">
           <rect id="button" ry="5" rx="5" y="6" x="6" height="38" width="38"
                fill="#f2f5e9" fill-opacity="0.5" stroke="#606060" stroke-width="1.0"/>
           <path id="arrow"
             d="M 11.500037,31.436501 C 11.940474,20.09759 22.043105,11.32322 32.158766,21.979434 L 37.068811,17.246167 C 37.068811,17.246167 37.088388,32 37.088388,32 L 22.160133,31.978069 C 22.160133,31.978069 26.997745,27.140456 26.997745,27.140456 C 18.528582,18.264221 13.291696,25.230495 11.500037,31.436501 z"
             style="fill:#404040;"/>
          </a>
         </g>
        </svg>
</svg>
