<?xml version="1.0" encoding="UTF-8" standalone="no"?>
<!DOCTYPE svg PUBLIC "-//W3C//DTD SVG 1.1//EN"
 "http://www.w3.org/Graphics/SVG/1.1/DTD/svg11.dtd">
<!-- Generated by graphviz version 2.36.0 (20140111.2315)
 -->
<!-- Title: application.WaTorCell.eatFish Pages: 1 -->
<svg width="716pt" height="106pt"
 viewBox="0.00 0.00 716.00 106.00" xmlns="http://www.w3.org/2000/svg" xmlns:xlink="http://www.w3.org/1999/xlink">
<g id="graph0" class="graph" transform="scale(1 1) rotate(0) translate(4 102)">
<title>application.WaTorCell.eatFish</title>
<polygon fill="white" stroke="none" points="-4,4 -4,-102 712,-102 712,4 -4,4"/>
<!-- Node1 -->
<g id="node1" class="node"><title>Node1</title>
<polygon fill="#bfbfbf" stroke="black" points="0,-51.5 0,-70.5 152,-70.5 152,-51.5 0,-51.5"/>
<text text-anchor="middle" x="76" y="-58.5" font-family="Helvetica,sans-Serif" font-size="10.00">application.WaTorCell.eatFish</text>
</g>
<!-- Node2 -->
<g id="node2" class="node"><title>Node2</title>
<g id="a_node2"><a xlink:href="../../d8/db1/classapplication_1_1_wa_tor_cell.html#a307b646f55543b979ac5b5d99b204d44" target="_top" xlink:title="application.WaTorCell.shark\lCheck">
<polygon fill="white" stroke="black" points="188.5,-46 188.5,-76 333.5,-76 333.5,-46 188.5,-46"/>
<text text-anchor="start" x="196.5" y="-64" font-family="Helvetica,sans-Serif" font-size="10.00">application.WaTorCell.shark</text>
<text text-anchor="middle" x="261" y="-53" font-family="Helvetica,sans-Serif" font-size="10.00">Check</text>
</a>
</g>
</g>
<!-- Node1&#45;&gt;Node2 -->
<g id="edge1" class="edge"><title>Node1&#45;&gt;Node2</title>
<path fill="none" stroke="midnightblue" d="M152.225,-61C160.799,-61 169.569,-61 178.223,-61"/>
<polygon fill="midnightblue" stroke="midnightblue" points="178.308,-64.5001 188.308,-61 178.308,-57.5001 178.308,-64.5001"/>
</g>
<!-- Node3 -->
<g id="node3" class="node"><title>Node3</title>
<g id="a_node3"><a xlink:href="../../d8/db1/classapplication_1_1_wa_tor_cell.html#a4b8b03a02d13912f0d2c263f192ea135" target="_top" xlink:title="application.WaTorCell.kill\lShark">
<polygon fill="white" stroke="black" points="377.5,-68 377.5,-98 508.5,-98 508.5,-68 377.5,-68"/>
<text text-anchor="start" x="385.5" y="-86" font-family="Helvetica,sans-Serif" font-size="10.00">application.WaTorCell.kill</text>
<text text-anchor="middle" x="443" y="-75" font-family="Helvetica,sans-Serif" font-size="10.00">Shark</text>
</a>
</g>
</g>
<!-- Node2&#45;&gt;Node3 -->
<g id="edge2" class="edge"><title>Node2&#45;&gt;Node3</title>
<path fill="none" stroke="midnightblue" d="M333.658,-69.7582C344.692,-71.1068 356.11,-72.5024 367.21,-73.8591"/>
<polygon fill="midnightblue" stroke="midnightblue" points="366.944,-77.3525 377.295,-75.0916 367.794,-70.4042 366.944,-77.3525"/>
</g>
<!-- Node4 -->
<g id="node4" class="node"><title>Node4</title>
<g id="a_node4"><a xlink:href="../../d8/db1/classapplication_1_1_wa_tor_cell.html#a9c94858de4179a7d43d023568a0a7a42" target="_top" xlink:title="application.WaTorCell.breed">
<polygon fill="white" stroke="black" points="370,-29.5 370,-48.5 516,-48.5 516,-29.5 370,-29.5"/>
<text text-anchor="middle" x="443" y="-36.5" font-family="Helvetica,sans-Serif" font-size="10.00">application.WaTorCell.breed</text>
</a>
</g>
</g>
<!-- Node2&#45;&gt;Node4 -->
<g id="edge3" class="edge"><title>Node2&#45;&gt;Node4</title>
<path fill="none" stroke="midnightblue" d="M333.658,-52.2418C342.184,-51.1997 350.94,-50.1295 359.601,-49.071"/>
<polygon fill="midnightblue" stroke="midnightblue" points="360.204,-52.5234 369.706,-47.8359 359.355,-45.5751 360.204,-52.5234"/>
</g>
<!-- Node5 -->
<g id="node5" class="node"><title>Node5</title>
<g id="a_node5"><a xlink:href="../../d7/dff/classapplication_1_1_cell.html#adee02d15440cb198751d122a9d7a5f10" target="_top" xlink:title="application.Cell.findWanted\lNeighbors">
<polygon fill="white" stroke="black" points="558,-49 558,-79 702,-79 702,-49 558,-49"/>
<text text-anchor="start" x="566" y="-67" font-family="Helvetica,sans-Serif" font-size="10.00">application.Cell.findWanted</text>
<text text-anchor="middle" x="630" y="-56" font-family="Helvetica,sans-Serif" font-size="10.00">Neighbors</text>
</a>
</g>
</g>
<!-- Node4&#45;&gt;Node5 -->
<g id="edge4" class="edge"><title>Node4&#45;&gt;Node5</title>
<path fill="none" stroke="midnightblue" d="M514.468,-48.5227C525.335,-49.9912 536.633,-51.5179 547.713,-53.0152"/>
<polygon fill="midnightblue" stroke="midnightblue" points="547.429,-56.5087 557.808,-54.3795 548.367,-49.5717 547.429,-56.5087"/>
</g>
<!-- Node6 -->
<g id="node6" class="node"><title>Node6</title>
<g id="a_node6"><a xlink:href="../../d8/db1/classapplication_1_1_wa_tor_cell.html#adf784ae30166eff30f6eaf804eb46c21" target="_top" xlink:title="application.WaTorCell.random\lFinder">
<polygon fill="white" stroke="black" points="552,-0 552,-30 708,-30 708,-0 552,-0"/>
<text text-anchor="start" x="560" y="-18" font-family="Helvetica,sans-Serif" font-size="10.00">application.WaTorCell.random</text>
<text text-anchor="middle" x="630" y="-7" font-family="Helvetica,sans-Serif" font-size="10.00">Finder</text>
</a>
</g>
</g>
<!-- Node4&#45;&gt;Node6 -->
<g id="edge5" class="edge"><title>Node4&#45;&gt;Node6</title>
<path fill="none" stroke="midnightblue" d="M516.056,-29.6523C524.514,-28.5549 533.213,-27.4264 541.85,-26.306"/>
<polygon fill="midnightblue" stroke="midnightblue" points="542.475,-29.7543 551.942,-24.9968 541.574,-22.8125 542.475,-29.7543"/>
</g>
</g>
</svg>
