<?xml version="1.0" encoding="UTF-8" standalone="no"?>
<!DOCTYPE svg PUBLIC "-//W3C//DTD SVG 1.1//EN"
 "http://www.w3.org/Graphics/SVG/1.1/DTD/svg11.dtd">
<!-- Generated by graphviz version 2.36.0 (20140111.2315)
 -->
<!-- Title: application.WaTorCell.sharkUpdate Pages: 1 -->
<svg width="548pt" height="38pt"
 viewBox="0.00 0.00 548.00 38.00" xmlns="http://www.w3.org/2000/svg" xmlns:xlink="http://www.w3.org/1999/xlink">
<g id="graph0" class="graph" transform="scale(1 1) rotate(0) translate(4 34)">
<title>application.WaTorCell.sharkUpdate</title>
<polygon fill="white" stroke="none" points="-4,4 -4,-34 544,-34 544,4 -4,4"/>
<!-- Node1 -->
<g id="node1" class="node"><title>Node1</title>
<polygon fill="#bfbfbf" stroke="black" points="0.5,-0 0.5,-30 145.5,-30 145.5,-0 0.5,-0"/>
<text text-anchor="start" x="8.5" y="-18" font-family="Helvetica,sans-Serif" font-size="10.00">application.WaTorCell.shark</text>
<text text-anchor="middle" x="73" y="-7" font-family="Helvetica,sans-Serif" font-size="10.00">Update</text>
</g>
<!-- Node2 -->
<g id="node2" class="node"><title>Node2</title>
<g id="a_node2"><a xlink:href="../../d8/db1/classapplication_1_1_wa_tor_cell.html#ad9630281a27495d016b877f1531709a8" target="_top" xlink:title="application.WaTorCell.update\lThisCell">
<polygon fill="white" stroke="black" points="182,-0 182,-30 334,-30 334,-0 182,-0"/>
<text text-anchor="start" x="190" y="-18" font-family="Helvetica,sans-Serif" font-size="10.00">application.WaTorCell.update</text>
<text text-anchor="middle" x="258" y="-7" font-family="Helvetica,sans-Serif" font-size="10.00">ThisCell</text>
</a>
</g>
</g>
<!-- Node1&#45;&gt;Node2 -->
<g id="edge1" class="edge"><title>Node1&#45;&gt;Node2</title>
<path fill="none" stroke="midnightblue" d="M155.698,-15C164.415,-15 173.253,-15 181.889,-15"/>
<polygon fill="midnightblue" stroke="midnightblue" points="155.539,-11.5001 145.539,-15 155.539,-18.5001 155.539,-11.5001"/>
</g>
<!-- Node3 -->
<g id="node3" class="node"><title>Node3</title>
<g id="a_node3"><a xlink:href="../../d8/db1/classapplication_1_1_wa_tor_cell.html#af362ec2495254143a63af649dd9754db" target="_top" xlink:title="application.WaTorCell.updateCell">
<polygon fill="white" stroke="black" points="370,-5.5 370,-24.5 540,-24.5 540,-5.5 370,-5.5"/>
<text text-anchor="middle" x="455" y="-12.5" font-family="Helvetica,sans-Serif" font-size="10.00">application.WaTorCell.updateCell</text>
</a>
</g>
</g>
<!-- Node2&#45;&gt;Node3 -->
<g id="edge2" class="edge"><title>Node2&#45;&gt;Node3</title>
<path fill="none" stroke="midnightblue" d="M344.351,-15C352.809,-15 361.39,-15 369.836,-15"/>
<polygon fill="midnightblue" stroke="midnightblue" points="344.113,-11.5001 334.113,-15 344.113,-18.5001 344.113,-11.5001"/>
</g>
</g>
</svg>
