<?xml version="1.0" encoding="UTF-8" standalone="no"?>
<!DOCTYPE svg PUBLIC "-//W3C//DTD SVG 1.1//EN"
 "http://www.w3.org/Graphics/SVG/1.1/DTD/svg11.dtd">
<!-- Generated by graphviz version 2.36.0 (20140111.2315)
 -->
<!-- Title: application.WaTorCell.moveFish Pages: 1 -->
<svg width="718pt" height="97pt"
 viewBox="0.00 0.00 718.00 97.00" xmlns="http://www.w3.org/2000/svg" xmlns:xlink="http://www.w3.org/1999/xlink">
<g id="graph0" class="graph" transform="scale(1 1) rotate(0) translate(4 93)">
<title>application.WaTorCell.moveFish</title>
<polygon fill="white" stroke="none" points="-4,4 -4,-93 714,-93 714,4 -4,4"/>
<!-- Node1 -->
<g id="node1" class="node"><title>Node1</title>
<polygon fill="#bfbfbf" stroke="black" points="0,-30.5 0,-49.5 164,-49.5 164,-30.5 0,-30.5"/>
<text text-anchor="middle" x="82" y="-37.5" font-family="Helvetica,sans-Serif" font-size="10.00">application.WaTorCell.moveFish</text>
</g>
<!-- Node2 -->
<g id="node2" class="node"><title>Node2</title>
<g id="a_node2"><a xlink:href="../../d7/dff/classapplication_1_1_cell.html#adee02d15440cb198751d122a9d7a5f10" target="_top" xlink:title="application.Cell.findWanted\lNeighbors">
<polygon fill="white" stroke="black" points="560,-59 560,-89 704,-89 704,-59 560,-59"/>
<text text-anchor="start" x="568" y="-77" font-family="Helvetica,sans-Serif" font-size="10.00">application.Cell.findWanted</text>
<text text-anchor="middle" x="632" y="-66" font-family="Helvetica,sans-Serif" font-size="10.00">Neighbors</text>
</a>
</g>
</g>
<!-- Node1&#45;&gt;Node2 -->
<g id="edge1" class="edge"><title>Node1&#45;&gt;Node2</title>
<path fill="none" stroke="midnightblue" d="M120.663,-49.5145C143.462,-54.8253 173.215,-60.9669 200,-64 321.258,-77.7313 462.887,-78.0282 549.752,-76.4334"/>
<polygon fill="midnightblue" stroke="midnightblue" points="549.879,-79.9317 559.808,-76.2358 549.741,-72.933 549.879,-79.9317"/>
</g>
<!-- Node3 -->
<g id="node3" class="node"><title>Node3</title>
<g id="a_node3"><a xlink:href="../../d8/db1/classapplication_1_1_wa_tor_cell.html#a1a6ef599bf7ba202e69ba2cea6562346" target="_top" xlink:title="application.WaTorCell.fish\lCheck">
<polygon fill="white" stroke="black" points="200.5,-25 200.5,-55 335.5,-55 335.5,-25 200.5,-25"/>
<text text-anchor="start" x="208.5" y="-43" font-family="Helvetica,sans-Serif" font-size="10.00">application.WaTorCell.fish</text>
<text text-anchor="middle" x="268" y="-32" font-family="Helvetica,sans-Serif" font-size="10.00">Check</text>
</a>
</g>
</g>
<!-- Node1&#45;&gt;Node3 -->
<g id="edge2" class="edge"><title>Node1&#45;&gt;Node3</title>
<path fill="none" stroke="midnightblue" d="M164.241,-40C172.796,-40 181.477,-40 189.983,-40"/>
<polygon fill="midnightblue" stroke="midnightblue" points="190.251,-43.5001 200.251,-40 190.251,-36.5001 190.251,-43.5001"/>
</g>
<!-- Node5 -->
<g id="node5" class="node"><title>Node5</title>
<g id="a_node5"><a xlink:href="../../d8/db1/classapplication_1_1_wa_tor_cell.html#adf784ae30166eff30f6eaf804eb46c21" target="_top" xlink:title="application.WaTorCell.random\lFinder">
<polygon fill="white" stroke="black" points="554,-0 554,-30 710,-30 710,-0 554,-0"/>
<text text-anchor="start" x="562" y="-18" font-family="Helvetica,sans-Serif" font-size="10.00">application.WaTorCell.random</text>
<text text-anchor="middle" x="632" y="-7" font-family="Helvetica,sans-Serif" font-size="10.00">Finder</text>
</a>
</g>
</g>
<!-- Node1&#45;&gt;Node5 -->
<g id="edge6" class="edge"><title>Node1&#45;&gt;Node5</title>
<path fill="none" stroke="midnightblue" d="M118.017,-30.4988C141.103,-24.7372 172.114,-17.946 200,-15 318.462,-2.48506 456.263,-5.53526 543.54,-9.63154"/>
<polygon fill="midnightblue" stroke="midnightblue" points="543.507,-13.134 553.665,-10.1221 543.846,-6.14217 543.507,-13.134"/>
</g>
<!-- Node4 -->
<g id="node4" class="node"><title>Node4</title>
<g id="a_node4"><a xlink:href="../../d8/db1/classapplication_1_1_wa_tor_cell.html#a9c94858de4179a7d43d023568a0a7a42" target="_top" xlink:title="application.WaTorCell.breed">
<polygon fill="white" stroke="black" points="372,-30.5 372,-49.5 518,-49.5 518,-30.5 372,-30.5"/>
<text text-anchor="middle" x="445" y="-37.5" font-family="Helvetica,sans-Serif" font-size="10.00">application.WaTorCell.breed</text>
</a>
</g>
</g>
<!-- Node3&#45;&gt;Node4 -->
<g id="edge3" class="edge"><title>Node3&#45;&gt;Node4</title>
<path fill="none" stroke="midnightblue" d="M335.659,-40C344.199,-40 353.019,-40 361.769,-40"/>
<polygon fill="midnightblue" stroke="midnightblue" points="361.987,-43.5001 371.987,-40 361.987,-36.5001 361.987,-43.5001"/>
</g>
<!-- Node4&#45;&gt;Node2 -->
<g id="edge4" class="edge"><title>Node4&#45;&gt;Node2</title>
<path fill="none" stroke="midnightblue" d="M498.025,-49.5614C514.017,-52.5004 532.019,-55.8088 549.49,-59.0198"/>
<polygon fill="midnightblue" stroke="midnightblue" points="549.228,-62.5303 559.696,-60.8956 550.494,-55.6456 549.228,-62.5303"/>
</g>
<!-- Node4&#45;&gt;Node5 -->
<g id="edge5" class="edge"><title>Node4&#45;&gt;Node5</title>
<path fill="none" stroke="midnightblue" d="M516.468,-30.4773C525.467,-29.2612 534.761,-28.0053 543.982,-26.7592"/>
<polygon fill="midnightblue" stroke="midnightblue" points="544.5,-30.221 553.942,-25.4133 543.563,-23.2841 544.5,-30.221"/>
</g>
</g>
</svg>
