<?xml version="1.0" encoding="UTF-8" standalone="no"?>
<!DOCTYPE svg PUBLIC "-//W3C//DTD SVG 1.1//EN"
 "http://www.w3.org/Graphics/SVG/1.1/DTD/svg11.dtd">
<!-- Generated by graphviz version 2.36.0 (20140111.2315)
 -->
<!-- Title: application.WaTorCell.killShark Pages: 1 -->
<svg width="1086pt" height="77pt"
 viewBox="0.00 0.00 1086.00 77.00" xmlns="http://www.w3.org/2000/svg" xmlns:xlink="http://www.w3.org/1999/xlink">
<g id="graph0" class="graph" transform="scale(1 1) rotate(0) translate(4 73)">
<title>application.WaTorCell.killShark</title>
<polygon fill="white" stroke="none" points="-4,4 -4,-73 1082,-73 1082,4 -4,4"/>
<!-- Node1 -->
<g id="node1" class="node"><title>Node1</title>
<polygon fill="#bfbfbf" stroke="black" points="0.5,-22 0.5,-52 131.5,-52 131.5,-22 0.5,-22"/>
<text text-anchor="start" x="8.5" y="-40" font-family="Helvetica,sans-Serif" font-size="10.00">application.WaTorCell.kill</text>
<text text-anchor="middle" x="66" y="-29" font-family="Helvetica,sans-Serif" font-size="10.00">Shark</text>
</g>
<!-- Node2 -->
<g id="node2" class="node"><title>Node2</title>
<g id="a_node2"><a xlink:href="../../d8/db1/classapplication_1_1_wa_tor_cell.html#a307b646f55543b979ac5b5d99b204d44" target="_top" xlink:title="application.WaTorCell.shark\lCheck">
<polygon fill="white" stroke="black" points="168.5,-22 168.5,-52 313.5,-52 313.5,-22 168.5,-22"/>
<text text-anchor="start" x="176.5" y="-40" font-family="Helvetica,sans-Serif" font-size="10.00">application.WaTorCell.shark</text>
<text text-anchor="middle" x="241" y="-29" font-family="Helvetica,sans-Serif" font-size="10.00">Check</text>
</a>
</g>
</g>
<!-- Node1&#45;&gt;Node2 -->
<g id="edge1" class="edge"><title>Node1&#45;&gt;Node2</title>
<path fill="none" stroke="midnightblue" d="M142.058,-37C150.783,-37 159.665,-37 168.342,-37"/>
<polygon fill="midnightblue" stroke="midnightblue" points="141.911,-33.5001 131.911,-37 141.911,-40.5001 141.911,-33.5001"/>
</g>
<!-- Node3 -->
<g id="node3" class="node"><title>Node3</title>
<g id="a_node3"><a xlink:href="../../d8/db1/classapplication_1_1_wa_tor_cell.html#acd6f36e1b67026af41aab1234ee5e58a" target="_top" xlink:title="application.WaTorCell.eatFish">
<polygon fill="white" stroke="black" points="350,-49.5 350,-68.5 502,-68.5 502,-49.5 350,-49.5"/>
<text text-anchor="middle" x="426" y="-56.5" font-family="Helvetica,sans-Serif" font-size="10.00">application.WaTorCell.eatFish</text>
</a>
</g>
</g>
<!-- Node2&#45;&gt;Node3 -->
<g id="edge2" class="edge"><title>Node2&#45;&gt;Node3</title>
<path fill="none" stroke="midnightblue" d="M323.698,-46.8216C332.415,-47.8696 341.253,-48.932 349.889,-49.9702"/>
<polygon fill="midnightblue" stroke="midnightblue" points="323.885,-43.319 313.539,-45.6003 323.05,-50.269 323.885,-43.319"/>
</g>
<!-- Node7 -->
<g id="node7" class="node"><title>Node7</title>
<g id="a_node7"><a xlink:href="../../d8/db1/classapplication_1_1_wa_tor_cell.html#ac24a6ce0cc2bfac6ffec59cc1deaf13f" target="_top" xlink:title="application.WaTorCell.move\lShark">
<polygon fill="white" stroke="black" points="353,-0 353,-30 499,-30 499,-0 353,-0"/>
<text text-anchor="start" x="361" y="-18" font-family="Helvetica,sans-Serif" font-size="10.00">application.WaTorCell.move</text>
<text text-anchor="middle" x="426" y="-7" font-family="Helvetica,sans-Serif" font-size="10.00">Shark</text>
</a>
</g>
</g>
<!-- Node2&#45;&gt;Node7 -->
<g id="edge6" class="edge"><title>Node2&#45;&gt;Node7</title>
<path fill="none" stroke="midnightblue" d="M323.633,-27.1862C333.391,-26.0131 343.3,-24.8219 352.909,-23.6667"/>
<polygon fill="midnightblue" stroke="midnightblue" points="323.05,-23.731 313.539,-28.3997 323.885,-30.681 323.05,-23.731"/>
</g>
<!-- Node4 -->
<g id="node4" class="node"><title>Node4</title>
<g id="a_node4"><a xlink:href="../../d8/db1/classapplication_1_1_wa_tor_cell.html#a7b55e124dba81e37f00da7a6c09783de" target="_top" xlink:title="application.WaTorCell.shark\lUpdate">
<polygon fill="white" stroke="black" points="538.5,-22 538.5,-52 683.5,-52 683.5,-22 538.5,-22"/>
<text text-anchor="start" x="546.5" y="-40" font-family="Helvetica,sans-Serif" font-size="10.00">application.WaTorCell.shark</text>
<text text-anchor="middle" x="611" y="-29" font-family="Helvetica,sans-Serif" font-size="10.00">Update</text>
</a>
</g>
</g>
<!-- Node3&#45;&gt;Node4 -->
<g id="edge3" class="edge"><title>Node3&#45;&gt;Node4</title>
<path fill="none" stroke="midnightblue" d="M512.362,-48.738C521.041,-47.6945 529.795,-46.6422 538.308,-45.6187"/>
<polygon fill="midnightblue" stroke="midnightblue" points="511.736,-45.2879 502.225,-49.9565 512.572,-52.2378 511.736,-45.2879"/>
</g>
<!-- Node5 -->
<g id="node5" class="node"><title>Node5</title>
<g id="a_node5"><a xlink:href="../../d8/db1/classapplication_1_1_wa_tor_cell.html#ad9630281a27495d016b877f1531709a8" target="_top" xlink:title="application.WaTorCell.update\lThisCell">
<polygon fill="white" stroke="black" points="720,-22 720,-52 872,-52 872,-22 720,-22"/>
<text text-anchor="start" x="728" y="-40" font-family="Helvetica,sans-Serif" font-size="10.00">application.WaTorCell.update</text>
<text text-anchor="middle" x="796" y="-29" font-family="Helvetica,sans-Serif" font-size="10.00">ThisCell</text>
</a>
</g>
</g>
<!-- Node4&#45;&gt;Node5 -->
<g id="edge4" class="edge"><title>Node4&#45;&gt;Node5</title>
<path fill="none" stroke="midnightblue" d="M693.698,-37C702.415,-37 711.253,-37 719.889,-37"/>
<polygon fill="midnightblue" stroke="midnightblue" points="693.539,-33.5001 683.539,-37 693.539,-40.5001 693.539,-33.5001"/>
</g>
<!-- Node6 -->
<g id="node6" class="node"><title>Node6</title>
<g id="a_node6"><a xlink:href="../../d8/db1/classapplication_1_1_wa_tor_cell.html#af362ec2495254143a63af649dd9754db" target="_top" xlink:title="application.WaTorCell.updateCell">
<polygon fill="white" stroke="black" points="908,-27.5 908,-46.5 1078,-46.5 1078,-27.5 908,-27.5"/>
<text text-anchor="middle" x="993" y="-34.5" font-family="Helvetica,sans-Serif" font-size="10.00">application.WaTorCell.updateCell</text>
</a>
</g>
</g>
<!-- Node5&#45;&gt;Node6 -->
<g id="edge5" class="edge"><title>Node5&#45;&gt;Node6</title>
<path fill="none" stroke="midnightblue" d="M882.351,-37C890.809,-37 899.39,-37 907.836,-37"/>
<polygon fill="midnightblue" stroke="midnightblue" points="882.113,-33.5001 872.113,-37 882.113,-40.5001 882.113,-33.5001"/>
</g>
<!-- Node7&#45;&gt;Node4 -->
<g id="edge7" class="edge"><title>Node7&#45;&gt;Node4</title>
<path fill="none" stroke="midnightblue" d="M509.132,-24.8738C518.861,-26.0434 528.733,-27.2302 538.302,-28.3805"/>
<polygon fill="midnightblue" stroke="midnightblue" points="509.41,-21.3821 499.064,-23.6634 508.574,-28.3321 509.41,-21.3821"/>
</g>
</g>
</svg>
