<?xml version="1.0" encoding="UTF-8" standalone="no"?>
<!DOCTYPE svg PUBLIC "-//W3C//DTD SVG 1.1//EN"
 "http://www.w3.org/Graphics/SVG/1.1/DTD/svg11.dtd">
<!-- Generated by graphviz version 2.36.0 (20140111.2315)
 -->
<!-- Title: application.WaTorCell.breed Pages: 1 -->
<svg width="1112pt" height="125pt"
 viewBox="0.00 0.00 1112.00 125.00" xmlns="http://www.w3.org/2000/svg" xmlns:xlink="http://www.w3.org/1999/xlink">
<g id="graph0" class="graph" transform="scale(1 1) rotate(0) translate(4 121)">
<title>application.WaTorCell.breed</title>
<polygon fill="white" stroke="none" points="-4,4 -4,-121 1108,-121 1108,4 -4,4"/>
<!-- Node1 -->
<g id="node1" class="node"><title>Node1</title>
<polygon fill="#bfbfbf" stroke="black" points="0,-67.5 0,-86.5 146,-86.5 146,-67.5 0,-67.5"/>
<text text-anchor="middle" x="73" y="-74.5" font-family="Helvetica,sans-Serif" font-size="10.00">application.WaTorCell.breed</text>
</g>
<!-- Node2 -->
<g id="node2" class="node"><title>Node2</title>
<g id="a_node2"><a xlink:href="../../d8/db1/classapplication_1_1_wa_tor_cell.html#a1a6ef599bf7ba202e69ba2cea6562346" target="_top" xlink:title="application.WaTorCell.fish\lCheck">
<polygon fill="white" stroke="black" points="187.5,-87 187.5,-117 322.5,-117 322.5,-87 187.5,-87"/>
<text text-anchor="start" x="195.5" y="-105" font-family="Helvetica,sans-Serif" font-size="10.00">application.WaTorCell.fish</text>
<text text-anchor="middle" x="255" y="-94" font-family="Helvetica,sans-Serif" font-size="10.00">Check</text>
</a>
</g>
</g>
<!-- Node1&#45;&gt;Node2 -->
<g id="edge1" class="edge"><title>Node1&#45;&gt;Node2</title>
<path fill="none" stroke="midnightblue" d="M152.663,-87.9254C164.252,-89.535 176.096,-91.1801 187.41,-92.7514"/>
<polygon fill="midnightblue" stroke="midnightblue" points="152.95,-84.4318 142.564,-86.5227 151.987,-91.3652 152.95,-84.4318"/>
</g>
<!-- Node7 -->
<g id="node7" class="node"><title>Node7</title>
<g id="a_node7"><a xlink:href="../../d8/db1/classapplication_1_1_wa_tor_cell.html#a307b646f55543b979ac5b5d99b204d44" target="_top" xlink:title="application.WaTorCell.shark\lCheck">
<polygon fill="white" stroke="black" points="182.5,-38 182.5,-68 327.5,-68 327.5,-38 182.5,-38"/>
<text text-anchor="start" x="190.5" y="-56" font-family="Helvetica,sans-Serif" font-size="10.00">application.WaTorCell.shark</text>
<text text-anchor="middle" x="255" y="-45" font-family="Helvetica,sans-Serif" font-size="10.00">Check</text>
</a>
</g>
</g>
<!-- Node1&#45;&gt;Node7 -->
<g id="edge6" class="edge"><title>Node1&#45;&gt;Node7</title>
<path fill="none" stroke="midnightblue" d="M155.471,-66.1373C164.451,-64.9399 173.546,-63.7273 182.393,-62.5477"/>
<polygon fill="midnightblue" stroke="midnightblue" points="154.849,-62.6891 145.399,-67.4801 155.774,-69.6277 154.849,-62.6891"/>
</g>
<!-- Node3 -->
<g id="node3" class="node"><title>Node3</title>
<g id="a_node3"><a xlink:href="../../d8/db1/classapplication_1_1_wa_tor_cell.html#afd6d9d7c8196264c6db8b07ac589b8d7" target="_top" xlink:title="application.WaTorCell.moveFish">
<polygon fill="white" stroke="black" points="364,-92.5 364,-111.5 528,-111.5 528,-92.5 364,-92.5"/>
<text text-anchor="middle" x="446" y="-99.5" font-family="Helvetica,sans-Serif" font-size="10.00">application.WaTorCell.moveFish</text>
</a>
</g>
</g>
<!-- Node2&#45;&gt;Node3 -->
<g id="edge2" class="edge"><title>Node2&#45;&gt;Node3</title>
<path fill="none" stroke="midnightblue" d="M332.731,-102C342.941,-102 353.439,-102 363.723,-102"/>
<polygon fill="midnightblue" stroke="midnightblue" points="332.634,-98.5001 322.634,-102 332.634,-105.5 332.634,-98.5001"/>
</g>
<!-- Node4 -->
<g id="node4" class="node"><title>Node4</title>
<g id="a_node4"><a xlink:href="../../d8/db1/classapplication_1_1_wa_tor_cell.html#ae1d4ff7071ac748d11f706f5c519b41d" target="_top" xlink:title="application.WaTorCell.fish\lUpdate">
<polygon fill="white" stroke="black" points="569.5,-87 569.5,-117 704.5,-117 704.5,-87 569.5,-87"/>
<text text-anchor="start" x="577.5" y="-105" font-family="Helvetica,sans-Serif" font-size="10.00">application.WaTorCell.fish</text>
<text text-anchor="middle" x="637" y="-94" font-family="Helvetica,sans-Serif" font-size="10.00">Update</text>
</a>
</g>
</g>
<!-- Node3&#45;&gt;Node4 -->
<g id="edge3" class="edge"><title>Node3&#45;&gt;Node4</title>
<path fill="none" stroke="midnightblue" d="M538.259,-102C548.732,-102 559.259,-102 569.324,-102"/>
<polygon fill="midnightblue" stroke="midnightblue" points="538.25,-98.5001 528.25,-102 538.25,-105.5 538.25,-98.5001"/>
</g>
<!-- Node5 -->
<g id="node5" class="node"><title>Node5</title>
<g id="a_node5"><a xlink:href="../../d8/db1/classapplication_1_1_wa_tor_cell.html#ad9630281a27495d016b877f1531709a8" target="_top" xlink:title="application.WaTorCell.update\lThisCell">
<polygon fill="white" stroke="black" points="746,-62 746,-92 898,-92 898,-62 746,-62"/>
<text text-anchor="start" x="754" y="-80" font-family="Helvetica,sans-Serif" font-size="10.00">application.WaTorCell.update</text>
<text text-anchor="middle" x="822" y="-69" font-family="Helvetica,sans-Serif" font-size="10.00">ThisCell</text>
</a>
</g>
</g>
<!-- Node4&#45;&gt;Node5 -->
<g id="edge4" class="edge"><title>Node4&#45;&gt;Node5</title>
<path fill="none" stroke="midnightblue" d="M714.75,-91.515C725.02,-90.112 735.545,-88.6742 745.788,-87.2748"/>
<polygon fill="midnightblue" stroke="midnightblue" points="714.019,-88.0823 704.585,-92.9037 714.967,-95.0179 714.019,-88.0823"/>
</g>
<!-- Node6 -->
<g id="node6" class="node"><title>Node6</title>
<g id="a_node6"><a xlink:href="../../d8/db1/classapplication_1_1_wa_tor_cell.html#af362ec2495254143a63af649dd9754db" target="_top" xlink:title="application.WaTorCell.updateCell">
<polygon fill="white" stroke="black" points="934,-67.5 934,-86.5 1104,-86.5 1104,-67.5 934,-67.5"/>
<text text-anchor="middle" x="1019" y="-74.5" font-family="Helvetica,sans-Serif" font-size="10.00">application.WaTorCell.updateCell</text>
</a>
</g>
</g>
<!-- Node5&#45;&gt;Node6 -->
<g id="edge5" class="edge"><title>Node5&#45;&gt;Node6</title>
<path fill="none" stroke="midnightblue" d="M908.351,-77C916.809,-77 925.39,-77 933.836,-77"/>
<polygon fill="midnightblue" stroke="midnightblue" points="908.113,-73.5001 898.113,-77 908.113,-80.5001 908.113,-73.5001"/>
</g>
<!-- Node8 -->
<g id="node8" class="node"><title>Node8</title>
<g id="a_node8"><a xlink:href="../../d8/db1/classapplication_1_1_wa_tor_cell.html#acd6f36e1b67026af41aab1234ee5e58a" target="_top" xlink:title="application.WaTorCell.eatFish">
<polygon fill="white" stroke="black" points="370,-49.5 370,-68.5 522,-68.5 522,-49.5 370,-49.5"/>
<text text-anchor="middle" x="446" y="-56.5" font-family="Helvetica,sans-Serif" font-size="10.00">application.WaTorCell.eatFish</text>
</a>
</g>
</g>
<!-- Node7&#45;&gt;Node8 -->
<g id="edge7" class="edge"><title>Node7&#45;&gt;Node8</title>
<path fill="none" stroke="midnightblue" d="M337.84,-55.5981C348.482,-55.9359 359.342,-56.2807 369.867,-56.6148"/>
<polygon fill="midnightblue" stroke="midnightblue" points="337.828,-52.0961 327.722,-55.2769 337.606,-59.0925 337.828,-52.0961"/>
</g>
<!-- Node10 -->
<g id="node10" class="node"><title>Node10</title>
<g id="a_node10"><a xlink:href="../../d8/db1/classapplication_1_1_wa_tor_cell.html#ac24a6ce0cc2bfac6ffec59cc1deaf13f" target="_top" xlink:title="application.WaTorCell.move\lShark">
<polygon fill="white" stroke="black" points="373,-0 373,-30 519,-30 519,-0 373,-0"/>
<text text-anchor="start" x="381" y="-18" font-family="Helvetica,sans-Serif" font-size="10.00">application.WaTorCell.move</text>
<text text-anchor="middle" x="446" y="-7" font-family="Helvetica,sans-Serif" font-size="10.00">Shark</text>
</a>
</g>
</g>
<!-- Node7&#45;&gt;Node10 -->
<g id="edge10" class="edge"><title>Node7&#45;&gt;Node10</title>
<path fill="none" stroke="midnightblue" d="M337.833,-36.5468C349.435,-34.2142 361.296,-31.8294 372.7,-29.5366"/>
<polygon fill="midnightblue" stroke="midnightblue" points="336.836,-33.1771 327.722,-38.5796 338.216,-40.0398 336.836,-33.1771"/>
</g>
<!-- Node9 -->
<g id="node9" class="node"><title>Node9</title>
<g id="a_node9"><a xlink:href="../../d8/db1/classapplication_1_1_wa_tor_cell.html#a7b55e124dba81e37f00da7a6c09783de" target="_top" xlink:title="application.WaTorCell.shark\lUpdate">
<polygon fill="white" stroke="black" points="564.5,-38 564.5,-68 709.5,-68 709.5,-38 564.5,-38"/>
<text text-anchor="start" x="572.5" y="-56" font-family="Helvetica,sans-Serif" font-size="10.00">application.WaTorCell.shark</text>
<text text-anchor="middle" x="637" y="-45" font-family="Helvetica,sans-Serif" font-size="10.00">Update</text>
</a>
</g>
</g>
<!-- Node8&#45;&gt;Node9 -->
<g id="edge8" class="edge"><title>Node8&#45;&gt;Node9</title>
<path fill="none" stroke="midnightblue" d="M532.422,-56.2882C543.11,-55.9489 553.954,-55.6046 564.401,-55.273"/>
<polygon fill="midnightblue" stroke="midnightblue" points="532.125,-52.7958 522.241,-56.6114 532.347,-59.7922 532.125,-52.7958"/>
</g>
<!-- Node9&#45;&gt;Node5 -->
<g id="edge9" class="edge"><title>Node9&#45;&gt;Node5</title>
<path fill="none" stroke="midnightblue" d="M719.698,-63.7145C728.415,-64.8577 737.253,-66.0167 745.889,-67.1493"/>
<polygon fill="midnightblue" stroke="midnightblue" points="719.909,-60.2123 709.539,-62.3821 718.999,-67.1528 719.909,-60.2123"/>
</g>
<!-- Node10&#45;&gt;Node9 -->
<g id="edge11" class="edge"><title>Node10&#45;&gt;Node9</title>
<path fill="none" stroke="midnightblue" d="M529.067,-31.5003C540.833,-33.8659 552.861,-36.2841 564.403,-38.6048"/>
<polygon fill="midnightblue" stroke="midnightblue" points="529.756,-28.0687 519.262,-29.5288 528.376,-34.9314 529.756,-28.0687"/>
</g>
</g>
</svg>
