<?xml version="1.0" encoding="UTF-8" standalone="no"?>
<!DOCTYPE svg PUBLIC "-//W3C//DTD SVG 1.1//EN"
 "http://www.w3.org/Graphics/SVG/1.1/DTD/svg11.dtd">
<!-- Generated by graphviz version 2.36.0 (20140111.2315)
 -->
<!-- Title: application.Main Pages: 1 -->
<!--zoomable 370 -->
<svg id="main" version="1.1" xmlns="http://www.w3.org/2000/svg" xmlns:xlink="http://www.w3.org/1999/xlink" xml:space="preserve" onload="init(evt)">
<style type="text/css"><![CDATA[
.edge:hover path { stroke: red; }
.edge:hover polygon { stroke: red; fill: red; }
]]></style>
<script type="text/javascript"><![CDATA[
var edges = document.getElementsByTagName('g');
if (edges && edges.length) {
  for (var i=0;i<edges.length;i++) {
    if (edges[i].id.substr(0,4)=='edge') {
      edges[i].setAttribute('class','edge');
    }
  }
}
]]></script>
        <defs>
                <circle id="rim" cx="0" cy="0" r="7"/>
                <circle id="rim2" cx="0" cy="0" r="3.5"/>
                <g id="zoomPlus">
                        <use xlink:href="#rim" fill="#404040">
                                <set attributeName="fill" to="#808080" begin="zoomplus.mouseover" end="zoomplus.mouseout"/>
                        </use>
                        <path d="M-4,0h8M0,-4v8" fill="none" stroke="white" stroke-width="1.5" pointer-events="none"/>
                </g>
                <g id="zoomMin">
                        <use xlink:href="#rim" fill="#404040">
                                <set attributeName="fill" to="#808080" begin="zoomminus.mouseover" end="zoomminus.mouseout"/>
                        </use>
                        <path d="M-4,0h8" fill="none" stroke="white" stroke-width="1.5" pointer-events="none"/>
                </g>
                <g id="dirArrow">
                        <path fill="none" stroke="white" stroke-width="1.5" d="M0,-3.0v7 M-2.5,-0.5L0,-3.0L2.5,-0.5"/>
                </g>
               <g id="resetDef">
                       <use xlink:href="#rim2" fill="#404040">
                               <set attributeName="fill" to="#808080" begin="reset.mouseover" end="reset.mouseout"/>
                       </use>
               </g>
        </defs>

<script type="text/javascript">
var viewWidth = 1128;
var viewHeight = 370;
var sectionId = 'dynsection-1';
</script>
<script xlink:href="../../svgpan.js"/>
<svg id="graph" class="graph">
<g id="viewport">
<title>application.Main</title>
<polygon fill="white" stroke="none" points="-4,4 -4,-366 1124,-366 1124,4 -4,4"/>
<!-- Node1 -->
<g id="node1" class="node"><title>Node1</title>
<polygon fill="#bfbfbf" stroke="black" points="1026,-246.5 1026,-265.5 1120,-265.5 1120,-246.5 1026,-246.5"/>
<text text-anchor="middle" x="1073" y="-253.5" font-family="Helvetica,sans-Serif" font-size="10.00">application.Main</text>
</g>
<!-- Node2 -->
<g id="node2" class="node"><title>Node2</title>
<polygon fill="white" stroke="#bfbfbf" points="811.5,-342.5 811.5,-361.5 880.5,-361.5 880.5,-342.5 811.5,-342.5"/>
<text text-anchor="middle" x="846" y="-349.5" font-family="Helvetica,sans-Serif" font-size="10.00">Application</text>
</g>
<!-- Node2&#45;&gt;Node1 -->
<g id="edge1" class="edge"><title>Node2&#45;&gt;Node1</title>
<path fill="none" stroke="midnightblue" d="M890.575,-352.996C924.474,-352.003 971.695,-346.628 1008,-327 1035.15,-312.32 1056.63,-281.492 1066.35,-265.73"/>
<polygon fill="midnightblue" stroke="midnightblue" points="890.445,-349.498 880.508,-353.175 890.569,-356.497 890.445,-349.498"/>
</g>
<!-- Node3 -->
<g id="node3" class="node"><title>Node3</title>
<polygon fill="white" stroke="#bfbfbf" points="555,-297.5 555,-316.5 611,-316.5 611,-297.5 555,-297.5"/>
<text text-anchor="middle" x="583" y="-304.5" font-family="Helvetica,sans-Serif" font-size="10.00">Timeline</text>
</g>
<!-- Node3&#45;&gt;Node1 -->
<g id="edge2" class="edge"><title>Node3&#45;&gt;Node1</title>
<path fill="none" stroke="#9a32cd" stroke-dasharray="5,2" d="M621.478,-305.963C695.735,-303.436 866.602,-295.273 1008,-271 1016.66,-269.513 1025.9,-267.564 1034.59,-265.565"/>
<polygon fill="#9a32cd" stroke="#9a32cd" points="621.119,-302.472 611.238,-306.296 621.347,-309.469 621.119,-302.472"/>
<text text-anchor="middle" x="846" y="-301" font-family="Helvetica,sans-Serif" font-size="10.00"> animation</text>
</g>
<!-- Node5 -->
<g id="node5" class="node"><title>Node5</title>
<g id="a_node5"><a xlink:href="../../d9/d5e/classapplication_1_1_application_loop.html" target="_top" xlink:title="application.ApplicationLoop">
<polygon fill="white" stroke="black" points="772.5,-187.5 772.5,-206.5 919.5,-206.5 919.5,-187.5 772.5,-187.5"/>
<text text-anchor="middle" x="846" y="-194.5" font-family="Helvetica,sans-Serif" font-size="10.00">application.ApplicationLoop</text>
</a>
</g>
</g>
<!-- Node3&#45;&gt;Node5 -->
<g id="edge5" class="edge"><title>Node3&#45;&gt;Node5</title>
<path fill="none" stroke="#9a32cd" stroke-dasharray="5,2" d="M621.166,-300.209C664.396,-291.79 732.579,-276.742 754,-262 765.279,-254.238 761.743,-246.069 772,-237 786.724,-223.981 806.406,-213.506 821.623,-206.546"/>
<polygon fill="#9a32cd" stroke="#9a32cd" points="620.449,-296.782 611.287,-302.102 621.767,-303.657 620.449,-296.782"/>
<text text-anchor="middle" x="718" y="-290" font-family="Helvetica,sans-Serif" font-size="10.00"> animation</text>
</g>
<!-- Node4 -->
<g id="node4" class="node"><title>Node4</title>
<polygon fill="white" stroke="#bfbfbf" points="823.5,-246.5 823.5,-265.5 868.5,-265.5 868.5,-246.5 823.5,-246.5"/>
<text text-anchor="middle" x="846" y="-253.5" font-family="Helvetica,sans-Serif" font-size="10.00">Stage</text>
</g>
<!-- Node4&#45;&gt;Node1 -->
<g id="edge3" class="edge"><title>Node4&#45;&gt;Node1</title>
<path fill="none" stroke="#9a32cd" stroke-dasharray="5,2" d="M878.628,-256C916.904,-256 981.674,-256 1025.6,-256"/>
<polygon fill="#9a32cd" stroke="#9a32cd" points="878.574,-252.5 868.574,-256 878.574,-259.5 878.574,-252.5"/>
<text text-anchor="middle" x="973" y="-259" font-family="Helvetica,sans-Serif" font-size="10.00"> primaryStage</text>
</g>
<!-- Node5&#45;&gt;Node1 -->
<g id="edge4" class="edge"><title>Node5&#45;&gt;Node1</title>
<path fill="none" stroke="#9a32cd" stroke-dasharray="5,2" d="M893.149,-209.101C935.328,-220.162 996.869,-236.299 1035.65,-246.469"/>
<polygon fill="#9a32cd" stroke="#9a32cd" points="893.961,-205.696 883.4,-206.545 892.185,-212.467 893.961,-205.696"/>
<text text-anchor="middle" x="973" y="-242" font-family="Helvetica,sans-Serif" font-size="10.00"> myGame</text>
</g>
<!-- Node6 -->
<g id="node6" class="node"><title>Node6</title>
<polygon fill="white" stroke="#bfbfbf" points="507.5,-253.5 507.5,-272.5 658.5,-272.5 658.5,-253.5 507.5,-253.5"/>
<text text-anchor="middle" x="583" y="-260.5" font-family="Helvetica,sans-Serif" font-size="10.00">ArrayList&lt; XYChart.Series &gt;</text>
</g>
<!-- Node6&#45;&gt;Node5 -->
<g id="edge6" class="edge"><title>Node6&#45;&gt;Node5</title>
<path fill="none" stroke="#9a32cd" stroke-dasharray="5,2" d="M655.66,-251.653C686.217,-246.155 722.108,-238.82 754,-230 777.486,-223.505 803.561,-213.781 821.758,-206.569"/>
<polygon fill="#9a32cd" stroke="#9a32cd" points="654.753,-248.259 645.515,-253.446 655.972,-255.152 654.753,-248.259"/>
<text text-anchor="middle" x="718" y="-250" font-family="Helvetica,sans-Serif" font-size="10.00"> series</text>
</g>
<!-- Node7 -->
<g id="node7" class="node"><title>Node7</title>
<g id="a_node7"><a xlink:href="../../d3/d32/classapplication_1_1_grid.html" target="_top" xlink:title="application.Grid">
<polygon fill="white" stroke="black" points="537.5,-215.5 537.5,-234.5 628.5,-234.5 628.5,-215.5 537.5,-215.5"/>
<text text-anchor="middle" x="583" y="-222.5" font-family="Helvetica,sans-Serif" font-size="10.00">application.Grid</text>
</a>
</g>
</g>
<!-- Node7&#45;&gt;Node5 -->
<g id="edge7" class="edge"><title>Node7&#45;&gt;Node5</title>
<path fill="none" stroke="#9a32cd" stroke-dasharray="5,2" d="M638.625,-219.14C677.418,-214.978 729.917,-209.346 772.256,-204.804"/>
<polygon fill="#9a32cd" stroke="#9a32cd" points="638.141,-215.672 628.571,-220.218 638.887,-222.632 638.141,-215.672"/>
<text text-anchor="middle" x="718" y="-218" font-family="Helvetica,sans-Serif" font-size="10.00"> grid</text>
</g>
<!-- Node8 -->
<g id="node8" class="node"><title>Node8</title>
<g id="a_node8"><a xlink:href="../../d7/dff/classapplication_1_1_cell.html" target="_top" xlink:title="application.Cell">
<polygon fill="white" stroke="black" points="267.5,-243.5 267.5,-262.5 356.5,-262.5 356.5,-243.5 267.5,-243.5"/>
<text text-anchor="middle" x="312" y="-250.5" font-family="Helvetica,sans-Serif" font-size="10.00">application.Cell</text>
</a>
</g>
</g>
<!-- Node8&#45;&gt;Node7 -->
<g id="edge8" class="edge"><title>Node8&#45;&gt;Node7</title>
<path fill="none" stroke="#9a32cd" stroke-dasharray="5,2" d="M366.493,-247.432C416.474,-242.229 490.24,-234.551 537.199,-229.663"/>
<polygon fill="#9a32cd" stroke="#9a32cd" points="366.102,-243.954 356.518,-248.47 366.827,-250.916 366.102,-243.954"/>
<text text-anchor="middle" x="439" y="-247" font-family="Helvetica,sans-Serif" font-size="10.00"> cellMatrix</text>
</g>
<!-- Node8&#45;&gt;Node8 -->
<g id="edge11" class="edge"><title>Node8&#45;&gt;Node8</title>
<path fill="none" stroke="#9a32cd" stroke-dasharray="5,2" d="M290.52,-272.4C291.954,-277.315 299.114,-281 312,-281 332.617,-281 338.577,-271.565 329.879,-262.757"/>
<polygon fill="#9a32cd" stroke="#9a32cd" points="293.901,-273.35 294.121,-262.757 287.343,-270.9 293.901,-273.35"/>
<text text-anchor="middle" x="312" y="-284" font-family="Helvetica,sans-Serif" font-size="10.00"> Matrix</text>
</g>
<!-- Node9 -->
<g id="node9" class="node"><title>Node9</title>
<polygon fill="white" stroke="#bfbfbf" points="0.5,-261 0.5,-291 143.5,-291 143.5,-261 0.5,-261"/>
<text text-anchor="start" x="8.5" y="-279" font-family="Helvetica,sans-Serif" font-size="10.00">Map&lt; Integer, application.</text>
<text text-anchor="middle" x="72" y="-268" font-family="Helvetica,sans-Serif" font-size="10.00">Cell &gt;</text>
</g>
<!-- Node9&#45;&gt;Node8 -->
<g id="edge9" class="edge"><title>Node9&#45;&gt;Node8</title>
<path fill="none" stroke="#9a32cd" stroke-dasharray="5,2" d="M153.809,-268.191C191.848,-264.515 235.71,-260.276 267.42,-257.212"/>
<polygon fill="#9a32cd" stroke="#9a32cd" points="153.38,-264.716 143.763,-269.162 154.054,-271.683 153.38,-264.716"/>
<text text-anchor="middle" x="196" y="-271" font-family="Helvetica,sans-Serif" font-size="10.00"> neighbors</text>
</g>
<!-- Node10 -->
<g id="node10" class="node"><title>Node10</title>
<polygon fill="white" stroke="#bfbfbf" points="52,-221.5 52,-240.5 92,-240.5 92,-221.5 52,-221.5"/>
<text text-anchor="middle" x="72" y="-228.5" font-family="Helvetica,sans-Serif" font-size="10.00">Paint</text>
</g>
<!-- Node10&#45;&gt;Node8 -->
<g id="edge10" class="edge"><title>Node10&#45;&gt;Node8</title>
<path fill="none" stroke="#9a32cd" stroke-dasharray="5,2" d="M102.777,-229.014C134.466,-227.406 185.998,-226.246 230,-232 247.286,-234.26 266.164,-239.016 281.344,-243.431"/>
<polygon fill="#9a32cd" stroke="#9a32cd" points="102.23,-225.538 92.4408,-229.59 102.62,-232.528 102.23,-225.538"/>
<text text-anchor="middle" x="196" y="-246" font-family="Helvetica,sans-Serif" font-size="10.00"> currentState</text>
<text text-anchor="middle" x="196" y="-235" font-family="Helvetica,sans-Serif" font-size="10.00">updatedState</text>
</g>
<!-- Node11 -->
<g id="node11" class="node"><title>Node11</title>
<polygon fill="white" stroke="#bfbfbf" points="289,-198.5 289,-217.5 335,-217.5 335,-198.5 289,-198.5"/>
<text text-anchor="middle" x="312" y="-205.5" font-family="Helvetica,sans-Serif" font-size="10.00">Group</text>
</g>
<!-- Node11&#45;&gt;Node5 -->
<g id="edge21" class="edge"><title>Node11&#45;&gt;Node5</title>
<path fill="none" stroke="#9a32cd" stroke-dasharray="5,2" d="M345.426,-205.09C383.044,-201.871 446.952,-196.891 502,-195 573.958,-192.528 592.001,-194.602 664,-195 699.667,-195.197 739.287,-195.613 772.342,-196.014"/>
<polygon fill="#9a32cd" stroke="#9a32cd" points="344.748,-201.635 335.088,-205.986 345.354,-208.609 344.748,-201.635"/>
<text text-anchor="middle" x="583" y="-198" font-family="Helvetica,sans-Serif" font-size="10.00"> root</text>
</g>
<!-- Node11&#45;&gt;Node7 -->
<g id="edge12" class="edge"><title>Node11&#45;&gt;Node7</title>
<path fill="none" stroke="#9a32cd" stroke-dasharray="5,2" d="M345.096,-210.028C392.877,-213.048 482.894,-218.737 537.158,-222.166"/>
<polygon fill="#9a32cd" stroke="#9a32cd" points="345.214,-206.529 335.013,-209.391 344.773,-213.515 345.214,-206.529"/>
<text text-anchor="middle" x="439" y="-222" font-family="Helvetica,sans-Serif" font-size="10.00"> root</text>
</g>
<!-- Node12 -->
<g id="node12" class="node"><title>Node12</title>
<polygon fill="white" stroke="#bfbfbf" points="502.5,-130.5 502.5,-149.5 663.5,-149.5 663.5,-130.5 502.5,-130.5"/>
<text text-anchor="middle" x="583" y="-137.5" font-family="Helvetica,sans-Serif" font-size="10.00">EventHandler&lt; ActionEvent &gt;</text>
</g>
<!-- Node12&#45;&gt;Node5 -->
<g id="edge13" class="edge"><title>Node12&#45;&gt;Node5</title>
<path fill="none" stroke="#9a32cd" stroke-dasharray="5,2" d="M674.149,-146.826C700.17,-149.953 728.434,-154.477 754,-161 779.352,-167.468 807.134,-179.182 825.247,-187.49"/>
<polygon fill="#9a32cd" stroke="#9a32cd" points="674.25,-143.315 663.917,-145.653 673.453,-150.269 674.25,-143.315"/>
<text text-anchor="middle" x="718" y="-164" font-family="Helvetica,sans-Serif" font-size="10.00"> oneFrame</text>
</g>
<!-- Node13 -->
<g id="node13" class="node"><title>Node13</title>
<g id="a_node13"><a xlink:href="../../d1/dd5/classapplication_1_1_cell_x_m_l_reader.html" target="_top" xlink:title="application.CellXMLReader">
<polygon fill="white" stroke="black" points="512.5,-88.5 512.5,-107.5 653.5,-107.5 653.5,-88.5 512.5,-88.5"/>
<text text-anchor="middle" x="583" y="-95.5" font-family="Helvetica,sans-Serif" font-size="10.00">application.CellXMLReader</text>
</a>
</g>
</g>
<!-- Node13&#45;&gt;Node1 -->
<g id="edge22" class="edge"><title>Node13&#45;&gt;Node1</title>
<path fill="none" stroke="#9a32cd" stroke-dasharray="5,2" d="M663.99,-98.7097C692.61,-100.136 724.96,-103.102 754,-109 874.387,-133.451 902.042,-155.842 1008,-218 1024.38,-227.611 1043.05,-238.714 1055.98,-246.427"/>
<polygon fill="#9a32cd" stroke="#9a32cd" points="663.772,-95.1967 653.628,-98.2515 663.463,-102.19 663.772,-95.1967"/>
<text text-anchor="middle" x="846" y="-170" font-family="Helvetica,sans-Serif" font-size="10.00"> cellXMLReader</text>
</g>
<!-- Node13&#45;&gt;Node5 -->
<g id="edge14" class="edge"><title>Node13&#45;&gt;Node5</title>
<path fill="none" stroke="#9a32cd" stroke-dasharray="5,2" d="M663.886,-108.185C693.031,-113.629 725.75,-121.818 754,-134 785.937,-147.771 818.203,-173.562 834.368,-187.492"/>
<polygon fill="#9a32cd" stroke="#9a32cd" points="664.199,-104.686 653.739,-106.372 662.968,-111.576 664.199,-104.686"/>
<text text-anchor="middle" x="718" y="-137" font-family="Helvetica,sans-Serif" font-size="10.00"> cellXMLReader</text>
</g>
<!-- Node14 -->
<g id="node14" class="node"><title>Node14</title>
<polygon fill="white" stroke="#bfbfbf" points="259,-152.5 259,-171.5 365,-171.5 365,-152.5 259,-152.5"/>
<text text-anchor="middle" x="312" y="-159.5" font-family="Helvetica,sans-Serif" font-size="10.00">ArrayList&lt; Color &gt;</text>
</g>
<!-- Node14&#45;&gt;Node13 -->
<g id="edge15" class="edge"><title>Node14&#45;&gt;Node13</title>
<path fill="none" stroke="#9a32cd" stroke-dasharray="5,2" d="M375.009,-155.733C408.047,-151.164 448.983,-143.514 484,-131 492.618,-127.92 493.548,-124.509 502,-121 514.68,-115.736 528.965,-111.211 541.919,-107.602"/>
<polygon fill="#9a32cd" stroke="#9a32cd" points="374.479,-152.272 365.024,-157.053 375.397,-159.212 374.479,-152.272"/>
<text text-anchor="middle" x="439" y="-156" font-family="Helvetica,sans-Serif" font-size="10.00"> myColors</text>
</g>
<!-- Node15 -->
<g id="node15" class="node"><title>Node15</title>
<polygon fill="white" stroke="#bfbfbf" points="282.5,-114.5 282.5,-133.5 341.5,-133.5 341.5,-114.5 282.5,-114.5"/>
<text text-anchor="middle" x="312" y="-121.5" font-family="Helvetica,sans-Serif" font-size="10.00">NodeList</text>
</g>
<!-- Node15&#45;&gt;Node13 -->
<g id="edge16" class="edge"><title>Node15&#45;&gt;Node13</title>
<path fill="none" stroke="#9a32cd" stroke-dasharray="5,2" d="M351.602,-120.269C393.5,-116.219 461.269,-109.669 512.487,-104.719"/>
<polygon fill="#9a32cd" stroke="#9a32cd" points="351.15,-116.796 341.533,-121.242 351.823,-123.764 351.15,-116.796"/>
<text text-anchor="middle" x="439" y="-119" font-family="Helvetica,sans-Serif" font-size="10.00"> myNodeList</text>
</g>
<!-- Node16 -->
<g id="node16" class="node"><title>Node16</title>
<polygon fill="white" stroke="#bfbfbf" points="248,-76.5 248,-95.5 376,-95.5 376,-76.5 248,-76.5"/>
<text text-anchor="middle" x="312" y="-83.5" font-family="Helvetica,sans-Serif" font-size="10.00">List&lt; application.Cell &gt;</text>
</g>
<!-- Node16&#45;&gt;Node13 -->
<g id="edge17" class="edge"><title>Node16&#45;&gt;Node13</title>
<path fill="none" stroke="#9a32cd" stroke-dasharray="5,2" d="M386.412,-87.4691C416.647,-88.2505 452.02,-89.391 484,-91 493.199,-91.4628 502.878,-92.0419 512.425,-92.6675"/>
<polygon fill="#9a32cd" stroke="#9a32cd" points="386.452,-83.9691 376.367,-87.2178 386.277,-90.9669 386.452,-83.9691"/>
<text text-anchor="middle" x="439" y="-94" font-family="Helvetica,sans-Serif" font-size="10.00"> myCellList</text>
</g>
<!-- Node17 -->
<g id="node17" class="node"><title>Node17</title>
<polygon fill="white" stroke="#bfbfbf" points="254.5,-38.5 254.5,-57.5 369.5,-57.5 369.5,-38.5 254.5,-38.5"/>
<text text-anchor="middle" x="312" y="-45.5" font-family="Helvetica,sans-Serif" font-size="10.00">ArrayList&lt; Integer &gt;</text>
</g>
<!-- Node17&#45;&gt;Node13 -->
<g id="edge18" class="edge"><title>Node17&#45;&gt;Node13</title>
<path fill="none" stroke="#9a32cd" stroke-dasharray="5,2" d="M379.779,-54.9867C411.591,-59.0196 450.023,-64.9204 484,-73 492.204,-74.9509 493.89,-76.6901 502,-79 513.807,-82.3628 526.71,-85.6105 538.639,-88.4408"/>
<polygon fill="#9a32cd" stroke="#9a32cd" points="380.051,-51.4938 369.697,-53.7425 379.193,-58.4411 380.051,-51.4938"/>
<text text-anchor="middle" x="439" y="-76" font-family="Helvetica,sans-Serif" font-size="10.00"> myWaTorVariables</text>
</g>
<!-- Node18 -->
<g id="node18" class="node"><title>Node18</title>
<polygon fill="white" stroke="#bfbfbf" points="278.5,-0.5 278.5,-19.5 345.5,-19.5 345.5,-0.5 278.5,-0.5"/>
<text text-anchor="middle" x="312" y="-7.5" font-family="Helvetica,sans-Serif" font-size="10.00">Document</text>
</g>
<!-- Node18&#45;&gt;Node13 -->
<g id="edge19" class="edge"><title>Node18&#45;&gt;Node13</title>
<path fill="none" stroke="#9a32cd" stroke-dasharray="5,2" d="M355.793,-8.15015C393.187,-8.70877 447.117,-15.0256 484,-43 498.253,-53.8101 487.98,-67.8892 502,-79 506.811,-82.8126 512.262,-85.8805 518.004,-88.3462"/>
<polygon fill="#9a32cd" stroke="#9a32cd" points="355.718,-4.65011 345.712,-8.13207 355.706,-11.6501 355.718,-4.65011"/>
<text text-anchor="middle" x="439" y="-46" font-family="Helvetica,sans-Serif" font-size="10.00"> myDocument</text>
</g>
<!-- Node19 -->
<g id="node19" class="node"><title>Node19</title>
<polygon fill="white" stroke="#bfbfbf" points="553.5,-50.5 553.5,-69.5 612.5,-69.5 612.5,-50.5 553.5,-50.5"/>
<text text-anchor="middle" x="583" y="-57.5" font-family="Helvetica,sans-Serif" font-size="10.00">GridPane</text>
</g>
<!-- Node19&#45;&gt;Node5 -->
<g id="edge20" class="edge"><title>Node19&#45;&gt;Node5</title>
<path fill="none" stroke="#9a32cd" stroke-dasharray="5,2" d="M622.789,-62.0591C658.891,-65.4467 713.121,-74.3932 754,-98 793.827,-120.999 826.246,-167.227 839.074,-187.313"/>
<polygon fill="#9a32cd" stroke="#9a32cd" points="622.915,-58.5575 612.658,-61.2097 622.33,-65.533 622.915,-58.5575"/>
<text text-anchor="middle" x="718" y="-101" font-family="Helvetica,sans-Serif" font-size="10.00"> gridpane</text>
</g>
</g>
</svg>
        <g id="navigator" transform="translate(0 0)" fill="#404254">
                <rect fill="#f2f5e9" fill-opacity="0.5" stroke="#606060" stroke-width=".5" x="0" y="0" width="60" height="60"/>
                <use id="zoomplus" xlink:href="#zoomPlus" x="17" y="9" onmousedown="handleZoom(evt,'in')"/>
                <use id="zoomminus" xlink:href="#zoomMin" x="42" y="9" onmousedown="handleZoom(evt,'out')"/>
                <use id="reset" xlink:href="#resetDef" x="30" y="36" onmousedown="handleReset()"/>
                <g id="arrowUp" xlink:href="#dirArrow" transform="translate(30 24)" onmousedown="handlePan(0,-1)">
                  <use xlink:href="#rim" fill="#404040">
                        <set attributeName="fill" to="#808080" begin="arrowUp.mouseover" end="arrowUp.mouseout"/>
                  </use>
                  <path fill="none" stroke="white" stroke-width="1.5" d="M0,-3.0v7 M-2.5,-0.5L0,-3.0L2.5,-0.5"/>
                </g>
                <g id="arrowRight" xlink:href="#dirArrow" transform="rotate(90) translate(36 -43)" onmousedown="handlePan(1,0)">
                  <use xlink:href="#rim" fill="#404040">
                        <set attributeName="fill" to="#808080" begin="arrowRight.mouseover" end="arrowRight.mouseout"/>
                  </use>
                  <path fill="none" stroke="white" stroke-width="1.5" d="M0,-3.0v7 M-2.5,-0.5L0,-3.0L2.5,-0.5"/>
                </g>
                <g id="arrowDown" xlink:href="#dirArrow" transform="rotate(180) translate(-30 -48)" onmousedown="handlePan(0,1)">
                  <use xlink:href="#rim" fill="#404040">
                        <set attributeName="fill" to="#808080" begin="arrowDown.mouseover" end="arrowDown.mouseout"/>
                  </use>
                  <path fill="none" stroke="white" stroke-width="1.5" d="M0,-3.0v7 M-2.5,-0.5L0,-3.0L2.5,-0.5"/>
                </g>
                <g id="arrowLeft" xlink:href="#dirArrow" transform="rotate(270) translate(-36 17)" onmousedown="handlePan(-1,0)">
                  <use xlink:href="#rim" fill="#404040">
                        <set attributeName="fill" to="#808080" begin="arrowLeft.mouseover" end="arrowLeft.mouseout"/>
                  </use>
                  <path fill="none" stroke="white" stroke-width="1.5" d="M0,-3.0v7 M-2.5,-0.5L0,-3.0L2.5,-0.5"/>
                </g>
        </g>
        <svg viewBox="0 0 15 15" width="100%" height="30px" preserveAspectRatio="xMaxYMin meet">
         <g id="arrow_out" transform="scale(0.3 0.3)">
          <a xlink:href="classapplication_1_1_main__coll__graph_org.svg" target="_base">
           <rect id="button" ry="5" rx="5" y="6" x="6" height="38" width="38"
                fill="#f2f5e9" fill-opacity="0.5" stroke="#606060" stroke-width="1.0"/>
           <path id="arrow"
             d="M 11.500037,31.436501 C 11.940474,20.09759 22.043105,11.32322 32.158766,21.979434 L 37.068811,17.246167 C 37.068811,17.246167 37.088388,32 37.088388,32 L 22.160133,31.978069 C 22.160133,31.978069 26.997745,27.140456 26.997745,27.140456 C 18.528582,18.264221 13.291696,25.230495 11.500037,31.436501 z"
             style="fill:#404040;"/>
          </a>
         </g>
        </svg>
</svg>
